<?xml version="1.0" standalone="no"?>
<!DOCTYPE svg PUBLIC "-//W3C//DTD SVG 1.1//EN" "http://www.w3.org/Graphics/SVG/1.1/DTD/svg11.dtd" >
<svg xmlns="http://www.w3.org/2000/svg" xmlns:xlink="http://www.w3.org/1999/xlink" version="1.1">
<metadata>
Created by FontForge 20201107 at Sat Sep 14 10:04:14 2024
 By 
</metadata>
<defs>
<font id="MangoGrotesque-ExtLtIta" horiz-adv-x="501" >
  <font-face 
    font-family="Mango Grotesque ExtLt Ita"
    font-weight="200"
    font-style="italic"
    font-stretch="normal"
    units-per-em="2048"
    panose-1="0 0 0 0 0 0 0 0 0 0"
    ascent="1638"
    descent="-410"
    x-height="1106"
    cap-height="1434"
    bbox="-144.78 -430 1599 1878"
    underline-thickness="102"
    underline-position="-255"
    slope="-9"
    unicode-range="U+000D-FB02"
  />
<missing-glyph horiz-adv-x="1126" 
d="M78 0l227 1434h971l-227 -1434h-971zM453 1331l237 -530l406 530h-643zM729 717l244 -547l174 1094zM381 1264l-174 -1094l420 547zM664 633l-406 -531h643z" />
    <glyph glyph-name=".notdef" horiz-adv-x="1126" 
d="M78 0l227 1434h971l-227 -1434h-971zM453 1331l237 -530l406 530h-643zM729 717l244 -547l174 1094zM381 1264l-174 -1094l420 547zM664 633l-406 -531h643z" />
    <glyph glyph-name="uni0000" horiz-adv-x="0" 
 />
    <glyph glyph-name="uni0000" horiz-adv-x="0" 
 />
    <glyph glyph-name="uni000D" unicode="&#xd;" horiz-adv-x="512" 
 />
    <glyph glyph-name="space" unicode=" " horiz-adv-x="292" 
 />
    <glyph glyph-name="exclam" unicode="!" horiz-adv-x="266" 
d="M317 1434h76l-33 -205l-163 -961h-54zM78 0l22 135h109l-21 -135h-110z" />
    <glyph glyph-name="quotedbl" unicode="&#x22;" horiz-adv-x="403" 
d="M569 1536l-12 -80l-76 -403h-45l53 403l13 80h67zM389 1536l-12 -80l-76 -403h-45l53 403l13 80h67z" />
    <glyph glyph-name="numbersign" unicode="#" horiz-adv-x="739" 
d="M170 0l113 524h-121l8 62h125l57 262h-139l8 61h144l114 525h66l-113 -525h189l112 525h68l-115 -525h121l-10 -61h-123l-58 -262h140l-11 -62h-141l-112 -524h-68l113 524h-189l-112 -524h-66zM362 586h189l57 262h-188z" />
    <glyph glyph-name="dollar" unicode="$" horiz-adv-x="548" 
d="M631 1006h-74l33 200q17 107 -5 151t-83 44q-65 0 -104 -44.5t-56 -150.5l-20 -125q-12 -86 11 -160t73 -151q20 -30 28.5 -44t26.5 -43.5t27 -48.5t22 -48.5t18.5 -53.5t11 -54t5 -60.5t-5.5 -61.5l-21 -120q-38 -243 -215 -265l-24 -174h-66l29 174q-176 16 -138 265
l31 194h76l-33 -201q-17 -107 7 -151.5t91 -44.5q66 0 107.5 45t58.5 151l21 125q11 65 -5.5 131.5t-38 105.5t-65.5 107q-43 67 -66 112t-38 118t-2 149l18 125q41 241 209 260l27 174h65l-28 -174q163 -19 125 -260z" />
    <glyph glyph-name="percent" unicode="%" horiz-adv-x="1110" 
d="M643 1202l-49 -323q-43 -265 -229 -265q-191 0 -148 265l51 323q43 262 230 262q188 0 145 -262zM225 0l842 1434h59l-841 -1434h-60zM578 1206q17 105 -2 150t-82 45q-65 0 -103 -46.5t-55 -148.5l-53 -332q-15 -105 4.5 -150.5t81.5 -45.5q65 0 102.5 46.5t52.5 149.5z
M1120 559l-51 -323q-22 -135 -77.5 -201t-149.5 -66q-191 0 -148 267l51 323q43 262 230 262q188 0 145 -262zM1055 563q17 105 -2 150t-82 45q-65 0 -104 -47t-54 -148l-53 -334q-17 -103 3 -149.5t83 -46.5t100.5 47t54.5 149z" />
    <glyph glyph-name="ampersand" unicode="&#x26;" horiz-adv-x="620" 
d="M641 1057h-76l23 141q17 102 -4.5 148.5t-87.5 46.5q-68 0 -107.5 -47t-56.5 -148l-39 -252q-17 -103 5.5 -150.5t88.5 -47.5h129l21 124h73l-18 -124h78l-8 -62h-80l-109 -686h-59l18 115h-6q-34 -80 -73.5 -113t-100.5 -33q-94 0 -131 68.5t-15 202.5l37 229
q17 107 51 166.5t91 79.5v4q-98 40 -64 246l37 229q43 270 244 270q203 0 160 -270zM508 686h-131q-66 0 -103.5 -46.5t-54.5 -150.5l-39 -251q-17 -101 4.5 -148t85.5 -47q71 0 113 61.5t63 204.5z" />
    <glyph glyph-name="quotesingle" unicode="'" horiz-adv-x="223" 
d="M389 1536l-12 -80l-76 -403h-45l53 403l13 80h67z" />
    <glyph glyph-name="parenleft" unicode="(" horiz-adv-x="387" 
d="M188 -338q-86 495 -14 944q73 457 311 936l66 -16q-232 -477 -301 -920q-68 -438 8 -930z" />
    <glyph glyph-name="parenright" unicode=")" horiz-adv-x="387" 
d="M387 1540q87 -487 14 -944q-74 -466 -311 -936l-65 16q230 467 301 920q69 445 -9 930z" />
    <glyph glyph-name="asterisk" unicode="*" horiz-adv-x="786" 
d="M313 887l224 223l-273 72l39 75l252 -110l25 291h82l-70 -291l291 110l12 -75l-295 -72l152 -223l-72 -47l-115 247l-194 -247z" />
    <glyph glyph-name="plus" unicode="+" horiz-adv-x="901" 
d="M938 727l-12 -65h-336l-55 -340h-68l53 340h-338l11 65h337l54 340h69l-53 -340h338z" />
    <glyph glyph-name="comma" unicode="," horiz-adv-x="266" 
d="M209 135l-31 -201q-12 -70 -42 -99.5t-89 -29.5l8 50q32 0 46 20t20 66l10 59h-53l20 135h111z" />
    <glyph glyph-name="hyphen" unicode="-" horiz-adv-x="647" 
d="M684 725l-10 -61h-492l11 61h491z" />
    <glyph glyph-name="period" unicode="." horiz-adv-x="266" 
d="M78 0l22 135h109l-21 -135h-110z" />
    <glyph glyph-name="slash" unicode="/" horiz-adv-x="460" 
d="M123 -164h-72l498 1659h72z" />
    <glyph glyph-name="zero" unicode="0" horiz-adv-x="540" 
d="M664 1202l-154 -966q-43 -267 -244 -267q-202 0 -162 267l154 966q43 262 244 262q202 0 162 -262zM590 1206q15 104 -6 149.5t-88 45.5q-68 0 -107.5 -46.5t-54.5 -148.5l-156 -977q-15 -104 6 -150t88 -46t107 47.5t55 148.5z" />
    <glyph glyph-name="one" unicode="1" horiz-adv-x="423" 
d="M477 1434l-217 -1371h98l-8 -63h-274l10 63h98l191 1190h-66l10 56q47 0 67.5 28t31.5 97h59z" />
    <glyph glyph-name="two" unicode="2" horiz-adv-x="540" 
d="M227 944l35 221q46 299 244 299t149 -309l-22 -141q-10 -59 -31 -110.5t-56 -99t-63 -79t-75 -78.5q-48 -48 -72 -74t-59.5 -71.5t-55.5 -90t-28 -94.5l-41 -254h331l-10 -63h-405l51 315q10 61 34.5 117t66.5 109.5t74 87.5t85 86q73 72 119.5 143.5t60.5 157.5l25 155
q20 125 -1 177.5t-83 52.5q-63 0 -103 -50.5t-59 -170.5l-37 -236h-74z" />
    <glyph glyph-name="three" unicode="3" horiz-adv-x="540" 
d="M664 1202l-37 -229q-27 -184 -133 -230v-4q88 -45 61 -227l-45 -279q-43 -264 -244 -264q-202 0 -162 264l46 283h75l-47 -289q-15 -104 6 -149t88 -45q68 0 107.5 46t54.5 148l45 281q17 106 -5.5 153.5t-92.5 47.5h-12l10 63h12q69 0 107 48t55 155l37 231
q15 104 -6 149.5t-88 45.5q-68 0 -107.5 -46.5t-54.5 -148.5l-39 -241h-74l37 237q43 262 244 262q202 0 162 -262z" />
    <glyph glyph-name="four" unicode="4" horiz-adv-x="595" 
d="M688 1434l-174 -1106h59l-10 -64h-59l-43 -264h-74l43 264h-313l10 64l471 1106h90zM203 328h237l121 766l45 198h-6l-47 -129z" />
    <glyph glyph-name="five" unicode="5" horiz-adv-x="540" 
d="M680 1434l-10 -64h-310l-88 -549h4q58 137 185 137q166 0 123 -258l-74 -464q-43 -267 -242 -267q-206 0 -162 267l31 202h76l-33 -209q-17 -103 5.5 -149.5t90.5 -46.5q67 0 105 46.5t55 149.5l74 471q15 102 -5.5 148.5t-82.5 46.5q-65 0 -109 -48.5t-59 -146.5l-4 -30
h-76l121 764h385z" />
    <glyph glyph-name="six" unicode="6" horiz-adv-x="540" 
d="M637 1038h-74l27 166q15 104 -6 150.5t-86 46.5q-69 0 -109 -53.5t-59 -171.5l-72 -445h4q56 127 176 127q172 0 129 -264l-57 -358q-43 -267 -242 -267q-206 0 -162 267l148 933q46 295 250 295q200 0 160 -264zM272 33q68 0 107.5 47t54.5 149l60 371
q17 102 -5.5 148.5t-89.5 46.5q-66 0 -105 -47t-56 -148l-60 -371q-15 -104 6 -150t88 -46z" />
    <glyph glyph-name="seven" unicode="7" horiz-adv-x="536" 
d="M688 1434l-10 -66q-143 -385 -229.5 -666t-194.5 -702h-76q115 439 200.5 715.5t227.5 648.5l-4 4h-309l10 66h385z" />
    <glyph glyph-name="eight" unicode="8" horiz-adv-x="540" 
d="M664 1202l-35 -221q-30 -180 -135 -231l-2 -5q90 -49 63 -229l-45 -280q-43 -267 -242 -267q-206 0 -162 267l44 280q30 180 137 229v5q-91 49 -64 231l35 221q43 262 244 262q202 0 162 -262zM590 1206q15 104 -6 149.5t-88 45.5q-68 0 -107.5 -46.5t-54.5 -148.5
l-37 -231q-15 -103 6.5 -150t87.5 -47q133 0 162 197zM481 522q15 103 -6 149t-88 46q-68 0 -107.5 -47t-54.5 -148l-47 -293q-15 -104 6 -150t88 -46q68 0 107.5 47t54.5 149z" />
    <glyph glyph-name="nine" unicode="9" horiz-adv-x="540" 
d="M131 395h74l-27 -166q-15 -104 6 -150t86 -46q69 0 109.5 53.5t60.5 171.5l70 447h-4q-52 -130 -176 -130q-169 0 -129 265l57 360q43 264 242 264q204 0 164 -264l-150 -936q-46 -295 -250 -295q-99 0 -139.5 67t-18.5 200zM496 1401q-68 0 -107.5 -47.5t-54.5 -149.5
l-60 -370q-15 -103 6.5 -149t88.5 -46q68 0 107 47t54 148l60 370q15 104 -6 150.5t-88 46.5z" />
    <glyph glyph-name="colon" unicode=":" horiz-adv-x="266" 
d="M231 971l23 135h108l-20 -135h-111zM78 0l22 135h109l-21 -135h-110z" />
    <glyph glyph-name="semicolon" unicode=";" horiz-adv-x="268" 
d="M233 971l23 135h109l-21 -135h-111zM209 135l-31 -201q-12 -70 -42 -99.5t-89 -29.5l8 50q32 0 46 20t20 66l10 59h-53l20 135h111z" />
    <glyph glyph-name="less" unicode="&#x3c;" horiz-adv-x="612" 
d="M659 788l-12 -77l-418 -168v-6l363 -164l-10 -76l-424 217l8 53z" />
    <glyph glyph-name="equal" unicode="=" horiz-adv-x="892" 
d="M956 895l-10 -66h-737l10 66h737zM903 559l-10 -65h-737l10 65h737z" />
    <glyph glyph-name="greater" unicode="&#x3e;" horiz-adv-x="612" 
d="M160 297l10 78l418 170v4l-363 166l13 73l421 -217l-8 -53z" />
    <glyph glyph-name="question" unicode="?" horiz-adv-x="550" 
d="M227 944l35 221q49 299 246 299q199 0 147 -311l-22 -143q-17 -108 -57 -191t-105 -178q-63 -91 -101 -166.5t-53 -167.5l-6 -39h-73l6 37q10 61 28.5 117.5t48 110.5t51 88t58.5 86q106 158 129 303l25 157q21 126 -1 180t-85 54q-62 0 -100 -50t-58 -171l-37 -236h-76z
M184 0l23 135h108l-20 -135h-111z" />
    <glyph glyph-name="at" unicode="@" horiz-adv-x="970" 
d="M844 1065l-148 -932q-6 -41 11 -68.5t49 -27.5q33 0 59 32.5t33 84.5l117 733q29 185 -44 300.5t-223 115.5q-151 0 -266.5 -116t-144.5 -300l-107 -670q-31 -204 19.5 -326t173.5 -122l-11 -62q-153 0 -219.5 138t-29.5 372l106 672q32 206 168.5 339.5t314.5 133.5
q177 0 270.5 -133.5t61.5 -339.5l-116 -727q-12 -80 -61.5 -132.5t-115.5 -52.5q-60 0 -92.5 42.5t-21.5 107.5l2 6h-6q-32 -79 -80.5 -120.5t-104.5 -41.5q-71 0 -99 67t-5 202l94 594q19 123 65.5 186t116.5 63q56 0 92.5 -40.5t45.5 -116.5h4l22 139h70zM729 770
q18 120 -9.5 183t-88.5 63q-106 0 -135 -193l-95 -585q-15 -100 2.5 -146.5t69.5 -46.5q62 0 110.5 62.5t67.5 183.5z" />
    <glyph glyph-name="A" unicode="A" horiz-adv-x="514" 
d="M528 1434l-51 -1434h-74l17 389h-203l-106 -389h-74l403 1434h88zM236 451h186l31 700l12 145h-4l-33 -145z" />
    <glyph glyph-name="B" unicode="B" horiz-adv-x="518" 
d="M647 1169l-24 -155q-20 -126 -57.5 -188t-108.5 -85l-2 -4q69 -25 93 -90.5t5 -179.5l-31 -203q-43 -264 -278 -264h-168l227 1434h158q229 0 186 -265zM573 1176q17 102 -11 148t-109 46h-86l-95 -600h74q95 0 137 49.5t64 184.5zM481 477q19 120 -15.5 175t-129.5 55
h-74l-102 -644h88q86 0 134.5 47.5t63.5 149.5z" />
    <glyph glyph-name="C" unicode="C" horiz-adv-x="540" 
d="M590 1206q15 102 -7 148.5t-87 46.5q-133 0 -162 -195l-156 -977q-15 -103 6.5 -149.5t87.5 -46.5q67 0 107 47.5t55 148.5l43 263h74l-41 -256q-43 -267 -242 -267q-205 0 -162 267l152 966q43 262 244 262q205 0 162 -262l-41 -258h-74z" />
    <glyph glyph-name="D" unicode="D" horiz-adv-x="548" 
d="M666 1171l-144 -905q-43 -266 -278 -266h-168l227 1434h166q240 0 197 -263zM592 1176q17 102 -13.5 148t-115.5 46h-96l-207 -1307h88q86 0 134.5 47.5t63.5 149.5z" />
    <glyph glyph-name="E" unicode="E" horiz-adv-x="405" 
d="M578 1434l-11 -64h-200l-99 -625h187l-9 -61h-188l-98 -621h219l-10 -63h-293l227 1434h275z" />
    <glyph glyph-name="F" unicode="F" horiz-adv-x="387" 
d="M578 1434l-11 -64h-200l-101 -635h185l-9 -61h-186l-106 -674h-74l227 1434h275z" />
    <glyph glyph-name="G" unicode="G" horiz-adv-x="540" 
d="M590 1206q17 104 -4.5 149.5t-89.5 45.5t-106.5 -45.5t-55.5 -149.5l-156 -977q-15 -103 4.5 -149.5t79.5 -46.5q68 0 114.5 59.5t65.5 171.5l62 395h-164l10 62h238l-115 -721h-70l15 113h-4q-27 -66 -76 -105t-111 -39q-79 0 -111 68t-10 199l152 966q43 262 244 262
q205 0 162 -262l-41 -258h-74z" />
    <glyph glyph-name="H" unicode="H" horiz-adv-x="536" 
d="M688 1434l-225 -1434h-76l109 684h-238l-108 -684h-74l227 1434h74l-109 -689h238l108 689h74z" />
    <glyph glyph-name="I" unicode="I" horiz-adv-x="225" 
d="M377 1434l-227 -1434h-74l227 1434h74z" />
    <glyph glyph-name="J" unicode="J" horiz-adv-x="512" 
d="M672 1434l-191 -1198q-43 -267 -241 -267q-205 0 -162 267l41 256h74l-41 -263q-17 -103 4.5 -149.5t87.5 -46.5q67 0 107 47t57 149l190 1205h74z" />
    <glyph glyph-name="K" unicode="K" horiz-adv-x="538" 
d="M692 1434l-284 -574v-4l92 -856h-76l-80 766h-4l-100 -199l-90 -567h-74l227 1434h74l-84 -525l-35 -196h4l354 721h76z" />
    <glyph glyph-name="L" unicode="L" horiz-adv-x="387" 
d="M303 1434h74l-217 -1371h198l-10 -63h-272z" />
    <glyph glyph-name="M" unicode="M" horiz-adv-x="679" 
d="M831 1434l-227 -1434h-72l185 1104l31 143l-7 2l-36 -145l-320 -1104h-72l17 1104l4 145l-4 -2l-17 -143l-166 -1104h-71l227 1434h100l-26 -1170l-8 -127h4l28 127l330 1170h100z" />
    <glyph glyph-name="N" unicode="N" horiz-adv-x="563" 
d="M715 1434l-228 -1434h-92l-53 1139l-2 147h-4l-17 -147l-169 -1139h-74l227 1434h92l54 -1131l2 -145h6l14 147l170 1129h74z" />
    <glyph glyph-name="O" unicode="O" horiz-adv-x="540" 
d="M664 1202l-154 -966q-43 -267 -244 -267q-202 0 -162 267l154 966q43 262 244 262q202 0 162 -262zM590 1206q15 104 -6 149.5t-88 45.5q-68 0 -107.5 -46.5t-54.5 -148.5l-156 -977q-15 -104 6 -150t88 -46t107 47.5t55 148.5z" />
    <glyph glyph-name="P" unicode="P" horiz-adv-x="548" 
d="M666 1167l-54 -338q-43 -266 -280 -266h-92l-90 -563h-74l227 1434h166q240 0 197 -267zM592 1176q17 102 -13.5 148t-115.5 46h-96l-119 -745h90q85 0 133.5 47.5t65.5 148.5z" />
    <glyph glyph-name="Q" unicode="Q" horiz-adv-x="540" 
d="M664 1198l-154 -960q-40 -260 -231 -269q0 -61 27 -87.5t83 -26.5l2 -5l-8 -57l-4 -2q-76 0 -106 40.5t-17 137.5q-190 9 -150 269l152 960q43 266 246 266t160 -266zM590 1206q17 103 -4.5 149t-87.5 46q-68 0 -107.5 -46.5t-56.5 -148.5l-154 -977q-17 -104 4 -150
t88 -46q68 0 107.5 47t56.5 149z" />
    <glyph glyph-name="R" unicode="R" horiz-adv-x="536" 
d="M303 1434h166q240 0 197 -267l-41 -249q-30 -191 -160 -238l-2 -4q116 -46 86 -236l-35 -229q-16 -96 -16 -203l-2 -8h-74q3 118 16 211l39 242q17 101 -13.5 147.5t-115.5 46.5h-96l-102 -647h-74zM367 1370l-105 -661h92q85 0 132.5 47.5t62.5 148.5l43 271
q17 102 -13.5 148t-115.5 46h-96z" />
    <glyph glyph-name="S" unicode="S" horiz-adv-x="548" 
d="M631 1006h-74l33 200q17 107 -5 151t-83 44q-65 0 -104 -44.5t-56 -150.5l-20 -125q-12 -86 11 -160t73 -151q20 -30 28.5 -44t26.5 -43.5t27 -48.5t22 -48.5t18.5 -53.5t11 -54t5 -60.5t-5.5 -61.5l-21 -120q-41 -267 -250 -267q-205 0 -164 267l31 194h76l-33 -201
q-17 -107 7 -151.5t91 -44.5q66 0 107.5 45t58.5 151l21 125q11 65 -5.5 131.5t-38 105.5t-65.5 107q-43 67 -66 112t-38 118t-2 149l18 125q23 136 83.5 199t158.5 63q197 0 156 -262z" />
    <glyph glyph-name="T" unicode="T" horiz-adv-x="512" 
d="M698 1434l-8 -64h-180l-217 -1370h-74l217 1370h-180l10 64h432z" />
    <glyph glyph-name="U" unicode="U" horiz-adv-x="577" 
d="M735 1434l-188 -1198q-43 -267 -260 -267q-224 0 -181 267l189 1198h76l-191 -1205q-17 -103 9.5 -149.5t101.5 -46.5q76 0 119.5 47t60.5 149l191 1205h73z" />
    <glyph glyph-name="V" unicode="V" horiz-adv-x="514" 
d="M301 0h-88l51 1434h74l-49 -1151l-13 -146h5l32 146l318 1151h74z" />
    <glyph glyph-name="W" unicode="W" horiz-adv-x="817" 
d="M1008 1434l-385 -1434h-86l61 1122l14 150h-4l-33 -150l-294 -1122h-88l71 1434h74l-64 -1151l-20 -154h6l31 154l303 1151h84l-62 -1151l-18 -154h6l31 154l299 1151h74z" />
    <glyph glyph-name="X" unicode="X" horiz-adv-x="516" 
d="M707 1434l-289 -701l61 -733h-76l-43 530v156h-4l-45 -156l-198 -530h-76l280 741v4l-53 689h76l35 -490l2 -153h4l49 153l201 490h76z" />
    <glyph glyph-name="Y" unicode="Y" horiz-adv-x="514" 
d="M705 1434l-326 -899l-86 -535h-74l86 535l-41 899h74l20 -631l-4 -172h4l52 172l219 631h76z" />
    <glyph glyph-name="Z" unicode="Z" horiz-adv-x="450" 
d="M621 1434l-11 -64l-485 -1302l4 -5h293l-10 -63h-373l10 63l483 1303l-2 4h-256l11 64h336z" />
    <glyph glyph-name="bracketleft" unicode="[" horiz-adv-x="423" 
d="M287 -381h-271l306 1919h268l-10 -61h-195l-285 -1796h195z" />
    <glyph glyph-name="backslash" unicode="\" horiz-adv-x="460" 
d="M287 -164l28 1659h72l-29 -1659h-71z" />
    <glyph glyph-name="bracketright" unicode="]" horiz-adv-x="423" 
d="M322 1538h268l-305 -1919h-269l11 62h194l285 1796h-195z" />
    <glyph glyph-name="asciicircum" unicode="^" horiz-adv-x="497" 
d="M584 1024h-70l-22 168l-21 180h-4l-152 -348h-73l198 410h74z" />
    <glyph glyph-name="underscore" unicode="_" horiz-adv-x="626" 
d="M549 0l-10 -63h-471l10 63h471z" />
    <glyph glyph-name="grave" unicode="`" horiz-adv-x="385" 
d="M489 1153h-55l-131 281h66z" />
    <glyph glyph-name="a" unicode="a" horiz-adv-x="509" 
d="M453 0h-66l25 180h-4q-38 -100 -94.5 -155.5t-120.5 -55.5q-66 0 -93 67.5t-6 199.5l31 192q20 130 69.5 196t124.5 66q58 0 95.5 -38.5t46.5 -106.5h6l51 332q17 104 -4 150t-86 46q-64 0 -99.5 -45t-52.5 -149l-14 -95h-72l15 90q40 263 233 263q195 0 152 -263z
M227 33q69 0 127.5 89.5t83.5 250.5l11 59q14 86 -17 140.5t-94 54.5q-108 0 -141 -195l-31 -203q-17 -103 -2.5 -149.5t63.5 -46.5z" />
    <glyph glyph-name="b" unicode="b" horiz-adv-x="512" 
d="M594 874l-102 -638q-21 -132 -71.5 -199.5t-121.5 -67.5q-56 0 -92 40t-45 114h-4l-25 -123h-63l241 1536h74l-88 -553h4q34 75 81 114.5t103 39.5q149 0 109 -263zM279 33q55 0 89.5 47t51.5 149l102 650q15 103 -1 148.5t-68 45.5q-62 0 -112 -63.5t-69 -184.5
l-86 -542q-20 -123 6 -186.5t87 -63.5z" />
    <glyph glyph-name="c" unicode="c" 
d="M510 879q17 105 -2 149.5t-82 44.5q-65 0 -103 -46t-55 -148l-102 -650q-17 -103 3 -149.5t83 -46.5q64 0 101.5 46.5t54.5 149.5l26 174h72l-27 -167q-40 -267 -231 -267q-197 0 -154 267l101 638q43 263 235 263q195 0 152 -263l-27 -167h-72z" />
    <glyph glyph-name="d" unicode="d" horiz-adv-x="512" 
d="M197 874q43 263 190 263q56 0 91 -39.5t44 -114.5h6l86 553h74l-244 -1536h-65l16 123h-4q-34 -75 -82 -114.5t-104 -39.5q-72 0 -101.5 67.5t-9.5 199.5zM236 33q63 0 112 63.5t68 186.5l86 542q20 122 -6.5 185t-87.5 63q-110 0 -138 -194l-104 -650
q-15 -103 1.5 -149.5t68.5 -46.5z" />
    <glyph glyph-name="e" unicode="e" 
d="M434 403h72l-27 -167q-40 -267 -231 -267q-197 0 -154 267l101 638q43 263 235 263q195 0 152 -263l-52 -321h-313l-51 -324q-17 -103 3 -149.5t83 -46.5q64 0 101.5 46.5t54.5 149.5zM510 879q17 105 -2 149.5t-82 44.5q-65 0 -103 -46t-55 -148l-43 -269h242z" />
    <glyph glyph-name="f" unicode="f" horiz-adv-x="262" 
d="M98 0l164 1042h-61l10 64h61l41 250q17 108 58 144t141 36l-10 -63q-30 0 -44.5 -2.5t-31 -13.5t-25.5 -36t-16 -69l-39 -246h88l-10 -64h-88l-166 -1042h-72z" />
    <glyph glyph-name="g" unicode="g" 
d="M582 874l-78 -495q-22 -135 -79.5 -200.5t-154.5 -65.5h-55q-34 0 -53.5 -17.5t-24.5 -46.5q-4 -28 11 -42.5t47 -14.5h81q74 0 114 -39.5t30 -104.5q-11 -66 -65 -104.5t-138 -38.5h-31q-79 0 -121.5 36t-33.5 93q12 74 106 98l2 5q-35 6 -53 34t-12 66t34.5 64.5
t71.5 29.5l2 4q-95 50 -65 244l80 495q37 245 209 263q74 8 83 61l15 80h65l-10 -59q-8 -40 -26 -60t-58 -24l-2 -5q146 -24 109 -256zM510 879q17 104 -4 149t-84 45q-64 0 -100.5 -45.5t-53.5 -148.5l-80 -506q-17 -102 5.5 -149.5t85.5 -47.5t98.5 46.5t52.5 150.5z
M219 -68q-105 0 -121 -84q-6 -40 18.5 -63t76.5 -23h43q51 0 81.5 22t36.5 62q8 40 -16.5 63t-75.5 23h-43z" />
    <glyph glyph-name="h" unicode="h" horiz-adv-x="522" 
d="M455 0h-72l137 877q17 103 0.5 149.5t-69.5 46.5q-62 0 -112 -64t-69 -186l-129 -823h-73l243 1536h72l-86 -549h4q69 150 182 150q71 0 100.5 -66.5t8.5 -198.5z" />
    <glyph glyph-name="i" unicode="i" horiz-adv-x="208" 
d="M256 1184l29 178h71l-26 -178h-74zM70 0l174 1106h73l-176 -1106h-71z" />
    <glyph glyph-name="j" unicode="j" horiz-adv-x="186" 
d="M332 1362l-29 -178h-72l29 178h72zM291 1106l-189 -1192q-7 -42 -11.5 -65t-13.5 -46.5t-20.5 -34t-31.5 -20t-46 -12t-65 -2.5l8 63q66 0 80.5 16.5t28.5 104.5l188 1188h72z" />
    <glyph glyph-name="k" unicode="k" horiz-adv-x="528" 
d="M633 1106l-266 -447l125 -659h-76l-109 588h-6l-92 -152l-68 -436h-73l243 1536h72l-131 -834l-29 -151h4l328 555h78z" />
    <glyph glyph-name="l" unicode="l" horiz-adv-x="208" 
d="M68 0l243 1536h72l-244 -1536h-71z" />
    <glyph glyph-name="m" unicode="m" horiz-adv-x="800" 
d="M436 0h-74l140 877q33 196 -62 196q-57 0 -104 -64t-66 -186l-131 -823h-71l174 1106h65l-14 -119h4q32 73 77.5 111.5t96.5 38.5q54 0 83 -41.5t26 -124.5h6q30 80 78.5 123t103.5 43q68 0 94.5 -66.5t5.5 -198.5l-137 -872h-72l140 877q15 103 0 149.5t-64 46.5
q-57 0 -104 -64t-66 -186z" />
    <glyph glyph-name="n" unicode="n" horiz-adv-x="522" 
d="M453 0h-72l139 877q15 103 -1 149.5t-68 46.5q-63 0 -112.5 -63.5t-68.5 -186.5l-131 -823h-71l174 1106h65l-16 -123h6q34 75 81 114.5t103 39.5q72 0 102 -66.5t9 -198.5z" />
    <glyph glyph-name="o" unicode="o" 
d="M582 874l-103 -638q-40 -267 -231 -267q-197 0 -154 267l101 638q43 263 235 263q195 0 152 -263zM510 879q17 105 -2 149.5t-82 44.5q-65 0 -103 -46t-55 -148l-102 -650q-17 -103 3 -149.5t83 -46.5q64 0 101.5 46.5t54.5 149.5z" />
    <glyph glyph-name="p" unicode="p" horiz-adv-x="512" 
d="M492 233q-43 -264 -191 -264q-56 0 -92 40t-45 114h-4l-88 -553h-72l244 1536h65l-16 -123h4q34 75 82 114.5t104 39.5q71 0 100.5 -66.5t8.5 -198.5zM281 33q109 0 137 194l104 650q15 104 -1 150t-70 46q-62 0 -111 -64t-70 -186l-86 -542q-20 -121 8 -184.5t89 -63.5z
" />
    <glyph glyph-name="q" unicode="q" horiz-adv-x="512" 
d="M94 233l103 639q21 132 71 198.5t121 66.5q56 0 92 -40t45 -114h4l25 123h63l-243 -1536h-72l88 553h-4q-34 -75 -81 -114.5t-103 -39.5q-149 0 -109 264zM233 33q63 0 113.5 63.5t69.5 184.5l86 542q20 124 -6 187t-88 63q-107 0 -140 -196l-102 -650
q-15 -103 0.5 -148.5t66.5 -45.5z" />
    <glyph glyph-name="r" unicode="r" horiz-adv-x="368" 
d="M244 1106h65l-24 -172h4q11 48 32.5 82.5t43 51.5t52 26t48 10.5t43.5 1.5l-12 -70q-194 0 -230 -235l-127 -801h-71z" />
    <glyph glyph-name="s" unicode="s" 
d="M557 778h-72l25 154q21 149 -86 149q-50 0 -88.5 -36t-50.5 -117l-17 -105q-16 -102 94 -243q16 -19 27 -33.5t25.5 -34.5t24 -36.5t19.5 -37.5t16 -41t10 -42t3.5 -46t-4.5 -49l-12 -82q-17 -103 -78 -156t-147 -53q-88 0 -133 53.5t-27 159.5l23 148h73l-24 -154
q-24 -149 92 -149q125 0 149 149l15 96q5 32 -2.5 66.5t-29 73.5t-37.5 63t-46 66q-57 73 -84.5 142.5t-15.5 150.5l14 92q17 106 74.5 158.5t142.5 52.5t127 -53t25 -158z" />
    <glyph glyph-name="t" unicode="t" horiz-adv-x="286" 
d="M299 1270h72l-25 -164h96l-10 -64h-96l-137 -858q-4 -30 -5 -50.5t3.5 -34t9.5 -21t18 -11t23.5 -4t30.5 -0.5l-11 -63q-100 0 -129.5 36t-11.5 144l135 862h-61l10 64h61z" />
    <glyph glyph-name="u" unicode="u" horiz-adv-x="522" 
d="M244 1106h71l-139 -877q-15 -102 3 -149t71 -47q62 0 109 63.5t67 186.5l131 823h72l-174 -1106h-66l17 123h-7q-34 -75 -81 -114.5t-103 -39.5q-72 0 -102 67.5t-9 199.5z" />
    <glyph glyph-name="v" unicode="v" horiz-adv-x="493" 
d="M287 0h-80l4 1106h74l-11 -852l-8 -117h4l29 117l260 852h74z" />
    <glyph glyph-name="w" unicode="w" horiz-adv-x="778" 
d="M918 1106l-322 -1106h-88l31 870l12 134h-6l-31 -134l-244 -870h-88l29 1106h74l-27 -860l-14 -117h6l24 117l248 860h84l-24 -860l-11 -117h4l23 117l246 860h74z" />
    <glyph glyph-name="x" unicode="x" horiz-adv-x="509" 
d="M649 1106l-264 -541l88 -565h-74l-63 408l-2 120h-6l-39 -120l-180 -408h-74l254 571v4l-78 531h74l53 -377l6 -119h4l43 119l184 377h74z" />
    <glyph glyph-name="y" unicode="y" horiz-adv-x="493" 
d="M268 -70q-19 -65 -32 -96t-39.5 -55.5t-63.5 -31.5t-102 -7l10 63q33 0 51 1t35.5 10t25 17t18.5 36.5t17 52t19 78.5l4 1108h74l-11 -854l-8 -117h4l29 117l260 854h74z" />
    <glyph glyph-name="z" unicode="z" horiz-adv-x="430" 
d="M547 1106l-8 -49l-412 -989l2 -5h272l-10 -63h-352l6 49l414 991l-4 2h-232l8 64h316z" />
    <glyph glyph-name="braceleft" unicode="{" horiz-adv-x="546" 
d="M496 1264l-76 -480q-19 -114 -52.5 -159t-101.5 -45v-5q68 0 86.5 -44t1.5 -158l-75 -479q-21 -122 -4 -167.5t87 -45.5h56l-8 -62h-72q-96 0 -127 62.5t-8 209.5l76 478q23 100 2.5 139t-117.5 39l10 63q35 0 59 3.5t41.5 14t28 21t19 34.5t13 45t11.5 60l76 478
q23 147 74 209.5t147 62.5h70l-11 -61h-57q-68 0 -99 -45t-50 -168z" />
    <glyph glyph-name="bar" unicode="|" horiz-adv-x="229" 
d="M92 -379h-74l304 1915h73z" />
    <glyph glyph-name="braceright" unicode="}" horiz-adv-x="546" 
d="M236 -106l75 479q19 114 52.5 159.5t101.5 45.5l2 4q-70 0 -88.5 44t-1.5 158l76 480q21 122 3.5 167.5t-87.5 45.5h-56l11 61h69q96 0 127 -62.5t8 -209.5l-75 -478q-23 -100 -3 -139t117 -39l-10 -61q-34 0 -58.5 -3.5t-42 -14.5t-28 -21.5t-19 -35t-13 -45
t-11.5 -60.5l-76 -478q-23 -148 -73.5 -210t-145.5 -62h-72l11 62h57q68 0 99.5 45t50.5 168z" />
    <glyph glyph-name="asciitilde" unicode="~" horiz-adv-x="622" 
d="M674 821l-10 -65q-30 -195 -140 -195q-34 0 -59 23t-53 80l-4 8q-25 49 -47 69.5t-50 20.5q-34 0 -53.5 -32t-30.5 -103l-10 -64h-49l10 64q30 196 144 196q36 0 64 -23.5t58 -78.5l9 -10q27 -51 44 -69.5t40 -18.5q56 0 77 133l11 65h49z" />
    <glyph glyph-name="exclamdown" unicode="&#xa1;" horiz-adv-x="266" 
d="M264 1008l17 100h81l-14 -100h-84zM127 -328h-76l33 205l164 963h53z" />
    <glyph glyph-name="cent" unicode="&#xa2;" 
d="M510 879q17 105 -2 149.5t-82 44.5q-66 0 -104.5 -46.5t-53.5 -147.5l-102 -650q-17 -103 3 -149.5t83 -46.5q64 0 101.5 46.5t54.5 149.5l26 174h72l-27 -167q-40 -267 -233 -267q-195 0 -152 267l101 638q43 263 235 263q195 0 152 -263l-27 -167h-72zM393 1102l25 162
h65l-28 -162h-62zM219 -6h62l-23 -152h-65z" />
    <glyph glyph-name="sterling" unicode="&#xa3;" horiz-adv-x="624" 
d="M700 944h-73l43 262q15 102 -7 148.5t-88 46.5q-67 0 -106.5 -47.5t-54.5 -147.5l-97 -606h236l-10 -61h-236l-24 -156q-20 -128 -46.5 -196.5t-86.5 -123.5h415l-10 -63h-487l10 63q61 56 84 116.5t45 203.5l24 156h-77l10 61h78l96 602q43 262 244 262q202 0 159 -262z
" />
    <glyph glyph-name="currency" unicode="&#xa4;" horiz-adv-x="1126" 
d="M78 0l227 1434h971l-227 -1434h-971zM453 1331l237 -530l406 530h-643zM729 717l244 -547l174 1094zM381 1264l-174 -1094l420 547zM664 633l-406 -531h643z" />
    <glyph glyph-name="yen" unicode="&#xa5;" horiz-adv-x="514" 
d="M705 1434l-324 -891h141l-8 -58h-143l-17 -98h144l-9 -57h-143l-53 -330h-74l53 330h-137l10 57h136l16 98h-137l10 58h133l-39 891h74l20 -631l-4 -172h4l52 172l219 631h76z" />
    <glyph glyph-name="brokenbar" unicode="&#xa6;" horiz-adv-x="229" 
d="M262 702h-74l134 834h73zM92 -379h-74l132 836h73z" />
    <glyph glyph-name="section" unicode="&#xa7;" horiz-adv-x="550" 
d="M637 1102h-72l25 155q24 148 -84 148q-51 0 -89.5 -36t-51.5 -116l-17 -106q-9 -62 17.5 -121t76.5 -125q45 -55 70.5 -94t43.5 -102t7 -127l-16 -109q-18 -106 -80 -159.5t-148 -53.5q-17 0 -49 4q20 -30 52 -72q44 -53 69.5 -93.5t42.5 -103t8 -126.5l-14 -82
q-17 -106 -78 -159.5t-147 -53.5q-88 0 -133 54t-27 163l25 147h71l-24 -155q-24 -150 92 -150q56 0 96 35.5t53 114.5l15 98q9 60 -23 124.5t-92 145.5q-57 78 -84.5 147.5t-15.5 149.5l20 121q17 106 77 159.5t148 53.5q25 0 35 -2q-17 27 -59 84q-56 74 -83 145t-15 152
l14 92q17 108 75 161.5t142 53.5q86 0 127.5 -53.5t24.5 -161.5zM229 358q27 -45 93 -45q127 0 151 152l21 125q5 45 -15 104q-27 27 -73 27q-134 0 -158 -154l-21 -133q-6 -42 2 -76z" />
    <glyph glyph-name="dieresis" unicode="&#xa8;" horiz-adv-x="471" 
d="M453 1241l16 105h100l-16 -105h-100zM307 1241l17 105h100l-16 -105h-101z" />
    <glyph glyph-name="copyright" unicode="&#xa9;" horiz-adv-x="1239" 
d="M211 846q46 285 212.5 447.5t420.5 162.5q259 0 377 -164t73 -446l-39 -246q-46 -297 -213 -460t-436 -163q-264 0 -372 161t-60 464zM272 852l-39 -256q-90 -565 379 -565q240 0 389.5 146.5t192.5 416.5l41 258q40 257 -61.5 404t-329.5 147q-229 0 -380 -146.5
t-192 -404.5zM885 932q15 105 -4.5 149.5t-83.5 44.5t-100.5 -39t-49.5 -124l-76 -474q-14 -94 6.5 -136t81.5 -42q65 0 103 46.5t55 150.5l17 113h73l-18 -107q-40 -266 -236 -266q-190 0 -153 244l75 471q37 227 226 227q100 0 137.5 -64t15.5 -198l-16 -107h-72z" />
    <glyph glyph-name="ordfeminine" unicode="&#xaa;" horiz-adv-x="405" 
d="M461 838h-53l14 102h-4q-22 -56 -55 -87.5t-70 -31.5q-40 0 -57 37t-5 111l17 104q24 146 114 146q35 0 57 -22t27 -58h7l26 172q8 56 -2.5 80t-44.5 24q-36 0 -56.5 -22.5t-27.5 -75.5l-8 -47h-55l8 49q21 145 143 145t101 -145zM319 870q39 0 71.5 45.5t45.5 126.5
l6 33q6 42 -10.5 68t-50.5 26q-61 0 -78 -98l-14 -100q-9 -54 -2.5 -77.5t32.5 -23.5z" />
    <glyph glyph-name="guillemotleft" unicode="&#xab;" horiz-adv-x="864" 
d="M514 334l-27 -64l-329 248l8 47l407 248l7 -65l-336 -207v-4zM838 334l-27 -64l-330 248l8 47l408 248l6 -65l-336 -207v-4z" />
    <glyph glyph-name="logicalnot" unicode="&#xac;" horiz-adv-x="1126" 
d="M78 0l227 1434h971l-227 -1434h-971zM453 1331l237 -530l406 530h-643zM729 717l244 -547l174 1094zM381 1264l-174 -1094l420 547zM664 633l-406 -531h643z" />
    <glyph glyph-name="registered" unicode="&#xae;" horiz-adv-x="1239" 
d="M211 846q45 284 211.5 447t421.5 163q259 0 377 -164t73 -446l-39 -246q-46 -296 -212.5 -459.5t-434.5 -163.5q-265 0 -373.5 161t-60.5 464zM272 852l-39 -256q-45 -278 49 -421.5t330 -143.5q241 0 390.5 147t191.5 416l41 258q40 257 -61.5 404t-329.5 147
q-230 0 -380 -147t-192 -404zM643 1188h117q110 0 157.5 -60t28.5 -174l-14 -82q-9 -66 -47.5 -117.5t-98.5 -72.5v-4q108 -40 86 -184l-12 -74q-10 -71 -8 -166l-2 -8h-62q3 118 13 174l12 80q12 77 -21.5 115t-117.5 38h-56l-63 -407h-61zM696 1137l-69 -430h55
q162 0 188 157l17 97q27 176 -135 176h-56z" />
    <glyph glyph-name="macron" unicode="&#xaf;" horiz-adv-x="524" 
d="M657 1323l-8 -57h-368l8 57h368z" />
    <glyph glyph-name="degree" unicode="&#xb0;" horiz-adv-x="485" 
d="M598 1210l-4 -18q-20 -131 -70 -193.5t-133 -62.5q-168 0 -125 256l2 18q22 130 72 192t133 62q84 0 114.5 -62.5t10.5 -191.5zM537 1217q17 102 0 147t-70 45q-56 0 -88 -45.5t-47 -146.5l-6 -31q-15 -103 2 -149t71 -46t85 46t48 149z" />
    <glyph glyph-name="plusminus" unicode="&#xb1;" horiz-adv-x="892" 
d="M936 756l-10 -62h-334l-53 -334h-70l53 334h-334l11 62h333l54 334h67l-51 -334h334zM838 158l-11 -62h-731l10 62h732z" />
    <glyph glyph-name="twosuperior" unicode="&#xb2;" horiz-adv-x="393" 
d="M262 1169l21 131q25 164 143 164q120 0 92 -170l-12 -86q-16 -95 -123 -202q-106 -106 -119 -181l-18 -123h162l-9 -53h-219l27 170q7 45 32 89.5t48.5 71t60.5 62.5q44 45 69 82.5t32 83.5l14 90q10 64 -1.5 90.5t-45.5 26.5q-29 0 -47.5 -26t-28.5 -89l-21 -131h-57z
" />
    <glyph glyph-name="threesuperior" unicode="&#xb3;" horiz-adv-x="395" 
d="M526 1319l-20 -127q-15 -99 -90 -125v-2q67 -25 49 -125l-25 -154q-21 -145 -141 -145t-96 145l24 156h58l-25 -151q-8 -54 3 -77.5t44 -23.5q64 0 78 98l23 150q9 52 -4.5 76t-51.5 24h-6l8 54h6q39 0 60.5 24.5t28.5 79.5l18 117q17 100 -45 100q-34 0 -52 -23.5
t-26 -76.5l-20 -125h-58l21 131q24 143 143 143q117 0 96 -143z" />
    <glyph glyph-name="acute" unicode="&#xb4;" horiz-adv-x="296" 
d="M317 1153h-55l121 281h63z" />
    <glyph glyph-name="paragraph" unicode="&#xb6;" horiz-adv-x="829" 
d="M690 -379h-74l304 1915h73zM461 -379h-74l150 948q-60 0 -101 4t-80.5 16t-63 34.5t-42 58t-23.5 87.5t-1.5 122.5t18.5 163.5q15 92 33.5 162t40 121.5t50.5 86.5t59 57t73 34t85 16t101 4h78z" />
    <glyph glyph-name="periodcentered" unicode="&#xb7;" horiz-adv-x="266" 
d="M154 479l22 135h109l-21 -135h-110z" />
    <glyph glyph-name="cedilla" unicode="&#xb8;" horiz-adv-x="417" 
d="M100 -125l35 115h47l-20 -76q74 0 113.5 -38t29.5 -99q-10 -64 -67 -107t-132 -43q-35 0 -86 15l9 47q33 -13 65 -13q54 0 96 31t50 74q7 46 -30.5 70t-109.5 24z" />
    <glyph glyph-name="onesuperior" unicode="&#xb9;" horiz-adv-x="325" 
d="M422 1434l-117 -736h53l-8 -53h-170l8 53h56l98 619h-35l6 47q27 0 38 15.5t18 54.5h53z" />
    <glyph glyph-name="ordmasculine" unicode="&#xba;" horiz-adv-x="409" 
d="M541 1319l-84 -531q-21 -147 -150 -147q-128 0 -104 147l84 531q12 75 48 110t101 35q129 0 105 -145zM485 1317q8 54 -4 76t-49 22q-74 0 -88 -98l-84 -526q-8 -55 3.5 -78t49.5 -23q37 0 58 23.5t30 77.5z" />
    <glyph glyph-name="guillemotright" unicode="&#xbb;" horiz-adv-x="864" 
d="M553 750l29 63l327 -246l-8 -49l-405 -248l-9 66l336 207v4zM231 750l29 63l328 -246l-8 -49l-406 -248l-8 66l336 207v4z" />
    <glyph glyph-name="onequarter" unicode="&#xbc;" horiz-adv-x="761" 
d="M422 1434l-117 -736h53l-8 -53h-170l8 53h56l98 619h-35l6 47q27 0 38 15.5t18 54.5h53zM236 0h-60l617 1434h59zM776 788l-94 -589h33l-8 -54h-33l-23 -145h-57l24 145h-174l7 35l258 608h67zM516 199h111l51 329l41 179h-4l-43 -140z" />
    <glyph glyph-name="onehalf" unicode="&#xbd;" horiz-adv-x="833" 
d="M217 0h-59l616 1434h60zM422 1434l-117 -736h53l-8 -53h-170l8 53h56l98 619h-35l6 47q27 0 38 15.5t18 54.5h53zM602 524l21 131q25 164 143 164q120 0 92 -170l-12 -86q-16 -96 -123 -203q-106 -106 -119 -180l-18 -123h162l-9 -53h-219l27 170q7 45 32 89.5t48.5 71
t60.5 62.5q43 45 68 82.5t32 83.5l15 90q10 64 -1.5 90.5t-45.5 26.5q-29 0 -47.5 -26t-28.5 -89l-21 -131h-57z" />
    <glyph glyph-name="threequarters" unicode="&#xbe;" horiz-adv-x="825" 
d="M526 1319l-20 -127q-15 -99 -90 -125v-2q67 -25 49 -125l-25 -154q-21 -145 -141 -145t-96 145l24 156h58l-25 -151q-8 -54 3 -77.5t44 -23.5q64 0 78 98l23 150q9 52 -4.5 76t-51.5 24h-6l8 54h6q39 0 60.5 24.5t28.5 79.5l18 117q17 100 -45 100q-34 0 -52 -23.5
t-26 -76.5l-20 -125h-58l21 131q24 143 143 143q117 0 96 -143zM283 0h-60l617 1434h59zM840 788l-95 -589h33l-8 -54h-33l-22 -145h-58l25 145h-174l6 35l258 608h68zM580 199h110l51 329l41 179h-4l-43 -140z" />
    <glyph glyph-name="questiondown" unicode="&#xbf;" horiz-adv-x="550" 
d="M324 971l22 135h109l-21 -135h-110zM70 -59l34 221h76l-39 -236q-18 -120 4.5 -170.5t83.5 -50.5q64 0 103 53.5t59 180.5l25 157q24 152 -33 303q-16 41 -25 67t-21 70.5t-17 81t-4.5 85.5t8.5 98l6 39h73l-6 -41q-7 -38 -7 -77t3.5 -69.5t12.5 -67t17 -61t21 -59.5
q14 -37 22 -61.5t17.5 -63.5t13 -72.5t3 -78t-7.5 -91.5l-25 -145q-49 -311 -246 -311t-151 299z" />
    <glyph glyph-name="Agrave" unicode="&#xc0;" horiz-adv-x="514" 
d="M510 1516h-55l-131 280h65zM528 1434l-51 -1434h-74l17 389h-203l-106 -389h-74l403 1434h88zM236 451h186l31 700l12 145h-4l-33 -145z" />
    <glyph glyph-name="Aacute" unicode="&#xc1;" horiz-adv-x="514" 
d="M520 1516h-55l121 280h63zM528 1434l-51 -1434h-74l17 389h-203l-106 -389h-74l403 1434h88zM236 451h186l31 700l12 145h-4l-33 -145z" />
    <glyph glyph-name="Acircumflex" unicode="&#xc2;" horiz-adv-x="514" 
d="M424 1516h-53l133 280h80l43 -280h-54l-34 231h-7zM528 1434l-51 -1434h-74l17 389h-203l-106 -389h-74l403 1434h88zM236 451h186l31 700l12 145h-4l-33 -145z" />
    <glyph glyph-name="Atilde" unicode="&#xc3;" horiz-adv-x="514" 
d="M713 1790l-15 -96q-13 -86 -44.5 -132t-75.5 -46q-32 0 -50 27.5t-30 92.5l-4 19q-8 45 -17 63.5t-24 18.5q-47 0 -64 -127l-14 -90h-47l14 88q28 188 119 188q30 0 46 -24.5t28 -85.5l2 -19q9 -51 21 -71.5t32 -20.5q43 0 61 119l17 96h45zM528 1434l-51 -1434h-74
l17 389h-203l-106 -389h-74l403 1434h88zM236 451h186l31 700l12 145h-4l-33 -145z" />
    <glyph glyph-name="Adieresis" unicode="&#xc4;" horiz-adv-x="514" 
d="M530 1604l17 104h100l-16 -104h-101zM385 1604l16 104h101l-17 -104h-100zM528 1434l-51 -1434h-74l17 389h-203l-106 -389h-74l403 1434h88zM236 451h186l31 700l12 145h-4l-33 -145z" />
    <glyph glyph-name="Aring" unicode="&#xc5;" horiz-adv-x="514" 
d="M393 1632q2 67 43 111.5t105 44.5q48 0 76 -28.5t28 -82.5q0 -65 -41.5 -109t-105.5 -44q-50 0 -77.5 27.5t-27.5 80.5zM440 1636q0 -35 17 -53t47 -18q41 0 68.5 32t27.5 78q-3 72 -65 72q-41 0 -69 -32.5t-26 -78.5zM528 1434l-51 -1434h-74l17 389h-203l-106 -389h-74
l403 1434h88zM236 451h186l31 700l12 145h-4l-33 -145z" />
    <glyph glyph-name="AE" unicode="&#xc6;" horiz-adv-x="724" 
d="M897 1434l-10 -64h-201l-98 -625h186l-8 -61h-188l-99 -621h219l-10 -63h-293l62 389h-201l-145 -389h-74l530 1434h330zM279 451h188l143 899h-6l-67 -199z" />
    <glyph glyph-name="Ccedilla" unicode="&#xc7;" horiz-adv-x="540" 
d="M590 1206q15 102 -7 148.5t-87 46.5q-133 0 -162 -195l-156 -977q-15 -103 6.5 -149.5t87.5 -46.5q67 0 107 47.5t55 148.5l43 263h74l-41 -256q-40 -255 -223 -267l-15 -55q74 0 114 -38t30 -99q-10 -64 -67 -107t-132 -43q-35 0 -86 15l8 47q32 -13 66 -13q53 0 95 31
t50 74q7 46 -30 70t-109 24l29 96q-174 15 -134 265l152 966q43 262 244 262q205 0 162 -262l-41 -258h-74z" />
    <glyph glyph-name="Egrave" unicode="&#xc8;" horiz-adv-x="405" 
d="M465 1516h-55l-131 280h65zM578 1434l-11 -64h-200l-99 -625h187l-9 -61h-188l-98 -621h219l-10 -63h-293l227 1434h275z" />
    <glyph glyph-name="Eacute" unicode="&#xc9;" horiz-adv-x="405" 
d="M475 1516h-55l121 280h63zM578 1434l-11 -64h-200l-99 -625h187l-9 -61h-188l-98 -621h219l-10 -63h-293l227 1434h275z" />
    <glyph glyph-name="Ecircumflex" unicode="&#xca;" horiz-adv-x="405" 
d="M379 1516h-53l133 280h80l43 -280h-54l-34 231h-7zM578 1434l-11 -64h-200l-99 -625h187l-9 -61h-188l-98 -621h219l-10 -63h-293l227 1434h275z" />
    <glyph glyph-name="Edieresis" unicode="&#xcb;" horiz-adv-x="405" 
d="M483 1604l17 104h100l-16 -104h-101zM338 1604l16 104h101l-17 -104h-100zM578 1434l-11 -64h-200l-99 -625h187l-9 -61h-188l-98 -621h219l-10 -63h-293l227 1434h275z" />
    <glyph glyph-name="Igrave" unicode="&#xcc;" horiz-adv-x="225" 
d="M367 1516h-56l-131 280h66zM377 1434l-227 -1434h-74l227 1434h74z" />
    <glyph glyph-name="Iacute" unicode="&#xcd;" horiz-adv-x="225" 
d="M377 1516h-55l120 280h64zM377 1434l-227 -1434h-74l227 1434h74z" />
    <glyph glyph-name="Icircumflex" unicode="&#xce;" horiz-adv-x="225" 
d="M281 1516h-54l133 280h80l43 -280h-53l-35 231h-6zM377 1434l-227 -1434h-74l227 1434h74z" />
    <glyph glyph-name="Idieresis" unicode="&#xcf;" horiz-adv-x="225" 
d="M385 1604l16 104h101l-17 -104h-100zM240 1604l16 104h100l-16 -104h-100zM377 1434l-227 -1434h-74l227 1434h74z" />
    <glyph glyph-name="Eth" unicode="&#xd0;" horiz-adv-x="548" 
d="M666 1171l-144 -905q-43 -266 -278 -266h-168l108 686h-71l10 57h70l110 691h166q240 0 197 -263zM592 1176q17 102 -13.5 148t-115.5 46h-96l-99 -627h115l-8 -57h-117l-98 -623h88q86 0 134.5 47.5t63.5 149.5z" />
    <glyph glyph-name="Ntilde" unicode="&#xd1;" horiz-adv-x="563" 
d="M748 1790l-15 -96q-13 -86 -45 -132t-76 -46q-32 0 -50 27.5t-30 92.5l-4 19q-8 45 -17 63.5t-24 18.5q-46 0 -63 -127l-14 -90h-48l15 88q28 188 119 188q30 0 45.5 -24.5t27.5 -85.5l2 -19q9 -51 21.5 -71.5t32.5 -20.5q43 0 61 119l16 96h46zM715 1434l-228 -1434h-92
l-53 1139l-2 147h-4l-17 -147l-169 -1139h-74l227 1434h92l54 -1131l2 -145h6l14 147l170 1129h74z" />
    <glyph glyph-name="Ograve" unicode="&#xd2;" horiz-adv-x="540" 
d="M526 1516h-55l-131 280h66zM664 1202l-154 -966q-43 -267 -244 -267q-202 0 -162 267l154 966q43 262 244 262q202 0 162 -262zM590 1206q15 104 -6 149.5t-88 45.5q-68 0 -107.5 -46.5t-54.5 -148.5l-156 -977q-15 -104 6 -150t88 -46t107 47.5t55 148.5z" />
    <glyph glyph-name="Oacute" unicode="&#xd3;" horiz-adv-x="540" 
d="M537 1516h-56l121 280h64zM664 1202l-154 -966q-43 -267 -244 -267q-202 0 -162 267l154 966q43 262 244 262q202 0 162 -262zM590 1206q15 104 -6 149.5t-88 45.5q-68 0 -107.5 -46.5t-54.5 -148.5l-156 -977q-15 -104 6 -150t88 -46t107 47.5t55 148.5z" />
    <glyph glyph-name="Ocircumflex" unicode="&#xd4;" horiz-adv-x="540" 
d="M440 1516h-53l133 280h80l43 -280h-53l-35 231h-6zM664 1202l-154 -966q-43 -267 -244 -267q-202 0 -162 267l154 966q43 262 244 262q202 0 162 -262zM590 1206q15 104 -6 149.5t-88 45.5q-68 0 -107.5 -46.5t-54.5 -148.5l-156 -977q-15 -104 6 -150t88 -46t107 47.5
t55 148.5z" />
    <glyph glyph-name="Otilde" unicode="&#xd5;" horiz-adv-x="540" 
d="M727 1790l-14 -96q-13 -86 -45 -132t-76 -46q-32 0 -50 27.5t-30 92.5l-4 19q-8 45 -17 63.5t-24 18.5q-47 0 -64 -127l-14 -90h-47l14 88q28 188 119 188q30 0 46 -24.5t28 -85.5l2 -19q9 -51 21 -71.5t32 -20.5q44 0 62 119l16 96h45zM664 1202l-154 -966
q-43 -267 -244 -267q-202 0 -162 267l154 966q43 262 244 262q202 0 162 -262zM590 1206q15 104 -6 149.5t-88 45.5q-68 0 -107.5 -46.5t-54.5 -148.5l-156 -977q-15 -104 6 -150t88 -46t107 47.5t55 148.5z" />
    <glyph glyph-name="Odieresis" unicode="&#xd6;" horiz-adv-x="540" 
d="M545 1604l16 104h101l-17 -104h-100zM399 1604l17 104h100l-16 -104h-101zM664 1202l-154 -966q-43 -267 -244 -267q-202 0 -162 267l154 966q43 262 244 262q202 0 162 -262zM590 1206q15 104 -6 149.5t-88 45.5q-68 0 -107.5 -46.5t-54.5 -148.5l-156 -977
q-15 -104 6 -150t88 -46t107 47.5t55 148.5z" />
    <glyph glyph-name="multiply" unicode="&#xd7;" horiz-adv-x="782" 
d="M817 1018l41 -49l-307 -264l223 -265l-57 -49l-221 266l-308 -266l-41 49l308 265l-224 264l58 49l221 -264z" />
    <glyph glyph-name="Oslash" unicode="&#xd8;" horiz-adv-x="540" 
d="M664 1202l-154 -966q-43 -267 -244 -267q-95 0 -135 58l-22 -58l-43 11l40 102q-16 66 -2 154l154 966q43 262 244 262q96 0 135 -57l22 57l43 -10l-40 -102q15 -57 2 -150zM186 285l410 1018q-6 98 -100 98q-68 0 -107.5 -46.5t-54.5 -148.5zM580 1145l-408 -1016
q6 -96 100 -96q67 0 107 47.5t55 148.5z" />
    <glyph glyph-name="Ugrave" unicode="&#xd9;" horiz-adv-x="577" 
d="M545 1516h-56l-131 280h66zM735 1434l-188 -1198q-43 -267 -260 -267q-224 0 -181 267l189 1198h76l-191 -1205q-17 -103 9.5 -149.5t101.5 -46.5q76 0 119.5 47t60.5 149l191 1205h73z" />
    <glyph glyph-name="Uacute" unicode="&#xda;" horiz-adv-x="577" 
d="M553 1516h-55l120 280h64zM735 1434l-188 -1198q-43 -267 -260 -267q-224 0 -181 267l189 1198h76l-191 -1205q-17 -103 9.5 -149.5t101.5 -46.5q76 0 119.5 47t60.5 149l191 1205h73z" />
    <glyph glyph-name="Ucircumflex" unicode="&#xdb;" horiz-adv-x="577" 
d="M457 1516h-54l134 280h79l43 -280h-53l-35 231h-6zM735 1434l-188 -1198q-43 -267 -260 -267q-224 0 -181 267l189 1198h76l-191 -1205q-17 -103 9.5 -149.5t101.5 -46.5q76 0 119.5 47t60.5 149l191 1205h73z" />
    <glyph glyph-name="Udieresis" unicode="&#xdc;" horiz-adv-x="577" 
d="M563 1604l17 104h100l-16 -104h-101zM418 1604l16 104h101l-17 -104h-100zM735 1434l-188 -1198q-43 -267 -260 -267q-224 0 -181 267l189 1198h76l-191 -1205q-17 -103 9.5 -149.5t101.5 -46.5q76 0 119.5 47t60.5 149l191 1205h73z" />
    <glyph glyph-name="Yacute" unicode="&#xdd;" horiz-adv-x="514" 
d="M520 1516h-55l121 280h63zM705 1434l-326 -899l-86 -535h-74l86 535l-41 899h74l20 -631l-4 -172h4l52 172l219 631h76z" />
    <glyph glyph-name="Thorn" unicode="&#xde;" horiz-adv-x="548" 
d="M621 887l-54 -336q-43 -268 -278 -268h-94l-45 -283h-74l227 1434h74l-45 -281h92q240 0 197 -266zM547 895q17 102 -14.5 148.5t-118.5 46.5h-92l-117 -744h92q85 0 131.5 47t63.5 150z" />
    <glyph glyph-name="germandbls" unicode="&#xdf;" horiz-adv-x="518" 
d="M500 1464q84 0 128.5 -63.5t22.5 -198.5l-28 -188q-20 -126 -57.5 -188t-108.5 -85l-2 -4q69 -25 93 -90t5 -180l-31 -201q-43 -266 -278 -266h-21l10 63h19q85 0 131 47t63 150l35 217q19 122 -15.5 177t-129.5 55h-27l8 61h29q95 0 137 49.5t64 184.5l33 204
q16 101 -9.5 146t-76.5 45t-94 -45.5t-60 -145.5l-190 -1208h-74l190 1206q22 132 86.5 195t147.5 63z" />
    <glyph glyph-name="agrave" unicode="&#xe0;" horiz-adv-x="509" 
d="M461 1188h-55l-132 280h66zM453 0h-66l25 180h-4q-38 -100 -94.5 -155.5t-120.5 -55.5q-66 0 -93 67.5t-6 199.5l31 192q20 130 69.5 196t124.5 66q58 0 95.5 -38.5t46.5 -106.5h6l51 332q17 104 -4 150t-86 46q-64 0 -99.5 -45t-52.5 -149l-14 -95h-72l15 90
q40 263 233 263q195 0 152 -263zM227 33q69 0 127.5 89.5t83.5 250.5l11 59q14 86 -17 140.5t-94 54.5q-108 0 -141 -195l-31 -203q-17 -103 -2.5 -149.5t63.5 -46.5z" />
    <glyph glyph-name="aacute" unicode="&#xe1;" horiz-adv-x="509" 
d="M471 1188h-55l121 280h63zM453 0h-66l25 180h-4q-38 -100 -94.5 -155.5t-120.5 -55.5q-66 0 -93 67.5t-6 199.5l31 192q20 130 69.5 196t124.5 66q58 0 95.5 -38.5t46.5 -106.5h6l51 332q17 104 -4 150t-86 46q-64 0 -99.5 -45t-52.5 -149l-14 -95h-72l15 90
q40 263 233 263q195 0 152 -263zM227 33q69 0 127.5 89.5t83.5 250.5l11 59q14 86 -17 140.5t-94 54.5q-108 0 -141 -195l-31 -203q-17 -103 -2.5 -149.5t63.5 -46.5z" />
    <glyph glyph-name="acircumflex" unicode="&#xe2;" horiz-adv-x="509" 
d="M375 1188h-53l133 280h80l43 -280h-54l-35 231h-6zM453 0h-66l25 180h-4q-38 -100 -94.5 -155.5t-120.5 -55.5q-66 0 -93 67.5t-6 199.5l31 192q20 130 69.5 196t124.5 66q58 0 95.5 -38.5t46.5 -106.5h6l51 332q17 104 -4 150t-86 46q-64 0 -99.5 -45t-52.5 -149
l-14 -95h-72l15 90q40 263 233 263q195 0 152 -263zM227 33q69 0 127.5 89.5t83.5 250.5l11 59q14 86 -17 140.5t-94 54.5q-108 0 -141 -195l-31 -203q-17 -103 -2.5 -149.5t63.5 -46.5z" />
    <glyph glyph-name="atilde" unicode="&#xe3;" horiz-adv-x="509" 
d="M664 1462l-15 -96q-13 -86 -45 -132t-76 -46q-32 0 -49.5 27.5t-29.5 93.5l-5 18q-8 45 -17 63.5t-24 18.5q-46 0 -63 -127l-14 -90h-47l14 88q28 188 119 188q30 0 45.5 -24.5t27.5 -85.5l2 -19q9 -51 21.5 -71.5t32.5 -20.5q43 0 61 119l16 96h46zM453 0h-66l25 180h-4
q-38 -100 -94.5 -155.5t-120.5 -55.5q-66 0 -93 67.5t-6 199.5l31 192q20 130 69.5 196t124.5 66q58 0 95.5 -38.5t46.5 -106.5h6l51 332q17 104 -4 150t-86 46q-64 0 -99.5 -45t-52.5 -149l-14 -95h-72l15 90q40 263 233 263q195 0 152 -263zM227 33q69 0 127.5 89.5
t83.5 250.5l11 59q14 86 -17 140.5t-94 54.5q-108 0 -141 -195l-31 -203q-17 -103 -2.5 -149.5t63.5 -46.5z" />
    <glyph glyph-name="adieresis" unicode="&#xe4;" horiz-adv-x="509" 
d="M481 1276l17 104h100l-16 -104h-101zM336 1276l16 104h101l-17 -104h-100zM453 0h-66l25 180h-4q-38 -100 -94.5 -155.5t-120.5 -55.5q-66 0 -93 67.5t-6 199.5l31 192q20 130 69.5 196t124.5 66q58 0 95.5 -38.5t46.5 -106.5h6l51 332q17 104 -4 150t-86 46
q-64 0 -99.5 -45t-52.5 -149l-14 -95h-72l15 90q40 263 233 263q195 0 152 -263zM227 33q69 0 127.5 89.5t83.5 250.5l11 59q14 86 -17 140.5t-94 54.5q-108 0 -141 -195l-31 -203q-17 -103 -2.5 -149.5t63.5 -46.5z" />
    <glyph glyph-name="aring" unicode="&#xe5;" horiz-adv-x="509" 
d="M344 1305q2 67 43 111t105 44q49 0 76.5 -28t27.5 -82q0 -65 -41.5 -109.5t-105.5 -44.5q-50 0 -77.5 28t-27.5 81zM391 1309q0 -35 17 -53.5t47 -18.5q41 0 68.5 32.5t27.5 78.5q-3 71 -66 71q-41 0 -68.5 -32t-25.5 -78zM453 0h-66l25 180h-4q-38 -100 -94.5 -155.5
t-120.5 -55.5q-66 0 -93 67.5t-6 199.5l31 192q20 130 69.5 196t124.5 66q58 0 95.5 -38.5t46.5 -106.5h6l51 332q17 104 -4 150t-86 46q-64 0 -99.5 -45t-52.5 -149l-14 -95h-72l15 90q40 263 233 263q195 0 152 -263zM227 33q69 0 127.5 89.5t83.5 250.5l11 59
q14 86 -17 140.5t-94 54.5q-108 0 -141 -195l-31 -203q-17 -103 -2.5 -149.5t63.5 -46.5z" />
    <glyph glyph-name="ae" unicode="&#xe6;" horiz-adv-x="823" 
d="M125 428q20 130 69.5 196t124.5 66q58 0 97 -38.5t51 -106.5l51 332q17 104 -3.5 150t-84.5 46t-100.5 -45.5t-53.5 -148.5l-14 -95h-72l15 90q40 263 233 263q59 0 93 -27.5t44 -91.5h5q30 64 72 91.5t102 27.5q192 0 149 -263l-49 -321h-315l-52 -324
q-15 -104 4.5 -150t81.5 -46q65 0 103 46.5t53 149.5l29 174h71l-26 -167q-43 -267 -234 -267q-171 0 -153 215h-4q-38 -101 -96 -158t-123 -57q-66 0 -93 67.5t-6 199.5zM834 879q15 105 -4 149.5t-82 44.5q-65 0 -103 -46t-53 -148l-43 -269h242zM227 33q69 0 127.5 89.5
t83.5 250.5l11 59q13 86 -19 140.5t-94 54.5q-55 0 -88.5 -46.5t-50.5 -148.5l-31 -203q-17 -103 -2.5 -149.5t63.5 -46.5z" />
    <glyph glyph-name="ccedilla" unicode="&#xe7;" 
d="M510 879q17 105 -2 149.5t-82 44.5q-66 0 -104.5 -46.5t-53.5 -147.5l-102 -650q-17 -103 3 -149.5t83 -46.5q64 0 101.5 46.5t54.5 149.5l26 174h72l-27 -167q-40 -267 -233 -267q-195 0 -152 267l101 638q43 263 235 263q195 0 152 -263l-27 -167h-72zM193 -125l34 115
h45l-18 -76q74 0 113.5 -38t29.5 -99q-11 -65 -67 -107.5t-131 -42.5q-35 0 -86 15l8 47q32 -13 63 -13q55 0 97.5 31t50.5 74q6 46 -30.5 70t-108.5 24z" />
    <glyph glyph-name="egrave" unicode="&#xe8;" 
d="M453 1188h-56l-131 280h66zM434 403h72l-27 -167q-40 -267 -231 -267q-197 0 -154 267l101 638q43 263 235 263q195 0 152 -263l-52 -321h-313l-51 -324q-17 -103 3 -149.5t83 -46.5q64 0 101.5 46.5t54.5 149.5zM510 879q17 105 -2 149.5t-82 44.5q-65 0 -103 -46
t-55 -148l-43 -269h242z" />
    <glyph glyph-name="eacute" unicode="&#xe9;" 
d="M463 1188h-55l120 280h64zM434 403h72l-27 -167q-40 -267 -231 -267q-197 0 -154 267l101 638q43 263 235 263q195 0 152 -263l-52 -321h-313l-51 -324q-17 -103 3 -149.5t83 -46.5q64 0 101.5 46.5t54.5 149.5zM510 879q17 105 -2 149.5t-82 44.5q-65 0 -103 -46
t-55 -148l-43 -269h242z" />
    <glyph glyph-name="ecircumflex" unicode="&#xea;" 
d="M367 1188h-54l133 280h80l43 -280h-53l-35 231h-6zM434 403h72l-27 -167q-40 -267 -231 -267q-197 0 -154 267l101 638q43 263 235 263q195 0 152 -263l-52 -321h-313l-51 -324q-17 -103 3 -149.5t83 -46.5q64 0 101.5 46.5t54.5 149.5zM510 879q17 105 -2 149.5
t-82 44.5q-65 0 -103 -46t-55 -148l-43 -269h242z" />
    <glyph glyph-name="edieresis" unicode="&#xeb;" 
d="M471 1276l16 104h101l-17 -104h-100zM328 1276l16 104h100l-16 -104h-100zM434 403h72l-27 -167q-40 -267 -231 -267q-197 0 -154 267l101 638q43 263 235 263q195 0 152 -263l-52 -321h-313l-51 -324q-17 -103 3 -149.5t83 -46.5q64 0 101.5 46.5t54.5 149.5zM510 879
q17 105 -2 149.5t-82 44.5q-65 0 -103 -46t-55 -148l-43 -269h242z" />
    <glyph glyph-name="igrave" unicode="&#xec;" horiz-adv-x="208" 
d="M307 1188h-55l-131 280h65zM68 0l176 1106h71l-176 -1106h-71z" />
    <glyph glyph-name="iacute" unicode="&#xed;" horiz-adv-x="208" 
d="M317 1188h-55l121 280h63zM68 0l176 1106h71l-176 -1106h-71z" />
    <glyph glyph-name="icircumflex" unicode="&#xee;" horiz-adv-x="208" 
d="M221 1188h-53l133 280h80l43 -280h-53l-35 231h-6zM68 0l176 1106h71l-176 -1106h-71z" />
    <glyph glyph-name="idieresis" unicode="&#xef;" horiz-adv-x="208" 
d="M326 1276l16 104h100l-16 -104h-100zM180 1276l17 104h100l-16 -104h-101zM68 0l176 1106h71l-176 -1106h-71z" />
    <glyph glyph-name="eth" unicode="&#xf0;" 
d="M356 1536q116 -55 172 -127l107 66l16 -35l-100 -64q45 -78 53 -196t-22 -310l-101 -634q-22 -135 -79 -201t-154 -66q-194 0 -154 267l103 638q43 263 213 263q97 0 122 -82l7 2q12 186 -41 286l-113 -69l-18 35l110 69q-54 72 -147 119zM512 879q15 105 -4 149.5
t-82 44.5q-65 0 -103 -46t-53 -148l-104 -650q-15 -104 4.5 -150t81.5 -46q64 0 102.5 47.5t53.5 148.5z" />
    <glyph glyph-name="ntilde" unicode="&#xf1;" horiz-adv-x="522" 
d="M678 1462l-14 -96q-13 -86 -45 -132t-76 -46q-32 0 -50 28t-30 93l-4 18q-8 45 -17 63.5t-24 18.5q-47 0 -64 -127l-14 -90h-47l14 88q28 188 119 188q30 0 46 -24.5t28 -85.5l2 -19q9 -51 21 -71.5t32 -20.5q43 0 61 119l17 96h45zM453 0h-72l139 877q15 103 -1 149.5
t-68 46.5q-63 0 -112.5 -63.5t-68.5 -186.5l-131 -823h-71l174 1106h65l-16 -123h6q34 75 81 114.5t103 39.5q72 0 102 -66.5t9 -198.5z" />
    <glyph glyph-name="ograve" unicode="&#xf2;" 
d="M455 1188h-56l-131 280h66zM582 874l-103 -638q-40 -267 -231 -267q-197 0 -154 267l101 638q43 263 235 263q195 0 152 -263zM510 879q17 105 -2 149.5t-82 44.5q-65 0 -103 -46t-55 -148l-102 -650q-17 -103 3 -149.5t83 -46.5q64 0 101.5 46.5t54.5 149.5z" />
    <glyph glyph-name="oacute" unicode="&#xf3;" 
d="M465 1188h-55l120 280h64zM582 874l-103 -638q-40 -267 -231 -267q-197 0 -154 267l101 638q43 263 235 263q195 0 152 -263zM510 879q17 105 -2 149.5t-82 44.5q-65 0 -103 -46t-55 -148l-102 -650q-17 -103 3 -149.5t83 -46.5q64 0 101.5 46.5t54.5 149.5z" />
    <glyph glyph-name="ocircumflex" unicode="&#xf4;" 
d="M369 1188h-54l134 280h79l43 -280h-53l-35 231h-6zM582 874l-103 -638q-40 -267 -231 -267q-197 0 -154 267l101 638q43 263 235 263q195 0 152 -263zM510 879q17 105 -2 149.5t-82 44.5q-65 0 -103 -46t-55 -148l-102 -650q-17 -103 3 -149.5t83 -46.5q64 0 101.5 46.5
t54.5 149.5z" />
    <glyph glyph-name="otilde" unicode="&#xf5;" 
d="M657 1462l-14 -96q-13 -86 -45 -132t-76 -46q-32 0 -50 28t-30 93l-4 18q-8 45 -17 63.5t-24 18.5q-46 0 -63 -127l-15 -90h-47l15 88q28 188 119 188q30 0 45.5 -24.5t27.5 -85.5l2 -19q9 -51 21.5 -71.5t32.5 -20.5q43 0 61 119l16 96h45zM582 874l-103 -638
q-40 -267 -231 -267q-197 0 -154 267l101 638q43 263 235 263q195 0 152 -263zM510 879q17 105 -2 149.5t-82 44.5q-65 0 -103 -46t-55 -148l-102 -650q-17 -103 3 -149.5t83 -46.5q64 0 101.5 46.5t54.5 149.5z" />
    <glyph glyph-name="odieresis" unicode="&#xf6;" 
d="M473 1276l16 104h101l-17 -104h-100zM330 1276l16 104h100l-16 -104h-100zM582 874l-103 -638q-40 -267 -231 -267q-197 0 -154 267l101 638q43 263 235 263q195 0 152 -263zM510 879q17 105 -2 149.5t-82 44.5q-65 0 -103 -46t-55 -148l-102 -650q-17 -103 3 -149.5
t83 -46.5q64 0 101.5 46.5t54.5 149.5z" />
    <glyph glyph-name="divide" unicode="&#xf7;" horiz-adv-x="823" 
d="M483 784l19 121h100l-20 -121h-99zM860 725l-12 -61h-666l13 61h665zM436 483l19 121h100l-20 -121h-99z" />
    <glyph glyph-name="oslash" unicode="&#xf8;" 
d="M582 874l-103 -638q-40 -267 -231 -267q-87 0 -129 54l-25 -54l-41 13l43 92q-17 59 -2 162l101 638q43 263 235 263q88 0 127 -54l25 54l39 -13l-41 -90q17 -59 2 -160zM164 225l352 770q-12 78 -90 78q-65 0 -103 -46t-55 -148l-102 -650zM510 879v4l-350 -770
q12 -80 92 -80q64 0 101.5 46.5t54.5 149.5z" />
    <glyph glyph-name="ugrave" unicode="&#xf9;" horiz-adv-x="522" 
d="M188 1188h-55l-131 280h66zM244 1106h71l-139 -877q-15 -102 3 -149t71 -47q62 0 109 63.5t67 186.5l131 823h72l-174 -1106h-66l17 123h-7q-34 -75 -81 -114.5t-103 -39.5q-72 0 -102 67.5t-9 199.5z" />
    <glyph glyph-name="uacute" unicode="&#xfa;" horiz-adv-x="522" 
d="M199 1188h-56l121 280h64zM244 1106h71l-139 -877q-15 -102 3 -149t71 -47q62 0 109 63.5t67 186.5l131 823h72l-174 -1106h-66l17 123h-7q-34 -75 -81 -114.5t-103 -39.5q-72 0 -102 67.5t-9 199.5z" />
    <glyph glyph-name="ucircumflex" unicode="&#xfb;" horiz-adv-x="522" 
d="M100 1188h-53l133 280h80l43 -280h-53l-35 231h-6zM244 1106h71l-139 -877q-15 -102 3 -149t71 -47q62 0 109 63.5t67 186.5l131 823h72l-174 -1106h-66l17 123h-7q-34 -75 -81 -114.5t-103 -39.5q-72 0 -102 67.5t-9 199.5z" />
    <glyph glyph-name="udieresis" unicode="&#xfc;" horiz-adv-x="522" 
d="M207 1276l16 104h101l-17 -104h-100zM61 1276l17 104h100l-16 -104h-101zM244 1106h71l-139 -877q-15 -102 3 -149t71 -47q62 0 109 63.5t67 186.5l131 823h72l-174 -1106h-66l17 123h-7q-34 -75 -81 -114.5t-103 -39.5q-72 0 -102 67.5t-9 199.5z" />
    <glyph glyph-name="yacute" unicode="&#xfd;" horiz-adv-x="493" 
d="M461 1188h-55l120 280h64zM268 -70q-19 -65 -32 -96t-39.5 -55.5t-63.5 -31.5t-102 -7l10 63q33 0 51 1t35.5 10t25 17t18.5 36.5t17 52t19 78.5l4 1108h74l-11 -854l-8 -117h4l29 117l260 854h74z" />
    <glyph glyph-name="thorn" unicode="&#xfe;" horiz-adv-x="512" 
d="M492 233q-43 -264 -193 -264q-56 0 -91 39.5t-44 114.5h-4l-88 -553h-72l311 1966h72l-86 -549h4q69 150 180 150q72 0 102 -66.5t9 -198.5zM281 33q104 0 137 194l102 650q17 103 0.5 149.5t-69.5 46.5q-63 0 -112.5 -63.5t-68.5 -186.5l-86 -542q-20 -122 7.5 -185
t89.5 -63z" />
    <glyph glyph-name="ydieresis" unicode="&#xff;" horiz-adv-x="493" 
d="M471 1276l16 104h101l-17 -104h-100zM326 1276l16 104h100l-16 -104h-100zM268 -70q-19 -65 -32 -96t-39.5 -55.5t-63.5 -31.5t-102 -7l10 63q33 0 51 1t35.5 10t25 17t18.5 36.5t17 52t19 78.5l4 1108h74l-11 -854l-8 -117h4l29 117l260 854h74z" />
    <glyph glyph-name="Amacron" unicode="&#x100;" horiz-adv-x="514" 
d="M705 1686l-9 -58h-368l8 58h369zM528 1434l-51 -1434h-74l17 389h-203l-106 -389h-74l403 1434h88zM236 451h186l31 700l12 145h-4l-33 -145z" />
    <glyph glyph-name="amacron" unicode="&#x101;" horiz-adv-x="509" 
d="M655 1358l-8 -58h-368l8 58h368zM453 0h-66l25 180h-4q-38 -100 -94.5 -155.5t-120.5 -55.5q-66 0 -93 67.5t-6 199.5l31 192q20 130 69.5 196t124.5 66q58 0 95.5 -38.5t46.5 -106.5h6l51 332q17 104 -4 150t-86 46q-64 0 -99.5 -45t-52.5 -149l-14 -95h-72l15 90
q40 263 233 263q195 0 152 -263zM227 33q69 0 127.5 89.5t83.5 250.5l11 59q14 86 -17 140.5t-94 54.5q-108 0 -141 -195l-31 -203q-17 -103 -2.5 -149.5t63.5 -46.5z" />
    <glyph glyph-name="Abreve" unicode="&#x102;" horiz-adv-x="514" 
d="M358 1796h58q-35 -223 90 -223t160 223h55q-22 -135 -74.5 -207.5t-150.5 -72.5q-183 0 -138 280zM528 1434l-51 -1434h-74l17 389h-203l-106 -389h-74l403 1434h88zM236 451h186l31 700l12 145h-4l-33 -145z" />
    <glyph glyph-name="abreve" unicode="&#x103;" horiz-adv-x="509" 
d="M309 1468h58q-35 -223 90 -223q124 0 159 223h56q-22 -135 -75 -207.5t-151 -72.5q-66 0 -102 35.5t-41.5 97.5t6.5 147zM453 0h-66l25 180h-4q-38 -100 -94.5 -155.5t-120.5 -55.5q-66 0 -93 67.5t-6 199.5l31 192q20 130 69.5 196t124.5 66q58 0 95.5 -38.5
t46.5 -106.5h6l51 332q17 104 -4 150t-86 46q-64 0 -99.5 -45t-52.5 -149l-14 -95h-72l15 90q40 263 233 263q195 0 152 -263zM227 33q69 0 127.5 89.5t83.5 250.5l11 59q14 86 -17 140.5t-94 54.5q-108 0 -141 -195l-31 -203q-17 -103 -2.5 -149.5t63.5 -46.5z" />
    <glyph glyph-name="Aogonek" unicode="&#x104;" horiz-adv-x="514" 
d="M528 1434l-51 -1434h-2q-85 -6 -144.5 -51t-70.5 -107q-7 -47 19 -74.5t77 -27.5q41 0 105 22l-8 -55q-74 -22 -123 -22q-73 0 -109.5 37t-27.5 100q11 65 67 114.5t143 69.5l17 383h-203l-106 -389h-74l403 1434h88zM236 451h186l31 700l12 145h-4l-33 -145z" />
    <glyph glyph-name="aogonek" unicode="&#x105;" horiz-adv-x="509" 
d="M453 0h-2q-85 -6 -144.5 -51t-70.5 -107q-7 -47 19 -74.5t77 -27.5q40 0 104 22l-8 -55q-74 -22 -123 -22q-73 0 -109.5 37t-27.5 100q11 68 70 117.5t151 68.5l23 172h-4q-38 -100 -94.5 -155.5t-120.5 -55.5q-66 0 -93 67.5t-6 199.5l31 192q20 130 69.5 196t124.5 66
q58 0 95.5 -38.5t46.5 -106.5h6l51 332q17 104 -4 150t-86 46q-64 0 -99.5 -45t-52.5 -149l-14 -95h-72l15 90q40 263 233 263q195 0 152 -263zM227 33q69 0 127.5 89.5t83.5 250.5l11 59q14 86 -17 140.5t-94 54.5q-108 0 -141 -195l-31 -203q-17 -103 -2.5 -149.5
t63.5 -46.5z" />
    <glyph glyph-name="Cacute" unicode="&#x106;" horiz-adv-x="540" 
d="M537 1516h-56l121 280h64zM590 1206q15 102 -7 148.5t-87 46.5q-133 0 -162 -195l-156 -977q-15 -103 6.5 -149.5t87.5 -46.5q67 0 107 47.5t55 148.5l43 263h74l-41 -256q-43 -267 -242 -267q-205 0 -162 267l152 966q43 262 244 262q205 0 162 -262l-41 -258h-74z" />
    <glyph glyph-name="cacute" unicode="&#x107;" 
d="M461 1188h-55l120 280h64zM510 879q17 105 -2 149.5t-82 44.5q-65 0 -103 -46t-55 -148l-102 -650q-17 -103 3 -149.5t83 -46.5q64 0 101.5 46.5t54.5 149.5l26 174h72l-27 -167q-40 -267 -231 -267q-197 0 -154 267l101 638q43 263 235 263q195 0 152 -263l-27 -167h-72
z" />
    <glyph glyph-name="Ccircumflex" unicode="&#x108;" horiz-adv-x="540" 
d="M440 1516h-53l133 280h80l43 -280h-53l-35 231h-6zM590 1206q15 102 -7 148.5t-87 46.5q-133 0 -162 -195l-156 -977q-15 -103 6.5 -149.5t87.5 -46.5q67 0 107 47.5t55 148.5l43 263h74l-41 -256q-43 -267 -242 -267q-205 0 -162 267l152 966q43 262 244 262
q205 0 162 -262l-41 -258h-74z" />
    <glyph glyph-name="ccircumflex" unicode="&#x109;" 
d="M365 1188h-54l133 280h80l43 -280h-53l-35 231h-6zM510 879q17 105 -2 149.5t-82 44.5q-65 0 -103 -46t-55 -148l-102 -650q-17 -103 3 -149.5t83 -46.5q64 0 101.5 46.5t54.5 149.5l26 174h72l-27 -167q-40 -267 -231 -267q-197 0 -154 267l101 638q43 263 235 263
q195 0 152 -263l-27 -167h-72z" />
    <glyph glyph-name="Cdotaccent" unicode="&#x10a;" horiz-adv-x="540" 
d="M473 1604l16 104h101l-17 -104h-100zM590 1206q15 102 -7 148.5t-87 46.5q-133 0 -162 -195l-156 -977q-15 -103 6.5 -149.5t87.5 -46.5q67 0 107 47.5t55 148.5l43 263h74l-41 -256q-43 -267 -242 -267q-205 0 -162 267l152 966q43 262 244 262q205 0 162 -262l-41 -258
h-74z" />
    <glyph glyph-name="cdotaccent" unicode="&#x10b;" 
d="M399 1276l17 104h100l-16 -104h-101zM510 879q17 105 -2 149.5t-82 44.5q-65 0 -103 -46t-55 -148l-102 -650q-17 -103 3 -149.5t83 -46.5q64 0 101.5 46.5t54.5 149.5l26 174h72l-27 -167q-40 -267 -231 -267q-197 0 -154 267l101 638q43 263 235 263q195 0 152 -263
l-27 -167h-72z" />
    <glyph glyph-name="Ccaron" unicode="&#x10c;" horiz-adv-x="540" 
d="M627 1796h53l-133 -280h-80l-45 280h53l37 -231h4zM590 1206q15 102 -7 148.5t-87 46.5q-133 0 -162 -195l-156 -977q-15 -103 6.5 -149.5t87.5 -46.5q67 0 107 47.5t55 148.5l43 263h74l-41 -256q-43 -267 -242 -267q-205 0 -162 267l152 966q43 262 244 262
q205 0 162 -262l-41 -258h-74z" />
    <glyph glyph-name="ccaron" unicode="&#x10d;" 
d="M551 1468h53l-133 -280h-80l-45 280h53l37 -231h4zM510 879q17 105 -2 149.5t-82 44.5q-65 0 -103 -46t-55 -148l-102 -650q-17 -103 3 -149.5t83 -46.5q64 0 101.5 46.5t54.5 149.5l26 174h72l-27 -167q-40 -267 -231 -267q-197 0 -154 267l101 638q43 263 235 263
q195 0 152 -263l-27 -167h-72z" />
    <glyph glyph-name="Dcaron" unicode="&#x10e;" horiz-adv-x="548" 
d="M594 1796h53l-133 -280h-80l-45 280h53l37 -231h4zM666 1171l-144 -905q-43 -266 -278 -266h-168l227 1434h166q240 0 197 -263zM592 1176q17 102 -13.5 148t-115.5 46h-96l-207 -1307h88q86 0 134.5 47.5t63.5 149.5z" />
    <glyph glyph-name="dcaron" unicode="&#x10f;" horiz-adv-x="512" 
d="M670 1174l78 362h61l-100 -362h-39zM197 874q43 263 190 263q56 0 91 -39.5t44 -114.5h6l86 553h74l-244 -1536h-65l16 123h-4q-34 -75 -82 -114.5t-104 -39.5q-72 0 -101.5 67.5t-9.5 199.5zM236 33q63 0 112 63.5t68 186.5l86 542q20 122 -6.5 185t-87.5 63
q-110 0 -138 -194l-104 -650q-15 -103 1.5 -149.5t68.5 -46.5z" />
    <glyph glyph-name="Dcroat" unicode="&#x110;" horiz-adv-x="548" 
d="M666 1171l-144 -905q-43 -266 -278 -266h-168l108 686h-71l10 57h70l110 691h166q240 0 197 -263zM592 1176q17 102 -13.5 148t-115.5 46h-96l-99 -627h115l-8 -57h-117l-98 -623h88q86 0 134.5 47.5t63.5 149.5z" />
    <glyph glyph-name="dcroat" unicode="&#x111;" horiz-adv-x="512" 
d="M197 874q43 263 190 263q56 0 91 -39.5t44 -114.5h6l43 274h-137l8 58h138l34 221h74l-37 -221h64l-10 -58h-62l-199 -1257h-65l16 123h-4q-34 -75 -82 -114.5t-104 -39.5q-72 0 -101.5 67.5t-9.5 199.5zM236 33q63 0 112 63.5t68 186.5l86 542q20 122 -6.5 185t-87.5 63
q-110 0 -138 -194l-104 -650q-15 -103 1.5 -149.5t68.5 -46.5z" />
    <glyph glyph-name="Emacron" unicode="&#x112;" horiz-adv-x="405" 
d="M659 1686l-8 -58h-368l8 58h368zM578 1434l-11 -64h-200l-99 -625h187l-9 -61h-188l-98 -621h219l-10 -63h-293l227 1434h275z" />
    <glyph glyph-name="emacron" unicode="&#x113;" 
d="M647 1358l-8 -58h-369l9 58h368zM434 403h72l-27 -167q-40 -267 -231 -267q-197 0 -154 267l101 638q43 263 235 263q195 0 152 -263l-52 -321h-313l-51 -324q-17 -103 3 -149.5t83 -46.5q64 0 101.5 46.5t54.5 149.5zM510 879q17 105 -2 149.5t-82 44.5q-65 0 -103 -46
t-55 -148l-43 -269h242z" />
    <glyph glyph-name="Ebreve" unicode="&#x114;" horiz-adv-x="405" 
d="M313 1796h58q-35 -223 90 -223t160 223h55q-22 -135 -74.5 -207.5t-150.5 -72.5q-183 0 -138 280zM578 1434l-11 -64h-200l-99 -625h187l-9 -61h-188l-98 -621h219l-10 -63h-293l227 1434h275z" />
    <glyph glyph-name="ebreve" unicode="&#x115;" 
d="M301 1468h57q-35 -223 91 -223q124 0 159 223h56q-22 -135 -75 -207.5t-151 -72.5q-66 0 -102 35.5t-41.5 97.5t6.5 147zM434 403h72l-27 -167q-40 -267 -231 -267q-197 0 -154 267l101 638q43 263 235 263q195 0 152 -263l-52 -321h-313l-51 -324q-17 -103 3 -149.5
t83 -46.5q64 0 101.5 46.5t54.5 149.5zM510 879q17 105 -2 149.5t-82 44.5q-65 0 -103 -46t-55 -148l-43 -269h242z" />
    <glyph glyph-name="Edotaccent" unicode="&#x116;" horiz-adv-x="405" 
d="M412 1604l16 104h100l-16 -104h-100zM578 1434l-11 -64h-200l-99 -625h187l-9 -61h-188l-98 -621h219l-10 -63h-293l227 1434h275z" />
    <glyph glyph-name="edotaccent" unicode="&#x117;" 
d="M401 1276l17 104h100l-16 -104h-101zM434 403h72l-27 -167q-40 -267 -231 -267q-197 0 -154 267l101 638q43 263 235 263q195 0 152 -263l-52 -321h-313l-51 -324q-17 -103 3 -149.5t83 -46.5q64 0 101.5 46.5t54.5 149.5zM510 879q17 105 -2 149.5t-82 44.5
q-65 0 -103 -46t-55 -148l-43 -269h242z" />
    <glyph glyph-name="Eogonek" unicode="&#x118;" horiz-adv-x="405" 
d="M578 1434l-11 -64h-200l-99 -625h187l-9 -61h-188l-98 -621h219l-10 -63h-4q-85 -6 -144.5 -51t-70.5 -107q-7 -47 19 -74.5t77 -27.5q40 0 104 22l-8 -55q-74 -22 -123 -22q-73 0 -109.5 37t-27.5 100q9 61 58.5 107.5t127.5 70.5h-192l227 1434h275z" />
    <glyph glyph-name="eogonek" unicode="&#x119;" 
d="M391 -238l-8 -55q-74 -22 -123 -22q-66 0 -102.5 30.5t-36.5 87.5q0 105 119 166q-189 6 -146 267l101 638q43 263 235 263q195 0 152 -263l-52 -321h-313l-51 -324q-17 -103 3 -149.5t83 -46.5q64 0 101.5 46.5t54.5 149.5l26 174h72l-27 -167q-37 -234 -184 -263
q-47 -24 -77 -61.5t-30 -83.5q0 -42 27 -65t72 -23q40 0 104 22zM510 879q17 105 -2 149.5t-82 44.5q-65 0 -103 -46t-55 -148l-43 -269h242z" />
    <glyph glyph-name="Ecaron" unicode="&#x11a;" horiz-adv-x="405" 
d="M565 1796h53l-133 -280h-79l-46 280h54l37 -231h4zM578 1434l-11 -64h-200l-99 -625h187l-9 -61h-188l-98 -621h219l-10 -63h-293l227 1434h275z" />
    <glyph glyph-name="ecaron" unicode="&#x11b;" 
d="M553 1468h53l-133 -280h-80l-45 280h53l37 -231h4zM434 403h72l-27 -167q-40 -267 -231 -267q-197 0 -154 267l101 638q43 263 235 263q195 0 152 -263l-52 -321h-313l-51 -324q-17 -103 3 -149.5t83 -46.5q64 0 101.5 46.5t54.5 149.5zM510 879q17 105 -2 149.5
t-82 44.5q-65 0 -103 -46t-55 -148l-43 -269h242z" />
    <glyph glyph-name="Gcircumflex" unicode="&#x11c;" horiz-adv-x="540" 
d="M440 1516h-53l133 280h80l43 -280h-53l-35 231h-6zM590 1206q17 104 -4.5 149.5t-89.5 45.5t-106.5 -45.5t-55.5 -149.5l-156 -977q-15 -103 4.5 -149.5t79.5 -46.5q68 0 114.5 59.5t65.5 171.5l62 395h-164l10 62h238l-115 -721h-70l15 113h-4q-27 -66 -76 -105
t-111 -39q-79 0 -111 68t-10 199l152 966q43 262 244 262q205 0 162 -262l-41 -258h-74z" />
    <glyph glyph-name="gcircumflex" unicode="&#x11d;" 
d="M393 1331h-53l133 281h80l43 -281h-53l-35 232h-6zM582 874l-78 -495q-22 -135 -79.5 -200.5t-154.5 -65.5h-55q-34 0 -53.5 -17.5t-24.5 -46.5q-4 -28 11 -42.5t47 -14.5h81q74 0 114 -39.5t30 -104.5q-11 -66 -65 -104.5t-138 -38.5h-31q-79 0 -121.5 36t-33.5 93
q12 74 106 98l2 5q-35 6 -53 34t-12 66t34.5 64.5t71.5 29.5l2 4q-95 50 -65 244l80 495q37 245 209 263q74 8 83 61l15 80h65l-10 -59q-8 -40 -26 -60t-58 -24l-2 -5q146 -24 109 -256zM510 879q17 104 -4 149t-84 45q-64 0 -100.5 -45.5t-53.5 -148.5l-80 -506
q-17 -102 5.5 -149.5t85.5 -47.5t98.5 46.5t52.5 150.5zM219 -68q-105 0 -121 -84q-6 -40 18.5 -63t76.5 -23h43q51 0 81.5 22t36.5 62q8 40 -16.5 63t-75.5 23h-43z" />
    <glyph glyph-name="Gbreve" unicode="&#x11e;" horiz-adv-x="540" 
d="M375 1796h57q-35 -223 90 -223t160 223h55q-22 -135 -74.5 -207.5t-150.5 -72.5q-66 0 -102 35.5t-41.5 97.5t6.5 147zM590 1206q17 104 -4.5 149.5t-89.5 45.5t-106.5 -45.5t-55.5 -149.5l-156 -977q-15 -103 4.5 -149.5t79.5 -46.5q68 0 114.5 59.5t65.5 171.5l62 395
h-164l10 62h238l-115 -721h-70l15 113h-4q-27 -66 -76 -105t-111 -39q-79 0 -111 68t-10 199l152 966q43 262 244 262q205 0 162 -262l-41 -258h-74z" />
    <glyph glyph-name="gbreve" unicode="&#x11f;" 
d="M328 1612h57q-35 -223 90 -223t160 223h55q-22 -135 -75 -208t-150 -73q-66 0 -102 35.5t-41.5 98t6.5 147.5zM582 874l-78 -495q-22 -135 -79.5 -200.5t-154.5 -65.5h-55q-34 0 -53.5 -17.5t-24.5 -46.5q-4 -28 11 -42.5t47 -14.5h81q74 0 114 -39.5t30 -104.5
q-11 -66 -65 -104.5t-138 -38.5h-31q-79 0 -121.5 36t-33.5 93q12 74 106 98l2 5q-35 6 -53 34t-12 66t34.5 64.5t71.5 29.5l2 4q-95 50 -65 244l80 495q37 245 209 263q74 8 83 61l15 80h65l-10 -59q-8 -40 -26 -60t-58 -24l-2 -5q146 -24 109 -256zM510 879q17 104 -4 149
t-84 45q-64 0 -100.5 -45.5t-53.5 -148.5l-80 -506q-17 -102 5.5 -149.5t85.5 -47.5t98.5 46.5t52.5 150.5zM219 -68q-105 0 -121 -84q-6 -40 18.5 -63t76.5 -23h43q51 0 81.5 22t36.5 62q8 40 -16.5 63t-75.5 23h-43z" />
    <glyph glyph-name="Gdotaccent" unicode="&#x120;" horiz-adv-x="540" 
d="M473 1604l16 104h101l-17 -104h-100zM590 1206q17 104 -4.5 149.5t-89.5 45.5t-106.5 -45.5t-55.5 -149.5l-156 -977q-15 -103 4.5 -149.5t79.5 -46.5q68 0 114.5 59.5t65.5 171.5l62 395h-164l10 62h238l-115 -721h-70l15 113h-4q-27 -66 -76 -105t-111 -39
q-79 0 -111 68t-10 199l152 966q43 262 244 262q205 0 162 -262l-41 -258h-74z" />
    <glyph glyph-name="gdotaccent" unicode="&#x121;" 
d="M428 1419l16 105h101l-17 -105h-100zM582 874l-78 -495q-22 -135 -79.5 -200.5t-154.5 -65.5h-55q-34 0 -53.5 -17.5t-24.5 -46.5q-4 -28 11 -42.5t47 -14.5h81q74 0 114 -39.5t30 -104.5q-11 -66 -65 -104.5t-138 -38.5h-31q-79 0 -121.5 36t-33.5 93q12 74 106 98l2 5
q-35 6 -53 34t-12 66t34.5 64.5t71.5 29.5l2 4q-95 50 -65 244l80 495q37 245 209 263q74 8 83 61l15 80h65l-10 -59q-8 -40 -26 -60t-58 -24l-2 -5q146 -24 109 -256zM510 879q17 104 -4 149t-84 45q-64 0 -100.5 -45.5t-53.5 -148.5l-80 -506q-17 -102 5.5 -149.5
t85.5 -47.5t98.5 46.5t52.5 150.5zM219 -68q-105 0 -121 -84q-6 -40 18.5 -63t76.5 -23h43q51 0 81.5 22t36.5 62q8 40 -16.5 63t-75.5 23h-43z" />
    <glyph glyph-name="uni0122" unicode="&#x122;" horiz-adv-x="540" 
d="M590 1206q17 104 -4.5 149.5t-89.5 45.5t-106.5 -45.5t-55.5 -149.5l-156 -977q-15 -103 4.5 -149.5t79.5 -46.5q68 0 114.5 59.5t65.5 171.5l62 395h-164l10 62h238l-115 -721h-70l15 113h-4q-27 -66 -76 -105t-111 -39q-79 0 -111 68t-10 199l152 966q43 262 244 262
q205 0 162 -262l-41 -258h-74zM313 -76l-24 -155q-7 -54 -31.5 -77.5t-69.5 -23.5l7 39q25 0 35.5 15t15.5 51l8 47h-41l16 104h84z" />
    <glyph glyph-name="uni0123" unicode="&#x123;" 
d="M410 1333l24 158q9 57 34.5 80.5t74.5 23.5l-6 -41q-27 0 -38.5 -15t-17.5 -52l-6 -45h43l-18 -109h-90zM582 874l-78 -495q-22 -135 -79.5 -200.5t-154.5 -65.5h-55q-34 0 -53.5 -17.5t-24.5 -46.5q-4 -28 11 -42.5t47 -14.5h81q74 0 114 -39.5t30 -104.5
q-11 -66 -65 -104.5t-138 -38.5h-31q-79 0 -121.5 36t-33.5 93q12 74 106 98l2 5q-35 6 -53 34t-12 66t34.5 64.5t71.5 29.5l2 4q-95 50 -65 244l80 495q37 245 209 263q74 8 83 61l15 80h65l-10 -59q-8 -40 -26 -60t-58 -24l-2 -5q146 -24 109 -256zM510 879q17 104 -4 149
t-84 45q-64 0 -100.5 -45.5t-53.5 -148.5l-80 -506q-17 -102 5.5 -149.5t85.5 -47.5t98.5 46.5t52.5 150.5zM219 -68q-105 0 -121 -84q-6 -40 18.5 -63t76.5 -23h43q51 0 81.5 22t36.5 62q8 40 -16.5 63t-75.5 23h-43z" />
    <glyph glyph-name="Hcircumflex" unicode="&#x124;" horiz-adv-x="536" 
d="M440 1516h-53l133 280h80l43 -280h-53l-35 231h-6zM688 1434l-225 -1434h-76l109 684h-238l-108 -684h-74l227 1434h74l-109 -689h238l108 689h74z" />
    <glyph glyph-name="hcircumflex" unicode="&#x125;" horiz-adv-x="522" 
d="M285 1597h-54l134 281h79l43 -281h-53l-35 232h-6zM455 0h-72l137 877q17 103 0.5 149.5t-69.5 46.5q-62 0 -112 -64t-69 -186l-129 -823h-73l243 1536h72l-86 -549h4q69 150 182 150q71 0 100.5 -66.5t8.5 -198.5z" />
    <glyph glyph-name="Hbar" unicode="&#x126;" horiz-adv-x="536" 
d="M723 1686l-8 -58h-369l8 58h369zM688 1434l-225 -1434h-76l109 684h-238l-108 -684h-74l227 1434h74l-109 -689h238l108 689h74z" />
    <glyph glyph-name="hbar" unicode="&#x127;" horiz-adv-x="522" 
d="M455 0h-72l137 877q17 103 0.5 149.5t-69.5 46.5q-62 0 -112 -64t-69 -186l-129 -823h-73l200 1257h-61l8 58h61l35 221h72l-35 -221h139l-10 -58h-137l-43 -270h4q69 150 182 150q71 0 100.5 -66.5t8.5 -198.5z" />
    <glyph glyph-name="Itilde" unicode="&#x128;" horiz-adv-x="225" 
d="M567 1790l-14 -96q-13 -86 -45 -132t-76 -46q-32 0 -50 27.5t-30 92.5l-4 19q-8 45 -17 63.5t-24 18.5q-46 0 -63 -127l-15 -90h-47l15 88q28 188 118 188q30 0 46 -24.5t28 -85.5l2 -19q9 -51 21 -71.5t32 -20.5q44 0 62 119l16 96h45zM377 1434l-227 -1434h-74
l227 1434h74z" />
    <glyph glyph-name="itilde" unicode="&#x129;" horiz-adv-x="208" 
d="M508 1462l-14 -96q-13 -86 -45 -132t-76 -46q-32 0 -50 28t-30 93l-4 18q-8 45 -17 63.5t-24 18.5q-47 0 -64 -127l-14 -90h-47l14 88q28 188 119 188q30 0 46 -24.5t28 -85.5l2 -19q9 -51 21 -71.5t32 -20.5q43 0 61 119l17 96h45zM68 0l176 1106h71l-176 -1106h-71z
" />
    <glyph glyph-name="Imacron" unicode="&#x12a;" horiz-adv-x="225" 
d="M561 1686l-8 -58h-369l9 58h368zM377 1434l-227 -1434h-74l227 1434h74z" />
    <glyph glyph-name="imacron" unicode="&#x12b;" horiz-adv-x="208" 
d="M502 1358l-8 -58h-369l8 58h369zM68 0l176 1106h71l-176 -1106h-71z" />
    <glyph glyph-name="Ibreve" unicode="&#x12c;" horiz-adv-x="225" 
d="M215 1796h57q-35 -223 90 -223t160 223h56q-22 -135 -75 -207.5t-151 -72.5q-66 0 -102 35.5t-41.5 97.5t6.5 147zM377 1434l-227 -1434h-74l227 1434h74z" />
    <glyph glyph-name="ibreve" unicode="&#x12d;" horiz-adv-x="208" 
d="M156 1468h57q-35 -223 90 -223t160 223h55q-22 -135 -74.5 -207.5t-150.5 -72.5q-66 0 -102 35.5t-41.5 97.5t6.5 147zM68 0l176 1106h71l-176 -1106h-71z" />
    <glyph glyph-name="Iogonek" unicode="&#x12e;" horiz-adv-x="225" 
d="M377 1434l-227 -1434q-85 -6 -146 -51t-70 -107q-7 -47 19.5 -74.5t77.5 -27.5q40 0 104 22l-8 -55q-74 -22 -123 -22q-73 0 -109.5 37t-27.5 100q11 65 67 114.5t142 69.5l227 1428h74z" />
    <glyph glyph-name="iogonek" unicode="&#x12f;" horiz-adv-x="208" 
d="M256 1184l29 178h71l-26 -178h-74zM125 -238l-8 -55q-74 -22 -123 -22q-73 0 -109.5 37t-27.5 100q11 66 68 115.5t145 68.5l174 1100h73l-176 -1106h-2q-85 -6 -145.5 -51t-69.5 -107q-7 -47 19 -74.5t77 -27.5q41 0 105 22z" />
    <glyph glyph-name="Idotaccent" unicode="&#x130;" horiz-adv-x="225" 
d="M313 1604l17 104h100l-16 -104h-101zM377 1434l-227 -1434h-74l227 1434h74z" />
    <glyph glyph-name="dotlessi" unicode="&#x131;" horiz-adv-x="208" 
d="M68 0l176 1106h71l-176 -1106h-71z" />
    <glyph glyph-name="IJ" unicode="&#x132;" horiz-adv-x="737" 
d="M377 1434l-227 -1434h-74l227 1434h74zM897 1434l-190 -1198q-43 -267 -242 -267q-205 0 -162 267l41 256h74l-41 -263q-17 -103 4.5 -149.5t87.5 -46.5q67 0 107 47t57 149l190 1205h74z" />
    <glyph glyph-name="ij" unicode="&#x133;" horiz-adv-x="393" 
d="M256 1184l29 178h71l-26 -178h-74zM541 1362l-29 -178h-72l29 178h72zM70 0l174 1106h73l-176 -1106h-71zM500 1106l-189 -1192q-7 -42 -11.5 -65t-13.5 -46.5t-20.5 -34t-31.5 -20t-46 -12t-65 -2.5l10 63q36 0 51 1.5t27.5 16t16.5 34t12 69.5l188 1188h72z" />
    <glyph glyph-name="Jcircumflex" unicode="&#x134;" horiz-adv-x="512" 
d="M578 1516h-54l133 280h80l43 -280h-53l-35 231h-6zM672 1434l-191 -1198q-43 -267 -241 -267q-205 0 -162 267l41 256h74l-41 -263q-17 -103 4.5 -149.5t87.5 -46.5q67 0 107 47t57 149l190 1205h74z" />
    <glyph glyph-name="jcircumflex" unicode="&#x135;" horiz-adv-x="186" 
d="M197 1188h-54l133 280h80l43 -280h-53l-35 231h-6zM291 1106l-189 -1192q-7 -42 -11.5 -65t-13.5 -46.5t-20.5 -34t-31.5 -20t-46 -12t-65 -2.5l8 63q66 0 80.5 16.5t28.5 104.5l188 1188h72z" />
    <glyph glyph-name="uni0136" unicode="&#x136;" horiz-adv-x="538" 
d="M692 1434l-284 -574v-4l92 -856h-76l-80 766h-4l-100 -199l-90 -567h-74l227 1434h74l-84 -525l-35 -196h4l354 721h76zM332 -76l-25 -155q-7 -55 -31 -78t-69 -23l6 39q25 0 35.5 15t15.5 51l8 47h-41l17 104h84z" />
    <glyph glyph-name="uni0137" unicode="&#x137;" horiz-adv-x="528" 
d="M633 1106l-266 -447l125 -659h-76l-109 588h-6l-92 -152l-68 -436h-73l243 1536h72l-131 -834l-29 -151h4l328 555h78zM317 -76l-24 -155q-7 -55 -31 -78t-69 -23l6 39q25 0 35.5 15t15.5 51l8 47h-41l16 104h84z" />
    <glyph glyph-name="kgreenlandic" unicode="&#x138;" horiz-adv-x="528" 
d="M633 1106l-266 -447l125 -659h-76l-109 588h-6l-92 -152l-68 -436h-73l176 1106h71l-63 -404l-29 -151h4l328 555h78z" />
    <glyph glyph-name="Lacute" unicode="&#x139;" horiz-adv-x="387" 
d="M375 1516h-56l121 280h64zM303 1434h74l-217 -1371h198l-10 -63h-272z" />
    <glyph glyph-name="lacute" unicode="&#x13a;" horiz-adv-x="208" 
d="M381 1597h-55l120 281h64zM68 0l243 1536h72l-244 -1536h-71z" />
    <glyph glyph-name="uni013B" unicode="&#x13b;" horiz-adv-x="387" 
d="M303 1434h74l-217 -1371h198l-10 -63h-272zM250 -76l-25 -155q-7 -55 -31 -78t-69 -23l6 39q25 0 35.5 15t15.5 51l8 47h-40l16 104h84z" />
    <glyph glyph-name="uni013C" unicode="&#x13c;" horiz-adv-x="208" 
d="M68 0l243 1536h72l-244 -1536h-71zM150 -55l-25 -156q-7 -54 -31 -77t-69 -23l6 39q25 0 35.5 14.5t15.5 50.5l8 47h-41l17 105h84z" />
    <glyph glyph-name="Lcaron" unicode="&#x13d;" horiz-adv-x="387" 
d="M401 1071l78 363h62l-101 -363h-39zM303 1434h74l-217 -1371h198l-10 -63h-272z" />
    <glyph glyph-name="lcaron" unicode="&#x13e;" horiz-adv-x="208" 
d="M401 1174l78 362h62l-101 -362h-39zM68 0l243 1536h72l-244 -1536h-71z" />
    <glyph glyph-name="Ldot" unicode="&#x13f;" horiz-adv-x="387" 
d="M303 1434h74l-217 -1371h198l-10 -63h-272zM330 672l16 104h100l-16 -104h-100z" />
    <glyph glyph-name="ldot" unicode="&#x140;" horiz-adv-x="208" 
d="M68 0l243 1536h72l-244 -1536h-71zM324 713l16 104h100l-16 -104h-100z" />
    <glyph glyph-name="Lslash" unicode="&#x141;" horiz-adv-x="387" 
d="M303 1434h74l-105 -660l93 37l12 -55l-115 -45l-102 -648h198l-10 -63h-272l106 680l-82 -33l-12 53l105 41z" />
    <glyph glyph-name="lslash" unicode="&#x142;" horiz-adv-x="208" 
d="M68 0l114 721l-43 -19l-14 56l68 24l118 754h72l-115 -723l45 16l13 -53l-68 -26l-119 -750h-71z" />
    <glyph glyph-name="Nacute" unicode="&#x143;" horiz-adv-x="563" 
d="M555 1516h-55l121 280h63zM715 1434l-228 -1434h-92l-53 1139l-2 147h-4l-17 -147l-169 -1139h-74l227 1434h92l54 -1131l2 -145h6l14 147l170 1129h74z" />
    <glyph glyph-name="nacute" unicode="&#x144;" horiz-adv-x="522" 
d="M487 1188h-55l121 280h63zM453 0h-72l139 877q15 103 -1 149.5t-68 46.5q-63 0 -112.5 -63.5t-68.5 -186.5l-131 -823h-71l174 1106h65l-16 -123h6q34 75 81 114.5t103 39.5q72 0 102 -66.5t9 -198.5z" />
    <glyph glyph-name="uni0145" unicode="&#x145;" horiz-adv-x="563" 
d="M715 1434l-228 -1434h-92l-53 1139l-2 147h-4l-17 -147l-169 -1139h-74l227 1434h92l54 -1131l2 -145h6l14 147l170 1129h74zM315 -76l-24 -155q-7 -54 -31.5 -77.5t-69.5 -23.5l7 39q25 0 35.5 15t15.5 51l8 47h-41l16 104h84z" />
    <glyph glyph-name="uni0146" unicode="&#x146;" horiz-adv-x="522" 
d="M453 0h-72l139 877q15 103 -1 149.5t-68 46.5q-63 0 -112.5 -63.5t-68.5 -186.5l-131 -823h-71l174 1106h65l-16 -123h6q34 75 81 114.5t103 39.5q72 0 102 -66.5t9 -198.5zM303 -76l-24 -155q-7 -54 -31.5 -77.5t-69.5 -23.5l6 39q25 0 36 15t16 51l8 47h-41l16 104h84z
" />
    <glyph glyph-name="Ncaron" unicode="&#x147;" horiz-adv-x="563" 
d="M645 1796h53l-133 -280h-80l-45 280h54l36 -231h5zM715 1434l-228 -1434h-92l-53 1139l-2 147h-4l-17 -147l-169 -1139h-74l227 1434h92l54 -1131l2 -145h6l14 147l170 1129h74z" />
    <glyph glyph-name="ncaron" unicode="&#x148;" horiz-adv-x="522" 
d="M578 1468h53l-133 -280h-80l-45 280h53l37 -231h4zM453 0h-72l139 877q15 103 -1 149.5t-68 46.5q-63 0 -112.5 -63.5t-68.5 -186.5l-131 -823h-71l174 1106h65l-16 -123h6q34 75 81 114.5t103 39.5q72 0 102 -66.5t9 -198.5z" />
    <glyph glyph-name="napostrophe" unicode="&#x149;" horiz-adv-x="1126" 
d="M78 0l227 1434h971l-227 -1434h-971zM453 1331l237 -530l406 530h-643zM729 717l244 -547l174 1094zM381 1264l-174 -1094l420 547zM664 633l-406 -531h643z" />
    <glyph glyph-name="Eng" unicode="&#x14a;" horiz-adv-x="563" 
d="M715 1434l-238 -1504q-10 -61 -18.5 -91t-29.5 -53t-54 -29.5t-92 -6.5l10 64h35t23.5 5.5t16.5 10t10.5 21.5t9 32.5t7.5 50.5l11 66l-62 1139l-4 147h-4l-14 -147l-172 -1139h-74l227 1434h92l60 -1276h6l10 147l170 1129h74z" />
    <glyph glyph-name="eng" unicode="&#x14b;" horiz-adv-x="522" 
d="M254 -250l10 64q65 0 79.5 16t27.5 104l149 943q17 102 -1 149t-73 47q-61 0 -108.5 -63.5t-67.5 -186.5l-131 -823h-71l176 1106h63l-14 -123h4q69 154 186 154q71 0 100.5 -66.5t8.5 -198.5l-150 -942q-7 -42 -11.5 -65t-13.5 -46.5t-20.5 -34t-31.5 -20t-46 -12
t-65 -2.5z" />
    <glyph glyph-name="Omacron" unicode="&#x14c;" horiz-adv-x="540" 
d="M721 1686l-8 -58h-369l8 58h369zM664 1202l-154 -966q-43 -267 -244 -267q-202 0 -162 267l154 966q43 262 244 262q202 0 162 -262zM590 1206q15 104 -6 149.5t-88 45.5q-68 0 -107.5 -46.5t-54.5 -148.5l-156 -977q-15 -104 6 -150t88 -46t107 47.5t55 148.5z" />
    <glyph glyph-name="omacron" unicode="&#x14d;" 
d="M649 1358l-8 -58h-369l9 58h368zM582 874l-103 -638q-40 -267 -231 -267q-197 0 -154 267l101 638q43 263 235 263q195 0 152 -263zM510 879q17 105 -2 149.5t-82 44.5q-65 0 -103 -46t-55 -148l-102 -650q-17 -103 3 -149.5t83 -46.5q64 0 101.5 46.5t54.5 149.5z" />
    <glyph glyph-name="Obreve" unicode="&#x14e;" horiz-adv-x="540" 
d="M375 1796h57q-35 -223 90 -223t160 223h55q-22 -135 -74.5 -207.5t-150.5 -72.5q-66 0 -102 35.5t-41.5 97.5t6.5 147zM664 1202l-154 -966q-43 -267 -244 -267q-202 0 -162 267l154 966q43 262 244 262q202 0 162 -262zM590 1206q15 104 -6 149.5t-88 45.5
q-68 0 -107.5 -46.5t-54.5 -148.5l-156 -977q-15 -104 6 -150t88 -46t107 47.5t55 148.5z" />
    <glyph glyph-name="obreve" unicode="&#x14f;" 
d="M303 1468h57q-35 -223 91 -223q124 0 159 223h56q-22 -135 -75 -207.5t-151 -72.5q-66 0 -102 35.5t-41.5 97.5t6.5 147zM582 874l-103 -638q-40 -267 -231 -267q-197 0 -154 267l101 638q43 263 235 263q195 0 152 -263zM510 879q17 105 -2 149.5t-82 44.5
q-65 0 -103 -46t-55 -148l-102 -650q-17 -103 3 -149.5t83 -46.5q64 0 101.5 46.5t54.5 149.5z" />
    <glyph glyph-name="Ohungarumlaut" unicode="&#x150;" horiz-adv-x="540" 
d="M453 1516h-52l119 280h60zM606 1516h-51l119 280h59zM664 1202l-154 -966q-43 -267 -244 -267q-202 0 -162 267l154 966q43 262 244 262q202 0 162 -262zM590 1206q15 104 -6 149.5t-88 45.5q-68 0 -107.5 -46.5t-54.5 -148.5l-156 -977q-15 -104 6 -150t88 -46t107 47.5
t55 148.5z" />
    <glyph glyph-name="ohungarumlaut" unicode="&#x151;" 
d="M381 1188h-51l119 280h59zM535 1188h-52l119 280h60zM582 874l-103 -638q-40 -267 -231 -267q-197 0 -154 267l101 638q43 263 235 263q195 0 152 -263zM510 879q17 105 -2 149.5t-82 44.5q-65 0 -103 -46t-55 -148l-102 -650q-17 -103 3 -149.5t83 -46.5
q64 0 101.5 46.5t54.5 149.5z" />
    <glyph glyph-name="OE" unicode="&#x152;" horiz-adv-x="667" 
d="M498 1434h342l-11 -64h-200l-99 -625h187l-8 -61h-189l-98 -621h219l-10 -63h-359q-204 0 -161 266l143 905q43 263 244 263zM348 63l207 1307h-68q-68 0 -105 -46t-52 -148l-146 -916q-17 -103 6.5 -150t92.5 -47h65z" />
    <glyph glyph-name="oe" unicode="&#x153;" horiz-adv-x="815" 
d="M530 553l-51 -324q-17 -103 3 -149.5t83 -46.5q64 0 101.5 46.5t54.5 149.5l27 174h73l-26 -167q-43 -267 -234 -267q-60 0 -94 28.5t-43 92.5h-4q-56 -121 -172 -121q-197 0 -154 267l101 638q43 263 235 263q60 0 93.5 -28t43.5 -91h4q30 64 71.5 91.5t100.5 27.5
q195 0 152 -263l-51 -321h-314zM823 879q17 105 -2 149.5t-82 44.5q-65 0 -102.5 -46t-54.5 -148l-41 -269h241zM510 879q17 105 -2 149.5t-82 44.5q-65 0 -103 -46t-55 -148l-102 -650q-17 -103 3 -149.5t83 -46.5q64 0 101.5 46.5t54.5 149.5z" />
    <glyph glyph-name="Racute" unicode="&#x154;" horiz-adv-x="536" 
d="M535 1516h-56l121 280h64zM303 1434h166q240 0 197 -267l-41 -249q-30 -191 -160 -238l-2 -4q116 -46 86 -236l-35 -229q-16 -96 -16 -203l-2 -8h-74q3 118 16 211l39 242q17 101 -13.5 147.5t-115.5 46.5h-96l-102 -647h-74zM367 1370l-105 -661h92q85 0 132.5 47.5
t62.5 148.5l43 271q17 102 -13.5 148t-115.5 46h-96z" />
    <glyph glyph-name="racute" unicode="&#x155;" horiz-adv-x="368" 
d="M397 1188h-55l121 280h63zM244 1106h65l-24 -172h4q11 48 32.5 82.5t43 51.5t52 26t48 10.5t43.5 1.5l-12 -70q-194 0 -230 -235l-127 -801h-71z" />
    <glyph glyph-name="uni0156" unicode="&#x156;" horiz-adv-x="536" 
d="M303 1434h166q240 0 197 -267l-41 -249q-30 -191 -160 -238l-2 -4q116 -46 86 -236l-35 -229q-16 -96 -16 -203l-2 -8h-74q3 118 16 211l39 242q17 101 -13.5 147.5t-115.5 46.5h-96l-102 -647h-74zM367 1370l-105 -661h92q85 0 132.5 47.5t62.5 148.5l43 271
q17 102 -13.5 148t-115.5 46h-96zM330 -76l-25 -155q-7 -55 -31 -78t-69 -23l6 39q25 0 35.5 15t15.5 51l8 47h-41l17 104h84z" />
    <glyph glyph-name="uni0157" unicode="&#x157;" horiz-adv-x="368" 
d="M244 1106h65l-24 -172h4q11 48 32.5 82.5t43 51.5t52 26t48 10.5t43.5 1.5l-12 -70q-194 0 -230 -235l-127 -801h-71zM145 -76l-24 -155q-7 -54 -31.5 -77.5t-69.5 -23.5l7 39q25 0 35.5 15t15.5 51l8 47h-41l16 104h84z" />
    <glyph glyph-name="Rcaron" unicode="&#x158;" horiz-adv-x="536" 
d="M625 1796h53l-133 -280h-80l-45 280h53l37 -231h4zM303 1434h166q240 0 197 -267l-41 -249q-30 -191 -160 -238l-2 -4q116 -46 86 -236l-35 -229q-16 -96 -16 -203l-2 -8h-74q3 118 16 211l39 242q17 101 -13.5 147.5t-115.5 46.5h-96l-102 -647h-74zM367 1370l-105 -661
h92q85 0 132.5 47.5t62.5 148.5l43 271q17 102 -13.5 148t-115.5 46h-96z" />
    <glyph glyph-name="rcaron" unicode="&#x159;" horiz-adv-x="368" 
d="M487 1468h54l-133 -280h-80l-45 280h53l37 -231h4zM244 1106h65l-24 -172h4q11 48 32.5 82.5t43 51.5t52 26t48 10.5t43.5 1.5l-12 -70q-194 0 -230 -235l-127 -801h-71z" />
    <glyph glyph-name="Sacute" unicode="&#x15a;" horiz-adv-x="548" 
d="M541 1516h-56l121 280h64zM631 1006h-74l33 200q17 107 -5 151t-83 44q-65 0 -104 -44.5t-56 -150.5l-20 -125q-12 -86 11 -160t73 -151q20 -30 28.5 -44t26.5 -43.5t27 -48.5t22 -48.5t18.5 -53.5t11 -54t5 -60.5t-5.5 -61.5l-21 -120q-41 -267 -250 -267
q-205 0 -164 267l31 194h76l-33 -201q-17 -107 7 -151.5t91 -44.5q66 0 107.5 45t58.5 151l21 125q11 65 -5.5 131.5t-38 105.5t-65.5 107q-43 67 -66 112t-38 118t-2 149l18 125q23 136 83.5 199t158.5 63q197 0 156 -262z" />
    <glyph glyph-name="sacute" unicode="&#x15b;" 
d="M463 1188h-55l120 280h64zM557 778h-72l25 154q21 149 -86 149q-50 0 -88.5 -36t-50.5 -117l-17 -105q-16 -102 94 -243q16 -19 27 -33.5t25.5 -34.5t24 -36.5t19.5 -37.5t16 -41t10 -42t3.5 -46t-4.5 -49l-12 -82q-17 -103 -78 -156t-147 -53q-88 0 -133 53.5t-27 159.5
l23 148h73l-24 -154q-24 -149 92 -149q125 0 149 149l15 96q5 32 -2.5 66.5t-29 73.5t-37.5 63t-46 66q-57 73 -84.5 142.5t-15.5 150.5l14 92q17 106 74.5 158.5t142.5 52.5t127 -53t25 -158z" />
    <glyph glyph-name="Scircumflex" unicode="&#x15c;" horiz-adv-x="548" 
d="M444 1516h-53l133 280h80l43 -280h-53l-35 231h-6zM631 1006h-74l33 200q17 107 -5 151t-83 44q-65 0 -104 -44.5t-56 -150.5l-20 -125q-12 -86 11 -160t73 -151q20 -30 28.5 -44t26.5 -43.5t27 -48.5t22 -48.5t18.5 -53.5t11 -54t5 -60.5t-5.5 -61.5l-21 -120
q-41 -267 -250 -267q-205 0 -164 267l31 194h76l-33 -201q-17 -107 7 -151.5t91 -44.5q66 0 107.5 45t58.5 151l21 125q11 65 -5.5 131.5t-38 105.5t-65.5 107q-43 67 -66 112t-38 118t-2 149l18 125q23 136 83.5 199t158.5 63q197 0 156 -262z" />
    <glyph glyph-name="scircumflex" unicode="&#x15d;" 
d="M367 1188h-54l133 280h80l43 -280h-53l-35 231h-6zM557 778h-72l25 154q21 149 -86 149q-50 0 -88.5 -36t-50.5 -117l-17 -105q-16 -102 94 -243q16 -19 27 -33.5t25.5 -34.5t24 -36.5t19.5 -37.5t16 -41t10 -42t3.5 -46t-4.5 -49l-12 -82q-17 -103 -78 -156t-147 -53
q-88 0 -133 53.5t-27 159.5l23 148h73l-24 -154q-24 -149 92 -149q125 0 149 149l15 96q5 32 -2.5 66.5t-29 73.5t-37.5 63t-46 66q-57 73 -84.5 142.5t-15.5 150.5l14 92q17 106 74.5 158.5t142.5 52.5t127 -53t25 -158z" />
    <glyph glyph-name="Scedilla" unicode="&#x15e;" horiz-adv-x="548" 
d="M631 1006h-74l33 200q17 107 -5 151t-83 44q-65 0 -104 -44.5t-56 -150.5l-20 -125q-12 -86 11 -160t73 -151q20 -30 28.5 -44t26.5 -43.5t27 -48.5t22 -48.5t18.5 -53.5t11 -54t5 -60.5t-5.5 -61.5l-21 -120q-41 -251 -227 -267l-15 -55q74 0 114 -38t30 -99
q-10 -64 -67 -107t-132 -43q-35 0 -86 15l8 47q32 -13 66 -13q53 0 95 31t50 74q7 46 -30 70t-109 24l29 94q-181 16 -140 267l31 194h76l-33 -201q-17 -107 7 -151.5t91 -44.5q66 0 107.5 45t58.5 151l21 125q11 65 -5.5 131.5t-38 105.5t-65.5 107q-43 67 -66 112t-38 118
t-2 149l18 125q23 136 83.5 199t158.5 63q197 0 156 -262z" />
    <glyph glyph-name="scedilla" unicode="&#x15f;" 
d="M557 778h-72l25 154q21 149 -86 149q-50 0 -88.5 -36t-50.5 -117l-17 -105q-16 -102 94 -243q16 -19 27 -33.5t25.5 -34.5t24 -36.5t19.5 -37.5t16 -41t10 -42t3.5 -46t-4.5 -49l-12 -82q-14 -96 -69 -148.5t-134 -58.5l-14 -57q74 0 113.5 -38t29.5 -99
q-11 -65 -67 -107.5t-131 -42.5q-35 0 -86 15l8 47q32 -13 65 -13q54 0 96 31t50 74q7 46 -30 70t-109 24l28 96q-76 6 -114 59.5t-21 151.5l23 148h73l-24 -154q-24 -149 92 -149q125 0 149 149l15 96q5 32 -2.5 66.5t-29 73.5t-37.5 63t-46 66q-57 73 -84.5 142.5
t-15.5 150.5l14 92q17 106 74.5 158.5t142.5 52.5t127 -53t25 -158z" />
    <glyph glyph-name="Scaron" unicode="&#x160;" horiz-adv-x="548" 
d="M631 1796h53l-133 -280h-80l-45 280h53l37 -231h4zM631 1006h-74l33 200q17 107 -5 151t-83 44q-65 0 -104 -44.5t-56 -150.5l-20 -125q-12 -86 11 -160t73 -151q20 -30 28.5 -44t26.5 -43.5t27 -48.5t22 -48.5t18.5 -53.5t11 -54t5 -60.5t-5.5 -61.5l-21 -120
q-41 -267 -250 -267q-205 0 -164 267l31 194h76l-33 -201q-17 -107 7 -151.5t91 -44.5q66 0 107.5 45t58.5 151l21 125q11 65 -5.5 131.5t-38 105.5t-65.5 107q-43 67 -66 112t-38 118t-2 149l18 125q23 136 83.5 199t158.5 63q197 0 156 -262z" />
    <glyph glyph-name="scaron" unicode="&#x161;" 
d="M553 1468h53l-133 -280h-80l-45 280h53l37 -231h4zM557 778h-72l25 154q21 149 -86 149q-50 0 -88.5 -36t-50.5 -117l-17 -105q-16 -102 94 -243q16 -19 27 -33.5t25.5 -34.5t24 -36.5t19.5 -37.5t16 -41t10 -42t3.5 -46t-4.5 -49l-12 -82q-17 -103 -78 -156t-147 -53
q-88 0 -133 53.5t-27 159.5l23 148h73l-24 -154q-24 -149 92 -149q125 0 149 149l15 96q5 32 -2.5 66.5t-29 73.5t-37.5 63t-46 66q-57 73 -84.5 142.5t-15.5 150.5l14 92q17 106 74.5 158.5t142.5 52.5t127 -53t25 -158z" />
    <glyph glyph-name="uni0162" unicode="&#x162;" horiz-adv-x="512" 
d="M698 1434l-8 -64h-180l-217 -1370h-12l-19 -70q74 0 114 -38t30 -99q-10 -64 -67 -106.5t-132 -42.5q-39 0 -86 14l8 47q30 -12 66 -12q54 0 95.5 30.5t49.5 73.5q7 46 -30 70t-109 24l32 109h-14l217 1370h-180l10 64h432z" />
    <glyph glyph-name="uni0163" unicode="&#x163;" horiz-adv-x="286" 
d="M299 1270h72l-25 -164h96l-10 -64h-96l-137 -858q-4 -30 -5 -50.5t3.5 -34t9.5 -21t18 -11t23.5 -4t30.5 -0.5l-11 -63q-27 0 -63 4l-12 -51q74 0 113.5 -38t29.5 -99q-10 -64 -67 -107t-132 -43q-35 0 -86 15l8 47q32 -13 66 -13q53 0 95 31t50 74q7 46 -30 70t-109 24
l31 102q-31 17 -39 55.5t4 108.5l135 862h-61l10 64h61z" />
    <glyph glyph-name="Tcaron" unicode="&#x164;" horiz-adv-x="512" 
d="M610 1796h54l-134 -280h-79l-45 280h53l37 -231h4zM698 1434l-8 -64h-180l-217 -1370h-74l217 1370h-180l10 64h432z" />
    <glyph glyph-name="tcaron" unicode="&#x165;" horiz-adv-x="286" 
d="M424 1174l78 362h61l-100 -362h-39zM299 1270h72l-25 -164h96l-10 -64h-96l-137 -858q-4 -30 -5 -50.5t3.5 -34t9.5 -21t18 -11t23.5 -4t30.5 -0.5l-11 -63q-100 0 -129.5 36t-11.5 144l135 862h-61l10 64h61z" />
    <glyph glyph-name="Tbar" unicode="&#x166;" horiz-adv-x="512" 
d="M698 1434l-8 -64h-180l-111 -694h101l-11 -58h-98l-98 -618h-74l98 618h-98l8 58h99l110 694h-180l10 64h432z" />
    <glyph glyph-name="tbar" unicode="&#x167;" horiz-adv-x="286" 
d="M299 1270h72l-25 -164h96l-10 -64h-96l-68 -417h99l-9 -58h-98l-61 -383q-4 -30 -5 -50.5t3.5 -34t9.5 -21t18 -11t23.5 -4t30.5 -0.5l-11 -63q-100 0 -129.5 36t-11.5 144l61 387h-57l8 58h58l65 417h-61l10 64h61z" />
    <glyph glyph-name="Utilde" unicode="&#x168;" horiz-adv-x="577" 
d="M745 1790l-14 -96q-13 -86 -45 -132t-76 -46q-32 0 -50 27.5t-30 92.5l-4 19q-8 45 -17 63.5t-24 18.5q-46 0 -63 -127l-14 -90h-48l15 88q28 188 119 188q30 0 45.5 -24.5t27.5 -85.5l2 -19q9 -51 21.5 -71.5t32.5 -20.5q43 0 61 119l16 96h45zM735 1434l-188 -1198
q-43 -267 -260 -267q-224 0 -181 267l189 1198h76l-191 -1205q-17 -103 9.5 -149.5t101.5 -46.5q76 0 119.5 47t60.5 149l191 1205h73z" />
    <glyph glyph-name="utilde" unicode="&#x169;" horiz-adv-x="522" 
d="M389 1462l-14 -96q-13 -86 -45 -132t-76 -46q-32 0 -50 28t-30 93l-4 18q-8 45 -17 63.5t-24 18.5q-46 0 -63 -127l-15 -90h-47l14 88q28 188 119 188q30 0 46 -24.5t28 -85.5l2 -19q9 -51 21 -71.5t32 -20.5q44 0 62 119l16 96h45zM244 1106h71l-139 -877
q-15 -102 3 -149t71 -47q62 0 109 63.5t67 186.5l131 823h72l-174 -1106h-66l17 123h-7q-34 -75 -81 -114.5t-103 -39.5q-72 0 -102 67.5t-9 199.5z" />
    <glyph glyph-name="Umacron" unicode="&#x16a;" horiz-adv-x="577" 
d="M739 1686l-8 -58h-369l9 58h368zM735 1434l-188 -1198q-43 -267 -260 -267q-224 0 -181 267l189 1198h76l-191 -1205q-17 -103 9.5 -149.5t101.5 -46.5q76 0 119.5 47t60.5 149l191 1205h73z" />
    <glyph glyph-name="umacron" unicode="&#x16b;" horiz-adv-x="522" 
d="M383 1358l-8 -58h-369l8 58h369zM244 1106h71l-139 -877q-15 -102 3 -149t71 -47q62 0 109 63.5t67 186.5l131 823h72l-174 -1106h-66l17 123h-7q-34 -75 -81 -114.5t-103 -39.5q-72 0 -102 67.5t-9 199.5z" />
    <glyph glyph-name="Ubreve" unicode="&#x16c;" horiz-adv-x="577" 
d="M391 1796h58q-35 -223 90 -223q124 0 159 223h56q-22 -135 -75 -207.5t-151 -72.5q-66 0 -102 35.5t-41.5 97.5t6.5 147zM735 1434l-188 -1198q-43 -267 -260 -267q-224 0 -181 267l189 1198h76l-191 -1205q-17 -103 9.5 -149.5t101.5 -46.5q76 0 119.5 47t60.5 149
l191 1205h73z" />
    <glyph glyph-name="ubreve" unicode="&#x16d;" horiz-adv-x="522" 
d="M35 1468h57q-35 -223 90 -223t160 223h55q-22 -135 -74.5 -207.5t-150.5 -72.5q-66 0 -102 35.5t-41.5 97.5t6.5 147zM244 1106h71l-139 -877q-15 -102 3 -149t71 -47q62 0 109 63.5t67 186.5l131 823h72l-174 -1106h-66l17 123h-7q-34 -75 -81 -114.5t-103 -39.5
q-72 0 -102 67.5t-9 199.5z" />
    <glyph glyph-name="Uring" unicode="&#x16e;" horiz-adv-x="577" 
d="M428 1632q2 67 42.5 111.5t104.5 44.5q49 0 77 -28.5t28 -82.5q0 -65 -42 -109t-106 -44q-104 0 -104 108zM475 1636q0 -35 17 -53t47 -18q41 0 68.5 32t27.5 78q-3 72 -66 72q-41 0 -68.5 -32.5t-25.5 -78.5zM735 1434l-188 -1198q-43 -267 -260 -267q-224 0 -181 267
l189 1198h76l-191 -1205q-17 -103 9.5 -149.5t101.5 -46.5q76 0 119.5 47t60.5 149l191 1205h73z" />
    <glyph glyph-name="uring" unicode="&#x16f;" horiz-adv-x="522" 
d="M72 1305q2 67 42.5 111t104.5 44q49 0 77 -28t28 -82q0 -65 -42 -109.5t-106 -44.5q-50 0 -77 28t-27 81zM119 1309q0 -35 16.5 -53.5t46.5 -18.5q41 0 69 32.5t28 78.5q-3 71 -66 71q-41 0 -68.5 -32t-25.5 -78zM244 1106h71l-139 -877q-15 -102 3 -149t71 -47
q62 0 109 63.5t67 186.5l131 823h72l-174 -1106h-66l17 123h-7q-34 -75 -81 -114.5t-103 -39.5q-72 0 -102 67.5t-9 199.5z" />
    <glyph glyph-name="Uhungarumlaut" unicode="&#x170;" horiz-adv-x="577" 
d="M471 1516h-51l119 280h59zM625 1516h-52l119 280h60zM735 1434l-188 -1198q-43 -267 -260 -267q-224 0 -181 267l189 1198h76l-191 -1205q-17 -103 9.5 -149.5t101.5 -46.5q76 0 119.5 47t60.5 149l191 1205h73z" />
    <glyph glyph-name="uhungarumlaut" unicode="&#x171;" horiz-adv-x="522" 
d="M115 1188h-52l119 280h60zM268 1188h-51l119 280h59zM244 1106h71l-139 -877q-15 -102 3 -149t71 -47q62 0 109 63.5t67 186.5l131 823h72l-174 -1106h-66l17 123h-7q-34 -75 -81 -114.5t-103 -39.5q-72 0 -102 67.5t-9 199.5z" />
    <glyph glyph-name="Uogonek" unicode="&#x172;" horiz-adv-x="577" 
d="M735 1434l-188 -1198q-40 -239 -213 -263q-105 -57 -105 -145q0 -42 27 -65t72 -23q40 0 104 22l-8 -55q-74 -22 -123 -22q-66 0 -102.5 30.5t-36.5 87.5q0 105 119 166q-107 2 -152 69t-23 198l189 1198h76l-191 -1205q-17 -103 9.5 -149.5t101.5 -46.5q76 0 119.5 47
t60.5 149l191 1205h73z" />
    <glyph glyph-name="uogonek" unicode="&#x173;" horiz-adv-x="522" 
d="M244 1106h71l-139 -877q-15 -102 3 -149t71 -47q62 0 109 63.5t67 186.5l131 823h72l-174 -1106h-2q-85 -6 -144.5 -51t-70.5 -107q-7 -47 19 -74.5t77 -27.5q40 0 104 22l-8 -55q-74 -22 -123 -22q-73 0 -109.5 37t-27.5 100q11 68 70 117.5t151 68.5l15 115h-7
q-34 -75 -81 -114.5t-103 -39.5q-72 0 -102 67.5t-9 199.5z" />
    <glyph glyph-name="Wcircumflex" unicode="&#x174;" horiz-adv-x="817" 
d="M575 1516h-53l133 280h80l43 -280h-53l-35 231h-6zM1008 1434l-385 -1434h-86l61 1122l14 150h-4l-33 -150l-294 -1122h-88l71 1434h74l-64 -1151l-20 -154h6l31 154l303 1151h84l-62 -1151l-18 -154h6l31 154l299 1151h74z" />
    <glyph glyph-name="wcircumflex" unicode="&#x175;" horiz-adv-x="778" 
d="M504 1188h-53l133 280h80l43 -280h-54l-35 231h-6zM918 1106l-322 -1106h-88l31 870l12 134h-6l-31 -134l-244 -870h-88l29 1106h74l-27 -860l-14 -117h6l24 117l248 860h84l-24 -860l-11 -117h4l23 117l246 860h74z" />
    <glyph glyph-name="Ycircumflex" unicode="&#x176;" horiz-adv-x="514" 
d="M424 1516h-53l133 280h80l43 -280h-54l-34 231h-7zM705 1434l-326 -899l-86 -535h-74l86 535l-41 899h74l20 -631l-4 -172h4l52 172l219 631h76z" />
    <glyph glyph-name="ycircumflex" unicode="&#x177;" horiz-adv-x="493" 
d="M365 1188h-54l133 280h80l43 -280h-53l-35 231h-6zM268 -70q-19 -65 -32 -96t-39.5 -55.5t-63.5 -31.5t-102 -7l10 63q33 0 51 1t35.5 10t25 17t18.5 36.5t17 52t19 78.5l4 1108h74l-11 -854l-8 -117h4l29 117l260 854h74z" />
    <glyph glyph-name="Ydieresis" unicode="&#x178;" horiz-adv-x="514" 
d="M530 1604l17 104h100l-16 -104h-101zM385 1604l16 104h101l-17 -104h-100zM705 1434l-326 -899l-86 -535h-74l86 535l-41 899h74l20 -631l-4 -172h4l52 172l219 631h76z" />
    <glyph glyph-name="Zacute" unicode="&#x179;" horiz-adv-x="450" 
d="M487 1516h-55l121 280h63zM621 1434l-11 -64l-485 -1302l4 -5h293l-10 -63h-373l10 63l483 1303l-2 4h-256l11 64h336z" />
    <glyph glyph-name="zacute" unicode="&#x17a;" horiz-adv-x="430" 
d="M430 1188h-55l121 280h63zM547 1106l-8 -49l-412 -989l2 -5h272l-10 -63h-352l6 49l414 991l-4 2h-232l8 64h316z" />
    <glyph glyph-name="Zdotaccent" unicode="&#x17b;" horiz-adv-x="450" 
d="M424 1604l16 104h101l-17 -104h-100zM621 1434l-11 -64l-485 -1302l4 -5h293l-10 -63h-373l10 63l483 1303l-2 4h-256l11 64h336z" />
    <glyph glyph-name="zdotaccent" unicode="&#x17c;" horiz-adv-x="430" 
d="M367 1276l16 104h100l-16 -104h-100zM547 1106l-8 -49l-412 -989l2 -5h272l-10 -63h-352l6 49l414 991l-4 2h-232l8 64h316z" />
    <glyph glyph-name="Zcaron" unicode="&#x17d;" horiz-adv-x="450" 
d="M578 1796h53l-133 -280h-80l-45 280h53l37 -231h4zM621 1434l-11 -64l-485 -1302l4 -5h293l-10 -63h-373l10 63l483 1303l-2 4h-256l11 64h336z" />
    <glyph glyph-name="zcaron" unicode="&#x17e;" horiz-adv-x="430" 
d="M520 1468h53l-133 -280h-80l-45 280h54l37 -231h4zM547 1106l-8 -49l-412 -989l2 -5h272l-10 -63h-352l6 49l414 991l-4 2h-232l8 64h316z" />
    <glyph glyph-name="longs" unicode="&#x17f;" horiz-adv-x="1126" 
d="M78 0l227 1434h971l-227 -1434h-971zM453 1331l237 -530l406 530h-643zM729 717l244 -547l174 1094zM381 1264l-174 -1094l420 547zM664 633l-406 -531h643z" />
    <glyph glyph-name="florin" unicode="&#x192;" horiz-adv-x="266" 
d="M-66 -430l11 63q30 0 44.5 2.5t31 13.5t25 36t15.5 69l205 1288h-61l10 64h61l39 250q18 108 59 144t140 36l-10 -63q-30 0 -44.5 -2.5t-31 -13.5t-25.5 -36t-16 -69l-39 -246h88l-10 -64h-88l-205 -1292q-17 -108 -58 -144t-141 -36z" />
    <glyph glyph-name="uni0237" unicode="&#x237;" horiz-adv-x="186" 
d="M291 1106l-189 -1192q-7 -42 -11.5 -65t-13.5 -46.5t-20.5 -34t-31.5 -20t-46 -12t-65 -2.5l8 63q66 0 80.5 16.5t28.5 104.5l188 1188h72z" />
    <glyph glyph-name="circumflex" unicode="&#x2c6;" horiz-adv-x="413" 
d="M315 1153h-53l133 281h80l43 -281h-53l-35 231h-6z" />
    <glyph glyph-name="caron" unicode="&#x2c7;" horiz-adv-x="413" 
d="M510 1434h53l-133 -281h-80l-45 281h53l37 -232h4z" />
    <glyph glyph-name="breve" unicode="&#x2d8;" horiz-adv-x="518" 
d="M305 1434h57q-35 -224 91 -224q124 0 159 224h56q-22 -135 -75 -208t-151 -73q-66 0 -102 35.5t-41.5 98t6.5 147.5z" />
    <glyph glyph-name="dotaccent" unicode="&#x2d9;" horiz-adv-x="256" 
d="M274 1241l17 105h100l-16 -105h-101z" />
    <glyph glyph-name="ring" unicode="&#x2da;" horiz-adv-x="403" 
d="M281 1270q2 67 42.5 111t104.5 44q49 0 76.5 -28t27.5 -82q0 -65 -41.5 -109.5t-105.5 -44.5q-50 0 -77 28t-27 81zM328 1274q0 -35 16.5 -53.5t46.5 -18.5q41 0 68.5 32.5t27.5 78.5q-3 71 -65 71q-41 0 -68.5 -32t-25.5 -78z" />
    <glyph glyph-name="ogonek" unicode="&#x2db;" horiz-adv-x="434" 
d="M332 -4l-2 -16q-85 -6 -144.5 -51t-70.5 -107q-7 -47 19 -75t77 -28q37 0 104 23l-8 -55q-77 -23 -123 -23q-73 0 -109.5 37t-27.5 100q12 79 91 134t194 61z" />
    <glyph glyph-name="tilde" unicode="&#x2dc;" horiz-adv-x="497" 
d="M647 1427l-14 -96q-13 -86 -45 -132t-76 -46q-32 0 -50 28t-30 93l-4 18q-8 45 -17 63.5t-24 18.5q-46 0 -63 -127l-15 -90h-47l14 88q28 189 119 189q30 0 46 -25t28 -86l2 -18q9 -51 21 -72t32 -21q44 0 62 119l16 96h45z" />
    <glyph glyph-name="hungarumlaut" unicode="&#x2dd;" horiz-adv-x="444" 
d="M313 1153h-51l119 281h59zM467 1153h-51l119 281h59z" />
    <glyph glyph-name="uni03BC" unicode="&#x3bc;" horiz-adv-x="1126" 
d="M78 0l227 1434h971l-227 -1434h-971zM453 1331l237 -530l406 530h-643zM729 717l244 -547l174 1094zM381 1264l-174 -1094l420 547zM664 633l-406 -531h643z" />
    <glyph glyph-name="endash" unicode="&#x2013;" horiz-adv-x="1015" 
d="M1053 725l-11 -61h-860l11 61h860z" />
    <glyph glyph-name="emdash" unicode="&#x2014;" horiz-adv-x="1507" 
d="M1544 725l-10 -61h-1352l11 61h1351z" />
    <glyph glyph-name="quoteleft" unicode="&#x2018;" horiz-adv-x="266" 
d="M254 1104l31 201q12 70 42 99.5t89 29.5l-8 -50q-32 0 -46 -20t-20 -66l-10 -59h53l-23 -135h-108z" />
    <glyph glyph-name="quoteright" unicode="&#x2019;" horiz-adv-x="266" 
d="M414 1434l-31 -201q-10 -70 -41 -99.5t-90 -29.5l8 51q32 0 46 19.5t20 64.5l10 59h-53l22 136h109z" />
    <glyph glyph-name="quotesinglbase" unicode="&#x201a;" horiz-adv-x="262" 
d="M207 133l-31 -196q-10 -70 -40.5 -100t-88.5 -30l8 50q31 0 44.5 19t21.5 65l8 59h-51l20 133h109z" />
    <glyph glyph-name="quotedblleft" unicode="&#x201c;" horiz-adv-x="434" 
d="M276 891l17 96q5 31 10.5 39t22.5 8l-2 -10q-3 0 -5.5 -0.5t-4 -1.5l-3 -2t-2.5 -3.5t-1.5 -4.5t-1 -6t-1 -6.5t-1.5 -8t-1 -8.5l-8 -45h14l-6 -47h-27zM446 891l17 96q5 31 10.5 39t22.5 8l-2 -10q-3 0 -5.5 -0.5t-4 -1.5l-3 -2t-2.5 -3.5t-1.5 -4.5t-1 -6t-1 -6.5
t-1.5 -8t-1 -8.5l-8 -45h14l-6 -47h-27z" />
    <glyph glyph-name="quotedblright" unicode="&#x201d;" horiz-adv-x="434" 
d="M553 1593l-16 -96q-4 -30 -10 -38.5t-21 -8.5v10q4 0 6.5 0.5t4.5 2.5t3 4t2 6t1.5 7t1 9.5t1.5 11.5l9 45h-15l6 47h27zM383 1593l-16 -96q-4 -30 -10 -38.5t-21 -8.5v10q4 0 6.5 0.5t4.5 2.5t3 4t2 6t1.5 7t1 9.5t1.5 11.5l9 45h-15l6 47h27z" />
    <glyph glyph-name="quotedblbase" unicode="&#x201e;" horiz-adv-x="448" 
d="M207 133l-31 -196q-10 -70 -40.5 -100t-88.5 -30l8 50q31 0 44.5 19t21.5 65l8 59h-51l20 133h109zM373 133l-31 -196q-10 -70 -40.5 -100t-88.5 -30l8 50q31 0 44.5 19t21.5 65l8 59h-51l20 133h109z" />
    <glyph glyph-name="dagger" unicode="&#x2020;" horiz-adv-x="481" 
d="M430 1434h74l-51 -328h125l-9 -64h-127l-163 -1042h-76l166 1042h-125l10 64h125z" />
    <glyph glyph-name="daggerdbl" unicode="&#x2021;" horiz-adv-x="481" 
d="M430 1434h74l-51 -328h125l-9 -64h-127l-102 -651h125l-10 -63h-125l-51 -328h-76l53 328h-127l10 63h127l103 651h-125l10 64h125z" />
    <glyph glyph-name="bullet" unicode="&#x2022;" horiz-adv-x="374" 
d="M197 735q0 55 34.5 90t92.5 35q92 0 92 -88q2 -54 -34.5 -90.5t-94.5 -36.5q-43 0 -66.5 23t-23.5 67z" />
    <glyph glyph-name="ellipsis" unicode="&#x2026;" horiz-adv-x="792" 
d="M78 0l22 135h109l-21 -135h-110zM342 0l23 135h108l-20 -135h-111zM604 0l23 135h108l-20 -135h-111z" />
    <glyph glyph-name="perthousand" unicode="&#x2030;" horiz-adv-x="1581" 
d="M643 1202l-49 -323q-43 -265 -229 -265q-191 0 -148 265l51 323q43 262 230 262q188 0 145 -262zM225 0l842 1434h59l-841 -1434h-60zM578 1206q17 103 -4.5 149t-84.5 46q-64 0 -100 -46t-53 -149l-53 -332q-15 -104 6 -150t84 -46q64 0 100 46.5t51 149.5zM1120 559
l-51 -323q-22 -135 -77.5 -201t-149.5 -66q-191 0 -148 267l51 323q43 262 230 262q188 0 145 -262zM1591 559l-51 -323q-22 -135 -77.5 -201t-149.5 -66q-191 0 -148 267l52 323q40 262 229 262q188 0 145 -262zM1055 563q17 104 -4 149.5t-84 45.5q-65 0 -102 -46.5
t-52 -148.5l-53 -334q-17 -102 5 -149t85 -47t98.5 46.5t52.5 149.5zM1526 563q15 105 -5 150t-83 45q-65 0 -102 -46.5t-52 -148.5l-53 -334q-17 -103 4.5 -149.5t85.5 -46.5q63 0 99 46.5t53 149.5z" />
    <glyph glyph-name="guilsinglleft" unicode="&#x2039;" horiz-adv-x="540" 
d="M516 334l-29 -64l-327 248l6 47l407 248l9 -65l-336 -207l-2 -4z" />
    <glyph glyph-name="guilsinglright" unicode="&#x203a;" horiz-adv-x="540" 
d="M231 750l27 63l328 -246l-6 -49l-408 -248l-8 66l338 207v4z" />
    <glyph glyph-name="fraction" unicode="&#x2044;" horiz-adv-x="604" 
d="M137 0h-59l616 1434h60z" />
    <glyph glyph-name="uni2074" unicode="&#x2074;" horiz-adv-x="417" 
d="M535 1434l-95 -590h33l-8 -53h-33l-22 -146h-58l25 146h-174l6 34l258 609h68zM274 844h111l51 330l41 178h-4l-43 -140z" />
    <glyph glyph-name="Euro" unicode="&#x20ac;" horiz-adv-x="602" 
d="M573 831l-28 -55h-217l-21 -119h176l-30 -55h-154l-59 -373q-15 -103 6.5 -149.5t87.5 -46.5q67 0 107 47.5t55 148.5l28 181h76l-29 -174q-43 -267 -241 -267q-205 0 -162 267l57 366h-61l8 55h61l19 119h-62l11 55h61l57 371q43 262 244 262q205 0 162 -262l-29 -176
h-73l28 180q15 102 -7 148.5t-87 46.5q-133 0 -162 -195l-59 -375h237z" />
    <glyph glyph-name="trademark" unicode="&#x2122;" horiz-adv-x="620" 
d="M479 1434l-8 -41h-61l-62 -389h-47l61 389h-63l6 41h174zM770 1434l-68 -430h-45l62 374h-4l-8 -43l-97 -331h-71l6 331l2 43h-4l-58 -374h-45l68 430h82l-6 -340l-6 -50h4l10 50l98 340h80z" />
    <glyph glyph-name="minus" unicode="&#x2212;" horiz-adv-x="710" 
d="M748 725l-11 -61h-555l11 61h555z" />
    <glyph glyph-name="fi" unicode="&#xfb01;" horiz-adv-x="475" 
d="M98 0l164 1042h-61l10 64h61l41 250q17 108 58 144t141 36l-10 -63q-30 0 -44.5 -2.5t-31 -13.5t-25.5 -36t-16 -69l-39 -246h88l-10 -64h-88l-166 -1042h-72zM520 1184l29 178h72l-27 -178h-74zM334 0l174 1106h74l-176 -1106h-72z" />
    <glyph glyph-name="fl" unicode="&#xfb02;" horiz-adv-x="479" 
d="M98 0l164 1042h-61l10 64h61l41 250q17 108 58 144t141 36l-10 -63q-30 0 -44.5 -2.5t-31 -13.5t-25.5 -36t-16 -69l-39 -246h88l-10 -64h-88l-166 -1042h-72zM338 0l244 1536h71l-243 -1536h-72z" />
    <glyph glyph-name="ethbar" horiz-adv-x="417" 
d="M455 723l-11 -57h-260l9 57h262z" />
    <glyph glyph-name="crossbar" horiz-adv-x="436" 
d="M461 780l12 -55l-276 -109l-13 54z" />
    <glyph glyph-name="ethbar.case" horiz-adv-x="417" 
d="M455 723l-11 -57h-270l8 57h273z" />
    <glyph glyph-name="crossbar.case" horiz-adv-x="352" 
d="M375 760l12 -53l-186 -74l-15 55z" />
    <glyph glyph-name="commaccent" horiz-adv-x="237" 
d="M16 -383l78 363h62l-101 -363h-39z" />
    <glyph glyph-name="commaccent2" horiz-adv-x="235" 
d="M178 104l-24 -155q-7 -54 -31.5 -77.5t-69.5 -23.5l6 39q25 0 36 15t16 51l8 47h-41l16 104h84z" />
    <glyph glyph-name="commaccent3" horiz-adv-x="235" 
d="M45 -158l25 158q9 57 34.5 80.5t73.5 23.5l-6 -41q-27 0 -38 -15t-17 -52l-6 -45h43l-19 -109h-90z" />
    <glyph glyph-name="dotaccent2" horiz-adv-x="256" 
d="M274 1241l17 105h100l-16 -105h-101z" />
    <glyph glyph-name="tbarnew" horiz-adv-x="382" 
d="M420 723l-8 -57h-228l9 57h227z" />
    <glyph glyph-name="ogonek2" horiz-adv-x="1024" 
d="M580 -16l2 -15q-62 -20 -104 -62.5t-42 -99.5q0 -42 27 -65t72 -23q37 0 104 23l-8 -55q-77 -23 -123 -23q-66 0 -102.5 31t-36.5 88q0 77 61 127.5t150 73.5z" />
    </font>
</defs>
</svg>
