<?xml version="1.0" standalone="no"?>
<!DOCTYPE svg PUBLIC "-//W3C//DTD SVG 1.1//EN" "http://www.w3.org/Graphics/SVG/1.1/DTD/svg11.dtd" >
<svg xmlns="http://www.w3.org/2000/svg" xmlns:xlink="http://www.w3.org/1999/xlink" version="1.1">
<metadata>
Created by FontForge 20201107 at Sat Sep 14 10:04:15 2024
 By 
</metadata>
<defs>
<font id="MangoGrotesque-SemiBoldItalic" horiz-adv-x="595" >
  <font-face 
    font-family="Mango Grotesque SemBd Ita"
    font-weight="600"
    font-style="italic"
    font-stretch="normal"
    units-per-em="2048"
    panose-1="0 0 0 0 0 0 0 0 0 0"
    ascent="1638"
    descent="-410"
    x-height="1106"
    cap-height="1434"
    bbox="-117 -430 1792.5 1878"
    underline-thickness="102"
    underline-position="-255"
    slope="-9"
    unicode-range="U+000D-FB02"
  />
<missing-glyph horiz-adv-x="1085" 
d="M57 0l228 1434h970l-227 -1434h-971zM432 1331l238 -530l405 530h-643zM709 717l243 -547l174 1094zM360 1264l-174 -1094l420 547zM643 633l-405 -531h643z" />
    <glyph glyph-name=".notdef" horiz-adv-x="1085" 
d="M57 0l228 1434h970l-227 -1434h-971zM432 1331l238 -530l405 530h-643zM709 717l243 -547l174 1094zM360 1264l-174 -1094l420 547zM643 633l-405 -531h643z" />
    <glyph glyph-name="uni0000" horiz-adv-x="0" 
 />
    <glyph glyph-name="uni0000" horiz-adv-x="0" 
 />
    <glyph glyph-name="uni000D" unicode="&#xd;" horiz-adv-x="512" 
 />
    <glyph glyph-name="space" unicode=" " horiz-adv-x="313" 
 />
    <glyph glyph-name="exclam" unicode="!" horiz-adv-x="337" 
d="M291 1434h207l-33 -205l-170 -899h-152l115 899zM57 0l35 221h223l-34 -221h-224z" />
    <glyph glyph-name="quotedbl" unicode="&#x22;" horiz-adv-x="528" 
d="M715 1536l-19 -115l-80 -389h-135l45 389l19 115h170zM471 1536l-18 -115l-80 -389h-135l45 389l18 115h170z" />
    <glyph glyph-name="numbersign" unicode="#" horiz-adv-x="815" 
d="M145 0l103 477h-115l25 154h125l36 172h-135l25 153h143l103 478h170l-105 -478h107l104 478h168l-102 -478h112l-24 -153h-121l-37 -172h131l-24 -154h-142l-102 -477h-168l102 477h-106l-103 -477h-170zM451 631h106l37 172h-107z" />
    <glyph glyph-name="dollar" unicode="$" horiz-adv-x="634" 
d="M743 975h-206l34 217q9 57 -2 80.5t-43 23.5q-35 0 -56 -24t-30 -80l-20 -137q-11 -68 14.5 -127t79.5 -133q20 -26 30 -40t28.5 -40t28.5 -45t23.5 -46.5t19.5 -52t11.5 -53.5t5 -60.5t-5.5 -64.5l-20 -121q-20 -127 -84 -201.5t-164 -93.5l-16 -180h-170l39 178
q-195 43 -156 297l31 189h207l-35 -217q-9 -58 3.5 -82.5t47.5 -24.5q70 0 86 107l22 137q2 16 2.5 31.5t-2.5 32t-5.5 29.5t-10.5 30t-12.5 28.5t-15.5 29.5l-16.5 27t-19.5 28t-19.5 27t-20.5 28q-45 60 -70 103t-42 115t-5 150l20 125q20 125 83.5 198.5t160.5 92.5
l19 180h167l-38 -178q93 -21 133 -94.5t20 -198.5z" />
    <glyph glyph-name="percent" unicode="%" horiz-adv-x="1224" 
d="M713 1165l-41 -250q-23 -149 -95 -226t-186 -77q-115 0 -164 77t-24 226l39 250q23 147 96 223t188 76q114 0 162 -75.5t25 -223.5zM248 0l842 1434h120l-841 -1434h-121zM545 1192q9 57 -1 80.5t-44 23.5t-53.5 -24.5t-28.5 -79.5l-49 -305q-8 -56 2.5 -81.5t42.5 -25.5
q68 0 82 107zM1249 522l-39 -250q-23 -148 -95.5 -224.5t-186.5 -76.5t-162.5 76.5t-24.5 224.5l39 250q23 148 96.5 224.5t188.5 76.5q113 0 161 -76.5t23 -224.5zM1083 551q9 56 -1 80t-44 24t-53.5 -24.5t-28.5 -79.5l-49 -307q-17 -107 45 -107q65 0 82 107z" />
    <glyph glyph-name="ampersand" unicode="&#x26;" horiz-adv-x="700" 
d="M752 1028h-207l18 119q9 54 -2 78t-45 24q-70 0 -84 -100l-39 -238q-9 -60 3.5 -85t49.5 -25h64l18 125h207l-18 -125h69l-26 -168h-70l-100 -633h-135l22 137h-6q-62 -168 -203 -168q-109 0 -156 89t-22 251l21 121q22 139 63.5 207.5t110.5 75.5v8q-66 7 -86 77.5
t2 209.5l20 120q26 164 108.5 249t215.5 85q135 0 192 -84.5t31 -247.5zM483 633h-61q-38 0 -59.5 -25t-30.5 -82l-37 -235q-8 -54 3 -78.5t44 -24.5q37 0 58.5 31.5t33.5 102.5z" />
    <glyph glyph-name="quotesingle" unicode="'" horiz-adv-x="284" 
d="M471 1536l-18 -115l-80 -389h-135l45 389l18 115h170z" />
    <glyph glyph-name="parenleft" unicode="(" horiz-adv-x="432" 
d="M145 -373q-66 518 7 971q70 454 301 965l163 -31q-189 -507 -258 -936q-65 -416 -39 -940z" />
    <glyph glyph-name="parenright" unicode=")" horiz-adv-x="432" 
d="M473 1561q66 -521 -6 -971q-70 -454 -301 -965l-164 31q188 505 258 936q65 416 39 940z" />
    <glyph glyph-name="asterisk" unicode="*" horiz-adv-x="741" 
d="M281 950l184 172l-223 47l73 150l197 -100l10 233h158l-64 -233l228 100l24 -150l-237 -47l133 -174l-143 -90l-82 203l-146 -203z" />
    <glyph glyph-name="plus" unicode="+" horiz-adv-x="921" 
d="M987 778l-26 -168h-314l-49 -319h-182l49 319h-311l26 168h312l51 320h182l-51 -320h313z" />
    <glyph glyph-name="comma" unicode="," horiz-adv-x="337" 
d="M317 221l-41 -250q-15 -101 -81.5 -154t-174.5 -53l17 103q102 0 117 106l4 27h-99l35 221h223z" />
    <glyph glyph-name="hyphen" unicode="-" horiz-adv-x="606" 
d="M672 778l-27 -168h-491l26 168h492z" />
    <glyph glyph-name="period" unicode="." horiz-adv-x="337" 
d="M57 0l35 221h223l-34 -221h-224z" />
    <glyph glyph-name="slash" unicode="/" horiz-adv-x="512" 
d="M225 -164h-194l467 1659h194z" />
    <glyph glyph-name="zero" unicode="0" horiz-adv-x="630" 
d="M774 1165l-141 -893q-24 -149 -107.5 -226t-214.5 -77t-190.5 77t-36.5 226l141 893q23 146 107.5 222.5t216.5 76.5q131 0 189.5 -76t35.5 -223zM571 1192q8 56 -3 80t-46 24q-36 0 -56.5 -24.5t-27.5 -79.5l-151 -948q-9 -56 2.5 -81.5t46.5 -25.5q34 0 54.5 25.5
t29.5 81.5z" />
    <glyph glyph-name="one" unicode="1" horiz-adv-x="475" 
d="M569 1434l-200 -1266h90l-27 -168h-387l27 168h90l153 971h-75l20 129q63 0 96 41t47 125h166z" />
    <glyph glyph-name="two" unicode="2" horiz-adv-x="630" 
d="M190 913l33 215q27 167 111 251.5t213 84.5q131 0 188.5 -89t28.5 -267l-23 -147q-10 -61 -32 -114t-56.5 -98t-65 -76t-75.5 -71q-49 -42 -73.5 -65.5t-60.5 -65t-56 -87.5t-29 -101l-19 -115h342l-26 -168h-549l43 272q11 67 33.5 127.5t46.5 101.5t62.5 85.5
t63.5 68.5t68 62q77 68 122.5 128.5t56.5 131.5l30 190q10 71 -0.5 100t-44.5 29q-33 0 -53.5 -26.5t-30.5 -91.5l-41 -265h-207z" />
    <glyph glyph-name="three" unicode="3" horiz-adv-x="630" 
d="M774 1165l-35 -221q-13 -81 -43 -129.5t-88 -69.5v-8q51 -21 65.5 -66t2.5 -124l-43 -277q-24 -149 -107.5 -225t-214.5 -76t-190.5 77t-36.5 224l43 273h209l-49 -301q-8 -56 3 -80.5t46 -24.5q70 0 84 105l45 280q12 76 -2.5 104.5t-67.5 28.5h-47l27 168h47
q52 0 75.5 28t34.5 103l39 238q9 56 -2.5 80t-46.5 24t-55 -24.5t-29 -79.5l-41 -258h-207l35 231q25 146 108.5 222.5t215.5 76.5q131 0 189.5 -76t35.5 -223z" />
    <glyph glyph-name="four" unicode="4" horiz-adv-x="675" 
d="M811 1434l-168 -1055h49l-26 -168h-50l-32 -211h-207l33 211h-332l26 164l420 1059h287zM305 379h131l51 328l99 409h-11z" />
    <glyph glyph-name="five" unicode="5" horiz-adv-x="630" 
d="M797 1434l-27 -168h-319l-74 -461h4q62 174 201 174q163 0 118 -274l-67 -433q-23 -149 -107 -226t-215 -77t-190 77t-35 226l31 197h207l-35 -225q-9 -56 2.5 -81.5t46.5 -25.5t55 25t29 82l72 463q9 55 -2 79.5t-43 24.5q-72 0 -89 -104l-10 -68h-207l125 795h529z" />
    <glyph glyph-name="six" unicode="6" horiz-adv-x="630" 
d="M750 1008h-209l30 182q8 56 -3 81t-44 25q-37 0 -58 -28t-30 -90l-71 -451h4q61 162 186 162q85 0 118.5 -76.5t8.5 -224.5l-49 -316q-24 -149 -107.5 -226t-214.5 -77t-190.5 77t-36.5 226l139 877q24 155 109 235t217 80q129 0 188.5 -77t36.5 -224zM336 137
q36 0 56.5 25.5t27.5 81.5l59 372q9 55 -2 80t-45 25q-36 0 -56.5 -25t-29.5 -80l-59 -372q-8 -57 3 -82t46 -25z" />
    <glyph glyph-name="seven" unicode="7" horiz-adv-x="581" 
d="M764 1434l-27 -168q-143 -344 -224.5 -597t-193.5 -669h-206q115 426 196 674.5t228 587.5l-5 4h-286l26 168h492z" />
    <glyph glyph-name="eight" unicode="8" horiz-adv-x="630" 
d="M774 1165l-31 -198q-23 -144 -143 -215l-2 -7q100 -68 76 -215l-41 -258q-24 -149 -107.5 -226t-214.5 -77t-190.5 77t-36.5 226l41 258q24 150 145 213v9q-99 65 -75 215l30 198q25 146 108.5 222.5t215.5 76.5q131 0 189.5 -76t35.5 -223zM571 1192q9 56 -2.5 80
t-46.5 24t-55 -24.5t-29 -79.5l-41 -254q-9 -56 2.5 -81.5t46.5 -25.5q34 0 54.5 25.5t29.5 81.5zM471 559q9 56 -2.5 80.5t-46.5 24.5t-55 -25t-29 -80l-51 -315q-8 -57 3 -82t46 -25q36 0 56.5 25.5t27.5 81.5z" />
    <glyph glyph-name="nine" unicode="9" horiz-adv-x="630" 
d="M109 426h208l-30 -182q-8 -57 3 -82t46 -25q36 0 56.5 28.5t29.5 90.5l72 453h-5q-28 -80 -75.5 -122t-110.5 -42q-85 0 -118.5 76.5t-8.5 224.5l49 317q24 148 108 224.5t214 76.5q131 0 190.5 -77t36.5 -224l-139 -878q-24 -155 -109 -235.5t-217 -80.5
q-129 0 -188.5 77t-36.5 226zM522 1296q-36 0 -56.5 -25t-27.5 -81l-59 -373q-9 -55 2 -79.5t45 -24.5q36 0 56.5 24.5t29.5 79.5l59 373q8 56 -3 81t-46 25z" />
    <glyph glyph-name="colon" unicode=":" horiz-adv-x="337" 
d="M199 885l34 221h224l-35 -221h-223zM57 0l35 221h223l-34 -221h-224z" />
    <glyph glyph-name="semicolon" unicode=";" horiz-adv-x="339" 
d="M201 885l35 221h223l-35 -221h-223zM317 221l-41 -250q-15 -101 -81.5 -154t-174.5 -53l17 103q102 0 117 106l4 27h-99l35 221h223z" />
    <glyph glyph-name="less" unicode="&#x3c;" horiz-adv-x="612" 
d="M684 819l-31 -192l-252 -49l-168 -31l-2 -10l396 -78l-31 -193l-463 215l19 119z" />
    <glyph glyph-name="equal" unicode="=" horiz-adv-x="882" 
d="M977 963l-27 -170h-768l27 170h768zM920 596l-27 -170h-768l27 170h768z" />
    <glyph glyph-name="greater" unicode="&#x3e;" horiz-adv-x="612" 
d="M133 266l31 193l422 82v8l-396 80l31 190l463 -215l-18 -119z" />
    <glyph glyph-name="question" unicode="?" horiz-adv-x="659" 
d="M203 913l35 215q26 167 110.5 251.5t214.5 84.5q128 0 186.5 -82t32.5 -247l-22 -138q-17 -106 -56 -180.5t-102 -154.5q-41 -52 -62.5 -83.5t-47.5 -91t-37 -125.5l-6 -32h-207l4 24q12 74 31.5 135.5t49.5 114t49 80t56 74.5q102 126 121 239l27 174q10 67 -1 96
t-44 29t-52.5 -26t-29.5 -92l-43 -265h-207zM186 0l35 221h223l-34 -221h-224z" />
    <glyph glyph-name="at" unicode="@" horiz-adv-x="1140" 
d="M983 1065l-139 -881q-4 -28 5.5 -44.5t29.5 -16.5q19 0 34 19t19 51l115 716q23 152 -47 231t-232 79q-164 0 -263 -79.5t-122 -230.5l-102 -639q-36 -235 18 -331.5t231 -96.5l-24 -155q-253 0 -352.5 146t-53.5 443l103 648q32 196 196.5 323t386.5 127
q224 0 349.5 -129t93.5 -327l-107 -680q-19 -115 -96.5 -186.5t-183.5 -71.5q-92 0 -146 51.5t-41 130.5v6h-6q-29 -92 -77 -142.5t-105 -50.5q-71 0 -96 80.5t0 237.5l88 559q17 105 66.5 166t115.5 61q55 0 88.5 -43t36.5 -118h8l23 147h186zM758 782q9 111 -53 111
q-57 0 -72 -92l-80 -510q-7 -49 2 -71.5t37 -22.5q30 0 55 28.5t35 83.5z" />
    <glyph glyph-name="A" unicode="A" 
d="M659 1434l-79 -1434h-207l33 336h-107l-76 -336h-207l375 1434h268zM336 504h84l47 489l16 148h-8z" />
    <glyph glyph-name="B" unicode="B" horiz-adv-x="614" 
d="M764 1133l-21 -136q-33 -206 -182 -256l-2 -6q142 -47 111 -254l-29 -180q-24 -150 -112.5 -225.5t-225.5 -75.5h-258l227 1434h254q135 0 198.5 -75t39.5 -226zM561 1161q9 55 -5 80t-54 25h-49l-70 -445h43q47 0 68 26t32 97zM469 535q10 63 -6.5 90.5t-63.5 27.5h-43
l-77 -485h49q44 0 68.5 25t31.5 81z" />
    <glyph glyph-name="C" unicode="C" horiz-adv-x="630" 
d="M571 1192q8 56 -3 80t-46 24q-70 0 -84 -104l-151 -948q-8 -56 3.5 -81.5t45.5 -25.5q70 0 84 107l45 278h207l-39 -250q-24 -151 -109 -227t-213 -76q-129 0 -190 76t-37 227l141 893q24 149 108.5 224t213.5 75q130 0 190.5 -74.5t36.5 -224.5l-39 -252h-209z" />
    <glyph glyph-name="D" unicode="D" horiz-adv-x="634" 
d="M772 1135l-131 -832q-24 -151 -112.5 -227t-225.5 -76h-258l227 1434h258q136 0 201 -74.5t41 -224.5zM569 1161q9 55 -6 80t-57 25h-53l-174 -1098h49q44 0 68.5 25t31.5 81z" />
    <glyph glyph-name="E" unicode="E" horiz-adv-x="473" 
d="M659 1434l-26 -168h-180l-74 -467h168l-27 -168h-168l-73 -463h198l-26 -168h-406l227 1434h387z" />
    <glyph glyph-name="F" unicode="F" horiz-adv-x="454" 
d="M659 1434l-26 -168h-180l-76 -478h155l-26 -167h-156l-98 -621h-207l227 1434h387z" />
    <glyph glyph-name="G" unicode="G" horiz-adv-x="630" 
d="M571 1192q9 57 -2.5 80.5t-46.5 23.5q-36 0 -55.5 -24t-28.5 -80l-151 -948q-8 -56 3.5 -81.5t43.5 -25.5q36 0 61 31t35 90l49 315h-86l27 168h287l-117 -741h-184l8 129h-6q-19 -70 -71.5 -115t-123.5 -45q-89 0 -120.5 74.5t-8.5 228.5l141 893q24 149 108.5 224
t213.5 75q130 0 190.5 -74.5t36.5 -224.5l-39 -252h-209z" />
    <glyph glyph-name="H" unicode="H" horiz-adv-x="628" 
d="M811 1434l-225 -1434h-209l100 631h-125l-100 -631h-207l227 1434h207l-100 -635h125l100 635h207z" />
    <glyph glyph-name="I" unicode="I" horiz-adv-x="296" 
d="M479 1434l-227 -1434h-207l227 1434h207z" />
    <glyph glyph-name="J" unicode="J" horiz-adv-x="618" 
d="M805 1434l-184 -1162q-24 -151 -109 -227t-213 -76t-188.5 76t-36.5 227l39 250h206l-43 -278q-9 -57 2.5 -82t45.5 -25q69 0 86 107l188 1190h207z" />
    <glyph glyph-name="K" unicode="K" horiz-adv-x="634" 
d="M831 1434l-260 -596l41 -838h-206l-15 647h-8l-43 -86l-88 -561h-207l227 1434h207l-59 -379l-64 -271l6 -2l261 652h208z" />
    <glyph glyph-name="L" unicode="L" horiz-adv-x="458" 
d="M272 1434h207l-200 -1266h178l-27 -168h-385z" />
    <glyph glyph-name="M" unicode="M" horiz-adv-x="851" 
d="M1034 1434l-227 -1434h-195l230 1145l-11 2l-305 -1147h-192l45 997l4 150l-8 -2l-135 -1145h-195l227 1434h299l-86 -1004l-14 -139h10l29 139l225 1004h299z" />
    <glyph glyph-name="N" unicode="N" horiz-adv-x="675" 
d="M858 1434l-227 -1434h-250l-4 946l-2 148h-8l-115 -1094h-207l227 1434h250l8 -1063l9 2l14 147l98 914h207z" />
    <glyph glyph-name="O" unicode="O" horiz-adv-x="630" 
d="M774 1165l-141 -893q-24 -149 -107.5 -226t-214.5 -77t-190.5 77t-36.5 226l141 893q23 146 107.5 222.5t216.5 76.5q131 0 189.5 -76t35.5 -223zM571 1192q8 56 -3 80t-46 24q-36 0 -56.5 -24.5t-27.5 -79.5l-151 -948q-9 -56 2.5 -81.5t46.5 -25.5q34 0 54.5 25.5
t29.5 81.5z" />
    <glyph glyph-name="P" unicode="P" horiz-adv-x="634" 
d="M770 1120l-47 -295q-24 -152 -114 -233.5t-224 -81.5h-51l-82 -510h-207l227 1434h258q135 0 199.5 -81t40.5 -233zM569 1161q9 55 -6 80t-57 25h-53l-93 -588h50q42 0 66.5 25t33.5 81z" />
    <glyph glyph-name="Q" unicode="Q" horiz-adv-x="630" 
d="M772 1151l-137 -866q-23 -147 -102.5 -227.5t-198.5 -88.5q10 -50 52.5 -68t109.5 -18l2 -4l-23 -141l-4 -6q-33 0 -58 3.5t-49.5 13t-39 26t-26.5 43t-11.5 63.5t4.5 88q-118 8 -173 89.5t-32 226.5l137 866q24 152 110.5 232.5t213.5 80.5q129 0 189 -80.5t36 -232.5z
M571 1192q9 56 -2.5 80t-46.5 24t-55 -24.5t-29 -79.5l-149 -948q-9 -56 1.5 -81.5t45.5 -25.5q36 0 56.5 25.5t29.5 81.5z" />
    <glyph glyph-name="R" unicode="R" horiz-adv-x="638" 
d="M272 1434h258q135 0 199.5 -81t40.5 -233l-31 -198q-15 -93 -61.5 -155t-118.5 -85l-2 -8q66 -23 93 -84.5t12 -155.5l-37 -229q-17 -120 -15 -197l-2 -8h-207q0 103 17 205l45 284q17 105 -64 105h-53l-94 -594h-207zM453 1266l-80 -506h51q43 0 66 25t32 81l47 295
q9 55 -6 80t-57 25h-53z" />
    <glyph glyph-name="S" unicode="S" horiz-adv-x="634" 
d="M743 975h-206l34 217q9 57 -2 80.5t-43 23.5q-35 0 -56 -24t-30 -80l-20 -137q-11 -68 14.5 -127t79.5 -133q20 -26 30 -40t28.5 -40t28.5 -45t23.5 -46.5t19.5 -52t11.5 -53.5t5 -60.5t-5.5 -64.5l-20 -121q-23 -150 -108 -226.5t-216 -76.5t-191 76.5t-36 226.5l31 189
h207l-35 -217q-9 -58 3.5 -82.5t47.5 -24.5q70 0 86 107l22 137q2 16 2.5 31.5t-2.5 32t-5.5 29.5t-10.5 30t-12.5 28.5t-15.5 29.5l-16.5 27t-19.5 28t-19.5 27t-20.5 28q-45 60 -70 103t-42 115t-5 150l20 125q24 149 107.5 224t212.5 75q130 0 189 -75.5t36 -223.5z" />
    <glyph glyph-name="T" unicode="T" horiz-adv-x="583" 
d="M780 1434l-24 -168h-160l-201 -1266h-207l201 1266h-160l27 168h524z" />
    <glyph glyph-name="U" unicode="U" horiz-adv-x="647" 
d="M831 1434l-182 -1162q-24 -151 -110.5 -227t-219.5 -76t-195 76t-38 227l182 1162h209l-188 -1190q-9 -56 4 -81.5t51 -25.5q39 0 61 25.5t31 81.5l189 1190h206z" />
    <glyph glyph-name="V" unicode="V" 
d="M432 0h-268l80 1434h207l-95 -994l-16 -147h10l31 147l219 994h207z" />
    <glyph glyph-name="W" unicode="W" horiz-adv-x="962" 
d="M1174 1434l-355 -1434h-272l119 1130h-9l-30 -149l-213 -981h-271l101 1434h207l-117 -1033l-19 -147h9l30 147l230 1033h250l-109 -1180h8l27 147l207 1033h207z" />
    <glyph glyph-name="X" unicode="X" 
d="M807 1434l-236 -713l9 -721h-207l6 438l22 195h-10l-39 -195l-127 -438h-209l234 731l-6 703h209l-11 -420l-20 -195h8l41 195l129 420h207z" />
    <glyph glyph-name="Y" unicode="Y" 
d="M807 1434l-332 -971l-74 -463h-206l73 463l-24 971h207l-39 -609l-13 -157h9l190 766h209z" />
    <glyph glyph-name="Z" unicode="Z" horiz-adv-x="522" 
d="M713 1434l-27 -168l-428 -1092l4 -6h264l-26 -168h-477l26 168l428 1092l-4 6h-235l26 168h449z" />
    <glyph glyph-name="bracketleft" unicode="[" horiz-adv-x="475" 
d="M356 -391h-362l309 1939h361l-27 -166h-154l-254 -1607h154z" />
    <glyph glyph-name="backslash" unicode="\" horiz-adv-x="512" 
d="M236 -164l59 1659h194l-59 -1659h-194z" />
    <glyph glyph-name="bracketright" unicode="]" horiz-adv-x="475" 
d="M301 1548h363l-308 -1939h-362l26 166h154l254 1607h-154z" />
    <glyph glyph-name="asciicircum" unicode="^" horiz-adv-x="579" 
d="M686 1024h-178l6 350h-10l-53 -184l-52 -166h-178l203 410h188z" />
    <glyph glyph-name="underscore" unicode="_" horiz-adv-x="585" 
d="M528 0l-26 -168h-471l26 168h471z" />
    <glyph glyph-name="grave" unicode="`" horiz-adv-x="425" 
d="M553 1153h-129l-139 281h155z" />
    <glyph glyph-name="a" unicode="a" horiz-adv-x="598" 
d="M561 0h-158l7 158h-7q-37 -83 -94.5 -136t-120.5 -53q-73 0 -102 78.5t-6 224.5l18 119q23 146 78 222.5t135 76.5q57 0 91 -36.5t42 -104.5h7l51 315q8 56 -3.5 80.5t-45.5 24.5q-33 0 -51 -24t-27 -81l-19 -110h-196l12 84q25 148 103.5 223.5t203.5 75.5
q126 0 182 -76.5t33 -222.5zM307 137q35 0 64 44t41 124l18 113q7 49 -7.5 76.5t-47.5 27.5q-59 0 -76 -104l-27 -174q-9 -57 -1 -82t36 -25z" />
    <glyph glyph-name="b" unicode="b" horiz-adv-x="600" 
d="M696 838l-90 -566q-23 -146 -79.5 -224.5t-135.5 -78.5q-57 0 -95 39t-48 109h-6l-41 -117h-158l242 1536h198l-86 -545h6q64 146 177 146q78 0 108.5 -77t7.5 -222zM330 137q59 0 76 107l98 620q8 56 -1 80.5t-38 24.5q-32 0 -57 -32t-35 -95l-92 -576q-18 -129 49 -129
z" />
    <glyph glyph-name="c" unicode="c" 
d="M498 864q9 57 -1 81t-44 24t-53.5 -25t-28.5 -80l-99 -620q-9 -56 1.5 -81.5t43.5 -25.5q65 0 82 107l29 180h197l-25 -152q-23 -149 -102 -226t-205 -77t-181.5 77t-31.5 226l88 566q25 147 104.5 223t206.5 76q124 0 179 -75.5t32 -223.5l-24 -152h-197z" />
    <glyph glyph-name="d" unicode="d" horiz-adv-x="600" 
d="M170 838q23 146 78 222.5t135 76.5q55 0 88 -37.5t41 -108.5h6l86 545h199l-244 -1536h-160l-2 117h-6q-34 -71 -83.5 -109.5t-106.5 -38.5q-80 0 -112 78t-9 225zM311 137q71 0 92 129l93 576q17 127 -50 127q-58 0 -75 -105l-99 -620q-8 -58 1 -82.5t38 -24.5z" />
    <glyph glyph-name="e" unicode="e" 
d="M428 424h197l-25 -152q-23 -149 -102 -226t-205 -77t-181.5 77t-31.5 226l88 566q25 147 104.5 223t206.5 76q124 0 179 -75.5t32 -223.5l-51 -328h-326l-41 -266q-9 -56 1.5 -81.5t43.5 -25.5q65 0 82 107zM498 864q9 57 -1 81t-44 24t-53.5 -25t-28.5 -80l-35 -211h129
z" />
    <glyph glyph-name="f" unicode="f" horiz-adv-x="333" 
d="M72 0l149 938h-61l26 168h62l33 205q10 62 25 101.5t36 65t61 38t84.5 16.5t120.5 4l-26 -168q-62 0 -81 -13t-28 -67l-29 -182h74l-26 -168h-74l-148 -938h-198z" />
    <glyph glyph-name="g" unicode="g" 
d="M690 838l-65 -422q-25 -148 -104 -225.5t-206 -77.5h-57q-47 0 -53 -39q-3 -19 6.5 -28t32.5 -9h129q89 0 133 -46.5t29 -135.5q-30 -197 -291 -197h-21q-115 0 -172.5 35t-46.5 98q8 46 49.5 70t124.5 28l2 9q-74 2 -108 30t-27 80q8 50 47.5 84t102.5 43v6
q-128 61 -93 275l68 422q20 133 87 209.5t169 87.5q43 4 61 18t23 43l12 82h170l-10 -49q-7 -44 -35.5 -67.5t-103.5 -24.5l-2 -9q94 -15 131.5 -88.5t17.5 -201.5zM498 864q9 56 -1.5 80.5t-43.5 24.5q-34 0 -53.5 -25t-28.5 -80l-76 -477q-9 -56 2 -81t45 -25t52.5 24.5
t27.5 81.5zM250 -104q-66 0 -72 -50q-5 -23 9 -35t46 -12h74q64 0 70 47q5 25 -9 37.5t-46 12.5h-72z" />
    <glyph glyph-name="h" unicode="h" horiz-adv-x="604" 
d="M563 0h-196l135 862q9 57 0 82t-37 25q-34 0 -58.5 -32.5t-33.5 -96.5l-133 -840h-199l244 1536h196l-82 -520h7q70 121 169 121q79 0 111 -77.5t8 -223.5z" />
    <glyph glyph-name="i" unicode="i" horiz-adv-x="280" 
d="M225 1163l39 240h197l-39 -240h-197zM41 0l176 1106h197l-174 -1106h-199z" />
    <glyph glyph-name="j" unicode="j" horiz-adv-x="272" 
d="M451 1403l-37 -240h-197l37 240h197zM403 1106l-196 -1241q-8 -53 -17.5 -88t-27.5 -61.5t-38 -40.5t-57.5 -22.5t-77.5 -10.5t-106 -2l27 165q66 0 80.5 12t23.5 68l193 1221h196z" />
    <glyph glyph-name="k" unicode="k" horiz-adv-x="614" 
d="M766 1106l-238 -457v-2l72 -647h-209l-37 500h-8l-39 -68l-67 -432h-199l244 1536h196l-112 -721l-56 -209l9 -2l235 502h209z" />
    <glyph glyph-name="l" unicode="l" horiz-adv-x="280" 
d="M41 0l244 1536h196l-243 -1536h-197z" />
    <glyph glyph-name="m" unicode="m" horiz-adv-x="913" 
d="M555 0h-199l138 862q17 107 -35 107q-31 0 -54.5 -32.5t-33.5 -96.5l-133 -840h-197l174 1106h160l4 -115h6q32 69 81 107.5t103 38.5q115 0 121 -154h8q32 73 82 113.5t107 40.5q78 0 109 -77.5t8 -223.5l-134 -836h-196l137 862q8 57 -0.5 82t-36.5 25q-31 0 -54 -33
t-32 -96z" />
    <glyph glyph-name="n" unicode="n" horiz-adv-x="604" 
d="M561 0h-196l137 862q9 57 -0.5 82t-38.5 25q-32 0 -57 -32.5t-35 -96.5l-133 -840h-197l174 1106h160l2 -117h8q34 70 83 109t105 39q80 0 112 -77.5t9 -223.5z" />
    <glyph glyph-name="o" unicode="o" 
d="M690 838l-90 -566q-23 -149 -102 -226t-205 -77t-181.5 77t-31.5 226l88 566q25 147 104.5 223t206.5 76q124 0 179 -75.5t32 -223.5zM498 864q9 57 -1 81t-44 24t-53.5 -25t-28.5 -80l-99 -620q-9 -56 1.5 -81.5t43.5 -25.5q65 0 82 107z" />
    <glyph glyph-name="p" unicode="p" horiz-adv-x="600" 
d="M606 270q-23 -147 -78 -224t-135 -77q-55 0 -88 37.5t-41 108.5h-6l-88 -545h-197l244 1536h160l2 -117h6q34 71 83.5 109.5t106.5 38.5q79 0 111.5 -77.5t9.5 -223.5zM330 137q59 0 73 105l99 620q9 57 0 82t-37 25q-34 0 -58.5 -32.5t-33.5 -96.5l-92 -576
q-20 -127 49 -127z" />
    <glyph glyph-name="q" unicode="q" horiz-adv-x="600" 
d="M80 270l90 566q23 146 79.5 223.5t135.5 77.5q57 0 95 -39t48 -109h7l40 117h158l-244 -1536h-196l86 545h-6q-64 -146 -176 -146q-79 0 -109.5 77t-7.5 224zM311 137q32 0 57 32t35 95l91 576q10 64 -3 96.5t-45 32.5q-58 0 -75 -107l-99 -620q-9 -55 0.5 -80t38.5 -25z
" />
    <glyph glyph-name="r" unicode="r" horiz-adv-x="446" 
d="M217 1106h170l-16 -184h4q10 52 27 88t35 54.5t49 28.5t54 11.5t64 1.5l-33 -205q-106 0 -154.5 -40t-62.5 -130l-116 -731h-197z" />
    <glyph glyph-name="s" unicode="s" 
d="M674 756h-197l25 166q13 82 -43 82q-63 0 -76 -82l-16 -111q-8 -50 19.5 -99t80.5 -104q16 -17 25.5 -27t25 -28t24.5 -30.5t21 -31t18.5 -34t13.5 -35.5t10 -39t3 -42t-4 -46l-10 -66q-19 -118 -102 -189t-199 -71q-119 0 -179 71t-40 191l18 121h197l-27 -166
q-11 -82 49 -82q67 0 78 82l19 107q8 51 -26 104.5t-99 122.5q-64 68 -96.5 134t-18.5 151l10 72q20 120 101 190t198 70t175.5 -70.5t39.5 -189.5z" />
    <glyph glyph-name="t" unicode="t" horiz-adv-x="380" 
d="M274 1270h197l-27 -164h97l-27 -168h-96l-109 -690q-9 -54 5 -67t77 -13l-26 -168q-63 0 -102 2.5t-74 11t-51.5 23t-27.5 40t-10 61t9 87.5l112 713h-61l26 168h62z" />
    <glyph glyph-name="u" unicode="u" horiz-adv-x="604" 
d="M217 1106h197l-138 -862q-7 -57 2.5 -82t38.5 -25q32 0 56.5 32.5t34.5 96.5l133 840h196l-174 -1106h-160l-2 117h-8q-34 -70 -83 -109t-105 -39q-80 0 -112 78t-9 225z" />
    <glyph glyph-name="v" unicode="v" horiz-adv-x="577" 
d="M410 0h-242l18 1106h207l-49 -678l-14 -135h10l29 135l166 678h206z" />
    <glyph glyph-name="w" unicode="w" horiz-adv-x="937" 
d="M1102 1106l-299 -1106h-273l105 1016h-10l-29 -142l-190 -874h-273l53 1106h207l-71 -721l-17 -131h8l29 131l176 721h250l-47 -721l-14 -131h10l22 131l154 721h209z" />
    <glyph glyph-name="x" unicode="x" horiz-adv-x="565" 
d="M729 1106l-209 -545v-6l35 -555h-199l-8 338l14 151h-10l-33 -151l-110 -338h-199l207 565l-31 541h197l6 -324l-12 -151h8l35 151l112 324h197z" />
    <glyph glyph-name="y" unicode="y" horiz-adv-x="577" 
d="M387 -88q-20 -68 -38 -107.5t-46.5 -74.5t-71.5 -51.5t-105 -25.5t-155 -9l25 166q101 0 129 30.5t43 147.5l18 1118h207l-51 -692l-12 -133h8l29 133l168 692h206l-329 -1106z" />
    <glyph glyph-name="z" unicode="z" horiz-adv-x="503" 
d="M641 1106l-20 -129l-361 -805l2 -4h244l-27 -168h-454l20 129l358 805l-4 4h-213l27 168h428z" />
    <glyph glyph-name="braceleft" unicode="{" horiz-adv-x="638" 
d="M596 1188l-51 -328q-23 -139 -70 -208.5t-137 -69.5v-7q89 0 114 -69.5t3 -208.5l-52 -328q-19 -117 0.5 -155.5t96.5 -38.5h47l-27 -166h-117q-133 0 -185.5 84t-24.5 256l61 389q9 55 5 90t-32.5 51.5t-91.5 16.5l27 168q92 0 123.5 33.5t44.5 121.5l61 389
q54 340 320 340h116l-26 -166h-47q-77 0 -108 -38.5t-50 -155.5z" />
    <glyph glyph-name="bar" unicode="|" horiz-adv-x="321" 
d="M205 -379h-209l305 1915h207z" />
    <glyph glyph-name="braceright" unicode="}" horiz-adv-x="638" 
d="M227 -31l52 328q23 139 69.5 208.5t136.5 69.5l2 7q-90 0 -115 69t-3 209l51 328q19 117 0 155.5t-96 38.5h-48l27 166h117q265 0 211 -340l-62 -389q-9 -55 -5 -90t32.5 -51t91.5 -16l-26 -166q-91 0 -123 -34.5t-45 -123.5l-62 -389q-54 -340 -319 -340h-117l27 166h47
q76 0 107 38.5t50 155.5z" />
    <glyph glyph-name="asciitilde" unicode="~" horiz-adv-x="618" 
d="M692 831l-4 -30q-22 -130 -60.5 -189t-103.5 -59q-68 0 -127 65l-6 7q-44 55 -92 55q-53 0 -68 -92l-4 -29h-82l5 29q41 248 167 248q65 0 129 -64l9 -6q55 -55 90 -55q48 0 63 90l6 30h78z" />
    <glyph glyph-name="exclamdown" unicode="&#xa1;" horiz-adv-x="337" 
d="M393 1063l-8 -55h-55l8 55h55zM223 -328h-207l33 205l170 901h152l-115 -901z" />
    <glyph glyph-name="cent" unicode="&#xa2;" 
d="M498 864q9 57 -1 81t-44 24t-53.5 -25t-28.5 -80l-99 -620q-9 -56 1.5 -81.5t43.5 -25.5q65 0 82 107l29 180h197l-25 -152q-40 -250 -229 -295l-15 -155h-170l35 155q-181 42 -141 295l88 566q20 123 80 196.5t155 93.5l15 156h170l-35 -156q177 -45 137 -290l-24 -152
h-197z" />
    <glyph glyph-name="sterling" unicode="&#xa3;" horiz-adv-x="702" 
d="M803 913h-207l43 279q9 55 -2 79.5t-45 24.5q-36 0 -56.5 -24.5t-29.5 -79.5l-84 -539h264l-27 -168h-264l-10 -57q-15 -93 -35.5 -151.5t-60.5 -108.5h397l-27 -168h-618l27 168q53 52 73.5 102t34.5 150l10 65h-67l26 168h68l82 512q24 150 108 224.5t213 74.5
q130 0 190 -74.5t36 -224.5z" />
    <glyph glyph-name="currency" unicode="&#xa4;" horiz-adv-x="1085" 
d="M57 0l228 1434h970l-227 -1434h-971zM432 1331l238 -530l405 530h-643zM709 717l243 -547l174 1094zM360 1264l-174 -1094l420 547zM643 633l-405 -531h643z" />
    <glyph glyph-name="yen" unicode="&#xa5;" 
d="M807 1434l-285 -832h117l-23 -141h-141l-10 -66h141l-22 -141h-142l-41 -254h-206l38 254h-135l23 141h135l10 66h-135l23 141h110l-20 832h207l-39 -609l-13 -157h9l190 766h209z" />
    <glyph glyph-name="brokenbar" unicode="&#xa6;" horiz-adv-x="321" 
d="M375 702h-207l133 834h207zM205 -379h-209l133 836h207z" />
    <glyph glyph-name="section" unicode="&#xa7;" horiz-adv-x="638" 
d="M745 1059h-196l26 178q13 82 -43 82q-61 0 -75 -84l-19 -117q-8 -53 19 -103t80 -112q16 -18 25.5 -29t24.5 -29t24.5 -31.5t21 -33t18.5 -36t14 -38t9 -42t2 -44.5t-4 -49l-13 -79q-15 -99 -71 -168.5t-139 -96.5q20 -23 34.5 -41.5t31.5 -44t26 -47.5t18.5 -52.5
t9 -58.5t-3.5 -65l-12 -68q-20 -127 -103.5 -203.5t-199.5 -76.5q-119 0 -178 76.5t-39 203.5l20 130h197l-29 -181q-14 -84 49 -84q64 0 78 84l19 115q8 54 -25.5 111.5t-97.5 128.5t-95.5 142t-15.5 161l12 88q17 98 71 166t136 96q-64 73 -95 143t-17 160l12 76
q20 127 102 202.5t199 75.5t175 -76t38 -202zM348 365q10 -7 27 -7q66 0 80 84l20 127q5 48 -24 105q-4 2 -17 2q-71 0 -84 -84l-20 -129q-6 -52 18 -98z" />
    <glyph glyph-name="dieresis" unicode="&#xa8;" horiz-adv-x="540" 
d="M326 1196l30 195h271l-31 -195h-270z" />
    <glyph glyph-name="copyright" unicode="&#xa9;" horiz-adv-x="1300" 
d="M188 825q100 635 682 635q303 0 427.5 -164t74.5 -471l-33 -211q-51 -316 -223 -478.5t-481 -162.5q-303 0 -417 162t-62 488zM330 854l-43 -268q-41 -261 49 -381.5t326 -120.5q237 0 366 121t170 381l43 268q40 254 -52 375t-325 121q-232 0 -363 -121.5t-171 -374.5z
M856 918q9 57 -1.5 80.5t-45.5 23.5q-64 0 -78 -90l-65 -418q-9 -52 2 -75t43 -23q34 0 53.5 25t28.5 81l18 119h199l-15 -90q-25 -149 -104 -226t-205 -77q-124 0 -180 75t-33 218l57 364q22 140 101 212.5t205 72.5q127 0 182.5 -75.5t30.5 -223.5l-15 -90h-196z" />
    <glyph glyph-name="ordfeminine" unicode="&#xaa;" horiz-adv-x="417" 
d="M494 838h-95l7 90h-7q-20 -46 -52.5 -76.5t-67.5 -30.5q-42 0 -59.5 43t-4.5 125l10 64q12 81 43.5 123.5t77.5 42.5q32 0 51.5 -21.5t22.5 -58.5h6l27 170q9 57 -25 57q-19 0 -29 -12t-14 -41l-10 -60h-117l8 45q12 81 57.5 123.5t116.5 42.5q74 0 106.5 -42.5
t20.5 -123.5zM346 920q45 0 60 86l10 63q3 23 -5.5 37t-25.5 14q-34 0 -43 -53l-14 -92q-5 -29 -1 -42t19 -13z" />
    <glyph glyph-name="guillemotleft" unicode="&#xab;" horiz-adv-x="1048" 
d="M590 422l-37 -178l-422 229l23 137l495 232l-20 -180l-275 -117l-2 -6zM1057 422l-37 -178l-422 229l23 137l495 232l-20 -180l-275 -117l-2 -6z" />
    <glyph glyph-name="logicalnot" unicode="&#xac;" horiz-adv-x="1085" 
d="M57 0l228 1434h970l-227 -1434h-971zM432 1331l238 -530l405 530h-643zM709 717l243 -547l174 1094zM360 1264l-174 -1094l420 547zM643 633l-405 -531h643z" />
    <glyph glyph-name="registered" unicode="&#xae;" horiz-adv-x="1300" 
d="M188 825q101 635 682 635q303 0 427.5 -164t74.5 -471l-33 -211q-51 -315 -222.5 -478t-479.5 -163q-305 0 -419 162t-62 488zM330 854l-43 -268q-41 -261 49 -381.5t326 -120.5q237 0 366 121.5t170 380.5l43 268q40 254 -52 375t-325 121t-363.5 -121t-170.5 -375z
M645 1190h174q102 0 149.5 -60t30.5 -172l-16 -96q-9 -64 -43.5 -108.5t-89.5 -63.5v-6q50 -15 69.5 -60t8.5 -108l-19 -119q-11 -73 -6 -143l-2 -6h-141q-3 79 8 149l25 154q12 78 -64 78h-31l-61 -381h-141zM768 1075l-51 -332h31q77 0 90 84l24 158q15 90 -61 90h-33z
" />
    <glyph glyph-name="macron" unicode="&#xaf;" horiz-adv-x="483" 
d="M641 1364l-23 -141h-368l22 141h369z" />
    <glyph glyph-name="degree" unicode="&#xb0;" horiz-adv-x="514" 
d="M647 1212l-4 -22q-20 -126 -80.5 -190t-156.5 -64q-98 0 -139 64t-21 190l2 22q43 252 241 252q96 0 137 -63.5t21 -188.5zM508 1239q7 52 -2 74t-37 22q-31 0 -48 -22.5t-24 -73.5l-12 -76q-9 -52 0.5 -75t38.5 -23q58 0 72 98z" />
    <glyph glyph-name="plusminus" unicode="&#xb1;" horiz-adv-x="882" 
d="M954 809l-26 -168h-293l-45 -281h-182l45 281h-293l26 168h293l45 281h181l-43 -281h292zM848 225l-27 -166h-741l26 166h742z" />
    <glyph glyph-name="twosuperior" unicode="&#xb2;" horiz-adv-x="421" 
d="M240 1151l20 129q13 91 61 137.5t119 46.5q154 0 125 -196l-14 -88q-9 -62 -41.5 -107t-85.5 -92q-34 -30 -53 -49t-39.5 -54.5t-26.5 -72.5l-8 -55h178l-16 -101h-299l22 150q6 37 19 71t24.5 54.5t36 48.5t33.5 36.5t37 34.5q88 77 100 144l17 112q6 36 0 51t-25 15
q-15 0 -24 -13.5t-15 -47.5l-25 -154h-120z" />
    <glyph glyph-name="threesuperior" unicode="&#xb3;" horiz-adv-x="423" 
d="M571 1298l-18 -120q-16 -90 -80 -109v-6q31 -10 41 -35.5t4 -69.5l-24 -151q-12 -81 -59.5 -123.5t-119.5 -42.5q-75 0 -109 42.5t-22 123.5l25 149h123l-27 -161q-9 -56 25 -56q32 0 41 54l24 153q6 39 -2.5 53.5t-38.5 14.5h-24l16 100h25q29 0 42 15t19 55l21 127
q9 55 -25 55q-32 0 -41 -55l-22 -140h-121l20 127q12 81 59 123.5t121 42.5q73 0 106 -42.5t21 -123.5z" />
    <glyph glyph-name="acute" unicode="&#xb4;" horiz-adv-x="337" 
d="M371 1153h-129l110 281h156z" />
    <glyph glyph-name="paragraph" unicode="&#xb6;" horiz-adv-x="989" 
d="M870 -379h-206l303 1915h207zM573 -379h-206l129 825q-53 0 -89.5 3t-73.5 12.5t-60 26.5t-43.5 45.5t-29 69t-11 97.5t4 130.5t21.5 168.5q19 122 41.5 209t52 146.5t60.5 95.5t77 55t91 25t112 6h228z" />
    <glyph glyph-name="periodcentered" unicode="&#xb7;" horiz-adv-x="337" 
d="M127 440l35 222h223l-35 -222h-223z" />
    <glyph glyph-name="cedilla" unicode="&#xb8;" horiz-adv-x="452" 
d="M74 -160l51 156h96l-24 -92q81 0 125.5 -37.5t35.5 -97.5q-11 -66 -77.5 -110t-157.5 -44q-53 0 -125 16l14 95q37 -11 62 -11q44 0 77.5 20t38.5 48q4 27 -27 42t-89 15z" />
    <glyph glyph-name="onesuperior" unicode="&#xb9;" horiz-adv-x="335" 
d="M457 1434l-109 -689h47l-14 -100h-221l16 100h49l82 519h-41l13 77q34 0 51.5 23t25.5 70h101z" />
    <glyph glyph-name="ordmasculine" unicode="&#xba;" horiz-adv-x="430" 
d="M578 1298l-78 -489q-12 -82 -59.5 -125t-123.5 -43t-110 43t-21 125l78 489q12 82 59 124t123 42t110.5 -42.5t21.5 -123.5zM461 1313q4 29 -2.5 41t-26.5 12q-37 0 -45 -53l-82 -518q-5 -30 1 -43t26 -13q38 0 47 56z" />
    <glyph glyph-name="guillemotright" unicode="&#xbb;" horiz-adv-x="1048" 
d="M662 664l36 178l422 -228l-20 -139l-498 -231l23 180l272 117l2 6zM195 664l36 178l422 -228l-20 -139l-498 -231l23 180l272 117l2 6z" />
    <glyph glyph-name="onequarter" unicode="&#xbc;" horiz-adv-x="880" 
d="M457 1434l-109 -689h47l-14 -100h-221l16 100h49l82 519h-41l13 77q34 0 51.5 23t25.5 70h101zM336 0h-131l555 1434h133zM924 788l-93 -571h27l-14 -100h-27l-18 -117h-123l18 117h-182l14 90l232 581h166zM647 217h64l22 141l62 254h-9l-18 -65z" />
    <glyph glyph-name="onehalf" unicode="&#xbd;" horiz-adv-x="933" 
d="M328 0h-131l555 1434h133zM457 1434l-109 -689h47l-14 -100h-221l16 100h49l82 519h-41l13 77q34 0 51.5 23t25.5 70h101zM649 506l21 129q13 91 61 137.5t119 46.5q154 0 125 -196l-14 -88q-9 -62 -41.5 -107t-85.5 -92q-34 -30 -53 -49t-39.5 -54.5t-26.5 -72.5l-8 -56
h178l-17 -100h-299l23 150q9 60 37.5 111.5t49 73t62.5 60.5q89 78 101 144l16 112q6 37 0.5 51.5t-24.5 14.5q-15 0 -24 -13.5t-15 -48.5l-25 -153h-121z" />
    <glyph glyph-name="threequarters" unicode="&#xbe;" horiz-adv-x="954" 
d="M571 1298l-18 -120q-16 -90 -80 -109v-6q31 -10 41 -35.5t4 -69.5l-24 -151q-12 -81 -59.5 -123.5t-119.5 -42.5q-75 0 -109 42.5t-22 123.5l25 149h123l-27 -161q-9 -56 25 -56q32 0 41 54l24 153q6 39 -2.5 53.5t-38.5 14.5h-24l16 100h25q29 0 42 15t19 55l21 127
q9 55 -25 55q-32 0 -41 -55l-22 -140h-121l20 127q12 81 59 123.5t121 42.5q73 0 106 -42.5t21 -123.5zM403 0h-131l555 1434h134zM997 788l-92 -571h27l-14 -100h-27l-19 -117h-122l18 117h-182l14 90l231 581h166zM721 217h63l23 141l61 254h-8l-18 -65z" />
    <glyph glyph-name="questiondown" unicode="&#xbf;" horiz-adv-x="659" 
d="M317 885l35 221h223l-34 -221h-224zM55 -23l35 216h207l-43 -265q-10 -66 1 -92t44 -26q34 0 55 28.5t31 95.5l27 175q19 112 -43 239q-17 36 -26.5 57.5t-22.5 63t-17.5 78.5t-3.5 91t10 114l4 26h207l-4 -35q-7 -40 -7 -77.5t4 -64.5t14 -58.5t18 -50t22 -48.5
q39 -79 55 -153.5t-1 -179.5l-23 -140q-26 -165 -110 -247t-212 -82q-132 0 -190 84t-31 251z" />
    <glyph glyph-name="Agrave" unicode="&#xc0;" 
d="M588 1516h-129l-140 280h156zM659 1434l-79 -1434h-207l33 336h-107l-76 -336h-207l375 1434h268zM336 504h84l47 489l16 148h-8z" />
    <glyph glyph-name="Aacute" unicode="&#xc1;" 
d="M600 1516h-129l111 280h155zM659 1434l-79 -1434h-207l33 336h-107l-76 -336h-207l375 1434h268zM336 504h84l47 489l16 148h-8z" />
    <glyph glyph-name="Acircumflex" unicode="&#xc2;" 
d="M496 1516h-119l129 280h151l39 -280h-118l-9 188h-6zM659 1434l-79 -1434h-207l33 336h-107l-76 -336h-207l375 1434h268zM336 504h84l47 489l16 148h-8z" />
    <glyph glyph-name="Atilde" unicode="&#xc3;" 
d="M764 1790l-6 -43q-39 -231 -135 -231q-56 0 -91 71l-6 10q-28 52 -55 52q-39 0 -51 -86l-6 -41h-68l6 41q39 233 137 233q48 0 86 -65l7 -11q29 -53 61 -53q37 0 49 80l8 43h64zM659 1434l-79 -1434h-207l33 336h-107l-76 -336h-207l375 1434h268zM336 504h84l47 489
l16 148h-8z" />
    <glyph glyph-name="Adieresis" unicode="&#xc4;" 
d="M406 1559l30 194h271l-31 -194h-270zM659 1434l-79 -1434h-207l33 336h-107l-76 -336h-207l375 1434h268zM336 504h84l47 489l16 148h-8z" />
    <glyph glyph-name="Aring" unicode="&#xc5;" 
d="M416 1630q0 72 45.5 120t120.5 48q57 0 88.5 -30t31.5 -89q0 -72 -45.5 -119t-121.5 -47q-119 0 -119 117zM496 1640q0 -53 49 -53q34 0 56.5 24.5t21.5 59.5q0 53 -52 53q-34 0 -54.5 -24t-20.5 -60zM659 1434l-79 -1434h-207l33 336h-107l-76 -336h-207l375 1434h268z
M336 504h84l47 489l16 148h-8z" />
    <glyph glyph-name="AE" unicode="&#xc6;" horiz-adv-x="792" 
d="M979 1434l-27 -168h-180l-74 -467h168l-26 -168h-168l-74 -463h199l-27 -168h-401l53 336h-107l-92 -336h-207l435 1434h528zM360 504h89l104 659h-8l-49 -170z" />
    <glyph glyph-name="Ccedilla" unicode="&#xc7;" horiz-adv-x="630" 
d="M571 1192q8 56 -3 80t-46 24q-70 0 -84 -104l-151 -948q-8 -56 3.5 -81.5t45.5 -25.5q70 0 84 107l45 278h207l-39 -250q-23 -136 -93.5 -211.5t-179.5 -89.5l-18 -67q82 0 126.5 -37.5t35.5 -97.5q-11 -66 -78 -110t-158 -44q-53 0 -125 16l15 95q37 -11 61 -11
q44 0 78 20t39 48q4 27 -27.5 42t-89.5 15l43 133q-104 14 -151.5 89t-26.5 210l141 893q24 149 108.5 224t213.5 75q130 0 190.5 -74.5t36.5 -224.5l-39 -252h-209z" />
    <glyph glyph-name="Egrave" unicode="&#xc8;" horiz-adv-x="473" 
d="M528 1516h-129l-139 280h156zM659 1434l-26 -168h-180l-74 -467h168l-27 -168h-168l-73 -463h198l-26 -168h-406l227 1434h387z" />
    <glyph glyph-name="Eacute" unicode="&#xc9;" horiz-adv-x="473" 
d="M541 1516h-129l110 280h156zM659 1434l-26 -168h-180l-74 -467h168l-27 -168h-168l-73 -463h198l-26 -168h-406l227 1434h387z" />
    <glyph glyph-name="Ecircumflex" unicode="&#xca;" horiz-adv-x="473" 
d="M436 1516h-119l129 280h152l39 -280h-119l-8 188h-6zM659 1434l-26 -168h-180l-74 -467h168l-27 -168h-168l-73 -463h198l-26 -168h-406l227 1434h387z" />
    <glyph glyph-name="Edieresis" unicode="&#xcb;" horiz-adv-x="473" 
d="M344 1559l31 194h272l-31 -194h-272zM659 1434l-26 -168h-180l-74 -467h168l-27 -168h-168l-73 -463h198l-26 -168h-406l227 1434h387z" />
    <glyph glyph-name="Igrave" unicode="&#xcc;" horiz-adv-x="296" 
d="M440 1516h-129l-139 280h156zM479 1434l-227 -1434h-207l227 1434h207z" />
    <glyph glyph-name="Iacute" unicode="&#xcd;" horiz-adv-x="296" 
d="M453 1516h-129l110 280h156zM479 1434l-227 -1434h-207l227 1434h207z" />
    <glyph glyph-name="Icircumflex" unicode="&#xce;" horiz-adv-x="296" 
d="M348 1516h-119l129 280h152l39 -280h-119l-8 188h-6zM479 1434l-227 -1434h-207l227 1434h207z" />
    <glyph glyph-name="Idieresis" unicode="&#xcf;" horiz-adv-x="296" 
d="M258 1559l31 194h270l-31 -194h-270zM479 1434l-227 -1434h-207l227 1434h207z" />
    <glyph glyph-name="Eth" unicode="&#xd0;" horiz-adv-x="634" 
d="M772 1135l-131 -832q-24 -151 -112.5 -227t-225.5 -76h-258l102 645h-49l21 135h49l104 654h258q136 0 201 -74.5t41 -224.5zM569 1161q9 55 -6 80t-57 25h-53l-78 -486h67l-22 -135h-66l-75 -477h49q44 0 68.5 25t31.5 81z" />
    <glyph glyph-name="Ntilde" unicode="&#xd1;" horiz-adv-x="675" 
d="M821 1790l-6 -43q-39 -231 -135 -231q-55 0 -90 71l-6 10q-28 52 -56 52q-39 0 -51 -86l-6 -41h-68l7 41q39 233 137 233q48 0 86 -65l6 -11q29 -53 61 -53q38 0 50 80l8 43h63zM858 1434l-227 -1434h-250l-4 946l-2 148h-8l-115 -1094h-207l227 1434h250l8 -1063l9 2
l14 147l98 914h207z" />
    <glyph glyph-name="Ograve" unicode="&#xd2;" horiz-adv-x="630" 
d="M608 1516h-129l-139 280h156zM774 1165l-141 -893q-24 -149 -107.5 -226t-214.5 -77t-190.5 77t-36.5 226l141 893q23 146 107.5 222.5t216.5 76.5q131 0 189.5 -76t35.5 -223zM571 1192q8 56 -3 80t-46 24q-36 0 -56.5 -24.5t-27.5 -79.5l-151 -948q-9 -56 2.5 -81.5
t46.5 -25.5q34 0 54.5 25.5t29.5 81.5z" />
    <glyph glyph-name="Oacute" unicode="&#xd3;" horiz-adv-x="630" 
d="M621 1516h-129l110 280h156zM774 1165l-141 -893q-24 -149 -107.5 -226t-214.5 -77t-190.5 77t-36.5 226l141 893q23 146 107.5 222.5t216.5 76.5q131 0 189.5 -76t35.5 -223zM571 1192q8 56 -3 80t-46 24q-36 0 -56.5 -24.5t-27.5 -79.5l-151 -948q-9 -56 2.5 -81.5
t46.5 -25.5q34 0 54.5 25.5t29.5 81.5z" />
    <glyph glyph-name="Ocircumflex" unicode="&#xd4;" horiz-adv-x="630" 
d="M516 1516h-119l129 280h152l39 -280h-119l-8 188h-6zM774 1165l-141 -893q-24 -149 -107.5 -226t-214.5 -77t-190.5 77t-36.5 226l141 893q23 146 107.5 222.5t216.5 76.5q131 0 189.5 -76t35.5 -223zM571 1192q8 56 -3 80t-46 24q-36 0 -56.5 -24.5t-27.5 -79.5
l-151 -948q-9 -56 2.5 -81.5t46.5 -25.5q34 0 54.5 25.5t29.5 81.5z" />
    <glyph glyph-name="Otilde" unicode="&#xd5;" horiz-adv-x="630" 
d="M784 1790l-6 -43q-39 -231 -135 -231q-55 0 -90 71l-6 10q-28 52 -55 52q-40 0 -52 -86l-6 -41h-67l6 41q39 233 137 233q48 0 86 -65l6 -11q29 -53 62 -53q37 0 49 80l8 43h63zM774 1165l-141 -893q-24 -149 -107.5 -226t-214.5 -77t-190.5 77t-36.5 226l141 893
q23 146 107.5 222.5t216.5 76.5q131 0 189.5 -76t35.5 -223zM571 1192q8 56 -3 80t-46 24q-36 0 -56.5 -24.5t-27.5 -79.5l-151 -948q-9 -56 2.5 -81.5t46.5 -25.5q34 0 54.5 25.5t29.5 81.5z" />
    <glyph glyph-name="Odieresis" unicode="&#xd6;" horiz-adv-x="630" 
d="M426 1559l31 194h270l-31 -194h-270zM774 1165l-141 -893q-24 -149 -107.5 -226t-214.5 -77t-190.5 77t-36.5 226l141 893q23 146 107.5 222.5t216.5 76.5q131 0 189.5 -76t35.5 -223zM571 1192q8 56 -3 80t-46 24q-36 0 -56.5 -24.5t-27.5 -79.5l-151 -948
q-9 -56 2.5 -81.5t46.5 -25.5q34 0 54.5 25.5t29.5 81.5z" />
    <glyph glyph-name="multiply" unicode="&#xd7;" horiz-adv-x="837" 
d="M819 1069l109 -129l-269 -233l195 -232l-147 -129l-197 234l-270 -234l-107 129l268 232l-194 233l147 129l197 -233z" />
    <glyph glyph-name="Oslash" unicode="&#xd8;" horiz-adv-x="630" 
d="M774 1165l-141 -893q-24 -149 -107.5 -226t-214.5 -77q-122 0 -184 68l-33 -68l-53 23l51 106q-23 68 -8 174l141 893q23 146 107.5 222.5t216.5 76.5q124 0 182 -67l33 67l53 -22l-51 -107q22 -72 8 -170zM571 1192q8 56 -3 80t-46 24q-36 0 -56.5 -24.5t-27.5 -79.5
l-92 -578l197 400zM315 418l-28 -174q-9 -56 2.5 -81.5t46.5 -25.5q34 0 54.5 25.5t29.5 81.5l90 573z" />
    <glyph glyph-name="Ugrave" unicode="&#xd9;" horiz-adv-x="647" 
d="M616 1516h-129l-139 280h156zM831 1434l-182 -1162q-24 -151 -110.5 -227t-219.5 -76t-195 76t-38 227l182 1162h209l-188 -1190q-9 -56 4 -81.5t51 -25.5q39 0 61 25.5t31 81.5l189 1190h206z" />
    <glyph glyph-name="Uacute" unicode="&#xda;" horiz-adv-x="647" 
d="M627 1516h-129l110 280h156zM831 1434l-182 -1162q-24 -151 -110.5 -227t-219.5 -76t-195 76t-38 227l182 1162h209l-188 -1190q-9 -56 4 -81.5t51 -25.5q39 0 61 25.5t31 81.5l189 1190h206z" />
    <glyph glyph-name="Ucircumflex" unicode="&#xdb;" horiz-adv-x="647" 
d="M522 1516h-119l129 280h152l39 -280h-119l-8 188h-6zM831 1434l-182 -1162q-24 -151 -110.5 -227t-219.5 -76t-195 76t-38 227l182 1162h209l-188 -1190q-9 -56 4 -81.5t51 -25.5q39 0 61 25.5t31 81.5l189 1190h206z" />
    <glyph glyph-name="Udieresis" unicode="&#xdc;" horiz-adv-x="647" 
d="M432 1559l31 194h270l-31 -194h-270zM831 1434l-182 -1162q-24 -151 -110.5 -227t-219.5 -76t-195 76t-38 227l182 1162h209l-188 -1190q-9 -56 4 -81.5t51 -25.5q39 0 61 25.5t31 81.5l189 1190h206z" />
    <glyph glyph-name="Yacute" unicode="&#xdd;" 
d="M600 1516h-129l111 280h155zM807 1434l-332 -971l-74 -463h-206l73 463l-24 971h207l-39 -609l-13 -157h9l190 766h209z" />
    <glyph glyph-name="Thorn" unicode="&#xde;" horiz-adv-x="634" 
d="M729 866l-47 -295q-23 -153 -112.5 -234t-225.5 -81h-51l-41 -256h-207l227 1434h207l-41 -254h51q136 0 200 -81.5t40 -232.5zM528 907q9 55 -6.5 80t-58.5 25h-51l-93 -588h52q42 0 65.5 25t32.5 81z" />
    <glyph glyph-name="germandbls" unicode="&#xdf;" horiz-adv-x="614" 
d="M547 1464q125 0 185 -77.5t36 -233.5l-25 -156q-34 -207 -182 -254l-2 -8q144 -48 109 -254l-27 -178q-24 -151 -112.5 -227t-225.5 -76h-10l26 168h11q43 0 66 24.5t32 81.5l41 261q10 62 -7 91t-63 29h-14l27 166h14q46 0 68 26.5t32 96.5l39 238q16 102 -45 102
q-66 0 -82 -102l-186 -1182h-207l184 1167q24 147 109 222t209 75z" />
    <glyph glyph-name="agrave" unicode="&#xe0;" horiz-adv-x="598" 
d="M539 1188h-129l-140 280h156zM561 0h-158l7 158h-7q-37 -83 -94.5 -136t-120.5 -53q-73 0 -102 78.5t-6 224.5l18 119q23 146 78 222.5t135 76.5q57 0 91 -36.5t42 -104.5h7l51 315q8 56 -3.5 80.5t-45.5 24.5q-33 0 -51 -24t-27 -81l-19 -110h-196l12 84
q25 148 103.5 223.5t203.5 75.5q126 0 182 -76.5t33 -222.5zM307 137q35 0 64 44t41 124l18 113q7 49 -7.5 76.5t-47.5 27.5q-59 0 -76 -104l-27 -174q-9 -57 -1 -82t36 -25z" />
    <glyph glyph-name="aacute" unicode="&#xe1;" horiz-adv-x="598" 
d="M551 1188h-129l110 280h156zM561 0h-158l7 158h-7q-37 -83 -94.5 -136t-120.5 -53q-73 0 -102 78.5t-6 224.5l18 119q23 146 78 222.5t135 76.5q57 0 91 -36.5t42 -104.5h7l51 315q8 56 -3.5 80.5t-45.5 24.5q-33 0 -51 -24t-27 -81l-19 -110h-196l12 84
q25 148 103.5 223.5t203.5 75.5q126 0 182 -76.5t33 -222.5zM307 137q35 0 64 44t41 124l18 113q7 49 -7.5 76.5t-47.5 27.5q-59 0 -76 -104l-27 -174q-9 -57 -1 -82t36 -25z" />
    <glyph glyph-name="acircumflex" unicode="&#xe2;" horiz-adv-x="598" 
d="M446 1188h-118l129 280h151l39 -280h-119l-8 188h-6zM561 0h-158l7 158h-7q-37 -83 -94.5 -136t-120.5 -53q-73 0 -102 78.5t-6 224.5l18 119q23 146 78 222.5t135 76.5q57 0 91 -36.5t42 -104.5h7l51 315q8 56 -3.5 80.5t-45.5 24.5q-33 0 -51 -24t-27 -81l-19 -110
h-196l12 84q25 148 103.5 223.5t203.5 75.5q126 0 182 -76.5t33 -222.5zM307 137q35 0 64 44t41 124l18 113q7 49 -7.5 76.5t-47.5 27.5q-59 0 -76 -104l-27 -174q-9 -57 -1 -82t36 -25z" />
    <glyph glyph-name="atilde" unicode="&#xe3;" horiz-adv-x="598" 
d="M715 1462l-6 -43q-39 -231 -136 -231q-55 0 -90 72l-6 10q-28 51 -55 51q-39 0 -51 -86l-6 -41h-68l6 41q39 233 137 233q48 0 86 -65l6 -10q29 -54 62 -54q37 0 49 80l8 43h64zM561 0h-158l7 158h-7q-37 -83 -94.5 -136t-120.5 -53q-73 0 -102 78.5t-6 224.5l18 119
q23 146 78 222.5t135 76.5q57 0 91 -36.5t42 -104.5h7l51 315q8 56 -3.5 80.5t-45.5 24.5q-33 0 -51 -24t-27 -81l-19 -110h-196l12 84q25 148 103.5 223.5t203.5 75.5q126 0 182 -76.5t33 -222.5zM307 137q35 0 64 44t41 124l18 113q7 49 -7.5 76.5t-47.5 27.5
q-59 0 -76 -104l-27 -174q-9 -57 -1 -82t36 -25z" />
    <glyph glyph-name="adieresis" unicode="&#xe4;" horiz-adv-x="598" 
d="M356 1231l31 194h270l-30 -194h-271zM561 0h-158l7 158h-7q-37 -83 -94.5 -136t-120.5 -53q-73 0 -102 78.5t-6 224.5l18 119q23 146 78 222.5t135 76.5q57 0 91 -36.5t42 -104.5h7l51 315q8 56 -3.5 80.5t-45.5 24.5q-33 0 -51 -24t-27 -81l-19 -110h-196l12 84
q25 148 103.5 223.5t203.5 75.5q126 0 182 -76.5t33 -222.5zM307 137q35 0 64 44t41 124l18 113q7 49 -7.5 76.5t-47.5 27.5q-59 0 -76 -104l-27 -174q-9 -57 -1 -82t36 -25z" />
    <glyph glyph-name="aring" unicode="&#xe5;" horiz-adv-x="598" 
d="M367 1303q0 72 45 119.5t120 47.5q57 0 89 -29.5t32 -88.5q0 -72 -46 -119t-122 -47q-118 0 -118 117zM446 1313q0 -53 50 -53q34 0 56 24t21 59q0 54 -51 54q-34 0 -55 -24t-21 -60zM561 0h-158l7 158h-7q-37 -83 -94.5 -136t-120.5 -53q-73 0 -102 78.5t-6 224.5
l18 119q23 146 78 222.5t135 76.5q57 0 91 -36.5t42 -104.5h7l51 315q8 56 -3.5 80.5t-45.5 24.5q-33 0 -51 -24t-27 -81l-19 -110h-196l12 84q25 148 103.5 223.5t203.5 75.5q126 0 182 -76.5t33 -222.5zM307 137q35 0 64 44t41 124l18 113q7 49 -7.5 76.5t-47.5 27.5
q-59 0 -76 -104l-27 -174q-9 -57 -1 -82t36 -25z" />
    <glyph glyph-name="ae" unicode="&#xe6;" horiz-adv-x="923" 
d="M98 391q23 146 78 222.5t135 76.5q57 0 93 -36.5t47 -104.5l51 315q8 56 -3 80.5t-44 24.5t-52 -24.5t-28 -80.5l-19 -110h-196l12 84q25 148 103.5 223.5t203.5 75.5q112 0 148 -84h4q65 84 176 84q126 0 180 -75.5t31 -223.5l-51 -328h-324l-43 -266q-9 -56 1.5 -81.5
t43.5 -25.5q34 0 53.5 25t28.5 82l29 180h196l-24 -152q-23 -149 -102 -226t-205 -77q-96 0 -149.5 48t-59.5 141h-4q-39 -82 -98 -135.5t-122 -53.5q-73 0 -102 78.5t-6 224.5zM825 864q9 57 -1 81t-44 24t-53.5 -25t-28.5 -80l-32 -211h127zM307 137q35 0 64 44t41 124
l18 113q7 49 -8 76.5t-49 27.5q-57 0 -74 -104l-27 -174q-9 -57 -1 -82t36 -25z" />
    <glyph glyph-name="ccedilla" unicode="&#xe7;" 
d="M498 864q9 57 -1 81t-44 24t-53.5 -25t-28.5 -80l-99 -620q-9 -56 1.5 -81.5t43.5 -25.5q65 0 82 107l29 180h197l-25 -152q-22 -134 -88 -209.5t-170 -89.5l-18 -69q81 0 125.5 -37.5t35.5 -97.5q-11 -66 -77.5 -110t-157.5 -44q-53 0 -125 16l14 95q37 -11 62 -11
q44 0 77.5 20t38.5 48q4 27 -27 42t-89 15l43 133q-100 14 -142.5 90t-21.5 209l88 566q25 147 104.5 223t206.5 76q124 0 179 -75.5t32 -223.5l-24 -152h-197z" />
    <glyph glyph-name="egrave" unicode="&#xe8;" 
d="M539 1188h-129l-140 280h156zM428 424h197l-25 -152q-23 -149 -102 -226t-205 -77t-181.5 77t-31.5 226l88 566q25 147 104.5 223t206.5 76q124 0 179 -75.5t32 -223.5l-51 -328h-326l-41 -266q-9 -56 1.5 -81.5t43.5 -25.5q65 0 82 107zM498 864q9 57 -1 81t-44 24
t-53.5 -25t-28.5 -80l-35 -211h129z" />
    <glyph glyph-name="eacute" unicode="&#xe9;" 
d="M549 1188h-129l110 280h156zM428 424h197l-25 -152q-23 -149 -102 -226t-205 -77t-181.5 77t-31.5 226l88 566q25 147 104.5 223t206.5 76q124 0 179 -75.5t32 -223.5l-51 -328h-326l-41 -266q-9 -56 1.5 -81.5t43.5 -25.5q65 0 82 107zM498 864q9 57 -1 81t-44 24
t-53.5 -25t-28.5 -80l-35 -211h129z" />
    <glyph glyph-name="ecircumflex" unicode="&#xea;" 
d="M444 1188h-118l129 280h151l39 -280h-119l-8 188h-6zM428 424h197l-25 -152q-23 -149 -102 -226t-205 -77t-181.5 77t-31.5 226l88 566q25 147 104.5 223t206.5 76q124 0 179 -75.5t32 -223.5l-51 -328h-326l-41 -266q-9 -56 1.5 -81.5t43.5 -25.5q65 0 82 107zM498 864
q9 57 -1 81t-44 24t-53.5 -25t-28.5 -80l-35 -211h129z" />
    <glyph glyph-name="edieresis" unicode="&#xeb;" 
d="M354 1231l31 194h270l-30 -194h-271zM428 424h197l-25 -152q-23 -149 -102 -226t-205 -77t-181.5 77t-31.5 226l88 566q25 147 104.5 223t206.5 76q124 0 179 -75.5t32 -223.5l-51 -328h-326l-41 -266q-9 -56 1.5 -81.5t43.5 -25.5q65 0 82 107zM498 864q9 57 -1 81
t-44 24t-53.5 -25t-28.5 -80l-35 -211h129z" />
    <glyph glyph-name="igrave" unicode="&#xec;" horiz-adv-x="280" 
d="M381 1188h-129l-139 280h155zM41 0l176 1106h197l-176 -1106h-197z" />
    <glyph glyph-name="iacute" unicode="&#xed;" horiz-adv-x="280" 
d="M391 1188h-129l111 280h155zM41 0l176 1106h197l-176 -1106h-197z" />
    <glyph glyph-name="icircumflex" unicode="&#xee;" horiz-adv-x="280" 
d="M287 1188h-119l129 280h152l38 -280h-118l-9 188h-6zM41 0l176 1106h197l-176 -1106h-197z" />
    <glyph glyph-name="idieresis" unicode="&#xef;" horiz-adv-x="280" 
d="M197 1231l30 194h271l-31 -194h-270zM41 0l176 1106h197l-176 -1106h-197z" />
    <glyph glyph-name="eth" unicode="&#xf0;" 
d="M373 1536q139 -40 219 -117l96 60l29 -54l-84 -51q61 -87 74.5 -221t-19.5 -330l-86 -551q-25 -149 -104 -226t-203 -77q-126 0 -182 77t-33 226l90 566q23 147 80 223t141 76q49 0 82 -27t43 -80h8q15 173 -16 268l-105 -63l-28 51l108 66q-46 76 -143 123zM498 864
q9 57 -1 81t-42 24q-34 0 -54.5 -24.5t-29.5 -80.5l-99 -620q-8 -56 2.5 -81.5t42.5 -25.5q67 0 84 111z" />
    <glyph glyph-name="ntilde" unicode="&#xf1;" horiz-adv-x="604" 
d="M727 1462l-6 -43q-39 -231 -135 -231q-55 0 -90 72l-7 10q-28 51 -55 51q-39 0 -51 -86l-6 -41h-68l6 41q39 233 138 233q48 0 86 -65l6 -10q29 -54 61 -54q37 0 49 80l9 43h63zM561 0h-196l137 862q9 57 -0.5 82t-38.5 25q-32 0 -57 -32.5t-35 -96.5l-133 -840h-197
l174 1106h160l2 -117h8q34 70 83 109t105 39q80 0 112 -77.5t9 -223.5z" />
    <glyph glyph-name="ograve" unicode="&#xf2;" 
d="M539 1188h-129l-140 280h156zM690 838l-90 -566q-23 -149 -102 -226t-205 -77t-181.5 77t-31.5 226l88 566q25 147 104.5 223t206.5 76q124 0 179 -75.5t32 -223.5zM498 864q9 57 -1 81t-44 24t-53.5 -25t-28.5 -80l-99 -620q-9 -56 1.5 -81.5t43.5 -25.5q65 0 82 107z
" />
    <glyph glyph-name="oacute" unicode="&#xf3;" 
d="M549 1188h-129l110 280h156zM690 838l-90 -566q-23 -149 -102 -226t-205 -77t-181.5 77t-31.5 226l88 566q25 147 104.5 223t206.5 76q124 0 179 -75.5t32 -223.5zM498 864q9 57 -1 81t-44 24t-53.5 -25t-28.5 -80l-99 -620q-9 -56 1.5 -81.5t43.5 -25.5q65 0 82 107z
" />
    <glyph glyph-name="ocircumflex" unicode="&#xf4;" 
d="M444 1188h-118l129 280h151l39 -280h-119l-8 188h-6zM690 838l-90 -566q-23 -149 -102 -226t-205 -77t-181.5 77t-31.5 226l88 566q25 147 104.5 223t206.5 76q124 0 179 -75.5t32 -223.5zM498 864q9 57 -1 81t-44 24t-53.5 -25t-28.5 -80l-99 -620q-9 -56 1.5 -81.5
t43.5 -25.5q65 0 82 107z" />
    <glyph glyph-name="otilde" unicode="&#xf5;" 
d="M715 1462l-6 -43q-39 -231 -136 -231q-55 0 -90 72l-6 10q-28 51 -55 51q-39 0 -51 -86l-6 -41h-68l6 41q39 233 137 233q48 0 86 -65l6 -10q29 -54 62 -54q37 0 49 80l8 43h64zM690 838l-90 -566q-23 -149 -102 -226t-205 -77t-181.5 77t-31.5 226l88 566
q25 147 104.5 223t206.5 76q124 0 179 -75.5t32 -223.5zM498 864q9 57 -1 81t-44 24t-53.5 -25t-28.5 -80l-99 -620q-9 -56 1.5 -81.5t43.5 -25.5q65 0 82 107z" />
    <glyph glyph-name="odieresis" unicode="&#xf6;" 
d="M354 1231l31 194h272l-30 -194h-273zM690 838l-90 -566q-23 -149 -102 -226t-205 -77t-181.5 77t-31.5 226l88 566q25 147 104.5 223t206.5 76q124 0 179 -75.5t32 -223.5zM498 864q9 57 -1 81t-44 24t-53.5 -25t-28.5 -80l-99 -620q-9 -56 1.5 -81.5t43.5 -25.5
q65 0 82 107z" />
    <glyph glyph-name="divide" unicode="&#xf7;" horiz-adv-x="835" 
d="M901 778l-33 -168h-260l-18 -118h-201l19 118h-254l32 168h246l21 119h198l-18 -119h268z" />
    <glyph glyph-name="oslash" unicode="&#xf8;" 
d="M690 838l-90 -566q-23 -149 -102 -226t-205 -77q-112 0 -170 64l-37 -64l-51 25l53 94q-25 74 -8 184l88 566q25 147 104.5 223t206.5 76q112 0 168 -62l35 62l51 -23l-53 -94q28 -72 10 -182zM498 864q9 57 -1 81t-44 24t-53.5 -25t-28.5 -80l-62 -387l176 311zM285 319
l-13 -75q-9 -56 1.5 -81.5t43.5 -25.5q65 0 82 107l62 387z" />
    <glyph glyph-name="ugrave" unicode="&#xf9;" horiz-adv-x="604" 
d="M424 1188h-129l-139 280h155zM217 1106h197l-138 -862q-7 -57 2.5 -82t38.5 -25q32 0 56.5 32.5t34.5 96.5l133 840h196l-174 -1106h-160l-2 117h-8q-34 -70 -83 -109t-105 -39q-80 0 -112 78t-9 225z" />
    <glyph glyph-name="uacute" unicode="&#xfa;" horiz-adv-x="604" 
d="M436 1188h-129l111 280h155zM217 1106h197l-138 -862q-7 -57 2.5 -82t38.5 -25q32 0 56.5 32.5t34.5 96.5l133 840h196l-174 -1106h-160l-2 117h-8q-34 -70 -83 -109t-105 -39q-80 0 -112 78t-9 225z" />
    <glyph glyph-name="ucircumflex" unicode="&#xfb;" horiz-adv-x="604" 
d="M332 1188h-119l129 280h152l38 -280h-118l-8 188h-7zM217 1106h197l-138 -862q-7 -57 2.5 -82t38.5 -25q32 0 56.5 32.5t34.5 96.5l133 840h196l-174 -1106h-160l-2 117h-8q-34 -70 -83 -109t-105 -39q-80 0 -112 78t-9 225z" />
    <glyph glyph-name="udieresis" unicode="&#xfc;" horiz-adv-x="604" 
d="M240 1231l30 194h273l-31 -194h-272zM217 1106h197l-138 -862q-7 -57 2.5 -82t38.5 -25q32 0 56.5 32.5t34.5 96.5l133 840h196l-174 -1106h-160l-2 117h-8q-34 -70 -83 -109t-105 -39q-80 0 -112 78t-9 225z" />
    <glyph glyph-name="yacute" unicode="&#xfd;" horiz-adv-x="577" 
d="M541 1188h-129l110 280h156zM387 -88q-20 -68 -38 -107.5t-46.5 -74.5t-71.5 -51.5t-105 -25.5t-155 -9l25 166q101 0 129 30.5t43 147.5l18 1118h207l-51 -692l-12 -133h8l29 133l168 692h206l-329 -1106z" />
    <glyph glyph-name="thorn" unicode="&#xfe;" horiz-adv-x="600" 
d="M604 270q-23 -147 -77.5 -224t-133.5 -77q-112 0 -131 146h-6l-86 -545h-197l312 1966h196l-82 -520h7q67 121 167 121q80 0 112 -77.5t9 -223.5zM330 137q56 0 73 105l99 620q9 57 -0.5 82t-38.5 25q-32 0 -57 -32.5t-35 -96.5l-90 -576q-20 -127 49 -127z" />
    <glyph glyph-name="ydieresis" unicode="&#xff;" horiz-adv-x="577" 
d="M346 1231l31 194h270l-31 -194h-270zM387 -88q-20 -68 -38 -107.5t-46.5 -74.5t-71.5 -51.5t-105 -25.5t-155 -9l25 166q101 0 129 30.5t43 147.5l18 1118h207l-51 -692l-12 -133h8l29 133l168 692h206l-329 -1106z" />
    <glyph glyph-name="Amacron" unicode="&#x100;" 
d="M754 1726l-23 -141h-369l23 141h369zM659 1434l-79 -1434h-207l33 336h-107l-76 -336h-207l375 1434h268zM336 504h84l47 489l16 148h-8z" />
    <glyph glyph-name="amacron" unicode="&#x101;" horiz-adv-x="598" 
d="M705 1399l-23 -142h-369l23 142h369zM561 0h-158l7 158h-7q-37 -83 -94.5 -136t-120.5 -53q-73 0 -102 78.5t-6 224.5l18 119q23 146 78 222.5t135 76.5q57 0 91 -36.5t42 -104.5h7l51 315q8 56 -3.5 80.5t-45.5 24.5q-33 0 -51 -24t-27 -81l-19 -110h-196l12 84
q25 148 103.5 223.5t203.5 75.5q126 0 182 -76.5t33 -222.5zM307 137q35 0 64 44t41 124l18 113q7 49 -7.5 76.5t-47.5 27.5q-59 0 -76 -104l-27 -174q-9 -57 -1 -82t36 -25z" />
    <glyph glyph-name="Abreve" unicode="&#x102;" 
d="M389 1796h119q-21 -139 53 -139q75 0 96 139h117q-24 -143 -80 -211.5t-155 -68.5q-100 0 -136 69t-14 211zM659 1434l-79 -1434h-207l33 336h-107l-76 -336h-207l375 1434h268zM336 504h84l47 489l16 148h-8z" />
    <glyph glyph-name="abreve" unicode="&#x103;" horiz-adv-x="598" 
d="M340 1468h119q-21 -139 53 -139q75 0 96 139h117q-24 -143 -80.5 -211.5t-155.5 -68.5q-100 0 -135.5 68.5t-13.5 211.5zM561 0h-158l7 158h-7q-37 -83 -94.5 -136t-120.5 -53q-73 0 -102 78.5t-6 224.5l18 119q23 146 78 222.5t135 76.5q57 0 91 -36.5t42 -104.5h7
l51 315q8 56 -3.5 80.5t-45.5 24.5q-33 0 -51 -24t-27 -81l-19 -110h-196l12 84q25 148 103.5 223.5t203.5 75.5q126 0 182 -76.5t33 -222.5zM307 137q35 0 64 44t41 124l18 113q7 49 -7.5 76.5t-47.5 27.5q-59 0 -76 -104l-27 -174q-9 -57 -1 -82t36 -25z" />
    <glyph glyph-name="Aogonek" unicode="&#x104;" 
d="M659 1434l-79 -1434h-2q-63 -3 -107.5 -40.5t-50.5 -86.5q-6 -36 14 -60t60 -24q26 0 63 12l-20 -125q-64 -18 -119 -18q-89 0 -133 43t-35 109q9 63 65 114.5t148 75.5h-90l33 336h-107l-76 -336h-207l375 1434h268zM336 504h84l47 489l16 148h-8z" />
    <glyph glyph-name="aogonek" unicode="&#x105;" horiz-adv-x="598" 
d="M561 0h-2q-63 -3 -107.5 -40.5t-50.5 -86.5q-6 -36 14 -60t60 -24q26 0 64 12l-21 -125q-65 -18 -119 -18q-89 0 -133 43t-35 109q9 63 65 114.5t148 75.5h-41l7 158h-7q-37 -83 -94.5 -136t-120.5 -53q-73 0 -102 78.5t-6 224.5l18 119q23 146 78 222.5t135 76.5
q57 0 91 -36.5t42 -104.5h7l51 315q8 56 -3.5 80.5t-45.5 24.5q-33 0 -51 -24t-27 -81l-19 -110h-196l12 84q25 148 103.5 223.5t203.5 75.5q126 0 182 -76.5t33 -222.5zM307 137q35 0 64 44t41 124l18 113q7 49 -7.5 76.5t-47.5 27.5q-59 0 -76 -104l-27 -174
q-9 -57 -1 -82t36 -25z" />
    <glyph glyph-name="Cacute" unicode="&#x106;" horiz-adv-x="630" 
d="M621 1516h-129l110 280h156zM571 1192q8 56 -3 80t-46 24q-70 0 -84 -104l-151 -948q-8 -56 3.5 -81.5t45.5 -25.5q70 0 84 107l45 278h207l-39 -250q-24 -151 -109 -227t-213 -76q-129 0 -190 76t-37 227l141 893q24 149 108.5 224t213.5 75q130 0 190.5 -74.5
t36.5 -224.5l-39 -252h-209z" />
    <glyph glyph-name="cacute" unicode="&#x107;" 
d="M547 1188h-129l110 280h156zM498 864q9 57 -1 81t-44 24t-53.5 -25t-28.5 -80l-99 -620q-9 -56 1.5 -81.5t43.5 -25.5q65 0 82 107l29 180h197l-25 -152q-23 -149 -102 -226t-205 -77t-181.5 77t-31.5 226l88 566q25 147 104.5 223t206.5 76q124 0 179 -75.5t32 -223.5
l-24 -152h-197z" />
    <glyph glyph-name="Ccircumflex" unicode="&#x108;" horiz-adv-x="630" 
d="M516 1516h-119l129 280h152l39 -280h-119l-8 188h-6zM571 1192q8 56 -3 80t-46 24q-70 0 -84 -104l-151 -948q-8 -56 3.5 -81.5t45.5 -25.5q70 0 84 107l45 278h207l-39 -250q-24 -151 -109 -227t-213 -76q-129 0 -190 76t-37 227l141 893q24 149 108.5 224t213.5 75
q130 0 190.5 -74.5t36.5 -224.5l-39 -252h-209z" />
    <glyph glyph-name="ccircumflex" unicode="&#x109;" 
d="M442 1188h-118l129 280h151l39 -280h-119l-8 188h-6zM498 864q9 57 -1 81t-44 24t-53.5 -25t-28.5 -80l-99 -620q-9 -56 1.5 -81.5t43.5 -25.5q65 0 82 107l29 180h197l-25 -152q-23 -149 -102 -226t-205 -77t-181.5 77t-31.5 226l88 566q25 147 104.5 223t206.5 76
q124 0 179 -75.5t32 -223.5l-24 -152h-197z" />
    <glyph glyph-name="Cdotaccent" unicode="&#x10a;" horiz-adv-x="630" 
d="M477 1559l31 194h176l-31 -194h-176zM571 1192q8 56 -3 80t-46 24q-70 0 -84 -104l-151 -948q-8 -56 3.5 -81.5t45.5 -25.5q70 0 84 107l45 278h207l-39 -250q-24 -151 -109 -227t-213 -76q-129 0 -190 76t-37 227l141 893q24 149 108.5 224t213.5 75q130 0 190.5 -74.5
t36.5 -224.5l-39 -252h-209z" />
    <glyph glyph-name="cdotaccent" unicode="&#x10b;" 
d="M403 1231l31 194h176l-30 -194h-177zM498 864q9 57 -1 81t-44 24t-53.5 -25t-28.5 -80l-99 -620q-9 -56 1.5 -81.5t43.5 -25.5q65 0 82 107l29 180h197l-25 -152q-23 -149 -102 -226t-205 -77t-181.5 77t-31.5 226l88 566q25 147 104.5 223t206.5 76q124 0 179 -75.5
t32 -223.5l-24 -152h-197z" />
    <glyph glyph-name="Ccaron" unicode="&#x10c;" horiz-adv-x="630" 
d="M643 1796h119l-131 -280h-150l-41 280h119l8 -188h6zM571 1192q8 56 -3 80t-46 24q-70 0 -84 -104l-151 -948q-8 -56 3.5 -81.5t45.5 -25.5q70 0 84 107l45 278h207l-39 -250q-24 -151 -109 -227t-213 -76q-129 0 -190 76t-37 227l141 893q24 149 108.5 224t213.5 75
q130 0 190.5 -74.5t36.5 -224.5l-39 -252h-209z" />
    <glyph glyph-name="ccaron" unicode="&#x10d;" 
d="M569 1468h119l-131 -280h-149l-41 280h118l9 -188h6zM498 864q9 57 -1 81t-44 24t-53.5 -25t-28.5 -80l-99 -620q-9 -56 1.5 -81.5t43.5 -25.5q65 0 82 107l29 180h197l-25 -152q-23 -149 -102 -226t-205 -77t-181.5 77t-31.5 226l88 566q25 147 104.5 223t206.5 76
q124 0 179 -75.5t32 -223.5l-24 -152h-197z" />
    <glyph glyph-name="Dcaron" unicode="&#x10e;" horiz-adv-x="634" 
d="M612 1796h119l-131 -280h-149l-41 280h118l9 -188h6zM772 1135l-131 -832q-24 -151 -112.5 -227t-225.5 -76h-258l227 1434h258q136 0 201 -74.5t41 -224.5zM569 1161q9 55 -6 80t-57 25h-53l-174 -1098h49q44 0 68.5 25t31.5 81z" />
    <glyph glyph-name="dcaron" unicode="&#x10f;" horiz-adv-x="600" 
d="M772 1174l92 362h137l-147 -362h-82zM170 838q23 146 78 222.5t135 76.5q55 0 88 -37.5t41 -108.5h6l86 545h199l-244 -1536h-160l-2 117h-6q-34 -71 -83.5 -109.5t-106.5 -38.5q-80 0 -112 78t-9 225zM311 137q71 0 92 129l93 576q17 127 -50 127q-58 0 -75 -105
l-99 -620q-8 -58 1 -82.5t38 -24.5z" />
    <glyph glyph-name="Dcroat" unicode="&#x110;" horiz-adv-x="634" 
d="M772 1135l-131 -832q-24 -151 -112.5 -227t-225.5 -76h-258l102 645h-49l21 135h49l104 654h258q136 0 201 -74.5t41 -224.5zM569 1161q9 55 -6 80t-57 25h-53l-78 -486h67l-22 -135h-66l-75 -477h49q44 0 68.5 25t31.5 81z" />
    <glyph glyph-name="dcroat" unicode="&#x111;" horiz-adv-x="600" 
d="M170 838q23 146 78 222.5t135 76.5q55 0 88 -37.5t41 -108.5h6l37 226h-117l23 135h114l29 184h199l-31 -184h62l-21 -135h-61l-193 -1217h-160l-2 117h-6q-34 -71 -83.5 -109.5t-106.5 -38.5q-80 0 -112 78t-9 225zM311 137q71 0 92 129l93 576q17 127 -50 127
q-58 0 -75 -105l-99 -620q-8 -58 1 -82.5t38 -24.5z" />
    <glyph glyph-name="Emacron" unicode="&#x112;" horiz-adv-x="473" 
d="M694 1726l-22 -141h-369l23 141h368zM659 1434l-26 -168h-180l-74 -467h168l-27 -168h-168l-73 -463h198l-26 -168h-406l227 1434h387z" />
    <glyph glyph-name="emacron" unicode="&#x113;" 
d="M702 1399l-22 -142h-369l23 142h368zM428 424h197l-25 -152q-23 -149 -102 -226t-205 -77t-181.5 77t-31.5 226l88 566q25 147 104.5 223t206.5 76q124 0 179 -75.5t32 -223.5l-51 -328h-326l-41 -266q-9 -56 1.5 -81.5t43.5 -25.5q65 0 82 107zM498 864q9 57 -1 81
t-44 24t-53.5 -25t-28.5 -80l-35 -211h129z" />
    <glyph glyph-name="Ebreve" unicode="&#x114;" horiz-adv-x="473" 
d="M330 1796h119q-21 -139 53 -139q75 0 96 139h117q-24 -143 -80.5 -211.5t-155.5 -68.5q-100 0 -135.5 68.5t-13.5 211.5zM659 1434l-26 -168h-180l-74 -467h168l-27 -168h-168l-73 -463h198l-26 -168h-406l227 1434h387z" />
    <glyph glyph-name="ebreve" unicode="&#x115;" 
d="M338 1468h119q-21 -139 53 -139q75 0 96 139h117q-24 -143 -80.5 -211.5t-155.5 -68.5q-100 0 -135.5 68.5t-13.5 211.5zM428 424h197l-25 -152q-23 -149 -102 -226t-205 -77t-181.5 77t-31.5 226l88 566q25 147 104.5 223t206.5 76q124 0 179 -75.5t32 -223.5l-51 -328
h-326l-41 -266q-9 -56 1.5 -81.5t43.5 -25.5q65 0 82 107zM498 864q9 57 -1 81t-44 24t-53.5 -25t-28.5 -80l-35 -211h129z" />
    <glyph glyph-name="Edotaccent" unicode="&#x116;" horiz-adv-x="473" 
d="M397 1559l31 194h176l-31 -194h-176zM659 1434l-26 -168h-180l-74 -467h168l-27 -168h-168l-73 -463h198l-26 -168h-406l227 1434h387z" />
    <glyph glyph-name="edotaccent" unicode="&#x117;" 
d="M406 1231l30 194h176l-30 -194h-176zM428 424h197l-25 -152q-23 -149 -102 -226t-205 -77t-181.5 77t-31.5 226l88 566q25 147 104.5 223t206.5 76q124 0 179 -75.5t32 -223.5l-51 -328h-326l-41 -266q-9 -56 1.5 -81.5t43.5 -25.5q65 0 82 107zM498 864q9 57 -1 81
t-44 24t-53.5 -25t-28.5 -80l-35 -211h129z" />
    <glyph glyph-name="Eogonek" unicode="&#x118;" horiz-adv-x="473" 
d="M659 1434l-26 -168h-180l-74 -467h168l-27 -168h-168l-73 -463h198l-26 -168h-2q-63 -3 -107.5 -40.5t-50.5 -86.5q-6 -36 14 -60t60 -24q25 0 63 12l-20 -125q-64 -18 -119 -18q-89 0 -133 43t-35 109q9 63 65 114.5t148 75.5h-289l227 1434h387z" />
    <glyph glyph-name="eogonek" unicode="&#x119;" 
d="M436 -199l-18 -125q-67 -18 -121 -18q-81 0 -124.5 36t-43.5 95q0 117 141 180q-114 8 -163.5 85t-26.5 218l88 566q25 147 104.5 223t206.5 76q124 0 179 -75.5t32 -223.5l-51 -328h-326l-41 -266q-9 -56 1.5 -81.5t43.5 -25.5q65 0 82 107l29 180h197l-25 -152
q-37 -241 -219 -292q-36 -18 -59 -48.5t-23 -66.5q0 -35 21.5 -55.5t54.5 -20.5q27 0 61 12zM498 864q9 57 -1 81t-44 24t-53.5 -25t-28.5 -80l-35 -211h129z" />
    <glyph glyph-name="Ecaron" unicode="&#x11a;" horiz-adv-x="473" 
d="M563 1796h119l-131 -280h-150l-41 280h119l8 -188h7zM659 1434l-26 -168h-180l-74 -467h168l-27 -168h-168l-73 -463h198l-26 -168h-406l227 1434h387z" />
    <glyph glyph-name="ecaron" unicode="&#x11b;" 
d="M571 1468h119l-131 -280h-149l-41 280h118l9 -188h6zM428 424h197l-25 -152q-23 -149 -102 -226t-205 -77t-181.5 77t-31.5 226l88 566q25 147 104.5 223t206.5 76q124 0 179 -75.5t32 -223.5l-51 -328h-326l-41 -266q-9 -56 1.5 -81.5t43.5 -25.5q65 0 82 107zM498 864
q9 57 -1 81t-44 24t-53.5 -25t-28.5 -80l-35 -211h129z" />
    <glyph glyph-name="Gcircumflex" unicode="&#x11c;" horiz-adv-x="630" 
d="M516 1516h-119l129 280h152l39 -280h-119l-8 188h-6zM571 1192q9 57 -2.5 80.5t-46.5 23.5q-36 0 -55.5 -24t-28.5 -80l-151 -948q-8 -56 3.5 -81.5t43.5 -25.5q36 0 61 31t35 90l49 315h-86l27 168h287l-117 -741h-184l8 129h-6q-19 -70 -71.5 -115t-123.5 -45
q-89 0 -120.5 74.5t-8.5 228.5l141 893q24 149 108.5 224t213.5 75q130 0 190.5 -74.5t36.5 -224.5l-39 -252h-209z" />
    <glyph glyph-name="gcircumflex" unicode="&#x11d;" 
d="M469 1331h-119l129 281h152l39 -281h-119l-8 189h-6zM690 838l-65 -422q-25 -148 -104 -225.5t-206 -77.5h-57q-47 0 -53 -39q-3 -19 6.5 -28t32.5 -9h129q89 0 133 -46.5t29 -135.5q-30 -197 -291 -197h-21q-115 0 -172.5 35t-46.5 98q8 46 49.5 70t124.5 28l2 9
q-74 2 -108 30t-27 80q8 50 47.5 84t102.5 43v6q-128 61 -93 275l68 422q20 133 87 209.5t169 87.5q43 4 61 18t23 43l12 82h170l-10 -49q-7 -44 -35.5 -67.5t-103.5 -24.5l-2 -9q94 -15 131.5 -88.5t17.5 -201.5zM498 864q9 56 -1.5 80.5t-43.5 24.5q-34 0 -53.5 -25
t-28.5 -80l-76 -477q-9 -56 2 -81t45 -25t52.5 24.5t27.5 81.5zM250 -104q-66 0 -72 -50q-5 -23 9 -35t46 -12h74q64 0 70 47q5 25 -9 37.5t-46 12.5h-72z" />
    <glyph glyph-name="Gbreve" unicode="&#x11e;" horiz-adv-x="630" 
d="M410 1796h118q-21 -139 54 -139t96 139h117q-24 -143 -80.5 -211.5t-155.5 -68.5q-100 0 -135.5 68.5t-13.5 211.5zM571 1192q9 57 -2.5 80.5t-46.5 23.5q-36 0 -55.5 -24t-28.5 -80l-151 -948q-8 -56 3.5 -81.5t43.5 -25.5q36 0 61 31t35 90l49 315h-86l27 168h287
l-117 -741h-184l8 129h-6q-19 -70 -71.5 -115t-123.5 -45q-89 0 -120.5 74.5t-8.5 228.5l141 893q24 149 108.5 224t213.5 75q130 0 190.5 -74.5t36.5 -224.5l-39 -252h-209z" />
    <glyph glyph-name="gbreve" unicode="&#x11f;" 
d="M362 1612h119q-21 -139 54 -139t96 139h117q-24 -143 -80.5 -212t-155.5 -69q-100 0 -136 69t-14 212zM690 838l-65 -422q-25 -148 -104 -225.5t-206 -77.5h-57q-47 0 -53 -39q-3 -19 6.5 -28t32.5 -9h129q89 0 133 -46.5t29 -135.5q-30 -197 -291 -197h-21
q-115 0 -172.5 35t-46.5 98q8 46 49.5 70t124.5 28l2 9q-74 2 -108 30t-27 80q8 50 47.5 84t102.5 43v6q-128 61 -93 275l68 422q20 133 87 209.5t169 87.5q43 4 61 18t23 43l12 82h170l-10 -49q-7 -44 -35.5 -67.5t-103.5 -24.5l-2 -9q94 -15 131.5 -88.5t17.5 -201.5z
M498 864q9 56 -1.5 80.5t-43.5 24.5q-34 0 -53.5 -25t-28.5 -80l-76 -477q-9 -56 2 -81t45 -25t52.5 24.5t27.5 81.5zM250 -104q-66 0 -72 -50q-5 -23 9 -35t46 -12h74q64 0 70 47q5 25 -9 37.5t-46 12.5h-72z" />
    <glyph glyph-name="Gdotaccent" unicode="&#x120;" horiz-adv-x="630" 
d="M477 1559l31 194h176l-31 -194h-176zM571 1192q9 57 -2.5 80.5t-46.5 23.5q-36 0 -55.5 -24t-28.5 -80l-151 -948q-8 -56 3.5 -81.5t43.5 -25.5q36 0 61 31t35 90l49 315h-86l27 168h287l-117 -741h-184l8 129h-6q-19 -70 -71.5 -115t-123.5 -45q-89 0 -120.5 74.5
t-8.5 228.5l141 893q24 149 108.5 224t213.5 75q130 0 190.5 -74.5t36.5 -224.5l-39 -252h-209z" />
    <glyph glyph-name="gdotaccent" unicode="&#x121;" 
d="M432 1374l31 195h176l-31 -195h-176zM690 838l-65 -422q-25 -148 -104 -225.5t-206 -77.5h-57q-47 0 -53 -39q-3 -19 6.5 -28t32.5 -9h129q89 0 133 -46.5t29 -135.5q-30 -197 -291 -197h-21q-115 0 -172.5 35t-46.5 98q8 46 49.5 70t124.5 28l2 9q-74 2 -108 30t-27 80
q8 50 47.5 84t102.5 43v6q-128 61 -93 275l68 422q20 133 87 209.5t169 87.5q43 4 61 18t23 43l12 82h170l-10 -49q-7 -44 -35.5 -67.5t-103.5 -24.5l-2 -9q94 -15 131.5 -88.5t17.5 -201.5zM498 864q9 56 -1.5 80.5t-43.5 24.5q-34 0 -53.5 -25t-28.5 -80l-76 -477
q-9 -56 2 -81t45 -25t52.5 24.5t27.5 81.5zM250 -104q-66 0 -72 -50q-5 -23 9 -35t46 -12h74q64 0 70 47q5 25 -9 37.5t-46 12.5h-72z" />
    <glyph glyph-name="uni0122" unicode="&#x122;" horiz-adv-x="630" 
d="M571 1192q9 57 -2.5 80.5t-46.5 23.5q-36 0 -55.5 -24t-28.5 -80l-151 -948q-8 -56 3.5 -81.5t43.5 -25.5q36 0 61 31t35 90l49 315h-86l27 168h287l-117 -741h-184l8 129h-6q-19 -70 -71.5 -115t-123.5 -45q-89 0 -120.5 74.5t-8.5 228.5l141 893q24 149 108.5 224
t213.5 75q130 0 190.5 -74.5t36.5 -224.5l-39 -252h-209zM391 -61l-26 -170q-10 -67 -56.5 -103.5t-118.5 -36.5l13 70q69 0 78 72l4 18h-68l23 150h151z" />
    <glyph glyph-name="uni0123" unicode="&#x123;" 
d="M414 1317l28 178q12 71 61 109t126 38l-11 -75q-74 0 -86 -74l-2 -16h72l-24 -160h-164zM690 838l-65 -422q-25 -148 -104 -225.5t-206 -77.5h-57q-47 0 -53 -39q-3 -19 6.5 -28t32.5 -9h129q89 0 133 -46.5t29 -135.5q-30 -197 -291 -197h-21q-115 0 -172.5 35t-46.5 98
q8 46 49.5 70t124.5 28l2 9q-74 2 -108 30t-27 80q8 50 47.5 84t102.5 43v6q-128 61 -93 275l68 422q20 133 87 209.5t169 87.5q43 4 61 18t23 43l12 82h170l-10 -49q-7 -44 -35.5 -67.5t-103.5 -24.5l-2 -9q94 -15 131.5 -88.5t17.5 -201.5zM498 864q9 56 -1.5 80.5
t-43.5 24.5q-34 0 -53.5 -25t-28.5 -80l-76 -477q-9 -56 2 -81t45 -25t52.5 24.5t27.5 81.5zM250 -104q-66 0 -72 -50q-5 -23 9 -35t46 -12h74q64 0 70 47q5 25 -9 37.5t-46 12.5h-72z" />
    <glyph glyph-name="Hcircumflex" unicode="&#x124;" horiz-adv-x="628" 
d="M514 1516h-119l129 280h152l39 -280h-119l-8 188h-6zM811 1434l-225 -1434h-209l100 631h-125l-100 -631h-207l227 1434h207l-100 -635h125l100 635h207z" />
    <glyph glyph-name="hcircumflex" unicode="&#x125;" horiz-adv-x="604" 
d="M350 1597h-119l129 281h152l39 -281h-119l-8 189h-6zM563 0h-196l135 862q9 57 0 82t-37 25q-34 0 -58.5 -32.5t-33.5 -96.5l-133 -840h-199l244 1536h196l-82 -520h7q70 121 169 121q79 0 111 -77.5t8 -223.5z" />
    <glyph glyph-name="Hbar" unicode="&#x126;" horiz-adv-x="628" 
d="M772 1726l-22 -141h-369l22 141h369zM811 1434l-225 -1434h-209l100 631h-125l-100 -631h-207l227 1434h207l-100 -635h125l100 635h207z" />
    <glyph glyph-name="hbar" unicode="&#x127;" horiz-adv-x="604" 
d="M563 0h-196l135 862q9 57 0 82t-37 25q-34 0 -58.5 -32.5t-33.5 -96.5l-133 -840h-199l192 1217h-61l23 135h61l29 184h196l-28 -184h114l-20 -135h-115l-33 -201h7q70 121 169 121q79 0 111 -77.5t8 -223.5z" />
    <glyph glyph-name="Itilde" unicode="&#x128;" horiz-adv-x="296" 
d="M616 1790l-6 -43q-39 -231 -135 -231q-55 0 -90 71l-6 10q-28 52 -55 52q-40 0 -52 -86l-6 -41h-67l6 41q39 233 137 233q48 0 86 -65l6 -11q29 -53 62 -53q37 0 49 80l8 43h63zM479 1434l-227 -1434h-207l227 1434h207z" />
    <glyph glyph-name="itilde" unicode="&#x129;" horiz-adv-x="280" 
d="M555 1462l-6 -43q-39 -231 -135 -231q-55 0 -90 72l-7 10q-28 51 -55 51q-39 0 -51 -86l-6 -41h-68l6 41q39 233 138 233q48 0 86 -65l6 -10q29 -54 61 -54q37 0 49 80l9 43h63zM41 0l176 1106h197l-176 -1106h-197z" />
    <glyph glyph-name="Imacron" unicode="&#x12a;" horiz-adv-x="296" 
d="M606 1726l-22 -141h-369l23 141h368zM479 1434l-227 -1434h-207l227 1434h207z" />
    <glyph glyph-name="imacron" unicode="&#x12b;" horiz-adv-x="280" 
d="M545 1399l-23 -142h-368l22 142h369zM41 0l176 1106h197l-176 -1106h-197z" />
    <glyph glyph-name="Ibreve" unicode="&#x12c;" horiz-adv-x="296" 
d="M242 1796h118q-21 -139 54 -139t96 139h117q-24 -143 -80.5 -211.5t-155.5 -68.5q-100 0 -135.5 68.5t-13.5 211.5zM479 1434l-227 -1434h-207l227 1434h207z" />
    <glyph glyph-name="ibreve" unicode="&#x12d;" horiz-adv-x="280" 
d="M180 1468h119q-21 -139 53 -139q76 0 97 139h116q-24 -143 -80 -211.5t-155 -68.5q-100 0 -136 69t-14 211zM41 0l176 1106h197l-176 -1106h-197z" />
    <glyph glyph-name="Iogonek" unicode="&#x12e;" horiz-adv-x="296" 
d="M479 1434l-225 -1420l-2 -14q-63 -3 -107.5 -40.5t-50.5 -86.5q-6 -36 14 -60t60 -24q26 0 63 12l-20 -125q-64 -18 -119 -18q-89 0 -133 43t-35 109q9 63 65 114.5t148 75.5h-92l227 1434h207z" />
    <glyph glyph-name="iogonek" unicode="&#x12f;" horiz-adv-x="280" 
d="M225 1163l39 240h197l-39 -240h-197zM41 0l176 1106h197l-172 -1092l-2 -14q-63 -3 -107.5 -40.5t-50.5 -86.5q-6 -36 14 -60t60 -24q26 0 63 12l-20 -125q-65 -18 -119 -18q-89 0 -133 43t-35 109q9 63 65 114.5t148 75.5h-84z" />
    <glyph glyph-name="Idotaccent" unicode="&#x130;" horiz-adv-x="296" 
d="M309 1559l31 194h176l-31 -194h-176zM479 1434l-227 -1434h-207l227 1434h207z" />
    <glyph glyph-name="dotlessi" unicode="&#x131;" horiz-adv-x="280" 
d="M41 0l176 1106h197l-176 -1106h-197z" />
    <glyph glyph-name="IJ" unicode="&#x132;" horiz-adv-x="915" 
d="M479 1434l-227 -1434h-207l227 1434h207zM1102 1434l-184 -1162q-24 -151 -109 -227t-213 -76t-188.5 76t-36.5 227l39 250h206l-43 -278q-9 -57 2.5 -82t45.5 -25q69 0 86 107l188 1190h207z" />
    <glyph glyph-name="ij" unicode="&#x133;" horiz-adv-x="550" 
d="M225 1163l39 240h197l-39 -240h-197zM731 1403l-37 -240h-196l37 240h196zM41 0l176 1106h197l-174 -1106h-199zM684 1106l-197 -1241q-8 -53 -17.5 -88t-27.5 -61.5t-38 -40t-57 -22.5t-77 -11t-106 -2l26 165q66 0 81 12t24 68l192 1221h197z" />
    <glyph glyph-name="Jcircumflex" unicode="&#x134;" horiz-adv-x="618" 
d="M676 1516h-119l129 280h152l39 -280h-119l-8 188h-7zM805 1434l-184 -1162q-24 -151 -109 -227t-213 -76t-188.5 76t-36.5 227l39 250h206l-43 -278q-9 -57 2.5 -82t45.5 -25q69 0 86 107l188 1190h207z" />
    <glyph glyph-name="jcircumflex" unicode="&#x135;" horiz-adv-x="272" 
d="M279 1188h-119l129 280h151l39 -280h-119l-8 188h-6zM406 1106l-197 -1239q-9 -53 -18.5 -88t-27.5 -61.5t-38 -41t-57 -23t-77.5 -11t-105.5 -2.5l27 167q66 0 80.5 12t23.5 68l193 1219h197z" />
    <glyph glyph-name="uni0136" unicode="&#x136;" horiz-adv-x="634" 
d="M831 1434l-260 -596l41 -838h-206l-15 647h-8l-43 -86l-88 -561h-207l227 1434h207l-59 -379l-64 -271l6 -2l261 652h208zM410 -61l-27 -170q-10 -67 -56 -103.5t-118 -36.5l12 70q69 0 78 72l4 18h-67l22 150h152z" />
    <glyph glyph-name="uni0137" unicode="&#x137;" horiz-adv-x="614" 
d="M766 1106l-238 -457v-2l72 -647h-209l-37 500h-8l-39 -68l-67 -432h-199l244 1536h196l-112 -721l-56 -209l9 -2l235 502h209zM393 -61l-26 -170q-10 -67 -56 -103.5t-118 -36.5l12 70q69 0 78 72l4 18h-68l23 150h151z" />
    <glyph glyph-name="kgreenlandic" unicode="&#x138;" horiz-adv-x="614" 
d="M766 1106l-238 -457v-2l72 -647h-209l-37 500h-8l-39 -68l-67 -432h-199l176 1106h197l-45 -291l-56 -209l9 -2l235 502h209z" />
    <glyph glyph-name="Lacute" unicode="&#x139;" horiz-adv-x="458" 
d="M449 1516h-130l111 280h156zM272 1434h207l-200 -1266h178l-27 -168h-385z" />
    <glyph glyph-name="lacute" unicode="&#x13a;" horiz-adv-x="280" 
d="M455 1597h-129l110 281h156zM41 0l244 1536h196l-243 -1536h-197z" />
    <glyph glyph-name="uni013B" unicode="&#x13b;" horiz-adv-x="458" 
d="M272 1434h207l-200 -1266h178l-27 -168h-385zM313 -61l-26 -170q-10 -67 -56 -103.5t-118 -36.5l12 70q69 0 78 72l4 18h-68l23 150h151z" />
    <glyph glyph-name="uni013C" unicode="&#x13c;" horiz-adv-x="280" 
d="M41 0l244 1536h196l-243 -1536h-197zM219 -41l-26 -170q-10 -67 -56 -103t-119 -36l13 69q69 0 78 72l4 19h-68l23 149h151z" />
    <glyph glyph-name="Lcaron" unicode="&#x13d;" horiz-adv-x="458" 
d="M489 1071l93 363h137l-148 -363h-82zM272 1434h207l-200 -1266h178l-27 -168h-385z" />
    <glyph glyph-name="lcaron" unicode="&#x13e;" horiz-adv-x="280" 
d="M465 1174l92 362h137l-147 -362h-82zM41 0l244 1536h196l-243 -1536h-197z" />
    <glyph glyph-name="Ldot" unicode="&#x13f;" horiz-adv-x="458" 
d="M272 1434h207l-200 -1266h178l-27 -168h-385zM432 623l31 194h176l-31 -194h-176z" />
    <glyph glyph-name="ldot" unicode="&#x140;" horiz-adv-x="280" 
d="M41 0l244 1536h196l-243 -1536h-197zM428 668l31 194h176l-31 -194h-176z" />
    <glyph glyph-name="Lslash" unicode="&#x141;" horiz-adv-x="458" 
d="M272 1434h207l-96 -600l63 24l31 -127l-117 -47l-81 -516h178l-27 -168h-385l94 596l-55 -21l-31 127l109 43z" />
    <glyph glyph-name="lslash" unicode="&#x142;" horiz-adv-x="280" 
d="M41 0l102 643l-32 -12l-31 127l86 35l119 743h196l-104 -662l35 15l28 -127l-86 -35l-116 -727h-197z" />
    <glyph glyph-name="Nacute" unicode="&#x143;" horiz-adv-x="675" 
d="M657 1516h-129l111 280h156zM858 1434l-227 -1434h-250l-4 946l-2 148h-8l-115 -1094h-207l227 1434h250l8 -1063l9 2l14 147l98 914h207z" />
    <glyph glyph-name="nacute" unicode="&#x144;" horiz-adv-x="604" 
d="M563 1188h-129l111 280h155zM561 0h-196l137 862q9 57 -0.5 82t-38.5 25q-32 0 -57 -32.5t-35 -96.5l-133 -840h-197l174 1106h160l2 -117h8q34 70 83 109t105 39q80 0 112 -77.5t9 -223.5z" />
    <glyph glyph-name="uni0145" unicode="&#x145;" horiz-adv-x="675" 
d="M858 1434l-227 -1434h-250l-4 946l-2 148h-8l-115 -1094h-207l227 1434h250l8 -1063l9 2l14 147l98 914h207zM395 -61l-26 -170q-10 -67 -56 -103.5t-118 -36.5l12 70q69 0 78 72l4 18h-68l23 150h151z" />
    <glyph glyph-name="uni0146" unicode="&#x146;" horiz-adv-x="604" 
d="M561 0h-196l137 862q9 57 -0.5 82t-38.5 25q-32 0 -57 -32.5t-35 -96.5l-133 -840h-197l174 1106h160l2 -117h8q34 70 83 109t105 39q80 0 112 -77.5t9 -223.5zM379 -61l-27 -170q-10 -67 -56 -103.5t-118 -36.5l12 70q69 0 78 72l4 18h-67l22 150h152z" />
    <glyph glyph-name="Ncaron" unicode="&#x147;" horiz-adv-x="675" 
d="M680 1796h119l-131 -280h-150l-41 280h119l8 -188h6zM858 1434l-227 -1434h-250l-4 946l-2 148h-8l-115 -1094h-207l227 1434h250l8 -1063l9 2l14 147l98 914h207z" />
    <glyph glyph-name="ncaron" unicode="&#x148;" horiz-adv-x="604" 
d="M586 1468h119l-132 -280h-149l-41 280h119l8 -188h6zM561 0h-196l137 862q9 57 -0.5 82t-38.5 25q-32 0 -57 -32.5t-35 -96.5l-133 -840h-197l174 1106h160l2 -117h8q34 70 83 109t105 39q80 0 112 -77.5t9 -223.5z" />
    <glyph glyph-name="napostrophe" unicode="&#x149;" horiz-adv-x="1085" 
d="M57 0l228 1434h970l-227 -1434h-971zM432 1331l238 -530l405 530h-643zM709 717l243 -547l174 1094zM360 1264l-174 -1094l420 547zM643 633l-405 -531h643z" />
    <glyph glyph-name="Eng" unicode="&#x14a;" horiz-adv-x="675" 
d="M858 1434l-235 -1485q-9 -53 -19.5 -88.5t-30 -62t-41.5 -41t-62 -23t-83.5 -11t-112.5 -2.5l27 168q48 0 59 12t19 66l6 33l-10 946v148h-10l-13 -148l-100 -946h-207l227 1434h250l8 -1063l11 2l10 147l100 914h207z" />
    <glyph glyph-name="eng" unicode="&#x14b;" horiz-adv-x="604" 
d="M229 -279l27 168q37 0 54 1.5t28.5 12t14.5 22.5t7 44l142 893q9 57 -0.5 82t-38.5 25q-33 0 -57 -32.5t-33 -96.5l-133 -840h-199l176 1106h158l4 -117h6q34 71 83.5 109.5t106.5 38.5q79 0 111 -77.5t8 -223.5l-139 -887q-10 -64 -24 -103t-34.5 -65.5t-59 -38.5
t-84 -16.5t-124.5 -4.5z" />
    <glyph glyph-name="Omacron" unicode="&#x14c;" horiz-adv-x="630" 
d="M774 1726l-22 -141h-369l23 141h368zM774 1165l-141 -893q-24 -149 -107.5 -226t-214.5 -77t-190.5 77t-36.5 226l141 893q23 146 107.5 222.5t216.5 76.5q131 0 189.5 -76t35.5 -223zM571 1192q8 56 -3 80t-46 24q-36 0 -56.5 -24.5t-27.5 -79.5l-151 -948
q-9 -56 2.5 -81.5t46.5 -25.5q34 0 54.5 25.5t29.5 81.5z" />
    <glyph glyph-name="omacron" unicode="&#x14d;" 
d="M705 1399l-23 -142h-369l23 142h369zM690 838l-90 -566q-23 -149 -102 -226t-205 -77t-181.5 77t-31.5 226l88 566q25 147 104.5 223t206.5 76q124 0 179 -75.5t32 -223.5zM498 864q9 57 -1 81t-44 24t-53.5 -25t-28.5 -80l-99 -620q-9 -56 1.5 -81.5t43.5 -25.5
q65 0 82 107z" />
    <glyph glyph-name="Obreve" unicode="&#x14e;" horiz-adv-x="630" 
d="M410 1796h118q-21 -139 54 -139t96 139h117q-24 -143 -80.5 -211.5t-155.5 -68.5q-100 0 -135.5 68.5t-13.5 211.5zM774 1165l-141 -893q-24 -149 -107.5 -226t-214.5 -77t-190.5 77t-36.5 226l141 893q23 146 107.5 222.5t216.5 76.5q131 0 189.5 -76t35.5 -223z
M571 1192q8 56 -3 80t-46 24q-36 0 -56.5 -24.5t-27.5 -79.5l-151 -948q-9 -56 2.5 -81.5t46.5 -25.5q34 0 54.5 25.5t29.5 81.5z" />
    <glyph glyph-name="obreve" unicode="&#x14f;" 
d="M338 1468h119q-21 -139 53 -139q75 0 96 139h117q-24 -143 -80.5 -211.5t-155.5 -68.5q-100 0 -135.5 68.5t-13.5 211.5zM690 838l-90 -566q-23 -149 -102 -226t-205 -77t-181.5 77t-31.5 226l88 566q25 147 104.5 223t206.5 76q124 0 179 -75.5t32 -223.5zM498 864
q9 57 -1 81t-44 24t-53.5 -25t-28.5 -80l-99 -620q-9 -56 1.5 -81.5t43.5 -25.5q65 0 82 107z" />
    <glyph glyph-name="Ohungarumlaut" unicode="&#x150;" horiz-adv-x="630" 
d="M498 1516h-109l103 280h131zM692 1516h-108l102 280h131zM774 1165l-141 -893q-24 -149 -107.5 -226t-214.5 -77t-190.5 77t-36.5 226l141 893q23 146 107.5 222.5t216.5 76.5q131 0 189.5 -76t35.5 -223zM571 1192q8 56 -3 80t-46 24q-36 0 -56.5 -24.5t-27.5 -79.5
l-151 -948q-9 -56 2.5 -81.5t46.5 -25.5q34 0 54.5 25.5t29.5 81.5z" />
    <glyph glyph-name="ohungarumlaut" unicode="&#x151;" 
d="M428 1188h-109l103 280h131zM623 1188h-109l102 280h132zM690 838l-90 -566q-23 -149 -102 -226t-205 -77t-181.5 77t-31.5 226l88 566q25 147 104.5 223t206.5 76q124 0 179 -75.5t32 -223.5zM498 864q9 57 -1 81t-44 24t-53.5 -25t-28.5 -80l-99 -620q-9 -56 1.5 -81.5
t43.5 -25.5q65 0 82 107z" />
    <glyph glyph-name="OE" unicode="&#x152;" horiz-adv-x="784" 
d="M545 1434h426l-27 -168h-180l-74 -467h168l-27 -168h-167l-74 -463h198l-26 -168h-447q-131 0 -190 77t-35 226l131 832q23 146 107.5 222.5t216.5 76.5zM383 168l174 1098h-39q-37 0 -57 -24.5t-29 -80.5l-139 -887q-9 -56 2.5 -81t46.5 -25h41z" />
    <glyph glyph-name="oe" unicode="&#x153;" horiz-adv-x="919" 
d="M639 510l-43 -266q-9 -56 1.5 -81.5t43.5 -25.5q34 0 53.5 25t28.5 82l29 180h196l-22 -152q-25 -149 -104.5 -226t-205.5 -77q-111 0 -147 84h-4q-60 -84 -172 -84q-126 0 -181.5 77t-31.5 226l88 566q25 147 104.5 223t206.5 76q110 0 146 -84h4q63 84 174 84
q126 0 180.5 -75.5t30.5 -223.5l-51 -328h-324zM821 864q9 57 -1 81t-44 24t-53.5 -25t-28.5 -80l-32 -211h126zM498 864q9 57 -1 81t-44 24t-53.5 -25t-28.5 -80l-99 -620q-9 -56 1.5 -81.5t43.5 -25.5q65 0 82 107z" />
    <glyph glyph-name="Racute" unicode="&#x154;" horiz-adv-x="638" 
d="M610 1516h-129l111 280h156zM272 1434h258q135 0 199.5 -81t40.5 -233l-31 -198q-15 -93 -61.5 -155t-118.5 -85l-2 -8q66 -23 93 -84.5t12 -155.5l-37 -229q-17 -120 -15 -197l-2 -8h-207q0 103 17 205l45 284q17 105 -64 105h-53l-94 -594h-207zM453 1266l-80 -506h51
q43 0 66 25t32 81l47 295q9 55 -6 80t-57 25h-53z" />
    <glyph glyph-name="racute" unicode="&#x155;" horiz-adv-x="446" 
d="M477 1188h-129l111 280h155zM217 1106h170l-16 -184h4q10 52 27 88t35 54.5t49 28.5t54 11.5t64 1.5l-33 -205q-106 0 -154.5 -40t-62.5 -130l-116 -731h-197z" />
    <glyph glyph-name="uni0156" unicode="&#x156;" horiz-adv-x="638" 
d="M272 1434h258q135 0 199.5 -81t40.5 -233l-31 -198q-15 -93 -61.5 -155t-118.5 -85l-2 -8q66 -23 93 -84.5t12 -155.5l-37 -229q-17 -120 -15 -197l-2 -8h-207q0 103 17 205l45 284q17 105 -64 105h-53l-94 -594h-207zM453 1266l-80 -506h51q43 0 66 25t32 81l47 295
q9 55 -6 80t-57 25h-53zM406 -61l-27 -170q-10 -67 -56 -103.5t-118 -36.5l12 70q69 0 78 72l4 18h-68l23 150h152z" />
    <glyph glyph-name="uni0157" unicode="&#x157;" horiz-adv-x="446" 
d="M217 1106h170l-16 -184h4q10 52 27 88t35 54.5t49 28.5t54 11.5t64 1.5l-33 -205q-106 0 -154.5 -40t-62.5 -130l-116 -731h-197zM215 -61l-27 -170q-10 -67 -56 -103.5t-118 -36.5l13 70q68 0 77 72l5 18h-68l22 150h152z" />
    <glyph glyph-name="Rcaron" unicode="&#x158;" horiz-adv-x="638" 
d="M633 1796h119l-131 -280h-150l-41 280h119l8 -188h6zM272 1434h258q135 0 199.5 -81t40.5 -233l-31 -198q-15 -93 -61.5 -155t-118.5 -85l-2 -8q66 -23 93 -84.5t12 -155.5l-37 -229q-17 -120 -15 -197l-2 -8h-207q0 103 17 205l45 284q17 105 -64 105h-53l-94 -594h-207
zM453 1266l-80 -506h51q43 0 66 25t32 81l47 295q9 55 -6 80t-57 25h-53z" />
    <glyph glyph-name="rcaron" unicode="&#x159;" horiz-adv-x="446" 
d="M500 1468h118l-131 -280h-149l-41 280h119l8 -188h6zM217 1106h170l-16 -184h4q10 52 27 88t35 54.5t49 28.5t54 11.5t64 1.5l-33 -205q-106 0 -154.5 -40t-62.5 -130l-116 -731h-197z" />
    <glyph glyph-name="Sacute" unicode="&#x15a;" horiz-adv-x="634" 
d="M623 1516h-129l110 280h156zM743 975h-206l34 217q9 57 -2 80.5t-43 23.5q-35 0 -56 -24t-30 -80l-20 -137q-11 -68 14.5 -127t79.5 -133q20 -26 30 -40t28.5 -40t28.5 -45t23.5 -46.5t19.5 -52t11.5 -53.5t5 -60.5t-5.5 -64.5l-20 -121q-23 -150 -108 -226.5t-216 -76.5
t-191 76.5t-36 226.5l31 189h207l-35 -217q-9 -58 3.5 -82.5t47.5 -24.5q70 0 86 107l22 137q2 16 2.5 31.5t-2.5 32t-5.5 29.5t-10.5 30t-12.5 28.5t-15.5 29.5l-16.5 27t-19.5 28t-19.5 27t-20.5 28q-45 60 -70 103t-42 115t-5 150l20 125q24 149 107.5 224t212.5 75
q130 0 189 -75.5t36 -223.5z" />
    <glyph glyph-name="sacute" unicode="&#x15b;" 
d="M549 1188h-129l110 280h156zM674 756h-197l25 166q13 82 -43 82q-63 0 -76 -82l-16 -111q-8 -50 19.5 -99t80.5 -104q16 -17 25.5 -27t25 -28t24.5 -30.5t21 -31t18.5 -34t13.5 -35.5t10 -39t3 -42t-4 -46l-10 -66q-19 -118 -102 -189t-199 -71q-119 0 -179 71t-40 191
l18 121h197l-27 -166q-11 -82 49 -82q67 0 78 82l19 107q8 51 -26 104.5t-99 122.5q-64 68 -96.5 134t-18.5 151l10 72q20 120 101 190t198 70t175.5 -70.5t39.5 -189.5z" />
    <glyph glyph-name="Scircumflex" unicode="&#x15c;" horiz-adv-x="634" 
d="M518 1516h-119l129 280h152l39 -280h-119l-8 188h-6zM743 975h-206l34 217q9 57 -2 80.5t-43 23.5q-35 0 -56 -24t-30 -80l-20 -137q-11 -68 14.5 -127t79.5 -133q20 -26 30 -40t28.5 -40t28.5 -45t23.5 -46.5t19.5 -52t11.5 -53.5t5 -60.5t-5.5 -64.5l-20 -121
q-23 -150 -108 -226.5t-216 -76.5t-191 76.5t-36 226.5l31 189h207l-35 -217q-9 -58 3.5 -82.5t47.5 -24.5q70 0 86 107l22 137q2 16 2.5 31.5t-2.5 32t-5.5 29.5t-10.5 30t-12.5 28.5t-15.5 29.5l-16.5 27t-19.5 28t-19.5 27t-20.5 28q-45 60 -70 103t-42 115t-5 150
l20 125q24 149 107.5 224t212.5 75q130 0 189 -75.5t36 -223.5z" />
    <glyph glyph-name="scircumflex" unicode="&#x15d;" 
d="M444 1188h-118l129 280h151l39 -280h-119l-8 188h-6zM674 756h-197l25 166q13 82 -43 82q-63 0 -76 -82l-16 -111q-8 -50 19.5 -99t80.5 -104q16 -17 25.5 -27t25 -28t24.5 -30.5t21 -31t18.5 -34t13.5 -35.5t10 -39t3 -42t-4 -46l-10 -66q-19 -118 -102 -189t-199 -71
q-119 0 -179 71t-40 191l18 121h197l-27 -166q-11 -82 49 -82q67 0 78 82l19 107q8 51 -26 104.5t-99 122.5q-64 68 -96.5 134t-18.5 151l10 72q20 120 101 190t198 70t175.5 -70.5t39.5 -189.5z" />
    <glyph glyph-name="Scedilla" unicode="&#x15e;" horiz-adv-x="634" 
d="M743 975h-206l34 217q9 57 -2 80.5t-43 23.5q-35 0 -56 -24t-30 -80l-20 -137q-11 -68 14.5 -127t79.5 -133q20 -26 30 -40t28.5 -40t28.5 -45t23.5 -46.5t19.5 -52t11.5 -53.5t5 -60.5t-5.5 -64.5l-20 -121q-21 -135 -93 -211t-182 -90l-18 -67q82 0 126.5 -37.5
t35.5 -97.5q-11 -66 -78 -110t-158 -44q-53 0 -125 16l15 95q37 -11 61 -11q44 0 78 20t39 48q4 27 -27.5 42t-89.5 15l43 133q-105 12 -152 88t-26 211l31 189h207l-35 -217q-9 -58 3.5 -82.5t47.5 -24.5q70 0 86 107l22 137q2 16 2.5 31.5t-2.5 32t-5.5 29.5t-10.5 30
t-12.5 28.5t-15.5 29.5l-16.5 27t-19.5 28t-19.5 27t-20.5 28q-45 60 -70 103t-42 115t-5 150l20 125q24 149 107.5 224t212.5 75q130 0 189 -75.5t36 -223.5z" />
    <glyph glyph-name="scedilla" unicode="&#x15f;" 
d="M674 756h-197l25 166q13 82 -43 82q-63 0 -76 -82l-16 -111q-8 -50 19.5 -99t80.5 -104q16 -17 25.5 -27t25 -28t24.5 -30.5t21 -31t18.5 -34t13.5 -35.5t10 -39t3 -42t-4 -46l-10 -66q-17 -104 -85.5 -173t-166.5 -83l-18 -69q81 0 125.5 -37.5t35.5 -97.5
q-11 -66 -77.5 -110t-157.5 -44q-53 0 -125 16l14 95q37 -11 62 -11q44 0 77.5 20t38.5 48q4 27 -27 42t-89 15l43 133q-95 14 -141 83t-29 175l18 121h197l-27 -166q-11 -82 49 -82q67 0 78 82l19 107q8 51 -26 104.5t-99 122.5q-64 68 -96.5 134t-18.5 151l10 72
q20 120 101 190t198 70t175.5 -70.5t39.5 -189.5z" />
    <glyph glyph-name="Scaron" unicode="&#x160;" horiz-adv-x="634" 
d="M645 1796h119l-131 -280h-150l-41 280h119l8 -188h6zM743 975h-206l34 217q9 57 -2 80.5t-43 23.5q-35 0 -56 -24t-30 -80l-20 -137q-11 -68 14.5 -127t79.5 -133q20 -26 30 -40t28.5 -40t28.5 -45t23.5 -46.5t19.5 -52t11.5 -53.5t5 -60.5t-5.5 -64.5l-20 -121
q-23 -150 -108 -226.5t-216 -76.5t-191 76.5t-36 226.5l31 189h207l-35 -217q-9 -58 3.5 -82.5t47.5 -24.5q70 0 86 107l22 137q2 16 2.5 31.5t-2.5 32t-5.5 29.5t-10.5 30t-12.5 28.5t-15.5 29.5l-16.5 27t-19.5 28t-19.5 27t-20.5 28q-45 60 -70 103t-42 115t-5 150
l20 125q24 149 107.5 224t212.5 75q130 0 189 -75.5t36 -223.5z" />
    <glyph glyph-name="scaron" unicode="&#x161;" 
d="M571 1468h119l-131 -280h-149l-41 280h118l9 -188h6zM674 756h-197l25 166q13 82 -43 82q-63 0 -76 -82l-16 -111q-8 -50 19.5 -99t80.5 -104q16 -17 25.5 -27t25 -28t24.5 -30.5t21 -31t18.5 -34t13.5 -35.5t10 -39t3 -42t-4 -46l-10 -66q-19 -118 -102 -189t-199 -71
q-119 0 -179 71t-40 191l18 121h197l-27 -166q-11 -82 49 -82q67 0 78 82l19 107q8 51 -26 104.5t-99 122.5q-64 68 -96.5 134t-18.5 151l10 72q20 120 101 190t198 70t175.5 -70.5t39.5 -189.5z" />
    <glyph glyph-name="uni0162" unicode="&#x162;" horiz-adv-x="583" 
d="M780 1434l-24 -168h-160l-201 -1266h-55l-21 -80q82 0 126.5 -37.5t35.5 -97.5q-11 -66 -77.5 -110t-157.5 -44q-48 0 -125 17l14 94q33 -10 62 -10q44 0 77.5 19.5t38.5 47.5q4 27 -27 42.5t-89 15.5l47 143h-56l201 1266h-160l27 168h524z" />
    <glyph glyph-name="uni0163" unicode="&#x163;" horiz-adv-x="380" 
d="M274 1270h197l-27 -164h97l-27 -168h-96l-109 -690q-9 -54 5 -67t77 -13l-26 -168q-68 0 -97 2l-18 -70q82 0 126.5 -37.5t35.5 -97.5q-10 -66 -77.5 -109.5t-158.5 -43.5q-53 0 -125 16l15 94q33 -10 61 -10q44 0 78 20t39 48q4 27 -27.5 42t-89.5 15l47 147
q-53 18 -67 66t2 143l112 713h-61l26 168h62z" />
    <glyph glyph-name="Tcaron" unicode="&#x164;" horiz-adv-x="583" 
d="M616 1796h119l-131 -280h-149l-41 280h118l9 -188h6zM780 1434l-24 -168h-160l-201 -1266h-207l201 1266h-160l27 168h524z" />
    <glyph glyph-name="tcaron" unicode="&#x165;" horiz-adv-x="380" 
d="M496 1174l92 362h137l-147 -362h-82zM274 1270h197l-27 -164h97l-27 -168h-96l-109 -690q-9 -54 5 -67t77 -13l-26 -168q-63 0 -102 2.5t-74 11t-51.5 23t-27.5 40t-10 61t9 87.5l112 713h-61l26 168h62z" />
    <glyph glyph-name="Tbar" unicode="&#x166;" horiz-adv-x="583" 
d="M780 1434l-24 -168h-160l-88 -553h84l-21 -135h-84l-92 -578h-207l91 578h-82l22 135h82l88 553h-160l27 168h524z" />
    <glyph glyph-name="tbar" unicode="&#x167;" horiz-adv-x="380" 
d="M274 1270h197l-27 -164h97l-27 -168h-96l-43 -276h96l-22 -136h-97l-43 -278q-9 -54 5 -67t77 -13l-26 -168q-63 0 -102 2.5t-74 11t-51.5 23t-27.5 40t-10 61t9 87.5l47 301h-62l23 136h61l43 276h-61l26 168h62z" />
    <glyph glyph-name="Utilde" unicode="&#x168;" horiz-adv-x="647" 
d="M791 1790l-7 -43q-39 -231 -135 -231q-55 0 -90 71l-6 10q-28 52 -55 52q-40 0 -52 -86l-6 -41h-67l6 41q39 233 137 233q48 0 86 -65l6 -11q29 -53 62 -53q37 0 49 80l8 43h64zM831 1434l-182 -1162q-24 -151 -110.5 -227t-219.5 -76t-195 76t-38 227l182 1162h209
l-188 -1190q-9 -56 4 -81.5t51 -25.5q39 0 61 25.5t31 81.5l189 1190h206z" />
    <glyph glyph-name="utilde" unicode="&#x169;" horiz-adv-x="604" 
d="M600 1462l-6 -43q-39 -231 -135 -231q-55 0 -90 72l-7 10q-28 51 -55 51q-39 0 -51 -86l-6 -41h-68l6 41q39 233 138 233q48 0 86 -65l6 -10q29 -54 61 -54q37 0 49 80l9 43h63zM217 1106h197l-138 -862q-7 -57 2.5 -82t38.5 -25q32 0 56.5 32.5t34.5 96.5l133 840h196
l-174 -1106h-160l-2 117h-8q-34 -70 -83 -109t-105 -39q-80 0 -112 78t-9 225z" />
    <glyph glyph-name="Umacron" unicode="&#x16a;" horiz-adv-x="647" 
d="M780 1726l-22 -141h-369l23 141h368zM831 1434l-182 -1162q-24 -151 -110.5 -227t-219.5 -76t-195 76t-38 227l182 1162h209l-188 -1190q-9 -56 4 -81.5t51 -25.5q39 0 61 25.5t31 81.5l189 1190h206z" />
    <glyph glyph-name="umacron" unicode="&#x16b;" horiz-adv-x="604" 
d="M590 1399l-23 -142h-368l22 142h369zM217 1106h197l-138 -862q-7 -57 2.5 -82t38.5 -25q32 0 56.5 32.5t34.5 96.5l133 840h196l-174 -1106h-160l-2 117h-8q-34 -70 -83 -109t-105 -39q-80 0 -112 78t-9 225z" />
    <glyph glyph-name="Ubreve" unicode="&#x16c;" horiz-adv-x="647" 
d="M416 1796h119q-21 -139 53 -139q75 0 96 139h117q-24 -143 -80.5 -211.5t-155.5 -68.5q-100 0 -135.5 68.5t-13.5 211.5zM831 1434l-182 -1162q-24 -151 -110.5 -227t-219.5 -76t-195 76t-38 227l182 1162h209l-188 -1190q-9 -56 4 -81.5t51 -25.5q39 0 61 25.5t31 81.5
l189 1190h206z" />
    <glyph glyph-name="ubreve" unicode="&#x16d;" horiz-adv-x="604" 
d="M223 1468h119q-21 -139 53 -139q76 0 97 139h116q-24 -143 -80 -211.5t-155 -68.5q-100 0 -136 69t-14 211zM217 1106h197l-138 -862q-7 -57 2.5 -82t38.5 -25q32 0 56.5 32.5t34.5 96.5l133 840h196l-174 -1106h-160l-2 117h-8q-34 -70 -83 -109t-105 -39q-80 0 -112 78
t-9 225z" />
    <glyph glyph-name="Uring" unicode="&#x16e;" horiz-adv-x="647" 
d="M444 1630q0 72 45.5 120t120.5 48q57 0 89 -30t32 -89q0 -72 -46 -119t-122 -47q-119 0 -119 117zM524 1640q0 -53 49 -53q34 0 56.5 24.5t21.5 59.5q0 53 -51 53q-34 0 -55 -24t-21 -60zM831 1434l-182 -1162q-24 -151 -110.5 -227t-219.5 -76t-195 76t-38 227l182 1162
h209l-188 -1190q-9 -56 4 -81.5t51 -25.5q39 0 61 25.5t31 81.5l189 1190h206z" />
    <glyph glyph-name="uring" unicode="&#x16f;" horiz-adv-x="604" 
d="M252 1303q0 72 45.5 119.5t120.5 47.5q57 0 89 -29.5t32 -88.5q0 -72 -46 -119t-122 -47q-119 0 -119 117zM332 1313q0 -53 49 -53q34 0 56.5 24t21.5 59q0 54 -51 54q-34 0 -55 -24t-21 -60zM217 1106h197l-138 -862q-7 -57 2.5 -82t38.5 -25q32 0 56.5 32.5t34.5 96.5
l133 840h196l-174 -1106h-160l-2 117h-8q-34 -70 -83 -109t-105 -39q-80 0 -112 78t-9 225z" />
    <glyph glyph-name="Uhungarumlaut" unicode="&#x170;" horiz-adv-x="647" 
d="M504 1516h-109l103 280h131zM698 1516h-108l102 280h131zM831 1434l-182 -1162q-24 -151 -110.5 -227t-219.5 -76t-195 76t-38 227l182 1162h209l-188 -1190q-9 -56 4 -81.5t51 -25.5q39 0 61 25.5t31 81.5l189 1190h206z" />
    <glyph glyph-name="uhungarumlaut" unicode="&#x171;" horiz-adv-x="604" 
d="M313 1188h-108l102 280h131zM508 1188h-109l103 280h131zM217 1106h197l-138 -862q-7 -57 2.5 -82t38.5 -25q32 0 56.5 32.5t34.5 96.5l133 840h196l-174 -1106h-160l-2 117h-8q-34 -70 -83 -109t-105 -39q-80 0 -112 78t-9 225z" />
    <glyph glyph-name="Uogonek" unicode="&#x172;" horiz-adv-x="647" 
d="M831 1434l-182 -1162q-39 -246 -239 -292q-35 -20 -57.5 -50.5t-22.5 -64.5q0 -35 21.5 -55.5t54.5 -20.5q26 0 61 12l-18 -125q-67 -18 -121 -18q-81 0 -124.5 36t-43.5 95q0 117 141 180q-124 6 -181.5 82t-33.5 221l182 1162h209l-188 -1190q-9 -56 4 -81.5t51 -25.5
q39 0 61 25.5t31 81.5l189 1190h206z" />
    <glyph glyph-name="uogonek" unicode="&#x173;" horiz-adv-x="604" 
d="M217 1106h197l-138 -862q-7 -57 2.5 -82t38.5 -25q32 0 56.5 32.5t34.5 96.5l133 840h196l-174 -1106h-2q-63 -3 -107.5 -40.5t-50.5 -86.5q-6 -36 14 -60t60 -24q27 0 64 12l-21 -125q-65 -18 -119 -18q-89 0 -133 43t-35 109q9 63 65 114.5t148 75.5h-43l-2 117h-8
q-34 -70 -83 -109t-105 -39q-80 0 -112 78t-9 225z" />
    <glyph glyph-name="Wcircumflex" unicode="&#x174;" horiz-adv-x="962" 
d="M678 1516h-119l129 280h152l39 -280h-119l-8 188h-7zM1174 1434l-355 -1434h-272l119 1130h-9l-30 -149l-213 -981h-271l101 1434h207l-117 -1033l-19 -147h9l30 147l230 1033h250l-109 -1180h8l27 147l207 1033h207z" />
    <glyph glyph-name="wcircumflex" unicode="&#x175;" horiz-adv-x="937" 
d="M614 1188h-118l129 280h151l39 -280h-119l-8 188h-6zM1102 1106l-299 -1106h-273l105 1016h-10l-29 -142l-190 -874h-273l53 1106h207l-71 -721l-17 -131h8l29 131l176 721h250l-47 -721l-14 -131h10l22 131l154 721h209z" />
    <glyph glyph-name="Ycircumflex" unicode="&#x176;" 
d="M496 1516h-119l129 280h151l39 -280h-118l-9 188h-6zM807 1434l-332 -971l-74 -463h-206l73 463l-24 971h207l-39 -609l-13 -157h9l190 766h209z" />
    <glyph glyph-name="ycircumflex" unicode="&#x177;" horiz-adv-x="577" 
d="M436 1188h-119l129 280h152l39 -280h-119l-8 188h-6zM387 -88q-20 -68 -38 -107.5t-46.5 -74.5t-71.5 -51.5t-105 -25.5t-155 -9l25 166q101 0 129 30.5t43 147.5l18 1118h207l-51 -692l-12 -133h8l29 133l168 692h206l-329 -1106z" />
    <glyph glyph-name="Ydieresis" unicode="&#x178;" 
d="M406 1559l30 194h271l-31 -194h-270zM807 1434l-332 -971l-74 -463h-206l73 463l-24 971h207l-39 -609l-13 -157h9l190 766h209z" />
    <glyph glyph-name="Zacute" unicode="&#x179;" horiz-adv-x="522" 
d="M563 1516h-129l111 280h155zM713 1434l-27 -168l-428 -1092l4 -6h264l-26 -168h-477l26 168l428 1092l-4 6h-235l26 168h449z" />
    <glyph glyph-name="zacute" unicode="&#x17a;" horiz-adv-x="503" 
d="M506 1188h-129l110 280h156zM641 1106l-20 -129l-361 -805l2 -4h244l-27 -168h-454l20 129l358 805l-4 4h-213l27 168h428z" />
    <glyph glyph-name="Zdotaccent" unicode="&#x17b;" horiz-adv-x="522" 
d="M420 1559l31 194h176l-31 -194h-176zM713 1434l-27 -168l-428 -1092l4 -6h264l-26 -168h-477l26 168l428 1092l-4 6h-235l26 168h449z" />
    <glyph glyph-name="zdotaccent" unicode="&#x17c;" horiz-adv-x="503" 
d="M362 1231l31 194h176l-30 -194h-177zM641 1106l-20 -129l-361 -805l2 -4h244l-27 -168h-454l20 129l358 805l-4 4h-213l27 168h428z" />
    <glyph glyph-name="Zcaron" unicode="&#x17d;" horiz-adv-x="522" 
d="M586 1796h119l-132 -280h-149l-41 280h119l8 -188h6zM713 1434l-27 -168l-428 -1092l4 -6h264l-26 -168h-477l26 168l428 1092l-4 6h-235l26 168h449z" />
    <glyph glyph-name="zcaron" unicode="&#x17e;" horiz-adv-x="503" 
d="M528 1468h119l-131 -280h-149l-41 280h118l9 -188h6zM641 1106l-20 -129l-361 -805l2 -4h244l-27 -168h-454l20 129l358 805l-4 4h-213l27 168h428z" />
    <glyph glyph-name="longs" unicode="&#x17f;" horiz-adv-x="1085" 
d="M57 0l228 1434h970l-227 -1434h-971zM432 1331l238 -530l405 530h-643zM709 717l243 -547l174 1094zM360 1264l-174 -1094l420 547zM643 633l-405 -531h643z" />
    <glyph glyph-name="florin" unicode="&#x192;" horiz-adv-x="370" 
d="M-55 -430l26 168q64 0 83 13t26 67l178 1120h-61l26 168h62l32 205q10 62 25 101.5t36.5 65t61 38t84.5 16.5t121 4l-27 -168q-63 0 -81 -13t-27 -67l-29 -182h74l-27 -168h-73l-181 -1143q-10 -62 -25.5 -101.5t-37 -65t-61.5 -38t-84.5 -16.5t-120.5 -4z" />
    <glyph glyph-name="uni0237" unicode="&#x237;" horiz-adv-x="272" 
d="M406 1106l-197 -1239q-9 -53 -18.5 -88t-27.5 -61.5t-38 -41t-57 -23t-77.5 -11t-105.5 -2.5l27 167q66 0 80.5 12t23.5 68l193 1219h197z" />
    <glyph glyph-name="circumflex" unicode="&#x2c6;" horiz-adv-x="436" 
d="M360 1153h-118l129 281h151l39 -281h-119l-8 188h-6z" />
    <glyph glyph-name="caron" unicode="&#x2c7;" horiz-adv-x="436" 
d="M489 1434h119l-131 -281h-149l-41 281h119l8 -189h6z" />
    <glyph glyph-name="breve" unicode="&#x2d8;" horiz-adv-x="499" 
d="M285 1434h118q-22 -140 54 -140q74 0 96 140h117q-24 -143 -80.5 -212t-155.5 -69q-100 0 -135.5 69t-13.5 212z" />
    <glyph glyph-name="dotaccent" unicode="&#x2d9;" horiz-adv-x="290" 
d="M248 1196l31 195h176l-31 -195h-176z" />
    <glyph glyph-name="ring" unicode="&#x2da;" horiz-adv-x="397" 
d="M260 1268q0 72 45.5 120t120.5 48q57 0 89 -30t32 -89q0 -72 -46 -119t-122 -47q-119 0 -119 117zM340 1278q0 -53 49 -53q34 0 56.5 24.5t21.5 59.5q0 53 -51 53q-34 0 -55 -24t-21 -60z" />
    <glyph glyph-name="ogonek" unicode="&#x2db;" horiz-adv-x="421" 
d="M354 -6l-2 -14q-62 -3 -106.5 -40.5t-50.5 -86.5q-6 -36 13.5 -60t59.5 -24q26 0 64 12l-21 -125q-65 -18 -118 -18q-89 0 -133 42.5t-35 108.5q13 83 101.5 143.5t227.5 61.5z" />
    <glyph glyph-name="tilde" unicode="&#x2dc;" horiz-adv-x="489" 
d="M659 1427l-6 -43q-39 -231 -135 -231q-55 0 -90 72l-6 10q-28 51 -55 51q-40 0 -52 -86l-6 -41h-67l6 41q39 234 137 234q48 0 86 -66l6 -10q29 -53 62 -53q38 0 49 79l8 43h63z" />
    <glyph glyph-name="hungarumlaut" unicode="&#x2dd;" horiz-adv-x="499" 
d="M350 1153h-108l102 281h131zM545 1153h-109l103 281h131z" />
    <glyph glyph-name="uni03BC" unicode="&#x3bc;" horiz-adv-x="1085" 
d="M57 0l228 1434h970l-227 -1434h-971zM432 1331l238 -530l405 530h-643zM709 717l243 -547l174 1094zM360 1264l-174 -1094l420 547zM643 633l-405 -531h643z" />
    <glyph glyph-name="endash" unicode="&#x2013;" horiz-adv-x="974" 
d="M1040 778l-26 -168h-860l26 168h860z" />
    <glyph glyph-name="emdash" unicode="&#x2014;" horiz-adv-x="1466" 
d="M1532 778l-27 -168h-1351l26 168h1352z" />
    <glyph glyph-name="quoteleft" unicode="&#x2018;" horiz-adv-x="337" 
d="M211 977l41 250q15 101 81.5 154t174.5 53l-16 -103q-101 0 -119 -106l-4 -27h100l-35 -221h-223z" />
    <glyph glyph-name="quoteright" unicode="&#x2019;" horiz-adv-x="337" 
d="M510 1434l-41 -250q-15 -101 -81.5 -154t-174.5 -53l16 104q101 0 119 105l4 26h-100l35 222h223z" />
    <glyph glyph-name="quotesinglbase" unicode="&#x201a;" horiz-adv-x="317" 
d="M299 209l-37 -234q-15 -95 -77 -144.5t-162 -49.5l14 96q95 0 110 100l5 25h-95l33 207h209z" />
    <glyph glyph-name="quotedblleft" unicode="&#x201c;" horiz-adv-x="610" 
d="M272 567l4 29q2 12 15 21.5t31 9.5l-3 -21q-8 0 -16 -4h14l-4 -35h-41zM543 567l4 29q2 13 14.5 22t30.5 9l-2 -21q-9 0 -17 -4h15l-4 -35h-41z" />
    <glyph glyph-name="quotedblright" unicode="&#x201d;" horiz-adv-x="610" 
d="M717 1821l-4 -29q-2 -13 -14.5 -22t-30.5 -9l2 21q8 0 16 4h-14l4 35h41zM444 1821l-4 -29q-2 -13 -14.5 -22t-30.5 -9l2 21q9 0 17 4h-15l4 35h41z" />
    <glyph glyph-name="quotedblbase" unicode="&#x201e;" horiz-adv-x="679" 
d="M299 209l-37 -234q-15 -95 -77 -144.5t-162 -49.5l14 96q95 0 110 100l5 25h-95l33 207h209zM551 209l-37 -234q-15 -95 -77 -144.5t-163 -49.5l15 96q95 0 110 100l4 25h-94l33 207h209z" />
    <glyph glyph-name="dagger" unicode="&#x2020;" horiz-adv-x="593" 
d="M420 1434h207l-52 -328h136l-27 -168h-135l-148 -938h-208l149 938h-135l26 168h136z" />
    <glyph glyph-name="daggerdbl" unicode="&#x2021;" horiz-adv-x="593" 
d="M420 1434h207l-52 -328h136l-27 -168h-135l-70 -442h135l-26 -168h-135l-52 -328h-208l53 328h-137l26 168h137l70 442h-135l26 168h136z" />
    <glyph glyph-name="bullet" unicode="&#x2022;" horiz-adv-x="471" 
d="M176 721q0 90 57 149.5t152 59.5q72 0 111 -37.5t41 -108.5q0 -89 -59 -149t-154 -60q-71 0 -109.5 38t-38.5 108z" />
    <glyph glyph-name="ellipsis" unicode="&#x2026;" horiz-adv-x="1007" 
d="M57 0l35 221h223l-34 -221h-224zM393 0l35 221h223l-35 -221h-223zM729 0l35 221h223l-35 -221h-223z" />
    <glyph glyph-name="perthousand" unicode="&#x2030;" horiz-adv-x="1759" 
d="M713 1165l-41 -250q-23 -149 -95 -226t-186 -77q-115 0 -164 77t-24 226l39 250q23 147 96 223t188 76q114 0 162 -75.5t25 -223.5zM248 0l842 1434h120l-841 -1434h-121zM545 1192q9 57 -2 80.5t-45 23.5t-52.5 -24t-27.5 -80l-49 -305q-8 -56 3.5 -81.5t43.5 -25.5
q34 0 53.5 25.5t26.5 81.5zM1249 522l-39 -250q-23 -148 -95.5 -224.5t-186.5 -76.5t-162.5 76.5t-24.5 224.5l39 250q23 148 96.5 224.5t188.5 76.5q113 0 161 -76.5t23 -224.5zM1784 522l-39 -250q-25 -148 -97.5 -224.5t-185.5 -76.5t-162 76.5t-26 224.5l41 250
q23 148 95.5 224.5t186.5 76.5q115 0 163.5 -76.5t23.5 -224.5zM1083 551q9 55 -2 79.5t-45 24.5t-52.5 -24t-27.5 -80l-49 -307q-9 -56 2 -81.5t45 -25.5q33 0 52 25.5t28 81.5zM1618 551q8 56 -3 80t-44 24q-34 0 -53.5 -24.5t-26.5 -79.5l-49 -307q-9 -56 2 -81.5
t45 -25.5q63 0 80 107z" />
    <glyph glyph-name="guilsinglleft" unicode="&#x2039;" horiz-adv-x="581" 
d="M590 422l-35 -178l-424 229l23 137l495 232l-20 -180l-275 -117v-6z" />
    <glyph glyph-name="guilsinglright" unicode="&#x203a;" horiz-adv-x="581" 
d="M197 664l34 178l424 -228l-22 -139l-496 -231l21 180l274 117v6z" />
    <glyph glyph-name="fraction" unicode="&#x2044;" horiz-adv-x="575" 
d="M188 0h-131l555 1434h133z" />
    <glyph glyph-name="uni2074" unicode="&#x2074;" horiz-adv-x="446" 
d="M590 1434l-92 -572h26l-14 -100h-27l-18 -117h-123l18 117h-182l15 90l231 582h166zM313 862h64l22 142l62 253h-8l-19 -65z" />
    <glyph glyph-name="Euro" unicode="&#x20ac;" horiz-adv-x="692" 
d="M657 883l-41 -129h-186l-12 -74h168l-39 -129h-150l-49 -307q-8 -56 3.5 -81.5t45.5 -25.5q70 0 84 107l33 202h207l-27 -174q-24 -151 -108.5 -227t-212.5 -76q-129 0 -190.5 76t-37.5 227l45 279h-61l21 129h61l12 74h-61l20 129h62l43 282q24 150 108 224.5t213 74.5
q130 0 191 -74.5t37 -224.5l-29 -176h-207l33 203q8 56 -3 80t-46 24q-70 0 -84 -104l-49 -309h206z" />
    <glyph glyph-name="trademark" unicode="&#x2122;" horiz-adv-x="593" 
d="M461 1434l-10 -60h-52l-57 -370h-74l60 370h-52l9 60h176zM766 1434l-70 -430h-63l63 344h-4l-96 -344h-80l10 299v45h-4l-4 -45l-41 -299h-63l67 430h109l-12 -250l-9 -92h2l19 92l65 250h111z" />
    <glyph glyph-name="minus" unicode="&#x2212;" horiz-adv-x="710" 
d="M776 778l-26 -168h-596l26 168h596z" />
    <glyph glyph-name="fi" unicode="&#xfb01;" horiz-adv-x="634" 
d="M72 0l149 938h-61l26 168h62l33 205q10 62 25 101.5t36 65t61 38t84.5 16.5t120.5 4l-26 -168q-62 0 -81 -13t-28 -67l-29 -182h74l-26 -168h-74l-148 -938h-198zM580 1163l38 240h197l-39 -240h-196zM395 0l176 1106h197l-174 -1106h-199z" />
    <glyph glyph-name="fl" unicode="&#xfb02;" horiz-adv-x="657" 
d="M72 0l149 938h-61l26 168h62l33 205q10 62 25 101.5t36 65t61 38t84.5 16.5t120.5 4l-26 -168q-62 0 -81 -13t-28 -67l-29 -182h74l-26 -168h-74l-148 -938h-198zM418 0l244 1536h196l-244 -1536h-196z" />
    <glyph glyph-name="ethbar" horiz-adv-x="438" 
d="M500 762l-21 -135h-323l22 135h322z" />
    <glyph glyph-name="crossbar" horiz-adv-x="532" 
d="M557 831l31 -126l-393 -156l-31 127z" />
    <glyph glyph-name="ethbar.case" horiz-adv-x="438" 
d="M500 762l-21 -135h-375l23 135h373z" />
    <glyph glyph-name="crossbar.case" horiz-adv-x="477" 
d="M498 819l28 -127l-329 -131l-31 127z" />
    <glyph glyph-name="commaccent" horiz-adv-x="286" 
d="M-4 -383l92 363h137l-147 -363h-82z" />
    <glyph glyph-name="commaccent2" horiz-adv-x="256" 
d="M231 150l-26 -170q-10 -67 -56 -103.5t-118 -36.5l12 70q69 0 78 72l4 18h-68l23 150h151z" />
    <glyph glyph-name="commaccent3" horiz-adv-x="256" 
d="M10 -174l29 178q12 72 60.5 110t125.5 38l-10 -76q-74 0 -86 -74l-2 -16h72l-25 -160h-164z" />
    <glyph glyph-name="dotaccent2" horiz-adv-x="290" 
d="M248 1196l31 195h176l-31 -195h-176z" />
    <glyph glyph-name="tbarnew" horiz-adv-x="468" 
d="M532 762l-22 -135h-354l22 135h354z" />
    <glyph glyph-name="ogonek2" horiz-adv-x="1024" 
d="M625 -12l2 -17q-46 -14 -78.5 -49t-32.5 -78q0 -34 21.5 -54.5t54.5 -20.5q26 0 61 12l-18 -125q-67 -18 -121 -18q-81 0 -124.5 36t-43.5 95q0 49 26 89.5t68 66t89 41.5t96 22z" />
    </font>
</defs>
</svg>
