<?xml version="1.0" standalone="no"?>
<!DOCTYPE svg PUBLIC "-//W3C//DTD SVG 1.1//EN" "http://www.w3.org/Graphics/SVG/1.1/DTD/svg11.dtd" >
<svg xmlns="http://www.w3.org/2000/svg" xmlns:xlink="http://www.w3.org/1999/xlink" version="1.1">
<metadata>
Created by FontForge 20201107 at Sat Sep 14 10:04:14 2024
 By 
</metadata>
<defs>
<font id="MangoGrotesque-ThinItalic" horiz-adv-x="477" >
  <font-face 
    font-family="Mango Grotesque Thin Ita"
    font-weight="100"
    font-style="italic"
    font-stretch="normal"
    units-per-em="2048"
    panose-1="0 0 0 0 0 0 0 0 0 0"
    ascent="1638"
    descent="-410"
    x-height="1106"
    cap-height="1434"
    bbox="-158.247 -430 1550.8 1878"
    underline-thickness="102"
    underline-position="-255"
    slope="-9"
    unicode-range="U+000D-FB02"
  />
<missing-glyph horiz-adv-x="1136" 
d="M84 0l225 1434h971l-225 -1434h-971zM459 1331l237 -530l404 530h-641zM733 717l246 -547l172 1094zM385 1264l-172 -1094l418 547zM668 633l-404 -531h641z" />
    <glyph glyph-name=".notdef" horiz-adv-x="1136" 
d="M84 0l225 1434h971l-225 -1434h-971zM459 1331l237 -530l404 530h-641zM733 717l246 -547l172 1094zM385 1264l-172 -1094l418 547zM668 633l-404 -531h641z" />
    <glyph glyph-name="uni0000" horiz-adv-x="0" 
 />
    <glyph glyph-name="uni0000" horiz-adv-x="0" 
 />
    <glyph glyph-name="uni000D" unicode="&#xd;" horiz-adv-x="512" 
 />
    <glyph glyph-name="space" unicode=" " horiz-adv-x="286" 
 />
    <glyph glyph-name="exclam" unicode="!" horiz-adv-x="247" 
d="M326 1434h41l-195 -1182h-29zM84 0l16 113h82l-16 -113h-82z" />
    <glyph glyph-name="quotedbl" unicode="&#x22;" horiz-adv-x="372" 
d="M535 1536l-86 -479h-21l53 407l13 72h41zM369 1536l-86 -479h-21l53 407l13 72h41z" />
    <glyph glyph-name="numbersign" unicode="#" horiz-adv-x="720" 
d="M176 0l115 537h-123l6 36h125l61 287h-141l6 37h144l114 537h41l-114 -537h208l115 537h41l-115 -537h121l-6 -37h-123l-61 -287h139l-6 -36h-141l-115 -537h-41l115 537h-209l-115 -537h-41zM340 573h209l61 287h-209z" />
    <glyph glyph-name="dollar" unicode="$" horiz-adv-x="528" 
d="M604 1014h-41l31 196q20 119 -4.5 168t-93.5 49q-71 0 -115.5 -49.5t-63.5 -167.5l-18 -123q-24 -158 80 -323q19 -30 28 -45t26 -44.5t26 -49t21.5 -49t18 -54t10.5 -54t4.5 -59.5t-5.5 -61l-19 -123q-40 -256 -231 -256q-93 0 -130.5 60.5t-16.5 195.5l30 197h41
l-30 -197q-20 -119 7.5 -169t102.5 -50q74 0 121 50.5t66 168.5l18 123q5 30 5 60.5t-3 54.5t-13.5 54t-17.5 48.5t-23.5 49t-25 44.5t-27.5 46q-18 29 -29 48t-26 47.5t-23.5 50.5t-17 52t-11.5 57t-3 60t6 67l18 123q21 134 76.5 194t145.5 60q88 0 123 -60t14 -194z
M471 1434l33 202h41l-33 -202h-41zM248 2h41l-33 -205h-41z" />
    <glyph glyph-name="percent" unicode="%" horiz-adv-x="1081" 
d="M627 1210l-54 -340q-22 -131 -74 -193.5t-141 -62.5q-180 0 -137 256l53 340q22 130 75 192t143 62q91 0 124 -62.5t11 -191.5zM221 0l840 1434h43l-840 -1434h-43zM586 1210q19 116 -2.5 166.5t-91.5 50.5q-73 0 -115.5 -52t-61.5 -165l-53 -340q-19 -116 3.5 -167.5
t92.5 -51.5q71 0 113 52.5t61 166.5zM1087 567l-53 -342q-20 -130 -73 -193t-142 -63q-91 0 -124 62.5t-13 193.5l53 342q22 130 75 192t142 62q91 0 124 -62.5t11 -191.5zM1047 567q19 116 -3 166.5t-92 50.5q-72 0 -114.5 -52t-61.5 -165l-53 -342q-19 -116 3.5 -167.5
t92.5 -51.5q71 0 113 52.5t61 166.5z" />
    <glyph glyph-name="ampersand" unicode="&#x26;" horiz-adv-x="600" 
d="M612 1063h-41l23 147q19 114 -5.5 165.5t-99.5 51.5t-119 -52t-63 -165l-41 -256q-17 -114 8 -166.5t97 -52.5h147l21 123h41l-21 -123h82l-4 -37h-82l-111 -698h-41l17 109h-4q-35 -78 -72.5 -109t-95.5 -31q-177 0 -137 254l41 256q29 190 133 236v4q-89 47 -60 235
l41 256q22 129 77 191.5t149 62.5q186 0 143 -254zM514 698h-147q-74 0 -114.5 -51t-59.5 -168l-41 -256q-19 -114 4.5 -165.5t95.5 -51.5q80 0 126.5 69t72.5 230z" />
    <glyph glyph-name="quotesingle" unicode="'" horiz-adv-x="206" 
d="M369 1536l-86 -479h-21l53 407l13 72h41z" />
    <glyph glyph-name="parenleft" unicode="(" horiz-adv-x="374" 
d="M199 -330q-91 482 -21 938q73 459 316 928l38 -12q-237 -457 -311 -916q-68 -441 21 -925z" />
    <glyph glyph-name="parenright" unicode=")" horiz-adv-x="374" 
d="M367 1536q90 -479 20 -938q-74 -462 -315 -928l-39 13q237 458 311 915q70 454 -20 926z" />
    <glyph glyph-name="asterisk" unicode="*" horiz-adv-x="796" 
d="M324 870l231 236l-285 78l29 57l268 -113l27 306h61l-67 -306l303 113l10 -57l-309 -76l158 -238l-56 -34l-123 258l-204 -258z" />
    <glyph glyph-name="plus" unicode="+" horiz-adv-x="894" 
d="M926 715l-8 -41h-345l-53 -344h-41l53 344h-344l9 41h344l53 344h41l-53 -344h344z" />
    <glyph glyph-name="comma" unicode="," horiz-adv-x="247" 
d="M184 113l-30 -187q-10 -64 -31.5 -87t-67.5 -23l4 37q27 0 37.5 16.5t18.5 62.5l10 68h-41l18 113h82z" />
    <glyph glyph-name="hyphen" unicode="-" horiz-adv-x="657" 
d="M686 713l-4 -37h-492l5 37h491z" />
    <glyph glyph-name="period" unicode="." horiz-adv-x="247" 
d="M84 0l16 113h82l-16 -113h-82z" />
    <glyph glyph-name="slash" unicode="/" horiz-adv-x="448" 
d="M98 -164h-41l504 1659h41z" />
    <glyph glyph-name="zero" unicode="0" horiz-adv-x="518" 
d="M635 1210l-156 -985q-20 -130 -75 -193t-148 -63q-185 0 -145 256l155 985q22 129 77 191.5t149 62.5q186 0 143 -254zM594 1210q19 114 -5.5 165.5t-99.5 51.5t-119 -52t-63 -165l-155 -985q-19 -115 5.5 -167t98.5 -52q75 0 119 52.5t63 166.5z" />
    <glyph glyph-name="one" unicode="1" horiz-adv-x="411" 
d="M453 1434l-222 -1397h103l-4 -37h-246l4 37h102l199 1245h-61l6 37q43 0 59.5 24.5t26.5 90.5h33z" />
    <glyph glyph-name="two" unicode="2" horiz-adv-x="518" 
d="M236 952l34 224q45 288 226 288q89 0 123 -70t10 -227l-23 -141q-10 -58 -30.5 -109.5t-55.5 -99t-63 -79.5t-76 -81q-39 -40 -57.5 -59.5t-51 -58t-49.5 -67.5t-33 -68t-22 -78l-47 -289h328l-7 -37h-368l53 326q9 55 33 108t67 107t73 86.5t85 87.5q74 76 120 149
t60 162l23 145q23 141 -0.5 198.5t-93.5 57.5t-115 -57t-66 -190l-37 -228h-40z" />
    <glyph glyph-name="three" unicode="3" horiz-adv-x="518" 
d="M635 1210l-37 -231q-27 -189 -133 -236v-4q86 -45 59 -235l-45 -281q-20 -129 -75.5 -191.5t-149.5 -62.5t-128.5 62.5t-14.5 191.5l45 287h41l-45 -287q-19 -115 5 -166t99 -51t119 52t63 165l45 281q17 116 -6.5 167.5t-97.5 51.5h-4l4 37h4q72 0 114.5 53t59.5 166
l37 231q19 114 -5.5 165.5t-99.5 51.5t-119 -52t-63 -165l-37 -237h-41l37 237q22 129 77 191.5t149 62.5q186 0 143 -254z" />
    <glyph glyph-name="four" unicode="4" horiz-adv-x="575" 
d="M657 1434l-176 -1119h62l-6 -36h-62l-43 -279h-41l43 279h-307l6 36l481 1119h43zM176 315h264l140 875l30 145h-4l-53 -145z" />
    <glyph glyph-name="five" unicode="5" horiz-adv-x="518" 
d="M651 1434l-6 -37h-307l-90 -572h4q55 127 178 127q165 0 125 -254l-76 -473q-20 -130 -75 -193t-148 -63q-185 0 -145 256l32 205h41l-32 -205q-17 -115 8 -167t100 -52t118 52.5t60 166.5l76 473q19 114 -4.5 165.5t-93.5 51.5q-153 0 -189 -217l-4 -20h-41l121 756h348
z" />
    <glyph glyph-name="six" unicode="6" horiz-adv-x="518" 
d="M610 1047h-41l25 161q19 115 -5 167t-97 52q-77 0 -123 -60t-66 -191l-72 -445h5q52 119 172 119q88 0 119.5 -62.5t11.5 -191.5l-60 -371q-20 -130 -75 -193t-148 -63q-185 0 -145 256l149 949q25 148 82 219t152 71q181 0 141 -256zM256 6q75 0 119 52.5t63 166.5
l60 371q17 115 -7.5 166t-99.5 51q-76 0 -119.5 -52t-60.5 -165l-59 -371q-19 -115 5.5 -167t98.5 -52z" />
    <glyph glyph-name="seven" unicode="7" horiz-adv-x="524" 
d="M668 1434l-6 -41q-141 -389 -227 -675t-197 -718h-41q108 425 195 712.5t231 678.5l-5 2h-315l6 41h359z" />
    <glyph glyph-name="eight" unicode="8" horiz-adv-x="518" 
d="M635 1210l-35 -225q-30 -189 -133 -235l-2 -5q89 -45 59 -233l-45 -287q-20 -130 -75 -193t-148 -63q-185 0 -145 256l45 287q29 186 135 233l2 5q-92 47 -62 235l35 225q22 129 77 191.5t149 62.5q186 0 143 -254zM594 1210q19 114 -5.5 165.5t-99.5 51.5t-119 -52
t-63 -165l-35 -225q-19 -115 5.5 -167t99.5 -52t119 52.5t63 166.5zM483 512q19 115 -5 166t-99 51t-119 -52t-63 -165l-45 -287q-19 -115 5.5 -167t98.5 -52q75 0 119 52.5t63 166.5z" />
    <glyph glyph-name="nine" unicode="9" horiz-adv-x="518" 
d="M137 387h41l-26 -162q-19 -115 5 -167t97 -52q77 0 122.5 60.5t67.5 191.5l70 444h-4q-51 -118 -172 -118q-88 0 -119.5 62.5t-11.5 191.5l59 370q22 131 76.5 193.5t146.5 62.5q186 0 146 -256l-150 -948q-23 -148 -80.5 -219.5t-152.5 -71.5q-181 0 -141 256zM489 1427
q-75 0 -119 -52.5t-63 -166.5l-59 -370q-17 -115 7.5 -166t98.5 -51q76 0 120 52t61 165l59 370q19 115 -5.5 167t-99.5 52z" />
    <glyph glyph-name="colon" unicode=":" horiz-adv-x="247" 
d="M242 993l16 113h82l-16 -113h-82zM84 0l16 113h82l-16 -113h-82z" />
    <glyph glyph-name="semicolon" unicode=";" horiz-adv-x="249" 
d="M244 993l16 113h82l-16 -113h-82zM184 113l-30 -187q-10 -64 -31.5 -87t-67.5 -23l4 37q27 0 37.5 16.5t18.5 62.5l10 68h-41l18 113h82z" />
    <glyph glyph-name="less" unicode="&#x3c;" horiz-adv-x="612" 
d="M651 780l-6 -49l-416 -190v-4l355 -187l-6 -45l-414 217l6 37z" />
    <glyph glyph-name="equal" unicode="=" horiz-adv-x="894" 
d="M950 879l-6 -41h-729l6 41h729zM899 551l-6 -41h-729l6 41h729z" />
    <glyph glyph-name="greater" unicode="&#x3e;" horiz-adv-x="612" 
d="M166 305l6 49l416 191v4l-355 186l7 45l413 -217l-6 -37z" />
    <glyph glyph-name="question" unicode="?" horiz-adv-x="524" 
d="M233 952l37 224q24 152 80 220t144 68q89 0 123 -73t8 -234l-23 -145q-17 -108 -57 -192t-107 -185q-41 -63 -66 -105t-51.5 -107.5t-37.5 -129.5l-7 -41h-40l6 41q10 58 28.5 112.5t48.5 110t51 89t58 89.5q109 161 133 318l25 153q22 141 -3.5 201.5t-95.5 60.5
q-69 0 -112 -56.5t-64 -190.5l-37 -228h-41zM186 0l17 113h82l-17 -113h-82z" />
    <glyph glyph-name="at" unicode="@" horiz-adv-x="927" 
d="M809 1065l-150 -944q-7 -46 12 -76.5t54 -30.5q37 0 65 36t37 93l117 738q31 194 -42 318t-220 124q-149 0 -268 -125t-150 -317l-108 -678q-31 -193 18.5 -323t157.5 -130l-6 -37q-128 0 -186.5 136t-24.5 354l108 678q32 209 162.5 344t296.5 135q164 0 249.5 -135
t53.5 -344l-117 -738q-12 -73 -54 -119.5t-97 -46.5q-52 0 -79.5 40t-16.5 102v6h-5q-33 -76 -81.5 -116t-104.5 -40q-70 0 -98.5 64t-7.5 192l96 604q40 254 182 254q57 0 93.5 -40t45.5 -115h4l23 137h41zM721 768q22 136 -9 207.5t-100 71.5q-118 0 -151 -218l-96 -604
q-19 -114 -0.5 -166.5t77.5 -52.5q69 0 125 72t78 209z" />
    <glyph glyph-name="A" unicode="A" horiz-adv-x="493" 
d="M494 1434l-41 -1434h-41l12 401h-225l-115 -401h-41l410 1434h41zM209 438h215l25 752l12 145h-4l-33 -145z" />
    <glyph glyph-name="B" unicode="B" horiz-adv-x="493" 
d="M618 1180l-26 -162q-20 -130 -56.5 -192t-105.5 -85v-4q68 -25 91 -90.5t3 -183.5l-32 -207q-20 -130 -84.5 -193t-178.5 -63h-145l225 1434h133q216 0 176 -254zM578 1180q19 114 -13 165.5t-123 51.5h-96l-102 -639h82q107 0 154.5 54.5t70.5 205.5zM483 463
q22 135 -17.5 196.5t-146.5 61.5h-81l-109 -684h98q96 0 151.5 53t72.5 166z" />
    <glyph glyph-name="C" unicode="C" horiz-adv-x="518" 
d="M594 1210q19 113 -6.5 165t-98.5 52q-74 0 -118.5 -52.5t-63.5 -164.5l-155 -985q-19 -114 6 -166.5t98 -52.5q74 0 118.5 53t63.5 166l41 258h41l-41 -258q-40 -256 -223 -256q-185 0 -145 256l155 985q22 129 77 191.5t149 62.5q186 0 143 -254l-41 -258h-41z" />
    <glyph glyph-name="D" unicode="D" horiz-adv-x="526" 
d="M639 1180l-147 -924q-20 -130 -84.5 -193t-178.5 -63h-145l225 1434h144q114 0 160 -62.5t26 -191.5zM598 1180q19 114 -15.5 165.5t-129.5 51.5h-107l-217 -1360h98q96 0 151.5 53t72.5 166z" />
    <glyph glyph-name="E" unicode="E" horiz-adv-x="389" 
d="M555 1434l-4 -37h-205l-106 -664h192l-6 -37h-193l-104 -659h223l-4 -37h-264l225 1434h246z" />
    <glyph glyph-name="F" unicode="F" horiz-adv-x="370" 
d="M555 1434l-4 -37h-205l-106 -674h192l-6 -37h-193l-108 -686h-41l225 1434h246z" />
    <glyph glyph-name="G" unicode="G" horiz-adv-x="518" 
d="M594 1210q19 116 -5.5 166.5t-99.5 50.5q-76 0 -119.5 -51.5t-62.5 -165.5l-155 -985q-19 -114 3.5 -166.5t88.5 -52.5q77 0 128.5 67t71.5 193l66 414h-184l6 37h225l-113 -717h-41l17 109h-4q-30 -66 -78 -103t-107 -37q-77 0 -108.5 65.5t-11.5 190.5l155 985
q22 129 77 191.5t149 62.5q186 0 143 -254l-41 -258h-41z" />
    <glyph glyph-name="H" unicode="H" horiz-adv-x="514" 
d="M657 1434l-225 -1434h-41l109 696h-267l-108 -696h-41l225 1434h41l-110 -701h266l110 701h41z" />
    <glyph glyph-name="I" unicode="I" horiz-adv-x="206" 
d="M350 1434l-225 -1434h-41l225 1434h41z" />
    <glyph glyph-name="J" unicode="J" horiz-adv-x="485" 
d="M639 1434l-193 -1209q-20 -130 -75 -193t-148 -63q-185 0 -145 256l41 258h41l-41 -258q-17 -115 7 -167t97 -52q150 0 183 219l192 1209h41z" />
    <glyph glyph-name="K" unicode="K" horiz-adv-x="514" 
d="M657 1434l-290 -570v-4l106 -860h-43l-98 795h-4l-113 -226l-90 -569h-41l225 1434h41l-117 -740h5l376 740h43z" />
    <glyph glyph-name="L" unicode="L" horiz-adv-x="368" 
d="M309 1434h41l-221 -1397h203l-4 -37h-244z" />
    <glyph glyph-name="M" unicode="M" horiz-adv-x="636" 
d="M780 1434l-225 -1434h-41l178 1130l31 144h-4l-37 -144l-332 -1130h-41l8 1130l5 144h-5l-14 -144l-178 -1130h-41l225 1434h51l-10 -1211l-8 -125h4l29 125l354 1211h51z" />
    <glyph glyph-name="N" unicode="N" horiz-adv-x="534" 
d="M678 1434l-225 -1434h-54l-65 1186l-2 147h-4l-17 -147l-186 -1186h-41l225 1434h53l66 -1184l4 -146h4l15 148l186 1182h41z" />
    <glyph glyph-name="O" unicode="O" horiz-adv-x="518" 
d="M635 1210l-156 -985q-20 -130 -75 -193t-148 -63q-185 0 -145 256l155 985q22 129 77 191.5t149 62.5q186 0 143 -254zM594 1210q19 114 -5.5 165.5t-99.5 51.5t-119 -52t-63 -165l-155 -985q-19 -115 5.5 -167t98.5 -52q75 0 119 52.5t63 166.5z" />
    <glyph glyph-name="P" unicode="P" horiz-adv-x="526" 
d="M639 1180l-55 -349q-40 -256 -265 -256h-104l-90 -575h-41l225 1434h144q114 0 160 -62.5t26 -191.5zM598 1180q19 114 -15.5 165.5t-129.5 51.5h-107l-125 -785h98q96 0 150.5 53t73.5 166z" />
    <glyph glyph-name="Q" unicode="Q" horiz-adv-x="518" 
d="M637 1210l-158 -985q-20 -127 -72.5 -190t-140.5 -66q-3 -64 20 -93.5t76 -29.5l3 -2l-7 -37l-2 -2q-70 0 -95 38t-13 126q-177 6 -137 256l157 985q20 129 75 191.5t149 62.5t129.5 -62.5t15.5 -191.5zM596 1210q17 115 -7.5 166t-99.5 51q-76 0 -119.5 -52t-60.5 -165
l-157 -985q-17 -116 6.5 -167.5t97.5 -51.5q76 0 120.5 53t61.5 166z" />
    <glyph glyph-name="R" unicode="R" horiz-adv-x="509" 
d="M309 1434h144q114 0 160 -62.5t26 -191.5l-43 -265q-27 -188 -156 -235v-4q109 -45 82 -234l-37 -229q-16 -112 -16 -205v-8h-41q0 101 16 213l37 229q19 114 -15.5 165.5t-129.5 51.5h-107l-104 -659h-41zM346 1397l-113 -701h103q96 0 149 52.5t70 166.5l43 265
q19 114 -15.5 165.5t-129.5 51.5h-107z" />
    <glyph glyph-name="S" unicode="S" horiz-adv-x="528" 
d="M604 1014h-41l31 196q20 119 -4.5 168t-93.5 49q-71 0 -115.5 -49.5t-63.5 -167.5l-18 -123q-24 -158 80 -323q20 -33 27.5 -45t26.5 -44t26.5 -49.5t21.5 -48.5t19 -54.5t10.5 -54t5 -60t-5.5 -60.5l-21 -123q-40 -256 -231 -256q-93 0 -130.5 60.5t-16.5 195.5l30 197
h41l-30 -197q-20 -119 7.5 -169t102.5 -50q74 0 121 50.5t66 168.5l20 123q4 27 5 52.5t-3.5 50.5t-8.5 45.5t-14.5 46t-17.5 41.5t-22 42.5t-22 38.5t-24 40q-19 32 -28.5 48.5t-25.5 47t-23.5 51t-17 51.5t-12.5 57.5t-3 59.5t6 67l18 123q21 134 76.5 194t145.5 60
q88 0 123 -60t14 -194z" />
    <glyph glyph-name="T" unicode="T" horiz-adv-x="493" 
d="M678 1434l-4 -37h-185l-221 -1397h-41l222 1397h-185l4 37h410z" />
    <glyph glyph-name="U" unicode="U" horiz-adv-x="559" 
d="M713 1434l-193 -1209q-20 -130 -80.5 -193t-163.5 -63q-104 0 -144.5 63.5t-20.5 192.5l192 1209h41l-192 -1209q-17 -115 11.5 -167t112.5 -52q86 0 136 53t67 166l193 1209h41z" />
    <glyph glyph-name="V" unicode="V" horiz-adv-x="493" 
d="M268 0h-41l41 1434h41l-37 -1190l-12 -146h4l33 146l340 1190h41z" />
    <glyph glyph-name="W" unicode="W" horiz-adv-x="780" 
d="M965 1434l-390 -1434h-40l49 1157l16 150h-4l-33 -150l-315 -1157h-41l61 1434h41l-51 -1182l-18 -154h4l30 154l322 1182h41l-51 -1182l-19 -154h4l31 154l322 1182h41z" />
    <glyph glyph-name="X" unicode="X" horiz-adv-x="495" 
d="M680 1434l-301 -699l76 -735h-43l-58 553l-2 145h-4l-47 -145l-215 -553h-43l293 750l-68 684h43l47 -506l7 -146h4l49 146l219 506h43z" />
    <glyph glyph-name="Y" unicode="Y" horiz-adv-x="493" 
d="M678 1434l-324 -881l-86 -553h-41l86 553l-45 881h41l35 -637v-174h4l53 174l236 637h41z" />
    <glyph glyph-name="Z" unicode="Z" horiz-adv-x="432" 
d="M596 1434l-4 -37l-500 -1356l2 -4h301l-4 -37h-348l4 37l500 1356l-2 4h-260l4 37h307z" />
    <glyph glyph-name="bracketleft" unicode="[" horiz-adv-x="411" 
d="M268 -379h-245l303 1915h245l-6 -37h-205l-290 -1841h204z" />
    <glyph glyph-name="backslash" unicode="\" horiz-adv-x="448" 
d="M299 -164l20 1659h41l-20 -1659h-41z" />
    <glyph glyph-name="bracketright" unicode="]" horiz-adv-x="411" 
d="M326 1536h245l-303 -1915h-245l6 37h204l291 1841h-205z" />
    <glyph glyph-name="asciicircum" unicode="^" 
d="M557 1024h-43l-53 348h-4l-164 -348h-47l198 410h45z" />
    <glyph glyph-name="underscore" unicode="_" horiz-adv-x="636" 
d="M553 0l-4 -37h-471l4 37h471z" />
    <glyph glyph-name="grave" unicode="`" horiz-adv-x="374" 
d="M475 1153h-37l-129 281h41z" />
    <glyph glyph-name="a" unicode="a" horiz-adv-x="487" 
d="M424 0h-41l31 186h-4q-39 -105 -95.5 -161t-119.5 -56q-65 0 -91.5 64t-5.5 192l33 211q40 254 191 254q59 0 96.5 -39t46.5 -106h4l53 336q19 115 -5.5 167t-96.5 52q-71 0 -110 -51t-56 -166l-14 -90h-41l14 90q20 130 72.5 192t142.5 62t123.5 -62t13.5 -192zM207 6
q78 0 143.5 100t93.5 283l9 47q15 95 -19.5 156t-103.5 61q-122 0 -158 -217l-33 -211q-19 -114 -2.5 -166.5t70.5 -52.5z" />
    <glyph glyph-name="b" unicode="b" horiz-adv-x="489" 
d="M567 883l-104 -658q-20 -128 -69.5 -192t-119.5 -64q-56 0 -90 40t-43 116h-4l-20 -125h-41l243 1536h41l-88 -555h4q33 76 82 116t105 40q144 0 104 -254zM266 6q123 0 156 219l104 658q18 114 0 165.5t-75 51.5q-70 0 -126.5 -72t-78.5 -207l-84 -534
q-23 -138 6 -209.5t98 -71.5z" />
    <glyph glyph-name="c" unicode="c" 
d="M514 883q17 116 -4.5 166.5t-91.5 50.5q-73 0 -115 -52t-59 -165l-105 -658q-19 -116 4 -167.5t93 -51.5q71 0 113 52.5t61 166.5l26 172h41l-26 -172q-22 -131 -74 -193.5t-141 -62.5q-181 0 -138 256l105 658q20 130 73 192t142 62q91 0 124 -62.5t13 -191.5l-29 -172
h-41z" />
    <glyph glyph-name="d" unicode="d" horiz-adv-x="489" 
d="M203 883q40 254 186 254q56 0 92 -40t45 -116h4l88 555h41l-243 -1536h-41l20 125h-4q-33 -76 -81.5 -116t-104.5 -40q-70 0 -98.5 63.5t-8.5 192.5zM217 6q69 0 125 72t78 209l84 534q22 136 -8 207.5t-99 71.5q-117 0 -153 -217l-105 -658q-17 -114 1.5 -166.5
t76.5 -52.5z" />
    <glyph glyph-name="e" unicode="e" 
d="M436 397h41l-26 -172q-22 -131 -74 -193.5t-141 -62.5q-181 0 -138 256l105 658q20 130 73 192t142 62q91 0 124 -62.5t13 -191.5l-51 -320h-311l-54 -338q-19 -116 4 -167.5t93 -51.5q71 0 113 52.5t61 166.5zM514 883q17 116 -4.5 166.5t-91.5 50.5q-73 0 -115 -52
t-59 -165l-45 -283h270z" />
    <glyph glyph-name="f" unicode="f" horiz-adv-x="243" 
d="M104 0l168 1069h-61l6 37h62l40 262q17 99 52 133.5t114 34.5l-4 -37q-28 0 -42.5 -2.5t-32.5 -14.5t-28.5 -39.5t-17.5 -74.5l-41 -262h93l-6 -37h-93l-168 -1069h-41z" />
    <glyph glyph-name="g" unicode="g" 
d="M553 883l-80 -514q-22 -131 -74 -193.5t-141 -62.5h-55q-35 0 -57 -19.5t-27 -50.5q-9 -63 63 -63h70q70 0 108 -37t29 -97q-9 -59 -58 -94t-122 -35h-33q-71 0 -109.5 35.5t-29.5 91.5q12 73 90 99v4q-25 8 -39 35.5t-10 60.5q6 36 32.5 60.5t65.5 25.5v4
q-85 46 -55 236l80 514q20 122 67.5 183.5t130.5 70.5q75 8 84 61l15 80h41l-13 -61q-6 -38 -22 -58t-47 -24v-5q68 -11 91.5 -70.5t4.5 -176.5zM512 883q19 115 -4 166t-94 51q-72 0 -112.5 -51.5t-59.5 -165.5l-80 -514q-19 -115 5 -167t95 -52t111 52t59 167zM211 -57
q-57 0 -91 -25.5t-42 -69.5q-6 -44 20 -69t82 -25h37q55 0 90 24.5t41 67.5q8 44 -19 70.5t-81 26.5h-37z" />
    <glyph glyph-name="h" unicode="h" horiz-adv-x="501" 
d="M428 0h-41l139 881q17 115 -1 167t-76 52q-69 0 -125 -72t-78 -209l-129 -819h-41l241 1536h41l-86 -555h4q32 76 80.5 116t104.5 40q69 0 97.5 -63.5t8.5 -192.5z" />
    <glyph glyph-name="i" unicode="i" horiz-adv-x="190" 
d="M264 1188l25 164h41l-25 -164h-41zM76 0l174 1106h41l-174 -1106h-41z" />
    <glyph glyph-name="j" unicode="j" horiz-adv-x="163" 
d="M303 1352l-27 -164h-40l26 164h41zM264 1106l-188 -1180q-6 -40 -9.5 -59t-11 -43t-16.5 -33t-25.5 -18.5t-38.5 -12t-55 -2.5l6 37h37t24.5 5.5t18 11t11 23.5t9.5 36t9 55l188 1180h41z" />
    <glyph glyph-name="k" unicode="k" horiz-adv-x="505" 
d="M598 1106l-270 -440v-4l137 -662h-43l-127 610h-4l-105 -172l-69 -438h-41l241 1536h41l-157 -999h4l348 569h45z" />
    <glyph glyph-name="l" unicode="l" horiz-adv-x="190" 
d="M76 0l241 1536h41l-241 -1536h-41z" />
    <glyph glyph-name="m" unicode="m" horiz-adv-x="772" 
d="M406 0h-41l139 881q18 114 1 166.5t-71 52.5q-63 0 -115.5 -72t-74.5 -209l-129 -819h-41l176 1106h41l-21 -121h4q32 74 77 113t95 39q54 0 82.5 -42.5t24.5 -127.5h4q32 83 79 126.5t101 43.5q67 0 93.5 -64t5.5 -192l-140 -881h-41l140 881q18 114 1 166.5t-71 52.5
q-63 0 -115.5 -72t-74.5 -209z" />
    <glyph glyph-name="n" unicode="n" horiz-adv-x="501" 
d="M426 0h-41l139 881q19 114 0 166.5t-78 52.5q-69 0 -124.5 -72t-77.5 -209l-129 -819h-41l176 1106h41l-21 -125h4q69 156 185 156q70 0 98.5 -64t7.5 -192z" />
    <glyph glyph-name="o" unicode="o" 
d="M555 883l-104 -658q-22 -131 -74 -193.5t-141 -62.5q-181 0 -138 256l105 658q20 130 73 192t142 62q91 0 124 -62.5t13 -191.5zM514 883q17 116 -4.5 166.5t-91.5 50.5q-73 0 -115 -52t-59 -165l-105 -658q-19 -116 4 -167.5t93 -51.5q71 0 113 52.5t61 166.5z" />
    <glyph glyph-name="p" unicode="p" horiz-adv-x="489" 
d="M463 223q-40 -254 -187 -254q-56 0 -92 40t-45 116h-4l-88 -555h-41l244 1536h41l-19 -125h4q69 156 185 156q69 0 97.5 -63.5t8.5 -192.5zM268 6q118 0 154 217l104 658q19 114 0.5 166.5t-77.5 52.5q-69 0 -125 -72t-78 -209l-84 -534q-22 -136 7.5 -207.5t98.5 -71.5z
" />
    <glyph glyph-name="q" unicode="q" horiz-adv-x="489" 
d="M98 223l105 658q20 128 69 192t119 64q56 0 91 -40t44 -116h4l19 125h41l-244 -1536h-41l88 555h-4q-33 -76 -81.5 -116t-104.5 -40q-145 0 -105 254zM215 6q70 0 126.5 72t78.5 207l84 534q22 138 -7 209.5t-98 71.5q-119 0 -155 -219l-105 -658q-19 -113 0 -165t76 -52
z" />
    <glyph glyph-name="r" unicode="r" horiz-adv-x="350" 
d="M250 1106h41l-27 -168h4q41 168 215 168l-6 -37q-190 0 -233 -252l-129 -817h-41z" />
    <glyph glyph-name="s" unicode="s" 
d="M528 784h-41l25 150q24 166 -96 166q-57 0 -99.5 -40t-56.5 -130l-16 -105q-16 -107 94 -252q66 -85 98 -158t19 -163l-15 -86q-16 -100 -72 -148.5t-135 -48.5t-120 49t-25 152l25 154h41l-23 -150q-26 -168 105 -168q63 0 107 39.5t58 128.5l15 92q9 63 -23.5 131.5
t-91.5 147.5q-54 78 -80.5 148t-15.5 149l16 96q16 102 68.5 150.5t128.5 48.5q77 0 114 -48.5t21 -150.5z" />
    <glyph glyph-name="t" unicode="t" horiz-adv-x="264" 
d="M305 1270h41l-27 -164h99l-4 -37h-99l-143 -901q-5 -32 -6 -54.5t4 -37t10.5 -22.5t18.5 -11.5t22.5 -4.5t28.5 -1l-6 -37q-79 0 -103.5 35t-9.5 133l143 901h-61l4 37h62z" />
    <glyph glyph-name="u" unicode="u" horiz-adv-x="501" 
d="M250 1106h41l-139 -881q-36 -219 81 -219q69 0 123 72t76 209l129 819h41l-176 -1106h-41l21 125h-5q-69 -156 -184 -156q-70 0 -98.5 64t-7.5 192z" />
    <glyph glyph-name="v" unicode="v" horiz-adv-x="473" 
d="M256 0h-41l2 1106h41v-895l-8 -113h4l29 113l282 895h41z" />
    <glyph glyph-name="w" unicode="w" horiz-adv-x="739" 
d="M872 1106l-329 -1106h-41l16 868l12 131h-4l-32 -131l-258 -868h-41l22 1106h41l-16 -895l-13 -113h4l25 113l266 895h41l-16 -895l-12 -113h4l22 113l268 895h41z" />
    <glyph glyph-name="x" unicode="x" horiz-adv-x="495" 
d="M629 1106l-277 -537v-2l101 -567h-43l-76 426l-8 113h-4l-41 -113l-197 -426h-43l266 575v3l-90 528h43l66 -391l10 -111h4l45 111l201 391h43z" />
    <glyph glyph-name="y" unicode="y" horiz-adv-x="473" 
d="M238 -66q-30 -109 -62.5 -139.5t-130.5 -30.5l6 37q32 0 49 0.5t34.5 10.5t24 17t18.5 37t17.5 52.5t20.5 81.5l2 1106h41v-895l-8 -113h4l29 113l282 895h41l-350 -1106z" />
    <glyph glyph-name="z" unicode="z" horiz-adv-x="411" 
d="M524 1106l-4 -29l-428 -1036l4 -4h279l-6 -37h-328l6 29l426 1038l-4 2h-238l7 37h286z" />
    <glyph glyph-name="braceleft" unicode="{" horiz-adv-x="524" 
d="M469 1282l-80 -516q-19 -107 -48.5 -146.5t-92.5 -39.5v-5q64 0 81.5 -39t0.5 -145l-82 -516q-21 -123 -4 -170t84 -47h59l-6 -37h-59q-86 0 -112 57.5t-3 198.5l78 500q23 104 4 143t-117 39l4 37q35 0 59.5 3.5t42.5 14t28.5 21.5t19 36t13 46.5t11.5 62.5l78 500
q23 141 67 198.5t130 57.5h59l-6 -37h-60q-67 0 -97.5 -46t-51.5 -171z" />
    <glyph glyph-name="bar" unicode="|" horiz-adv-x="206" 
d="M63 -379h-40l303 1915h41z" />
    <glyph glyph-name="braceright" unicode="}" horiz-adv-x="524" 
d="M240 -125l82 516q17 107 46.5 147t92.5 40v4q-64 0 -81 38.5t1 145.5l80 516q21 123 4 170t-84 47h-59l6 37h59q86 0 112 -57.5t3 -198.5l-78 -500q-23 -104 -3.5 -143t118.5 -39l-7 -37q-35 0 -59.5 -3.5t-42.5 -14t-28.5 -21.5t-19 -36t-13 -46.5t-11.5 -62.5l-77 -500
q-23 -141 -67 -198.5t-130 -57.5h-59l6 37h59q67 0 98.5 46.5t51.5 170.5z" />
    <glyph glyph-name="asciitilde" unicode="~" horiz-adv-x="622" 
d="M670 819l-13 -74q-28 -182 -133 -182q-34 0 -58 24.5t-50 86.5l-6 10q-23 53 -45 75.5t-50 22.5q-36 0 -57 -34t-33 -111l-12 -74h-41l12 74q27 182 138 182q38 0 65 -25t57 -85l7 -13q30 -59 45.5 -77.5t38.5 -18.5q60 0 81 145l13 74h41z" />
    <glyph glyph-name="exclamdown" unicode="&#xa1;" horiz-adv-x="247" 
d="M242 993l16 113h82l-16 -113h-82zM100 -328h-41l195 1182h29z" />
    <glyph glyph-name="cent" unicode="&#xa2;" 
d="M512 883q19 116 -2.5 166.5t-91.5 50.5q-72 0 -114.5 -52t-61.5 -165l-103 -658q-19 -116 4 -167.5t93 -51.5q71 0 113 52.5t61 166.5l26 172h41l-26 -172q-22 -131 -74 -193.5t-141 -62.5q-181 0 -138 256l103 658q22 130 75 192t142 62q91 0 124 -62.5t11 -191.5
l-27 -172h-41zM393 1106l23 151h41l-23 -151h-41zM215 -10h41l-20 -142h-41z" />
    <glyph glyph-name="sterling" unicode="&#xa3;" horiz-adv-x="604" 
d="M676 952h-41l41 258q19 113 -6.5 165t-98.5 52q-74 0 -118.5 -52.5t-63.5 -164.5l-98 -622h229l-6 -37h-229l-29 -180q-22 -137 -49.5 -207t-91.5 -127h420l-7 -37h-454l6 37q64 57 88 120.5t47 215.5l29 178h-82l6 37h82l98 622q20 129 75.5 191.5t149.5 62.5t129 -62.5
t15 -191.5z" />
    <glyph glyph-name="currency" unicode="&#xa4;" horiz-adv-x="1136" 
d="M84 0l225 1434h971l-225 -1434h-971zM459 1331l237 -530l404 530h-641zM733 717l246 -547l172 1094zM385 1264l-172 -1094l418 547zM668 633l-404 -531h641z" />
    <glyph glyph-name="yen" unicode="&#xa5;" horiz-adv-x="493" 
d="M678 1434l-324 -881l-4 -25h144l-7 -36h-141l-18 -107h143l-6 -37h-143l-54 -348h-41l54 348h-136l7 37h135l18 107h-137l6 36h135l4 25l-45 881h41l35 -637v-174h4l53 174l236 637h41z" />
    <glyph glyph-name="brokenbar" unicode="&#xa6;" horiz-adv-x="206" 
d="M236 702h-41l131 834h41zM63 -379h-40l133 836h41z" />
    <glyph glyph-name="section" unicode="&#xa7;" horiz-adv-x="528" 
d="M610 1112h-41l25 150q23 165 -96 165q-57 0 -99.5 -40t-56.5 -130l-16 -104q-16 -107 94 -252q66 -85 98 -158t19 -163l-19 -117q-16 -100 -72 -148.5t-135 -48.5q-51 0 -88 21q24 -54 72 -113q66 -85 98 -158t19 -163l-15 -86q-16 -100 -72 -148.5t-135 -48.5t-120 49
t-25 152l25 153h41l-23 -149q-26 -168 105 -168q63 0 107 39.5t58 128.5l15 92q7 44 -12 98t-41.5 90t-61.5 90q-55 80 -81.5 149.5t-14.5 147.5l20 127q16 102 71 150.5t136 48.5q37 0 70 -10q-35 60 -74 114q-55 77 -82 147.5t-16 149.5l16 97q16 102 68 150t129 48
t114 -48t21 -150zM201 356q30 -53 106 -53q146 0 170 168l21 123q6 46 -11 100q-27 37 -88 37q-152 0 -178 -170l-20 -135q-6 -35 0 -70z" />
    <glyph glyph-name="dieresis" unicode="&#xa8;" horiz-adv-x="452" 
d="M485 1251l13 82h82l-13 -82h-82zM281 1251l12 82h82l-13 -82h-81z" />
    <glyph glyph-name="copyright" unicode="&#xa9;" horiz-adv-x="1222" 
d="M217 850q45 278 210.5 441t410.5 163q248 0 363.5 -164.5t72.5 -439.5l-39 -254q-46 -291 -212 -453.5t-425 -162.5q-254 0 -361 160.5t-59 457.5zM260 852l-41 -254q-45 -283 50.5 -432.5t330.5 -149.5q241 0 396 153t198 427l41 256q40 257 -65 411t-332 154
t-382.5 -153.5t-195.5 -411.5zM891 936q19 117 -3 167t-95 50q-70 0 -110.5 -44t-55.5 -138l-78 -488q-17 -104 6 -151t92 -47q73 0 115 52t61 167l17 110h41l-17 -110q-22 -131 -74.5 -193.5t-144.5 -62.5q-176 0 -137 231l78 498q17 109 68 161t139 52q93 0 126 -61.5
t13 -192.5l-19 -111h-41z" />
    <glyph glyph-name="ordfeminine" unicode="&#xaa;" horiz-adv-x="401" 
d="M451 838h-41l18 104h-4q-23 -58 -56.5 -89.5t-70.5 -31.5q-81 0 -61 142l18 114q21 142 113 142q36 0 59 -22t29 -58h4l26 172q9 61 -2.5 88.5t-50.5 27.5t-61 -25t-31 -83l-8 -45h-41l8 49q11 72 44 106.5t93 34.5q58 0 80.5 -34.5t11.5 -106.5zM313 858q43 0 80 51.5
t51 143.5l5 24q7 46 -12 75.5t-56 29.5q-69 0 -86 -111l-16 -102q-10 -59 -2.5 -85t36.5 -26z" />
    <glyph glyph-name="guillemotleft" unicode="&#xab;" horiz-adv-x="817" 
d="M496 311l-25 -35l-305 252l4 27l385 252l14 -37l-352 -229v-4zM782 311l-24 -35l-305 252l4 27l385 252l14 -37l-352 -229v-4z" />
    <glyph glyph-name="logicalnot" unicode="&#xac;" horiz-adv-x="1136" 
d="M84 0l225 1434h971l-225 -1434h-971zM459 1331l237 -530l404 530h-641zM733 717l246 -547l172 1094zM385 1264l-172 -1094l418 547zM668 633l-404 -531h641z" />
    <glyph glyph-name="registered" unicode="&#xae;" horiz-adv-x="1222" 
d="M217 850q45 277 210 440.5t411 163.5q248 0 363.5 -164.5t72.5 -439.5l-39 -254q-46 -290 -211.5 -453t-423.5 -163q-256 0 -363 160t-59 458zM260 852l-41 -254q-45 -282 50.5 -432t330.5 -150q242 0 396.5 153.5t197.5 426.5l41 256q40 257 -65 411t-332 154
q-228 0 -383 -153.5t-195 -411.5zM641 1188h102q227 0 189 -234l-12 -80q-9 -67 -48 -119t-102 -75v-4q111 -39 88 -189l-8 -61q-12 -66 -12 -172v-8h-41q0 114 12 180l8 61q14 87 -23.5 129.5t-131.5 42.5h-62l-65 -413h-41zM678 1151l-74 -455h62q93 0 147 46.5t66 131.5
l12 80q35 197 -152 197h-61z" />
    <glyph glyph-name="macron" unicode="&#xaf;" horiz-adv-x="534" 
d="M659 1313l-4 -37h-368l4 37h368z" />
    <glyph glyph-name="degree" unicode="&#xb0;" 
d="M586 1210l-4 -18q-20 -131 -67 -193.5t-126 -62.5q-82 0 -110.5 62.5t-8.5 193.5l4 18q20 130 67.5 192t127.5 62q81 0 109 -62t8 -192zM545 1210q19 115 0 166t-78 51q-61 0 -97 -51.5t-55 -165.5l-4 -18q-17 -116 1.5 -167.5t78.5 -51.5t96.5 52t53.5 167z" />
    <glyph glyph-name="plusminus" unicode="&#xb1;" horiz-adv-x="894" 
d="M930 743l-4 -36h-346l-54 -347h-41l54 347h-342l4 36h344l55 347h41l-55 -347h344zM836 141l-7 -37h-729l6 37h730z" />
    <glyph glyph-name="twosuperior" unicode="&#xb2;" horiz-adv-x="385" 
d="M268 1174l21 133q25 157 135 157q54 0 75.5 -38.5t8.5 -125.5l-14 -86q-14 -89 -119 -202q-108 -112 -121 -183l-21 -139h158l-6 -41h-199l27 176q7 41 31.5 84t47.5 69.5t60 63.5q90 90 101 170l14 86q10 70 -2.5 99.5t-48.5 29.5q-34 0 -55 -29t-31 -98l-21 -126h-41z
" />
    <glyph glyph-name="threesuperior" unicode="&#xb3;" horiz-adv-x="387" 
d="M514 1323l-20 -127q-15 -103 -93 -129v-2q67 -25 52 -129l-25 -156q-21 -139 -133 -139q-57 0 -78 34t-10 105l24 158h41l-22 -150q-9 -59 2.5 -84.5t48.5 -25.5q71 0 88 108l23 150q18 108 -62 108h-2l8 41h2q78 0 95 113l18 115q9 58 -3.5 85t-47.5 27q-37 0 -58 -27
t-30 -85l-19 -121h-41l21 131q21 139 133 139q109 0 88 -139z" />
    <glyph glyph-name="acute" unicode="&#xb4;" horiz-adv-x="286" 
d="M303 1153h-37l125 281h41z" />
    <glyph glyph-name="paragraph" unicode="&#xb6;" horiz-adv-x="788" 
d="M645 -379h-41l303 1915h41zM432 -379h-41l156 979q-52 0 -89 3t-74 11.5t-60.5 23.5t-44.5 39.5t-30.5 59.5t-14 82.5t0.5 109.5t17 140q16 104 37 179t50.5 127t61.5 83.5t80 49t95.5 23t117.5 5.5h41z" />
    <glyph glyph-name="periodcentered" unicode="&#xb7;" horiz-adv-x="247" 
d="M162 489l16 113h82l-16 -113h-82z" />
    <glyph glyph-name="cedilla" unicode="&#xb8;" horiz-adv-x="409" 
d="M106 -117l33 105h33l-20 -72q73 0 111.5 -37.5t29.5 -99.5q-11 -63 -66 -106.5t-125 -43.5q-38 0 -75 15l4 37q34 -15 67 -15q57 0 101.5 34t52.5 81q7 50 -31.5 76t-114.5 26z" />
    <glyph glyph-name="onesuperior" unicode="&#xb9;" horiz-adv-x="323" 
d="M414 1434l-119 -748h55l-6 -41h-158l7 41h57l100 643h-35l9 41q25 0 33.5 13.5t15.5 50.5h41z" />
    <glyph glyph-name="ordmasculine" unicode="&#xba;" horiz-adv-x="405" 
d="M532 1323l-86 -541q-10 -72 -45 -106.5t-96 -34.5t-85 34.5t-13 106.5l86 541q12 73 45.5 107t95.5 34t85.5 -34t12.5 -107zM489 1317q10 60 -3 85t-54 25t-65.5 -25t-34.5 -85l-82 -529q-11 -60 2.5 -85t56.5 -25q41 0 65 26.5t34 86.5z" />
    <glyph glyph-name="guillemotright" unicode="&#xbb;" horiz-adv-x="817" 
d="M526 772l27 35l303 -252l-4 -27l-383 -252l-16 37l352 230v4zM240 772l26 35l303 -252l-4 -27l-383 -252l-16 37l352 230v4z" />
    <glyph glyph-name="onequarter" unicode="&#xbc;" horiz-adv-x="731" 
d="M414 1434l-119 -748h55l-6 -41h-158l7 41h57l100 643h-35l9 41q25 0 33.5 13.5t15.5 50.5h41zM211 0h-41l631 1434h41zM741 788l-94 -593h33l-8 -41h-33l-23 -154h-41l23 154h-170l4 20l266 614h43zM485 195h121l60 376l34 158h-4l-47 -158z" />
    <glyph glyph-name="onehalf" unicode="&#xbd;" horiz-adv-x="808" 
d="M190 0h-40l630 1434h41zM414 1434l-119 -748h55l-6 -41h-158l7 41h57l100 643h-35l9 41q25 0 33.5 13.5t15.5 50.5h41zM590 528l20 134q25 157 135 157q54 0 75.5 -38.5t8.5 -125.5l-14 -86q-14 -89 -119 -202q-108 -112 -121 -183l-20 -139h158l-6 -41h-199l27 176
q7 41 31.5 84t47.5 69.5t60 63.5q88 88 100 170l14 86q10 70 -2.5 99.5t-48.5 29.5q-34 0 -55 -29t-31 -98l-20 -127h-41z" />
    <glyph glyph-name="threequarters" unicode="&#xbe;" horiz-adv-x="792" 
d="M514 1323l-20 -127q-15 -103 -93 -129v-2q67 -25 52 -129l-25 -156q-21 -139 -133 -139q-57 0 -78 34t-10 105l24 158h41l-22 -150q-9 -59 2.5 -84.5t48.5 -25.5q71 0 88 108l23 150q18 108 -62 108h-2l8 41h2q78 0 95 113l18 115q9 58 -3.5 85t-47.5 27q-37 0 -58 -27
t-30 -85l-19 -121h-41l21 131q21 139 133 139q109 0 88 -139zM252 0h-41l631 1434h41zM803 788l-94 -593h32l-8 -41h-33l-22 -154h-41l22 154h-170l5 20l266 614h43zM547 195h121l59 376l35 158h-4l-47 -158z" />
    <glyph glyph-name="questiondown" unicode="&#xbf;" horiz-adv-x="524" 
d="M326 993l16 113h82l-16 -113h-82zM74 -70l35 224h41l-37 -228q-21 -135 4 -191.5t94 -56.5q70 0 113.5 60.5t66.5 202.5l25 153q24 159 -31 318q-16 43 -25 70t-21 71.5t-16.5 81t-4.5 84t8 94.5l6 41h41l-6 -41q-7 -38 -7 -78t3 -70.5t12.5 -69.5t16.5 -62t20 -62
q14 -40 22 -65t17.5 -65.5t12.5 -74.5t2 -79.5t-9 -92.5l-23 -145q-26 -161 -83 -234t-146 -73q-88 0 -122 68t-9 220z" />
    <glyph glyph-name="Agrave" unicode="&#xc0;" horiz-adv-x="493" 
d="M492 1516h-37l-129 280h41zM494 1434l-41 -1434h-41l12 401h-225l-115 -401h-41l410 1434h41zM209 438h215l25 752l12 145h-4l-33 -145z" />
    <glyph glyph-name="Aacute" unicode="&#xc1;" horiz-adv-x="493" 
d="M500 1516h-37l125 280h41zM494 1434l-41 -1434h-41l12 401h-225l-115 -401h-41l410 1434h41zM209 438h215l25 752l12 145h-4l-33 -145z" />
    <glyph glyph-name="Acircumflex" unicode="&#xc2;" horiz-adv-x="493" 
d="M406 1516h-37l135 280h61l45 -280h-37l-43 241h-4zM494 1434l-41 -1434h-41l12 401h-225l-115 -401h-41l410 1434h41zM209 438h215l25 752l12 145h-4l-33 -145z" />
    <glyph glyph-name="Atilde" unicode="&#xc3;" horiz-adv-x="493" 
d="M698 1790l-16 -109q-12 -78 -43 -121.5t-74 -43.5q-33 0 -50 30t-28 103l-2 20q-6 51 -14 70.5t-25 19.5q-44 0 -67 -137l-14 -102h-41l14 98q27 178 115 178q31 0 45.5 -27t23.5 -96l4 -20q8 -56 18.5 -78.5t30.5 -22.5q45 0 66 129l16 109h41zM494 1434l-41 -1434h-41
l12 401h-225l-115 -401h-41l410 1434h41zM209 438h215l25 752l12 145h-4l-33 -145z" />
    <glyph glyph-name="Adieresis" unicode="&#xc4;" horiz-adv-x="493" 
d="M561 1614l12 82h82l-12 -82h-82zM356 1614l13 82h82l-13 -82h-82zM494 1434l-41 -1434h-41l12 401h-225l-115 -401h-41l410 1434h41zM209 438h215l25 752l12 145h-4l-33 -145z" />
    <glyph glyph-name="Aring" unicode="&#xc5;" horiz-adv-x="493" 
d="M389 1632q0 66 40 110t101 44q48 0 74.5 -28t26.5 -81q0 -65 -40.5 -108t-103.5 -43q-46 0 -72 27t-26 79zM426 1636q0 -37 18 -57t50 -20q43 0 71.5 34t28.5 84q0 36 -18.5 56t-49.5 20q-43 0 -71.5 -33.5t-28.5 -83.5zM494 1434l-41 -1434h-41l12 401h-225l-115 -401
h-41l410 1434h41zM209 438h215l25 752l12 145h-4l-33 -145z" />
    <glyph glyph-name="AE" unicode="&#xc6;" horiz-adv-x="708" 
d="M874 1434l-4 -37h-204l-107 -664h193l-7 -37h-192l-104 -659h223l-4 -37h-265l64 401h-227l-156 -401h-41l553 1434h278zM254 438h217l154 959h-4l-72 -207z" />
    <glyph glyph-name="Ccedilla" unicode="&#xc7;" horiz-adv-x="518" 
d="M594 1210q19 113 -6.5 165t-98.5 52q-74 0 -118.5 -52.5t-63.5 -164.5l-155 -985q-19 -114 6 -166.5t98 -52.5q74 0 118.5 53t63.5 166l41 258h41l-41 -258q-40 -256 -223 -256q-185 0 -145 256l155 985q40 254 226 254q94 0 128.5 -62.5t14.5 -191.5l-41 -258h-41z
M209 -117l33 105h32l-20 -72q73 0 111.5 -37.5t29.5 -99.5q-11 -63 -65.5 -106.5t-124.5 -43.5q-35 0 -78 15l6 37q35 -15 68 -15q57 0 101 34t52 81q7 51 -30.5 76.5t-114.5 25.5z" />
    <glyph glyph-name="Egrave" unicode="&#xc8;" horiz-adv-x="389" 
d="M449 1516h-37l-129 280h41zM555 1434l-4 -37h-205l-106 -664h192l-6 -37h-193l-104 -659h223l-4 -37h-264l225 1434h246z" />
    <glyph glyph-name="Eacute" unicode="&#xc9;" horiz-adv-x="389" 
d="M457 1516h-37l125 280h41zM555 1434l-4 -37h-205l-106 -664h192l-6 -37h-193l-104 -659h223l-4 -37h-264l225 1434h246z" />
    <glyph glyph-name="Ecircumflex" unicode="&#xca;" horiz-adv-x="389" 
d="M362 1516h-36l135 280h61l45 -280h-37l-43 241h-4zM555 1434l-4 -37h-205l-106 -664h192l-6 -37h-193l-104 -659h223l-4 -37h-264l225 1434h246z" />
    <glyph glyph-name="Edieresis" unicode="&#xcb;" horiz-adv-x="389" 
d="M518 1614l12 82h82l-12 -82h-82zM313 1614l13 82h82l-13 -82h-82zM555 1434l-4 -37h-205l-106 -664h192l-6 -37h-193l-104 -659h223l-4 -37h-264l225 1434h246z" />
    <glyph glyph-name="Igrave" unicode="&#xcc;" horiz-adv-x="206" 
d="M348 1516h-37l-129 280h41zM350 1434l-225 -1434h-41l225 1434h41z" />
    <glyph glyph-name="Iacute" unicode="&#xcd;" horiz-adv-x="206" 
d="M356 1516h-37l125 280h41zM350 1434l-225 -1434h-41l225 1434h41z" />
    <glyph glyph-name="Icircumflex" unicode="&#xce;" horiz-adv-x="206" 
d="M262 1516h-37l135 280h62l45 -280h-37l-43 241h-4zM350 1434l-225 -1434h-41l225 1434h41z" />
    <glyph glyph-name="Idieresis" unicode="&#xcf;" horiz-adv-x="206" 
d="M418 1614l12 82h82l-12 -82h-82zM213 1614l12 82h82l-12 -82h-82zM350 1434l-225 -1434h-41l225 1434h41z" />
    <glyph glyph-name="Eth" unicode="&#xd0;" horiz-adv-x="526" 
d="M639 1180l-147 -924q-20 -130 -84.5 -193t-178.5 -63h-145l109 696h-74l4 37h76l110 701h144q114 0 160 -62.5t26 -191.5zM598 1180q19 114 -15.5 165.5t-129.5 51.5h-107l-106 -664h129l-4 -37h-132l-104 -659h98q96 0 151.5 53t72.5 166z" />
    <glyph glyph-name="Ntilde" unicode="&#xd1;" horiz-adv-x="534" 
d="M727 1790l-16 -109q-12 -78 -43 -121.5t-74 -43.5q-33 0 -50 30t-28 103l-2 20q-6 51 -14 70.5t-25 19.5q-44 0 -67 -137l-15 -102h-41l15 98q27 178 114 178q31 0 46 -27.5t24 -95.5l4 -20q8 -56 18.5 -78.5t30.5 -22.5q45 0 66 129l16 109h41zM678 1434l-225 -1434h-54
l-65 1186l-2 147h-4l-17 -147l-186 -1186h-41l225 1434h53l66 -1184l4 -146h4l15 148l186 1182h41z" />
    <glyph glyph-name="Ograve" unicode="&#xd2;" horiz-adv-x="518" 
d="M506 1516h-37l-129 280h41zM635 1210l-156 -985q-20 -130 -75 -193t-148 -63q-185 0 -145 256l155 985q22 129 77 191.5t149 62.5q186 0 143 -254zM594 1210q19 114 -5.5 165.5t-99.5 51.5t-119 -52t-63 -165l-155 -985q-19 -115 5.5 -167t98.5 -52q75 0 119 52.5
t63 166.5z" />
    <glyph glyph-name="Oacute" unicode="&#xd3;" horiz-adv-x="518" 
d="M514 1516h-37l125 280h41zM635 1210l-156 -985q-20 -130 -75 -193t-148 -63q-185 0 -145 256l155 985q22 129 77 191.5t149 62.5q186 0 143 -254zM594 1210q19 114 -5.5 165.5t-99.5 51.5t-119 -52t-63 -165l-155 -985q-19 -115 5.5 -167t98.5 -52q75 0 119 52.5
t63 166.5z" />
    <glyph glyph-name="Ocircumflex" unicode="&#xd4;" horiz-adv-x="518" 
d="M420 1516h-37l135 280h62l45 -280h-37l-43 241h-4zM635 1210l-156 -985q-20 -130 -75 -193t-148 -63q-185 0 -145 256l155 985q22 129 77 191.5t149 62.5q186 0 143 -254zM594 1210q19 114 -5.5 165.5t-99.5 51.5t-119 -52t-63 -165l-155 -985q-19 -115 5.5 -167
t98.5 -52q75 0 119 52.5t63 166.5z" />
    <glyph glyph-name="Otilde" unicode="&#xd5;" horiz-adv-x="518" 
d="M713 1790l-17 -109q-12 -78 -42.5 -121.5t-73.5 -43.5q-33 0 -50 30t-28 103l-2 20q-6 51 -14 70.5t-25 19.5q-45 0 -68 -137l-14 -102h-41l14 98q27 178 115 178q31 0 46 -27.5t24 -95.5l4 -20q8 -56 18.5 -78.5t30.5 -22.5q44 0 65 129l17 109h41zM635 1210l-156 -985
q-20 -130 -75 -193t-148 -63q-185 0 -145 256l155 985q22 129 77 191.5t149 62.5q186 0 143 -254zM594 1210q19 114 -5.5 165.5t-99.5 51.5t-119 -52t-63 -165l-155 -985q-19 -115 5.5 -167t98.5 -52q75 0 119 52.5t63 166.5z" />
    <glyph glyph-name="Odieresis" unicode="&#xd6;" horiz-adv-x="518" 
d="M575 1614l13 82h82l-13 -82h-82zM371 1614l12 82h82l-12 -82h-82zM635 1210l-156 -985q-20 -130 -75 -193t-148 -63q-185 0 -145 256l155 985q22 129 77 191.5t149 62.5q186 0 143 -254zM594 1210q19 114 -5.5 165.5t-99.5 51.5t-119 -52t-63 -165l-155 -985
q-19 -115 5.5 -167t98.5 -52q75 0 119 52.5t63 166.5z" />
    <glyph glyph-name="multiply" unicode="&#xd7;" horiz-adv-x="768" 
d="M815 1006l25 -29l-316 -272l230 -273l-33 -29l-229 273l-316 -273l-24 29l315 273l-229 272l32 29l230 -273z" />
    <glyph glyph-name="Oslash" unicode="&#xd8;" horiz-adv-x="518" 
d="M635 1210l-156 -985q-20 -130 -75 -193t-148 -63q-84 0 -125 56l-20 -56l-39 8l37 101q-13 61 2 147l155 985q22 129 77 191.5t149 62.5q84 0 122 -53l21 53l39 -8l-37 -98q13 -62 -2 -148zM145 172l449 1188q-17 67 -105 67q-75 0 -119 -52t-63 -165l-155 -985
q-1 -5 -4 -24.5t-3 -28.5zM594 1210q6 27 6 52l-448 -1186q21 -70 104 -70q75 0 119 52.5t63 166.5z" />
    <glyph glyph-name="Ugrave" unicode="&#xd9;" horiz-adv-x="559" 
d="M526 1516h-37l-129 280h41zM713 1434l-193 -1209q-20 -130 -80.5 -193t-163.5 -63q-104 0 -144.5 63.5t-20.5 192.5l192 1209h41l-192 -1209q-17 -115 11.5 -167t112.5 -52q86 0 136 53t67 166l193 1209h41z" />
    <glyph glyph-name="Uacute" unicode="&#xda;" horiz-adv-x="559" 
d="M535 1516h-37l125 280h41zM713 1434l-193 -1209q-20 -130 -80.5 -193t-163.5 -63q-104 0 -144.5 63.5t-20.5 192.5l192 1209h41l-192 -1209q-17 -115 11.5 -167t112.5 -52q86 0 136 53t67 166l193 1209h41z" />
    <glyph glyph-name="Ucircumflex" unicode="&#xdb;" horiz-adv-x="559" 
d="M440 1516h-37l136 280h61l45 -280h-37l-43 241h-4zM713 1434l-193 -1209q-20 -130 -80.5 -193t-163.5 -63q-104 0 -144.5 63.5t-20.5 192.5l192 1209h41l-192 -1209q-17 -115 11.5 -167t112.5 -52q86 0 136 53t67 166l193 1209h41z" />
    <glyph glyph-name="Udieresis" unicode="&#xdc;" horiz-adv-x="559" 
d="M596 1614l12 82h82l-12 -82h-82zM391 1614l12 82h82l-12 -82h-82zM713 1434l-193 -1209q-20 -130 -80.5 -193t-163.5 -63q-104 0 -144.5 63.5t-20.5 192.5l192 1209h41l-192 -1209q-17 -115 11.5 -167t112.5 -52q86 0 136 53t67 166l193 1209h41z" />
    <glyph glyph-name="Yacute" unicode="&#xdd;" horiz-adv-x="493" 
d="M500 1516h-37l125 280h41zM678 1434l-324 -881l-86 -553h-41l86 553l-45 881h41l35 -637v-174h4l53 174l236 637h41z" />
    <glyph glyph-name="Thorn" unicode="&#xde;" horiz-adv-x="526" 
d="M594 893l-55 -348q-22 -130 -87 -193t-178 -63h-104l-45 -289h-41l225 1434h41l-45 -287h103q114 0 160 -62.5t26 -191.5zM553 893q17 113 -19.5 165t-132.5 52h-102l-123 -784h103q95 0 147.5 52.5t71.5 166.5z" />
    <glyph glyph-name="germandbls" unicode="&#xdf;" horiz-adv-x="493" 
d="M489 1464q74 0 115 -60.5t19 -189.5l-31 -196q-20 -130 -56.5 -192t-105.5 -85l-2 -4q69 -25 92 -90t4 -184l-32 -207q-40 -256 -265 -256h-22l6 37h20q96 0 149.5 53t70.5 166l32 207q22 135 -17.5 196.5t-146.5 61.5h-30l6 37h31q107 0 154.5 54.5t70.5 205.5l31 196
q19 113 -9.5 163t-85.5 50t-105 -50.5t-67 -162.5l-192 -1214h-41l194 1217q20 128 80 187.5t133 59.5z" />
    <glyph glyph-name="agrave" unicode="&#xe0;" horiz-adv-x="487" 
d="M442 1188h-36l-130 280h41zM424 0h-41l31 186h-4q-39 -105 -95.5 -161t-119.5 -56q-65 0 -91.5 64t-5.5 192l33 211q40 254 191 254q59 0 96.5 -39t46.5 -106h4l53 336q19 115 -5.5 167t-96.5 52q-71 0 -110 -51t-56 -166l-14 -90h-41l14 90q20 130 72.5 192t142.5 62
t123.5 -62t13.5 -192zM207 6q78 0 143.5 100t93.5 283l9 47q15 95 -19.5 156t-103.5 61q-122 0 -158 -217l-33 -211q-19 -114 -2.5 -166.5t70.5 -52.5z" />
    <glyph glyph-name="aacute" unicode="&#xe1;" horiz-adv-x="487" 
d="M451 1188h-37l125 280h41zM424 0h-41l31 186h-4q-39 -105 -95.5 -161t-119.5 -56q-65 0 -91.5 64t-5.5 192l33 211q40 254 191 254q59 0 96.5 -39t46.5 -106h4l53 336q19 115 -5.5 167t-96.5 52q-71 0 -110 -51t-56 -166l-14 -90h-41l14 90q20 130 72.5 192t142.5 62
t123.5 -62t13.5 -192zM207 6q78 0 143.5 100t93.5 283l9 47q15 95 -19.5 156t-103.5 61q-122 0 -158 -217l-33 -211q-19 -114 -2.5 -166.5t70.5 -52.5z" />
    <glyph glyph-name="acircumflex" unicode="&#xe2;" horiz-adv-x="487" 
d="M356 1188h-37l136 280h61l45 -280h-37l-43 242h-4zM424 0h-41l31 186h-4q-39 -105 -95.5 -161t-119.5 -56q-65 0 -91.5 64t-5.5 192l33 211q40 254 191 254q59 0 96.5 -39t46.5 -106h4l53 336q19 115 -5.5 167t-96.5 52q-71 0 -110 -51t-56 -166l-14 -90h-41l14 90
q20 130 72.5 192t142.5 62t123.5 -62t13.5 -192zM207 6q78 0 143.5 100t93.5 283l9 47q15 95 -19.5 156t-103.5 61q-122 0 -158 -217l-33 -211q-19 -114 -2.5 -166.5t70.5 -52.5z" />
    <glyph glyph-name="atilde" unicode="&#xe3;" horiz-adv-x="487" 
d="M649 1462l-16 -108q-12 -78 -43 -122t-74 -44q-33 0 -50 30t-28 103l-2 20q-6 51 -14 71t-25 20q-44 0 -67 -138l-15 -102h-41l15 98q27 178 114 178q31 0 46 -27t24 -95l4 -21q8 -56 18.5 -78t30.5 -22q45 0 66 129l16 108h41zM424 0h-41l31 186h-4q-39 -105 -95.5 -161
t-119.5 -56q-65 0 -91.5 64t-5.5 192l33 211q40 254 191 254q59 0 96.5 -39t46.5 -106h4l53 336q19 115 -5.5 167t-96.5 52q-71 0 -110 -51t-56 -166l-14 -90h-41l14 90q20 130 72.5 192t142.5 62t123.5 -62t13.5 -192zM207 6q78 0 143.5 100t93.5 283l9 47q15 95 -19.5 156
t-103.5 61q-122 0 -158 -217l-33 -211q-19 -114 -2.5 -166.5t70.5 -52.5z" />
    <glyph glyph-name="adieresis" unicode="&#xe4;" horiz-adv-x="487" 
d="M512 1286l12 82h82l-12 -82h-82zM307 1286l12 82h82l-12 -82h-82zM424 0h-41l31 186h-4q-39 -105 -95.5 -161t-119.5 -56q-65 0 -91.5 64t-5.5 192l33 211q40 254 191 254q59 0 96.5 -39t46.5 -106h4l53 336q19 115 -5.5 167t-96.5 52q-71 0 -110 -51t-56 -166l-14 -90
h-41l14 90q20 130 72.5 192t142.5 62t123.5 -62t13.5 -192zM207 6q78 0 143.5 100t93.5 283l9 47q15 95 -19.5 156t-103.5 61q-122 0 -158 -217l-33 -211q-19 -114 -2.5 -166.5t70.5 -52.5z" />
    <glyph glyph-name="aring" unicode="&#xe5;" horiz-adv-x="487" 
d="M340 1305q0 66 40 109.5t101 43.5q48 0 74.5 -27.5t26.5 -80.5q0 -65 -40.5 -108.5t-103.5 -43.5q-46 0 -72 27.5t-26 79.5zM377 1309q0 -38 18 -58t49 -20q43 0 72 34.5t29 84.5q0 36 -18.5 55.5t-49.5 19.5q-43 0 -71.5 -33t-28.5 -83zM424 0h-41l31 186h-4
q-39 -105 -95.5 -161t-119.5 -56q-65 0 -91.5 64t-5.5 192l33 211q40 254 191 254q59 0 96.5 -39t46.5 -106h4l53 336q19 115 -5.5 167t-96.5 52q-71 0 -110 -51t-56 -166l-14 -90h-41l14 90q20 130 72.5 192t142.5 62t123.5 -62t13.5 -192zM207 6q78 0 143.5 100t93.5 283
l9 47q15 95 -19.5 156t-103.5 61q-122 0 -158 -217l-33 -211q-19 -114 -2.5 -166.5t70.5 -52.5z" />
    <glyph glyph-name="ae" unicode="&#xe6;" horiz-adv-x="798" 
d="M131 436q40 254 191 254q59 0 97.5 -39t49.5 -106l53 336q19 116 -3.5 167.5t-94.5 51.5q-71 0 -112 -51.5t-58 -165.5l-14 -90h-41l14 90q20 130 72.5 192t142.5 62q61 0 94 -29.5t39 -97.5h4q30 69 72 98t102 29q91 0 124.5 -62.5t13.5 -191.5l-52 -320h-311l-53 -338
q-19 -116 3.5 -167.5t92.5 -51.5q71 0 113 52.5t61 166.5l27 172h41l-27 -172q-22 -131 -74 -193.5t-141 -62.5q-85 0 -119 54t-20 167h-4q-39 -106 -97 -163.5t-122 -57.5q-65 0 -91.5 64t-5.5 192zM836 883q17 116 -5 166.5t-92 50.5q-73 0 -115 -52t-59 -165l-45 -283
h271zM207 6q78 0 143.5 100t93.5 283l9 47q15 95 -21.5 156t-105.5 61q-59 0 -97.5 -52.5t-56.5 -164.5l-33 -211q-19 -114 -2.5 -166.5t70.5 -52.5z" />
    <glyph glyph-name="ccedilla" unicode="&#xe7;" 
d="M512 883q19 116 -2.5 166.5t-91.5 50.5q-72 0 -114.5 -52t-61.5 -165l-103 -658q-19 -116 4 -167.5t93 -51.5q71 0 113 52.5t61 166.5l26 172h41l-26 -172q-22 -131 -74 -193.5t-141 -62.5q-181 0 -138 256l103 658q22 130 75 192t142 62q91 0 124 -62.5t11 -191.5
l-27 -172h-41zM190 -117l33 105h33l-20 -72q73 0 111.5 -37.5t29.5 -99.5q-11 -63 -66 -106.5t-125 -43.5q-34 0 -77 15l6 37q35 -15 67 -15q57 0 101.5 34t52.5 81q7 51 -31 76.5t-115 25.5z" />
    <glyph glyph-name="egrave" unicode="&#xe8;" 
d="M432 1188h-37l-129 280h41zM436 397h41l-26 -172q-22 -131 -74 -193.5t-141 -62.5q-181 0 -138 256l105 658q20 130 73 192t142 62q91 0 124 -62.5t13 -191.5l-51 -320h-311l-54 -338q-19 -116 4 -167.5t93 -51.5q71 0 113 52.5t61 166.5zM514 883q17 116 -4.5 166.5
t-91.5 50.5q-73 0 -115 -52t-59 -165l-45 -283h270z" />
    <glyph glyph-name="eacute" unicode="&#xe9;" 
d="M440 1188h-37l125 280h41zM436 397h41l-26 -172q-22 -131 -74 -193.5t-141 -62.5q-181 0 -138 256l105 658q20 130 73 192t142 62q91 0 124 -62.5t13 -191.5l-51 -320h-311l-54 -338q-19 -116 4 -167.5t93 -51.5q71 0 113 52.5t61 166.5zM514 883q17 116 -4.5 166.5
t-91.5 50.5q-73 0 -115 -52t-59 -165l-45 -283h270z" />
    <glyph glyph-name="ecircumflex" unicode="&#xea;" 
d="M346 1188h-37l135 280h62l45 -280h-37l-43 242h-4zM436 397h41l-26 -172q-22 -131 -74 -193.5t-141 -62.5q-181 0 -138 256l105 658q20 130 73 192t142 62q91 0 124 -62.5t13 -191.5l-51 -320h-311l-54 -338q-19 -116 4 -167.5t93 -51.5q71 0 113 52.5t61 166.5zM514 883
q17 116 -4.5 166.5t-91.5 50.5q-73 0 -115 -52t-59 -165l-45 -283h270z" />
    <glyph glyph-name="edieresis" unicode="&#xeb;" 
d="M502 1286l12 82h82l-12 -82h-82zM297 1286l12 82h82l-12 -82h-82zM436 397h41l-26 -172q-22 -131 -74 -193.5t-141 -62.5q-181 0 -138 256l105 658q20 130 73 192t142 62q91 0 124 -62.5t13 -191.5l-51 -320h-311l-54 -338q-19 -116 4 -167.5t93 -51.5q71 0 113 52.5
t61 166.5zM514 883q17 116 -4.5 166.5t-91.5 50.5q-73 0 -115 -52t-59 -165l-45 -283h270z" />
    <glyph glyph-name="igrave" unicode="&#xec;" horiz-adv-x="190" 
d="M289 1188h-37l-129 280h41zM74 0l176 1106h41l-176 -1106h-41z" />
    <glyph glyph-name="iacute" unicode="&#xed;" horiz-adv-x="190" 
d="M297 1188h-37l125 280h41zM74 0l176 1106h41l-176 -1106h-41z" />
    <glyph glyph-name="icircumflex" unicode="&#xee;" horiz-adv-x="190" 
d="M203 1188h-37l135 280h61l46 -280h-37l-43 242h-4zM74 0l176 1106h41l-176 -1106h-41z" />
    <glyph glyph-name="idieresis" unicode="&#xef;" horiz-adv-x="190" 
d="M358 1286l13 82h82l-13 -82h-82zM154 1286l12 82h82l-12 -82h-82zM74 0l176 1106h41l-176 -1106h-41z" />
    <glyph glyph-name="eth" unicode="&#xf0;" 
d="M352 1536q105 -57 160 -129l109 68l16 -31l-107 -66q42 -76 48 -191.5t-23 -303.5l-104 -658q-20 -130 -73 -193t-142 -63q-91 0 -124.5 62.5t-13.5 193.5l105 658q22 130 74 192t139 62q96 0 121 -76l6 2q11 185 -47 293l-115 -72l-14 31l108 69q-47 64 -147 119z
M514 883q19 116 -2.5 166.5t-91.5 50.5q-72 0 -114.5 -52t-61.5 -165l-105 -658q-19 -116 4 -167.5t93 -51.5q71 0 113 52.5t61 166.5z" />
    <glyph glyph-name="ntilde" unicode="&#xf1;" horiz-adv-x="501" 
d="M666 1462l-17 -108q-12 -78 -43 -122t-74 -44q-33 0 -49.5 29.5t-27.5 103.5l-2 20q-6 51 -14 71t-25 20q-45 0 -68 -138l-14 -102h-41l14 98q27 178 115 178q31 0 45.5 -26.5t23.5 -95.5l5 -21q8 -56 18.5 -78t30.5 -22q44 0 65 129l17 108h41zM426 0h-41l139 881
q19 114 0 166.5t-78 52.5q-69 0 -124.5 -72t-77.5 -209l-129 -819h-41l176 1106h41l-21 -125h4q69 156 185 156q70 0 98.5 -64t7.5 -192z" />
    <glyph glyph-name="ograve" unicode="&#xf2;" 
d="M434 1188h-37l-129 280h41zM555 883l-104 -658q-22 -131 -74 -193.5t-141 -62.5q-181 0 -138 256l105 658q20 130 73 192t142 62q91 0 124 -62.5t13 -191.5zM514 883q17 116 -4.5 166.5t-91.5 50.5q-73 0 -115 -52t-59 -165l-105 -658q-19 -116 4 -167.5t93 -51.5
q71 0 113 52.5t61 166.5z" />
    <glyph glyph-name="oacute" unicode="&#xf3;" 
d="M442 1188h-36l124 280h41zM555 883l-104 -658q-22 -131 -74 -193.5t-141 -62.5q-181 0 -138 256l105 658q20 130 73 192t142 62q91 0 124 -62.5t13 -191.5zM514 883q17 116 -4.5 166.5t-91.5 50.5q-73 0 -115 -52t-59 -165l-105 -658q-19 -116 4 -167.5t93 -51.5
q71 0 113 52.5t61 166.5z" />
    <glyph glyph-name="ocircumflex" unicode="&#xf4;" 
d="M348 1188h-37l135 280h62l45 -280h-37l-43 242h-4zM555 883l-104 -658q-22 -131 -74 -193.5t-141 -62.5q-181 0 -138 256l105 658q20 130 73 192t142 62q91 0 124 -62.5t13 -191.5zM514 883q17 116 -4.5 166.5t-91.5 50.5q-73 0 -115 -52t-59 -165l-105 -658
q-19 -116 4 -167.5t93 -51.5q71 0 113 52.5t61 166.5z" />
    <glyph glyph-name="otilde" unicode="&#xf5;" 
d="M641 1462l-16 -108q-12 -78 -43 -122t-74 -44q-33 0 -50 30t-28 103l-2 20q-6 51 -14 71t-25 20q-44 0 -67 -138l-15 -102h-41l15 98q27 178 114 178q31 0 46 -27t24 -95l4 -21q8 -56 18.5 -78t30.5 -22q45 0 66 129l16 108h41zM555 883l-104 -658q-22 -131 -74 -193.5
t-141 -62.5q-181 0 -138 256l105 658q20 130 73 192t142 62q91 0 124 -62.5t13 -191.5zM514 883q17 116 -4.5 166.5t-91.5 50.5q-73 0 -115 -52t-59 -165l-105 -658q-19 -116 4 -167.5t93 -51.5q71 0 113 52.5t61 166.5z" />
    <glyph glyph-name="odieresis" unicode="&#xf6;" 
d="M504 1286l12 82h82l-12 -82h-82zM299 1286l12 82h82l-12 -82h-82zM555 883l-104 -658q-22 -131 -74 -193.5t-141 -62.5q-181 0 -138 256l105 658q20 130 73 192t142 62q91 0 124 -62.5t13 -191.5zM514 883q17 116 -4.5 166.5t-91.5 50.5q-73 0 -115 -52t-59 -165
l-105 -658q-19 -116 4 -167.5t93 -51.5q71 0 113 52.5t61 166.5z" />
    <glyph glyph-name="divide" unicode="&#xf7;" horiz-adv-x="821" 
d="M508 858l16 103h74l-16 -103h-74zM852 713l-6 -37h-656l9 37h653zM438 430l17 102h73l-16 -102h-74z" />
    <glyph glyph-name="oslash" unicode="&#xf8;" 
d="M555 883l-104 -658q-22 -131 -74 -193.5t-141 -62.5q-83 0 -117 51l-23 -51l-37 11l37 90q-12 60 2 155l105 658q20 130 73 192t142 62q79 0 117 -50l20 50l37 -11l-37 -88q13 -51 0 -155zM131 145l383 895q-20 60 -96 60q-73 0 -115 -52t-59 -165l-105 -658
q-8 -39 -8 -80zM514 883q3 24 8 78l-383 -893q18 -62 97 -62q71 0 113 52.5t61 166.5z" />
    <glyph glyph-name="ugrave" unicode="&#xf9;" horiz-adv-x="501" 
d="M129 1188h-37l-129 280h41zM250 1106h41l-139 -881q-36 -219 81 -219q69 0 123 72t76 209l129 819h41l-176 -1106h-41l21 125h-5q-69 -156 -184 -156q-70 0 -98.5 64t-7.5 192z" />
    <glyph glyph-name="uacute" unicode="&#xfa;" horiz-adv-x="501" 
d="M137 1188h-37l125 280h41zM250 1106h41l-139 -881q-36 -219 81 -219q69 0 123 72t76 209l129 819h41l-176 -1106h-41l21 125h-5q-69 -156 -184 -156q-70 0 -98.5 64t-7.5 192z" />
    <glyph glyph-name="ucircumflex" unicode="&#xfb;" horiz-adv-x="501" 
d="M43 1188h-37l135 280h62l45 -280h-37l-43 242h-4zM250 1106h41l-139 -881q-36 -219 81 -219q69 0 123 72t76 209l129 819h41l-176 -1106h-41l21 125h-5q-69 -156 -184 -156q-70 0 -98.5 64t-7.5 192z" />
    <glyph glyph-name="udieresis" unicode="&#xfc;" horiz-adv-x="501" 
d="M199 1286l12 82h82l-12 -82h-82zM-6 1286l12 82h82l-12 -82h-82zM250 1106h41l-139 -881q-36 -219 81 -219q69 0 123 72t76 209l129 819h41l-176 -1106h-41l21 125h-5q-69 -156 -184 -156q-70 0 -98.5 64t-7.5 192z" />
    <glyph glyph-name="yacute" unicode="&#xfd;" horiz-adv-x="473" 
d="M440 1188h-37l125 280h41zM238 -66q-30 -109 -62.5 -139.5t-130.5 -30.5l6 37q32 0 49 0.5t34.5 10.5t24 17t18.5 37t17.5 52.5t20.5 81.5l2 1106h41v-895l-8 -113h4l29 113l282 895h41l-350 -1106z" />
    <glyph glyph-name="thorn" unicode="&#xfe;" horiz-adv-x="489" 
d="M463 223q-43 -254 -187 -254q-56 0 -92 40t-45 116h-4l-88 -555h-41l311 1966h41l-88 -555h4q69 156 185 156q70 0 98.5 -64t7.5 -192zM268 6q118 0 154 217l102 658q19 114 0 166.5t-78 52.5q-69 0 -124 -72t-76 -209l-86 -534q-21 -137 9 -208t99 -71z" />
    <glyph glyph-name="ydieresis" unicode="&#xff;" horiz-adv-x="473" 
d="M502 1286l12 82h82l-12 -82h-82zM297 1286l12 82h82l-12 -82h-82zM238 -66q-30 -109 -62.5 -139.5t-130.5 -30.5l6 37q32 0 49 0.5t34.5 10.5t24 17t18.5 37t17.5 52.5t20.5 81.5l2 1106h41v-895l-8 -113h4l29 113l282 895h41l-350 -1106z" />
    <glyph glyph-name="Amacron" unicode="&#x100;" horiz-adv-x="493" 
d="M692 1675l-4 -37h-369l5 37h368zM494 1434l-41 -1434h-41l12 401h-225l-115 -401h-41l410 1434h41zM209 438h215l25 752l12 145h-4l-33 -145z" />
    <glyph glyph-name="amacron" unicode="&#x101;" horiz-adv-x="487" 
d="M643 1348l-4 -37h-369l4 37h369zM424 0h-41l31 186h-4q-39 -105 -95.5 -161t-119.5 -56q-65 0 -91.5 64t-5.5 192l33 211q40 254 191 254q59 0 96.5 -39t46.5 -106h4l53 336q19 115 -5.5 167t-96.5 52q-71 0 -110 -51t-56 -166l-14 -90h-41l14 90q20 130 72.5 192
t142.5 62t123.5 -62t13.5 -192zM207 6q78 0 143.5 100t93.5 283l9 47q15 95 -19.5 156t-103.5 61q-122 0 -158 -217l-33 -211q-19 -114 -2.5 -166.5t70.5 -52.5z" />
    <glyph glyph-name="Abreve" unicode="&#x102;" horiz-adv-x="493" 
d="M352 1796h41q-40 -244 99 -244q136 0 176 244h41q-22 -133 -74.5 -206.5t-149.5 -73.5t-126 73.5t-7 206.5zM494 1434l-41 -1434h-41l12 401h-225l-115 -401h-41l410 1434h41zM209 438h215l25 752l12 145h-4l-33 -145z" />
    <glyph glyph-name="abreve" unicode="&#x103;" horiz-adv-x="487" 
d="M303 1468h41q-40 -243 98 -243q136 0 176 243h41q-22 -134 -74 -207t-149 -73t-126 73.5t-7 206.5zM424 0h-41l31 186h-4q-39 -105 -95.5 -161t-119.5 -56q-65 0 -91.5 64t-5.5 192l33 211q40 254 191 254q59 0 96.5 -39t46.5 -106h4l53 336q19 115 -5.5 167t-96.5 52
q-71 0 -110 -51t-56 -166l-14 -90h-41l14 90q20 130 72.5 192t142.5 62t123.5 -62t13.5 -192zM207 6q78 0 143.5 100t93.5 283l9 47q15 95 -19.5 156t-103.5 61q-122 0 -158 -217l-33 -211q-19 -114 -2.5 -166.5t70.5 -52.5z" />
    <glyph glyph-name="Aogonek" unicode="&#x104;" horiz-adv-x="493" 
d="M494 1434l-41 -1434h-4q-91 -8 -155 -54t-73 -112q-9 -50 18.5 -78t82.5 -28q47 0 114 24l-6 -37q-68 -24 -123 -24q-70 0 -104.5 35.5t-24.5 97.5q10 71 74 122t160 66l12 389h-225l-115 -401h-41l410 1434h41zM209 438h215l25 752l12 145h-4l-33 -145z" />
    <glyph glyph-name="aogonek" unicode="&#x105;" horiz-adv-x="487" 
d="M424 0h-2q-91 -8 -154.5 -54t-72.5 -112q-9 -50 18 -78t82 -28q47 0 115 24l-7 -37q-67 -24 -122 -24q-70 0 -104.5 35.5t-24.5 97.5q10 72 73.5 122.5t159.5 65.5l29 174h-4q-39 -105 -95.5 -161t-119.5 -56q-65 0 -91.5 64t-5.5 192l33 211q40 254 191 254
q59 0 96.5 -39t46.5 -106h4l53 336q19 115 -5.5 167t-96.5 52q-71 0 -110 -51t-56 -166l-14 -90h-41l14 90q20 130 72.5 192t142.5 62t123.5 -62t13.5 -192zM207 6q78 0 143.5 100t93.5 283l9 47q15 95 -19.5 156t-103.5 61q-122 0 -158 -217l-33 -211q-19 -114 -2.5 -166.5
t70.5 -52.5z" />
    <glyph glyph-name="Cacute" unicode="&#x106;" horiz-adv-x="518" 
d="M514 1516h-37l125 280h41zM594 1210q19 113 -6.5 165t-98.5 52q-74 0 -118.5 -52.5t-63.5 -164.5l-155 -985q-19 -114 6 -166.5t98 -52.5q74 0 118.5 53t63.5 166l41 258h41l-41 -258q-40 -256 -223 -256q-185 0 -145 256l155 985q22 129 77 191.5t149 62.5
q186 0 143 -254l-41 -258h-41z" />
    <glyph glyph-name="cacute" unicode="&#x107;" 
d="M438 1188h-37l125 280h41zM514 883q17 116 -4.5 166.5t-91.5 50.5q-73 0 -115 -52t-59 -165l-105 -658q-19 -116 4 -167.5t93 -51.5q71 0 113 52.5t61 166.5l26 172h41l-26 -172q-22 -131 -74 -193.5t-141 -62.5q-181 0 -138 256l105 658q20 130 73 192t142 62
q91 0 124 -62.5t13 -191.5l-29 -172h-41z" />
    <glyph glyph-name="Ccircumflex" unicode="&#x108;" horiz-adv-x="518" 
d="M420 1516h-37l135 280h62l45 -280h-37l-43 241h-4zM594 1210q19 113 -6.5 165t-98.5 52q-74 0 -118.5 -52.5t-63.5 -164.5l-155 -985q-19 -114 6 -166.5t98 -52.5q74 0 118.5 53t63.5 166l41 258h41l-41 -258q-40 -256 -223 -256q-185 0 -145 256l155 985
q22 129 77 191.5t149 62.5q186 0 143 -254l-41 -258h-41z" />
    <glyph glyph-name="ccircumflex" unicode="&#x109;" 
d="M344 1188h-37l135 280h62l45 -280h-37l-43 242h-4zM514 883q17 116 -4.5 166.5t-91.5 50.5q-73 0 -115 -52t-59 -165l-105 -658q-19 -116 4 -167.5t93 -51.5q71 0 113 52.5t61 166.5l26 172h41l-26 -172q-22 -131 -74 -193.5t-141 -62.5q-181 0 -138 256l105 658
q20 130 73 192t142 62q91 0 124 -62.5t13 -191.5l-29 -172h-41z" />
    <glyph glyph-name="Cdotaccent" unicode="&#x10a;" horiz-adv-x="518" 
d="M473 1614l12 82h82l-12 -82h-82zM594 1210q19 113 -6.5 165t-98.5 52q-74 0 -118.5 -52.5t-63.5 -164.5l-155 -985q-19 -114 6 -166.5t98 -52.5q74 0 118.5 53t63.5 166l41 258h41l-41 -258q-40 -256 -223 -256q-185 0 -145 256l155 985q22 129 77 191.5t149 62.5
q186 0 143 -254l-41 -258h-41z" />
    <glyph glyph-name="cdotaccent" unicode="&#x10b;" 
d="M397 1286l13 82h82l-13 -82h-82zM514 883q17 116 -4.5 166.5t-91.5 50.5q-73 0 -115 -52t-59 -165l-105 -658q-19 -116 4 -167.5t93 -51.5q71 0 113 52.5t61 166.5l26 172h41l-26 -172q-22 -131 -74 -193.5t-141 -62.5q-181 0 -138 256l105 658q20 130 73 192t142 62
q91 0 124 -62.5t13 -191.5l-29 -172h-41z" />
    <glyph glyph-name="Ccaron" unicode="&#x10c;" horiz-adv-x="518" 
d="M623 1796h36l-135 -280h-61l-45 280h37l43 -242h4zM594 1210q19 113 -6.5 165t-98.5 52q-74 0 -118.5 -52.5t-63.5 -164.5l-155 -985q-19 -114 6 -166.5t98 -52.5q74 0 118.5 53t63.5 166l41 258h41l-41 -258q-40 -256 -223 -256q-185 0 -145 256l155 985
q22 129 77 191.5t149 62.5q186 0 143 -254l-41 -258h-41z" />
    <glyph glyph-name="ccaron" unicode="&#x10d;" 
d="M547 1468h37l-135 -280h-62l-45 280h37l43 -241h4zM514 883q17 116 -4.5 166.5t-91.5 50.5q-73 0 -115 -52t-59 -165l-105 -658q-19 -116 4 -167.5t93 -51.5q71 0 113 52.5t61 166.5l26 172h41l-26 -172q-22 -131 -74 -193.5t-141 -62.5q-181 0 -138 256l105 658
q20 130 73 192t142 62q91 0 124 -62.5t13 -191.5l-29 -172h-41z" />
    <glyph glyph-name="Dcaron" unicode="&#x10e;" horiz-adv-x="526" 
d="M590 1796h37l-135 -280h-62l-45 280h37l43 -242h4zM639 1180l-147 -924q-20 -130 -84.5 -193t-178.5 -63h-145l225 1434h144q114 0 160 -62.5t26 -191.5zM598 1180q19 114 -15.5 165.5t-129.5 51.5h-107l-217 -1360h98q96 0 151.5 53t72.5 166z" />
    <glyph glyph-name="dcaron" unicode="&#x10f;" horiz-adv-x="489" 
d="M645 1174l76 362h41l-88 -362h-29zM203 883q40 254 186 254q56 0 92 -40t45 -116h4l88 555h41l-243 -1536h-41l20 125h-4q-33 -76 -81.5 -116t-104.5 -40q-70 0 -98.5 63.5t-8.5 192.5zM217 6q69 0 125 72t78 209l84 534q22 136 -8 207.5t-99 71.5q-117 0 -153 -217
l-105 -658q-17 -114 1.5 -166.5t76.5 -52.5z" />
    <glyph glyph-name="Dcroat" unicode="&#x110;" horiz-adv-x="526" 
d="M639 1180l-147 -924q-20 -130 -84.5 -193t-178.5 -63h-145l109 696h-74l4 37h76l110 701h144q114 0 160 -62.5t26 -191.5zM598 1180q19 114 -15.5 165.5t-129.5 51.5h-107l-106 -664h129l-4 -37h-132l-104 -659h98q96 0 151.5 53t72.5 166z" />
    <glyph glyph-name="dcroat" unicode="&#x111;" horiz-adv-x="489" 
d="M203 883q40 254 186 254q56 0 92 -40t45 -116h4l45 287h-143l4 37h146l36 231h41l-36 -231h59l-4 -37h-62l-200 -1268h-41l20 125h-4q-33 -76 -81.5 -116t-104.5 -40q-70 0 -98.5 63.5t-8.5 192.5zM217 6q69 0 125 72t78 209l84 534q22 136 -8 207.5t-99 71.5
q-117 0 -153 -217l-105 -658q-17 -114 1.5 -166.5t76.5 -52.5z" />
    <glyph glyph-name="Emacron" unicode="&#x112;" horiz-adv-x="389" 
d="M649 1675l-4 -37h-369l5 37h368zM555 1434l-4 -37h-205l-106 -664h192l-6 -37h-193l-104 -659h223l-4 -37h-264l225 1434h246z" />
    <glyph glyph-name="emacron" unicode="&#x113;" 
d="M633 1348l-4 -37h-369l4 37h369zM436 397h41l-26 -172q-22 -131 -74 -193.5t-141 -62.5q-181 0 -138 256l105 658q20 130 73 192t142 62q91 0 124 -62.5t13 -191.5l-51 -320h-311l-54 -338q-19 -116 4 -167.5t93 -51.5q71 0 113 52.5t61 166.5zM514 883
q17 116 -4.5 166.5t-91.5 50.5q-73 0 -115 -52t-59 -165l-45 -283h270z" />
    <glyph glyph-name="Ebreve" unicode="&#x114;" horiz-adv-x="389" 
d="M309 1796h41q-40 -244 99 -244q136 0 176 244h41q-22 -133 -74.5 -206.5t-149.5 -73.5t-126 73.5t-7 206.5zM555 1434l-4 -37h-205l-106 -664h192l-6 -37h-193l-104 -659h223l-4 -37h-264l225 1434h246z" />
    <glyph glyph-name="ebreve" unicode="&#x115;" 
d="M293 1468h41q-40 -243 98 -243q136 0 176 243h41q-22 -134 -74 -207t-149 -73t-126 73.5t-7 206.5zM436 397h41l-26 -172q-22 -131 -74 -193.5t-141 -62.5q-181 0 -138 256l105 658q20 130 73 192t142 62q91 0 124 -62.5t13 -191.5l-51 -320h-311l-54 -338
q-19 -116 4 -167.5t93 -51.5q71 0 113 52.5t61 166.5zM514 883q17 116 -4.5 166.5t-91.5 50.5q-73 0 -115 -52t-59 -165l-45 -283h270z" />
    <glyph glyph-name="Edotaccent" unicode="&#x116;" horiz-adv-x="389" 
d="M416 1614l12 82h82l-12 -82h-82zM555 1434l-4 -37h-205l-106 -664h192l-6 -37h-193l-104 -659h223l-4 -37h-264l225 1434h246z" />
    <glyph glyph-name="edotaccent" unicode="&#x117;" 
d="M399 1286l13 82h82l-13 -82h-82zM436 397h41l-26 -172q-22 -131 -74 -193.5t-141 -62.5q-181 0 -138 256l105 658q20 130 73 192t142 62q91 0 124 -62.5t13 -191.5l-51 -320h-311l-54 -338q-19 -116 4 -167.5t93 -51.5q71 0 113 52.5t61 166.5zM514 883
q17 116 -4.5 166.5t-91.5 50.5q-73 0 -115 -52t-59 -165l-45 -283h270z" />
    <glyph glyph-name="Eogonek" unicode="&#x118;" horiz-adv-x="389" 
d="M555 1434l-4 -37h-205l-106 -664h192l-6 -37h-193l-104 -659h223l-4 -37h-4q-91 -8 -154.5 -54t-72.5 -112q-9 -50 18 -78t82 -28q47 0 115 24l-6 -37q-68 -24 -123 -24q-70 0 -104.5 35.5t-24.5 97.5q9 61 57.5 107.5t122.5 68.5h-170l225 1434h246z" />
    <glyph glyph-name="eogonek" unicode="&#x119;" 
d="M379 -248l-6 -37q-67 -24 -123 -24q-62 0 -96.5 29.5t-34.5 84.5q0 103 110 164q-174 3 -131 256l105 658q20 130 73 192t142 62q91 0 124 -62.5t13 -191.5l-51 -320h-311l-54 -338q-19 -116 4 -167.5t93 -51.5q71 0 113 52.5t61 166.5l26 172h41l-26 -172
q-37 -228 -177 -252q-112 -55 -112 -153q0 -45 27 -68.5t75 -23.5t115 24zM514 883q17 116 -4.5 166.5t-91.5 50.5q-73 0 -115 -52t-59 -165l-45 -283h270z" />
    <glyph glyph-name="Ecaron" unicode="&#x11a;" horiz-adv-x="389" 
d="M565 1796h37l-135 -280h-61l-46 280h37l43 -242h4zM555 1434l-4 -37h-205l-106 -664h192l-6 -37h-193l-104 -659h223l-4 -37h-264l225 1434h246z" />
    <glyph glyph-name="ecaron" unicode="&#x11b;" 
d="M549 1468h37l-135 -280h-62l-45 280h37l43 -241h4zM436 397h41l-26 -172q-22 -131 -74 -193.5t-141 -62.5q-181 0 -138 256l105 658q20 130 73 192t142 62q91 0 124 -62.5t13 -191.5l-51 -320h-311l-54 -338q-19 -116 4 -167.5t93 -51.5q71 0 113 52.5t61 166.5zM514 883
q17 116 -4.5 166.5t-91.5 50.5q-73 0 -115 -52t-59 -165l-45 -283h270z" />
    <glyph glyph-name="Gcircumflex" unicode="&#x11c;" horiz-adv-x="518" 
d="M420 1516h-37l135 280h62l45 -280h-37l-43 241h-4zM594 1210q19 116 -5.5 166.5t-99.5 50.5q-76 0 -119.5 -51.5t-62.5 -165.5l-155 -985q-19 -114 3.5 -166.5t88.5 -52.5q77 0 128.5 67t71.5 193l66 414h-184l6 37h225l-113 -717h-41l17 109h-4q-30 -66 -78 -103
t-107 -37q-77 0 -108.5 65.5t-11.5 190.5l155 985q22 129 77 191.5t149 62.5q186 0 143 -254l-41 -258h-41z" />
    <glyph glyph-name="gcircumflex" unicode="&#x11d;" 
d="M373 1331h-37l135 281h61l46 -281h-37l-43 242h-4zM553 883l-80 -514q-22 -131 -74 -193.5t-141 -62.5h-55q-35 0 -57 -19.5t-27 -50.5q-9 -63 63 -63h70q70 0 108 -37t29 -97q-9 -59 -58 -94t-122 -35h-33q-71 0 -109.5 35.5t-29.5 91.5q12 73 90 99v4q-25 8 -39 35.5
t-10 60.5q6 36 32.5 60.5t65.5 25.5v4q-85 46 -55 236l80 514q20 122 67.5 183.5t130.5 70.5q75 8 84 61l15 80h41l-13 -61q-6 -38 -22 -58t-47 -24v-5q68 -11 91.5 -70.5t4.5 -176.5zM512 883q19 115 -4 166t-94 51q-72 0 -112.5 -51.5t-59.5 -165.5l-80 -514
q-19 -115 5 -167t95 -52t111 52t59 167zM211 -57q-57 0 -91 -25.5t-42 -69.5q-6 -44 20 -69t82 -25h37q55 0 90 24.5t41 67.5q8 44 -19 70.5t-81 26.5h-37z" />
    <glyph glyph-name="Gbreve" unicode="&#x11e;" horiz-adv-x="518" 
d="M367 1796h41q-40 -244 98 -244q136 0 176 244h41q-22 -134 -74 -207t-149 -73t-126 73.5t-7 206.5zM594 1210q19 116 -5.5 166.5t-99.5 50.5q-76 0 -119.5 -51.5t-62.5 -165.5l-155 -985q-19 -114 3.5 -166.5t88.5 -52.5q77 0 128.5 67t71.5 193l66 414h-184l6 37h225
l-113 -717h-41l17 109h-4q-30 -66 -78 -103t-107 -37q-77 0 -108.5 65.5t-11.5 190.5l155 985q22 129 77 191.5t149 62.5q186 0 143 -254l-41 -258h-41z" />
    <glyph glyph-name="gbreve" unicode="&#x11f;" 
d="M319 1612h41q-40 -244 99 -244q136 0 176 244h41q-22 -134 -74 -207.5t-149 -73.5q-180 0 -134 281zM553 883l-80 -514q-22 -131 -74 -193.5t-141 -62.5h-55q-35 0 -57 -19.5t-27 -50.5q-9 -63 63 -63h70q70 0 108 -37t29 -97q-9 -59 -58 -94t-122 -35h-33
q-71 0 -109.5 35.5t-29.5 91.5q12 73 90 99v4q-25 8 -39 35.5t-10 60.5q6 36 32.5 60.5t65.5 25.5v4q-85 46 -55 236l80 514q20 122 67.5 183.5t130.5 70.5q75 8 84 61l15 80h41l-13 -61q-6 -38 -22 -58t-47 -24v-5q68 -11 91.5 -70.5t4.5 -176.5zM512 883q19 115 -4 166
t-94 51q-72 0 -112.5 -51.5t-59.5 -165.5l-80 -514q-19 -115 5 -167t95 -52t111 52t59 167zM211 -57q-57 0 -91 -25.5t-42 -69.5q-6 -44 20 -69t82 -25h37q55 0 90 24.5t41 67.5q8 44 -19 70.5t-81 26.5h-37z" />
    <glyph glyph-name="Gdotaccent" unicode="&#x120;" horiz-adv-x="518" 
d="M473 1614l12 82h82l-12 -82h-82zM594 1210q19 116 -5.5 166.5t-99.5 50.5q-76 0 -119.5 -51.5t-62.5 -165.5l-155 -985q-19 -114 3.5 -166.5t88.5 -52.5q77 0 128.5 67t71.5 193l66 414h-184l6 37h225l-113 -717h-41l17 109h-4q-30 -66 -78 -103t-107 -37
q-77 0 -108.5 65.5t-11.5 190.5l155 985q22 129 77 191.5t149 62.5q186 0 143 -254l-41 -258h-41z" />
    <glyph glyph-name="gdotaccent" unicode="&#x121;" 
d="M426 1430l12 81h82l-12 -81h-82zM553 883l-80 -514q-22 -131 -74 -193.5t-141 -62.5h-55q-35 0 -57 -19.5t-27 -50.5q-9 -63 63 -63h70q70 0 108 -37t29 -97q-9 -59 -58 -94t-122 -35h-33q-71 0 -109.5 35.5t-29.5 91.5q12 73 90 99v4q-25 8 -39 35.5t-10 60.5
q6 36 32.5 60.5t65.5 25.5v4q-85 46 -55 236l80 514q20 122 67.5 183.5t130.5 70.5q75 8 84 61l15 80h41l-13 -61q-6 -38 -22 -58t-47 -24v-5q68 -11 91.5 -70.5t4.5 -176.5zM512 883q19 115 -4 166t-94 51q-72 0 -112.5 -51.5t-59.5 -165.5l-80 -514q-19 -115 5 -167
t95 -52t111 52t59 167zM211 -57q-57 0 -91 -25.5t-42 -69.5q-6 -44 20 -69t82 -25h37q55 0 90 24.5t41 67.5q8 44 -19 70.5t-81 26.5h-37z" />
    <glyph glyph-name="uni0122" unicode="&#x122;" horiz-adv-x="518" 
d="M594 1210q19 116 -5.5 166.5t-99.5 50.5q-76 0 -119.5 -51.5t-62.5 -165.5l-155 -985q-19 -114 3.5 -166.5t88.5 -52.5q77 0 128.5 67t71.5 193l66 414h-184l6 37h225l-113 -717h-41l17 109h-4q-30 -66 -78 -103t-107 -37q-77 0 -108.5 65.5t-11.5 190.5l155 985
q22 129 77 191.5t149 62.5q186 0 143 -254l-41 -258h-41zM291 -82l-25 -149q-7 -50 -25 -69t-55 -19l7 28q21 0 28 13.5t12 52.5l11 53h-33l14 90h66z" />
    <glyph glyph-name="uni0123" unicode="&#x123;" 
d="M416 1343l24 150q7 50 25 69t55 19l-6 -29q-15 0 -23.5 -8t-11.5 -19t-8 -38l-8 -53h33l-15 -91h-65zM553 883l-80 -514q-22 -131 -74 -193.5t-141 -62.5h-55q-35 0 -57 -19.5t-27 -50.5q-9 -63 63 -63h70q70 0 108 -37t29 -97q-9 -59 -58 -94t-122 -35h-33
q-71 0 -109.5 35.5t-29.5 91.5q12 73 90 99v4q-25 8 -39 35.5t-10 60.5q6 36 32.5 60.5t65.5 25.5v4q-85 46 -55 236l80 514q20 122 67.5 183.5t130.5 70.5q75 8 84 61l15 80h41l-13 -61q-6 -38 -22 -58t-47 -24v-5q68 -11 91.5 -70.5t4.5 -176.5zM512 883q19 115 -4 166
t-94 51q-72 0 -112.5 -51.5t-59.5 -165.5l-80 -514q-19 -115 5 -167t95 -52t111 52t59 167zM211 -57q-57 0 -91 -25.5t-42 -69.5q-6 -44 20 -69t82 -25h37q55 0 90 24.5t41 67.5q8 44 -19 70.5t-81 26.5h-37z" />
    <glyph glyph-name="Hcircumflex" unicode="&#x124;" horiz-adv-x="514" 
d="M422 1516h-37l135 280h62l45 -280h-37l-43 241h-4zM657 1434l-225 -1434h-41l109 696h-267l-108 -696h-41l225 1434h41l-110 -701h266l110 701h41z" />
    <glyph glyph-name="hcircumflex" unicode="&#x125;" horiz-adv-x="501" 
d="M266 1597h-37l136 281h61l45 -281h-37l-43 242h-4zM428 0h-41l139 881q17 115 -1 167t-76 52q-69 0 -125 -72t-78 -209l-129 -819h-41l241 1536h41l-86 -555h4q32 76 80.5 116t104.5 40q69 0 97.5 -63.5t8.5 -192.5z" />
    <glyph glyph-name="Hbar" unicode="&#x126;" horiz-adv-x="514" 
d="M709 1675l-4 -37h-369l4 37h369zM657 1434l-225 -1434h-41l109 696h-267l-108 -696h-41l225 1434h41l-110 -701h266l110 701h41z" />
    <glyph glyph-name="hbar" unicode="&#x127;" horiz-adv-x="501" 
d="M428 0h-41l139 881q17 115 -1 167t-76 52q-69 0 -125 -72t-78 -209l-129 -819h-41l200 1268h-61l4 37h64l34 231h41l-34 -231h141l-4 -37h-144l-45 -287h4q32 76 80.5 116t104.5 40q69 0 97.5 -63.5t8.5 -192.5z" />
    <glyph glyph-name="Itilde" unicode="&#x128;" horiz-adv-x="206" 
d="M555 1790l-16 -109q-12 -78 -43 -121.5t-74 -43.5q-33 0 -50 30t-28 103l-2 20q-6 51 -14 70.5t-25 19.5q-44 0 -67 -137l-15 -102h-41l15 98q27 178 114 178q31 0 46 -27.5t24 -95.5l4 -20q8 -56 18.5 -78.5t30.5 -22.5q45 0 66 129l16 109h41zM350 1434l-225 -1434h-41
l225 1434h41z" />
    <glyph glyph-name="itilde" unicode="&#x129;" horiz-adv-x="190" 
d="M496 1462l-17 -108q-12 -78 -43 -122t-74 -44q-33 0 -49.5 29.5t-27.5 103.5l-2 20q-6 51 -14 71t-25 20q-45 0 -68 -138l-14 -102h-41l14 98q27 178 115 178q31 0 45.5 -26.5t23.5 -95.5l5 -21q8 -56 18.5 -78t30.5 -22q44 0 65 129l17 108h41zM74 0l176 1106h41
l-176 -1106h-41z" />
    <glyph glyph-name="Imacron" unicode="&#x12a;" horiz-adv-x="206" 
d="M549 1675l-4 -37h-369l4 37h369zM350 1434l-225 -1434h-41l225 1434h41z" />
    <glyph glyph-name="imacron" unicode="&#x12b;" horiz-adv-x="190" 
d="M489 1348l-4 -37h-368l4 37h368zM74 0l176 1106h41l-176 -1106h-41z" />
    <glyph glyph-name="Ibreve" unicode="&#x12c;" horiz-adv-x="206" 
d="M209 1796h41q-40 -244 98 -244q136 0 176 244h41q-22 -134 -74 -207t-149 -73t-126 73.5t-7 206.5zM350 1434l-225 -1434h-41l225 1434h41z" />
    <glyph glyph-name="ibreve" unicode="&#x12d;" horiz-adv-x="190" 
d="M150 1468h40q-40 -243 99 -243q136 0 176 243h41q-22 -134 -74 -207t-149 -73t-126 73.5t-7 206.5zM74 0l176 1106h41l-176 -1106h-41z" />
    <glyph glyph-name="Iogonek" unicode="&#x12e;" horiz-adv-x="206" 
d="M350 1434l-225 -1434q-92 -7 -156 -53.5t-75 -112.5q-7 -50 20 -78t82 -28q48 0 115 24l-7 -37q-68 -24 -122 -24q-70 0 -104.5 35.5t-24.5 97.5q10 72 73.5 122.5t159.5 65.5l223 1422h41z" />
    <glyph glyph-name="iogonek" unicode="&#x12f;" horiz-adv-x="190" 
d="M264 1188l25 164h41l-25 -164h-41zM102 -248l-6 -37q-68 -24 -123 -24q-70 0 -104.5 35.5t-24.5 97.5q10 71 74 122t160 66l172 1094h41l-174 -1106q-92 -7 -156.5 -53.5t-75.5 -112.5q-7 -50 20.5 -78t82.5 -28q46 0 114 24z" />
    <glyph glyph-name="Idotaccent" unicode="&#x130;" horiz-adv-x="206" 
d="M315 1614l13 82h82l-13 -82h-82zM350 1434l-225 -1434h-41l225 1434h41z" />
    <glyph glyph-name="dotlessi" unicode="&#x131;" horiz-adv-x="190" 
d="M74 0l176 1106h41l-176 -1106h-41z" />
    <glyph glyph-name="IJ" unicode="&#x132;" horiz-adv-x="692" 
d="M350 1434l-225 -1434h-41l225 1434h41zM846 1434l-193 -1209q-20 -130 -75 -193t-148 -63q-185 0 -145 256l41 258h41l-41 -258q-17 -115 7 -167t97 -52q149 0 182 219l193 1209h41z" />
    <glyph glyph-name="ij" unicode="&#x133;" horiz-adv-x="354" 
d="M264 1188l25 164h41l-25 -164h-41zM494 1352l-27 -164h-41l27 164h41zM76 0l174 1106h41l-174 -1106h-41zM455 1106l-189 -1180q-6 -41 -9.5 -59.5t-11 -42.5t-16 -32.5t-25 -18.5t-38.5 -12.5t-55 -2.5l6 37h37t24.5 5.5t17.5 11t11 24t9.5 35.5t8.5 55l189 1180h41z
" />
    <glyph glyph-name="Jcircumflex" unicode="&#x134;" horiz-adv-x="485" 
d="M551 1516h-37l135 280h62l45 -280h-37l-43 241h-4zM639 1434l-193 -1209q-20 -130 -75 -193t-148 -63q-185 0 -145 256l41 258h41l-41 -258q-17 -115 7 -167t97 -52q150 0 183 219l192 1209h41z" />
    <glyph glyph-name="jcircumflex" unicode="&#x135;" horiz-adv-x="163" 
d="M176 1188h-37l135 280h62l45 -280h-37l-43 242h-4zM264 1106l-188 -1180q-6 -40 -9.5 -59t-11 -43t-16.5 -33t-25.5 -18.5t-38.5 -12t-55 -2.5l6 37h37t24.5 5.5t18 11t11 23.5t9.5 36t9 55l188 1180h41z" />
    <glyph glyph-name="uni0136" unicode="&#x136;" horiz-adv-x="514" 
d="M657 1434l-290 -570v-4l106 -860h-43l-98 795h-4l-113 -226l-90 -569h-41l225 1434h41l-117 -740h5l376 740h43zM311 -82l-24 -149q-7 -50 -25 -69t-55 -19l6 28q22 0 29 14t12 52l10 53h-33l15 90h65z" />
    <glyph glyph-name="uni0137" unicode="&#x137;" horiz-adv-x="505" 
d="M598 1106l-270 -440v-4l137 -662h-43l-127 610h-4l-105 -172l-69 -438h-41l241 1536h41l-157 -999h4l348 569h45zM297 -82l-25 -149q-7 -50 -24.5 -69t-54.5 -19l6 28q22 0 29 14t12 52l10 53h-33l14 90h66z" />
    <glyph glyph-name="kgreenlandic" unicode="&#x138;" horiz-adv-x="505" 
d="M598 1106l-270 -440v-4l137 -662h-43l-127 610h-4l-105 -172l-69 -438h-41l174 1106h41l-90 -569h4l348 569h45z" />
    <glyph glyph-name="Lacute" unicode="&#x139;" horiz-adv-x="368" 
d="M354 1516h-37l125 280h41zM309 1434h41l-221 -1397h203l-4 -37h-244z" />
    <glyph glyph-name="lacute" unicode="&#x13a;" horiz-adv-x="190" 
d="M360 1597h-36l125 281h40zM76 0l241 1536h41l-241 -1536h-41z" />
    <glyph glyph-name="uni013B" unicode="&#x13b;" horiz-adv-x="368" 
d="M309 1434h41l-221 -1397h203l-4 -37h-244zM231 -82l-24 -149q-7 -50 -25 -69t-55 -19l6 28q22 0 29 14t12 52l10 53h-32l14 90h65z" />
    <glyph glyph-name="uni013C" unicode="&#x13c;" horiz-adv-x="190" 
d="M76 0l241 1536h41l-241 -1536h-41zM131 -61l-25 -150q-7 -50 -24.5 -69t-54.5 -19l6 29q22 0 29 13.5t12 51.5l10 53h-33l15 91h65z" />
    <glyph glyph-name="Lcaron" unicode="&#x13d;" horiz-adv-x="368" 
d="M379 1071l76 363h41l-88 -363h-29zM309 1434h41l-221 -1397h203l-4 -37h-244z" />
    <glyph glyph-name="lcaron" unicode="&#x13e;" horiz-adv-x="190" 
d="M385 1174l76 362h41l-88 -362h-29zM76 0l241 1536h41l-241 -1536h-41z" />
    <glyph glyph-name="Ldot" unicode="&#x13f;" horiz-adv-x="368" 
d="M309 1434h41l-221 -1397h203l-4 -37h-244zM305 684l12 82h82l-12 -82h-82z" />
    <glyph glyph-name="ldot" unicode="&#x140;" horiz-adv-x="190" 
d="M76 0l241 1536h41l-241 -1536h-41zM297 723l12 82h82l-12 -82h-82z" />
    <glyph glyph-name="Lslash" unicode="&#x141;" horiz-adv-x="368" 
d="M309 1434h41l-106 -676l102 39l6 -35l-114 -47l-109 -678h203l-4 -37h-244l111 698l-89 -34l-10 34l105 41z" />
    <glyph glyph-name="lslash" unicode="&#x142;" horiz-adv-x="190" 
d="M76 0l117 739l-48 -18l-10 35l64 24l118 756h41l-116 -737l47 16l6 -35l-59 -24l-119 -756h-41z" />
    <glyph glyph-name="Nacute" unicode="&#x143;" horiz-adv-x="534" 
d="M528 1516h-36l124 280h41zM678 1434l-225 -1434h-54l-65 1186l-2 147h-4l-17 -147l-186 -1186h-41l225 1434h53l66 -1184l4 -146h4l15 148l186 1182h41z" />
    <glyph glyph-name="nacute" unicode="&#x144;" horiz-adv-x="501" 
d="M467 1188h-37l125 280h41zM426 0h-41l139 881q19 114 0 166.5t-78 52.5q-69 0 -124.5 -72t-77.5 -209l-129 -819h-41l176 1106h41l-21 -125h4q69 156 185 156q70 0 98.5 -64t7.5 -192z" />
    <glyph glyph-name="uni0145" unicode="&#x145;" horiz-adv-x="534" 
d="M678 1434l-225 -1434h-54l-65 1186l-2 147h-4l-17 -147l-186 -1186h-41l225 1434h53l66 -1184l4 -146h4l15 148l186 1182h41zM293 -82l-25 -149q-7 -50 -25 -69t-55 -19l7 28q22 0 29 14t12 52l10 53h-33l14 90h66z" />
    <glyph glyph-name="uni0146" unicode="&#x146;" horiz-adv-x="501" 
d="M426 0h-41l139 881q19 114 0 166.5t-78 52.5q-69 0 -124.5 -72t-77.5 -209l-129 -819h-41l176 1106h41l-21 -125h4q69 156 185 156q70 0 98.5 -64t7.5 -192zM283 -82l-25 -149q-7 -50 -25 -69t-55 -19l6 28q22 0 29 14t12 52l11 53h-33l14 90h66z" />
    <glyph glyph-name="Ncaron" unicode="&#x147;" horiz-adv-x="534" 
d="M637 1796h37l-135 -280h-62l-45 280h37l43 -242h4zM678 1434l-225 -1434h-54l-65 1186l-2 147h-4l-17 -147l-186 -1186h-41l225 1434h53l66 -1184l4 -146h4l15 148l186 1182h41z" />
    <glyph glyph-name="ncaron" unicode="&#x148;" horiz-adv-x="501" 
d="M575 1468h37l-135 -280h-61l-45 280h37l43 -241h4zM426 0h-41l139 881q19 114 0 166.5t-78 52.5q-69 0 -124.5 -72t-77.5 -209l-129 -819h-41l176 1106h41l-21 -125h4q69 156 185 156q70 0 98.5 -64t7.5 -192z" />
    <glyph glyph-name="napostrophe" unicode="&#x149;" horiz-adv-x="1136" 
d="M84 0l225 1434h971l-225 -1434h-971zM459 1331l237 -530l404 530h-641zM733 717l246 -547l172 1094zM385 1264l-172 -1094l418 547zM668 633l-404 -531h641z" />
    <glyph glyph-name="Eng" unicode="&#x14a;" horiz-adv-x="534" 
d="M680 1434l-240 -1508q-6 -41 -9.5 -59.5t-11 -42.5t-16 -32.5t-25 -18.5t-38.5 -12.5t-55 -2.5l6 37h37t24.5 5.5t17.5 11t11 24t9.5 35.5t8.5 55l13 74l-76 1186l-4 147h-4l-15 -147l-188 -1186h-41l227 1434h54l71 -1330h4l11 148l188 1182h41z" />
    <glyph glyph-name="eng" unicode="&#x14b;" horiz-adv-x="501" 
d="M260 -242l6 37h37t24.5 5.5t18 11t11 23.5t9.5 36t9 55l151 955q33 219 -84 219q-69 0 -121 -71.5t-75 -209.5l-131 -819h-41l176 1106h41l-21 -125h4q69 156 185 156q70 0 99 -64t9 -192l-151 -955q-6 -34 -8 -46t-7.5 -35.5t-10 -30.5t-13 -21t-17.5 -17.5t-24 -9.5
t-33 -7t-43 -1z" />
    <glyph glyph-name="Omacron" unicode="&#x14c;" horiz-adv-x="518" 
d="M707 1675l-5 -37h-368l4 37h369zM635 1210l-156 -985q-20 -130 -75 -193t-148 -63q-185 0 -145 256l155 985q22 129 77 191.5t149 62.5q186 0 143 -254zM594 1210q19 114 -5.5 165.5t-99.5 51.5t-119 -52t-63 -165l-155 -985q-19 -115 5.5 -167t98.5 -52q75 0 119 52.5
t63 166.5z" />
    <glyph glyph-name="omacron" unicode="&#x14d;" 
d="M635 1348l-4 -37h-369l4 37h369zM555 883l-104 -658q-22 -131 -74 -193.5t-141 -62.5q-181 0 -138 256l105 658q20 130 73 192t142 62q91 0 124 -62.5t13 -191.5zM514 883q17 116 -4.5 166.5t-91.5 50.5q-73 0 -115 -52t-59 -165l-105 -658q-19 -116 4 -167.5t93 -51.5
q71 0 113 52.5t61 166.5z" />
    <glyph glyph-name="Obreve" unicode="&#x14e;" horiz-adv-x="518" 
d="M367 1796h41q-40 -244 98 -244q136 0 176 244h41q-22 -134 -74 -207t-149 -73t-126 73.5t-7 206.5zM635 1210l-156 -985q-20 -130 -75 -193t-148 -63q-185 0 -145 256l155 985q22 129 77 191.5t149 62.5q186 0 143 -254zM594 1210q19 114 -5.5 165.5t-99.5 51.5t-119 -52
t-63 -165l-155 -985q-19 -115 5.5 -167t98.5 -52q75 0 119 52.5t63 166.5z" />
    <glyph glyph-name="obreve" unicode="&#x14f;" 
d="M295 1468h41q-40 -243 98 -243q136 0 176 243h41q-22 -134 -74 -207t-149 -73t-126 73.5t-7 206.5zM555 883l-104 -658q-22 -131 -74 -193.5t-141 -62.5q-181 0 -138 256l105 658q20 130 73 192t142 62q91 0 124 -62.5t13 -191.5zM514 883q17 116 -4.5 166.5t-91.5 50.5
q-73 0 -115 -52t-59 -165l-105 -658q-19 -116 4 -167.5t93 -51.5q71 0 113 52.5t61 166.5z" />
    <glyph glyph-name="Ohungarumlaut" unicode="&#x150;" horiz-adv-x="518" 
d="M440 1516h-37l125 280h41zM584 1516h-37l125 280h41zM635 1210l-156 -985q-20 -130 -75 -193t-148 -63q-185 0 -145 256l155 985q22 129 77 191.5t149 62.5q186 0 143 -254zM594 1210q19 114 -5.5 165.5t-99.5 51.5t-119 -52t-63 -165l-155 -985q-19 -115 5.5 -167
t98.5 -52q75 0 119 52.5t63 166.5z" />
    <glyph glyph-name="ohungarumlaut" unicode="&#x151;" 
d="M369 1188h-37l125 280h41zM512 1188h-37l125 280h41zM555 883l-104 -658q-22 -131 -74 -193.5t-141 -62.5q-181 0 -138 256l105 658q20 130 73 192t142 62q91 0 124 -62.5t13 -191.5zM514 883q17 116 -4.5 166.5t-91.5 50.5q-73 0 -115 -52t-59 -165l-105 -658
q-19 -116 4 -167.5t93 -51.5q71 0 113 52.5t61 166.5z" />
    <glyph glyph-name="OE" unicode="&#x152;" horiz-adv-x="638" 
d="M485 1434h320l-4 -37h-205l-107 -664h193l-6 -37h-193l-104 -659h223l-4 -37h-336q-187 0 -147 256l147 924q20 129 74.5 191.5t148.5 62.5zM338 37l217 1360h-74q-75 0 -117 -51.5t-61 -165.5l-147 -924q-17 -115 8.5 -167t101.5 -52h72z" />
    <glyph glyph-name="oe" unicode="&#x153;" horiz-adv-x="788" 
d="M504 563l-53 -338q-19 -116 3.5 -167.5t92.5 -51.5q71 0 113 52.5t61 166.5l27 172h40l-26 -172q-22 -131 -74 -193.5t-141 -62.5q-62 0 -95 30t-40 99h-4q-29 -69 -70.5 -99t-101.5 -30q-181 0 -138 256l105 658q20 130 73 192t142 62q61 0 93.5 -29.5t39.5 -97.5h4
q30 69 72 98t102 29q91 0 124 -62.5t13 -191.5l-51 -320h-311zM825 883q17 116 -4.5 166.5t-91.5 50.5q-73 0 -115 -52t-59 -165l-45 -283h270zM514 883q17 116 -4.5 166.5t-91.5 50.5q-73 0 -115 -52t-59 -165l-105 -658q-19 -116 4 -167.5t93 -51.5q71 0 113 52.5
t61 166.5z" />
    <glyph glyph-name="Racute" unicode="&#x154;" horiz-adv-x="509" 
d="M514 1516h-37l125 280h41zM309 1434h144q114 0 160 -62.5t26 -191.5l-43 -265q-27 -188 -156 -235v-4q109 -45 82 -234l-37 -229q-16 -112 -16 -205v-8h-41q0 101 16 213l37 229q19 114 -15.5 165.5t-129.5 51.5h-107l-104 -659h-41zM346 1397l-113 -701h103
q96 0 149 52.5t70 166.5l43 265q19 114 -15.5 165.5t-129.5 51.5h-107z" />
    <glyph glyph-name="racute" unicode="&#x155;" horiz-adv-x="350" 
d="M377 1188h-37l125 280h41zM250 1106h41l-27 -168h4q41 168 215 168l-6 -37q-190 0 -233 -252l-129 -817h-41z" />
    <glyph glyph-name="uni0156" unicode="&#x156;" horiz-adv-x="509" 
d="M309 1434h144q114 0 160 -62.5t26 -191.5l-43 -265q-27 -188 -156 -235v-4q109 -45 82 -234l-37 -229q-16 -112 -16 -205v-8h-41q0 101 16 213l37 229q19 114 -15.5 165.5t-129.5 51.5h-107l-104 -659h-41zM346 1397l-113 -701h103q96 0 149 52.5t70 166.5l43 265
q19 114 -15.5 165.5t-129.5 51.5h-107zM309 -82l-24 -149q-7 -50 -25 -69t-55 -19l6 28q22 0 29 14t12 52l10 53h-33l15 90h65z" />
    <glyph glyph-name="uni0157" unicode="&#x157;" horiz-adv-x="350" 
d="M250 1106h41l-27 -168h4q41 168 215 168l-6 -37q-190 0 -233 -252l-129 -817h-41zM127 -82l-25 -149q-7 -50 -24.5 -69t-54.5 -19l6 28q22 0 29 14t12 52l10 53h-33l14 90h66z" />
    <glyph glyph-name="Rcaron" unicode="&#x158;" horiz-adv-x="509" 
d="M623 1796h36l-135 -280h-61l-45 280h37l43 -242h4zM309 1434h144q114 0 160 -62.5t26 -191.5l-43 -265q-27 -188 -156 -235v-4q109 -45 82 -234l-37 -229q-16 -112 -16 -205v-8h-41q0 101 16 213l37 229q19 114 -15.5 165.5t-129.5 51.5h-107l-104 -659h-41zM346 1397
l-113 -701h103q96 0 149 52.5t70 166.5l43 265q19 114 -15.5 165.5t-129.5 51.5h-107z" />
    <glyph glyph-name="rcaron" unicode="&#x159;" horiz-adv-x="350" 
d="M485 1468h37l-135 -280h-61l-45 280h36l43 -241h5zM250 1106h41l-27 -168h4q41 168 215 168l-6 -37q-190 0 -233 -252l-129 -817h-41z" />
    <glyph glyph-name="Sacute" unicode="&#x15a;" horiz-adv-x="528" 
d="M520 1516h-37l125 280h41zM604 1014h-41l31 196q20 119 -4.5 168t-93.5 49q-71 0 -115.5 -49.5t-63.5 -167.5l-18 -123q-24 -158 80 -323q20 -33 27.5 -45t26.5 -44t26.5 -49.5t21.5 -48.5t19 -54.5t10.5 -54t5 -60t-5.5 -60.5l-21 -123q-40 -256 -231 -256
q-93 0 -130.5 60.5t-16.5 195.5l30 197h41l-30 -197q-20 -119 7.5 -169t102.5 -50q74 0 121 50.5t66 168.5l20 123q4 27 5 52.5t-3.5 50.5t-8.5 45.5t-14.5 46t-17.5 41.5t-22 42.5t-22 38.5t-24 40q-19 32 -28.5 48.5t-25.5 47t-23.5 51t-17 51.5t-12.5 57.5t-3 59.5t6 67
l18 123q21 134 76.5 194t145.5 60q88 0 123 -60t14 -194z" />
    <glyph glyph-name="sacute" unicode="&#x15b;" 
d="M440 1188h-37l125 280h41zM528 784h-41l25 150q24 166 -96 166q-57 0 -99.5 -40t-56.5 -130l-16 -105q-16 -107 94 -252q66 -85 98 -158t19 -163l-15 -86q-16 -100 -72 -148.5t-135 -48.5t-120 49t-25 152l25 154h41l-23 -150q-26 -168 105 -168q63 0 107 39.5t58 128.5
l15 92q9 63 -23.5 131.5t-91.5 147.5q-54 78 -80.5 148t-15.5 149l16 96q16 102 68.5 150.5t128.5 48.5q77 0 114 -48.5t21 -150.5z" />
    <glyph glyph-name="Scircumflex" unicode="&#x15c;" horiz-adv-x="528" 
d="M426 1516h-37l135 280h62l45 -280h-37l-43 241h-4zM604 1014h-41l31 196q20 119 -4.5 168t-93.5 49q-71 0 -115.5 -49.5t-63.5 -167.5l-18 -123q-24 -158 80 -323q20 -33 27.5 -45t26.5 -44t26.5 -49.5t21.5 -48.5t19 -54.5t10.5 -54t5 -60t-5.5 -60.5l-21 -123
q-40 -256 -231 -256q-93 0 -130.5 60.5t-16.5 195.5l30 197h41l-30 -197q-20 -119 7.5 -169t102.5 -50q74 0 121 50.5t66 168.5l20 123q4 27 5 52.5t-3.5 50.5t-8.5 45.5t-14.5 46t-17.5 41.5t-22 42.5t-22 38.5t-24 40q-19 32 -28.5 48.5t-25.5 47t-23.5 51t-17 51.5
t-12.5 57.5t-3 59.5t6 67l18 123q21 134 76.5 194t145.5 60q88 0 123 -60t14 -194z" />
    <glyph glyph-name="scircumflex" unicode="&#x15d;" 
d="M346 1188h-37l135 280h62l45 -280h-37l-43 242h-4zM528 784h-41l25 150q24 166 -96 166q-57 0 -99.5 -40t-56.5 -130l-16 -105q-16 -107 94 -252q66 -85 98 -158t19 -163l-15 -86q-16 -100 -72 -148.5t-135 -48.5t-120 49t-25 152l25 154h41l-23 -150q-26 -168 105 -168
q63 0 107 39.5t58 128.5l15 92q9 63 -23.5 131.5t-91.5 147.5q-54 78 -80.5 148t-15.5 149l16 96q16 102 68.5 150.5t128.5 48.5q77 0 114 -48.5t21 -150.5z" />
    <glyph glyph-name="Scedilla" unicode="&#x15e;" horiz-adv-x="528" 
d="M604 1014h-41l31 196q20 119 -4.5 168t-93.5 49q-71 0 -115.5 -49.5t-63.5 -167.5l-18 -123q-24 -158 80 -323q19 -30 28 -45t26 -44.5t26 -49t21.5 -49t18 -54t10.5 -54t4.5 -59.5t-5.5 -61l-19 -123q-40 -256 -231 -256q-93 0 -130.5 60.5t-16.5 195.5l30 197h41
l-30 -197q-20 -119 7.5 -169t102.5 -50q74 0 121 50.5t66 168.5l18 123q5 30 5 60.5t-3 54.5t-13.5 54t-17.5 48.5t-23.5 49t-25 44.5t-27.5 46q-18 29 -29 48t-26 47.5t-23.5 50.5t-17 52t-11.5 57t-3 60t6 67l18 123q21 134 76.5 194t145.5 60q88 0 123 -60t14 -194z
M213 -117l33 105h33l-21 -72q73 0 111.5 -37.5t29.5 -99.5q-11 -63 -65.5 -106.5t-124.5 -43.5q-35 0 -78 15l6 37q35 -15 68 -15q57 0 101 34t52 81q7 51 -30.5 76.5t-114.5 25.5z" />
    <glyph glyph-name="scedilla" unicode="&#x15f;" 
d="M528 784h-41l25 150q24 166 -96 166q-57 0 -99.5 -40t-56.5 -130l-16 -105q-16 -107 94 -252q66 -85 98 -158t19 -163l-15 -86q-14 -95 -65 -143.5t-125 -53.5l-14 -53q73 0 111.5 -37.5t29.5 -99.5q-11 -63 -66 -106.5t-125 -43.5q-38 0 -75 15l4 37q35 -15 67 -15
q57 0 101.5 34t52.5 81q7 50 -31.5 76t-114.5 26l27 86q-72 5 -107.5 54t-21.5 147l25 154h41l-23 -150q-26 -168 105 -168q63 0 107 39.5t58 128.5l15 92q9 63 -23.5 131.5t-91.5 147.5q-54 78 -80.5 148t-15.5 149l16 96q16 102 68.5 150.5t128.5 48.5q77 0 114 -48.5
t21 -150.5z" />
    <glyph glyph-name="Scaron" unicode="&#x160;" horiz-adv-x="528" 
d="M629 1796h37l-136 -280h-61l-45 280h37l43 -242h4zM604 1014h-41l31 196q20 119 -4.5 168t-93.5 49q-71 0 -115.5 -49.5t-63.5 -167.5l-18 -123q-24 -158 80 -323q20 -33 27.5 -45t26.5 -44t26.5 -49.5t21.5 -48.5t19 -54.5t10.5 -54t5 -60t-5.5 -60.5l-21 -123
q-40 -256 -231 -256q-93 0 -130.5 60.5t-16.5 195.5l30 197h41l-30 -197q-20 -119 7.5 -169t102.5 -50q74 0 121 50.5t66 168.5l20 123q4 27 5 52.5t-3.5 50.5t-8.5 45.5t-14.5 46t-17.5 41.5t-22 42.5t-22 38.5t-24 40q-19 32 -28.5 48.5t-25.5 47t-23.5 51t-17 51.5
t-12.5 57.5t-3 59.5t6 67l18 123q21 134 76.5 194t145.5 60q88 0 123 -60t14 -194z" />
    <glyph glyph-name="scaron" unicode="&#x161;" 
d="M549 1468h37l-135 -280h-62l-45 280h37l43 -241h4zM528 784h-41l25 150q24 166 -96 166q-57 0 -99.5 -40t-56.5 -130l-16 -105q-16 -107 94 -252q66 -85 98 -158t19 -163l-15 -86q-16 -100 -72 -148.5t-135 -48.5t-120 49t-25 152l25 154h41l-23 -150q-26 -168 105 -168
q63 0 107 39.5t58 128.5l15 92q9 63 -23.5 131.5t-91.5 147.5q-54 78 -80.5 148t-15.5 149l16 96q16 102 68.5 150.5t128.5 48.5q77 0 114 -48.5t21 -150.5z" />
    <glyph glyph-name="uni0162" unicode="&#x162;" horiz-adv-x="493" 
d="M678 1434l-4 -37h-185l-221 -1397h-4l-18 -68q73 0 111.5 -37.5t29.5 -99.5q-11 -63 -65.5 -106t-124.5 -43q-41 0 -76 14l4 37q32 -14 68 -14q57 0 101 33.5t52 80.5q7 50 -31 76.5t-114 26.5l30 100h-4l222 1397h-185l4 37h410z" />
    <glyph glyph-name="uni0163" unicode="&#x163;" horiz-adv-x="264" 
d="M305 1270h41l-27 -164h99l-4 -37h-99l-143 -901q-5 -32 -6 -54.5t4 -37t10.5 -22.5t18.5 -11.5t22.5 -4.5t28.5 -1l-6 -37q-26 0 -54 4l-14 -47q73 0 111.5 -37.5t29.5 -99.5q-11 -63 -65.5 -106.5t-124.5 -43.5q-38 0 -76 15l4 36q32 -14 68 -14q57 0 101 34t52 81
q7 50 -31 76t-114 26l29 92q-49 28 -29 152l143 901h-61l4 37h62z" />
    <glyph glyph-name="Tcaron" unicode="&#x164;" horiz-adv-x="493" 
d="M608 1796h37l-135 -280h-61l-46 280h37l43 -242h4zM678 1434l-4 -37h-185l-221 -1397h-41l222 1397h-185l4 37h410z" />
    <glyph glyph-name="tcaron" unicode="&#x165;" horiz-adv-x="264" 
d="M406 1174l75 362h41l-88 -362h-28zM305 1270h41l-27 -164h99l-4 -37h-99l-143 -901q-5 -32 -6 -54.5t4 -37t10.5 -22.5t18.5 -11.5t22.5 -4.5t28.5 -1l-6 -37q-79 0 -103.5 35t-9.5 133l143 901h-61l4 37h62z" />
    <glyph glyph-name="Tbar" unicode="&#x166;" horiz-adv-x="493" 
d="M678 1434l-4 -37h-185l-116 -731h102l-4 -37h-104l-99 -629h-41l99 629h-101l4 37h103l117 731h-185l4 37h410z" />
    <glyph glyph-name="tbar" unicode="&#x167;" horiz-adv-x="264" 
d="M305 1270h41l-27 -164h99l-4 -37h-99l-73 -455h98l-4 -36h-98l-66 -410q-5 -32 -6 -54.5t4 -37t10.5 -22.5t18.5 -11.5t22.5 -4.5t28.5 -1l-6 -37q-79 0 -103.5 35t-9.5 133l66 410h-58l4 36h58l73 455h-61l4 37h62z" />
    <glyph glyph-name="Utilde" unicode="&#x168;" horiz-adv-x="559" 
d="M733 1790l-16 -109q-12 -78 -43 -121.5t-74 -43.5q-33 0 -50 30t-28 103l-2 20q-6 51 -14 70.5t-25 19.5q-44 0 -67 -137l-15 -102h-41l15 98q27 178 114 178q31 0 46 -27.5t24 -95.5l4 -20q8 -56 18.5 -78.5t30.5 -22.5q45 0 66 129l16 109h41zM713 1434l-193 -1209
q-20 -130 -80.5 -193t-163.5 -63q-104 0 -144.5 63.5t-20.5 192.5l192 1209h41l-192 -1209q-17 -115 11.5 -167t112.5 -52q86 0 136 53t67 166l193 1209h41z" />
    <glyph glyph-name="utilde" unicode="&#x169;" horiz-adv-x="501" 
d="M336 1462l-17 -108q-12 -78 -42.5 -122t-73.5 -44q-33 0 -50 30t-28 103l-2 20q-6 51 -14 71t-25 20q-45 0 -68 -138l-14 -102h-43l16 98q27 178 115 178q31 0 46 -27t24 -95l4 -21q8 -56 18.5 -78t30.5 -22q45 0 66 129l16 108h41zM250 1106h41l-139 -881
q-36 -219 81 -219q69 0 123 72t76 209l129 819h41l-176 -1106h-41l21 125h-5q-69 -156 -184 -156q-70 0 -98.5 64t-7.5 192z" />
    <glyph glyph-name="Umacron" unicode="&#x16a;" horiz-adv-x="559" 
d="M727 1675l-4 -37h-369l4 37h369zM713 1434l-193 -1209q-20 -130 -80.5 -193t-163.5 -63q-104 0 -144.5 63.5t-20.5 192.5l192 1209h41l-192 -1209q-17 -115 11.5 -167t112.5 -52q86 0 136 53t67 166l193 1209h41z" />
    <glyph glyph-name="umacron" unicode="&#x16b;" horiz-adv-x="501" 
d="M330 1348l-4 -37h-369l4 37h369zM250 1106h41l-139 -881q-36 -219 81 -219q69 0 123 72t76 209l129 819h41l-176 -1106h-41l21 125h-5q-69 -156 -184 -156q-70 0 -98.5 64t-7.5 192z" />
    <glyph glyph-name="Ubreve" unicode="&#x16c;" horiz-adv-x="559" 
d="M387 1796h41q-40 -244 98 -244q136 0 176 244h41q-22 -134 -74 -207t-149 -73t-126 73.5t-7 206.5zM713 1434l-193 -1209q-20 -130 -80.5 -193t-163.5 -63q-104 0 -144.5 63.5t-20.5 192.5l192 1209h41l-192 -1209q-17 -115 11.5 -167t112.5 -52q86 0 136 53t67 166
l193 1209h41z" />
    <glyph glyph-name="ubreve" unicode="&#x16d;" horiz-adv-x="501" 
d="M-10 1468h41q-40 -243 98 -243q136 0 176 243h41q-22 -134 -74 -207t-149 -73t-126 73.5t-7 206.5zM250 1106h41l-139 -881q-36 -219 81 -219q69 0 123 72t76 209l129 819h41l-176 -1106h-41l21 125h-5q-69 -156 -184 -156q-70 0 -98.5 64t-7.5 192z" />
    <glyph glyph-name="Uring" unicode="&#x16e;" horiz-adv-x="559" 
d="M424 1632q0 66 40 110t101 44q48 0 74.5 -28t26.5 -81q0 -65 -40.5 -108t-103.5 -43q-46 0 -72 27t-26 79zM461 1636q0 -38 18 -57.5t49 -19.5q43 0 72 34t29 84q0 36 -18.5 56t-49.5 20q-43 0 -71.5 -33.5t-28.5 -83.5zM713 1434l-193 -1209q-20 -130 -80.5 -193
t-163.5 -63q-104 0 -144.5 63.5t-20.5 192.5l192 1209h41l-192 -1209q-17 -115 11.5 -167t112.5 -52q86 0 136 53t67 166l193 1209h41z" />
    <glyph glyph-name="uring" unicode="&#x16f;" horiz-adv-x="501" 
d="M27 1305q0 66 40 109.5t101 43.5q48 0 74 -27.5t26 -80.5q0 -65 -40.5 -108.5t-102.5 -43.5q-46 0 -72 27.5t-26 79.5zM63 1309q0 -38 18.5 -58t49.5 -20q42 0 71 34.5t29 84.5q0 36 -18 55.5t-49 19.5q-43 0 -72 -33.5t-29 -82.5zM250 1106h41l-139 -881
q-36 -219 81 -219q69 0 123 72t76 209l129 819h41l-176 -1106h-41l21 125h-5q-69 -156 -184 -156q-70 0 -98.5 64t-7.5 192z" />
    <glyph glyph-name="Uhungarumlaut" unicode="&#x170;" horiz-adv-x="559" 
d="M461 1516h-37l125 280h41zM604 1516h-37l125 280h41zM713 1434l-193 -1209q-20 -130 -80.5 -193t-163.5 -63q-104 0 -144.5 63.5t-20.5 192.5l192 1209h41l-192 -1209q-17 -115 11.5 -167t112.5 -52q86 0 136 53t67 166l193 1209h41z" />
    <glyph glyph-name="uhungarumlaut" unicode="&#x171;" horiz-adv-x="501" 
d="M63 1188h-36l125 280h41zM207 1188h-37l125 280h41zM250 1106h41l-139 -881q-36 -219 81 -219q69 0 123 72t76 209l129 819h41l-176 -1106h-41l21 125h-5q-69 -156 -184 -156q-70 0 -98.5 64t-7.5 192z" />
    <glyph glyph-name="Uogonek" unicode="&#x172;" horiz-adv-x="559" 
d="M713 1434l-193 -1209q-19 -119 -69 -181.5t-136 -72.5q-49 -25 -79.5 -64t-30.5 -87q0 -45 27 -68.5t75 -23.5q47 0 115 24l-6 -37q-67 -24 -123 -24q-62 0 -96.5 29.5t-34.5 84.5q0 103 110 164q-201 3 -161 256l192 1209h41l-192 -1209q-17 -115 11.5 -167t112.5 -52
q86 0 136 53t67 166l193 1209h41z" />
    <glyph glyph-name="uogonek" unicode="&#x173;" horiz-adv-x="501" 
d="M250 1106h41l-139 -881q-36 -219 81 -219q69 0 123 72t76 209l129 819h41l-176 -1106h-2q-91 -8 -154.5 -54t-72.5 -112q-9 -50 18 -78t82 -28q48 0 115 24l-6 -37q-68 -24 -123 -24q-70 0 -104.5 35.5t-24.5 97.5q10 72 73.5 122.5t159.5 65.5l19 113h-5
q-69 -156 -184 -156q-70 0 -98.5 64t-7.5 192z" />
    <glyph glyph-name="Wcircumflex" unicode="&#x174;" horiz-adv-x="780" 
d="M549 1516h-37l135 280h62l45 -280h-37l-43 241h-4zM965 1434l-390 -1434h-40l49 1157l16 150h-4l-33 -150l-315 -1157h-41l61 1434h41l-51 -1182l-18 -154h4l30 154l322 1182h41l-51 -1182l-19 -154h4l31 154l322 1182h41z" />
    <glyph glyph-name="wcircumflex" unicode="&#x175;" horiz-adv-x="739" 
d="M475 1188h-37l135 280h62l45 -280h-37l-43 242h-4zM872 1106l-329 -1106h-41l16 868l12 131h-4l-32 -131l-258 -868h-41l22 1106h41l-16 -895l-13 -113h4l25 113l266 895h41l-16 -895l-12 -113h4l22 113l268 895h41z" />
    <glyph glyph-name="Ycircumflex" unicode="&#x176;" horiz-adv-x="493" 
d="M406 1516h-37l135 280h61l45 -280h-37l-43 241h-4zM678 1434l-324 -881l-86 -553h-41l86 553l-45 881h41l35 -637v-174h4l53 174l236 637h41z" />
    <glyph glyph-name="ycircumflex" unicode="&#x177;" horiz-adv-x="473" 
d="M346 1188h-37l135 280h62l45 -280h-37l-43 242h-4zM238 -66q-30 -109 -62.5 -139.5t-130.5 -30.5l6 37q32 0 49 0.5t34.5 10.5t24 17t18.5 37t17.5 52.5t20.5 81.5l2 1106h41v-895l-8 -113h4l29 113l282 895h41l-350 -1106z" />
    <glyph glyph-name="Ydieresis" unicode="&#x178;" horiz-adv-x="493" 
d="M561 1614l12 82h82l-12 -82h-82zM356 1614l13 82h82l-13 -82h-82zM678 1434l-324 -881l-86 -553h-41l86 553l-45 881h41l35 -637v-174h4l53 174l236 637h41z" />
    <glyph glyph-name="Zacute" unicode="&#x179;" horiz-adv-x="432" 
d="M467 1516h-37l125 280h41zM596 1434l-4 -37l-500 -1356l2 -4h301l-4 -37h-348l4 37l500 1356l-2 4h-260l4 37h307z" />
    <glyph glyph-name="zacute" unicode="&#x17a;" horiz-adv-x="411" 
d="M410 1188h-37l125 280h41zM524 1106l-4 -29l-428 -1036l4 -4h279l-6 -37h-328l6 29l426 1038l-4 2h-238l7 37h286z" />
    <glyph glyph-name="Zdotaccent" unicode="&#x17b;" horiz-adv-x="432" 
d="M426 1614l12 82h82l-12 -82h-82zM596 1434l-4 -37l-500 -1356l2 -4h301l-4 -37h-348l4 37l500 1356l-2 4h-260l4 37h307z" />
    <glyph glyph-name="zdotaccent" unicode="&#x17c;" horiz-adv-x="411" 
d="M369 1286l12 82h82l-12 -82h-82zM524 1106l-4 -29l-428 -1036l4 -4h279l-6 -37h-328l6 29l426 1038l-4 2h-238l7 37h286z" />
    <glyph glyph-name="Zcaron" unicode="&#x17d;" horiz-adv-x="432" 
d="M575 1796h37l-135 -280h-61l-45 280h37l43 -242h4zM596 1434l-4 -37l-500 -1356l2 -4h301l-4 -37h-348l4 37l500 1356l-2 4h-260l4 37h307z" />
    <glyph glyph-name="zcaron" unicode="&#x17e;" horiz-adv-x="411" 
d="M518 1468h37l-135 -280h-62l-45 280h37l43 -241h4zM524 1106l-4 -29l-428 -1036l4 -4h279l-6 -37h-328l6 29l426 1038l-4 2h-238l7 37h286z" />
    <glyph glyph-name="longs" unicode="&#x17f;" horiz-adv-x="1136" 
d="M84 0l225 1434h971l-225 -1434h-971zM459 1331l237 -530l404 530h-641zM733 717l246 -547l172 1094zM385 1264l-172 -1094l418 547zM668 633l-404 -531h641z" />
    <glyph glyph-name="florin" unicode="&#x192;" horiz-adv-x="239" 
d="M-68 -430l7 37q28 0 42 2.5t31.5 14.5t27.5 39.5t17 74.5l211 1331h-61l6 37h61l41 262q15 98 50.5 133t115.5 35l-6 -37q-28 0 -42.5 -2.5t-31.5 -14.5t-27.5 -39.5t-17.5 -74.5l-41 -262h93l-7 -37h-92l-211 -1331q-15 -98 -50.5 -133t-115.5 -35z" />
    <glyph glyph-name="uni0237" unicode="&#x237;" horiz-adv-x="163" 
d="M264 1106l-188 -1180q-6 -40 -9.5 -59t-11 -43t-16.5 -33t-25.5 -18.5t-38.5 -12t-55 -2.5l6 37h37t24.5 5.5t18 11t11 23.5t9.5 36t9 55l188 1180h41z" />
    <glyph glyph-name="circumflex" unicode="&#x2c6;" horiz-adv-x="407" 
d="M303 1153h-37l135 281h62l45 -281h-37l-43 242h-4z" />
    <glyph glyph-name="caron" unicode="&#x2c7;" horiz-adv-x="407" 
d="M516 1434h37l-135 -281h-62l-45 281h37l43 -242h4z" />
    <glyph glyph-name="breve" unicode="&#x2d8;" horiz-adv-x="522" 
d="M311 1434h41q-40 -244 99 -244q136 0 176 244h41q-22 -134 -74.5 -207.5t-149.5 -73.5t-126 74t-7 207z" />
    <glyph glyph-name="dotaccent" unicode="&#x2d9;" horiz-adv-x="247" 
d="M281 1251l12 82h82l-13 -82h-81z" />
    <glyph glyph-name="ring" unicode="&#x2da;" horiz-adv-x="405" 
d="M287 1270q0 66 40 109.5t101 43.5q48 0 74 -27.5t26 -80.5q0 -65 -40.5 -108.5t-102.5 -43.5q-46 0 -72 27.5t-26 79.5zM324 1274q0 -38 18 -58t49 -20q43 0 72 34.5t29 84.5q0 36 -18.5 56t-49.5 20q-43 0 -71.5 -33.5t-28.5 -83.5z" />
    <glyph glyph-name="ogonek" unicode="&#x2db;" horiz-adv-x="436" 
d="M328 -4l-4 -16q-91 -8 -155 -54t-73 -112q-9 -50 18.5 -78.5t82.5 -28.5q44 0 114 25l-6 -37q-70 -25 -123 -25q-70 0 -104.5 35.5t-24.5 97.5q12 79 88 132t187 61z" />
    <glyph glyph-name="tilde" unicode="&#x2dc;" horiz-adv-x="499" 
d="M643 1427l-16 -108q-12 -78 -43 -122t-74 -44q-33 0 -50 30t-28 103l-2 21q-6 51 -14 70.5t-25 19.5q-44 0 -67 -137l-15 -103h-41l15 98q28 179 114 179q31 0 46 -27.5t24 -95.5l4 -21q8 -56 18.5 -78t30.5 -22q45 0 66 129l16 108h41z" />
    <glyph glyph-name="hungarumlaut" unicode="&#x2dd;" horiz-adv-x="430" 
d="M303 1153h-37l125 281h41zM446 1153h-36l125 281h40z" />
    <glyph glyph-name="uni03BC" unicode="&#x3bc;" horiz-adv-x="1136" 
d="M84 0l225 1434h971l-225 -1434h-971zM459 1331l237 -530l404 530h-641zM733 717l246 -547l172 1094zM385 1264l-172 -1094l418 547zM668 633l-404 -531h641z" />
    <glyph glyph-name="endash" unicode="&#x2013;" horiz-adv-x="1026" 
d="M1055 713l-4 -37h-861l5 37h860z" />
    <glyph glyph-name="emdash" unicode="&#x2014;" horiz-adv-x="1517" 
d="M1546 713l-4 -37h-1352l5 37h1351z" />
    <glyph glyph-name="quoteleft" unicode="&#x2018;" horiz-adv-x="247" 
d="M264 1137l29 186q10 64 32 87.5t68 23.5l-6 -37q-27 0 -36.5 -17t-16.5 -63l-12 -68h40l-16 -112h-82z" />
    <glyph glyph-name="quoteright" unicode="&#x2019;" horiz-adv-x="247" 
d="M393 1434l-31 -187q-10 -64 -31 -87t-67 -23l4 37q27 0 37.5 16.5t18.5 62.5l10 68h-41l18 113h82z" />
    <glyph glyph-name="quotesinglbase" unicode="&#x201a;" horiz-adv-x="247" 
d="M184 113l-30 -187q-10 -64 -31.5 -87t-67.5 -23l4 37q27 0 37.5 16.5t18.5 62.5l10 68h-41l18 113h82z" />
    <glyph glyph-name="quotedblleft" unicode="&#x201c;" horiz-adv-x="391" 
d="M260 1106l29 186q10 64 32 87.5t68 23.5l-6 -37q-27 0 -36.5 -17t-16.5 -63l-13 -67h41l-16 -113h-82zM403 1106l29 186q10 64 32 87.5t68 23.5l-6 -37q-27 0 -36.5 -17t-16.5 -63l-12 -67h41l-17 -113h-82z" />
    <glyph glyph-name="quotedblright" unicode="&#x201d;" horiz-adv-x="391" 
d="M532 1403l-30 -186q-10 -64 -31.5 -87.5t-67.5 -23.5l5 37q27 0 37 16.5t18 63.5l10 67h-41l19 113h81zM389 1403l-31 -186q-10 -64 -31 -87.5t-67 -23.5l4 37q27 0 37 16.5t18 63.5l11 67h-41l18 113h82z" />
    <glyph glyph-name="quotedblbase" unicode="&#x201e;" horiz-adv-x="391" 
d="M184 113l-30 -187q-10 -64 -31.5 -87t-67.5 -23l4 37q27 0 37.5 16.5t18.5 62.5l10 68h-41l18 113h82zM328 113l-31 -187q-10 -64 -31 -87t-67 -23l4 37q27 0 37 16.5t18 62.5l10 68h-41l19 113h82z" />
    <glyph glyph-name="dagger" unicode="&#x2020;" horiz-adv-x="452" 
d="M432 1434h41l-51 -328h123l-6 -37h-123l-168 -1069h-41l168 1069h-123l6 37h123z" />
    <glyph glyph-name="daggerdbl" unicode="&#x2021;" horiz-adv-x="452" 
d="M432 1434h41l-51 -328h123l-6 -37h-123l-111 -704h123l-6 -37h-123l-51 -328h-41l51 328h-123l6 37h123l111 704h-123l6 37h123z" />
    <glyph glyph-name="bullet" unicode="&#x2022;" horiz-adv-x="350" 
d="M201 739q2 47 30.5 76t77.5 29q78 0 78 -74q0 -46 -30.5 -77t-77.5 -31q-78 0 -78 77z" />
    <glyph glyph-name="ellipsis" unicode="&#x2026;" horiz-adv-x="739" 
d="M84 0l16 113h82l-16 -113h-82zM330 0l16 113h82l-16 -113h-82zM575 0l17 113h82l-17 -113h-82z" />
    <glyph glyph-name="perthousand" unicode="&#x2030;" horiz-adv-x="1536" 
d="M627 1210l-54 -340q-22 -131 -74 -193.5t-141 -62.5q-180 0 -137 256l53 340q22 130 75 192t143 62q91 0 124 -62.5t11 -191.5zM221 0l840 1434h43l-840 -1434h-43zM586 1210q19 115 -4.5 166t-94.5 51q-72 0 -112.5 -51.5t-59.5 -165.5l-53 -340q-19 -115 5 -167t95 -52
t111 52t59 167zM1087 567l-53 -342q-20 -130 -73 -193t-142 -63q-91 0 -124 62.5t-13 193.5l53 342q22 130 75 192t142 62q91 0 124 -62.5t11 -191.5zM1542 567l-53 -342q-20 -130 -73 -193t-142 -63q-91 0 -124 62.5t-13 193.5l53 342q22 130 75 192t142 62q91 0 124 -62.5
t11 -191.5zM1047 567q19 115 -4.5 166t-94.5 51q-72 0 -112.5 -51.5t-59.5 -165.5l-53 -342q-19 -115 5 -167t95 -52t111 52t59 167zM1501 567q19 115 -4 166t-94 51q-72 0 -112.5 -51.5t-59.5 -165.5l-53 -342q-19 -115 5 -167t95 -52t111 52t59 167z" />
    <glyph glyph-name="guilsinglleft" unicode="&#x2039;" horiz-adv-x="530" 
d="M496 311l-25 -35l-305 252l4 27l385 252l14 -37l-352 -229v-4z" />
    <glyph glyph-name="guilsinglright" unicode="&#x203a;" horiz-adv-x="530" 
d="M240 772l26 35l303 -252l-4 -27l-383 -252l-16 37l352 230v4z" />
    <glyph glyph-name="fraction" unicode="&#x2044;" horiz-adv-x="612" 
d="M125 0h-41l631 1434h41z" />
    <glyph glyph-name="uni2074" unicode="&#x2074;" horiz-adv-x="409" 
d="M522 1434l-94 -594h33l-8 -41h-33l-23 -154h-41l23 154h-170l4 20l266 615h43zM266 840h121l59 377l35 157h-4l-47 -157z" />
    <glyph glyph-name="Euro" unicode="&#x20ac;" horiz-adv-x="579" 
d="M553 819l-27 -37h-225l-20 -131h176l-27 -37h-156l-61 -389q-19 -114 6 -166.5t98 -52.5q74 0 119 53t64 166l28 176h41l-28 -176q-40 -256 -224 -256q-185 0 -145 256l61 389h-61l6 37h62l20 131h-61l6 37h61l62 391q22 129 77 191.5t148 62.5q186 0 143 -254l-26 -176
h-41l26 176q19 113 -6 165t-98 52q-74 0 -118.5 -52.5t-63.5 -164.5l-62 -391h246z" />
    <glyph glyph-name="trademark" unicode="&#x2122;" horiz-adv-x="626" 
d="M483 1434l-6 -37h-65l-64 -393h-41l64 393h-66l6 37h172zM772 1434l-70 -430h-40l63 382h-4l-8 -43l-101 -339h-69l8 339v43h-4l-4 -43l-56 -339h-41l70 430h74l-4 -363l-4 -39h2l8 39l106 363h74z" />
    <glyph glyph-name="minus" unicode="&#x2212;" horiz-adv-x="710" 
d="M739 713l-4 -37h-545l5 37h544z" />
    <glyph glyph-name="fi" unicode="&#xfb01;" horiz-adv-x="434" 
d="M104 0l168 1069h-61l6 37h62l40 262q17 99 52 133.5t114 34.5l-4 -37q-28 0 -42.5 -2.5t-32.5 -14.5t-28.5 -39.5t-17.5 -74.5l-41 -262h93l-6 -37h-93l-168 -1069h-41zM508 1188l24 164h41l-24 -164h-41zM319 0l175 1106h41l-175 -1106h-41z" />
    <glyph glyph-name="fl" unicode="&#xfb02;" horiz-adv-x="434" 
d="M104 0l168 1069h-61l6 37h62l40 262q17 99 52 133.5t114 34.5l-4 -37q-28 0 -42.5 -2.5t-32.5 -14.5t-28.5 -39.5t-17.5 -74.5l-41 -262h93l-6 -37h-93l-168 -1069h-41zM319 0l242 1536h41l-242 -1536h-41z" />
    <glyph glyph-name="ethbar" horiz-adv-x="411" 
d="M440 713l-4 -37h-246l5 37h245z" />
    <glyph glyph-name="crossbar" horiz-adv-x="411" 
d="M438 766l6 -35l-245 -98l-11 35z" />
    <glyph glyph-name="ethbar.case" horiz-adv-x="411" 
d="M440 713l-4 -37h-246l5 37h245z" />
    <glyph glyph-name="crossbar.case" horiz-adv-x="321" 
d="M344 745l6 -34l-149 -60l-11 35z" />
    <glyph glyph-name="commaccent" horiz-adv-x="225" 
d="M23 -383l75 363h41l-88 -363h-28z" />
    <glyph glyph-name="commaccent2" horiz-adv-x="231" 
d="M164 90l-25 -149q-7 -50 -25 -69t-55 -19l7 28q21 0 28 13.5t12 52.5l11 53h-33l14 90h66z" />
    <glyph glyph-name="commaccent3" horiz-adv-x="231" 
d="M59 -147l25 149q7 50 25 69t55 19l-6 -29q-15 0 -23.5 -8t-11.5 -19t-8 -38l-9 -53h33l-14 -90h-66z" />
    <glyph glyph-name="dotaccent2" horiz-adv-x="247" 
d="M281 1251l12 82h82l-13 -82h-81z" />
    <glyph glyph-name="tbarnew" horiz-adv-x="362" 
d="M391 713l-4 -37h-197l5 37h196z" />
    <glyph glyph-name="ogonek2" horiz-adv-x="1024" 
d="M567 -18l4 -13q-66 -22 -109.5 -66.5t-43.5 -103.5q0 -45 27 -68.5t75 -23.5q45 0 115 25l-6 -37q-70 -25 -123 -25q-62 0 -96.5 30t-34.5 85q0 73 55.5 124t136.5 73z" />
    </font>
</defs>
</svg>
