<?xml version="1.0" standalone="no"?>
<!DOCTYPE svg PUBLIC "-//W3C//DTD SVG 1.1//EN" "http://www.w3.org/Graphics/SVG/1.1/DTD/svg11.dtd" >
<svg xmlns="http://www.w3.org/2000/svg" xmlns:xlink="http://www.w3.org/1999/xlink" version="1.1">
<metadata>
Created by FontForge 20201107 at Sat Sep 14 10:04:13 2024
 By 
</metadata>
<defs>
<font id="MangoGrotesque-BoldItalic" horiz-adv-x="618" >
  <font-face 
    font-family="Mango Grotesque Ita"
    font-weight="700"
    font-style="italic"
    font-stretch="normal"
    units-per-em="2048"
    panose-1="0 0 0 0 0 0 0 0 0 0"
    ascent="1638"
    descent="-410"
    x-height="1106"
    cap-height="1434"
    bbox="-125 -430 1840.63 1878"
    underline-thickness="102"
    underline-position="-255"
    slope="-9"
    unicode-range="U+000D-FB02"
  />
<missing-glyph horiz-adv-x="1075" 
d="M53 0l226 1434h970l-225 -1434h-971zM428 1331l238 -530l403 530h-641zM702 717l246 -547l172 1094zM354 1264l-172 -1094l418 547zM637 633l-404 -531h641z" />
    <glyph glyph-name=".notdef" horiz-adv-x="1075" 
d="M53 0l226 1434h970l-225 -1434h-971zM428 1331l238 -530l403 530h-641zM702 717l246 -547l172 1094zM354 1264l-172 -1094l418 547zM637 633l-404 -531h641z" />
    <glyph glyph-name="uni0000" horiz-adv-x="0" 
 />
    <glyph glyph-name="uni0000" horiz-adv-x="0" 
 />
    <glyph glyph-name="uni000D" unicode="&#xd;" horiz-adv-x="512" 
 />
    <glyph glyph-name="space" unicode=" " horiz-adv-x="317" 
 />
    <glyph glyph-name="exclam" unicode="!" horiz-adv-x="356" 
d="M285 1434h239l-32 -205l-173 -885h-176l109 885zM53 0l37 244h252l-39 -244h-250z" />
    <glyph glyph-name="quotedbl" unicode="&#x22;" horiz-adv-x="561" 
d="M752 1536l-21 -123l-78 -387h-159l43 387l20 123h195zM492 1536l-21 -123l-78 -387h-160l43 387l21 123h195z" />
    <glyph glyph-name="numbersign" unicode="#" horiz-adv-x="835" 
d="M139 0l101 467h-113l27 176h125l32 148h-133l27 178h143l101 465h194l-100 -465h86l100 465h195l-101 -465h113l-29 -178h-121l-32 -148h131l-29 -176h-141l-101 -467h-194l100 465l-86 2l-100 -467h-195zM473 643h86l33 148h-86z" />
    <glyph glyph-name="dollar" unicode="$" horiz-adv-x="655" 
d="M772 969h-240l35 221q14 82 -35 82q-27 0 -42.5 -19t-22.5 -63l-23 -141q-9 -64 17 -120t82 -128q20 -25 30.5 -39t29 -39.5t29 -44t24 -45.5t19.5 -51.5t11.5 -54t5 -61t-5.5 -65.5l-18 -120q-21 -128 -88 -205t-172 -99l-15 -180h-194l41 180q-96 24 -138 100.5
t-22 203.5l31 188h239l-35 -221q-7 -46 2.5 -65t36.5 -19q55 0 66 84l22 141q6 35 -1.5 70.5t-29 73.5t-40.5 64.5t-52 68.5q-70 88 -102 170t-14 194l18 125q20 127 85 202t167 97l16 182h195l-43 -180q97 -22 139.5 -98t22.5 -203z" />
    <glyph glyph-name="percent" unicode="%" horiz-adv-x="1253" 
d="M729 1155l-37 -231q-25 -153 -101 -232.5t-194 -79.5q-119 0 -171 79.5t-27 232.5l37 231q25 151 101 230t195 79q118 0 169.5 -78.5t27.5 -230.5zM254 0l842 1434h135l-842 -1434h-135zM537 1190q8 43 -0.5 62.5t-34.5 19.5q-52 0 -64 -82l-47 -299q-8 -44 0.5 -64
t34.5 -20t40.5 19.5t22.5 64.5zM1282 514l-37 -231q-23 -152 -100 -232t-195 -80t-169.5 79.5t-28.5 232.5l36 231q25 151 102 230t195 79q120 0 171 -78.5t26 -230.5zM1090 547q7 44 -1 63t-34 19t-41.5 -19t-22.5 -63l-47 -299q-12 -84 35 -84q52 0 63 84z" />
    <glyph glyph-name="ampersand" unicode="&#x26;" horiz-adv-x="720" 
d="M780 1020h-239l16 115q8 42 -0.5 60.5t-36.5 18.5q-51 0 -63 -77l-39 -234q-7 -49 3.5 -69.5t41.5 -20.5h45l18 125h242l-20 -125h67l-31 -192h-67l-99 -621h-153l24 143h-8q-60 -174 -209 -174q-114 0 -163 94t-23 263l16 94q23 148 67 218.5t116 74.5v8q-69 6 -90 77
t2 222l14 92q28 172 115.5 261t228.5 89q145 0 206.5 -89t33.5 -257zM477 621h-45q-31 0 -48 -20t-24 -66l-36 -232q-6 -41 2 -59.5t34 -18.5q28 0 44.5 23.5t25.5 77.5z" />
    <glyph glyph-name="quotesingle" unicode="'" horiz-adv-x="299" 
d="M492 1536l-21 -123l-78 -387h-160l43 387l21 123h195z" />
    <glyph glyph-name="parenleft" unicode="(" horiz-adv-x="444" 
d="M135 -383q-62 518 10 979q74 458 299 971l191 -33q-183 -528 -248 -940q-65 -414 -51 -942z" />
    <glyph glyph-name="parenright" unicode=")" horiz-adv-x="444" 
d="M496 1569q61 -513 -11 -979q-76 -468 -299 -971l-190 33q183 528 248 940q65 414 51 942z" />
    <glyph glyph-name="asterisk" unicode="*" horiz-adv-x="729" 
d="M270 967l179 157l-211 41l79 168l185 -96l6 219h176l-61 -219l213 96l26 -168l-223 -41l127 -159l-160 -103l-74 193l-135 -193z" />
    <glyph glyph-name="plus" unicode="+" horiz-adv-x="925" 
d="M999 793l-30 -195h-307l-50 -313h-209l50 313h-306l31 195l305 -2l49 315h211l-51 -313h307z" />
    <glyph glyph-name="comma" unicode="," horiz-adv-x="356" 
d="M342 244l-41 -264q-17 -107 -93 -166.5t-196 -59.5l19 117q113 0 131 111l2 18h-111l39 244h250z" />
    <glyph glyph-name="hyphen" unicode="-" horiz-adv-x="595" 
d="M670 791l-31 -193h-492l31 193h492z" />
    <glyph glyph-name="period" unicode="." horiz-adv-x="356" 
d="M53 0l37 244h252l-39 -244h-250z" />
    <glyph glyph-name="slash" unicode="/" horiz-adv-x="526" 
d="M252 -164h-225l458 1659h226z" />
    <glyph glyph-name="zero" unicode="0" horiz-adv-x="653" 
d="M803 1155l-139 -874q-24 -152 -113.5 -232t-226.5 -80q-138 0 -202.5 80t-41.5 232l139 874q24 150 114 229.5t228 79.5q139 0 202.5 -78.5t39.5 -230.5zM567 1190q14 82 -37 82q-27 0 -42 -19.5t-23 -62.5l-150 -942q-6 -45 2.5 -64.5t34.5 -19.5q55 0 66 84z" />
    <glyph glyph-name="one" unicode="1" horiz-adv-x="489" 
d="M592 1434l-197 -1239h88l-30 -195h-416l31 195h88l143 915h-76l23 147q67 0 103 44.5t50 132.5h193z" />
    <glyph glyph-name="two" unicode="2" horiz-adv-x="653" 
d="M180 907l35 211q27 170 116.5 258t225.5 88q139 0 202 -92.5t34 -273.5l-25 -150q-10 -62 -32 -115t-56.5 -97t-65.5 -74.5t-77 -69.5q-40 -34 -58 -50t-51 -50.5t-50 -62t-34.5 -69t-24.5 -86.5l-14 -79h344l-31 -195h-583l41 262q11 71 34.5 134.5t47.5 106t63.5 87.5
t64.5 68.5t68 60.5q77 67 121.5 124.5t54.5 125.5l33 198q17 105 -35 105q-26 0 -41 -21.5t-22 -72.5l-43 -271h-242z" />
    <glyph glyph-name="three" unicode="3" horiz-adv-x="653" 
d="M801 1155l-35 -219q-11 -77 -40.5 -123t-88.5 -65v-11q52 -21 67 -63t3 -117l-43 -278q-24 -152 -113 -231t-227 -79q-140 0 -204 79.5t-40 230.5l43 272h239l-47 -305q-8 -44 0.5 -63t36.5 -19q52 0 66 82l43 280q11 69 -1 92t-61 23h-55l31 195h55q49 0 68 23t30 91
l39 240q6 43 -3 62.5t-36 19.5q-51 0 -63 -82l-43 -262h-240l35 227q24 151 114 230t230 79q137 0 200.5 -79t39.5 -230z" />
    <glyph glyph-name="four" unicode="4" horiz-adv-x="696" 
d="M842 1434l-166 -1043h47l-31 -194h-47l-31 -197h-241l33 197h-338l30 190l408 1047h336zM332 391h104l33 219l113 461l-13 2z" />
    <glyph glyph-name="five" unicode="5" horiz-adv-x="653" 
d="M825 1434l-30 -193h-322l-70 -440h5q29 90 81.5 136t120.5 46q166 0 121 -278l-67 -424q-24 -152 -113.5 -232t-226.5 -80q-139 0 -203.5 80t-40.5 232l31 196h241l-37 -229q-14 -84 37 -84q28 0 43 20t23 64l74 461q6 43 -2.5 62.5t-34.5 19.5q-54 0 -66 -82l-12 -78
h-242l127 803h563z" />
    <glyph glyph-name="six" unicode="6" horiz-adv-x="653" 
d="M776 999h-239l28 189q15 84 -35 84q-28 0 -44 -21.5t-23 -70.5l-72 -455h4q29 84 77.5 128t111.5 44q85 0 118.5 -79t8.5 -230l-47 -307q-24 -152 -114 -232t-228 -80q-137 0 -201.5 80.5t-40.5 231.5l137 864q24 156 113.5 237.5t228.5 81.5q137 0 201.5 -80t40.5 -231z
M352 164q52 0 66 84l59 373q6 43 -3 62t-36 19q-52 0 -63 -81l-60 -373q-8 -45 0.5 -64.5t36.5 -19.5z" />
    <glyph glyph-name="seven" unicode="7" horiz-adv-x="593" 
d="M784 1434l-30 -195q-145 -337 -226.5 -585.5t-191.5 -653.5h-240q115 422 194.5 664t227.5 571l-4 4h-281l31 195h520z" />
    <glyph glyph-name="eight" unicode="8" horiz-adv-x="653" 
d="M801 1155l-29 -192q-24 -139 -145 -209l-2 -9q101 -72 77 -210l-38 -254q-24 -152 -114 -232t-228 -80q-137 0 -201.5 80.5t-40.5 231.5l39 254q24 141 145 208l2 9q-102 68 -78 211l29 192q24 151 114 230t230 79q137 0 200.5 -79t39.5 -230zM567 1190q6 43 -3 62.5
t-36 19.5q-51 0 -63 -82l-43 -262q-12 -84 37 -84q54 0 65 84zM469 569q6 43 -3 62.5t-36 19.5q-51 0 -63 -82l-52 -321q-8 -45 0.5 -64.5t36.5 -19.5q52 0 66 84z" />
    <glyph glyph-name="nine" unicode="9" horiz-adv-x="653" 
d="M104 434h240l-29 -186q-8 -44 0.5 -64t34.5 -20q28 0 44.5 21.5t23.5 70.5l71 453h-4q-60 -170 -188 -170q-86 0 -119 78.5t-8 230.5l47 305q24 152 114 231.5t228 79.5q137 0 201.5 -80t40.5 -231l-137 -864q-24 -155 -114 -237.5t-228 -82.5q-137 0 -201.5 80.5
t-40.5 231.5zM528 1272q-51 0 -65 -84l-60 -375q-6 -43 3 -62.5t36 -19.5q52 0 64 82l59 375q15 84 -37 84z" />
    <glyph glyph-name="colon" unicode=":" horiz-adv-x="356" 
d="M190 862l37 244h252l-39 -244h-250zM53 0l37 244h252l-39 -244h-250z" />
    <glyph glyph-name="semicolon" unicode=";" horiz-adv-x="358" 
d="M193 862l36 244h252l-39 -244h-249zM342 244l-41 -264q-17 -107 -93 -166.5t-196 -59.5l19 117q113 0 131 111l2 18h-111l39 244h250z" />
    <glyph glyph-name="less" unicode="&#x3c;" horiz-adv-x="612" 
d="M690 827l-35 -221l-422 -59l-2 -10l160 -21l244 -37l-35 -219l-473 213l20 135z" />
    <glyph glyph-name="equal" unicode="=" horiz-adv-x="880" 
d="M983 979l-33 -195h-774l31 195h776zM924 604l-31 -194h-776l30 194h777z" />
    <glyph glyph-name="greater" unicode="&#x3e;" horiz-adv-x="612" 
d="M127 260l35 221l422 58l2 10l-404 57l35 221l473 -215l-20 -135z" />
    <glyph glyph-name="question" unicode="?" horiz-adv-x="686" 
d="M197 907l32 211q27 170 118.5 258t230.5 88q135 0 198 -84.5t37 -249.5l-22 -137q-17 -106 -56 -178.5t-102 -146.5q-41 -51 -61 -79.5t-46 -87t-37 -124.5l-6 -33h-239l2 23q12 77 32.5 140t50 113.5t50 79t55.5 70.5q101 126 117 225l29 176q7 53 -1.5 77t-35.5 24
q-25 0 -40 -21t-24 -73l-43 -271h-239zM186 0l37 244h252l-39 -244h-250z" />
    <glyph glyph-name="at" unicode="@" horiz-adv-x="1183" 
d="M1018 1065l-137 -868q-7 -54 28 -54q15 0 28 16.5t17 43.5l113 712q22 142 -47.5 212.5t-235.5 70.5q-332 0 -376 -283l-101 -632q-39 -242 16 -332t248 -90l-28 -178q-279 0 -387 148t-58 462l101 641q31 193 203.5 317.5t406.5 124.5q155 0 269 -57.5t167 -161
t33 -233.5l-107 -668q-19 -123 -103.5 -199.5t-201.5 -76.5q-99 0 -158 54t-46 136l2 8h-9q-29 -96 -76 -148.5t-104 -52.5q-147 0 -94 330l86 551q17 100 66 159.5t114 59.5q55 0 88.5 -43.5t36.5 -118.5h6l25 150h215zM764 784q3 78 -41 78q-43 0 -55 -65l-78 -494
q-12 -70 31 -70q23 0 41.5 21t27.5 59z" />
    <glyph glyph-name="A" unicode="A" horiz-adv-x="616" 
d="M692 1434l-86 -1434h-241l36 324h-84l-65 -324h-240l367 1434h313zM358 516h64l65 586h-10z" />
    <glyph glyph-name="B" unicode="B" horiz-adv-x="638" 
d="M795 1124l-23 -131q-29 -201 -184 -252l-2 -6q70 -23 98.5 -88t13.5 -164l-28 -172q-24 -155 -117 -234t-234 -79h-282l227 1436h279q140 0 208 -78t44 -232zM559 1157q6 43 -4.5 62.5t-40.5 19.5h-39l-65 -405h36q34 0 50.5 20t25.5 74zM467 549q15 92 -51 92h-37
l-70 -448h39q32 0 50.5 19.5t25.5 63.5z" />
    <glyph glyph-name="C" unicode="C" horiz-adv-x="653" 
d="M567 1190q6 43 -3 62.5t-36 19.5q-51 0 -63 -82l-150 -942q-8 -45 0.5 -64.5t36.5 -19.5q52 0 66 84l45 282h239l-38 -249q-26 -154 -116 -233t-226 -79q-135 0 -201 79t-41 233l137 874q25 155 115.5 232t226.5 77q137 0 202 -77t40 -232l-39 -248h-240z" />
    <glyph glyph-name="D" unicode="D" horiz-adv-x="655" 
d="M799 1124l-129 -813q-24 -154 -117 -232.5t-234 -78.5h-282l227 1434h281q141 0 209.5 -77.5t44.5 -232.5zM563 1159q8 43 -3.5 62.5t-43.5 19.5h-41l-166 -1046h39q32 0 50.5 20t25.5 64z" />
    <glyph glyph-name="E" unicode="E" horiz-adv-x="491" 
d="M680 1434l-31 -193h-174l-69 -430h163l-30 -193h-164l-66 -423h193l-31 -195h-434l227 1434h416z" />
    <glyph glyph-name="F" unicode="F" horiz-adv-x="473" 
d="M680 1434l-31 -193h-174l-69 -440h147l-31 -193h-147l-96 -608h-242l227 1434h416z" />
    <glyph glyph-name="G" unicode="G" horiz-adv-x="653" 
d="M567 1190q6 43 -3 62.5t-36 19.5q-51 0 -63 -82l-150 -942q-14 -84 37 -84q27 0 47 24t27 70l47 295h-65l30 192h299l-119 -745h-212l8 133h-8q-15 -71 -69.5 -117.5t-127.5 -46.5q-91 0 -122.5 76.5t-6.5 235.5l137 874q25 155 115.5 232t226.5 77q137 0 202 -77
t40 -232l-39 -248h-240z" />
    <glyph glyph-name="H" unicode="H" horiz-adv-x="653" 
d="M842 1434l-226 -1434h-241l98 618h-98l-96 -618h-242l227 1434h240l-98 -623h98l98 623h240z" />
    <glyph glyph-name="I" unicode="I" horiz-adv-x="315" 
d="M504 1434l-225 -1434h-242l227 1434h240z" />
    <glyph glyph-name="J" unicode="J" horiz-adv-x="645" 
d="M838 1434l-183 -1153q-24 -155 -115 -233.5t-225 -78.5q-136 0 -201.5 79t-41.5 233l39 249h241l-45 -282q-14 -84 37 -84q52 0 66 84l188 1186h240z" />
    <glyph glyph-name="K" unicode="K" horiz-adv-x="659" 
d="M866 1434l-254 -600l29 -834h-242l2 618h-6l-28 -59l-88 -559h-242l227 1434h240l-53 -342l-70 -289l6 -2l238 633h241z" />
    <glyph glyph-name="L" unicode="L" horiz-adv-x="477" 
d="M264 1434h240l-195 -1239h172l-30 -195h-414z" />
    <glyph glyph-name="M" unicode="M" horiz-adv-x="894" 
d="M1085 1434l-227 -1434h-225l231 1118l-10 2l-41 -149l-252 -971h-221l51 971l4 149l-10 -2l-123 -1118h-225l227 1434h348l-114 -1104h10l227 1104h350z" />
    <glyph glyph-name="N" unicode="N" horiz-adv-x="704" 
d="M893 1434l-225 -1434h-291l8 899v148l-12 -3l-94 -1044h-242l227 1434h289l-4 -863v-147l12 2l12 149l80 859h240z" />
    <glyph glyph-name="O" unicode="O" horiz-adv-x="653" 
d="M803 1155l-139 -874q-24 -152 -113.5 -232t-226.5 -80q-138 0 -202.5 80t-41.5 232l139 874q24 150 114 229.5t228 79.5q139 0 202.5 -78.5t39.5 -230.5zM567 1190q14 82 -37 82q-27 0 -42 -19.5t-23 -62.5l-150 -942q-6 -45 2.5 -64.5t34.5 -19.5q55 0 66 84z" />
    <glyph glyph-name="P" unicode="P" horiz-adv-x="655" 
d="M797 1110l-45 -287q-26 -156 -121 -240.5t-234 -84.5h-41l-77 -498h-242l227 1434h281q139 0 207.5 -84.5t44.5 -239.5zM563 1159q8 43 -3.5 62.5t-43.5 19.5h-41l-88 -551h41q62 0 76 84z" />
    <glyph glyph-name="Q" unicode="Q" horiz-adv-x="653" 
d="M799 1141l-133 -844q-24 -150 -109.5 -235t-210.5 -93q7 -25 24.5 -41.5t44 -24t50 -10t55.5 -2.5l6 -6l-26 -161l-4 -9q-54 0 -90 9t-66.5 34.5t-40.5 78t0 132.5q-123 8 -182 93.5t-35 234.5l133 844q26 155 118.5 239t225.5 84q135 0 200.5 -84t39.5 -239zM567 1190
q6 43 -3 62.5t-36 19.5q-51 0 -63 -82l-150 -942q-8 -45 0.5 -64.5t36.5 -19.5q52 0 66 84z" />
    <glyph glyph-name="R" unicode="R" horiz-adv-x="663" 
d="M264 1434h281q139 0 207.5 -84.5t44.5 -241.5l-31 -186q-13 -92 -61 -153.5t-123 -86.5v-8q136 -47 108 -240l-37 -231q-17 -99 -14 -195l-2 -8h-240q-2 85 15 203l47 295q8 43 -3.5 62.5t-43.5 19.5h-43l-90 -580h-242zM475 1241l-76 -467h41q32 0 50.5 20t25.5 64
l47 301q8 43 -3.5 62.5t-43.5 19.5h-41z" />
    <glyph glyph-name="S" unicode="S" horiz-adv-x="655" 
d="M772 969h-240l35 221q14 82 -35 82q-27 0 -42.5 -19t-22.5 -63l-23 -141q-9 -64 17 -120t82 -128q20 -25 30.5 -39t29 -39.5t29 -44t24 -45.5t19.5 -51.5t11.5 -54t5 -61t-5.5 -65.5l-18 -120q-24 -152 -115 -232t-229 -80t-203 80t-41 232l31 188h239l-35 -221
q-7 -46 2.5 -65t36.5 -19q55 0 66 84l22 141q6 35 -1.5 70.5t-29 73.5t-40.5 64.5t-52 68.5q-70 88 -102 170t-14 194l18 125q24 152 113.5 230.5t226.5 78.5q138 0 202 -78.5t40 -230.5z" />
    <glyph glyph-name="T" unicode="T" horiz-adv-x="602" 
d="M801 1434l-29 -193h-154l-196 -1241h-242l197 1241h-154l31 193h547z" />
    <glyph glyph-name="U" unicode="U" horiz-adv-x="663" 
d="M856 1434l-182 -1153q-24 -155 -116 -233.5t-230 -78.5t-205 79t-43 233l182 1153h242l-189 -1186q-8 -44 2 -64t39 -20q58 0 72 84l188 1186h240z" />
    <glyph glyph-name="V" unicode="V" horiz-adv-x="616" 
d="M465 0h-313l86 1434h241l-123 -1102h11l225 1102h239z" />
    <glyph glyph-name="W" unicode="W" horiz-adv-x="999" 
d="M1217 1434l-349 -1434h-317l113 946l16 150h-10l-221 -1096h-318l107 1434h241l-129 -1004l-20 -145h10l242 1149h290l-116 -1149h10l209 1149h242z" />
    <glyph glyph-name="X" unicode="X" horiz-adv-x="616" 
d="M834 1434l-224 -715l-4 -719h-241l18 416l29 205h-11l-41 -205l-108 -416h-240l219 721v8l7 705h241l-20 -404l-27 -205h10l41 205l109 404h242z" />
    <glyph glyph-name="Y" unicode="Y" horiz-adv-x="616" 
d="M834 1434l-334 -988l-70 -446h-242l72 446l-20 988h239l-67 -758h10l170 758h242z" />
    <glyph glyph-name="Z" unicode="Z" horiz-adv-x="540" 
d="M737 1434l-30 -193l-414 -1040l2 -6h258l-31 -195h-504l31 195l414 1038l-4 8h-230l29 193h479z" />
    <glyph glyph-name="bracketleft" unicode="[" horiz-adv-x="489" 
d="M373 -395h-383l307 1947h385l-31 -194h-143l-248 -1559h143z" />
    <glyph glyph-name="backslash" unicode="\" horiz-adv-x="526" 
d="M221 -164l68 1659h225l-68 -1659h-225z" />
    <glyph glyph-name="bracketright" unicode="]" horiz-adv-x="489" 
d="M297 1552h383l-307 -1947h-385l30 194h144l248 1559h-144z" />
    <glyph glyph-name="asciicircum" unicode="^" horiz-adv-x="600" 
d="M711 1024h-205l18 352h-10l-94 -352h-205l205 410h217z" />
    <glyph glyph-name="underscore" unicode="_" horiz-adv-x="575" 
d="M524 0l-30 -195h-471l30 195h471z" />
    <glyph glyph-name="grave" unicode="`" horiz-adv-x="436" 
d="M567 1153h-147l-141 281h178z" />
    <glyph glyph-name="a" unicode="a" horiz-adv-x="620" 
d="M590 0h-182l2 154h-9q-34 -78 -92 -131.5t-121 -53.5q-76 0 -106 81.5t-6 230.5l16 100q23 150 79 229.5t138 79.5q57 0 90 -36.5t41 -104.5h9l49 311q6 45 -2.5 64.5t-34.5 19.5q-50 0 -62 -82l-18 -114h-229l14 79q23 152 107 231t216 79q133 0 194 -79.5t38 -230.5z
M326 164q29 0 50 32t30 93l20 127q6 38 -5 60t-36 22q-47 0 -59 -82l-27 -168q-14 -84 27 -84z" />
    <glyph glyph-name="b" unicode="b" horiz-adv-x="622" 
d="M721 827l-86 -546q-23 -150 -81 -231t-140 -81q-57 0 -95.5 39t-48.5 109h-8l-45 -117h-182l244 1536h229l-86 -543h6q63 144 174 144q82 0 113 -80t6 -230zM342 164q45 0 59 84l97 614q14 82 -29 82q-26 0 -45.5 -24.5t-26.5 -73.5l-92 -584q-14 -98 37 -98z" />
    <glyph glyph-name="c" unicode="c" 
d="M494 862q8 43 -0.5 62.5t-34.5 19.5q-50 0 -64 -82l-96 -614q-8 -44 0.5 -64t34.5 -20t41 19t22 65l29 180h227l-22 -147q-25 -152 -109.5 -232t-216.5 -80q-133 0 -193.5 80t-35.5 232l86 546q25 151 110 230.5t217 79.5q133 0 192.5 -79t35.5 -231l-23 -147h-229z" />
    <glyph glyph-name="d" unicode="d" horiz-adv-x="622" 
d="M164 827q23 151 79 230.5t138 79.5q111 0 129 -144h6l86 543h229l-243 -1536h-182l-9 117h-6q-34 -70 -84.5 -109t-107.5 -39q-82 0 -114 81t-7 231zM330 164q54 0 71 98l93 584q14 98 -39 98q-46 0 -58 -82l-98 -614q-6 -45 1 -64.5t30 -19.5z" />
    <glyph glyph-name="e" unicode="e" 
d="M426 428h227l-22 -147q-25 -152 -109.5 -232t-216.5 -80q-133 0 -193.5 80t-35.5 232l86 546q25 151 110 230.5t217 79.5q133 0 192.5 -79t35.5 -231l-51 -327h-328l-39 -252q-8 -44 0.5 -64t34.5 -20t41 19t22 65zM494 862q8 43 -0.5 62.5t-34.5 19.5q-50 0 -64 -82
l-30 -198h98z" />
    <glyph glyph-name="f" unicode="f" horiz-adv-x="352" 
d="M66 0l145 913h-61l30 193h62l30 192q7 42 15 73t20.5 56.5t26 42.5t36.5 29.5t45.5 19t58.5 11t71 5.5t88 1l-31 -193q-63 0 -80.5 -11.5t-25.5 -57.5l-27 -168h70l-31 -193l-70 -2l-143 -911h-229z" />
    <glyph glyph-name="g" unicode="g" 
d="M719 827l-64 -403q-25 -151 -108.5 -231t-218.5 -80h-58q-44 0 -47 -33q-3 -17 4.5 -24t28.5 -7h143q91 0 136 -49.5t30 -142.5q-34 -211 -315 -211h-17q-123 0 -184.5 35t-50.5 100q8 47 54 71t138 27v8q-167 3 -149 115q8 51 50 87t108 46l2 8q-66 29 -92 101.5
t-9 179.5l64 403q22 136 92 216t176 92q43 4 61 18t21 43l14 82h195l-8 -45q-7 -46 -39 -70.5t-117 -25.5v-9q98 -17 139 -94t21 -207zM496 862q14 82 -35 82q-50 0 -64 -82l-73 -471q-8 -45 0 -64.5t34 -19.5q27 0 42 19.5t22 64.5zM258 -115q-53 0 -59 -39q-3 -20 8 -29.5
t39 -9.5h80q53 0 59 39q3 20 -8 29.5t-39 9.5h-80z" />
    <glyph glyph-name="h" unicode="h" horiz-adv-x="624" 
d="M590 0h-228l136 860q14 84 -31 84q-55 0 -70 -100l-133 -844h-229l244 1536h227l-80 -514h6q67 115 166 115q82 0 115 -81t8 -231z" />
    <glyph glyph-name="i" unicode="i" horiz-adv-x="299" 
d="M219 1157l41 256h227l-41 -256h-227zM35 0l176 1106h227l-174 -1106h-229z" />
    <glyph glyph-name="j" unicode="j" horiz-adv-x="292" 
d="M481 1413l-41 -256h-227l39 256h229zM432 1106l-199 -1253q-9 -57 -20 -94t-31 -65t-42 -42.5t-64 -23.5t-85.5 -11t-115.5 -2l31 192q46 0 65.5 5.5t26 18t12.5 46.5l195 1229h227z" />
    <glyph glyph-name="k" unicode="k" horiz-adv-x="636" 
d="M799 1106l-230 -461v-2l58 -643h-242l-18 477h-9l-26 -47l-68 -430h-229l244 1536h227l-109 -692l-59 -223l6 -3l213 488h242z" />
    <glyph glyph-name="l" unicode="l" horiz-adv-x="299" 
d="M37 0l242 1536h229l-244 -1536h-227z" />
    <glyph glyph-name="m" unicode="m" horiz-adv-x="942" 
d="M584 0h-228l136 860q14 84 -29 84q-50 0 -68 -100l-133 -844h-227l174 1106h182l8 -115h9q32 69 81 107.5t105 38.5t88.5 -39t36.5 -113h6q34 72 83.5 112t106.5 40q82 0 113 -80.5t8 -231.5l-131 -825h-227l135 860q14 84 -29 84q-49 0 -67 -100z" />
    <glyph glyph-name="n" unicode="n" horiz-adv-x="624" 
d="M590 0h-230l138 860q6 45 -1 64.5t-30 19.5q-54 0 -72 -100l-133 -844h-227l174 1106h182l8 -115h7q34 69 84.5 107.5t107.5 38.5q82 0 114 -81t7 -231z" />
    <glyph glyph-name="o" unicode="o" 
d="M717 827l-86 -546q-25 -152 -109.5 -232t-216.5 -80q-133 0 -193.5 80t-35.5 232l86 546q25 151 110 230.5t217 79.5q133 0 192.5 -79t35.5 -231zM494 862q8 43 -0.5 62.5t-34.5 19.5q-50 0 -64 -82l-96 -614q-8 -44 0.5 -64t34.5 -20t41 19t22 65z" />
    <glyph glyph-name="p" unicode="p" horiz-adv-x="622" 
d="M635 279q-25 -150 -81 -230t-136 -80q-55 0 -88 37.5t-41 106.5h-8l-86 -543h-228l244 1536h182l8 -115h7q34 69 83.5 107.5t106.5 38.5q82 0 115 -81t8 -231zM342 164q24 0 38 19t21 63l97 614q14 84 -31 84q-55 0 -70 -100l-92 -584q-14 -96 37 -96z" />
    <glyph glyph-name="q" unicode="q" horiz-adv-x="622" 
d="M76 279l88 546q23 150 81 231t140 81q56 0 94.5 -38.5t48.5 -107.5h9l43 115h182l-244 -1536h-227l86 543h-8q-61 -144 -172 -144q-82 0 -113 79.5t-8 230.5zM330 164q55 0 69 96l93 584q18 100 -37 100q-47 0 -58 -84l-98 -614q-6 -45 1 -63.5t30 -18.5z" />
    <glyph glyph-name="r" unicode="r" horiz-adv-x="464" 
d="M209 1106h199l-17 -188h4q8 45 19.5 77.5t29 53t34 32.5t44.5 17.5t48.5 6.5t58.5 1l-37 -240q-108 0 -155 -32t-60 -119l-115 -715h-227z" />
    <glyph glyph-name="s" unicode="s" 
d="M702 750h-229l29 170q8 63 -35 63q-48 0 -59 -63l-19 -113q-7 -47 21.5 -92.5t83.5 -100.5q39 -39 60 -63.5t47 -65t34 -85t0 -95.5l-10 -61q-19 -122 -108.5 -198.5t-213.5 -76.5q-125 0 -188.5 76t-44.5 199l18 114h229l-28 -170q-4 -36 5.5 -50.5t33.5 -14.5
q51 0 59 65l19 109q7 50 -27 100.5t-100 116.5q-67 69 -100 133t-19 150l10 67q20 123 106.5 198t212.5 75q125 0 188 -76t44 -197z" />
    <glyph glyph-name="t" unicode="t" horiz-adv-x="403" 
d="M266 1270h230l-27 -164h96l-30 -193h-97l-102 -649q-8 -46 6 -57.5t78 -11.5l-31 -195q-52 0 -87.5 1.5t-70 5.5t-55 11t-39 19.5t-26.5 29.5t-13 42t-3 56t9 73l107 675h-61l30 193h62z" />
    <glyph glyph-name="u" unicode="u" horiz-adv-x="624" 
d="M211 1106h227l-135 -858q-14 -84 31 -84q55 0 69 98l134 844h229l-176 -1106h-182l-9 117h-6q-34 -70 -84 -109t-106 -39q-82 0 -115 81t-8 231z" />
    <glyph glyph-name="v" unicode="v" horiz-adv-x="600" 
d="M440 0h-282l22 1106h240l-74 -774h10l29 139l143 635h240z" />
    <glyph glyph-name="w" unicode="w" horiz-adv-x="976" 
d="M1147 1106l-293 -1106h-317l118 1018h-10l-31 -144l-176 -874h-317l59 1106h240l-82 -686l-19 -135h11l188 821h291l-53 -686l-15 -135h11l155 821h240z" />
    <glyph glyph-name="x" unicode="x" horiz-adv-x="579" 
d="M750 1106l-197 -553l22 -553h-229l4 319l21 160h-11l-32 -160l-95 -319h-229l195 563l-19 543h230l-9 -311l-16 -158h10l31 158l94 311h230z" />
    <glyph glyph-name="y" unicode="y" horiz-adv-x="600" 
d="M416 -94q-17 -59 -32 -96.5t-39.5 -73t-54.5 -55t-77.5 -35t-109.5 -21.5t-148 -6l31 193q54 0 83.5 6t49 27t26.5 51t13 88l22 1122h242l-62 -651l-14 -138h10l29 138l143 651h242z" />
    <glyph glyph-name="z" unicode="z" horiz-adv-x="522" 
d="M664 1106l-25 -150l-346 -757l4 -4h235l-30 -195h-482l23 150l346 757l-4 6h-207l31 193h455z" />
    <glyph glyph-name="braceleft" unicode="{" horiz-adv-x="663" 
d="M621 1169l-46 -288q-24 -146 -73.5 -221.5t-145.5 -75.5l-2 -9q96 0 122 -75t3 -221l-45 -291q-19 -115 1 -152t100 -37h43l-31 -194h-127q-287 0 -232 358l60 369q8 51 4.5 84.5t-32.5 50t-91 16.5l31 193q89 0 121 33.5t45 117.5l59 367q28 179 115 268.5t229 89.5h127
l-31 -194h-45q-78 0 -109 -37t-50 -152z" />
    <glyph glyph-name="bar" unicode="|" horiz-adv-x="346" 
d="M233 -379h-241l303 1915h242z" />
    <glyph glyph-name="braceright" unicode="}" horiz-adv-x="663" 
d="M225 -12l45 291q24 145 74 220.5t145 75.5l3 7q-65 0 -98.5 37.5t-37 103.5t10.5 156l45 290q19 115 -1 152t-100 37h-43l31 194h127q286 0 231 -358l-59 -367q-13 -85 8 -118t111 -33l-29 -195q-90 0 -122.5 -33.5t-45.5 -117.5l-59 -367q-28 -179 -115 -268.5
t-229 -89.5h-127l30 194h46q78 0 109 37t50 152z" />
    <glyph glyph-name="asciitilde" unicode="~" 
d="M698 836l-4 -25q-22 -137 -62.5 -198.5t-107.5 -61.5q-69 0 -129 57l-8 6q-45 45 -92 45q-50 0 -62 -81l-4 -21h-90l4 23q20 127 64.5 193.5t109.5 66.5q59 0 129 -54l9 -6q56 -47 92 -47q47 0 59 78l4 25h88z" />
    <glyph glyph-name="exclamdown" unicode="&#xa1;" horiz-adv-x="356" 
d="M434 1077l-18 -121h-125l18 121h125zM250 -328h-242l33 205l172 885h176l-106 -885z" />
    <glyph glyph-name="cent" unicode="&#xa2;" 
d="M494 862q8 43 -0.5 62.5t-34.5 19.5q-50 0 -64 -82l-96 -614q-8 -44 0.5 -64t34.5 -20t41 19t22 65l29 180h227l-22 -147q-20 -124 -81.5 -200.5t-156.5 -100.5l-12 -162h-195l37 162q-90 22 -128.5 98.5t-18.5 202.5l86 546q20 125 83 201t161 98l12 162h194l-37 -162
q182 -48 142 -299l-23 -147h-229z" />
    <glyph glyph-name="sterling" unicode="&#xa3;" horiz-adv-x="720" 
d="M829 907h-241l45 283q6 43 -2.5 62.5t-34.5 19.5q-54 0 -66 -82l-84 -524h273l-31 -193h-272l-4 -33q-24 -156 -88 -245h393l-31 -195h-651l31 195q50 50 70 97t34 136l6 45h-67l30 193h68l78 489q24 155 114 232t226 77q137 0 202 -77t41 -232z" />
    <glyph glyph-name="currency" unicode="&#xa4;" horiz-adv-x="1075" 
d="M53 0l226 1434h970l-225 -1434h-971zM428 1331l238 -530l403 530h-641zM702 717l246 -547l172 1094zM354 1264l-172 -1094l418 547zM637 633l-404 -531h641z" />
    <glyph glyph-name="yen" unicode="&#xa5;" horiz-adv-x="616" 
d="M834 1434l-275 -816h109l-25 -163h-139l-4 -9l-6 -49h139l-27 -161h-139l-37 -236h-242l37 236h-137l27 161h137l8 49v9h-137l27 163l106 -2l-16 818h239l-67 -758h10l170 758h242z" />
    <glyph glyph-name="brokenbar" unicode="&#xa6;" horiz-adv-x="346" 
d="M403 702h-239l131 834h242zM233 -379h-241l133 836h240z" />
    <glyph glyph-name="section" unicode="&#xa7;" horiz-adv-x="661" 
d="M772 1049h-227l28 182q11 65 -34 65q-49 0 -60 -65l-18 -121q-8 -50 19 -99t81 -106q38 -42 58.5 -68t46.5 -70.5t33.5 -92.5t-1.5 -103l-10 -73q-15 -95 -67.5 -166t-131.5 -105q61 -68 91 -137t16 -160l-10 -63q-22 -132 -112 -214.5t-214 -82.5q-125 0 -188 82
t-41 215l18 123h230l-29 -185q-6 -37 3.5 -52t33.5 -15q50 0 61 67l19 119q6 36 -14 80t-43 73t-68 79q-66 70 -98.5 140t-16.5 163l12 80q15 94 66.5 164t128.5 104q-60 68 -89.5 136t-13.5 157l11 71q22 132 109 212.5t212 80.5t187.5 -81.5t42.5 -211.5zM377 371
q2 0 5 -1t5 -1q53 0 64 69l18 125q8 43 -23 103q-60 0 -69 -68l-21 -127q-7 -42 21 -100z" />
    <glyph glyph-name="dieresis" unicode="&#xa8;" horiz-adv-x="557" 
d="M293 1186l33 215h350l-35 -215h-348z" />
    <glyph glyph-name="copyright" unicode="&#xa9;" horiz-adv-x="1314" 
d="M182 821q51 322 221.5 481.5t473.5 159.5q619 0 516 -641l-33 -203q-51 -320 -225 -483.5t-492 -163.5q-313 0 -428 162.5t-63 493.5zM344 854l-43 -270q-41 -257 48 -372.5t325 -115.5t360.5 115.5t165.5 372.5l41 270q41 253 -48 367t-323 114t-360 -114.5t-166 -366.5
zM850 915q6 43 -2.5 62.5t-34.5 19.5q-50 0 -61 -73l-64 -404q-6 -41 2 -59.5t33 -18.5q27 0 42 19.5t21 64.5l21 119h227l-12 -86q-24 -152 -110 -231.5t-218 -79.5t-192 78t-37 227l53 338q23 146 108.5 222.5t217.5 76.5q133 0 192 -78.5t35 -230.5l-12 -86h-230z" />
    <glyph glyph-name="ordfeminine" unicode="&#xaa;" horiz-adv-x="421" 
d="M502 838h-105l4 86h-8q-18 -43 -51 -73t-68 -30q-42 0 -59.5 44.5t-5.5 127.5l10 56q12 82 44.5 126t78.5 44q32 0 50 -21t20 -59h8l26 170q9 45 -20 45q-27 0 -33 -43l-10 -62h-131l6 45q13 82 61.5 126t122.5 44q76 0 110 -43.5t21 -126.5zM352 932q16 0 28.5 16.5
t16.5 46.5l11 72q6 41 -23 41q-25 0 -33 -43l-14 -90q-3 -23 -0.5 -33t14.5 -10z" />
    <glyph glyph-name="guillemotleft" unicode="&#xab;" horiz-adv-x="1093" 
d="M610 444l-39 -206l-446 223l27 160l518 227l-29 -209l-258 -94v-6zM1112 444l-39 -206l-446 223l26 160l518 227l-28 -209l-258 -94v-6z" />
    <glyph glyph-name="logicalnot" unicode="&#xac;" horiz-adv-x="1075" 
d="M53 0l226 1434h970l-225 -1434h-971zM428 1331l238 -530l403 530h-641zM702 717l246 -547l172 1094zM354 1264l-172 -1094l418 547zM637 633l-404 -531h641z" />
    <glyph glyph-name="registered" unicode="&#xae;" horiz-adv-x="1314" 
d="M182 821q51 322 221.5 481.5t473.5 159.5q619 0 516 -641l-33 -203q-51 -320 -225 -483.5t-492 -163.5q-313 0 -428 162.5t-63 493.5zM344 854l-43 -270q-41 -257 48 -372.5t325 -115.5q237 0 361 115.5t165 372.5l41 270q41 253 -48 367t-323 114q-235 0 -360.5 -114
t-165.5 -367zM645 1190h189q100 0 148 -60.5t30 -171.5l-17 -98q-9 -64 -42 -107.5t-87 -60.5l-2 -6q98 -29 78 -164l-20 -131q-12 -77 -7 -137l-2 -6h-161q-2 62 10 143l26 172q9 60 -45 60h-24l-62 -375h-161zM786 1059l-47 -305h25q53 0 65 63l27 174q12 68 -43 68h-27z
" />
    <glyph glyph-name="macron" unicode="&#xaf;" horiz-adv-x="473" 
d="M639 1374l-27 -162h-368l26 162h369z" />
    <glyph glyph-name="degree" unicode="&#xb0;" horiz-adv-x="520" 
d="M659 1212l-4 -22q-20 -126 -83 -190t-162 -64q-101 0 -145.5 64t-24.5 190l4 22q20 126 84.5 189t165.5 63q99 0 142 -63.5t23 -188.5zM500 1245q6 39 -1 55.5t-30 16.5q-46 0 -57 -72l-13 -88q-6 -40 2 -57t31 -17t36 17t19 57z" />
    <glyph glyph-name="plusminus" unicode="&#xb1;" horiz-adv-x="880" 
d="M958 821l-30 -192h-283l-43 -269h-209l41 269h-282l30 192h283l43 269h211l-43 -269h282zM852 244l-31 -195h-745l30 195h746z" />
    <glyph glyph-name="twosuperior" unicode="&#xb2;" horiz-adv-x="430" 
d="M236 1147l18 127q15 93 66 141.5t126 48.5q77 0 113 -51t19 -151l-15 -91q-9 -62 -42 -106.5t-85 -89.5q-33 -28 -52.5 -47t-40 -54t-26.5 -73l-6 -39h183l-19 -113h-319l22 144q8 49 24 88.5t41 71.5t41 48t46 43q89 78 98 138l21 118q8 54 -21 54q-13 0 -20 -10.5
t-11 -38.5l-24 -158h-137z" />
    <glyph glyph-name="threesuperior" unicode="&#xb3;" horiz-adv-x="430" 
d="M584 1294l-21 -120q-13 -86 -76 -105v-6q31 -10 40 -33t3 -65l-24 -154q-12 -83 -62 -126.5t-127 -43.5t-113 43.5t-24 126.5l25 150h137l-27 -166q-6 -43 19 -43q27 0 35 43l22 153q6 36 -1 48t-34 12h-30l18 112h29q28 0 39.5 12.5t17.5 49.5l19 129q9 43 -19 43
q-24 0 -33 -43l-22 -144h-137l20 127q12 82 62.5 126t128.5 44q76 0 111.5 -44t23.5 -126z" />
    <glyph glyph-name="acute" unicode="&#xb4;" horiz-adv-x="348" 
d="M383 1153h-147l108 281h180z" />
    <glyph glyph-name="paragraph" unicode="&#xb6;" horiz-adv-x="1028" 
d="M915 -379h-239l303 1915h240zM602 -379h-242l125 795q-47 0 -80 2.5t-67.5 9.5t-57 20t-43.5 34t-32 52t-18.5 73t-6.5 97.5t8 125.5t21 157q17 107 36.5 188t40.5 139.5t50 98.5t57.5 64.5t70 37.5t81 17t96.5 4h264z" />
    <glyph glyph-name="periodcentered" unicode="&#xb7;" horiz-adv-x="356" 
d="M121 430l37 244h252l-39 -244h-250z" />
    <glyph glyph-name="cedilla" unicode="&#xb8;" horiz-adv-x="460" 
d="M68 -168l53 164h110l-24 -94q82 0 127.5 -37.5t36.5 -97.5q-11 -66 -80 -110t-164 -44q-49 0 -135 14l18 107q24 -8 58 -8q42 0 73.5 17t34.5 40q4 24 -24.5 36.5t-83.5 12.5z" />
    <glyph glyph-name="onesuperior" unicode="&#xb9;" horiz-adv-x="337" 
d="M465 1434l-107 -676h48l-19 -113h-231l16 113h49l78 493h-43l14 86q68 0 84 97h111z" />
    <glyph glyph-name="ordmasculine" unicode="&#xba;" horiz-adv-x="434" 
d="M588 1294l-76 -481q-13 -83 -64 -127.5t-129 -44.5q-79 0 -114.5 44t-22.5 128l76 481q12 83 62.5 126.5t128.5 43.5q79 0 115.5 -44t23.5 -126zM455 1311q6 43 -23 43q-27 0 -35 -43l-82 -516q-6 -43 21 -43q29 0 37 43z" />
    <glyph glyph-name="guillemotright" unicode="&#xbb;" horiz-adv-x="1093" 
d="M688 641l39 209l447 -225l-27 -160l-518 -227l28 208l258 95l3 6zM186 641l39 209l447 -225l-27 -160l-518 -227l29 208l258 95l2 6z" />
    <glyph glyph-name="onequarter" unicode="&#xbc;" horiz-adv-x="911" 
d="M465 1434l-107 -676h48l-19 -113h-231l16 113h49l78 493h-43l14 86q68 0 84 97h111zM362 0h-149l539 1434h151zM958 788l-90 -567h27l-18 -112h-25l-18 -109h-138l17 109h-185l17 104l225 575h188zM680 221h51l14 94l68 273l-8 2l-14 -47z" />
    <glyph glyph-name="onehalf" unicode="&#xbd;" horiz-adv-x="960" 
d="M358 0h-149l539 1434h151zM465 1434l-107 -676h48l-19 -113h-231l16 113h49l78 493h-43l14 86q68 0 84 97h111zM662 502l18 127q15 93 66 141.5t126 48.5q77 0 113 -51.5t19 -151.5l-15 -90q-9 -62 -42 -106.5t-85 -89.5q-33 -28 -52.5 -47t-40 -54t-26.5 -73l-6 -39h183
l-19 -113h-319l22 143q8 49 24 88.5t41 71.5t41 48.5t46 43.5q89 78 98 138l20 118q8 54 -20 54q-12 0 -19.5 -11t-11.5 -39l-24 -157h-137z" />
    <glyph glyph-name="threequarters" unicode="&#xbe;" horiz-adv-x="987" 
d="M584 1294l-21 -120q-13 -86 -76 -105v-6q31 -10 40 -33t3 -65l-24 -154q-12 -83 -62 -126.5t-127 -43.5t-113 43.5t-24 126.5l25 150h137l-27 -166q-6 -43 19 -43q27 0 35 43l22 153q6 36 -1 48t-34 12h-30l18 112h29q28 0 39.5 12.5t17.5 49.5l19 129q9 43 -19 43
q-24 0 -33 -43l-22 -144h-137l20 127q12 82 62.5 126t128.5 44q76 0 111.5 -44t23.5 -126zM434 0h-149l538 1434h152zM1034 788l-90 -567h27l-19 -112h-24l-19 -109h-137l16 109h-184l17 104l225 575h188zM756 221h51l14 94l68 273l-8 2l-15 -47z" />
    <glyph glyph-name="questiondown" unicode="&#xbf;" horiz-adv-x="686" 
d="M317 862l37 244h252l-39 -244h-250zM51 -12l33 213h242l-43 -273q-8 -52 -0.5 -73t32.5 -21q27 0 43 23.5t25 76.5l29 177q14 103 -47 225q-17 34 -26.5 54t-23 60.5t-17.5 77.5t-3.5 93t10.5 118l4 23h240l-4 -33q-7 -40 -7 -77t4 -64t14 -56.5t19 -48t23 -45.5
q38 -75 54 -147.5t-1 -177.5l-20 -138q-27 -165 -117 -249t-225 -84q-139 0 -202 88t-36 258z" />
    <glyph glyph-name="Agrave" unicode="&#xc0;" horiz-adv-x="616" 
d="M608 1516h-147l-142 280h179zM692 1434l-86 -1434h-241l36 324h-84l-65 -324h-240l367 1434h313zM358 516h64l65 586h-10z" />
    <glyph glyph-name="Aacute" unicode="&#xc1;" horiz-adv-x="616" 
d="M618 1516h-147l109 280h180zM692 1434l-86 -1434h-241l36 324h-84l-65 -324h-240l367 1434h313zM358 516h64l65 586h-10z" />
    <glyph glyph-name="Acircumflex" unicode="&#xc2;" horiz-adv-x="616" 
d="M512 1516h-135l129 280h168l41 -280h-135l-2 178h-9zM692 1434l-86 -1434h-241l36 324h-84l-65 -324h-240l367 1434h313zM358 516h64l65 586h-10z" />
    <glyph glyph-name="Atilde" unicode="&#xc3;" horiz-adv-x="616" 
d="M776 1790l-4 -31q-40 -243 -137 -243q-51 0 -94 59l-6 8q-32 43 -60 43q-35 0 -47 -76l-4 -26h-72l4 26q39 246 142 246q44 0 90 -55l4 -6q36 -45 65 -45q36 0 48 69l4 31h67zM692 1434l-86 -1434h-241l36 324h-84l-65 -324h-240l367 1434h313zM358 516h64l65 586h-10z
" />
    <glyph glyph-name="Adieresis" unicode="&#xc4;" horiz-adv-x="616" 
d="M373 1548l33 215h352l-35 -215h-350zM692 1434l-86 -1434h-241l36 324h-84l-65 -324h-240l367 1434h313zM358 516h64l65 586h-10z" />
    <glyph glyph-name="Aring" unicode="&#xc5;" horiz-adv-x="616" 
d="M424 1628q0 75 46 124.5t124 49.5q58 0 91.5 -31.5t33.5 -91.5q0 -74 -47 -121t-127 -47q-121 0 -121 117zM510 1642q3 -49 47 -49q32 0 53 22t21 54q0 51 -49 51q-33 0 -52.5 -22.5t-19.5 -55.5zM692 1434l-86 -1434h-241l36 324h-84l-65 -324h-240l367 1434h313z
M358 516h64l65 586h-10z" />
    <glyph glyph-name="AE" unicode="&#xc6;" horiz-adv-x="811" 
d="M999 1434l-30 -193h-174l-70 -430h164l-31 -193h-164l-65 -423h192l-30 -195h-429l52 324h-82l-80 -324h-240l408 1434h579zM379 516h65l97 602h-11l-45 -164z" />
    <glyph glyph-name="Ccedilla" unicode="&#xc7;" horiz-adv-x="653" 
d="M567 1190q6 43 -3 62.5t-36 19.5q-51 0 -63 -82l-150 -942q-8 -45 0.5 -64.5t36.5 -19.5q52 0 66 84l45 282h239l-38 -249q-23 -138 -98 -216t-187 -92l-19 -71q82 0 127.5 -37.5t36.5 -97.5q-11 -66 -79.5 -110t-163.5 -44q-50 0 -136 14l19 107q24 -8 57 -8q42 0 74 17
t35 40q4 24 -25 36.5t-84 12.5l45 141q-108 16 -158.5 93.5t-27.5 214.5l137 874q25 155 115.5 232t226.5 77q137 0 202 -77t40 -232l-39 -248h-240z" />
    <glyph glyph-name="Egrave" unicode="&#xc8;" horiz-adv-x="491" 
d="M545 1516h-148l-141 280h178zM680 1434l-31 -193h-174l-69 -430h163l-30 -193h-164l-66 -423h193l-31 -195h-434l227 1434h416z" />
    <glyph glyph-name="Eacute" unicode="&#xc9;" horiz-adv-x="491" 
d="M555 1516h-147l108 280h180zM680 1434l-31 -193h-174l-69 -430h163l-30 -193h-164l-66 -423h193l-31 -195h-434l227 1434h416z" />
    <glyph glyph-name="Ecircumflex" unicode="&#xca;" horiz-adv-x="491" 
d="M449 1516h-136l129 280h168l41 -280h-135l-2 178h-8zM680 1434l-31 -193h-174l-69 -430h163l-30 -193h-164l-66 -423h193l-31 -195h-434l227 1434h416z" />
    <glyph glyph-name="Edieresis" unicode="&#xcb;" horiz-adv-x="491" 
d="M309 1548l33 215h352l-35 -215h-350zM680 1434l-31 -193h-174l-69 -430h163l-30 -193h-164l-66 -423h193l-31 -195h-434l227 1434h416z" />
    <glyph glyph-name="Igrave" unicode="&#xcc;" horiz-adv-x="315" 
d="M459 1516h-148l-141 280h178zM504 1434l-225 -1434h-242l227 1434h240z" />
    <glyph glyph-name="Iacute" unicode="&#xcd;" horiz-adv-x="315" 
d="M471 1516h-147l108 280h180zM504 1434l-225 -1434h-242l227 1434h240z" />
    <glyph glyph-name="Icircumflex" unicode="&#xce;" horiz-adv-x="315" 
d="M365 1516h-136l129 280h168l41 -280h-135l-2 178h-8zM504 1434l-225 -1434h-242l227 1434h240z" />
    <glyph glyph-name="Idieresis" unicode="&#xcf;" horiz-adv-x="315" 
d="M225 1548l33 215h350l-35 -215h-348zM504 1434l-225 -1434h-242l227 1434h240z" />
    <glyph glyph-name="Eth" unicode="&#xd0;" horiz-adv-x="655" 
d="M799 1124l-129 -813q-24 -154 -117 -232.5t-234 -78.5h-282l100 635h-45l25 156h45l102 643h281q141 0 209.5 -77.5t44.5 -232.5zM563 1159q8 43 -3.5 62.5t-43.5 19.5h-41l-72 -450h52l-25 -156h-51l-70 -440h39q32 0 50.5 20t25.5 64z" />
    <glyph glyph-name="Ntilde" unicode="&#xd1;" horiz-adv-x="704" 
d="M840 1790l-4 -31q-40 -243 -138 -243q-51 0 -94 59l-6 8q-32 43 -59 43q-35 0 -47 -76l-5 -26h-71l4 26q39 246 141 246q44 0 90 -55l4 -6q36 -45 66 -45q35 0 47 69l4 31h68zM893 1434l-225 -1434h-291l8 899v148l-12 -3l-94 -1044h-242l227 1434h289l-4 -863v-147l12 2
l12 149l80 859h240z" />
    <glyph glyph-name="Ograve" unicode="&#xd2;" horiz-adv-x="653" 
d="M629 1516h-148l-141 280h178zM803 1155l-139 -874q-24 -152 -113.5 -232t-226.5 -80q-138 0 -202.5 80t-41.5 232l139 874q24 150 114 229.5t228 79.5q139 0 202.5 -78.5t39.5 -230.5zM567 1190q14 82 -37 82q-27 0 -42 -19.5t-23 -62.5l-150 -942q-6 -45 2.5 -64.5
t34.5 -19.5q55 0 66 84z" />
    <glyph glyph-name="Oacute" unicode="&#xd3;" horiz-adv-x="653" 
d="M641 1516h-147l108 280h180zM803 1155l-139 -874q-24 -152 -113.5 -232t-226.5 -80q-138 0 -202.5 80t-41.5 232l139 874q24 150 114 229.5t228 79.5q139 0 202.5 -78.5t39.5 -230.5zM567 1190q14 82 -37 82q-27 0 -42 -19.5t-23 -62.5l-150 -942q-6 -45 2.5 -64.5
t34.5 -19.5q55 0 66 84z" />
    <glyph glyph-name="Ocircumflex" unicode="&#xd4;" horiz-adv-x="653" 
d="M535 1516h-136l129 280h168l41 -280h-135l-2 178h-8zM803 1155l-139 -874q-24 -152 -113.5 -232t-226.5 -80q-138 0 -202.5 80t-41.5 232l139 874q24 150 114 229.5t228 79.5q139 0 202.5 -78.5t39.5 -230.5zM567 1190q14 82 -37 82q-27 0 -42 -19.5t-23 -62.5l-150 -942
q-6 -45 2.5 -64.5t34.5 -19.5q55 0 66 84z" />
    <glyph glyph-name="Otilde" unicode="&#xd5;" horiz-adv-x="653" 
d="M797 1790l-4 -31q-40 -243 -138 -243q-51 0 -94 59l-6 8q-32 43 -59 43q-35 0 -47 -76l-5 -26h-71l4 26q39 246 141 246q44 0 90 -55l4 -6q36 -45 66 -45q35 0 47 69l4 31h68zM803 1155l-139 -874q-24 -152 -113.5 -232t-226.5 -80q-138 0 -202.5 80t-41.5 232l139 874
q24 150 114 229.5t228 79.5q139 0 202.5 -78.5t39.5 -230.5zM567 1190q14 82 -37 82q-27 0 -42 -19.5t-23 -62.5l-150 -942q-6 -45 2.5 -64.5t34.5 -19.5q55 0 66 84z" />
    <glyph glyph-name="Odieresis" unicode="&#xd6;" horiz-adv-x="653" 
d="M395 1548l33 215h350l-35 -215h-348zM803 1155l-139 -874q-24 -152 -113.5 -232t-226.5 -80q-138 0 -202.5 80t-41.5 232l139 874q24 150 114 229.5t228 79.5q139 0 202.5 -78.5t39.5 -230.5zM567 1190q14 82 -37 82q-27 0 -42 -19.5t-23 -62.5l-150 -942
q-6 -45 2.5 -64.5t34.5 -19.5q55 0 66 84z" />
    <glyph glyph-name="multiply" unicode="&#xd7;" horiz-adv-x="851" 
d="M821 1081l125 -149l-260 -223l188 -226l-172 -149l-188 225l-260 -225l-125 149l260 226l-190 223l172 149l190 -225z" />
    <glyph glyph-name="Oslash" unicode="&#xd8;" horiz-adv-x="653" 
d="M803 1155l-139 -874q-24 -152 -113.5 -232t-226.5 -80q-131 0 -197 72l-37 -72l-55 27l55 108q-25 73 -10 177l139 874q24 150 114 229.5t228 79.5q133 0 193 -69l37 69l55 -26l-53 -105q25 -67 10 -178zM567 1190q14 82 -37 82q-27 0 -42 -19.5t-23 -62.5l-82 -514
l147 287zM352 477l-37 -229q-6 -45 2.5 -64.5t34.5 -19.5q55 0 66 84l82 516z" />
    <glyph glyph-name="Ugrave" unicode="&#xd9;" horiz-adv-x="663" 
d="M633 1516h-148l-141 280h178zM856 1434l-182 -1153q-24 -155 -116 -233.5t-230 -78.5t-205 79t-43 233l182 1153h242l-189 -1186q-8 -44 2 -64t39 -20q58 0 72 84l188 1186h240z" />
    <glyph glyph-name="Uacute" unicode="&#xda;" horiz-adv-x="663" 
d="M643 1516h-147l108 280h180zM856 1434l-182 -1153q-24 -155 -116 -233.5t-230 -78.5t-205 79t-43 233l182 1153h242l-189 -1186q-8 -44 2 -64t39 -20q58 0 72 84l188 1186h240z" />
    <glyph glyph-name="Ucircumflex" unicode="&#xdb;" horiz-adv-x="663" 
d="M537 1516h-136l129 280h168l41 -280h-135l-2 178h-8zM856 1434l-182 -1153q-24 -155 -116 -233.5t-230 -78.5t-205 79t-43 233l182 1153h242l-189 -1186q-8 -44 2 -64t39 -20q58 0 72 84l188 1186h240z" />
    <glyph glyph-name="Udieresis" unicode="&#xdc;" horiz-adv-x="663" 
d="M399 1548l33 215h350l-34 -215h-349zM856 1434l-182 -1153q-24 -155 -116 -233.5t-230 -78.5t-205 79t-43 233l182 1153h242l-189 -1186q-8 -44 2 -64t39 -20q58 0 72 84l188 1186h240z" />
    <glyph glyph-name="Yacute" unicode="&#xdd;" horiz-adv-x="616" 
d="M621 1516h-148l109 280h180zM834 1434l-334 -988l-70 -446h-242l72 446l-20 988h239l-67 -758h10l170 758h242z" />
    <glyph glyph-name="Thorn" unicode="&#xde;" horiz-adv-x="655" 
d="M758 860l-45 -285q-26 -156 -121 -240.5t-234 -84.5h-41l-38 -250h-242l227 1434h240l-39 -248h41q139 0 207.5 -84.5t44.5 -241.5zM524 909q6 44 -5.5 63t-43.5 19h-41l-86 -549h41q63 0 74 84z" />
    <glyph glyph-name="germandbls" unicode="&#xdf;" horiz-adv-x="638" 
d="M557 1464q135 0 200 -81t40 -242l-25 -148q-30 -199 -186 -250v-8q71 -23 99 -87.5t11 -162.5l-26 -174q-24 -154 -117 -232.5t-234 -78.5h-10l31 195h8q32 0 50.5 20t25.5 64l43 270q7 49 -5 70.5t-46 21.5h-13l31 195h10q35 0 52 20t26 74l39 246q11 79 -35 79
q-50 0 -63 -79l-187 -1176h-239l182 1157q24 151 115 229t223 78z" />
    <glyph glyph-name="agrave" unicode="&#xe0;" horiz-adv-x="620" 
d="M559 1188h-147l-142 280h179zM590 0h-182l2 154h-9q-34 -78 -92 -131.5t-121 -53.5q-76 0 -106 81.5t-6 230.5l16 100q23 150 79 229.5t138 79.5q57 0 90 -36.5t41 -104.5h9l49 311q6 45 -2.5 64.5t-34.5 19.5q-50 0 -62 -82l-18 -114h-229l14 79q23 152 107 231t216 79
q133 0 194 -79.5t38 -230.5zM326 164q29 0 50 32t30 93l20 127q6 38 -5 60t-36 22q-47 0 -59 -82l-27 -168q-14 -84 27 -84z" />
    <glyph glyph-name="aacute" unicode="&#xe1;" horiz-adv-x="620" 
d="M569 1188h-147l108 280h181zM590 0h-182l2 154h-9q-34 -78 -92 -131.5t-121 -53.5q-76 0 -106 81.5t-6 230.5l16 100q23 150 79 229.5t138 79.5q57 0 90 -36.5t41 -104.5h9l49 311q6 45 -2.5 64.5t-34.5 19.5q-50 0 -62 -82l-18 -114h-229l14 79q23 152 107 231t216 79
q133 0 194 -79.5t38 -230.5zM326 164q29 0 50 32t30 93l20 127q6 38 -5 60t-36 22q-47 0 -59 -82l-27 -168q-14 -84 27 -84z" />
    <glyph glyph-name="acircumflex" unicode="&#xe2;" horiz-adv-x="620" 
d="M463 1188h-135l129 280h168l41 -280h-136l-2 178h-8zM590 0h-182l2 154h-9q-34 -78 -92 -131.5t-121 -53.5q-76 0 -106 81.5t-6 230.5l16 100q23 150 79 229.5t138 79.5q57 0 90 -36.5t41 -104.5h9l49 311q6 45 -2.5 64.5t-34.5 19.5q-50 0 -62 -82l-18 -114h-229l14 79
q23 152 107 231t216 79q133 0 194 -79.5t38 -230.5zM326 164q29 0 50 32t30 93l20 127q6 38 -5 60t-36 22q-47 0 -59 -82l-27 -168q-14 -84 27 -84z" />
    <glyph glyph-name="atilde" unicode="&#xe3;" horiz-adv-x="620" 
d="M727 1462l-4 -30q-40 -244 -137 -244q-51 0 -94 59l-7 8q-32 43 -59 43q-35 0 -47 -75l-4 -27h-72l4 27q39 245 142 245q44 0 90 -55l4 -6q36 -45 65 -45q35 0 47 70l4 30h68zM590 0h-182l2 154h-9q-34 -78 -92 -131.5t-121 -53.5q-76 0 -106 81.5t-6 230.5l16 100
q23 150 79 229.5t138 79.5q57 0 90 -36.5t41 -104.5h9l49 311q6 45 -2.5 64.5t-34.5 19.5q-50 0 -62 -82l-18 -114h-229l14 79q23 152 107 231t216 79q133 0 194 -79.5t38 -230.5zM326 164q29 0 50 32t30 93l20 127q6 38 -5 60t-36 22q-47 0 -59 -82l-27 -168
q-14 -84 27 -84z" />
    <glyph glyph-name="adieresis" unicode="&#xe4;" horiz-adv-x="620" 
d="M324 1221l32 215h353l-35 -215h-350zM590 0h-182l2 154h-9q-34 -78 -92 -131.5t-121 -53.5q-76 0 -106 81.5t-6 230.5l16 100q23 150 79 229.5t138 79.5q57 0 90 -36.5t41 -104.5h9l49 311q6 45 -2.5 64.5t-34.5 19.5q-50 0 -62 -82l-18 -114h-229l14 79q23 152 107 231
t216 79q133 0 194 -79.5t38 -230.5zM326 164q29 0 50 32t30 93l20 127q6 38 -5 60t-36 22q-47 0 -59 -82l-27 -168q-14 -84 27 -84z" />
    <glyph glyph-name="aring" unicode="&#xe5;" horiz-adv-x="620" 
d="M375 1300q0 76 46 125.5t124 49.5q58 0 91.5 -31.5t33.5 -91.5q0 -74 -47 -121t-127 -47q-121 0 -121 116zM461 1315q3 -49 47 -49q32 0 53 21.5t21 53.5q0 25 -13.5 38.5t-36.5 13.5q-33 0 -52 -22.5t-19 -55.5zM590 0h-182l2 154h-9q-34 -78 -92 -131.5t-121 -53.5
q-76 0 -106 81.5t-6 230.5l16 100q23 150 79 229.5t138 79.5q57 0 90 -36.5t41 -104.5h9l49 311q6 45 -2.5 64.5t-34.5 19.5q-50 0 -62 -82l-18 -114h-229l14 79q23 152 107 231t216 79q133 0 194 -79.5t38 -230.5zM326 164q29 0 50 32t30 93l20 127q6 38 -5 60t-36 22
q-47 0 -59 -82l-27 -168q-14 -84 27 -84z" />
    <glyph glyph-name="ae" unicode="&#xe6;" horiz-adv-x="948" 
d="M92 381q23 150 79 229.5t138 79.5q57 0 92.5 -36.5t47.5 -104.5l49 311q6 45 -2.5 64.5t-34.5 19.5q-50 0 -62 -82l-18 -114h-229l14 79q23 152 107 231t216 79q112 0 152 -74h4q64 74 174 74q132 0 192 -79t36 -231l-52 -327h-327l-39 -252q-8 -44 0.5 -64t34.5 -20
q25 0 40.5 19.5t22.5 64.5l29 180h227l-22 -147q-24 -152 -110 -232t-218 -80q-98 0 -155.5 47t-67.5 136h-4q-38 -76 -97.5 -129.5t-120.5 -53.5q-76 0 -106 81.5t-6 230.5zM823 862q8 43 -0.5 62.5t-34.5 19.5t-40.5 -19.5t-22.5 -62.5l-31 -198h99zM326 164q29 0 50 32
t30 93l20 127q6 38 -5.5 60t-37.5 22q-45 0 -57 -82l-27 -168q-14 -84 27 -84z" />
    <glyph glyph-name="ccedilla" unicode="&#xe7;" 
d="M494 862q8 43 -0.5 62.5t-34.5 19.5q-50 0 -64 -82l-96 -614q-8 -44 0.5 -64t34.5 -20t41 19t22 65l29 180h227l-22 -147q-22 -135 -92.5 -214t-178.5 -94l-18 -71q82 0 127.5 -37.5t36.5 -97.5q-11 -66 -80 -110t-164 -44q-49 0 -135 14l18 107q24 -8 58 -8
q42 0 73.5 17t34.5 40q4 24 -24.5 36.5t-83.5 12.5l45 141q-103 15 -148 94t-24 214l86 546q25 151 110 230.5t217 79.5q133 0 192.5 -79t35.5 -231l-23 -147h-229z" />
    <glyph glyph-name="egrave" unicode="&#xe8;" 
d="M559 1188h-147l-142 280h179zM426 428h227l-22 -147q-25 -152 -109.5 -232t-216.5 -80q-133 0 -193.5 80t-35.5 232l86 546q25 151 110 230.5t217 79.5q133 0 192.5 -79t35.5 -231l-51 -327h-328l-39 -252q-8 -44 0.5 -64t34.5 -20t41 19t22 65zM494 862q8 43 -0.5 62.5
t-34.5 19.5q-50 0 -64 -82l-30 -198h98z" />
    <glyph glyph-name="eacute" unicode="&#xe9;" 
d="M569 1188h-147l108 280h181zM426 428h227l-22 -147q-25 -152 -109.5 -232t-216.5 -80q-133 0 -193.5 80t-35.5 232l86 546q25 151 110 230.5t217 79.5q133 0 192.5 -79t35.5 -231l-51 -327h-328l-39 -252q-8 -44 0.5 -64t34.5 -20t41 19t22 65zM494 862q8 43 -0.5 62.5
t-34.5 19.5q-50 0 -64 -82l-30 -198h98z" />
    <glyph glyph-name="ecircumflex" unicode="&#xea;" 
d="M463 1188h-135l129 280h168l41 -280h-136l-2 178h-8zM426 428h227l-22 -147q-25 -152 -109.5 -232t-216.5 -80q-133 0 -193.5 80t-35.5 232l86 546q25 151 110 230.5t217 79.5q133 0 192.5 -79t35.5 -231l-51 -327h-328l-39 -252q-8 -44 0.5 -64t34.5 -20t41 19t22 65z
M494 862q8 43 -0.5 62.5t-34.5 19.5q-50 0 -64 -82l-30 -198h98z" />
    <glyph glyph-name="edieresis" unicode="&#xeb;" 
d="M324 1221l32 215h353l-35 -215h-350zM426 428h227l-22 -147q-25 -152 -109.5 -232t-216.5 -80q-133 0 -193.5 80t-35.5 232l86 546q25 151 110 230.5t217 79.5q133 0 192.5 -79t35.5 -231l-51 -327h-328l-39 -252q-8 -44 0.5 -64t34.5 -20t41 19t22 65zM494 862
q8 43 -0.5 62.5t-34.5 19.5q-50 0 -64 -82l-30 -198h98z" />
    <glyph glyph-name="igrave" unicode="&#xec;" horiz-adv-x="299" 
d="M399 1188h-147l-141 280h178zM35 0l174 1106h229l-176 -1106h-227z" />
    <glyph glyph-name="iacute" unicode="&#xed;" horiz-adv-x="299" 
d="M410 1188h-148l109 280h180zM35 0l174 1106h229l-176 -1106h-227z" />
    <glyph glyph-name="icircumflex" unicode="&#xee;" horiz-adv-x="299" 
d="M303 1188h-135l129 280h168l41 -280h-135l-2 178h-9zM35 0l174 1106h229l-176 -1106h-227z" />
    <glyph glyph-name="idieresis" unicode="&#xef;" horiz-adv-x="299" 
d="M164 1221l33 215h352l-35 -215h-350zM35 0l174 1106h229l-176 -1106h-227z" />
    <glyph glyph-name="eth" unicode="&#xf0;" 
d="M377 1536q148 -41 231 -115l94 58l29 -58l-78 -49q65 -88 80 -226t-16 -335l-84 -530q-24 -152 -110 -232t-218 -80t-191.5 80t-35.5 232l86 546q25 152 82 231t141 79q49 0 82 -28.5t43 -84.5h8q15 167 -10 262l-100 -61l-33 57l106 64q-41 73 -141 124zM496 862
q7 44 -1 63t-34 19t-41.5 -19t-22.5 -63l-98 -614q-6 -44 2 -64t33 -20q27 0 42.5 20.5t22.5 67.5z" />
    <glyph glyph-name="ntilde" unicode="&#xf1;" horiz-adv-x="624" 
d="M737 1462l-4 -30q-40 -244 -137 -244q-51 0 -94 59l-6 8q-32 43 -60 43q-35 0 -47 -75l-4 -27h-72l4 27q39 245 142 245q44 0 90 -55l4 -6q36 -45 65 -45q36 0 48 70l4 30h67zM590 0h-230l138 860q6 45 -1 64.5t-30 19.5q-54 0 -72 -100l-133 -844h-227l174 1106h182
l8 -115h7q34 69 84.5 107.5t107.5 38.5q82 0 114 -81t7 -231z" />
    <glyph glyph-name="ograve" unicode="&#xf2;" 
d="M559 1188h-147l-142 280h179zM717 827l-86 -546q-25 -152 -109.5 -232t-216.5 -80q-133 0 -193.5 80t-35.5 232l86 546q25 151 110 230.5t217 79.5q133 0 192.5 -79t35.5 -231zM494 862q8 43 -0.5 62.5t-34.5 19.5q-50 0 -64 -82l-96 -614q-8 -44 0.5 -64t34.5 -20t41 19
t22 65z" />
    <glyph glyph-name="oacute" unicode="&#xf3;" 
d="M569 1188h-147l108 280h181zM717 827l-86 -546q-25 -152 -109.5 -232t-216.5 -80q-133 0 -193.5 80t-35.5 232l86 546q25 151 110 230.5t217 79.5q133 0 192.5 -79t35.5 -231zM494 862q8 43 -0.5 62.5t-34.5 19.5q-50 0 -64 -82l-96 -614q-8 -44 0.5 -64t34.5 -20t41 19
t22 65z" />
    <glyph glyph-name="ocircumflex" unicode="&#xf4;" 
d="M463 1188h-135l129 280h168l41 -280h-136l-2 178h-8zM717 827l-86 -546q-25 -152 -109.5 -232t-216.5 -80q-133 0 -193.5 80t-35.5 232l86 546q25 151 110 230.5t217 79.5q133 0 192.5 -79t35.5 -231zM494 862q8 43 -0.5 62.5t-34.5 19.5q-50 0 -64 -82l-96 -614
q-8 -44 0.5 -64t34.5 -20t41 19t22 65z" />
    <glyph glyph-name="otilde" unicode="&#xf5;" 
d="M727 1462l-4 -30q-40 -244 -137 -244q-51 0 -94 59l-7 8q-32 43 -59 43q-35 0 -47 -75l-4 -27h-72l4 27q39 245 142 245q44 0 90 -55l4 -6q36 -45 65 -45q35 0 47 70l4 30h68zM717 827l-86 -546q-25 -152 -109.5 -232t-216.5 -80q-133 0 -193.5 80t-35.5 232l86 546
q25 151 110 230.5t217 79.5q133 0 192.5 -79t35.5 -231zM494 862q8 43 -0.5 62.5t-34.5 19.5q-50 0 -64 -82l-96 -614q-8 -44 0.5 -64t34.5 -20t41 19t22 65z" />
    <glyph glyph-name="odieresis" unicode="&#xf6;" 
d="M326 1221l32 215h351l-35 -215h-348zM717 827l-86 -546q-25 -152 -109.5 -232t-216.5 -80q-133 0 -193.5 80t-35.5 232l86 546q25 151 110 230.5t217 79.5q133 0 192.5 -79t35.5 -231zM494 862q8 43 -0.5 62.5t-34.5 19.5q-50 0 -64 -82l-96 -614q-8 -44 0.5 -64
t34.5 -20t41 19t22 65z" />
    <glyph glyph-name="divide" unicode="&#xf7;" horiz-adv-x="837" 
d="M911 791l-37 -193h-256l-28 -178h-225l28 178h-246l37 193h238l29 180h225l-29 -180h264z" />
    <glyph glyph-name="oslash" unicode="&#xf8;" 
d="M717 827l-86 -546q-25 -152 -109.5 -232t-216.5 -80q-119 0 -182 66l-39 -66l-53 27l57 96q-30 74 -12 189l86 546q25 151 110 230.5t217 79.5q117 0 181 -64l37 64l55 -25l-57 -96q30 -73 12 -189zM494 862q8 43 -0.5 62.5t-34.5 19.5q-50 0 -64 -82l-53 -342l133 228z
M317 360l-18 -112q-8 -44 0.5 -64t34.5 -20t41 19t22 65l54 340z" />
    <glyph glyph-name="ugrave" unicode="&#xf9;" horiz-adv-x="624" 
d="M483 1188h-147l-141 280h178zM211 1106h227l-135 -858q-14 -84 31 -84q55 0 69 98l134 844h229l-176 -1106h-182l-9 117h-6q-34 -70 -84 -109t-106 -39q-82 0 -115 81t-8 231z" />
    <glyph glyph-name="uacute" unicode="&#xfa;" horiz-adv-x="624" 
d="M494 1188h-148l109 280h180zM211 1106h227l-135 -858q-14 -84 31 -84q55 0 69 98l134 844h229l-176 -1106h-182l-9 117h-6q-34 -70 -84 -109t-106 -39q-82 0 -115 81t-8 231z" />
    <glyph glyph-name="ucircumflex" unicode="&#xfb;" horiz-adv-x="624" 
d="M387 1188h-135l129 280h168l41 -280h-135l-2 178h-9zM211 1106h227l-135 -858q-14 -84 31 -84q55 0 69 98l134 844h229l-176 -1106h-182l-9 117h-6q-34 -70 -84 -109t-106 -39q-82 0 -115 81t-8 231z" />
    <glyph glyph-name="udieresis" unicode="&#xfc;" horiz-adv-x="624" 
d="M248 1221l33 215h352l-35 -215h-350zM211 1106h227l-135 -858q-14 -84 31 -84q55 0 69 98l134 844h229l-176 -1106h-182l-9 117h-6q-34 -70 -84 -109t-106 -39q-82 0 -115 81t-8 231z" />
    <glyph glyph-name="yacute" unicode="&#xfd;" horiz-adv-x="600" 
d="M559 1188h-147l108 280h180zM416 -94q-17 -59 -32 -96.5t-39.5 -73t-54.5 -55t-77.5 -35t-109.5 -21.5t-148 -6l31 193q54 0 83.5 6t49 27t26.5 51t13 88l22 1122h242l-62 -651l-14 -138h10l29 138l143 651h242z" />
    <glyph glyph-name="thorn" unicode="&#xfe;" horiz-adv-x="622" 
d="M633 279q-23 -151 -79 -230.5t-138 -79.5q-110 0 -129 144h-6l-86 -543h-230l314 1966h227l-82 -514h8q67 115 166 115q82 0 114 -81t9 -231zM342 164q46 0 57 82l99 614q6 45 -1 64.5t-30 19.5q-55 0 -70 -100l-94 -584q-14 -96 39 -96z" />
    <glyph glyph-name="ydieresis" unicode="&#xff;" horiz-adv-x="600" 
d="M313 1221l33 215h352l-34 -215h-351zM416 -94q-17 -59 -32 -96.5t-39.5 -73t-54.5 -55t-77.5 -35t-109.5 -21.5t-148 -6l31 193q54 0 83.5 6t49 27t26.5 51t13 88l22 1122h242l-62 -651l-14 -138h10l29 138l143 651h242z" />
    <glyph glyph-name="Amacron" unicode="&#x100;" horiz-adv-x="616" 
d="M766 1737l-27 -162h-368l26 162h369zM692 1434l-86 -1434h-241l36 324h-84l-65 -324h-240l367 1434h313zM358 516h64l65 586h-10z" />
    <glyph glyph-name="amacron" unicode="&#x101;" horiz-adv-x="620" 
d="M717 1409l-27 -162h-368l26 162h369zM590 0h-182l2 154h-9q-34 -78 -92 -131.5t-121 -53.5q-76 0 -106 81.5t-6 230.5l16 100q23 150 79 229.5t138 79.5q57 0 90 -36.5t41 -104.5h9l49 311q6 45 -2.5 64.5t-34.5 19.5q-50 0 -62 -82l-18 -114h-229l14 79q23 152 107 231
t216 79q133 0 194 -79.5t38 -230.5zM326 164q29 0 50 32t30 93l20 127q6 38 -5 60t-36 22q-47 0 -59 -82l-27 -168q-14 -84 27 -84z" />
    <glyph glyph-name="Abreve" unicode="&#x102;" horiz-adv-x="616" 
d="M397 1796h133q-17 -117 43 -117q63 0 80 117h133q-23 -146 -81 -213t-158 -67q-99 0 -136 67.5t-14 212.5zM692 1434l-86 -1434h-241l36 324h-84l-65 -324h-240l367 1434h313zM358 516h64l65 586h-10z" />
    <glyph glyph-name="abreve" unicode="&#x103;" horiz-adv-x="620" 
d="M348 1468h133q-17 -116 43 -116q63 0 80 116h133q-23 -146 -81 -213t-158 -67q-99 0 -136 67.5t-14 212.5zM590 0h-182l2 154h-9q-34 -78 -92 -131.5t-121 -53.5q-76 0 -106 81.5t-6 230.5l16 100q23 150 79 229.5t138 79.5q57 0 90 -36.5t41 -104.5h9l49 311
q6 45 -2.5 64.5t-34.5 19.5q-50 0 -62 -82l-18 -114h-229l14 79q23 152 107 231t216 79q133 0 194 -79.5t38 -230.5zM326 164q29 0 50 32t30 93l20 127q6 38 -5 60t-36 22q-47 0 -59 -82l-27 -168q-14 -84 27 -84z" />
    <glyph glyph-name="Aogonek" unicode="&#x104;" horiz-adv-x="616" 
d="M692 1434l-86 -1434h-2q-56 -1 -96.5 -37t-48.5 -82q-5 -34 13 -57t56 -23q9 0 54 9l-23 -142q-72 -16 -119 -16q-93 0 -139 44.5t-37 110.5q11 63 68.5 116t150.5 77h-118l36 324h-84l-65 -324h-240l367 1434h313zM358 516h64l65 586h-10z" />
    <glyph glyph-name="aogonek" unicode="&#x105;" horiz-adv-x="620" 
d="M590 0h-2q-56 -1 -97 -37.5t-49 -81.5q-5 -34 13.5 -57t56.5 -23q8 0 53 9l-22 -142q-72 -16 -119 -16q-93 0 -139 44.5t-37 110.5q11 63 68.5 116t150.5 77h-59l2 154h-9q-34 -78 -92 -131.5t-121 -53.5q-76 0 -106 81.5t-6 230.5l16 100q23 150 79 229.5t138 79.5
q57 0 90 -36.5t41 -104.5h9l49 311q6 45 -2.5 64.5t-34.5 19.5q-50 0 -62 -82l-18 -114h-229l14 79q23 152 107 231t216 79q133 0 194 -79.5t38 -230.5zM326 164q29 0 50 32t30 93l20 127q6 38 -5 60t-36 22q-47 0 -59 -82l-27 -168q-14 -84 27 -84z" />
    <glyph glyph-name="Cacute" unicode="&#x106;" horiz-adv-x="653" 
d="M641 1516h-147l108 280h180zM567 1190q6 43 -3 62.5t-36 19.5q-51 0 -63 -82l-150 -942q-8 -45 0.5 -64.5t36.5 -19.5q52 0 66 84l45 282h239l-38 -249q-26 -154 -116 -233t-226 -79q-135 0 -201 79t-41 233l137 874q25 155 115.5 232t226.5 77q137 0 202 -77t40 -232
l-39 -248h-240z" />
    <glyph glyph-name="cacute" unicode="&#x107;" 
d="M567 1188h-147l108 280h181zM494 862q8 43 -0.5 62.5t-34.5 19.5q-50 0 -64 -82l-96 -614q-8 -44 0.5 -64t34.5 -20t41 19t22 65l29 180h227l-22 -147q-25 -152 -109.5 -232t-216.5 -80q-133 0 -193.5 80t-35.5 232l86 546q25 151 110 230.5t217 79.5q133 0 192.5 -79
t35.5 -231l-23 -147h-229z" />
    <glyph glyph-name="Ccircumflex" unicode="&#x108;" horiz-adv-x="653" 
d="M535 1516h-136l129 280h168l41 -280h-135l-2 178h-8zM567 1190q6 43 -3 62.5t-36 19.5q-51 0 -63 -82l-150 -942q-8 -45 0.5 -64.5t36.5 -19.5q52 0 66 84l45 282h239l-38 -249q-26 -154 -116 -233t-226 -79q-135 0 -201 79t-41 233l137 874q25 155 115.5 232t226.5 77
q137 0 202 -77t40 -232l-39 -248h-240z" />
    <glyph glyph-name="ccircumflex" unicode="&#x109;" 
d="M461 1188h-135l129 280h168l41 -280h-136l-2 178h-8zM494 862q8 43 -0.5 62.5t-34.5 19.5q-50 0 -64 -82l-96 -614q-8 -44 0.5 -64t34.5 -20t41 19t22 65l29 180h227l-22 -147q-25 -152 -109.5 -232t-216.5 -80q-133 0 -193.5 80t-35.5 232l86 546q25 151 110 230.5
t217 79.5q133 0 192.5 -79t35.5 -231l-23 -147h-229z" />
    <glyph glyph-name="Cdotaccent" unicode="&#x10a;" horiz-adv-x="653" 
d="M477 1548l35 215h195l-35 -215h-195zM567 1190q6 43 -3 62.5t-36 19.5q-51 0 -63 -82l-150 -942q-8 -45 0.5 -64.5t36.5 -19.5q52 0 66 84l45 282h239l-38 -249q-26 -154 -116 -233t-226 -79q-135 0 -201 79t-41 233l137 874q25 155 115.5 232t226.5 77q137 0 202 -77
t40 -232l-39 -248h-240z" />
    <glyph glyph-name="cdotaccent" unicode="&#x10b;" 
d="M406 1221l34 215h195l-35 -215h-194zM494 862q8 43 -0.5 62.5t-34.5 19.5q-50 0 -64 -82l-96 -614q-8 -44 0.5 -64t34.5 -20t41 19t22 65l29 180h227l-22 -147q-25 -152 -109.5 -232t-216.5 -80q-133 0 -193.5 80t-35.5 232l86 546q25 151 110 230.5t217 79.5
q133 0 192.5 -79t35.5 -231l-23 -147h-229z" />
    <glyph glyph-name="Ccaron" unicode="&#x10c;" horiz-adv-x="653" 
d="M647 1796h135l-129 -280h-170l-39 280h136l2 -176h6zM567 1190q6 43 -3 62.5t-36 19.5q-51 0 -63 -82l-150 -942q-8 -45 0.5 -64.5t36.5 -19.5q52 0 66 84l45 282h239l-38 -249q-26 -154 -116 -233t-226 -79q-135 0 -201 79t-41 233l137 874q25 155 115.5 232t226.5 77
q137 0 202 -77t40 -232l-39 -248h-240z" />
    <glyph glyph-name="ccaron" unicode="&#x10d;" 
d="M573 1468h136l-129 -280h-170l-39 280h135l2 -176h6zM494 862q8 43 -0.5 62.5t-34.5 19.5q-50 0 -64 -82l-96 -614q-8 -44 0.5 -64t34.5 -20t41 19t22 65l29 180h227l-22 -147q-25 -152 -109.5 -232t-216.5 -80q-133 0 -193.5 80t-35.5 232l86 546q25 151 110 230.5
t217 79.5q133 0 192.5 -79t35.5 -231l-23 -147h-229z" />
    <glyph glyph-name="Dcaron" unicode="&#x10e;" horiz-adv-x="655" 
d="M616 1796h136l-129 -280h-170l-39 280h135l2 -176h6zM799 1124l-129 -813q-24 -154 -117 -232.5t-234 -78.5h-282l227 1434h281q141 0 209.5 -77.5t44.5 -232.5zM563 1159q8 43 -3.5 62.5t-43.5 19.5h-41l-166 -1046h39q32 0 50.5 20t25.5 64z" />
    <glyph glyph-name="dcaron" unicode="&#x10f;" horiz-adv-x="622" 
d="M164 827q23 151 79 230.5t138 79.5q111 0 129 -144h6l86 543h229l-243 -1536h-182l-9 117h-6q-34 -70 -84.5 -109t-107.5 -39q-82 0 -114 81t-7 231zM797 1174l94 362h158l-158 -362h-94zM330 164q54 0 71 98l93 584q14 98 -39 98q-46 0 -58 -82l-98 -614q-6 -45 1 -64.5
t30 -19.5z" />
    <glyph glyph-name="Dcroat" unicode="&#x110;" horiz-adv-x="655" 
d="M799 1124l-129 -813q-24 -154 -117 -232.5t-234 -78.5h-282l100 635h-45l25 156h45l102 643h281q141 0 209.5 -77.5t44.5 -232.5zM563 1159q8 43 -3.5 62.5t-43.5 19.5h-41l-72 -450h52l-25 -156h-51l-70 -440h39q32 0 50.5 20t25.5 64z" />
    <glyph glyph-name="dcroat" unicode="&#x111;" horiz-adv-x="622" 
d="M164 827q23 151 79 230.5t138 79.5q111 0 129 -144h6l35 213h-111l25 156h110l27 174h229l-28 -174h61l-24 -156h-62l-190 -1206h-182l-9 117h-6q-34 -70 -84.5 -109t-107.5 -39q-82 0 -114 81t-7 231zM330 164q54 0 71 98l93 584q14 98 -39 98q-46 0 -58 -82l-98 -614
q-6 -45 1 -64.5t30 -19.5z" />
    <glyph glyph-name="Emacron" unicode="&#x112;" horiz-adv-x="491" 
d="M705 1737l-27 -162h-369l27 162h369zM680 1434l-31 -193h-174l-69 -430h163l-30 -193h-164l-66 -423h193l-31 -195h-434l227 1434h416z" />
    <glyph glyph-name="emacron" unicode="&#x113;" 
d="M719 1409l-27 -162h-368l26 162h369zM426 428h227l-22 -147q-25 -152 -109.5 -232t-216.5 -80q-133 0 -193.5 80t-35.5 232l86 546q25 151 110 230.5t217 79.5q133 0 192.5 -79t35.5 -231l-51 -327h-328l-39 -252q-8 -44 0.5 -64t34.5 -20t41 19t22 65zM494 862
q8 43 -0.5 62.5t-34.5 19.5q-50 0 -64 -82l-30 -198h98z" />
    <glyph glyph-name="Ebreve" unicode="&#x114;" horiz-adv-x="491" 
d="M334 1796h133q-17 -117 43 -117q63 0 80 117h133q-23 -145 -81.5 -212.5t-158.5 -67.5q-99 0 -135.5 67.5t-13.5 212.5zM680 1434l-31 -193h-174l-69 -430h163l-30 -193h-164l-66 -423h193l-31 -195h-434l227 1434h416z" />
    <glyph glyph-name="ebreve" unicode="&#x115;" 
d="M348 1468h133q-17 -116 43 -116q63 0 80 116h133q-23 -146 -81 -213t-158 -67q-99 0 -136 67.5t-14 212.5zM426 428h227l-22 -147q-25 -152 -109.5 -232t-216.5 -80q-133 0 -193.5 80t-35.5 232l86 546q25 151 110 230.5t217 79.5q133 0 192.5 -79t35.5 -231l-51 -327
h-328l-39 -252q-8 -44 0.5 -64t34.5 -20t41 19t22 65zM494 862q8 43 -0.5 62.5t-34.5 19.5q-50 0 -64 -82l-30 -198h98z" />
    <glyph glyph-name="Edotaccent" unicode="&#x116;" horiz-adv-x="491" 
d="M393 1548l35 215h195l-35 -215h-195zM680 1434l-31 -193h-174l-69 -430h163l-30 -193h-164l-66 -423h193l-31 -195h-434l227 1434h416z" />
    <glyph glyph-name="edotaccent" unicode="&#x117;" 
d="M408 1221l34 215h195l-35 -215h-194zM426 428h227l-22 -147q-25 -152 -109.5 -232t-216.5 -80q-133 0 -193.5 80t-35.5 232l86 546q25 151 110 230.5t217 79.5q133 0 192.5 -79t35.5 -231l-51 -327h-328l-39 -252q-8 -44 0.5 -64t34.5 -20t41 19t22 65zM494 862
q8 43 -0.5 62.5t-34.5 19.5q-50 0 -64 -82l-30 -198h98z" />
    <glyph glyph-name="Eogonek" unicode="&#x118;" horiz-adv-x="491" 
d="M680 1434l-31 -193h-174l-69 -430h163l-30 -193h-164l-66 -423h193l-31 -195h-2q-56 -1 -96.5 -37t-48.5 -82q-5 -34 13 -57t56 -23q8 0 53 9l-22 -142q-72 -16 -119 -16q-93 0 -139 44.5t-37 110.5q11 63 68.5 116t150.5 77h-311l227 1434h416z" />
    <glyph glyph-name="eogonek" unicode="&#x119;" 
d="M449 -190l-23 -142q-69 -16 -119 -16q-84 0 -130 37.5t-46 95.5q0 121 145 184q-119 9 -171 88.5t-29 223.5l86 546q25 151 110 230.5t217 79.5q133 0 192.5 -79t35.5 -231l-51 -327h-328l-39 -252q-8 -44 0.5 -64t34.5 -20t41 19t22 65l29 180h227l-22 -147
q-40 -245 -228 -299q-33 -18 -54.5 -47t-22.5 -62q0 -32 20.5 -52t50.5 -20q11 0 52 9zM494 862q8 43 -0.5 62.5t-34.5 19.5q-50 0 -64 -82l-30 -198h98z" />
    <glyph glyph-name="Ecaron" unicode="&#x11a;" horiz-adv-x="491" 
d="M561 1796h135l-129 -280h-170l-39 280h136l2 -176h6zM680 1434l-31 -193h-174l-69 -430h163l-30 -193h-164l-66 -423h193l-31 -195h-434l227 1434h416z" />
    <glyph glyph-name="ecaron" unicode="&#x11b;" 
d="M575 1468h136l-129 -280h-170l-39 280h135l2 -176h6zM426 428h227l-22 -147q-25 -152 -109.5 -232t-216.5 -80q-133 0 -193.5 80t-35.5 232l86 546q25 151 110 230.5t217 79.5q133 0 192.5 -79t35.5 -231l-51 -327h-328l-39 -252q-8 -44 0.5 -64t34.5 -20t41 19t22 65z
M494 862q8 43 -0.5 62.5t-34.5 19.5q-50 0 -64 -82l-30 -198h98z" />
    <glyph glyph-name="Gcircumflex" unicode="&#x11c;" horiz-adv-x="653" 
d="M535 1516h-136l129 280h168l41 -280h-135l-2 178h-8zM567 1190q6 43 -3 62.5t-36 19.5q-51 0 -63 -82l-150 -942q-14 -84 37 -84q27 0 47 24t27 70l47 295h-65l30 192h299l-119 -745h-212l8 133h-8q-15 -71 -69.5 -117.5t-127.5 -46.5q-91 0 -122.5 76.5t-6.5 235.5
l137 874q25 155 115.5 232t226.5 77q137 0 202 -77t40 -232l-39 -248h-240z" />
    <glyph glyph-name="gcircumflex" unicode="&#x11d;" 
d="M487 1331h-135l129 281h168l41 -281h-135l-2 178h-8zM719 827l-64 -403q-25 -151 -108.5 -231t-218.5 -80h-58q-44 0 -47 -33q-3 -17 4.5 -24t28.5 -7h143q91 0 136 -49.5t30 -142.5q-34 -211 -315 -211h-17q-123 0 -184.5 35t-50.5 100q8 47 54 71t138 27v8
q-167 3 -149 115q8 51 50 87t108 46l2 8q-66 29 -92 101.5t-9 179.5l64 403q22 136 92 216t176 92q43 4 61 18t21 43l14 82h195l-8 -45q-7 -46 -39 -70.5t-117 -25.5v-9q98 -17 139 -94t21 -207zM496 862q14 82 -35 82q-50 0 -64 -82l-73 -471q-8 -45 0 -64.5t34 -19.5
q27 0 42 19.5t22 64.5zM258 -115q-53 0 -59 -39q-3 -20 8 -29.5t39 -9.5h80q53 0 59 39q3 20 -8 29.5t-39 9.5h-80z" />
    <glyph glyph-name="Gbreve" unicode="&#x11e;" horiz-adv-x="653" 
d="M420 1796h133q-17 -117 43 -117q63 0 80 117h133q-23 -145 -81.5 -212.5t-158.5 -67.5q-99 0 -135.5 67.5t-13.5 212.5zM567 1190q6 43 -3 62.5t-36 19.5q-51 0 -63 -82l-150 -942q-14 -84 37 -84q27 0 47 24t27 70l47 295h-65l30 192h299l-119 -745h-212l8 133h-8
q-15 -71 -69.5 -117.5t-127.5 -46.5q-91 0 -122.5 76.5t-6.5 235.5l137 874q25 155 115.5 232t226.5 77q137 0 202 -77t40 -232l-39 -248h-240z" />
    <glyph glyph-name="gbreve" unicode="&#x11f;" 
d="M373 1612h133q-17 -117 43 -117q63 0 80 117h133q-23 -146 -81.5 -213.5t-158.5 -67.5q-99 0 -135.5 68t-13.5 213zM719 827l-64 -403q-25 -151 -108.5 -231t-218.5 -80h-58q-44 0 -47 -33q-3 -17 4.5 -24t28.5 -7h143q91 0 136 -49.5t30 -142.5q-34 -211 -315 -211h-17
q-123 0 -184.5 35t-50.5 100q8 47 54 71t138 27v8q-167 3 -149 115q8 51 50 87t108 46l2 8q-66 29 -92 101.5t-9 179.5l64 403q22 136 92 216t176 92q43 4 61 18t21 43l14 82h195l-8 -45q-7 -46 -39 -70.5t-117 -25.5v-9q98 -17 139 -94t21 -207zM496 862q14 82 -35 82
q-50 0 -64 -82l-73 -471q-8 -45 0 -64.5t34 -19.5q27 0 42 19.5t22 64.5zM258 -115q-53 0 -59 -39q-3 -20 8 -29.5t39 -9.5h80q53 0 59 39q3 20 -8 29.5t-39 9.5h-80z" />
    <glyph glyph-name="Gdotaccent" unicode="&#x120;" horiz-adv-x="653" 
d="M477 1548l35 215h195l-35 -215h-195zM567 1190q6 43 -3 62.5t-36 19.5q-51 0 -63 -82l-150 -942q-14 -84 37 -84q27 0 47 24t27 70l47 295h-65l30 192h299l-119 -745h-212l8 133h-8q-15 -71 -69.5 -117.5t-127.5 -46.5q-91 0 -122.5 76.5t-6.5 235.5l137 874
q25 155 115.5 232t226.5 77q137 0 202 -77t40 -232l-39 -248h-240z" />
    <glyph glyph-name="gdotaccent" unicode="&#x121;" 
d="M432 1364l35 215h195l-35 -215h-195zM719 827l-64 -403q-25 -151 -108.5 -231t-218.5 -80h-58q-44 0 -47 -33q-3 -17 4.5 -24t28.5 -7h143q91 0 136 -49.5t30 -142.5q-34 -211 -315 -211h-17q-123 0 -184.5 35t-50.5 100q8 47 54 71t138 27v8q-167 3 -149 115q8 51 50 87
t108 46l2 8q-66 29 -92 101.5t-9 179.5l64 403q22 136 92 216t176 92q43 4 61 18t21 43l14 82h195l-8 -45q-7 -46 -39 -70.5t-117 -25.5v-9q98 -17 139 -94t21 -207zM496 862q14 82 -35 82q-50 0 -64 -82l-73 -471q-8 -45 0 -64.5t34 -19.5q27 0 42 19.5t22 64.5zM258 -115
q-53 0 -59 -39q-3 -20 8 -29.5t39 -9.5h80q53 0 59 39q3 20 -8 29.5t-39 9.5h-80z" />
    <glyph glyph-name="uni0122" unicode="&#x122;" horiz-adv-x="653" 
d="M567 1190q6 43 -3 62.5t-36 19.5q-51 0 -63 -82l-150 -942q-14 -84 37 -84q27 0 47 24t27 70l47 295h-65l30 192h299l-119 -745h-212l8 133h-8q-15 -71 -69.5 -117.5t-127.5 -46.5q-91 0 -122.5 76.5t-6.5 235.5l137 874q25 155 115.5 232t226.5 77q137 0 202 -77
t40 -232l-39 -248h-240zM406 -61l-27 -170q-10 -70 -59.5 -109t-126.5 -39l12 76q72 0 84 72l2 12h-72l25 158h162z" />
    <glyph glyph-name="uni0123" unicode="&#x123;" 
d="M422 1319l29 178q11 72 63 113t135 41l-14 -80q-79 0 -88 -76l-2 -10h76l-27 -166h-172zM719 827l-64 -403q-25 -151 -108.5 -231t-218.5 -80h-58q-44 0 -47 -33q-3 -17 4.5 -24t28.5 -7h143q91 0 136 -49.5t30 -142.5q-34 -211 -315 -211h-17q-123 0 -184.5 35
t-50.5 100q8 47 54 71t138 27v8q-167 3 -149 115q8 51 50 87t108 46l2 8q-66 29 -92 101.5t-9 179.5l64 403q22 136 92 216t176 92q43 4 61 18t21 43l14 82h195l-8 -45q-7 -46 -39 -70.5t-117 -25.5v-9q98 -17 139 -94t21 -207zM496 862q14 82 -35 82q-50 0 -64 -82
l-73 -471q-8 -45 0 -64.5t34 -19.5q27 0 42 19.5t22 64.5zM258 -115q-53 0 -59 -39q-3 -20 8 -29.5t39 -9.5h80q53 0 59 39q3 20 -8 29.5t-39 9.5h-80z" />
    <glyph glyph-name="Hcircumflex" unicode="&#x124;" horiz-adv-x="653" 
d="M530 1516h-135l129 280h168l41 -280h-135l-2 178h-8zM842 1434l-226 -1434h-241l98 618h-98l-96 -618h-242l227 1434h240l-98 -623h98l98 623h240z" />
    <glyph glyph-name="hcircumflex" unicode="&#x125;" horiz-adv-x="624" 
d="M365 1597h-136l129 281h168l41 -281h-135l-2 179h-8zM590 0h-228l136 860q14 84 -31 84q-55 0 -70 -100l-133 -844h-229l244 1536h227l-80 -514h6q67 115 166 115q82 0 115 -81t8 -231z" />
    <glyph glyph-name="Hbar" unicode="&#x126;" horiz-adv-x="653" 
d="M786 1737l-26 -162h-369l27 162h368zM842 1434l-226 -1434h-241l98 618h-98l-96 -618h-242l227 1434h240l-98 -623h98l98 623h240z" />
    <glyph glyph-name="hbar" unicode="&#x127;" horiz-adv-x="624" 
d="M590 0h-228l136 860q14 84 -31 84q-55 0 -70 -100l-133 -844h-229l190 1206h-61l24 156h62l29 174h227l-27 -174h109l-25 -156h-108l-29 -184h6q67 115 166 115q82 0 115 -81t8 -231z" />
    <glyph glyph-name="Itilde" unicode="&#x128;" horiz-adv-x="315" 
d="M627 1790l-4 -31q-40 -243 -138 -243q-51 0 -94 59l-6 8q-32 43 -59 43q-35 0 -47 -76l-5 -26h-71l4 26q39 246 141 246q44 0 90 -55l4 -6q36 -45 66 -45q35 0 47 69l4 31h68zM504 1434l-225 -1434h-242l227 1434h240z" />
    <glyph glyph-name="itilde" unicode="&#x129;" horiz-adv-x="299" 
d="M565 1462l-4 -30q-40 -244 -137 -244q-51 0 -94 59l-6 8q-32 43 -60 43q-35 0 -47 -75l-4 -27h-72l4 27q39 245 142 245q44 0 90 -55l4 -6q36 -45 65 -45q36 0 48 70l4 30h67zM35 0l174 1106h229l-176 -1106h-227z" />
    <glyph glyph-name="Imacron" unicode="&#x12a;" horiz-adv-x="315" 
d="M618 1737l-26 -162h-369l27 162h368zM504 1434l-225 -1434h-242l227 1434h240z" />
    <glyph glyph-name="imacron" unicode="&#x12b;" horiz-adv-x="299" 
d="M557 1409l-27 -162h-368l26 162h369zM35 0l174 1106h229l-176 -1106h-227z" />
    <glyph glyph-name="Ibreve" unicode="&#x12c;" horiz-adv-x="315" 
d="M248 1796h133q-17 -117 43 -117q63 0 80 117h133q-23 -145 -81.5 -212.5t-158.5 -67.5q-99 0 -135.5 67.5t-13.5 212.5zM504 1434l-225 -1434h-242l227 1434h240z" />
    <glyph glyph-name="ibreve" unicode="&#x12d;" horiz-adv-x="299" 
d="M188 1468h134q-17 -116 43 -116q62 0 79 116h134q-23 -145 -81.5 -212.5t-158.5 -67.5q-99 0 -136 67.5t-14 212.5zM35 0l174 1106h229l-176 -1106h-227z" />
    <glyph glyph-name="Iogonek" unicode="&#x12e;" horiz-adv-x="315" 
d="M504 1434l-225 -1434h-3q-56 -1 -96.5 -37t-48.5 -82q-5 -34 13.5 -57t56.5 -23q8 0 53 9l-23 -142q-72 -16 -118 -16q-93 0 -139 44.5t-37 110.5q11 63 68.5 116t150.5 77h-119l227 1434h240z" />
    <glyph glyph-name="iogonek" unicode="&#x12f;" horiz-adv-x="299" 
d="M219 1157l41 256h227l-41 -256h-227zM35 0l176 1106h227l-174 -1106q-56 -1 -96.5 -37t-48.5 -82q-5 -34 13 -57t56 -23q9 0 54 9l-23 -142q-72 -16 -119 -16q-93 0 -139 44.5t-37 110.5q11 63 68.5 116t150.5 77h-108z" />
    <glyph glyph-name="Idotaccent" unicode="&#x130;" horiz-adv-x="315" 
d="M307 1548l35 215h195l-35 -215h-195zM504 1434l-225 -1434h-242l227 1434h240z" />
    <glyph glyph-name="dotlessi" unicode="&#x131;" horiz-adv-x="299" 
d="M35 0l174 1106h229l-176 -1106h-227z" />
    <glyph glyph-name="IJ" unicode="&#x132;" horiz-adv-x="960" 
d="M504 1434l-225 -1434h-242l227 1434h240zM1153 1434l-182 -1153q-24 -155 -115 -233.5t-225 -78.5q-136 0 -202 79t-42 233l39 249h242l-45 -282q-7 -44 1.5 -64t34.5 -20q52 0 66 84l188 1186h240z" />
    <glyph glyph-name="ij" unicode="&#x133;" horiz-adv-x="591" 
d="M219 1157l41 256h227l-41 -256h-227zM780 1413l-41 -256h-227l39 256h229zM35 0l176 1106h227l-174 -1106h-229zM731 1106l-199 -1253q-9 -57 -20 -94t-31 -65t-42 -42.5t-64 -23.5t-85.5 -11t-115.5 -2l31 192q46 0 65.5 5.5t26 18t12.5 46.5l195 1229h227z" />
    <glyph glyph-name="Jcircumflex" unicode="&#x134;" horiz-adv-x="645" 
d="M698 1516h-135l129 280h168l41 -280h-135l-2 178h-8zM838 1434l-183 -1153q-24 -155 -115 -233.5t-225 -78.5q-136 0 -201.5 79t-41.5 233l39 249h241l-45 -282q-14 -84 37 -84q52 0 66 84l188 1186h240z" />
    <glyph glyph-name="jcircumflex" unicode="&#x135;" horiz-adv-x="294" 
d="M297 1188h-135l129 280h168l41 -280h-135l-3 178h-8zM434 1106l-198 -1251q-9 -57 -20 -94t-31 -65t-42.5 -42.5t-64.5 -23.5t-85.5 -11t-115.5 -2l31 193q67 0 81.5 10.5t22.5 58.5l195 1227h227z" />
    <glyph glyph-name="uni0136" unicode="&#x136;" horiz-adv-x="659" 
d="M866 1434l-254 -600l29 -834h-242l2 618h-6l-28 -59l-88 -559h-242l227 1434h240l-53 -342l-70 -289l6 -2l238 633h241zM424 -61l-27 -170q-10 -70 -59.5 -109t-126.5 -39l12 76q72 0 84 72l2 12h-71l24 158h162z" />
    <glyph glyph-name="uni0137" unicode="&#x137;" horiz-adv-x="636" 
d="M799 1106l-230 -461v-2l58 -643h-242l-18 477h-9l-26 -47l-68 -430h-229l244 1536h227l-109 -692l-59 -223l6 -3l213 488h242zM406 -61l-27 -170q-10 -70 -59.5 -109t-126.5 -39l12 76q72 0 84 72l2 12h-72l25 158h162z" />
    <glyph glyph-name="kgreenlandic" unicode="&#x138;" horiz-adv-x="636" 
d="M799 1106l-230 -461v-2l58 -643h-242l-18 477h-9l-26 -47l-68 -430h-229l176 1106h227l-41 -262l-59 -223l6 -3l213 488h242z" />
    <glyph glyph-name="Lacute" unicode="&#x139;" horiz-adv-x="477" 
d="M465 1516h-148l109 280h180zM264 1434h240l-195 -1239h172l-30 -195h-414z" />
    <glyph glyph-name="lacute" unicode="&#x13a;" horiz-adv-x="299" 
d="M473 1597h-147l108 281h180zM37 0l242 1536h229l-244 -1536h-227z" />
    <glyph glyph-name="uni013B" unicode="&#x13b;" horiz-adv-x="477" 
d="M264 1434h240l-195 -1239h172l-30 -195h-414zM326 -61l-27 -170q-10 -70 -59.5 -109t-126.5 -39l12 76q72 0 84 72l2 12h-72l25 158h162z" />
    <glyph glyph-name="uni013C" unicode="&#x13c;" horiz-adv-x="299" 
d="M37 0l242 1536h229l-244 -1536h-227zM233 -41l-26 -170q-10 -70 -60 -108.5t-127 -38.5l13 75q72 0 84 72l2 12h-72l25 158h161z" />
    <glyph glyph-name="Lcaron" unicode="&#x13d;" horiz-adv-x="477" 
d="M264 1434h240l-195 -1239h172l-30 -195h-414zM512 1071l94 363h158l-158 -363h-94z" />
    <glyph glyph-name="lcaron" unicode="&#x13e;" horiz-adv-x="299" 
d="M37 0l242 1536h229l-244 -1536h-227zM481 1174l94 362h158l-158 -362h-94z" />
    <glyph glyph-name="Ldot" unicode="&#x13f;" horiz-adv-x="477" 
d="M264 1434h240l-195 -1239h172l-30 -195h-414zM459 612l33 215h196l-35 -215h-194z" />
    <glyph glyph-name="ldot" unicode="&#x140;" horiz-adv-x="299" 
d="M37 0l242 1536h229l-244 -1536h-227zM455 657l32 215h197l-35 -215h-194z" />
    <glyph glyph-name="Lslash" unicode="&#x141;" horiz-adv-x="477" 
d="M264 1434h240l-92 -586l53 20l35 -145l-115 -45l-76 -483h172l-30 -195h-414l92 575l-49 -18l-37 145l113 43z" />
    <glyph glyph-name="lslash" unicode="&#x142;" horiz-adv-x="299" 
d="M37 0l98 627l-33 -13l-34 146l94 37l117 739h229l-102 -645l28 12l35 -145l-90 -37l-115 -721h-227z" />
    <glyph glyph-name="Nacute" unicode="&#x143;" horiz-adv-x="704" 
d="M682 1516h-147l108 280h180zM893 1434l-225 -1434h-291l8 899v148l-12 -3l-94 -1044h-242l227 1434h289l-4 -863v-147l12 2l12 149l80 859h240z" />
    <glyph glyph-name="nacute" unicode="&#x144;" horiz-adv-x="624" 
d="M582 1188h-148l109 280h180zM590 0h-230l138 860q6 45 -1 64.5t-30 19.5q-54 0 -72 -100l-133 -844h-227l174 1106h182l8 -115h7q34 69 84.5 107.5t107.5 38.5q82 0 114 -81t7 -231z" />
    <glyph glyph-name="uni0145" unicode="&#x145;" horiz-adv-x="704" 
d="M893 1434l-225 -1434h-291l8 899v148l-12 -3l-94 -1044h-242l227 1434h289l-4 -863v-147l12 2l12 149l80 859h240zM412 -61l-27 -170q-10 -70 -59.5 -109t-126.5 -39l12 76q72 0 84 72l2 12h-72l25 158h162z" />
    <glyph glyph-name="uni0146" unicode="&#x146;" horiz-adv-x="624" 
d="M590 0h-230l138 860q6 45 -1 64.5t-30 19.5q-54 0 -72 -100l-133 -844h-227l174 1106h182l8 -115h7q34 69 84.5 107.5t107.5 38.5q82 0 114 -81t7 -231zM393 -61l-26 -170q-10 -70 -60 -109t-127 -39l13 76q71 0 83 72l3 12h-72l24 158h162z" />
    <glyph glyph-name="Ncaron" unicode="&#x147;" horiz-adv-x="704" 
d="M688 1796h135l-129 -280h-170l-39 280h136l2 -176h6zM893 1434l-225 -1434h-291l8 899v148l-12 -3l-94 -1044h-242l227 1434h289l-4 -863v-147l12 2l12 149l80 859h240z" />
    <glyph glyph-name="ncaron" unicode="&#x148;" horiz-adv-x="624" 
d="M588 1468h135l-129 -280h-170l-39 280h135l2 -176h6zM590 0h-230l138 860q6 45 -1 64.5t-30 19.5q-54 0 -72 -100l-133 -844h-227l174 1106h182l8 -115h7q34 69 84.5 107.5t107.5 38.5q82 0 114 -81t7 -231z" />
    <glyph glyph-name="napostrophe" unicode="&#x149;" horiz-adv-x="1075" 
d="M53 0l226 1434h970l-225 -1434h-971zM428 1331l238 -530l403 530h-641zM702 717l246 -547l172 1094zM354 1264l-172 -1094l418 547zM637 633l-404 -531h641z" />
    <glyph glyph-name="Eng" unicode="&#x14a;" horiz-adv-x="704" 
d="M893 1434l-234 -1481q-8 -48 -18.5 -82t-24 -60.5t-37 -43t-48.5 -27.5t-67 -16t-84 -7t-108 -2l31 193q45 0 55.5 10.5t16.5 56.5l4 25l4 899v148l-10 -3l-13 -147l-84 -897h-239l227 1434h289l-4 -863l2 -147l10 2l10 149l82 859h240z" />
    <glyph glyph-name="eng" unicode="&#x14b;" horiz-adv-x="624" 
d="M223 -285l31 193q67 0 81.5 10.5t22.5 58.5l140 883q14 84 -31 84q-55 0 -70 -100l-133 -844h-229l176 1106h182l6 -115h9q34 69 83.5 107.5t106.5 38.5q82 0 114 -81t9 -231l-139 -872q-9 -57 -19.5 -94t-30.5 -65t-42 -42.5t-64.5 -23.5t-86 -11t-116.5 -2z" />
    <glyph glyph-name="Omacron" unicode="&#x14c;" horiz-adv-x="653" 
d="M788 1737l-26 -162h-369l27 162h368zM803 1155l-139 -874q-24 -152 -113.5 -232t-226.5 -80q-138 0 -202.5 80t-41.5 232l139 874q24 150 114 229.5t228 79.5q139 0 202.5 -78.5t39.5 -230.5zM567 1190q14 82 -37 82q-27 0 -42 -19.5t-23 -62.5l-150 -942
q-6 -45 2.5 -64.5t34.5 -19.5q55 0 66 84z" />
    <glyph glyph-name="omacron" unicode="&#x14d;" 
d="M719 1409l-27 -162h-368l26 162h369zM717 827l-86 -546q-25 -152 -109.5 -232t-216.5 -80q-133 0 -193.5 80t-35.5 232l86 546q25 151 110 230.5t217 79.5q133 0 192.5 -79t35.5 -231zM494 862q8 43 -0.5 62.5t-34.5 19.5q-50 0 -64 -82l-96 -614q-8 -44 0.5 -64
t34.5 -20t41 19t22 65z" />
    <glyph glyph-name="Obreve" unicode="&#x14e;" horiz-adv-x="653" 
d="M420 1796h133q-17 -117 43 -117q63 0 80 117h133q-23 -145 -81.5 -212.5t-158.5 -67.5q-99 0 -135.5 67.5t-13.5 212.5zM803 1155l-139 -874q-24 -152 -113.5 -232t-226.5 -80q-138 0 -202.5 80t-41.5 232l139 874q24 150 114 229.5t228 79.5q139 0 202.5 -78.5
t39.5 -230.5zM567 1190q14 82 -37 82q-27 0 -42 -19.5t-23 -62.5l-150 -942q-6 -45 2.5 -64.5t34.5 -19.5q55 0 66 84z" />
    <glyph glyph-name="obreve" unicode="&#x14f;" 
d="M348 1468h133q-17 -116 43 -116q63 0 80 116h133q-23 -146 -81 -213t-158 -67q-99 0 -136 67.5t-14 212.5zM717 827l-86 -546q-25 -152 -109.5 -232t-216.5 -80q-133 0 -193.5 80t-35.5 232l86 546q25 151 110 230.5t217 79.5q133 0 192.5 -79t35.5 -231zM494 862
q8 43 -0.5 62.5t-34.5 19.5q-50 0 -64 -82l-96 -614q-8 -44 0.5 -64t34.5 -20t41 19t22 65z" />
    <glyph glyph-name="Ohungarumlaut" unicode="&#x150;" horiz-adv-x="653" 
d="M508 1516h-123l100 280h148zM713 1516h-123l100 280h148zM803 1155l-139 -874q-24 -152 -113.5 -232t-226.5 -80q-138 0 -202.5 80t-41.5 232l139 874q24 150 114 229.5t228 79.5q139 0 202.5 -78.5t39.5 -230.5zM567 1190q14 82 -37 82q-27 0 -42 -19.5t-23 -62.5
l-150 -942q-6 -45 2.5 -64.5t34.5 -19.5q55 0 66 84z" />
    <glyph glyph-name="ohungarumlaut" unicode="&#x151;" 
d="M438 1188h-123l101 280h147zM643 1188h-123l101 280h147zM717 827l-86 -546q-25 -152 -109.5 -232t-216.5 -80q-133 0 -193.5 80t-35.5 232l86 546q25 151 110 230.5t217 79.5q133 0 192.5 -79t35.5 -231zM494 862q8 43 -0.5 62.5t-34.5 19.5q-50 0 -64 -82l-96 -614
q-8 -44 0.5 -64t34.5 -20t41 19t22 65z" />
    <glyph glyph-name="OE" unicode="&#x152;" horiz-adv-x="815" 
d="M555 1434h449l-31 -193h-174l-70 -430h164l-31 -193h-164l-65 -423h192l-30 -195h-467q-139 0 -203.5 80t-40.5 231l129 813q24 151 114 230.5t228 79.5zM391 195l166 1046h-33q-27 0 -42 -19.5t-23 -62.5l-140 -880q-6 -45 3 -64.5t36 -19.5h33z" />
    <glyph glyph-name="oe" unicode="&#x153;" horiz-adv-x="946" 
d="M666 500l-41 -252q-6 -45 1.5 -64.5t32.5 -19.5q53 0 64 84l29 180h229l-25 -147q-23 -152 -108 -232t-217 -80q-111 0 -150 76h-4q-63 -76 -172 -76q-133 0 -193.5 80t-35.5 232l86 546q25 151 110 230.5t217 79.5q111 0 150 -74h4q64 74 174 74q132 0 191.5 -79
t35.5 -231l-53 -327h-325zM821 862q6 44 -1.5 63t-33.5 19q-51 0 -63 -82l-31 -198h99zM494 862q8 43 -0.5 62.5t-34.5 19.5q-50 0 -64 -82l-96 -614q-8 -44 0.5 -64t34.5 -20t41 19t22 65z" />
    <glyph glyph-name="Racute" unicode="&#x154;" horiz-adv-x="663" 
d="M629 1516h-148l109 280h180zM264 1434h281q139 0 207.5 -84.5t44.5 -241.5l-31 -186q-13 -92 -61 -153.5t-123 -86.5v-8q136 -47 108 -240l-37 -231q-17 -99 -14 -195l-2 -8h-240q-2 85 15 203l47 295q8 43 -3.5 62.5t-43.5 19.5h-43l-90 -580h-242zM475 1241l-76 -467
h41q32 0 50.5 20t25.5 64l47 301q8 43 -3.5 62.5t-43.5 19.5h-41z" />
    <glyph glyph-name="racute" unicode="&#x155;" horiz-adv-x="464" 
d="M498 1188h-148l109 280h180zM209 1106h199l-17 -188h4q8 45 19.5 77.5t29 53t34 32.5t44.5 17.5t48.5 6.5t58.5 1l-37 -240q-108 0 -155 -32t-60 -119l-115 -715h-227z" />
    <glyph glyph-name="uni0156" unicode="&#x156;" horiz-adv-x="663" 
d="M264 1434h281q139 0 207.5 -84.5t44.5 -241.5l-31 -186q-13 -92 -61 -153.5t-123 -86.5v-8q136 -47 108 -240l-37 -231q-17 -99 -14 -195l-2 -8h-240q-2 85 15 203l47 295q8 43 -3.5 62.5t-43.5 19.5h-43l-90 -580h-242zM475 1241l-76 -467h41q32 0 50.5 20t25.5 64
l47 301q8 43 -3.5 62.5t-43.5 19.5h-41zM418 -61l-27 -170q-10 -70 -59.5 -109t-126.5 -39l12 76q72 0 84 72l2 12h-72l25 158h162z" />
    <glyph glyph-name="uni0157" unicode="&#x157;" horiz-adv-x="464" 
d="M209 1106h199l-17 -188h4q8 45 19.5 77.5t29 53t34 32.5t44.5 17.5t48.5 6.5t58.5 1l-37 -240q-108 0 -155 -32t-60 -119l-115 -715h-227zM229 -61l-26 -170q-10 -70 -60 -109t-127 -39l13 76q72 0 84 72l2 12h-72l25 158h161z" />
    <glyph glyph-name="Rcaron" unicode="&#x158;" horiz-adv-x="663" 
d="M635 1796h135l-129 -280h-170l-39 280h135l2 -176h6zM264 1434h281q139 0 207.5 -84.5t44.5 -241.5l-31 -186q-13 -92 -61 -153.5t-123 -86.5v-8q136 -47 108 -240l-37 -231q-17 -99 -14 -195l-2 -8h-240q-2 85 15 203l47 295q8 43 -3.5 62.5t-43.5 19.5h-43l-90 -580
h-242zM475 1241l-76 -467h41q32 0 50.5 20t25.5 64l47 301q8 43 -3.5 62.5t-43.5 19.5h-41z" />
    <glyph glyph-name="rcaron" unicode="&#x159;" horiz-adv-x="464" 
d="M504 1468h135l-129 -280h-170l-39 280h135l2 -176h6zM209 1106h199l-17 -188h4q8 45 19.5 77.5t29 53t34 32.5t44.5 17.5t48.5 6.5t58.5 1l-37 -240q-108 0 -155 -32t-60 -119l-115 -715h-227z" />
    <glyph glyph-name="Sacute" unicode="&#x15a;" horiz-adv-x="655" 
d="M641 1516h-147l108 280h180zM772 969h-240l35 221q14 82 -35 82q-27 0 -42.5 -19t-22.5 -63l-23 -141q-9 -64 17 -120t82 -128q20 -25 30.5 -39t29 -39.5t29 -44t24 -45.5t19.5 -51.5t11.5 -54t5 -61t-5.5 -65.5l-18 -120q-24 -152 -115 -232t-229 -80t-203 80t-41 232
l31 188h239l-35 -221q-7 -46 2.5 -65t36.5 -19q55 0 66 84l22 141q6 35 -1.5 70.5t-29 73.5t-40.5 64.5t-52 68.5q-70 88 -102 170t-14 194l18 125q24 152 113.5 230.5t226.5 78.5q138 0 202 -78.5t40 -230.5z" />
    <glyph glyph-name="sacute" unicode="&#x15b;" 
d="M569 1188h-147l108 280h181zM702 750h-229l29 170q8 63 -35 63q-48 0 -59 -63l-19 -113q-7 -47 21.5 -92.5t83.5 -100.5q39 -39 60 -63.5t47 -65t34 -85t0 -95.5l-10 -61q-19 -122 -108.5 -198.5t-213.5 -76.5q-125 0 -188.5 76t-44.5 199l18 114h229l-28 -170
q-4 -36 5.5 -50.5t33.5 -14.5q51 0 59 65l19 109q7 50 -27 100.5t-100 116.5q-67 69 -100 133t-19 150l10 67q20 123 106.5 198t212.5 75q125 0 188 -76t44 -197z" />
    <glyph glyph-name="Scircumflex" unicode="&#x15c;" horiz-adv-x="655" 
d="M535 1516h-136l129 280h168l41 -280h-135l-2 178h-8zM772 969h-240l35 221q14 82 -35 82q-27 0 -42.5 -19t-22.5 -63l-23 -141q-9 -64 17 -120t82 -128q20 -25 30.5 -39t29 -39.5t29 -44t24 -45.5t19.5 -51.5t11.5 -54t5 -61t-5.5 -65.5l-18 -120q-24 -152 -115 -232
t-229 -80t-203 80t-41 232l31 188h239l-35 -221q-7 -46 2.5 -65t36.5 -19q55 0 66 84l22 141q6 35 -1.5 70.5t-29 73.5t-40.5 64.5t-52 68.5q-70 88 -102 170t-14 194l18 125q24 152 113.5 230.5t226.5 78.5q138 0 202 -78.5t40 -230.5z" />
    <glyph glyph-name="scircumflex" unicode="&#x15d;" 
d="M463 1188h-135l129 280h168l41 -280h-136l-2 178h-8zM702 750h-229l29 170q8 63 -35 63q-48 0 -59 -63l-19 -113q-7 -47 21.5 -92.5t83.5 -100.5q39 -39 60 -63.5t47 -65t34 -85t0 -95.5l-10 -61q-19 -122 -108.5 -198.5t-213.5 -76.5q-125 0 -188.5 76t-44.5 199l18 114
h229l-28 -170q-4 -36 5.5 -50.5t33.5 -14.5q51 0 59 65l19 109q7 50 -27 100.5t-100 116.5q-67 69 -100 133t-19 150l10 67q20 123 106.5 198t212.5 75q125 0 188 -76t44 -197z" />
    <glyph glyph-name="Scedilla" unicode="&#x15e;" horiz-adv-x="655" 
d="M772 969h-240l35 221q14 82 -35 82q-27 0 -42.5 -19t-22.5 -63l-23 -141q-9 -64 17 -120t82 -128q20 -25 30.5 -39t29 -39.5t29 -44t24 -45.5t19.5 -51.5t11.5 -54t5 -61t-5.5 -65.5l-18 -120q-23 -138 -98 -216t-191 -92l-19 -71q82 0 127.5 -37.5t36.5 -97.5
q-11 -66 -79.5 -110t-163.5 -44q-50 0 -136 14l19 107q24 -8 57 -8q42 0 74 17t35 40q4 24 -25 36.5t-84 12.5l45 141q-108 15 -157.5 94t-28.5 214l31 188h239l-35 -221q-7 -46 2.5 -65t36.5 -19q55 0 66 84l22 141q6 35 -1.5 70.5t-29 73.5t-40.5 64.5t-52 68.5
q-70 88 -102 170t-14 194l18 125q24 152 113.5 230.5t226.5 78.5q138 0 202 -78.5t40 -230.5z" />
    <glyph glyph-name="scedilla" unicode="&#x15f;" 
d="M702 750h-229l29 170q8 63 -35 63q-48 0 -59 -63l-19 -113q-7 -47 21.5 -92.5t83.5 -100.5q39 -39 60 -63.5t47 -65t34 -85t0 -95.5l-10 -61q-17 -107 -89.5 -180.5t-175.5 -90.5l-18 -71q82 0 127.5 -37.5t36.5 -97.5q-11 -66 -80 -110t-164 -44q-49 0 -135 14l18 107
q24 -8 58 -8q42 0 73.5 17t34.5 40q4 24 -24.5 36.5t-83.5 12.5l45 141q-100 17 -147.5 90.5t-30.5 180.5l18 114h229l-28 -170q-4 -36 5.5 -50.5t33.5 -14.5q51 0 59 65l19 109q7 50 -27 100.5t-100 116.5q-67 69 -100 133t-19 150l10 67q20 123 106.5 198t212.5 75
q125 0 188 -76t44 -197z" />
    <glyph glyph-name="Scaron" unicode="&#x160;" horiz-adv-x="655" 
d="M647 1796h135l-129 -280h-170l-39 280h136l2 -176h6zM772 969h-240l35 221q14 82 -35 82q-27 0 -42.5 -19t-22.5 -63l-23 -141q-9 -64 17 -120t82 -128q20 -25 30.5 -39t29 -39.5t29 -44t24 -45.5t19.5 -51.5t11.5 -54t5 -61t-5.5 -65.5l-18 -120q-24 -152 -115 -232
t-229 -80t-203 80t-41 232l31 188h239l-35 -221q-7 -46 2.5 -65t36.5 -19q55 0 66 84l22 141q6 35 -1.5 70.5t-29 73.5t-40.5 64.5t-52 68.5q-70 88 -102 170t-14 194l18 125q24 152 113.5 230.5t226.5 78.5q138 0 202 -78.5t40 -230.5z" />
    <glyph glyph-name="scaron" unicode="&#x161;" 
d="M575 1468h136l-129 -280h-170l-39 280h135l2 -176h6zM702 750h-229l29 170q8 63 -35 63q-48 0 -59 -63l-19 -113q-7 -47 21.5 -92.5t83.5 -100.5q39 -39 60 -63.5t47 -65t34 -85t0 -95.5l-10 -61q-19 -122 -108.5 -198.5t-213.5 -76.5q-125 0 -188.5 76t-44.5 199l18 114
h229l-28 -170q-4 -36 5.5 -50.5t33.5 -14.5q51 0 59 65l19 109q7 50 -27 100.5t-100 116.5q-67 69 -100 133t-19 150l10 67q20 123 106.5 198t212.5 75q125 0 188 -76t44 -197z" />
    <glyph glyph-name="uni0162" unicode="&#x162;" horiz-adv-x="602" 
d="M801 1434l-29 -193h-154l-196 -1241h-66l-20 -82q82 0 127.5 -37.5t36.5 -97.5q-11 -66 -80 -110t-164 -44q-43 0 -135 15l18 106q24 -8 58 -8q42 0 73.5 17t34.5 40q4 24 -24.5 36.5t-83.5 12.5l49 152h-66l197 1241h-154l31 193h547z" />
    <glyph glyph-name="uni0163" unicode="&#x163;" horiz-adv-x="403" 
d="M266 1270h230l-27 -164h96l-30 -193h-97l-102 -649q-8 -46 6 -57.5t78 -11.5l-31 -195q-73 0 -104 2l-19 -74q82 0 127.5 -37.5t36.5 -97.5q-11 -66 -80 -109.5t-164 -43.5q-49 0 -135 14l19 106q24 -8 57 -8q42 0 74 17t35 41q4 24 -25 36.5t-84 12.5l51 157
q-59 19 -75.5 69t1.5 153l107 675h-61l30 193h62z" />
    <glyph glyph-name="Tcaron" unicode="&#x164;" horiz-adv-x="602" 
d="M616 1796h136l-129 -280h-170l-39 280h135l2 -176h6zM801 1434l-29 -193h-154l-196 -1241h-242l197 1241h-154l31 193h547z" />
    <glyph glyph-name="tcaron" unicode="&#x165;" horiz-adv-x="403" 
d="M514 1174l94 362h158l-158 -362h-94zM266 1270h230l-27 -164h96l-30 -193h-97l-102 -649q-8 -46 6 -57.5t78 -11.5l-31 -195q-52 0 -87.5 1.5t-70 5.5t-55 11t-39 19.5t-26.5 29.5t-13 42t-3 56t9 73l107 675h-61l30 193h62z" />
    <glyph glyph-name="Tbar" unicode="&#x166;" horiz-adv-x="602" 
d="M801 1434l-29 -193h-154l-81 -518h79l-24 -156h-82l-88 -567h-242l90 567h-77l24 156h78l82 518h-154l31 193h547z" />
    <glyph glyph-name="tbar" unicode="&#x167;" horiz-adv-x="403" 
d="M266 1270h230l-27 -164h96l-30 -193h-97l-37 -241h97l-27 -156h-94l-41 -252q-8 -46 6 -57.5t78 -11.5l-31 -195q-52 0 -87.5 1.5t-70 5.5t-55 11t-39 19.5t-26.5 29.5t-13 42t-3 56t9 73l43 278h-61l25 156h61l39 241h-61l30 193h62z" />
    <glyph glyph-name="Utilde" unicode="&#x168;" horiz-adv-x="663" 
d="M801 1790l-4 -31q-40 -243 -138 -243q-51 0 -94 59l-6 8q-32 43 -59 43q-35 0 -47 -76l-4 -26h-72l4 26q39 246 141 246q44 0 90 -55l4 -6q36 -45 66 -45q35 0 47 69l4 31h68zM856 1434l-182 -1153q-24 -155 -116 -233.5t-230 -78.5t-205 79t-43 233l182 1153h242
l-189 -1186q-8 -44 2 -64t39 -20q58 0 72 84l188 1186h240z" />
    <glyph glyph-name="utilde" unicode="&#x169;" horiz-adv-x="624" 
d="M651 1462l-4 -30q-40 -244 -137 -244q-51 0 -94 59l-6 8q-32 43 -60 43q-35 0 -47 -75l-4 -27h-72l4 27q39 245 142 245q44 0 90 -55l4 -6q36 -45 65 -45q36 0 48 70l4 30h67zM211 1106h227l-135 -858q-14 -84 31 -84q55 0 69 98l134 844h229l-176 -1106h-182l-9 117h-6
q-34 -70 -84 -109t-106 -39q-82 0 -115 81t-8 231z" />
    <glyph glyph-name="Umacron" unicode="&#x16a;" horiz-adv-x="663" 
d="M793 1737l-27 -162h-369l27 162h369zM856 1434l-182 -1153q-24 -155 -116 -233.5t-230 -78.5t-205 79t-43 233l182 1153h242l-189 -1186q-8 -44 2 -64t39 -20q58 0 72 84l188 1186h240z" />
    <glyph glyph-name="umacron" unicode="&#x16b;" horiz-adv-x="624" 
d="M643 1409l-27 -162h-368l26 162h369zM211 1106h227l-135 -858q-14 -84 31 -84q55 0 69 98l134 844h229l-176 -1106h-182l-9 117h-6q-34 -70 -84 -109t-106 -39q-82 0 -115 81t-8 231z" />
    <glyph glyph-name="Ubreve" unicode="&#x16c;" horiz-adv-x="663" 
d="M422 1796h133q-17 -117 43 -117q63 0 80 117h133q-23 -145 -81.5 -212.5t-158.5 -67.5q-99 0 -135.5 67.5t-13.5 212.5zM856 1434l-182 -1153q-24 -155 -116 -233.5t-230 -78.5t-205 79t-43 233l182 1153h242l-189 -1186q-8 -44 2 -64t39 -20q58 0 72 84l188 1186h240z
" />
    <glyph glyph-name="ubreve" unicode="&#x16d;" horiz-adv-x="624" 
d="M272 1468h134q-17 -116 43 -116q62 0 79 116h134q-23 -145 -81.5 -212.5t-158.5 -67.5q-99 0 -136 67.5t-14 212.5zM211 1106h227l-135 -858q-14 -84 31 -84q55 0 69 98l134 844h229l-176 -1106h-182l-9 117h-6q-34 -70 -84 -109t-106 -39q-82 0 -115 81t-8 231z" />
    <glyph glyph-name="Uring" unicode="&#x16e;" horiz-adv-x="663" 
d="M449 1628q0 76 45.5 125t123.5 49q58 0 91.5 -31.5t33.5 -91.5q0 -74 -47 -121t-127 -47q-120 0 -120 117zM535 1642q3 -49 47 -49q32 0 52.5 21.5t20.5 54.5q0 51 -49 51q-33 0 -52 -22.5t-19 -55.5zM856 1434l-182 -1153q-24 -155 -116 -233.5t-230 -78.5t-205 79
t-43 233l182 1153h242l-189 -1186q-8 -44 2 -64t39 -20q58 0 72 84l188 1186h240z" />
    <glyph glyph-name="uring" unicode="&#x16f;" horiz-adv-x="624" 
d="M299 1300q0 76 46 125.5t124 49.5q58 0 91.5 -31.5t33.5 -91.5q0 -74 -47 -121t-127 -47q-121 0 -121 116zM385 1315q3 -49 47 -49q32 0 53 21.5t21 53.5q0 52 -49 52q-33 0 -52.5 -22.5t-19.5 -55.5zM211 1106h227l-135 -858q-14 -84 31 -84q55 0 69 98l134 844h229
l-176 -1106h-182l-9 117h-6q-34 -70 -84 -109t-106 -39q-82 0 -115 81t-8 231z" />
    <glyph glyph-name="Uhungarumlaut" unicode="&#x170;" horiz-adv-x="663" 
d="M512 1516h-123l100 280h148zM717 1516h-123l100 280h148zM856 1434l-182 -1153q-24 -155 -116 -233.5t-230 -78.5t-205 79t-43 233l182 1153h242l-189 -1186q-8 -44 2 -64t39 -20q58 0 72 84l188 1186h240z" />
    <glyph glyph-name="uhungarumlaut" unicode="&#x171;" horiz-adv-x="624" 
d="M362 1188h-122l100 280h147zM567 1188h-123l101 280h147zM211 1106h227l-135 -858q-14 -84 31 -84q55 0 69 98l134 844h229l-176 -1106h-182l-9 117h-6q-34 -70 -84 -109t-106 -39q-82 0 -115 81t-8 231z" />
    <glyph glyph-name="Uogonek" unicode="&#x172;" horiz-adv-x="663" 
d="M856 1434l-182 -1153q-39 -247 -248 -301q-71 -40 -74 -107q0 -32 21 -52t51 -20q10 0 51 9l-22 -142q-69 -16 -119 -16q-84 0 -130 37.5t-46 95.5q0 121 145 184q-126 8 -186.5 86t-36.5 226l182 1153h242l-189 -1186q-8 -44 2 -64t39 -20q58 0 72 84l188 1186h240z" />
    <glyph glyph-name="uogonek" unicode="&#x173;" horiz-adv-x="624" 
d="M211 1106h227l-135 -858q-14 -84 31 -84q55 0 69 98l134 844h229l-176 -1106h-2q-56 -1 -97 -37.5t-49 -81.5q-5 -34 13.5 -57t56.5 -23q8 0 53 9l-22 -142q-72 -16 -119 -16q-93 0 -139 44.5t-37 110.5q11 63 68.5 116t150.5 77h-59l-9 117h-6q-34 -70 -84 -109
t-106 -39q-82 0 -115 81t-8 231z" />
    <glyph glyph-name="Wcircumflex" unicode="&#x174;" horiz-adv-x="999" 
d="M702 1516h-135l129 280h168l41 -280h-135l-2 178h-8zM1217 1434l-349 -1434h-317l113 946l16 150h-10l-221 -1096h-318l107 1434h241l-129 -1004l-20 -145h10l242 1149h290l-116 -1149h10l209 1149h242z" />
    <glyph glyph-name="wcircumflex" unicode="&#x175;" horiz-adv-x="976" 
d="M641 1188h-135l129 280h168l41 -280h-135l-2 178h-9zM1147 1106l-293 -1106h-317l118 1018h-10l-31 -144l-176 -874h-317l59 1106h240l-82 -686l-19 -135h11l188 821h291l-53 -686l-15 -135h11l155 821h240z" />
    <glyph glyph-name="Ycircumflex" unicode="&#x176;" horiz-adv-x="616" 
d="M514 1516h-135l129 280h168l41 -280h-135l-2 178h-9zM834 1434l-334 -988l-70 -446h-242l72 446l-20 988h239l-67 -758h10l170 758h242z" />
    <glyph glyph-name="ycircumflex" unicode="&#x177;" horiz-adv-x="600" 
d="M453 1188h-136l129 280h168l41 -280h-135l-2 178h-8zM416 -94q-17 -59 -32 -96.5t-39.5 -73t-54.5 -55t-77.5 -35t-109.5 -21.5t-148 -6l31 193q54 0 83.5 6t49 27t26.5 51t13 88l22 1122h242l-62 -651l-14 -138h10l29 138l143 651h242z" />
    <glyph glyph-name="Ydieresis" unicode="&#x178;" horiz-adv-x="616" 
d="M375 1548l33 215h350l-35 -215h-348zM834 1434l-334 -988l-70 -446h-242l72 446l-20 988h239l-67 -758h10l170 758h242z" />
    <glyph glyph-name="Zacute" unicode="&#x179;" horiz-adv-x="540" 
d="M582 1516h-148l109 280h180zM737 1434l-30 -193l-414 -1040l2 -6h258l-31 -195h-504l31 195l414 1038l-4 8h-230l29 193h479z" />
    <glyph glyph-name="zacute" unicode="&#x17a;" horiz-adv-x="522" 
d="M524 1188h-147l108 280h181zM664 1106l-25 -150l-346 -757l4 -4h235l-30 -195h-482l23 150l346 757l-4 6h-207l31 193h455z" />
    <glyph glyph-name="Zdotaccent" unicode="&#x17b;" horiz-adv-x="540" 
d="M418 1548l35 215h194l-35 -215h-194zM737 1434l-30 -193l-414 -1040l2 -6h258l-31 -195h-504l31 195l414 1038l-4 8h-230l29 193h479z" />
    <glyph glyph-name="zdotaccent" unicode="&#x17c;" horiz-adv-x="522" 
d="M360 1221l35 215h195l-35 -215h-195zM664 1106l-25 -150l-346 -757l4 -4h235l-30 -195h-482l23 150l346 757l-4 6h-207l31 193h455z" />
    <glyph glyph-name="Zcaron" unicode="&#x17d;" horiz-adv-x="540" 
d="M588 1796h135l-129 -280h-170l-39 280h135l2 -176h6zM737 1434l-30 -193l-414 -1040l2 -6h258l-31 -195h-504l31 195l414 1038l-4 8h-230l29 193h479z" />
    <glyph glyph-name="zcaron" unicode="&#x17e;" horiz-adv-x="522" 
d="M530 1468h136l-129 -280h-170l-39 280h135l2 -176h6zM664 1106l-25 -150l-346 -757l4 -4h235l-30 -195h-482l23 150l346 757l-4 6h-207l31 193h455z" />
    <glyph glyph-name="longs" unicode="&#x17f;" horiz-adv-x="1075" 
d="M53 0l226 1434h970l-225 -1434h-971zM428 1331l238 -530l403 530h-641zM702 717l246 -547l172 1094zM354 1264l-172 -1094l418 547zM637 633l-404 -531h641z" />
    <glyph glyph-name="florin" unicode="&#x192;" horiz-adv-x="397" 
d="M-53 -430l30 192q64 0 82.5 12t24.5 58l172 1081h-61l30 193h62l30 192q7 42 15 73t20.5 56.5t26 42.5t36.5 29.5t45.5 19t58.5 11t71 5.5t88 1l-31 -193q-64 0 -81 -11.5t-25 -57.5l-27 -168h70l-31 -193l-70 -2l-174 -1104q-7 -42 -15 -73t-20.5 -56t-26 -42
t-36.5 -29.5t-45 -19.5t-58.5 -11t-72 -5t-88.5 -1z" />
    <glyph glyph-name="uni0237" unicode="&#x237;" horiz-adv-x="294" 
d="M434 1106l-198 -1251q-9 -57 -20 -94t-31 -65t-42.5 -42.5t-64.5 -23.5t-85.5 -11t-115.5 -2l31 193q67 0 81.5 10.5t22.5 58.5l195 1227h227z" />
    <glyph glyph-name="circumflex" unicode="&#x2c6;" horiz-adv-x="442" 
d="M371 1153h-135l129 281h167l41 -281h-135l-2 178h-8z" />
    <glyph glyph-name="caron" unicode="&#x2c7;" horiz-adv-x="442" 
d="M483 1434h135l-129 -281h-170l-38 281h135l2 -177h6z" />
    <glyph glyph-name="breve" unicode="&#x2d8;" horiz-adv-x="495" 
d="M281 1434h133q-17 -117 43 -117q63 0 80 117h133q-23 -146 -81.5 -213.5t-158.5 -67.5q-99 0 -135.5 68t-13.5 213z" />
    <glyph glyph-name="dotaccent" unicode="&#x2d9;" horiz-adv-x="301" 
d="M242 1186l34 215h195l-35 -215h-194z" />
    <glyph glyph-name="ring" unicode="&#x2da;" horiz-adv-x="397" 
d="M256 1266q0 75 46 124.5t124 49.5q58 0 91.5 -31.5t33.5 -91.5q0 -74 -47 -121t-127 -47q-121 0 -121 117zM342 1280q3 -49 47 -49q32 0 53 22t21 54q0 51 -49 51q-33 0 -52.5 -22.5t-19.5 -55.5z" />
    <glyph glyph-name="ogonek" unicode="&#x2db;" horiz-adv-x="419" 
d="M360 -6l-2 -14q-56 -1 -96.5 -37t-48.5 -82q-5 -34 13.5 -57t56.5 -23q13 0 53 8l-23 -141q-77 -17 -118 -17q-93 0 -139.5 45t-37.5 111q13 83 105 144.5t237 62.5z" />
    <glyph glyph-name="tilde" unicode="&#x2dc;" horiz-adv-x="487" 
d="M662 1427l-5 -30q-40 -244 -137 -244q-51 0 -94 59l-6 9q-32 43 -60 43q-35 0 -47 -76l-4 -27h-71l4 27q39 246 141 246q44 0 90 -56l4 -6q36 -45 66 -45q35 0 47 70l4 30h68z" />
    <glyph glyph-name="hungarumlaut" unicode="&#x2dd;" horiz-adv-x="514" 
d="M358 1153h-122l100 281h147zM563 1153h-123l101 281h147z" />
    <glyph glyph-name="uni03BC" unicode="&#x3bc;" horiz-adv-x="1075" 
d="M53 0l226 1434h970l-225 -1434h-971zM428 1331l238 -530l403 530h-641zM702 717l246 -547l172 1094zM354 1264l-172 -1094l418 547zM637 633l-404 -531h641z" />
    <glyph glyph-name="endash" unicode="&#x2013;" horiz-adv-x="964" 
d="M1038 791l-30 -193h-861l31 193h860z" />
    <glyph glyph-name="emdash" unicode="&#x2014;" horiz-adv-x="1456" 
d="M1530 791l-31 -193h-1352l31 193h1352z" />
    <glyph glyph-name="quoteleft" unicode="&#x2018;" horiz-adv-x="356" 
d="M201 944l43 264q17 108 91.5 167t194.5 59l-18 -117q-114 0 -129 -111l-4 -18h113l-39 -244h-252z" />
    <glyph glyph-name="quoteright" unicode="&#x2019;" horiz-adv-x="356" 
d="M532 1434l-43 -265q-17 -107 -91.5 -166t-194.5 -59l18 117q114 0 129 110l4 19h-112l39 244h251z" />
    <glyph glyph-name="quotesinglbase" unicode="&#x201a;" horiz-adv-x="331" 
d="M319 227l-38 -243q-15 -99 -85.5 -154t-181.5 -55l19 108q103 0 121 103l2 16h-105l37 225h231z" />
    <glyph glyph-name="quotedblleft" unicode="&#x201c;" horiz-adv-x="653" 
d="M250 618l12 87q6 37 39 60t82 23l-8 -49q-38 0 -51 -26h45l-15 -95h-104zM547 618l12 87q6 37 39 60t82 23l-8 -49q-38 0 -51 -26h45l-15 -95h-104z" />
    <glyph glyph-name="quotedblright" unicode="&#x201d;" horiz-adv-x="653" 
d="M778 1745l-12 -86q-6 -37 -39 -60.5t-82 -23.5l8 49q39 0 52 27h-46l15 94h104zM481 1745l-12 -86q-6 -37 -39 -60.5t-82 -23.5l8 49q38 0 52 27h-46l15 94h104z" />
    <glyph glyph-name="quotedblbase" unicode="&#x201e;" horiz-adv-x="737" 
d="M319 227l-38 -243q-15 -99 -85.5 -154t-181.5 -55l19 108q103 0 121 103l2 16h-105l37 225h231zM594 227l-39 -243q-15 -99 -85 -154t-181 -55l18 108q103 0 121 103l2 16h-104l36 225h232z" />
    <glyph glyph-name="dagger" unicode="&#x2020;" horiz-adv-x="622" 
d="M418 1434h239l-51 -328h139l-30 -193h-140l-143 -913h-242l146 913h-139l30 193h140z" />
    <glyph glyph-name="daggerdbl" unicode="&#x2021;" horiz-adv-x="622" 
d="M418 1434h239l-51 -328h139l-30 -193h-140l-61 -391h137l-30 -194h-138l-51 -328h-242l52 328h-138l31 194h137l64 391h-139l30 193h140z" />
    <glyph glyph-name="bullet" unicode="&#x2022;" horiz-adv-x="495" 
d="M170 719q0 98 62.5 162.5t166.5 64.5q80 0 123 -41t43 -117q0 -99 -63.5 -165t-167.5 -66q-79 0 -121.5 41.5t-42.5 120.5z" />
    <glyph glyph-name="ellipsis" unicode="&#x2026;" horiz-adv-x="1062" 
d="M53 0l37 244h252l-39 -244h-250zM408 0l36 244h252l-39 -244h-249zM760 0l37 244h252l-39 -244h-250z" />
    <glyph glyph-name="perthousand" unicode="&#x2030;" horiz-adv-x="1804" 
d="M729 1155l-37 -231q-25 -153 -101 -232.5t-194 -79.5q-119 0 -171 79.5t-27 232.5l37 231q25 151 101 230t195 79q118 0 169.5 -78.5t27.5 -230.5zM254 0l842 1434h135l-842 -1434h-135zM537 1190q14 82 -35 82q-52 0 -64 -82l-47 -299q-14 -84 35 -84q26 0 40.5 19.5
t22.5 64.5zM1282 514l-37 -231q-23 -152 -100 -232t-195 -80t-169.5 79.5t-28.5 232.5l36 231q25 151 102 230t195 79q120 0 171 -78.5t26 -230.5zM1833 514l-37 -231q-25 -153 -101 -232.5t-194 -79.5q-119 0 -171 79.5t-27 232.5l36 231q23 151 100 230t197 79
q118 0 169.5 -78.5t27.5 -230.5zM1090 547q7 44 -1 63t-34 19t-41.5 -19t-22.5 -63l-47 -299q-12 -84 37 -84q50 0 61 84zM1640 547q6 45 -2 63.5t-34 18.5q-27 0 -41.5 -19t-20.5 -63l-47 -299q-15 -84 35 -84q26 0 40.5 19.5t22.5 64.5z" />
    <glyph glyph-name="guilsinglleft" unicode="&#x2039;" horiz-adv-x="591" 
d="M610 444l-39 -206l-446 223l25 160l518 227l-27 -209l-258 -94l-2 -6z" />
    <glyph glyph-name="guilsinglright" unicode="&#x203a;" horiz-adv-x="591" 
d="M188 641l37 209l447 -225l-25 -160l-518 -227l29 208l258 95v6z" />
    <glyph glyph-name="fraction" unicode="&#x2044;" horiz-adv-x="567" 
d="M203 0h-150l539 1434h151z" />
    <glyph glyph-name="uni2074" unicode="&#x2074;" horiz-adv-x="452" 
d="M602 1434l-90 -568h27l-19 -112h-24l-19 -109h-137l16 109h-184l16 104l226 576h188zM324 866h51l14 95l68 272l-8 2l-15 -47z" />
    <glyph glyph-name="Euro" unicode="&#x20ac;" horiz-adv-x="714" 
d="M678 895l-43 -145h-180l-9 -64h166l-43 -147h-147l-45 -291q-8 -45 0.5 -64.5t36.5 -19.5q51 0 65 84l33 207h240l-27 -174q-26 -154 -116 -233t-226 -79q-135 0 -201 79t-41 233l41 258h-61l22 147h62l10 64h-61l22 145h62l41 260q25 155 115.5 232t226.5 77
q137 0 201.5 -77t39.5 -232l-26 -176h-242l35 211q6 43 -3 62.5t-36 19.5q-52 0 -64 -82l-47 -295h199z" />
    <glyph glyph-name="trademark" unicode="&#x2122;" horiz-adv-x="587" 
d="M457 1434l-11 -64h-49l-57 -366h-80l57 366h-47l11 64h176zM764 1434l-68 -430h-69l55 290l10 45l-4 2l-94 -337h-84l12 337l-4 -2l-43 -335h-69l67 430h117l-12 -228l-13 -102h4l21 102l57 228h117z" />
    <glyph glyph-name="minus" unicode="&#x2212;" horiz-adv-x="710" 
d="M784 791l-30 -193h-607l31 193h606z" />
    <glyph glyph-name="fi" unicode="&#xfb01;" horiz-adv-x="673" 
d="M66 0l145 913h-61l30 193h62l30 192q7 42 15 73t20.5 56.5t26 42.5t36.5 29.5t45.5 19t58.5 11t71 5.5t88 1l-31 -193q-63 0 -80.5 -11.5t-25.5 -57.5l-27 -168h70l-31 -193l-70 -2l-143 -911h-229zM594 1157l41 256h227l-41 -256h-227zM410 0l176 1106h227l-174 -1106
h-229z" />
    <glyph glyph-name="fl" unicode="&#xfb02;" horiz-adv-x="702" 
d="M66 0l145 913h-61l30 193h62l30 192q7 42 15 73t20.5 56.5t26 42.5t36.5 29.5t45.5 19t58.5 11t71 5.5t88 1l-31 -193q-63 0 -80.5 -11.5t-25.5 -57.5l-27 -168h70l-31 -193l-70 -2l-143 -911h-229zM440 0l242 1536h229l-243 -1536h-228z" />
    <glyph glyph-name="ethbar" horiz-adv-x="442" 
d="M512 772l-25 -156h-337l24 156h338z" />
    <glyph glyph-name="crossbar" horiz-adv-x="557" 
d="M582 844l34 -146l-419 -166l-37 146z" />
    <glyph glyph-name="ethbar.case" horiz-adv-x="442" 
d="M512 772l-25 -156h-399l25 156h399z" />
    <glyph glyph-name="crossbar.case" horiz-adv-x="507" 
d="M528 834l35 -146l-366 -143l-35 145z" />
    <glyph glyph-name="commaccent" horiz-adv-x="299" 
d="M-10 -383l94 363h158l-158 -363h-94z" />
    <glyph glyph-name="commaccent2" horiz-adv-x="260" 
d="M240 158l-27 -170q-10 -70 -59.5 -109t-126.5 -39l12 76q72 0 84 72l2 12h-72l25 158h162z" />
    <glyph glyph-name="commaccent3" horiz-adv-x="260" 
d="M10 -172l29 178q11 72 63.5 113t135.5 41l-15 -80q-79 0 -88 -76l-2 -10h76l-27 -166h-172z" />
    <glyph glyph-name="dotaccent2" horiz-adv-x="301" 
d="M242 1186l32 215h197l-35 -215h-194z" />
    <glyph glyph-name="tbarnew" horiz-adv-x="489" 
d="M561 772l-26 -156h-385l24 156h387z" />
    <glyph glyph-name="ogonek2" horiz-adv-x="1024" 
d="M635 -10l4 -17q-43 -14 -73 -47t-31 -73q0 -32 20.5 -52t50.5 -20q15 0 51 8l-22 -141q-73 -17 -119 -17q-84 0 -130 37.5t-46 95.5q0 51 28 93t73 68.5t94.5 42.5t99.5 22z" />
    </font>
</defs>
</svg>
