<?xml version="1.0" standalone="no"?>
<!DOCTYPE svg PUBLIC "-//W3C//DTD SVG 1.1//EN" "http://www.w3.org/Graphics/SVG/1.1/DTD/svg11.dtd" >
<svg xmlns="http://www.w3.org/2000/svg" xmlns:xlink="http://www.w3.org/1999/xlink" version="1.1">
<metadata>
Created by FontForge 20201107 at Sat Sep 14 10:04:13 2024
 By 
</metadata>
<defs>
<font id="MangoGrotesque-Italic" horiz-adv-x="548" >
  <font-face 
    font-family="Mango Grotesque Ita"
    font-weight="400"
    font-style="italic"
    font-stretch="normal"
    units-per-em="2048"
    panose-1="0 0 0 0 0 0 0 0 0 0"
    ascent="1638"
    descent="-410"
    x-height="1106"
    cap-height="1434"
    bbox="-117.35 -430 1696.2 1878"
    underline-thickness="102"
    underline-position="-255"
    slope="-9"
    unicode-range="U+000D-FB02"
  />
<missing-glyph horiz-adv-x="1105" 
d="M68 0l227 1434h971l-228 -1434h-970zM442 1331l238 -530l405 530h-643zM719 717l244 -547l174 1094zM371 1264l-174 -1094l419 547zM653 633l-405 -531h643z" />
    <glyph glyph-name=".notdef" horiz-adv-x="1105" 
d="M68 0l227 1434h971l-228 -1434h-970zM442 1331l238 -530l405 530h-643zM719 717l244 -547l174 1094zM371 1264l-174 -1094l419 547zM653 633l-405 -531h643z" />
    <glyph glyph-name="uni0000" horiz-adv-x="0" 
 />
    <glyph glyph-name="uni0000" horiz-adv-x="0" 
 />
    <glyph glyph-name="uni000D" unicode="&#xd;" horiz-adv-x="512" 
 />
    <glyph glyph-name="space" unicode=" " horiz-adv-x="303" 
 />
    <glyph glyph-name="exclam" unicode="!" horiz-adv-x="303" 
d="M305 1434h139l-30 -205l-168 -930h-103l129 930zM70 0l26 178h168l-28 -178h-166z" />
    <glyph glyph-name="quotedbl" unicode="&#x22;" horiz-adv-x="466" 
d="M641 1536l-14 -98l-78 -396h-90l49 396l16 98h117zM428 1536l-14 -98l-78 -396h-90l49 396l16 98h117z" />
    <glyph glyph-name="numbersign" unicode="#" horiz-adv-x="778" 
d="M158 0l108 502h-119l17 106h125l47 217h-137l16 107h143l109 502h117l-107 -502h148l106 502h119l-109 -502h117l-16 -107h-123l-47 -217h135l-16 -106h-142l-108 -502h-119l108 502h-147l-109 -502h-116zM406 608h147l47 217h-147z" />
    <glyph glyph-name="dollar" unicode="$" horiz-adv-x="591" 
d="M688 991h-141l35 209q12 83 -4.5 116.5t-63.5 33.5q-49 0 -79.5 -34.5t-41.5 -115.5l-20 -133q-12 -76 12 -143.5t76 -141.5q18 -26 29 -41.5t28 -42t27 -46t23 -47t19 -52.5t11.5 -54.5t5 -60.5t-5.5 -63l-20 -121q-39 -249 -232 -281l-22 -176h-117l33 176
q-89 14 -127 84t-17 197l31 190h139l-33 -208q-13 -82 6 -117t70 -35q50 0 81 35.5t44 116.5l21 133q3 20 3 40.5t-1.5 37.5t-7.5 37.5t-11 35t-15.5 35t-17.5 33t-21 33.5t-21.5 32l-22.5 33q-44 62 -68 106.5t-40 117t-3 149.5l21 125q39 245 225 276l21 176h118l-34 -176
q178 -28 139 -276z" />
    <glyph glyph-name="percent" unicode="%" horiz-adv-x="1167" 
d="M678 1184l-45 -287q-47 -283 -256 -283q-103 0 -146.5 71.5t-21.5 211.5l47 287q22 140 87 210t169 70q105 0 147 -70.5t19 -209.5zM238 0l841 1434h88l-841 -1434h-88zM561 1200q12 80 -2 115t-61 35q-98 0 -121 -150l-51 -319q-12 -80 3 -116t62 -36q50 0 78.5 36.5
t40.5 115.5zM1186 541l-45 -287q-47 -285 -256 -285q-103 0 -146.5 71.5t-21.5 213.5l45 287q46 280 258 280q209 0 166 -280zM1069 557q12 81 -2 115.5t-63 34.5q-50 0 -78.5 -36t-40.5 -114l-51 -319q-12 -80 3 -116t62 -36q50 0 78.5 36.5t40.5 115.5z" />
    <glyph glyph-name="ampersand" unicode="&#x26;" horiz-adv-x="659" 
d="M696 1042h-141l20 132q12 78 -3.5 112.5t-65.5 34.5q-53 0 -83 -35.5t-42 -111.5l-39 -246q-12 -80 6 -117t70 -37h94l20 125h142l-21 -125h76l-18 -115h-76l-105 -659h-96l21 127h-6q-32 -83 -77 -120.5t-112 -37.5q-101 0 -143 78.5t-19 226.5l29 175q19 123 57 187
t101 79v4q-113 30 -74 268l29 174q47 303 284 303q119 0 167.5 -76t23.5 -225zM496 659h-97q-53 0 -82 -35t-41 -116l-38 -244q-12 -77 4 -112t65 -35q54 0 85 45.5t48 152.5z" />
    <glyph glyph-name="quotesingle" unicode="'" horiz-adv-x="253" 
d="M428 1536l-14 -98l-78 -396h-90l49 396l16 98h117z" />
    <glyph glyph-name="parenleft" unicode="(" horiz-adv-x="409" 
d="M168 -356q-76 511 -4 958q70 451 307 950l113 -24q-211 -500 -279 -926q-66 -414 -16 -936z" />
    <glyph glyph-name="parenright" unicode=")" horiz-adv-x="409" 
d="M430 1552q76 -511 4 -958q-70 -451 -307 -950l-113 24q210 498 279 926q68 426 16 936z" />
    <glyph glyph-name="asterisk" unicode="*" horiz-adv-x="763" 
d="M297 918l205 198l-248 60l55 112l226 -104l16 262h119l-66 -262l258 104l19 -112l-265 -60l142 -198l-107 -70l-100 227l-170 -227z" />
    <glyph glyph-name="plus" unicode="+" horiz-adv-x="911" 
d="M963 754l-21 -119h-324l-53 -328h-125l54 328h-326l18 119h326l51 327h125l-51 -327h326z" />
    <glyph glyph-name="comma" unicode="," horiz-adv-x="303" 
d="M262 178l-35 -225q-26 -168 -194 -168l12 76q42 0 63 23.5t29 72.5l8 43h-77l28 178h166z" />
    <glyph glyph-name="hyphen" unicode="-" horiz-adv-x="626" 
d="M678 752l-19 -115h-491l18 115h492z" />
    <glyph glyph-name="period" unicode="." horiz-adv-x="301" 
d="M70 0l26 178h168l-28 -178h-166z" />
    <glyph glyph-name="slash" unicode="/" horiz-adv-x="487" 
d="M174 -164h-133l481 1659h133z" />
    <glyph glyph-name="zero" unicode="0" horiz-adv-x="585" 
d="M719 1184l-148 -930q-22 -141 -93.5 -213t-186.5 -72q-117 0 -167.5 72.5t-27.5 212.5l148 930q22 139 94 209.5t188 70.5t166 -71t27 -209zM582 1200q12 79 -4.5 114.5t-67.5 35.5t-81 -36t-42 -114l-154 -964q-12 -79 4 -115.5t68 -36.5q100 0 123 152z" />
    <glyph glyph-name="one" unicode="1" horiz-adv-x="450" 
d="M522 1434l-209 -1319h97l-19 -115h-332l19 115h96l170 1081h-70l15 92q56 0 83 35t38 111h112z" />
    <glyph glyph-name="two" unicode="2" horiz-adv-x="585" 
d="M209 930l35 217q51 317 282 317q114 0 163 -81.5t22 -249.5l-25 -146q-9 -60 -30 -112.5t-56 -98t-64.5 -77t-76.5 -74.5q-48 -45 -72.5 -70t-59.5 -68.5t-55 -88.5t-28 -97l-31 -186h336l-19 -115h-475l45 295q12 71 38 133t70.5 118t74.5 87.5t86 83.5
q75 68 121.5 134.5t58.5 145.5l26 172q15 98 -1 139.5t-64 41.5q-47 0 -77 -39.5t-44 -132.5l-41 -248h-139z" />
    <glyph glyph-name="three" unicode="3" horiz-adv-x="585" 
d="M719 1184l-37 -226q-24 -172 -131 -213v-8q48 -21 62.5 -70.5t0.5 -136.5l-43 -278q-47 -283 -282 -283q-116 0 -166.5 71.5t-28.5 211.5l45 278h142l-48 -297q-12 -79 4 -114t66 -35q53 0 83 35.5t42 113.5l43 283q15 91 -3 128.5t-79 37.5h-31l19 115h31
q60 0 90.5 38.5t44.5 129.5l37 235q12 79 -4 114.5t-66 35.5q-53 0 -83 -36t-42 -114l-39 -250h-141l37 234q47 280 284 280q116 0 165.5 -70.5t27.5 -209.5z" />
    <glyph glyph-name="four" unicode="4" horiz-adv-x="636" 
d="M750 1434l-170 -1082h53l-19 -114h-53l-39 -238h-141l39 238h-322l17 112l446 1084h189zM254 352h184l86 547l72 305h-8l-35 -96z" />
    <glyph glyph-name="five" unicode="5" horiz-adv-x="585" 
d="M737 1434l-16 -115h-315l-80 -506h4q60 156 190 156q165 0 123 -267l-72 -448q-47 -285 -280 -285q-117 0 -167.5 72.5t-27.5 212.5l31 199h141l-35 -217q-12 -78 5.5 -115t68.5 -37t80 37t41 115l74 466q12 79 -3.5 114.5t-64.5 35.5t-82 -37t-45 -113l-8 -49h-139
l123 781h454z" />
    <glyph glyph-name="six" unicode="6" horiz-adv-x="585" 
d="M692 1022h-139l27 176q12 79 -4 115.5t-66 36.5q-53 0 -83.5 -41t-43.5 -131l-72 -449h4q58 143 181 143q175 0 129 -280l-54 -338q-47 -285 -282 -285q-116 0 -166.5 72.5t-28.5 212.5l144 905q50 305 288 305q115 0 165 -71.5t28 -210.5zM303 84q52 0 82.5 37t42.5 115
l59 372q12 79 -4.5 114.5t-66.5 35.5q-51 0 -81 -36t-42 -114l-60 -372q-12 -79 4 -115.5t66 -36.5z" />
    <glyph glyph-name="seven" unicode="7" horiz-adv-x="559" 
d="M727 1434l-18 -117q-143 -362 -227 -629t-195 -688h-142q112 423 196.5 689t229.5 624l-4 4h-299l19 117h440z" />
    <glyph glyph-name="eight" unicode="8" horiz-adv-x="585" 
d="M719 1184l-33 -211q-26 -162 -139 -221l-2 -7q93 -59 69 -221l-43 -270q-47 -285 -282 -285q-116 0 -166.5 72.5t-28.5 212.5l43 270q26 162 142 221v5q-94 58 -70 223l33 211q47 280 284 280q116 0 165.5 -70.5t27.5 -209.5zM580 1200q12 79 -4 114.5t-66 35.5
q-53 0 -83 -36t-42 -114l-37 -244q-12 -79 4 -115t66 -36q51 0 81.5 36.5t43.5 114.5zM475 541q14 79 -2 114t-67 35q-52 0 -81.5 -35.5t-43.5 -113.5l-48 -305q-12 -79 4 -115.5t66 -36.5q52 0 82.5 37t42.5 115z" />
    <glyph glyph-name="nine" unicode="9" horiz-adv-x="585" 
d="M121 412h139l-27 -176q-12 -79 4 -115.5t66 -36.5q53 0 83.5 41t43.5 131l72 451h-4q-54 -146 -181 -146q-175 0 -129 281l54 340q23 140 94.5 211t187.5 71t166.5 -71.5t28.5 -210.5l-144 -908q-50 -305 -288 -305q-115 0 -165 72.5t-28 212.5zM510 1350
q-52 0 -82.5 -37t-42.5 -115l-59 -373q-12 -79 4 -114t67 -35t81 36t42 113l60 373q12 79 -4 115.5t-66 36.5z" />
    <glyph glyph-name="colon" unicode=":" horiz-adv-x="301" 
d="M215 928l27 178h168l-29 -178h-166zM70 0l26 178h168l-28 -178h-166z" />
    <glyph glyph-name="semicolon" unicode=";" horiz-adv-x="303" 
d="M217 928l27 178h168l-29 -178h-166zM262 178l-35 -225q-26 -168 -194 -168l12 76q42 0 63 23.5t29 72.5l8 43h-77l28 178h166z" />
    <glyph glyph-name="less" unicode="&#x3c;" horiz-adv-x="612" 
d="M672 803l-23 -135l-418 -123l-2 -8l381 -121l-22 -133l-443 215l15 86z" />
    <glyph glyph-name="equal" unicode="=" horiz-adv-x="886" 
d="M967 928l-19 -117h-751l18 117h752zM911 578l-18 -117h-754l21 117h751z" />
    <glyph glyph-name="greater" unicode="&#x3e;" horiz-adv-x="612" 
d="M145 283l23 135l418 125l2 6l-381 123l22 131l443 -215l-15 -86z" />
    <glyph glyph-name="question" unicode="?" horiz-adv-x="604" 
d="M215 930l35 217q51 317 287 317q232 0 182 -321l-23 -139q-17 -107 -56 -186t-103 -167q-42 -58 -64.5 -92.5t-49.5 -96.5t-36 -126l-6 -37h-141l4 31q14 89 48 169.5t63.5 125.5t76.5 106q104 144 123 273l27 165q17 96 -0.5 138.5t-65.5 42.5t-77.5 -39.5t-43.5 -132.5
l-39 -248h-141zM186 0l27 178h168l-29 -178h-166z" />
    <glyph glyph-name="at" unicode="@" horiz-adv-x="1056" 
d="M913 1065l-143 -907q-6 -34 7.5 -56t39.5 -22t46 25.5t28 66.5l115 727q26 167 -46 265t-227 98q-156 0 -263.5 -98.5t-133.5 -266.5l-105 -653q-34 -220 18.5 -329.5t201.5 -109.5l-17 -108q-202 0 -285.5 142t-42.5 409l105 659q32 201 183 331t351 130t308.5 -131.5
t76.5 -333.5l-110 -704q-15 -97 -78.5 -159.5t-148.5 -62.5q-75 0 -119.5 48t-32.5 118v9h-4q-32 -86 -79.5 -132.5t-104.5 -46.5q-70 0 -97 74t-4 219l92 578q17 113 65.5 175t115.5 62q56 0 91.5 -41.5t41.5 -117.5h4l22 143h129zM743 776q10 88 -10.5 133t-64.5 45
q-82 0 -105 -141l-86 -549q-23 -143 55 -143q46 0 84 46t52 132z" />
    <glyph glyph-name="A" unicode="A" horiz-adv-x="555" 
d="M594 1434l-66 -1434h-141l25 362h-154l-90 -362h-141l389 1434h178zM287 477h133l41 596l14 146h-8l-31 -146z" />
    <glyph glyph-name="B" unicode="B" horiz-adv-x="567" 
d="M707 1153l-25 -147q-19 -116 -60 -178t-114 -85v-6q139 -50 102 -262l-28 -190q-23 -142 -102 -213.5t-206 -71.5h-215l228 1434h207q124 0 180 -69.5t33 -211.5zM567 1169q12 79 -8.5 114.5t-81.5 35.5h-67l-82 -522h57q72 0 104.5 38t47.5 140zM475 506q15 92 -10 134
t-96 42h-60l-90 -565h70q64 0 100.5 36.5t48.5 114.5z" />
    <glyph glyph-name="C" unicode="C" horiz-adv-x="585" 
d="M580 1200q12 77 -4.5 113.5t-65.5 36.5q-101 0 -125 -150l-152 -964q-12 -79 4.5 -115.5t65.5 -36.5q102 0 125 152l43 270h141l-41 -252q-23 -143 -95.5 -214t-186.5 -71q-115 0 -165.5 71.5t-29.5 213.5l148 930q23 140 95.5 210t186.5 70q116 0 167 -70t28 -210
l-41 -254h-141z" />
    <glyph glyph-name="D" unicode="D" horiz-adv-x="591" 
d="M719 1153l-137 -868q-23 -142 -102 -213.5t-206 -71.5h-215l228 1434h213q127 0 184.5 -70.5t34.5 -210.5zM582 1169q12 78 -11.5 114t-87.5 36h-73l-191 -1204h70q126 0 149 151z" />
    <glyph glyph-name="E" unicode="E" horiz-adv-x="440" 
d="M618 1434l-18 -115h-190l-86 -547h178l-19 -115h-178l-86 -542h209l-18 -115h-351l228 1434h331z" />
    <glyph glyph-name="F" unicode="F" horiz-adv-x="421" 
d="M618 1434l-18 -115h-190l-88 -557h170l-19 -115h-170l-102 -647h-142l228 1434h331z" />
    <glyph glyph-name="G" unicode="G" horiz-adv-x="585" 
d="M580 1200q14 80 -2.5 115t-67.5 35q-53 0 -82.5 -35.5t-42.5 -114.5l-152 -964q-23 -152 64 -152q53 0 89.5 45.5t49.5 132.5l56 354h-125l18 115h262l-117 -731h-127l13 121h-4q-24 -68 -74.5 -110t-116.5 -42q-171 0 -127 285l148 930q23 140 95.5 210t186.5 70
q116 0 167 -70t28 -210l-41 -254h-141z" />
    <glyph glyph-name="H" unicode="H" horiz-adv-x="583" 
d="M750 1434l-226 -1434h-141l104 657h-182l-104 -657h-142l228 1434h141l-104 -662h182l104 662h140z" />
    <glyph glyph-name="I" unicode="I" horiz-adv-x="260" 
d="M428 1434l-227 -1434h-142l228 1434h141z" />
    <glyph glyph-name="J" unicode="J" horiz-adv-x="565" 
d="M737 1434l-186 -1180q-23 -143 -95.5 -214t-185.5 -71q-116 0 -166.5 71.5t-27.5 213.5l39 252h141l-43 -270q-12 -79 5 -115.5t67 -36.5q100 0 123 152l190 1198h139z" />
    <glyph glyph-name="K" unicode="K" horiz-adv-x="587" 
d="M762 1434l-273 -586l68 -848h-143l-47 707h-7l-69 -144l-90 -563h-142l228 1434h141l-72 -451l-49 -235h6l308 686h141z" />
    <glyph glyph-name="L" unicode="L" horiz-adv-x="423" 
d="M287 1434h141l-209 -1319h189l-19 -115h-330z" />
    <glyph glyph-name="M" unicode="M" horiz-adv-x="765" 
d="M934 1434l-227 -1434h-134l191 1051l31 145l-9 2l-38 -147l-293 -1051h-131l34 1198l-6 -2l-16 -145l-143 -1051h-134l228 1434h200l-55 -1086l-12 -133h8l29 133l276 1086h201z" />
    <glyph glyph-name="N" unicode="N" horiz-adv-x="618" 
d="M786 1434l-227 -1434h-172l-29 1042v148h-8l-14 -148l-135 -1042h-142l228 1434h172l30 -1024l3 -146h6l14 150l133 1020h141z" />
    <glyph glyph-name="O" unicode="O" horiz-adv-x="585" 
d="M719 1184l-148 -930q-22 -141 -93.5 -213t-186.5 -72q-117 0 -167.5 72.5t-27.5 212.5l148 930q22 139 94 209.5t188 70.5t166 -71t27 -209zM582 1200q12 79 -4.5 114.5t-67.5 35.5t-81 -36t-42 -114l-154 -964q-12 -79 4 -115.5t68 -36.5q100 0 123 152z" />
    <glyph glyph-name="P" unicode="P" horiz-adv-x="591" 
d="M717 1145l-49 -318q-23 -143 -103 -216.5t-207 -73.5h-71l-86 -537h-142l228 1434h213q126 0 183 -73t34 -216zM582 1169q12 78 -11.5 114t-87.5 36h-73l-105 -668h68q64 0 100.5 37t48.5 115z" />
    <glyph glyph-name="Q" unicode="Q" horiz-adv-x="585" 
d="M717 1176l-144 -916q-23 -138 -92 -211.5t-176 -79.5q8 -100 137 -100l2 -4l-14 -101l-4 -4q-91 0 -130.5 45t-23.5 164q-104 6 -150.5 80.5t-25.5 210.5l146 916q23 143 96.5 215.5t187.5 72.5t164 -72.5t27 -215.5zM582 1200q12 79 -4.5 114.5t-67.5 35.5t-81 -36
t-42 -114l-154 -964q-12 -79 4 -115.5t68 -36.5q100 0 123 152z" />
    <glyph glyph-name="R" unicode="R" horiz-adv-x="587" 
d="M287 1434h213q126 0 183 -73.5t34 -217.5l-35 -223q-30 -190 -170 -240l-2 -4q124 -46 96 -238l-37 -231q-16 -94 -16 -199v-8h-141q0 98 16 207l41 264q14 78 -9 114t-87 36h-74l-98 -621h-142zM410 1319l-93 -584h72q63 0 99 36.5t49 115.5l45 282q12 78 -11.5 114
t-87.5 36h-73z" />
    <glyph glyph-name="S" unicode="S" horiz-adv-x="591" 
d="M688 991h-141l35 209q12 83 -4.5 116.5t-63.5 33.5q-49 0 -79.5 -34.5t-41.5 -115.5l-20 -133q-12 -76 12 -143.5t76 -141.5q18 -26 29 -41.5t28 -42t27 -46t23 -47t19 -52.5t11.5 -54.5t5 -60.5t-5.5 -63l-20 -121q-23 -144 -97 -214.5t-190 -70.5t-167.5 70t-27.5 215
l31 190h139l-33 -208q-13 -82 6 -117t70 -35q50 0 81 35.5t44 116.5l21 133q3 20 3 40.5t-1.5 37.5t-7.5 37.5t-11 35t-15.5 35t-17.5 33t-21 33.5t-21.5 32l-22.5 33q-44 62 -68 106.5t-40 117t-3 149.5l21 125q45 280 278 280q236 0 191 -280z" />
    <glyph glyph-name="T" unicode="T" horiz-adv-x="546" 
d="M739 1434l-16 -115h-170l-209 -1319h-141l209 1319h-168l18 115h477z" />
    <glyph glyph-name="U" unicode="U" horiz-adv-x="612" 
d="M784 1434l-186 -1180q-23 -144 -98.5 -214.5t-196.5 -70.5q-122 0 -176 71.5t-31 213.5l187 1180h141l-191 -1198q-12 -79 7.5 -115.5t76.5 -36.5q112 0 138 152l188 1198h141z" />
    <glyph glyph-name="V" unicode="V" horiz-adv-x="555" 
d="M367 0h-179l66 1434h141l-71 -1074l-17 -145h8l33 145l266 1074h142z" />
    <glyph glyph-name="W" unicode="W" horiz-adv-x="890" 
d="M1092 1434l-371 -1434h-178l80 1053l16 147h-6l-31 -147l-254 -1053h-180l86 1434h141l-92 -1092l-18 -152h8l29 152l268 1092h166l-78 -1092l-16 -152h8l26 152l254 1092h142z" />
    <glyph glyph-name="X" unicode="X" horiz-adv-x="557" 
d="M758 1434l-262 -701v-6l34 -727h-143l-18 483l12 176h-6l-43 -176l-164 -483h-141l256 733v6l-29 695h141l15 -455l-11 -174h7l45 174l163 455h144z" />
    <glyph glyph-name="Y" unicode="Y" horiz-adv-x="555" 
d="M756 1434l-328 -934l-80 -500h-141l80 500l-33 934h141l-10 -621l-8 -164h8l45 164l184 621h142z" />
    <glyph glyph-name="Z" unicode="Z" horiz-adv-x="487" 
d="M668 1434l-19 -115l-456 -1198l2 -6h280l-18 -115h-426l18 115l457 1198l-4 6h-246l18 115h394z" />
    <glyph glyph-name="bracketleft" unicode="[" horiz-adv-x="450" 
d="M322 -387h-316l305 1931h316l-19 -114h-174l-268 -1702h174z" />
    <glyph glyph-name="backslash" unicode="\" horiz-adv-x="487" 
d="M260 -164l45 1659h133l-45 -1659h-133z" />
    <glyph glyph-name="bracketright" unicode="]" horiz-adv-x="450" 
d="M311 1544h316l-305 -1931h-316l19 115h174l270 1702h-174z" />
    <glyph glyph-name="asciicircum" unicode="^" horiz-adv-x="538" 
d="M635 1024h-125l-10 166l-6 184h-9l-129 -350h-125l201 410h131z" />
    <glyph glyph-name="underscore" unicode="_" horiz-adv-x="606" 
d="M539 0l-19 -115h-471l19 115h471z" />
    <glyph glyph-name="grave" unicode="`" horiz-adv-x="405" 
d="M520 1153h-92l-133 281h108z" />
    <glyph glyph-name="a" unicode="a" horiz-adv-x="555" 
d="M506 0h-111l17 170h-6q-38 -92 -95 -146.5t-121 -54.5q-69 0 -97 73.5t-7 211.5l25 156q47 280 204 280q58 0 93.5 -37.5t44.5 -105.5h6l51 323q12 80 -4.5 116t-65.5 36q-48 0 -75 -35.5t-39 -114.5l-17 -102h-135l14 86q47 281 271 281q111 0 158.5 -70.5t25.5 -210.5z
M266 84q53 0 96.5 66.5t63.5 187.5l14 88q9 66 -14 107.5t-70 41.5q-82 0 -108 -149l-29 -190q-12 -78 -1 -115t48 -37z" />
    <glyph glyph-name="b" unicode="b" horiz-adv-x="555" 
d="M645 856l-96 -602q-21 -139 -75 -212t-130 -73q-56 0 -92.5 39.5t-46.5 112.5h-6l-31 -121h-113l244 1536h135l-88 -549h6q66 150 180 150q76 0 105.5 -71.5t7.5 -209.5zM305 84q84 0 107 152l100 636q12 78 -0.5 114t-52.5 36q-47 0 -85 -48.5t-52 -139.5l-89 -560
q-15 -94 5 -142t67 -48z" />
    <glyph glyph-name="c" unicode="c" 
d="M504 872q12 81 -2.5 115.5t-63.5 34.5q-50 0 -78.5 -36t-40.5 -114l-100 -636q-12 -80 2.5 -116t63.5 -36q95 0 118 152l27 178h135l-24 -160q-23 -141 -92 -213t-179 -72q-111 0 -158.5 72t-25.5 213l96 602q23 140 92.5 210.5t180.5 70.5t157 -71t23 -210l-25 -160
h-135z" />
    <glyph glyph-name="d" unicode="d" horiz-adv-x="555" 
d="M182 856q47 281 203 281q56 0 90 -38.5t43 -111.5h4l88 549h135l-243 -1536h-113l6 121h-4q-34 -73 -83 -112.5t-105 -39.5q-76 0 -107 73t-8 212zM274 84q47 0 84.5 48.5t51.5 141.5l90 560q13 93 -7 140.5t-67 47.5q-81 0 -104 -150l-103 -636q-12 -79 1 -115.5
t54 -36.5z" />
    <glyph glyph-name="e" unicode="e" 
d="M430 414h135l-24 -160q-23 -141 -92 -213t-179 -72q-111 0 -158.5 72t-25.5 213l96 602q23 140 92.5 210.5t180.5 70.5t157 -71t23 -210l-51 -324h-318l-47 -296q-12 -80 2.5 -116t63.5 -36q95 0 118 152zM504 872q12 81 -2.5 115.5t-63.5 34.5q-50 0 -78.5 -36
t-40.5 -114l-38 -241h184z" />
    <glyph glyph-name="f" unicode="f" horiz-adv-x="296" 
d="M84 0l158 991h-62l19 115h61l35 227q9 54 22 89t31 58.5t49 35t67.5 16t94.5 4.5l-18 -115q-60 0 -81.5 -16.5t-31.5 -83.5l-35 -215h82l-18 -115h-82l-156 -991h-135z" />
    <glyph glyph-name="g" unicode="g" 
d="M637 856l-74 -459q-44 -284 -270 -284h-57q-57 0 -64 -52q-9 -47 47 -47h107q81 0 122 -42.5t29 -118.5q-12 -83 -76.5 -127.5t-171.5 -44.5h-24q-96 0 -147 36.5t-40 96.5q12 81 140 98l2 4q-55 4 -82 33t-19 74q6 43 41 73.5t88 36.5v4q-111 56 -77 260l71 459
q20 127 80 198.5t154 80.5q42 4 60.5 19t23.5 44l12 80h119l-10 -53q-7 -43 -30.5 -65t-82.5 -25v-5q166 -30 129 -274zM504 872q12 80 -3.5 115t-64.5 35t-77 -36t-40 -114l-77 -493q-12 -78 4 -115t63 -37q49 0 77 36t40 116zM233 -86q-84 0 -94 -66q-6 -32 13 -49.5
t61 -17.5h59q86 0 95 65q5 32 -14.5 50t-59.5 18h-60z" />
    <glyph glyph-name="h" unicode="h" horiz-adv-x="563" 
d="M508 0h-133l137 870q12 78 -0.5 115t-52.5 37q-48 0 -85.5 -49t-51.5 -142l-132 -831h-135l244 1536h133l-84 -535h6q66 136 174 136q76 0 107 -72t8 -211z" />
    <glyph glyph-name="i" unicode="i" horiz-adv-x="243" 
d="M242 1174l32 208h136l-33 -208h-135zM55 0l176 1106h134l-175 -1106h-135z" />
    <glyph glyph-name="j" unicode="j" horiz-adv-x="229" 
d="M391 1382l-33 -208h-135l35 208h133zM348 1106l-192 -1217q-12 -70 -24.5 -106.5t-42 -60t-71.5 -29.5t-120 -6l18 114q29 0 44 2t27 6t18 17.5t9.5 28.5t8.5 47l190 1204h135z" />
    <glyph glyph-name="k" unicode="k" horiz-adv-x="571" 
d="M698 1106l-249 -451v-2l96 -653h-142l-73 543h-6l-66 -109l-68 -434h-135l244 1536h133l-123 -778l-41 -180h6l281 528h143z" />
    <glyph glyph-name="l" unicode="l" horiz-adv-x="243" 
d="M55 0l244 1536h135l-244 -1536h-135z" />
    <glyph glyph-name="m" unicode="m" horiz-adv-x="856" 
d="M496 0h-136l138 870q12 78 0.5 115t-49.5 37q-44 0 -80 -49t-50 -142l-131 -831h-135l176 1106h111l-4 -117h4q34 72 80.5 110t99.5 38q55 0 85 -41t30 -119h6q32 76 81 118t105 42q73 0 102.5 -72t6.5 -211l-135 -854h-135l139 870q23 152 -49 152q-44 0 -79.5 -49
t-49.5 -142z" />
    <glyph glyph-name="n" unicode="n" horiz-adv-x="563" 
d="M508 0h-135l137 870q26 152 -53 152q-48 0 -86 -49t-52 -142l-131 -831h-135l176 1106h111l-6 -121h6q34 73 82.5 112.5t105.5 39.5q75 0 105.5 -72t9.5 -211z" />
    <glyph glyph-name="o" unicode="o" 
d="M635 856l-94 -602q-23 -141 -92 -213t-179 -72q-111 0 -158.5 72t-25.5 213l96 602q23 140 92.5 210.5t180.5 70.5t157 -71t23 -210zM504 872q12 81 -2.5 115.5t-63.5 34.5q-50 0 -78.5 -36t-40.5 -114l-100 -636q-12 -80 2.5 -116t63.5 -36q95 0 118 152z" />
    <glyph glyph-name="p" unicode="p" horiz-adv-x="555" 
d="M549 252q-47 -283 -203 -283q-56 0 -90 38.5t-41 111.5h-6l-88 -549h-133l243 1536h111l-6 -121h6q34 73 82 112.5t104 39.5q76 0 107 -72t8 -211zM305 84q84 0 107 149l100 637q12 78 -0.5 115t-52.5 37q-48 0 -85.5 -49t-51.5 -142l-89 -559q-15 -92 5.5 -140t66.5 -48
z" />
    <glyph glyph-name="q" unicode="q" horiz-adv-x="555" 
d="M88 252l94 602q23 139 76.5 211t128.5 72q57 0 93.5 -39.5t45.5 -112.5h6l33 121h111l-244 -1536h-133l86 549h-6q-30 -73 -77 -111.5t-103 -38.5q-76 0 -105 72t-6 211zM272 84q48 0 86 48t52 140l88 559q15 94 -4.5 142.5t-65.5 48.5q-86 0 -109 -152l-100 -637
q-12 -78 0.5 -113.5t52.5 -35.5z" />
    <glyph glyph-name="r" unicode="r" horiz-adv-x="407" 
d="M229 1106h119l-20 -178h4q11 50 30 85t38.5 53t50 27.5t51 11t53.5 1.5l-20 -137q-107 0 -158 -53t-66 -150l-123 -766h-133z" />
    <glyph glyph-name="s" unicode="s" 
d="M614 766h-133l25 162q19 114 -64 114q-90 0 -108 -118l-17 -107q-9 -55 18.5 -108t80.5 -115q34 -39 55 -67t43.5 -69t30 -85.5t0.5 -93.5l-13 -74q-18 -112 -90 -174t-174 -62t-154 62.5t-34 175.5l20 135h136l-25 -162q-19 -114 70 -114q95 0 114 114l15 103
q5 29 -2.5 60t-29.5 66.5t-38.5 58.5t-48.5 62q-61 72 -91 139.5t-18 149.5l15 82q17 113 86 174.5t170 61.5q102 0 152 -62t32 -174z" />
    <glyph glyph-name="t" unicode="t" horiz-adv-x="333" 
d="M287 1270h135l-27 -164h97l-19 -115h-96l-123 -776q-10 -67 5.5 -83.5t74.5 -16.5l-17 -115q-48 0 -80 2.5t-58.5 11t-40 22t-21.5 37t-7.5 54.5t7.5 76l125 788h-62l19 115h61z" />
    <glyph glyph-name="u" unicode="u" horiz-adv-x="563" 
d="M229 1106h136l-138 -870q-23 -152 56 -152q48 0 84.5 48.5t50.5 141.5l131 832h135l-176 -1106h-111l6 121h-6q-34 -73 -82.5 -112.5t-105.5 -39.5q-75 0 -105.5 73t-9.5 212z" />
    <glyph glyph-name="v" unicode="v" horiz-adv-x="536" 
d="M348 0h-162l13 1106h141l-31 -766l-10 -125h6l29 125l213 766h141z" />
    <glyph glyph-name="w" unicode="w" horiz-adv-x="858" 
d="M1010 1106l-312 -1106h-178l60 872l12 138h-6l-31 -138l-217 -872h-180l41 1106h141l-51 -791l-15 -125h9l26 125l211 791h166l-35 -791l-12 -125h6l25 125l198 791h142z" />
    <glyph glyph-name="x" unicode="x" horiz-adv-x="538" 
d="M688 1106l-235 -541v-4l61 -561h-135l-37 373l6 135h-8l-35 -135l-145 -373h-137l229 565v4l-53 537h135l28 -350l-2 -135h7l39 135l147 350h135z" />
    <glyph glyph-name="y" unicode="y" horiz-adv-x="536" 
d="M328 -80q-15 -49 -26.5 -79t-29.5 -59t-39 -44t-54 -27t-75.5 -16t-103.5 -4l18 116q51 0 76 4.5t44 27t27 53t21 100.5l13 1114h141l-31 -772l-12 -127h8l29 127l213 772h141l-338 -1106z" />
    <glyph glyph-name="z" unicode="z" horiz-adv-x="466" 
d="M594 1106l-14 -90l-387 -895l4 -6h256l-17 -115h-405l14 90l385 897l-2 4h-223l18 115h371z" />
    <glyph glyph-name="braceleft" unicode="{" horiz-adv-x="593" 
d="M545 1227l-64 -404q-20 -127 -60 -184t-120 -57v-7q79 0 101 -57t1 -182l-63 -406q-19 -118 -0.5 -160t90.5 -42h53l-18 -115h-94q-114 0 -156 74t-16 233l67 434q11 60 8.5 97t-30.5 53t-94 16l18 117q50 0 80 8t48 30.5t26 50.5t16 79l68 432q26 160 91 233.5t179 73.5
h94l-18 -114h-52q-73 0 -103.5 -41.5t-51.5 -161.5z" />
    <glyph glyph-name="bar" unicode="|" horiz-adv-x="276" 
d="M147 -379h-139l303 1915h140z" />
    <glyph glyph-name="braceright" unicode="}" horiz-adv-x="593" 
d="M231 -70l64 404q20 127 60 184t120 57v7q-79 0 -101 57t-1 182l63 406q19 119 1 161t-91 42h-51l16 114h95q114 0 156 -74t16 -233l-68 -434q-10 -60 -7 -97t31 -53t93 -16l-19 -115q-94 0 -124 -34.5t-46 -135.5l-67 -432q-26 -159 -91.5 -233t-179.5 -74h-94l19 115h51
q73 0 104 41t51 161z" />
    <glyph glyph-name="asciitilde" unicode="~" horiz-adv-x="620" 
d="M684 827l-8 -49q-19 -114 -55.5 -167.5t-96.5 -53.5q-65 0 -118 84l-7 8q-47 72 -94 72q-59 0 -76 -115l-8 -45h-65l8 47q35 221 155 221q67 0 127 -81l7 -11q29 -38 48 -53.5t40 -15.5q54 0 71 110l9 49h63z" />
    <glyph glyph-name="exclamdown" unicode="&#xa1;" horiz-adv-x="303" 
d="M322 1036l8 45h41l-6 -45h-43zM174 -328h-141l33 205l165 932h103l-127 -932z" />
    <glyph glyph-name="cent" unicode="&#xa2;" 
d="M504 872q12 81 -2.5 115.5t-63.5 34.5q-50 0 -78.5 -36t-40.5 -114l-100 -636q-12 -80 2.5 -116t63.5 -36q95 0 118 152l27 178h135l-24 -160q-40 -246 -217 -281l-17 -141h-117l27 141q-84 15 -117.5 86t-13.5 195l96 602q41 247 219 277l17 141h117l-27 -141
q167 -35 127 -277l-25 -160h-135z" />
    <glyph glyph-name="sterling" unicode="&#xa3;" horiz-adv-x="663" 
d="M752 930h-140l41 270q12 77 -4 113.5t-65 36.5q-101 0 -125 -150l-90 -573h252l-19 -115h-252l-16 -106q-16 -107 -40.5 -171.5t-74.5 -119.5h408l-19 -115h-553l19 115q57 54 78 108.5t41 177.5l16 111h-74l19 115h73l88 557q23 140 95.5 210t187.5 70q116 0 167 -70
t28 -210z" />
    <glyph glyph-name="currency" unicode="&#xa4;" horiz-adv-x="1105" 
d="M68 0l227 1434h971l-228 -1434h-970zM442 1331l238 -530l405 530h-643zM719 717l244 -547l174 1094zM371 1264l-174 -1094l419 547zM653 633l-405 -531h643z" />
    <glyph glyph-name="yen" unicode="&#xa5;" horiz-adv-x="555" 
d="M756 1434l-303 -861h129l-17 -100h-141l-14 -82h143l-16 -100h-142l-47 -291h-141l47 291h-137l16 100h137l13 82h-138l17 100h123l-31 861h141l-10 -621l-8 -164h8l45 164l184 621h142z" />
    <glyph glyph-name="brokenbar" unicode="&#xa6;" horiz-adv-x="276" 
d="M319 702h-141l133 834h140zM147 -379h-139l131 836h142z" />
    <glyph glyph-name="section" unicode="&#xa7;" horiz-adv-x="595" 
d="M692 1079h-135l27 168q16 115 -66 115q-87 0 -106 -119l-19 -110q-14 -98 96 -230q36 -43 56 -70.5t43.5 -71t30.5 -89.5t-1 -97l-16 -94q-17 -110 -82 -173.5t-158 -71.5q2 -3 6.5 -8.5t6.5 -8.5q35 -40 56 -69t44 -72t30 -89.5t-1 -97.5l-12 -75q-18 -116 -91.5 -181
t-175.5 -65t-154 65.5t-32 184.5l20 137h136l-27 -168q-19 -117 72 -117q93 0 112 117l17 107q7 40 -12.5 89t-42.5 81.5t-64 83.5q-61 75 -90 145.5t-15 155.5l17 104q17 106 78 169.5t153 74.5q-5 6 -14 17.5t-14 17.5q-60 73 -89.5 143.5t-15.5 157.5l12 84
q18 117 88 181t172 64q100 0 149.5 -64.5t31.5 -180.5zM287 358q22 -22 61 -22q98 0 117 119l18 125q8 49 -20 108q-15 10 -43 10q-103 0 -121 -118l-20 -131q-5 -42 8 -91z" />
    <glyph glyph-name="dieresis" unicode="&#xa8;" horiz-adv-x="505" 
d="M362 1219l25 149h164l-25 -149h-164z" />
    <glyph glyph-name="copyright" unicode="&#xa9;" horiz-adv-x="1269" 
d="M201 836q46 300 214 461t443 161q280 0 400.5 -163.5t74.5 -458.5l-35 -230q-48 -305 -218 -468t-459 -163q-284 0 -394.5 160.5t-62.5 476.5zM301 852l-41 -260q-43 -271 49.5 -403t327.5 -132q476 0 559 533l41 262q41 255 -56 389.5t-327 134.5q-231 0 -371.5 -133.5
t-181.5 -390.5zM870 926q12 81 -2.5 115t-64.5 34q-95 0 -115 -129l-70 -444q-11 -73 5 -106.5t61 -33.5q50 0 79.5 36.5t41.5 115.5l18 117h135l-16 -99q-46 -284 -272 -284q-110 0 -157.5 68t-27.5 200l68 418q20 127 87.5 191.5t176.5 64.5q230 0 184 -281l-14 -98h-135z
" />
    <glyph glyph-name="ordfeminine" unicode="&#xaa;" horiz-adv-x="411" 
d="M477 838h-74l11 96h-6q-21 -51 -53 -82t-68 -31q-88 0 -64 158l13 84q12 76 42.5 116t75.5 40q33 0 54 -21.5t26 -58.5h4l29 172q12 80 -37 80q-27 0 -42 -17.5t-21 -58.5l-9 -53h-86l7 47q24 155 159 155q137 0 113 -155zM334 895q29 0 53.5 34t34.5 95l6 47
q6 33 -7 53.5t-38 20.5q-48 0 -59 -76l-17 -96q-6 -41 0 -59.5t27 -18.5z" />
    <glyph glyph-name="guillemotleft" unicode="&#xab;" horiz-adv-x="956" 
d="M553 379l-33 -123l-375 240l15 92l452 239l-8 -122l-303 -162l-2 -6zM946 379l-33 -123l-374 240l14 92l453 239l-9 -122l-303 -162l-2 -6z" />
    <glyph glyph-name="logicalnot" unicode="&#xac;" horiz-adv-x="1105" 
d="M68 0l227 1434h971l-228 -1434h-970zM442 1331l238 -530l405 530h-643zM719 717l244 -547l174 1094zM371 1264l-174 -1094l419 547zM653 633l-405 -531h643z" />
    <glyph glyph-name="registered" unicode="&#xae;" horiz-adv-x="1269" 
d="M201 836q46 299 213.5 460.5t443.5 161.5q280 0 400.5 -163.5t74.5 -458.5l-35 -230q-48 -305 -217.5 -468t-457.5 -163q-285 0 -396 160.5t-63 476.5zM301 852l-41 -260q-43 -270 49.5 -402.5t327.5 -132.5q475 0 559 533l41 262q41 255 -56 389.5t-327 134.5
q-231 0 -372 -134t-181 -390zM643 1188h145q106 0 154 -60t31 -172l-15 -90q-11 -65 -46.5 -112.5t-92.5 -67.5l-2 -4q103 -36 84 -178l-16 -96q-10 -69 -8 -154l-3 -8h-100q0 96 10 162l19 116q18 117 -101 117h-43l-63 -395h-102zM731 1106l-59 -381h43q120 0 139 121
l20 127q21 133 -98 133h-45z" />
    <glyph glyph-name="macron" unicode="&#xaf;" horiz-adv-x="503" 
d="M649 1343l-16 -100h-369l17 100h368z" />
    <glyph glyph-name="degree" unicode="&#xb0;" horiz-adv-x="499" 
d="M623 1210l-5 -20q-40 -254 -219 -254q-183 0 -143 254l2 20q43 254 223 254q182 0 142 -254zM522 1227q12 78 -1 111.5t-54 33.5t-65.5 -34.5t-36.5 -110.5l-9 -53q-12 -76 1.5 -111t54.5 -35t65.5 35t36.5 111z" />
    <glyph glyph-name="plusminus" unicode="&#xb1;" horiz-adv-x="886" 
d="M944 782l-18 -114h-314l-49 -308h-125l49 308h-313l19 114h313l49 308h125l-49 -308h313zM844 193l-19 -115h-737l18 115h738z" />
    <glyph glyph-name="twosuperior" unicode="&#xb2;" horiz-adv-x="407" 
d="M252 1161l20 129q13 88 55.5 131t106.5 43q138 0 109 -182l-15 -88q-14 -101 -122 -201q-27 -26 -40 -40t-33.5 -38.5t-31 -49t-14.5 -50.5l-15 -90h170l-12 -76h-260l27 160q7 52 34 100.5t49 72t62 60.5q42 42 66.5 77.5t31.5 78.5l17 100q7 51 -1.5 72t-33.5 21
q-24 0 -37.5 -19t-22.5 -69l-22 -142h-88z" />
    <glyph glyph-name="threesuperior" unicode="&#xb3;" horiz-adv-x="409" 
d="M549 1309l-21 -125q-12 -93 -84 -117v-2q63 -23 48 -115l-25 -153q-12 -77 -53.5 -116.5t-106.5 -39.5q-136 0 -112 156l24 153h88l-24 -157q-6 -42 1.5 -60t32.5 -18q48 0 62 76l22 151q8 46 -2.5 65t-44.5 19h-16l12 76h17q32 0 49.5 20.5t23.5 67.5l21 121
q11 78 -37 78t-59 -78l-21 -131h-90l20 129q24 153 162 153q137 0 113 -153z" />
    <glyph glyph-name="acute" unicode="&#xb4;" horiz-adv-x="317" 
d="M344 1153h-92l117 281h108z" />
    <glyph glyph-name="paragraph" unicode="&#xb6;" horiz-adv-x="909" 
d="M780 -379h-141l303 1915h141zM516 -379h-139l139 887q-52 0 -89 3t-74 12t-60 25.5t-43.5 43.5t-30 65.5t-13 91.5t2.5 122t20 157q16 98 35 172t40.5 128.5t50.5 91.5t59 60t72 35.5t83 16.5t99 4h151z" />
    <glyph glyph-name="periodcentered" unicode="&#xb7;" horiz-adv-x="301" 
d="M141 459l27 178h168l-29 -178h-166z" />
    <glyph glyph-name="cedilla" unicode="&#xb8;" horiz-adv-x="434" 
d="M88 -141l41 133h72l-23 -82q78 0 120.5 -38t33.5 -99q-11 -65 -72.5 -108.5t-144.5 -43.5q-42 0 -107 14l12 72q25 -10 64 -10q49 0 87 25t44 59q6 38 -28.5 58t-98.5 20z" />
    <glyph glyph-name="onesuperior" unicode="&#xb9;" horiz-adv-x="329" 
d="M438 1434l-112 -713h51l-12 -76h-195l12 76h54l90 569h-39l10 64q30 0 44.5 19t20.5 61h76z" />
    <glyph glyph-name="ordmasculine" unicode="&#xba;" horiz-adv-x="419" 
d="M559 1309l-80 -510q-24 -158 -166 -158t-118 158l79 510q24 155 168 155q141 0 117 -155zM473 1315q6 42 -3 59t-38 17q-28 0 -44 -17.5t-23 -58.5l-82 -522q-6 -42 3 -60t38 -18q54 0 65 78z" />
    <glyph glyph-name="guillemotright" unicode="&#xbb;" horiz-adv-x="956" 
d="M606 705l33 122l375 -237l-15 -94l-452 -240l8 123l305 162v6zM213 705l33 122l375 -237l-15 -94l-452 -240l8 123l305 162v6z" />
    <glyph glyph-name="onequarter" unicode="&#xbc;" horiz-adv-x="821" 
d="M438 1434l-112 -713h51l-12 -76h-195l12 76h54l90 569h-39l10 64q30 0 44.5 19t20.5 61h76zM287 0h-97l586 1434h96zM848 788l-92 -581h30l-12 -76h-29l-22 -131h-88l20 131h-178l10 62l246 595h115zM582 207h86l37 235l51 217h-6l-31 -102z" />
    <glyph glyph-name="onehalf" unicode="&#xbd;" horiz-adv-x="884" 
d="M274 0h-96l586 1434h96zM438 1434l-112 -713h51l-12 -76h-195l12 76h54l90 569h-39l10 64q30 0 44.5 19t20.5 61h76zM627 516l20 129q13 88 55.5 131t106.5 43q138 0 109 -182l-15 -88q-14 -100 -123 -201q-26 -25 -40 -39.5t-33.5 -39t-30 -49t-14.5 -50.5l-15 -90h170
l-12 -76h-260l26 160q7 52 34.5 100.5t49.5 72t62 60.5q42 42 66.5 77.5t31.5 78.5l16 100q7 51 -1 71.5t-33 20.5q-24 0 -37.5 -19t-22.5 -69l-22 -141h-88z" />
    <glyph glyph-name="threequarters" unicode="&#xbe;" horiz-adv-x="890" 
d="M549 1309l-21 -125q-12 -93 -84 -117v-2q63 -23 48 -115l-25 -153q-12 -77 -53.5 -116.5t-106.5 -39.5q-136 0 -112 156l24 153h88l-24 -157q-6 -42 1.5 -60t32.5 -18q48 0 62 76l22 151q8 46 -2.5 65t-44.5 19h-16l12 76h17q32 0 49.5 20.5t23.5 67.5l21 121
q11 78 -37 78t-59 -78l-21 -131h-90l20 129q24 153 162 153q137 0 113 -153zM344 0h-96l586 1434h96zM918 788l-93 -581h31l-12 -76h-29l-22 -131h-88l20 131h-178l10 62l246 595h115zM651 207h86l37 235l51 217h-6l-31 -102z" />
    <glyph glyph-name="questiondown" unicode="&#xbf;" horiz-adv-x="604" 
d="M322 928l26 178h168l-29 -178h-165zM63 -41l33 217h142l-39 -248q-15 -94 1.5 -133t63.5 -39t77.5 42t47.5 139l25 165q22 133 -39 273q-16 38 -25 61.5t-21.5 66t-17 79.5t-4.5 88.5t8 105.5l7 33h141l-6 -39q-7 -39 -7 -77t3.5 -66.5t13.5 -63t17.5 -55t21.5 -53.5
q14 -34 23 -57.5t18.5 -59.5t13.5 -68.5t3 -76t-9 -89.5l-23 -141q-26 -163 -99 -242t-185 -79q-113 0 -162 78.5t-23 238.5z" />
    <glyph glyph-name="Agrave" unicode="&#xc0;" horiz-adv-x="555" 
d="M549 1516h-92l-133 280h108zM594 1434l-66 -1434h-141l25 362h-154l-90 -362h-141l389 1434h178zM287 477h133l41 596l14 146h-8l-31 -146z" />
    <glyph glyph-name="Aacute" unicode="&#xc1;" horiz-adv-x="555" 
d="M559 1516h-92l117 280h108zM594 1434l-66 -1434h-141l25 362h-154l-90 -362h-141l389 1434h178zM287 477h133l41 596l14 146h-8l-31 -146z" />
    <glyph glyph-name="Acircumflex" unicode="&#xc2;" horiz-adv-x="555" 
d="M459 1516h-86l131 280h114l44 -280h-87l-22 208h-6zM594 1434l-66 -1434h-141l25 362h-154l-90 -362h-141l389 1434h178zM287 477h133l41 596l14 146h-8l-31 -146z" />
    <glyph glyph-name="Atilde" unicode="&#xc3;" horiz-adv-x="555" 
d="M737 1790l-10 -70q-35 -204 -129 -204q-58 0 -84 96l-4 14q-22 66 -49 66q-44 0 -58 -107l-10 -63h-57l10 63q35 211 129 211q27 0 46 -21.5t34 -66.5l2 -14q23 -74 57 -74q43 0 58 100l10 70h55zM594 1434l-66 -1434h-141l25 362h-154l-90 -362h-141l389 1434h178z
M287 477h133l41 596l14 146h-8l-31 -146z" />
    <glyph glyph-name="Adieresis" unicode="&#xc4;" horiz-adv-x="555" 
d="M440 1581l25 150h166l-25 -150h-166zM594 1434l-66 -1434h-141l25 362h-154l-90 -362h-141l389 1434h178zM287 477h133l41 596l14 146h-8l-31 -146z" />
    <glyph glyph-name="Aring" unicode="&#xc5;" horiz-adv-x="555" 
d="M406 1630q2 71 44 117.5t111 46.5q54 0 84.5 -30t30.5 -87q-2 -69 -45.5 -114t-114.5 -45q-53 0 -81.5 28.5t-28.5 83.5zM469 1638q0 -63 57 -63q36 0 61 29t25 69q0 31 -15.5 47.5t-43.5 16.5q-38 0 -62 -28.5t-22 -70.5zM594 1434l-66 -1434h-141l25 362h-154l-90 -362
h-141l389 1434h178zM287 477h133l41 596l14 146h-8l-31 -146z" />
    <glyph glyph-name="AE" unicode="&#xc6;" horiz-adv-x="759" 
d="M938 1434l-18 -115h-191l-86 -547h178l-18 -115h-178l-86 -542h209l-19 -115h-346l57 362h-155l-117 -362h-141l481 1434h430zM324 477h135l123 780h-7z" />
    <glyph glyph-name="Ccedilla" unicode="&#xc7;" horiz-adv-x="585" 
d="M580 1200q12 77 -4.5 113.5t-65.5 36.5q-101 0 -125 -150l-152 -964q-12 -79 4.5 -115.5t65.5 -36.5q102 0 125 152l43 270h141l-41 -252q-21 -132 -85 -203t-164 -80l-17 -61q78 0 120.5 -38t33.5 -99q-11 -65 -72.5 -108.5t-144.5 -43.5q-42 0 -107 14l12 72
q25 -10 64 -10q49 0 87 25t44 59q6 38 -28.5 58t-98.5 20l35 112q-94 12 -135 83t-21 200l148 930q23 140 95.5 210t186.5 70q116 0 167 -70t28 -210l-41 -254h-141z" />
    <glyph glyph-name="Egrave" unicode="&#xc8;" horiz-adv-x="440" 
d="M496 1516h-93l-133 280h109zM618 1434l-18 -115h-190l-86 -547h178l-19 -115h-178l-86 -542h209l-18 -115h-351l228 1434h331z" />
    <glyph glyph-name="Eacute" unicode="&#xc9;" horiz-adv-x="440" 
d="M508 1516h-92l116 280h109zM618 1434l-18 -115h-190l-86 -547h178l-19 -115h-178l-86 -542h209l-18 -115h-351l228 1434h331z" />
    <glyph glyph-name="Ecircumflex" unicode="&#xca;" horiz-adv-x="440" 
d="M408 1516h-86l131 280h114l43 -280h-86l-22 208h-6zM618 1434l-18 -115h-190l-86 -547h178l-19 -115h-178l-86 -542h209l-18 -115h-351l228 1434h331z" />
    <glyph glyph-name="Edieresis" unicode="&#xcb;" horiz-adv-x="440" 
d="M387 1581l25 150h166l-25 -150h-166zM618 1434l-18 -115h-190l-86 -547h178l-19 -115h-178l-86 -542h209l-18 -115h-351l228 1434h331z" />
    <glyph glyph-name="Igrave" unicode="&#xcc;" horiz-adv-x="260" 
d="M403 1516h-92l-133 280h109zM428 1434l-227 -1434h-142l228 1434h141z" />
    <glyph glyph-name="Iacute" unicode="&#xcd;" horiz-adv-x="260" 
d="M414 1516h-92l116 280h109zM428 1434l-227 -1434h-142l228 1434h141z" />
    <glyph glyph-name="Icircumflex" unicode="&#xce;" horiz-adv-x="260" 
d="M313 1516h-86l131 280h115l43 -280h-86l-22 208h-7zM428 1434l-227 -1434h-142l228 1434h141z" />
    <glyph glyph-name="Idieresis" unicode="&#xcf;" horiz-adv-x="260" 
d="M295 1581l24 150h164l-24 -150h-164zM428 1434l-227 -1434h-142l228 1434h141z" />
    <glyph glyph-name="Eth" unicode="&#xd0;" horiz-adv-x="591" 
d="M719 1153l-137 -868q-23 -142 -102 -213.5t-206 -71.5h-215l107 666h-62l17 98h59l107 670h213q127 0 184.5 -70.5t34.5 -210.5zM582 1169q12 78 -11.5 114t-87.5 36h-73l-88 -555h90l-15 -98h-90l-88 -551h70q126 0 149 151z" />
    <glyph glyph-name="Ntilde" unicode="&#xd1;" horiz-adv-x="618" 
d="M784 1790l-10 -70q-35 -204 -129 -204q-58 0 -84 96l-4 14q-22 66 -49 66q-43 0 -57 -107l-11 -63h-57l10 63q35 211 129 211q27 0 46 -21.5t34 -66.5l2 -14q23 -74 58 -74q42 0 57 100l10 70h55zM786 1434l-227 -1434h-172l-29 1042v148h-8l-14 -148l-135 -1042h-142
l228 1434h172l30 -1024l3 -146h6l14 150l133 1020h141z" />
    <glyph glyph-name="Ograve" unicode="&#xd2;" horiz-adv-x="585" 
d="M567 1516h-92l-133 280h109zM719 1184l-148 -930q-22 -141 -93.5 -213t-186.5 -72q-117 0 -167.5 72.5t-27.5 212.5l148 930q22 139 94 209.5t188 70.5t166 -71t27 -209zM582 1200q12 79 -4.5 114.5t-67.5 35.5t-81 -36t-42 -114l-154 -964q-12 -79 4 -115.5t68 -36.5
q100 0 123 152z" />
    <glyph glyph-name="Oacute" unicode="&#xd3;" horiz-adv-x="585" 
d="M578 1516h-93l117 280h109zM719 1184l-148 -930q-22 -141 -93.5 -213t-186.5 -72q-117 0 -167.5 72.5t-27.5 212.5l148 930q22 139 94 209.5t188 70.5t166 -71t27 -209zM582 1200q12 79 -4.5 114.5t-67.5 35.5t-81 -36t-42 -114l-154 -964q-12 -79 4 -115.5t68 -36.5
q100 0 123 152z" />
    <glyph glyph-name="Ocircumflex" unicode="&#xd4;" horiz-adv-x="585" 
d="M477 1516h-86l131 280h115l43 -280h-86l-23 208h-6zM719 1184l-148 -930q-22 -141 -93.5 -213t-186.5 -72q-117 0 -167.5 72.5t-27.5 212.5l148 930q22 139 94 209.5t188 70.5t166 -71t27 -209zM582 1200q12 79 -4.5 114.5t-67.5 35.5t-81 -36t-42 -114l-154 -964
q-12 -79 4 -115.5t68 -36.5q100 0 123 152z" />
    <glyph glyph-name="Otilde" unicode="&#xd5;" horiz-adv-x="585" 
d="M756 1790l-11 -70q-35 -204 -129 -204q-58 0 -84 96l-4 14q-22 66 -49 66q-43 0 -57 -107l-10 -63h-58l11 63q35 211 129 211q27 0 45.5 -21t33.5 -67l2 -14q23 -74 58 -74q42 0 57 100l10 70h56zM719 1184l-148 -930q-22 -141 -93.5 -213t-186.5 -72q-117 0 -167.5 72.5
t-27.5 212.5l148 930q22 139 94 209.5t188 70.5t166 -71t27 -209zM582 1200q12 79 -4.5 114.5t-67.5 35.5t-81 -36t-42 -114l-154 -964q-12 -79 4 -115.5t68 -36.5q100 0 123 152z" />
    <glyph glyph-name="Odieresis" unicode="&#xd6;" horiz-adv-x="585" 
d="M459 1581l24 150h164l-24 -150h-164zM719 1184l-148 -930q-22 -141 -93.5 -213t-186.5 -72q-117 0 -167.5 72.5t-27.5 212.5l148 930q22 139 94 209.5t188 70.5t166 -71t27 -209zM582 1200q12 79 -4.5 114.5t-67.5 35.5t-81 -36t-42 -114l-154 -964q-12 -79 4 -115.5
t68 -36.5q100 0 123 152z" />
    <glyph glyph-name="multiply" unicode="&#xd7;" horiz-adv-x="808" 
d="M819 1042l74 -88l-289 -247l211 -250l-104 -88l-209 247l-287 -247l-76 88l289 250l-209 247l103 88l208 -247z" />
    <glyph glyph-name="Oslash" unicode="&#xd8;" horiz-adv-x="585" 
d="M719 1184l-148 -930q-22 -141 -93.5 -213t-186.5 -72q-110 0 -162 64l-29 -64l-47 17l47 106q-19 60 -4 162l148 930q22 139 94 209.5t188 70.5q109 0 158 -61l29 61l47 -16l-45 -102q19 -68 4 -162zM582 1200q12 79 -4.5 114.5t-67.5 35.5t-81 -36t-42 -114l-115 -723
l301 676zM242 283l-9 -47q-12 -79 4 -115.5t68 -36.5q100 0 123 152l115 725z" />
    <glyph glyph-name="Ugrave" unicode="&#xd9;" horiz-adv-x="612" 
d="M580 1516h-93l-133 280h109zM784 1434l-186 -1180q-23 -144 -98.5 -214.5t-196.5 -70.5q-122 0 -176 71.5t-31 213.5l187 1180h141l-191 -1198q-12 -79 7.5 -115.5t76.5 -36.5q112 0 138 152l188 1198h141z" />
    <glyph glyph-name="Uacute" unicode="&#xda;" horiz-adv-x="612" 
d="M590 1516h-92l116 280h109zM784 1434l-186 -1180q-23 -144 -98.5 -214.5t-196.5 -70.5q-122 0 -176 71.5t-31 213.5l187 1180h141l-191 -1198q-12 -79 7.5 -115.5t76.5 -36.5q112 0 138 152l188 1198h141z" />
    <glyph glyph-name="Ucircumflex" unicode="&#xdb;" horiz-adv-x="612" 
d="M489 1516h-86l132 280h114l43 -280h-86l-22 208h-6zM784 1434l-186 -1180q-23 -144 -98.5 -214.5t-196.5 -70.5q-122 0 -176 71.5t-31 213.5l187 1180h141l-191 -1198q-12 -79 7.5 -115.5t76.5 -36.5q112 0 138 152l188 1198h141z" />
    <glyph glyph-name="Udieresis" unicode="&#xdc;" horiz-adv-x="612" 
d="M471 1581l25 150h163l-24 -150h-164zM784 1434l-186 -1180q-23 -144 -98.5 -214.5t-196.5 -70.5q-122 0 -176 71.5t-31 213.5l187 1180h141l-191 -1198q-12 -79 7.5 -115.5t76.5 -36.5q112 0 138 152l188 1198h141z" />
    <glyph glyph-name="Yacute" unicode="&#xdd;" horiz-adv-x="555" 
d="M561 1516h-92l117 280h108zM756 1434l-328 -934l-80 -500h-141l80 500l-33 934h141l-10 -621l-8 -164h8l45 164l184 621h142z" />
    <glyph glyph-name="Thorn" unicode="&#xde;" horiz-adv-x="591" 
d="M676 877l-51 -316q-23 -144 -102.5 -218.5t-205.5 -74.5h-73l-43 -268h-142l228 1434h141l-43 -269h72q128 0 185 -72.5t34 -215.5zM539 901q12 78 -12 114t-89 36h-71l-105 -666h72q63 0 98.5 36.5t48.5 115.5z" />
    <glyph glyph-name="germandbls" unicode="&#xdf;" horiz-adv-x="567" 
d="M524 1464q105 0 157 -70t28 -216l-27 -172q-19 -116 -60 -178t-114 -87v-4q136 -49 102 -264l-28 -188q-23 -142 -102 -213.5t-206 -71.5h-16l18 115h15q63 0 98 36.5t49 114.5l37 240q15 92 -10.5 134t-97.5 42h-21l19 115h20q72 0 103.5 37t48.5 139l34 221
q23 147 -65 147q-39 0 -72 -34.5t-45 -112.5l-188 -1194h-142l189 1186q22 140 97 209t179 69z" />
    <glyph glyph-name="agrave" unicode="&#xe0;" horiz-adv-x="555" 
d="M500 1188h-92l-134 280h109zM506 0h-111l17 170h-6q-38 -92 -95 -146.5t-121 -54.5q-69 0 -97 73.5t-7 211.5l25 156q47 280 204 280q58 0 93.5 -37.5t44.5 -105.5h6l51 323q12 80 -4.5 116t-65.5 36q-48 0 -75 -35.5t-39 -114.5l-17 -102h-135l14 86q47 281 271 281
q111 0 158.5 -70.5t25.5 -210.5zM266 84q53 0 96.5 66.5t63.5 187.5l14 88q9 66 -14 107.5t-70 41.5q-82 0 -108 -149l-29 -190q-12 -78 -1 -115t48 -37z" />
    <glyph glyph-name="aacute" unicode="&#xe1;" horiz-adv-x="555" 
d="M510 1188h-92l117 280h108zM506 0h-111l17 170h-6q-38 -92 -95 -146.5t-121 -54.5q-69 0 -97 73.5t-7 211.5l25 156q47 280 204 280q58 0 93.5 -37.5t44.5 -105.5h6l51 323q12 80 -4.5 116t-65.5 36q-48 0 -75 -35.5t-39 -114.5l-17 -102h-135l14 86q47 281 271 281
q111 0 158.5 -70.5t25.5 -210.5zM266 84q53 0 96.5 66.5t63.5 187.5l14 88q9 66 -14 107.5t-70 41.5q-82 0 -108 -149l-29 -190q-12 -78 -1 -115t48 -37z" />
    <glyph glyph-name="acircumflex" unicode="&#xe2;" horiz-adv-x="555" 
d="M410 1188h-86l131 280h114l43 -280h-86l-22 209h-6zM506 0h-111l17 170h-6q-38 -92 -95 -146.5t-121 -54.5q-69 0 -97 73.5t-7 211.5l25 156q47 280 204 280q58 0 93.5 -37.5t44.5 -105.5h6l51 323q12 80 -4.5 116t-65.5 36q-48 0 -75 -35.5t-39 -114.5l-17 -102h-135
l14 86q47 281 271 281q111 0 158.5 -70.5t25.5 -210.5zM266 84q53 0 96.5 66.5t63.5 187.5l14 88q9 66 -14 107.5t-70 41.5q-82 0 -108 -149l-29 -190q-12 -78 -1 -115t48 -37z" />
    <glyph glyph-name="atilde" unicode="&#xe3;" horiz-adv-x="555" 
d="M688 1462l-10 -69q-35 -205 -129 -205q-58 0 -84 96l-4 14q-22 66 -49 66q-44 0 -58 -107l-10 -63h-57l10 63q35 211 129 211q27 0 46 -21.5t34 -66.5l2 -14q23 -74 57 -74q43 0 58 101l10 69h55zM506 0h-111l17 170h-6q-38 -92 -95 -146.5t-121 -54.5q-69 0 -97 73.5
t-7 211.5l25 156q47 280 204 280q58 0 93.5 -37.5t44.5 -105.5h6l51 323q12 80 -4.5 116t-65.5 36q-48 0 -75 -35.5t-39 -114.5l-17 -102h-135l14 86q47 281 271 281q111 0 158.5 -70.5t25.5 -210.5zM266 84q53 0 96.5 66.5t63.5 187.5l14 88q9 66 -14 107.5t-70 41.5
q-82 0 -108 -149l-29 -190q-12 -78 -1 -115t48 -37z" />
    <glyph glyph-name="adieresis" unicode="&#xe4;" horiz-adv-x="555" 
d="M391 1253l25 150h166l-25 -150h-166zM506 0h-111l17 170h-6q-38 -92 -95 -146.5t-121 -54.5q-69 0 -97 73.5t-7 211.5l25 156q47 280 204 280q58 0 93.5 -37.5t44.5 -105.5h6l51 323q12 80 -4.5 116t-65.5 36q-48 0 -75 -35.5t-39 -114.5l-17 -102h-135l14 86
q47 281 271 281q111 0 158.5 -70.5t25.5 -210.5zM266 84q53 0 96.5 66.5t63.5 187.5l14 88q9 66 -14 107.5t-70 41.5q-82 0 -108 -149l-29 -190q-12 -78 -1 -115t48 -37z" />
    <glyph glyph-name="aring" unicode="&#xe5;" horiz-adv-x="555" 
d="M356 1303q2 71 44.5 117t111.5 46q54 0 84.5 -29.5t30.5 -86.5q-2 -69 -45.5 -114.5t-114.5 -45.5q-53 0 -82 29t-29 84zM420 1311q0 -64 57 -64q36 0 61 29.5t25 69.5q0 63 -59 63q-38 0 -62 -28t-22 -70zM506 0h-111l17 170h-6q-38 -92 -95 -146.5t-121 -54.5
q-69 0 -97 73.5t-7 211.5l25 156q47 280 204 280q58 0 93.5 -37.5t44.5 -105.5h6l51 323q12 80 -4.5 116t-65.5 36q-48 0 -75 -35.5t-39 -114.5l-17 -102h-135l14 86q47 281 271 281q111 0 158.5 -70.5t25.5 -210.5zM266 84q53 0 96.5 66.5t63.5 187.5l14 88q9 66 -14 107.5
t-70 41.5q-82 0 -108 -149l-29 -190q-12 -78 -1 -115t48 -37z" />
    <glyph glyph-name="ae" unicode="&#xe6;" horiz-adv-x="872" 
d="M111 410q47 280 204 280q58 0 95.5 -37.5t48.5 -105.5l51 323q12 80 -3.5 116t-64.5 36q-48 0 -76 -35.5t-40 -114.5l-17 -102h-135l14 86q47 281 271 281q58 0 93.5 -23t49.5 -78h4q57 101 174 101q111 0 157.5 -71t23.5 -210l-52 -324h-317l-47 -296q-14 -79 1 -115.5
t64 -36.5q48 0 77 36.5t42 115.5l27 178h135l-25 -160q-23 -142 -91.5 -213.5t-178.5 -71.5q-185 0 -182 203h-4q-37 -92 -96.5 -147.5t-123.5 -55.5q-69 0 -97 73.5t-7 211.5zM829 872q12 81 -2 115.5t-63 34.5q-50 0 -78.5 -36t-40.5 -114l-39 -241h185zM266 84
q53 0 96.5 66.5t63.5 187.5l14 88q9 66 -15 107.5t-71 41.5q-80 0 -106 -149l-29 -190q-12 -78 -1 -115t48 -37z" />
    <glyph glyph-name="ccedilla" unicode="&#xe7;" 
d="M504 872q12 81 -2.5 115.5t-63.5 34.5q-50 0 -78.5 -36t-40.5 -114l-100 -636q-12 -80 2.5 -116t63.5 -36q95 0 118 152l27 178h135l-24 -160q-43 -262 -238 -283l-16 -61q78 0 120 -37.5t33 -99.5q-11 -65 -72.5 -108.5t-144.5 -43.5q-41 0 -106 14l12 72q25 -10 64 -10
q49 0 87 25t44 59q6 38 -28.5 58t-98.5 20l34 112q-185 24 -145 283l96 602q23 140 92.5 210.5t180.5 70.5t157 -71t23 -210l-25 -160h-135z" />
    <glyph glyph-name="egrave" unicode="&#xe8;" 
d="M494 1188h-93l-133 280h109zM430 414h135l-24 -160q-23 -141 -92 -213t-179 -72q-111 0 -158.5 72t-25.5 213l96 602q23 140 92.5 210.5t180.5 70.5t157 -71t23 -210l-51 -324h-318l-47 -296q-12 -80 2.5 -116t63.5 -36q95 0 118 152zM504 872q12 81 -2.5 115.5
t-63.5 34.5q-50 0 -78.5 -36t-40.5 -114l-38 -241h184z" />
    <glyph glyph-name="eacute" unicode="&#xe9;" 
d="M506 1188h-92l116 280h109zM430 414h135l-24 -160q-23 -141 -92 -213t-179 -72q-111 0 -158.5 72t-25.5 213l96 602q23 140 92.5 210.5t180.5 70.5t157 -71t23 -210l-51 -324h-318l-47 -296q-12 -80 2.5 -116t63.5 -36q95 0 118 152zM504 872q12 81 -2.5 115.5
t-63.5 34.5q-50 0 -78.5 -36t-40.5 -114l-38 -241h184z" />
    <glyph glyph-name="ecircumflex" unicode="&#xea;" 
d="M406 1188h-87l132 280h114l43 -280h-86l-22 209h-6zM430 414h135l-24 -160q-23 -141 -92 -213t-179 -72q-111 0 -158.5 72t-25.5 213l96 602q23 140 92.5 210.5t180.5 70.5t157 -71t23 -210l-51 -324h-318l-47 -296q-12 -80 2.5 -116t63.5 -36q95 0 118 152zM504 872
q12 81 -2.5 115.5t-63.5 34.5q-50 0 -78.5 -36t-40.5 -114l-38 -241h184z" />
    <glyph glyph-name="edieresis" unicode="&#xeb;" 
d="M387 1253l25 150h163l-24 -150h-164zM430 414h135l-24 -160q-23 -141 -92 -213t-179 -72q-111 0 -158.5 72t-25.5 213l96 602q23 140 92.5 210.5t180.5 70.5t157 -71t23 -210l-51 -324h-318l-47 -296q-12 -80 2.5 -116t63.5 -36q95 0 118 152zM504 872q12 81 -2.5 115.5
t-63.5 34.5q-50 0 -78.5 -36t-40.5 -114l-38 -241h184z" />
    <glyph glyph-name="igrave" unicode="&#xec;" horiz-adv-x="243" 
d="M342 1188h-92l-133 280h108zM55 0l174 1106h136l-177 -1106h-133z" />
    <glyph glyph-name="iacute" unicode="&#xed;" horiz-adv-x="243" 
d="M354 1188h-92l117 280h108zM55 0l174 1106h136l-177 -1106h-133z" />
    <glyph glyph-name="icircumflex" unicode="&#xee;" horiz-adv-x="243" 
d="M254 1188h-86l131 280h115l43 -280h-86l-23 209h-6zM55 0l174 1106h136l-177 -1106h-133z" />
    <glyph glyph-name="idieresis" unicode="&#xef;" horiz-adv-x="243" 
d="M236 1253l24 150h164l-25 -150h-163zM55 0l174 1106h136l-177 -1106h-133z" />
    <glyph glyph-name="eth" unicode="&#xf0;" 
d="M365 1536q124 -46 196 -121l101 62l22 -45l-92 -58q54 -81 64 -208t-21 -320l-94 -592q-22 -141 -91 -213t-180 -72t-158 72t-24 213l94 602q46 281 219 281q100 0 123 -95l6 2q15 178 -26 277l-109 -68l-24 45l108 68q-43 68 -143 121zM506 872q12 80 -3.5 115t-62.5 35
q-49 0 -77.5 -36t-40.5 -114l-103 -636q-12 -79 3.5 -115.5t62.5 -36.5q49 0 78 37t43 117z" />
    <glyph glyph-name="ntilde" unicode="&#xf1;" horiz-adv-x="563" 
d="M702 1462l-10 -69q-35 -205 -129 -205q-58 0 -84 96l-4 14q-22 66 -49 66q-43 0 -57 -107l-11 -63h-57l10 63q35 211 129 211q27 0 46 -21.5t34 -66.5l2 -14q23 -74 58 -74q42 0 57 101l10 69h55zM508 0h-135l137 870q26 152 -53 152q-48 0 -86 -49t-52 -142l-131 -831
h-135l176 1106h111l-6 -121h6q34 73 82.5 112.5t105.5 39.5q75 0 105.5 -72t9.5 -211z" />
    <glyph glyph-name="ograve" unicode="&#xf2;" 
d="M496 1188h-93l-133 280h109zM635 856l-94 -602q-23 -141 -92 -213t-179 -72q-111 0 -158.5 72t-25.5 213l96 602q23 140 92.5 210.5t180.5 70.5t157 -71t23 -210zM504 872q12 81 -2.5 115.5t-63.5 34.5q-50 0 -78.5 -36t-40.5 -114l-100 -636q-12 -80 2.5 -116t63.5 -36
q95 0 118 152z" />
    <glyph glyph-name="oacute" unicode="&#xf3;" 
d="M508 1188h-92l116 280h109zM635 856l-94 -602q-23 -141 -92 -213t-179 -72q-111 0 -158.5 72t-25.5 213l96 602q23 140 92.5 210.5t180.5 70.5t157 -71t23 -210zM504 872q12 81 -2.5 115.5t-63.5 34.5q-50 0 -78.5 -36t-40.5 -114l-100 -636q-12 -80 2.5 -116t63.5 -36
q95 0 118 152z" />
    <glyph glyph-name="ocircumflex" unicode="&#xf4;" 
d="M408 1188h-86l131 280h114l43 -280h-86l-22 209h-6zM635 856l-94 -602q-23 -141 -92 -213t-179 -72q-111 0 -158.5 72t-25.5 213l96 602q23 140 92.5 210.5t180.5 70.5t157 -71t23 -210zM504 872q12 81 -2.5 115.5t-63.5 34.5q-50 0 -78.5 -36t-40.5 -114l-100 -636
q-12 -80 2.5 -116t63.5 -36q95 0 118 152z" />
    <glyph glyph-name="otilde" unicode="&#xf5;" 
d="M686 1462l-10 -69q-35 -205 -129 -205q-58 0 -84 96l-4 14q-22 66 -49 66q-44 0 -58 -107l-10 -63h-57l10 63q35 211 129 211q27 0 46 -21.5t34 -66.5l2 -14q23 -74 57 -74q43 0 58 101l10 69h55zM635 856l-94 -602q-23 -141 -92 -213t-179 -72q-111 0 -158.5 72
t-25.5 213l96 602q23 140 92.5 210.5t180.5 70.5t157 -71t23 -210zM504 872q12 81 -2.5 115.5t-63.5 34.5q-50 0 -78.5 -36t-40.5 -114l-100 -636q-12 -80 2.5 -116t63.5 -36q95 0 118 152z" />
    <glyph glyph-name="odieresis" unicode="&#xf6;" 
d="M389 1253l25 150h164l-25 -150h-164zM635 856l-94 -602q-23 -141 -92 -213t-179 -72q-111 0 -158.5 72t-25.5 213l96 602q23 140 92.5 210.5t180.5 70.5t157 -71t23 -210zM504 872q12 81 -2.5 115.5t-63.5 34.5q-50 0 -78.5 -36t-40.5 -114l-100 -636q-12 -80 2.5 -116
t63.5 -36q95 0 118 152z" />
    <glyph glyph-name="divide" unicode="&#xf7;" horiz-adv-x="829" 
d="M883 752l-23 -115h-274l-8 -47h-150l8 47h-266l20 115h265l6 47h151l-8 -47h279z" />
    <glyph glyph-name="oslash" unicode="&#xf8;" 
d="M635 856l-94 -602q-23 -141 -92 -213t-179 -72q-101 0 -149 60l-31 -60l-45 19l47 92q-21 67 -6 174l96 602q23 140 92.5 210.5t180.5 70.5q101 0 147 -58l29 58l47 -19l-47 -92q22 -67 4 -170zM240 371l266 522q9 68 -7 98.5t-61 30.5q-50 0 -78.5 -36t-40.5 -114z
M481 737l-266 -522q-8 -68 9 -99.5t61 -31.5q95 0 118 152z" />
    <glyph glyph-name="ugrave" unicode="&#xf9;" horiz-adv-x="563" 
d="M305 1188h-92l-133 280h108zM229 1106h136l-138 -870q-23 -152 56 -152q48 0 84.5 48.5t50.5 141.5l131 832h135l-176 -1106h-111l6 121h-6q-34 -73 -82.5 -112.5t-105.5 -39.5q-75 0 -105.5 73t-9.5 212z" />
    <glyph glyph-name="uacute" unicode="&#xfa;" horiz-adv-x="563" 
d="M317 1188h-92l117 280h109zM229 1106h136l-138 -870q-23 -152 56 -152q48 0 84.5 48.5t50.5 141.5l131 832h135l-176 -1106h-111l6 121h-6q-34 -73 -82.5 -112.5t-105.5 -39.5q-75 0 -105.5 73t-9.5 212z" />
    <glyph glyph-name="ucircumflex" unicode="&#xfb;" horiz-adv-x="563" 
d="M217 1188h-86l131 280h115l43 -280h-86l-23 209h-6zM229 1106h136l-138 -870q-23 -152 56 -152q48 0 84.5 48.5t50.5 141.5l131 832h135l-176 -1106h-111l6 121h-6q-34 -73 -82.5 -112.5t-105.5 -39.5q-75 0 -105.5 73t-9.5 212z" />
    <glyph glyph-name="udieresis" unicode="&#xfc;" horiz-adv-x="563" 
d="M197 1253l24 150h166l-25 -150h-165zM229 1106h136l-138 -870q-23 -152 56 -152q48 0 84.5 48.5t50.5 141.5l131 832h135l-176 -1106h-111l6 121h-6q-34 -73 -82.5 -112.5t-105.5 -39.5q-75 0 -105.5 73t-9.5 212z" />
    <glyph glyph-name="yacute" unicode="&#xfd;" horiz-adv-x="536" 
d="M500 1188h-92l116 280h109zM328 -80q-15 -49 -26.5 -79t-29.5 -59t-39 -44t-54 -27t-75.5 -16t-103.5 -4l18 116q51 0 76 4.5t44 27t27 53t21 100.5l13 1114h141l-31 -772l-12 -127h8l29 127l213 772h141l-338 -1106z" />
    <glyph glyph-name="thorn" unicode="&#xfe;" horiz-adv-x="555" 
d="M547 252q-22 -140 -73.5 -211.5t-127.5 -71.5q-56 0 -90 38.5t-43 111.5h-6l-86 -549h-135l311 1966h135l-84 -535h6q66 136 174 136q75 0 106.5 -72.5t8.5 -210.5zM305 84q82 0 105 149l102 637q12 79 -1 115.5t-54 36.5q-47 0 -84 -49t-51 -142l-91 -559
q-15 -92 6 -140t68 -48z" />
    <glyph glyph-name="ydieresis" unicode="&#xff;" horiz-adv-x="536" 
d="M381 1253l25 150h165l-24 -150h-166zM328 -80q-15 -49 -26.5 -79t-29.5 -59t-39 -44t-54 -27t-75.5 -16t-103.5 -4l18 116q51 0 76 4.5t44 27t27 53t21 100.5l13 1114h141l-31 -772l-12 -127h8l29 127l213 772h141l-338 -1106z" />
    <glyph glyph-name="Amacron" unicode="&#x100;" horiz-adv-x="555" 
d="M729 1706l-16 -100h-369l16 100h369zM594 1434l-66 -1434h-141l25 362h-154l-90 -362h-141l389 1434h178zM287 477h133l41 596l14 146h-8l-31 -146z" />
    <glyph glyph-name="amacron" unicode="&#x101;" horiz-adv-x="555" 
d="M680 1378l-16 -100h-369l16 100h369zM506 0h-111l17 170h-6q-38 -92 -95 -146.5t-121 -54.5q-69 0 -97 73.5t-7 211.5l25 156q47 280 204 280q58 0 93.5 -37.5t44.5 -105.5h6l51 323q12 80 -4.5 116t-65.5 36q-48 0 -75 -35.5t-39 -114.5l-17 -102h-135l14 86
q47 281 271 281q111 0 158.5 -70.5t25.5 -210.5zM266 84q53 0 96.5 66.5t63.5 187.5l14 88q9 66 -14 107.5t-70 41.5q-82 0 -108 -149l-29 -190q-12 -78 -1 -115t48 -37z" />
    <glyph glyph-name="Abreve" unicode="&#x102;" horiz-adv-x="555" 
d="M373 1796h88q-30 -180 71 -180t127 180h89q-23 -138 -78.5 -209t-153.5 -71t-131 70.5t-12 209.5zM594 1434l-66 -1434h-141l25 362h-154l-90 -362h-141l389 1434h178zM287 477h133l41 596l14 146h-8l-31 -146z" />
    <glyph glyph-name="abreve" unicode="&#x103;" horiz-adv-x="555" 
d="M324 1468h88q-30 -180 71 -180t127 180h88q-23 -139 -78 -209.5t-153 -70.5t-131 70.5t-12 209.5zM506 0h-111l17 170h-6q-38 -92 -95 -146.5t-121 -54.5q-69 0 -97 73.5t-7 211.5l25 156q47 280 204 280q58 0 93.5 -37.5t44.5 -105.5h6l51 323q12 80 -4.5 116t-65.5 36
q-48 0 -75 -35.5t-39 -114.5l-17 -102h-135l14 86q47 281 271 281q111 0 158.5 -70.5t25.5 -210.5zM266 84q53 0 96.5 66.5t63.5 187.5l14 88q9 66 -14 107.5t-70 41.5q-82 0 -108 -149l-29 -190q-12 -78 -1 -115t48 -37z" />
    <glyph glyph-name="Aogonek" unicode="&#x104;" horiz-adv-x="555" 
d="M594 1434l-66 -1434h-2q-74 -4 -126.5 -45t-61.5 -96q-6 -42 17.5 -68.5t68.5 -26.5q28 0 84 17l-14 -88q-68 -21 -121 -21q-82 0 -122.5 40t-29.5 104q9 62 61.5 111.5t137.5 72.5h-33l25 362h-154l-90 -362h-141l389 1434h178zM287 477h133l41 596l14 146h-8l-31 -146z
" />
    <glyph glyph-name="aogonek" unicode="&#x105;" horiz-adv-x="555" 
d="M506 0q-74 -4 -127 -45t-62 -96q-6 -42 17.5 -68.5t68.5 -26.5q28 0 84 17l-14 -88q-67 -21 -121 -21q-82 0 -122 40t-29 104q9 63 61 112t137 72h-4l17 170h-6q-38 -92 -95 -146.5t-121 -54.5q-69 0 -97 73.5t-7 211.5l25 156q47 280 204 280q58 0 93.5 -37.5
t44.5 -105.5h6l51 323q12 80 -4.5 116t-65.5 36q-48 0 -75 -35.5t-39 -114.5l-17 -102h-135l14 86q47 281 271 281q111 0 158.5 -70.5t25.5 -210.5zM266 84q53 0 96.5 66.5t63.5 187.5l14 88q9 66 -14 107.5t-70 41.5q-82 0 -108 -149l-29 -190q-12 -78 -1 -115t48 -37z" />
    <glyph glyph-name="Cacute" unicode="&#x106;" horiz-adv-x="585" 
d="M578 1516h-93l117 280h109zM580 1200q12 77 -4.5 113.5t-65.5 36.5q-101 0 -125 -150l-152 -964q-12 -79 4.5 -115.5t65.5 -36.5q102 0 125 152l43 270h141l-41 -252q-23 -143 -95.5 -214t-186.5 -71q-115 0 -165.5 71.5t-29.5 213.5l148 930q23 140 95.5 210t186.5 70
q116 0 167 -70t28 -210l-41 -254h-141z" />
    <glyph glyph-name="cacute" unicode="&#x107;" 
d="M504 1188h-92l116 280h109zM504 872q12 81 -2.5 115.5t-63.5 34.5q-50 0 -78.5 -36t-40.5 -114l-100 -636q-12 -80 2.5 -116t63.5 -36q95 0 118 152l27 178h135l-24 -160q-23 -141 -92 -213t-179 -72q-111 0 -158.5 72t-25.5 213l96 602q23 140 92.5 210.5t180.5 70.5
t157 -71t23 -210l-25 -160h-135z" />
    <glyph glyph-name="Ccircumflex" unicode="&#x108;" horiz-adv-x="585" 
d="M477 1516h-86l131 280h115l43 -280h-86l-23 208h-6zM580 1200q12 77 -4.5 113.5t-65.5 36.5q-101 0 -125 -150l-152 -964q-12 -79 4.5 -115.5t65.5 -36.5q102 0 125 152l43 270h141l-41 -252q-23 -143 -95.5 -214t-186.5 -71q-115 0 -165.5 71.5t-29.5 213.5l148 930
q23 140 95.5 210t186.5 70q116 0 167 -70t28 -210l-41 -254h-141z" />
    <glyph glyph-name="ccircumflex" unicode="&#x109;" 
d="M403 1188h-86l132 280h114l43 -280h-86l-22 209h-6zM504 872q12 81 -2.5 115.5t-63.5 34.5q-50 0 -78.5 -36t-40.5 -114l-100 -636q-12 -80 2.5 -116t63.5 -36q95 0 118 152l27 178h135l-24 -160q-23 -141 -92 -213t-179 -72q-111 0 -158.5 72t-25.5 213l96 602
q23 140 92.5 210.5t180.5 70.5t157 -71t23 -210l-25 -160h-135z" />
    <glyph glyph-name="Cdotaccent" unicode="&#x10a;" horiz-adv-x="585" 
d="M475 1581l23 150h139l-23 -150h-139zM580 1200q12 77 -4.5 113.5t-65.5 36.5q-101 0 -125 -150l-152 -964q-12 -79 4.5 -115.5t65.5 -36.5q102 0 125 152l43 270h141l-41 -252q-23 -143 -95.5 -214t-186.5 -71q-115 0 -165.5 71.5t-29.5 213.5l148 930q23 140 95.5 210
t186.5 70q116 0 167 -70t28 -210l-41 -254h-141z" />
    <glyph glyph-name="cdotaccent" unicode="&#x10b;" 
d="M401 1253l23 150h139l-22 -150h-140zM504 872q12 81 -2.5 115.5t-63.5 34.5q-50 0 -78.5 -36t-40.5 -114l-100 -636q-12 -80 2.5 -116t63.5 -36q95 0 118 152l27 178h135l-24 -160q-23 -141 -92 -213t-179 -72q-111 0 -158.5 72t-25.5 213l96 602q23 140 92.5 210.5
t180.5 70.5t157 -71t23 -210l-25 -160h-135z" />
    <glyph glyph-name="Ccaron" unicode="&#x10c;" horiz-adv-x="585" 
d="M633 1796h86l-131 -280h-115l-43 280h86l23 -209h6zM580 1200q12 77 -4.5 113.5t-65.5 36.5q-101 0 -125 -150l-152 -964q-12 -79 4.5 -115.5t65.5 -36.5q102 0 125 152l43 270h141l-41 -252q-23 -143 -95.5 -214t-186.5 -71q-115 0 -165.5 71.5t-29.5 213.5l148 930
q23 140 95.5 210t186.5 70q116 0 167 -70t28 -210l-41 -254h-141z" />
    <glyph glyph-name="ccaron" unicode="&#x10d;" 
d="M559 1468h86l-131 -280h-115l-43 280h86l23 -208h6zM504 872q12 81 -2.5 115.5t-63.5 34.5q-50 0 -78.5 -36t-40.5 -114l-100 -636q-12 -80 2.5 -116t63.5 -36q95 0 118 152l27 178h135l-24 -160q-23 -141 -92 -213t-179 -72q-111 0 -158.5 72t-25.5 213l96 602
q23 140 92.5 210.5t180.5 70.5t157 -71t23 -210l-25 -160h-135z" />
    <glyph glyph-name="Dcaron" unicode="&#x10e;" horiz-adv-x="591" 
d="M602 1796h86l-131 -280h-115l-43 280h86l23 -209h6zM719 1153l-137 -868q-23 -142 -102 -213.5t-206 -71.5h-215l228 1434h213q127 0 184.5 -70.5t34.5 -210.5zM582 1169q12 78 -11.5 114t-87.5 36h-73l-191 -1204h70q126 0 149 151z" />
    <glyph glyph-name="dcaron" unicode="&#x10f;" horiz-adv-x="555" 
d="M721 1174l84 362h100l-123 -362h-61zM182 856q47 281 203 281q56 0 90 -38.5t43 -111.5h4l88 549h135l-243 -1536h-113l6 121h-4q-34 -73 -83 -112.5t-105 -39.5q-76 0 -107 73t-8 212zM274 84q47 0 84.5 48.5t51.5 141.5l90 560q13 93 -7 140.5t-67 47.5
q-81 0 -104 -150l-103 -636q-12 -79 1 -115.5t54 -36.5z" />
    <glyph glyph-name="Dcroat" unicode="&#x110;" horiz-adv-x="591" 
d="M719 1153l-137 -868q-23 -142 -102 -213.5t-206 -71.5h-215l107 666h-62l17 98h59l107 670h213q127 0 184.5 -70.5t34.5 -210.5zM582 1169q12 78 -11.5 114t-87.5 36h-73l-88 -555h90l-15 -98h-90l-88 -551h70q126 0 149 151z" />
    <glyph glyph-name="dcroat" unicode="&#x111;" horiz-adv-x="555" 
d="M182 856q47 281 203 281q56 0 90 -38.5t43 -111.5h4l41 250h-127l15 98h127l32 201h135l-32 -201h61l-16 -98h-60l-196 -1237h-113l6 121h-4q-34 -73 -83 -112.5t-105 -39.5q-76 0 -107 73t-8 212zM274 84q47 0 84.5 48.5t51.5 141.5l90 560q13 93 -7 140.5t-67 47.5
q-81 0 -104 -150l-103 -636q-12 -79 1 -115.5t54 -36.5z" />
    <glyph glyph-name="Emacron" unicode="&#x112;" horiz-adv-x="440" 
d="M676 1706l-17 -100h-368l16 100h369zM618 1434l-18 -115h-190l-86 -547h178l-19 -115h-178l-86 -542h209l-18 -115h-351l228 1434h331z" />
    <glyph glyph-name="emacron" unicode="&#x113;" 
d="M676 1378l-17 -100h-368l16 100h369zM430 414h135l-24 -160q-23 -141 -92 -213t-179 -72q-111 0 -158.5 72t-25.5 213l96 602q23 140 92.5 210.5t180.5 70.5t157 -71t23 -210l-51 -324h-318l-47 -296q-12 -80 2.5 -116t63.5 -36q95 0 118 152zM504 872q12 81 -2.5 115.5
t-63.5 34.5q-50 0 -78.5 -36t-40.5 -114l-38 -241h184z" />
    <glyph glyph-name="Ebreve" unicode="&#x114;" horiz-adv-x="440" 
d="M322 1796h88q-30 -180 71 -180t127 180h88q-23 -139 -78 -209.5t-153 -70.5t-131 70.5t-12 209.5zM618 1434l-18 -115h-190l-86 -547h178l-19 -115h-178l-86 -542h209l-18 -115h-351l228 1434h331z" />
    <glyph glyph-name="ebreve" unicode="&#x115;" 
d="M319 1468h89q-30 -180 71 -180t127 180h88q-23 -139 -78 -209.5t-153 -70.5t-131.5 71t-12.5 209zM430 414h135l-24 -160q-23 -141 -92 -213t-179 -72q-111 0 -158.5 72t-25.5 213l96 602q23 140 92.5 210.5t180.5 70.5t157 -71t23 -210l-51 -324h-318l-47 -296
q-12 -80 2.5 -116t63.5 -36q95 0 118 152zM504 872q12 81 -2.5 115.5t-63.5 34.5q-50 0 -78.5 -36t-40.5 -114l-38 -241h184z" />
    <glyph glyph-name="Edotaccent" unicode="&#x116;" horiz-adv-x="440" 
d="M403 1581l23 150h139l-22 -150h-140zM618 1434l-18 -115h-190l-86 -547h178l-19 -115h-178l-86 -542h209l-18 -115h-351l228 1434h331z" />
    <glyph glyph-name="edotaccent" unicode="&#x117;" 
d="M403 1253l23 150h139l-22 -150h-140zM430 414h135l-24 -160q-23 -141 -92 -213t-179 -72q-111 0 -158.5 72t-25.5 213l96 602q23 140 92.5 210.5t180.5 70.5t157 -71t23 -210l-51 -324h-318l-47 -296q-12 -80 2.5 -116t63.5 -36q95 0 118 152zM504 872q12 81 -2.5 115.5
t-63.5 34.5q-50 0 -78.5 -36t-40.5 -114l-38 -241h184z" />
    <glyph glyph-name="Eogonek" unicode="&#x118;" horiz-adv-x="440" 
d="M618 1434l-18 -115h-190l-86 -547h178l-19 -115h-178l-86 -542h209l-18 -115h-2q-74 -4 -127 -45t-62 -96q-6 -42 17.5 -68.5t68.5 -26.5q28 0 84 17l-14 -88q-67 -21 -121 -21q-82 0 -122.5 40t-29.5 104q9 62 61.5 111.5t137.5 72.5h-242l228 1434h331z" />
    <glyph glyph-name="eogonek" unicode="&#x119;" 
d="M414 -219l-15 -88q-67 -21 -120 -21q-74 0 -115 33.5t-41 89.5q0 110 131 174q-104 5 -147 76.5t-21 208.5l96 602q23 140 92.5 210.5t180.5 70.5t157 -71t23 -210l-51 -324h-318l-47 -296q-12 -80 2.5 -116t63.5 -36q95 0 118 152l27 178h135l-24 -160
q-40 -239 -205 -277q-92 -52 -92 -131q-1 -38 23 -60t63 -22q28 0 84 17zM504 872q12 81 -2.5 115.5t-63.5 34.5q-50 0 -78.5 -36t-40.5 -114l-38 -241h184z" />
    <glyph glyph-name="Ecaron" unicode="&#x11a;" horiz-adv-x="440" 
d="M563 1796h86l-131 -280h-115l-43 280h86l23 -209h6zM618 1434l-18 -115h-190l-86 -547h178l-19 -115h-178l-86 -542h209l-18 -115h-351l228 1434h331z" />
    <glyph glyph-name="ecaron" unicode="&#x11b;" 
d="M561 1468h86l-131 -280h-115l-43 280h86l23 -208h6zM430 414h135l-24 -160q-23 -141 -92 -213t-179 -72q-111 0 -158.5 72t-25.5 213l96 602q23 140 92.5 210.5t180.5 70.5t157 -71t23 -210l-51 -324h-318l-47 -296q-12 -80 2.5 -116t63.5 -36q95 0 118 152zM504 872
q12 81 -2.5 115.5t-63.5 34.5q-50 0 -78.5 -36t-40.5 -114l-38 -241h184z" />
    <glyph glyph-name="Gcircumflex" unicode="&#x11c;" horiz-adv-x="585" 
d="M477 1516h-86l131 280h115l43 -280h-86l-23 208h-6zM580 1200q14 80 -2.5 115t-67.5 35q-53 0 -82.5 -35.5t-42.5 -114.5l-152 -964q-23 -152 64 -152q53 0 89.5 45.5t49.5 132.5l56 354h-125l18 115h262l-117 -731h-127l13 121h-4q-24 -68 -74.5 -110t-116.5 -42
q-171 0 -127 285l148 930q23 140 95.5 210t186.5 70q116 0 167 -70t28 -210l-41 -254h-141z" />
    <glyph glyph-name="gcircumflex" unicode="&#x11d;" 
d="M432 1331h-86l131 281h115l43 -281h-86l-23 209h-6zM637 856l-74 -459q-44 -284 -270 -284h-57q-57 0 -64 -52q-9 -47 47 -47h107q81 0 122 -42.5t29 -118.5q-12 -83 -76.5 -127.5t-171.5 -44.5h-24q-96 0 -147 36.5t-40 96.5q12 81 140 98l2 4q-55 4 -82 33t-19 74
q6 43 41 73.5t88 36.5v4q-111 56 -77 260l71 459q20 127 80 198.5t154 80.5q42 4 60.5 19t23.5 44l12 80h119l-10 -53q-7 -43 -30.5 -65t-82.5 -25v-5q166 -30 129 -274zM504 872q12 80 -3.5 115t-64.5 35t-77 -36t-40 -114l-77 -493q-12 -78 4 -115t63 -37q49 0 77 36
t40 116zM233 -86q-84 0 -94 -66q-6 -32 13 -49.5t61 -17.5h59q86 0 95 65q5 32 -14.5 50t-59.5 18h-60z" />
    <glyph glyph-name="Gbreve" unicode="&#x11e;" horiz-adv-x="585" 
d="M391 1796h88q-30 -180 72 -180q101 0 127 180h88q-23 -139 -78 -209.5t-153 -70.5t-131.5 71t-12.5 209zM580 1200q14 80 -2.5 115t-67.5 35q-53 0 -82.5 -35.5t-42.5 -114.5l-152 -964q-23 -152 64 -152q53 0 89.5 45.5t49.5 132.5l56 354h-125l18 115h262l-117 -731
h-127l13 121h-4q-24 -68 -74.5 -110t-116.5 -42q-171 0 -127 285l148 930q23 140 95.5 210t186.5 70q116 0 167 -70t28 -210l-41 -254h-141z" />
    <glyph glyph-name="gbreve" unicode="&#x11f;" 
d="M346 1612h88q-30 -180 72 -180q101 0 127 180h88q-23 -139 -78.5 -210t-153.5 -71t-131 71t-12 210zM637 856l-74 -459q-44 -284 -270 -284h-57q-57 0 -64 -52q-9 -47 47 -47h107q81 0 122 -42.5t29 -118.5q-12 -83 -76.5 -127.5t-171.5 -44.5h-24q-96 0 -147 36.5
t-40 96.5q12 81 140 98l2 4q-55 4 -82 33t-19 74q6 43 41 73.5t88 36.5v4q-111 56 -77 260l71 459q20 127 80 198.5t154 80.5q42 4 60.5 19t23.5 44l12 80h119l-10 -53q-7 -43 -30.5 -65t-82.5 -25v-5q166 -30 129 -274zM504 872q12 80 -3.5 115t-64.5 35t-77 -36t-40 -114
l-77 -493q-12 -78 4 -115t63 -37q49 0 77 36t40 116zM233 -86q-84 0 -94 -66q-6 -32 13 -49.5t61 -17.5h59q86 0 95 65q5 32 -14.5 50t-59.5 18h-60z" />
    <glyph glyph-name="Gdotaccent" unicode="&#x120;" horiz-adv-x="585" 
d="M475 1581l23 150h139l-23 -150h-139zM580 1200q14 80 -2.5 115t-67.5 35q-53 0 -82.5 -35.5t-42.5 -114.5l-152 -964q-23 -152 64 -152q53 0 89.5 45.5t49.5 132.5l56 354h-125l18 115h262l-117 -731h-127l13 121h-4q-24 -68 -74.5 -110t-116.5 -42q-171 0 -127 285
l148 930q23 140 95.5 210t186.5 70q116 0 167 -70t28 -210l-41 -254h-141z" />
    <glyph glyph-name="gdotaccent" unicode="&#x121;" 
d="M430 1397l23 149h139l-23 -149h-139zM637 856l-74 -459q-44 -284 -270 -284h-57q-57 0 -64 -52q-9 -47 47 -47h107q81 0 122 -42.5t29 -118.5q-12 -83 -76.5 -127.5t-171.5 -44.5h-24q-96 0 -147 36.5t-40 96.5q12 81 140 98l2 4q-55 4 -82 33t-19 74q6 43 41 73.5
t88 36.5v4q-111 56 -77 260l71 459q20 127 80 198.5t154 80.5q42 4 60.5 19t23.5 44l12 80h119l-10 -53q-7 -43 -30.5 -65t-82.5 -25v-5q166 -30 129 -274zM504 872q12 80 -3.5 115t-64.5 35t-77 -36t-40 -114l-77 -493q-12 -78 4 -115t63 -37q49 0 77 36t40 116zM233 -86
q-84 0 -94 -66q-6 -32 13 -49.5t61 -17.5h59q86 0 95 65q5 32 -14.5 50t-59.5 18h-60z" />
    <glyph glyph-name="uni0122" unicode="&#x122;" horiz-adv-x="585" 
d="M580 1200q14 80 -2.5 115t-67.5 35q-53 0 -82.5 -35.5t-42.5 -114.5l-152 -964q-23 -152 64 -152q53 0 89.5 45.5t49.5 132.5l56 354h-125l18 115h262l-117 -731h-127l13 121h-4q-24 -68 -74.5 -110t-116.5 -42q-171 0 -127 285l148 930q23 140 95.5 210t186.5 70
q116 0 167 -70t28 -210l-41 -254h-141zM354 -66l-26 -163q-18 -121 -140 -121l9 55q30 0 45.5 17t21.5 53l4 30h-55l20 129h121z" />
    <glyph glyph-name="uni0123" unicode="&#x123;" 
d="M406 1321l28 172q18 131 154 131l-10 -61q-63 0 -72 -74l-6 -29h61l-22 -139h-133zM637 856l-74 -459q-44 -284 -270 -284h-57q-57 0 -64 -52q-9 -47 47 -47h107q81 0 122 -42.5t29 -118.5q-12 -83 -76.5 -127.5t-171.5 -44.5h-24q-96 0 -147 36.5t-40 96.5q12 81 140 98
l2 4q-55 4 -82 33t-19 74q6 43 41 73.5t88 36.5v4q-111 56 -77 260l71 459q20 127 80 198.5t154 80.5q42 4 60.5 19t23.5 44l12 80h119l-10 -53q-7 -43 -30.5 -65t-82.5 -25v-5q166 -30 129 -274zM504 872q12 80 -3.5 115t-64.5 35t-77 -36t-40 -114l-77 -493
q-12 -78 4 -115t63 -37q49 0 77 36t40 116zM233 -86q-84 0 -94 -66q-6 -32 13 -49.5t61 -17.5h59q86 0 95 65q5 32 -14.5 50t-59.5 18h-60z" />
    <glyph glyph-name="Hcircumflex" unicode="&#x124;" horiz-adv-x="583" 
d="M477 1516h-86l131 280h115l43 -280h-86l-23 208h-6zM750 1434l-226 -1434h-141l104 657h-182l-104 -657h-142l228 1434h141l-104 -662h182l104 662h140z" />
    <glyph glyph-name="hcircumflex" unicode="&#x125;" horiz-adv-x="563" 
d="M317 1597h-86l131 281h115l43 -281h-86l-22 209h-6zM508 0h-133l137 870q12 78 -0.5 115t-52.5 37q-48 0 -85.5 -49t-51.5 -142l-132 -831h-135l244 1536h133l-84 -535h6q66 136 174 136q76 0 107 -72t8 -211z" />
    <glyph glyph-name="Hbar" unicode="&#x126;" horiz-adv-x="583" 
d="M748 1706l-17 -100h-369l17 100h369zM750 1434l-226 -1434h-141l104 657h-182l-104 -657h-142l228 1434h141l-104 -662h182l104 662h140z" />
    <glyph glyph-name="hbar" unicode="&#x127;" horiz-adv-x="563" 
d="M508 0h-133l137 870q12 78 -0.5 115t-52.5 37q-48 0 -85.5 -49t-51.5 -142l-132 -831h-135l197 1237h-64l15 98h63l33 201h133l-31 -201h125l-16 -98h-125l-37 -236h6q66 136 174 136q76 0 107 -72t8 -211z" />
    <glyph glyph-name="Itilde" unicode="&#x128;" horiz-adv-x="260" 
d="M592 1790l-10 -70q-35 -204 -129 -204q-58 0 -84 96l-4 14q-22 66 -50 66q-43 0 -57 -107l-10 -63h-58l11 63q35 211 129 211q27 0 46 -21.5t34 -66.5l2 -14q23 -74 57 -74q42 0 57 100l11 70h55zM428 1434l-227 -1434h-142l228 1434h141z" />
    <glyph glyph-name="itilde" unicode="&#x129;" horiz-adv-x="243" 
d="M532 1462l-10 -69q-35 -205 -129 -205q-58 0 -84 96l-4 14q-22 66 -49 66q-43 0 -57 -107l-11 -63h-57l10 63q35 211 129 211q27 0 46 -21.5t34 -66.5l2 -14q23 -74 58 -74q42 0 57 101l10 69h55zM55 0l174 1106h136l-177 -1106h-133z" />
    <glyph glyph-name="Imacron" unicode="&#x12a;" horiz-adv-x="260" 
d="M584 1706l-17 -100h-368l16 100h369zM428 1434l-227 -1434h-142l228 1434h141z" />
    <glyph glyph-name="imacron" unicode="&#x12b;" horiz-adv-x="243" 
d="M524 1378l-16 -100h-369l17 100h368zM55 0l174 1106h136l-177 -1106h-133z" />
    <glyph glyph-name="Ibreve" unicode="&#x12c;" horiz-adv-x="260" 
d="M227 1796h88q-30 -180 72 -180q101 0 127 180h88q-23 -139 -78 -209.5t-153 -70.5t-131.5 71t-12.5 209zM428 1434l-227 -1434h-142l228 1434h141z" />
    <glyph glyph-name="ibreve" unicode="&#x12d;" horiz-adv-x="243" 
d="M168 1468h88q-30 -180 72 -180q101 0 127 180h88q-23 -138 -78.5 -209t-153.5 -71t-131 70.5t-12 209.5zM55 0l174 1106h136l-177 -1106h-133z" />
    <glyph glyph-name="Iogonek" unicode="&#x12e;" horiz-adv-x="260" 
d="M428 1434l-227 -1434q-74 -4 -127 -45t-62 -96q-6 -42 17.5 -68.5t68.5 -26.5q28 0 84 17l-14 -88q-68 -21 -121 -21q-82 0 -122 40t-29 104q9 63 61 112t137 72h-35l228 1434h141z" />
    <glyph glyph-name="iogonek" unicode="&#x12f;" horiz-adv-x="243" 
d="M242 1174l32 208h136l-33 -208h-135zM55 0l176 1106h134l-175 -1106q-74 -4 -126.5 -45t-61.5 -96q-6 -42 17.5 -68.5t68.5 -26.5q28 0 84 17l-14 -88q-67 -21 -121 -21q-82 0 -122.5 40t-29.5 104q9 62 61.5 111.5t137.5 72.5h-29z" />
    <glyph glyph-name="Idotaccent" unicode="&#x130;" horiz-adv-x="260" 
d="M311 1581l23 150h139l-22 -150h-140zM428 1434l-227 -1434h-142l228 1434h141z" />
    <glyph glyph-name="dotlessi" unicode="&#x131;" horiz-adv-x="243" 
d="M55 0l174 1106h136l-177 -1106h-133z" />
    <glyph glyph-name="IJ" unicode="&#x132;" horiz-adv-x="825" 
d="M428 1434l-227 -1434h-142l228 1434h141zM997 1434l-186 -1180q-23 -143 -95.5 -214t-185.5 -71q-116 0 -166.5 71.5t-27.5 213.5l39 252h141l-43 -270q-12 -79 5 -115.5t67 -36.5q100 0 123 152l190 1198h139z" />
    <glyph glyph-name="ij" unicode="&#x133;" horiz-adv-x="473" 
d="M242 1174l32 208h136l-33 -208h-135zM635 1382l-33 -208h-135l35 208h133zM55 0l176 1106h134l-175 -1106h-135zM592 1106l-193 -1217q-12 -70 -24.5 -106.5t-42 -60t-71.5 -29.5t-120 -6l19 114q24 0 37.5 0.5t26 5t17.5 9.5t10.5 18.5t8 27t6.5 40.5l191 1204h135z" />
    <glyph glyph-name="Jcircumflex" unicode="&#x134;" horiz-adv-x="565" 
d="M627 1516h-86l131 280h114l43 -280h-86l-22 208h-6zM737 1434l-186 -1180q-23 -143 -95.5 -214t-185.5 -71q-116 0 -166.5 71.5t-27.5 213.5l39 252h141l-43 -270q-12 -79 5 -115.5t67 -36.5q100 0 123 152l190 1198h139z" />
    <glyph glyph-name="jcircumflex" unicode="&#x135;" horiz-adv-x="229" 
d="M238 1188h-86l131 280h114l43 -280h-86l-22 209h-6zM348 1106l-192 -1217q-12 -70 -24.5 -106t-42 -59.5t-71.5 -30t-120 -6.5l18 116q67 0 81.5 14t25.5 87l190 1202h135z" />
    <glyph glyph-name="uni0136" unicode="&#x136;" horiz-adv-x="587" 
d="M762 1434l-273 -586l68 -848h-143l-47 707h-7l-69 -144l-90 -563h-142l228 1434h141l-72 -451l-49 -235h6l308 686h141zM375 -66l-27 -163q-18 -121 -139 -121l8 55q30 0 46 17t22 53l4 30h-56l21 129h121z" />
    <glyph glyph-name="uni0137" unicode="&#x137;" horiz-adv-x="571" 
d="M698 1106l-249 -451v-2l96 -653h-142l-73 543h-6l-66 -109l-68 -434h-135l244 1536h133l-123 -778l-41 -180h6l281 528h143zM358 -66l-26 -163q-18 -121 -139 -121l8 55q30 0 45.5 17t21.5 53l4 30h-55l21 129h120z" />
    <glyph glyph-name="kgreenlandic" unicode="&#x138;" horiz-adv-x="571" 
d="M698 1106l-249 -451v-2l96 -653h-142l-73 543h-6l-66 -109l-68 -434h-135l174 1106h136l-56 -348l-41 -180h6l281 528h143z" />
    <glyph glyph-name="Lacute" unicode="&#x139;" horiz-adv-x="423" 
d="M412 1516h-93l117 280h109zM287 1434h141l-209 -1319h189l-19 -115h-330z" />
    <glyph glyph-name="lacute" unicode="&#x13a;" horiz-adv-x="243" 
d="M418 1597h-92l116 281h109zM55 0l244 1536h135l-244 -1536h-135z" />
    <glyph glyph-name="uni013B" unicode="&#x13b;" horiz-adv-x="423" 
d="M287 1434h141l-209 -1319h189l-19 -115h-330zM285 -66l-27 -163q-18 -121 -139 -121l8 55q30 0 46 17t22 53l4 30h-56l21 129h121z" />
    <glyph glyph-name="uni013C" unicode="&#x13c;" horiz-adv-x="243" 
d="M55 0l244 1536h135l-244 -1536h-135zM188 -45l-26 -164q-18 -121 -139 -121l8 56q30 0 45.5 16.5t21.5 52.5l4 31h-55l21 129h120z" />
    <glyph glyph-name="Lcaron" unicode="&#x13d;" horiz-adv-x="423" 
d="M444 1071l84 363h101l-123 -363h-62zM287 1434h141l-209 -1319h189l-19 -115h-330z" />
    <glyph glyph-name="lcaron" unicode="&#x13e;" horiz-adv-x="243" 
d="M434 1174l84 362h100l-122 -362h-62zM55 0l244 1536h135l-244 -1536h-135z" />
    <glyph glyph-name="Ldot" unicode="&#x13f;" horiz-adv-x="423" 
d="M287 1434h141l-209 -1319h189l-19 -115h-330zM381 647l25 150h139l-25 -150h-139z" />
    <glyph glyph-name="ldot" unicode="&#x140;" horiz-adv-x="243" 
d="M55 0l244 1536h135l-244 -1536h-135zM375 690l24 150h140l-25 -150h-139z" />
    <glyph glyph-name="Lslash" unicode="&#x141;" horiz-adv-x="423" 
d="M287 1434h141l-100 -631l78 31l20 -91l-115 -45l-92 -583h189l-19 -115h-330l103 639l-70 -29l-22 92l108 41z" />
    <glyph glyph-name="lslash" unicode="&#x142;" horiz-adv-x="243" 
d="M55 0l109 682l-39 -14l-23 90l78 30l119 748h135l-110 -692l36 16l23 -92l-76 -29l-117 -739h-135z" />
    <glyph glyph-name="Nacute" unicode="&#x143;" horiz-adv-x="618" 
d="M606 1516h-92l117 280h108zM786 1434l-227 -1434h-172l-29 1042v148h-8l-14 -148l-135 -1042h-142l228 1434h172l30 -1024l3 -146h6l14 150l133 1020h141z" />
    <glyph glyph-name="nacute" unicode="&#x144;" horiz-adv-x="563" 
d="M524 1188h-92l117 280h108zM508 0h-135l137 870q26 152 -53 152q-48 0 -86 -49t-52 -142l-131 -831h-135l176 1106h111l-6 -121h6q34 73 82.5 112.5t105.5 39.5q75 0 105.5 -72t9.5 -211z" />
    <glyph glyph-name="uni0145" unicode="&#x145;" horiz-adv-x="618" 
d="M786 1434l-227 -1434h-172l-29 1042v148h-8l-14 -148l-135 -1042h-142l228 1434h172l30 -1024l3 -146h6l14 150l133 1020h141zM358 -66l-26 -163q-18 -121 -139 -121l8 55q30 0 45.5 17t21.5 53l4 30h-55l21 129h120z" />
    <glyph glyph-name="uni0146" unicode="&#x146;" horiz-adv-x="563" 
d="M508 0h-135l137 870q26 152 -53 152q-48 0 -86 -49t-52 -142l-131 -831h-135l176 1106h111l-6 -121h6q34 73 82.5 112.5t105.5 39.5q75 0 105.5 -72t9.5 -211zM344 -66l-27 -163q-18 -121 -139 -121l8 55q30 0 46 17t22 53l4 30h-55l20 129h121z" />
    <glyph glyph-name="Ncaron" unicode="&#x147;" horiz-adv-x="618" 
d="M662 1796h86l-132 -280h-114l-43 280h86l22 -209h6zM786 1434l-227 -1434h-172l-29 1042v148h-8l-14 -148l-135 -1042h-142l228 1434h172l30 -1024l3 -146h6l14 150l133 1020h141z" />
    <glyph glyph-name="ncaron" unicode="&#x148;" horiz-adv-x="563" 
d="M580 1468h86l-131 -280h-115l-43 280h86l22 -208h7zM508 0h-135l137 870q26 152 -53 152q-48 0 -86 -49t-52 -142l-131 -831h-135l176 1106h111l-6 -121h6q34 73 82.5 112.5t105.5 39.5q75 0 105.5 -72t9.5 -211z" />
    <glyph glyph-name="napostrophe" unicode="&#x149;" horiz-adv-x="1105" 
d="M68 0l227 1434h971l-228 -1434h-970zM442 1331l238 -530l405 530h-643zM719 717l244 -547l174 1094zM371 1264l-174 -1094l419 547zM653 633l-405 -531h643z" />
    <glyph glyph-name="Eng" unicode="&#x14a;" horiz-adv-x="618" 
d="M786 1434l-237 -1495q-20 -131 -68 -167t-202 -36l18 117q55 0 67 13.5t23 84.5l8 49l-35 1042l-2 148h-8l-14 -148l-135 -1042h-142l228 1434h172l35 -1170h6l12 150l133 1020h141z" />
    <glyph glyph-name="eng" unicode="&#x14b;" horiz-adv-x="563" 
d="M242 -264l18 117q66 0 80.5 14t26.5 86l145 917q23 152 -57 152q-46 0 -82.5 -49t-50.5 -142l-132 -831h-135l174 1106h113l-6 -121h6q34 73 82 112.5t104 39.5q76 0 107 -72t8 -211l-143 -915q-12 -70 -24.5 -106t-42 -60t-71.5 -30.5t-120 -6.5z" />
    <glyph glyph-name="Omacron" unicode="&#x14c;" horiz-adv-x="585" 
d="M748 1706l-17 -100h-369l17 100h369zM719 1184l-148 -930q-22 -141 -93.5 -213t-186.5 -72q-117 0 -167.5 72.5t-27.5 212.5l148 930q22 139 94 209.5t188 70.5t166 -71t27 -209zM582 1200q12 79 -4.5 114.5t-67.5 35.5t-81 -36t-42 -114l-154 -964q-12 -79 4 -115.5
t68 -36.5q100 0 123 152z" />
    <glyph glyph-name="omacron" unicode="&#x14d;" 
d="M676 1378l-17 -100h-368l16 100h369zM635 856l-94 -602q-23 -141 -92 -213t-179 -72q-111 0 -158.5 72t-25.5 213l96 602q23 140 92.5 210.5t180.5 70.5t157 -71t23 -210zM504 872q12 81 -2.5 115.5t-63.5 34.5q-50 0 -78.5 -36t-40.5 -114l-100 -636q-12 -80 2.5 -116
t63.5 -36q95 0 118 152z" />
    <glyph glyph-name="Obreve" unicode="&#x14e;" horiz-adv-x="585" 
d="M391 1796h88q-30 -180 72 -180q101 0 127 180h88q-23 -139 -78 -209.5t-153 -70.5t-131.5 71t-12.5 209zM719 1184l-148 -930q-22 -141 -93.5 -213t-186.5 -72q-117 0 -167.5 72.5t-27.5 212.5l148 930q22 139 94 209.5t188 70.5t166 -71t27 -209zM582 1200
q12 79 -4.5 114.5t-67.5 35.5t-81 -36t-42 -114l-154 -964q-12 -79 4 -115.5t68 -36.5q100 0 123 152z" />
    <glyph glyph-name="obreve" unicode="&#x14f;" 
d="M322 1468h88q-30 -180 71 -180t127 180h88q-23 -139 -78 -209.5t-153 -70.5t-131 70.5t-12 209.5zM635 856l-94 -602q-23 -141 -92 -213t-179 -72q-111 0 -158.5 72t-25.5 213l96 602q23 140 92.5 210.5t180.5 70.5t157 -71t23 -210zM504 872q12 81 -2.5 115.5
t-63.5 34.5q-50 0 -78.5 -36t-40.5 -114l-100 -636q-12 -80 2.5 -116t63.5 -36q95 0 118 152z" />
    <glyph glyph-name="Ohungarumlaut" unicode="&#x150;" horiz-adv-x="585" 
d="M475 1516h-80l111 280h96zM649 1516h-80l111 280h96zM719 1184l-148 -930q-22 -141 -93.5 -213t-186.5 -72q-117 0 -167.5 72.5t-27.5 212.5l148 930q22 139 94 209.5t188 70.5t166 -71t27 -209zM582 1200q12 79 -4.5 114.5t-67.5 35.5t-81 -36t-42 -114l-154 -964
q-12 -79 4 -115.5t68 -36.5q100 0 123 152z" />
    <glyph glyph-name="ohungarumlaut" unicode="&#x151;" 
d="M403 1188h-79l110 280h96zM578 1188h-80l110 280h97zM635 856l-94 -602q-23 -141 -92 -213t-179 -72q-111 0 -158.5 72t-25.5 213l96 602q23 140 92.5 210.5t180.5 70.5t157 -71t23 -210zM504 872q12 81 -2.5 115.5t-63.5 34.5q-50 0 -78.5 -36t-40.5 -114l-100 -636
q-12 -80 2.5 -116t63.5 -36q95 0 118 152z" />
    <glyph glyph-name="OE" unicode="&#x152;" horiz-adv-x="727" 
d="M520 1434h385l-18 -115h-191l-86 -547h178l-18 -115h-178l-86 -542h209l-19 -115h-401q-117 0 -167.5 72.5t-27.5 212.5l138 868q22 139 94 210t188 71zM365 115l190 1204h-53q-51 0 -80 -36t-41 -114l-143 -903q-12 -79 5.5 -115t69.5 -36h52z" />
    <glyph glyph-name="oe" unicode="&#x153;" horiz-adv-x="866" 
d="M584 532l-45 -296q-14 -79 1 -115.5t64 -36.5q48 0 77 36.5t42 115.5l27 178h135l-25 -160q-23 -142 -91.5 -213.5t-178.5 -71.5q-120 0 -144 103h-4q-58 -103 -172 -103q-111 0 -158.5 72t-25.5 213l96 602q23 140 92.5 210.5t180.5 70.5q57 0 91.5 -23.5t49.5 -77.5h4
q57 101 174 101q111 0 157 -71t23 -210l-51 -324h-319zM823 872q12 81 -2 115.5t-63 34.5q-50 0 -78.5 -36t-40.5 -114l-39 -241h184zM504 872q12 81 -2.5 115.5t-63.5 34.5q-50 0 -78.5 -36t-40.5 -114l-100 -636q-12 -80 2.5 -116t63.5 -36q95 0 118 152z" />
    <glyph glyph-name="Racute" unicode="&#x154;" horiz-adv-x="587" 
d="M573 1516h-92l117 280h109zM287 1434h213q126 0 183 -73.5t34 -217.5l-35 -223q-30 -190 -170 -240l-2 -4q124 -46 96 -238l-37 -231q-16 -94 -16 -199v-8h-141q0 98 16 207l41 264q14 78 -9 114t-87 36h-74l-98 -621h-142zM410 1319l-93 -584h72q63 0 99 36.5t49 115.5
l45 282q12 78 -11.5 114t-87.5 36h-73z" />
    <glyph glyph-name="racute" unicode="&#x155;" horiz-adv-x="407" 
d="M438 1188h-92l117 280h108zM229 1106h119l-20 -178h4q11 50 30 85t38.5 53t50 27.5t51 11t53.5 1.5l-20 -137q-107 0 -158 -53t-66 -150l-123 -766h-133z" />
    <glyph glyph-name="uni0156" unicode="&#x156;" horiz-adv-x="587" 
d="M287 1434h213q126 0 183 -73.5t34 -217.5l-35 -223q-30 -190 -170 -240l-2 -4q124 -46 96 -238l-37 -231q-16 -94 -16 -199v-8h-141q0 98 16 207l41 264q14 78 -9 114t-87 36h-74l-98 -621h-142zM410 1319l-93 -584h72q63 0 99 36.5t49 115.5l45 282q12 78 -11.5 114
t-87.5 36h-73zM371 -66l-27 -163q-18 -121 -139 -121l8 55q30 0 46 17t22 53l4 30h-56l21 129h121z" />
    <glyph glyph-name="uni0157" unicode="&#x157;" horiz-adv-x="407" 
d="M229 1106h119l-20 -178h4q11 50 30 85t38.5 53t50 27.5t51 11t53.5 1.5l-20 -137q-107 0 -158 -53t-66 -150l-123 -766h-133zM184 -66l-26 -163q-18 -121 -140 -121l9 55q30 0 45.5 17t21.5 53l4 30h-55l20 129h121z" />
    <glyph glyph-name="Rcaron" unicode="&#x158;" horiz-adv-x="587" 
d="M629 1796h86l-131 -280h-115l-43 280h86l23 -209h6zM287 1434h213q126 0 183 -73.5t34 -217.5l-35 -223q-30 -190 -170 -240l-2 -4q124 -46 96 -238l-37 -231q-16 -94 -16 -199v-8h-141q0 98 16 207l41 264q14 78 -9 114t-87 36h-74l-98 -621h-142zM410 1319l-93 -584h72
q63 0 99 36.5t49 115.5l45 282q12 78 -11.5 114t-87.5 36h-73z" />
    <glyph glyph-name="rcaron" unicode="&#x159;" horiz-adv-x="407" 
d="M494 1468h86l-131 -280h-115l-43 280h86l22 -208h7zM229 1106h119l-20 -178h4q11 50 30 85t38.5 53t50 27.5t51 11t53.5 1.5l-20 -137q-107 0 -158 -53t-66 -150l-123 -766h-133z" />
    <glyph glyph-name="Sacute" unicode="&#x15a;" horiz-adv-x="591" 
d="M582 1516h-93l117 280h109zM688 991h-141l35 209q12 83 -4.5 116.5t-63.5 33.5q-49 0 -79.5 -34.5t-41.5 -115.5l-20 -133q-12 -76 12 -143.5t76 -141.5q18 -26 29 -41.5t28 -42t27 -46t23 -47t19 -52.5t11.5 -54.5t5 -60.5t-5.5 -63l-20 -121q-23 -144 -97 -214.5
t-190 -70.5t-167.5 70t-27.5 215l31 190h139l-33 -208q-13 -82 6 -117t70 -35q50 0 81 35.5t44 116.5l21 133q3 20 3 40.5t-1.5 37.5t-7.5 37.5t-11 35t-15.5 35t-17.5 33t-21 33.5t-21.5 32l-22.5 33q-44 62 -68 106.5t-40 117t-3 149.5l21 125q45 280 278 280
q236 0 191 -280z" />
    <glyph glyph-name="sacute" unicode="&#x15b;" 
d="M506 1188h-92l116 280h109zM614 766h-133l25 162q19 114 -64 114q-90 0 -108 -118l-17 -107q-9 -55 18.5 -108t80.5 -115q34 -39 55 -67t43.5 -69t30 -85.5t0.5 -93.5l-13 -74q-18 -112 -90 -174t-174 -62t-154 62.5t-34 175.5l20 135h136l-25 -162q-19 -114 70 -114
q95 0 114 114l15 103q5 29 -2.5 60t-29.5 66.5t-38.5 58.5t-48.5 62q-61 72 -91 139.5t-18 149.5l15 82q17 113 86 174.5t170 61.5q102 0 152 -62t32 -174z" />
    <glyph glyph-name="Scircumflex" unicode="&#x15c;" horiz-adv-x="591" 
d="M481 1516h-86l131 280h115l43 -280h-86l-23 208h-6zM688 991h-141l35 209q12 83 -4.5 116.5t-63.5 33.5q-49 0 -79.5 -34.5t-41.5 -115.5l-20 -133q-12 -76 12 -143.5t76 -141.5q18 -26 29 -41.5t28 -42t27 -46t23 -47t19 -52.5t11.5 -54.5t5 -60.5t-5.5 -63l-20 -121
q-23 -144 -97 -214.5t-190 -70.5t-167.5 70t-27.5 215l31 190h139l-33 -208q-13 -82 6 -117t70 -35q50 0 81 35.5t44 116.5l21 133q3 20 3 40.5t-1.5 37.5t-7.5 37.5t-11 35t-15.5 35t-17.5 33t-21 33.5t-21.5 32l-22.5 33q-44 62 -68 106.5t-40 117t-3 149.5l21 125
q45 280 278 280q236 0 191 -280z" />
    <glyph glyph-name="scircumflex" unicode="&#x15d;" 
d="M406 1188h-87l132 280h114l43 -280h-86l-22 209h-6zM614 766h-133l25 162q19 114 -64 114q-90 0 -108 -118l-17 -107q-9 -55 18.5 -108t80.5 -115q34 -39 55 -67t43.5 -69t30 -85.5t0.5 -93.5l-13 -74q-18 -112 -90 -174t-174 -62t-154 62.5t-34 175.5l20 135h136
l-25 -162q-19 -114 70 -114q95 0 114 114l15 103q5 29 -2.5 60t-29.5 66.5t-38.5 58.5t-48.5 62q-61 72 -91 139.5t-18 149.5l15 82q17 113 86 174.5t170 61.5q102 0 152 -62t32 -174z" />
    <glyph glyph-name="Scedilla" unicode="&#x15e;" horiz-adv-x="591" 
d="M688 991h-141l35 209q12 83 -4.5 116.5t-63.5 33.5q-49 0 -79.5 -34.5t-41.5 -115.5l-20 -133q-12 -76 12 -143.5t76 -141.5q18 -26 29 -41.5t28 -42t27 -46t23 -47t19 -52.5t11.5 -54.5t5 -60.5t-5.5 -63l-20 -121q-21 -132 -86 -203t-166 -80l-17 -61q78 0 120.5 -38
t33.5 -99q-11 -65 -72.5 -108.5t-144.5 -43.5q-42 0 -107 14l13 72q25 -10 63 -10q49 0 87 25t44 59q6 38 -28.5 58t-98.5 20l35 112q-96 11 -137.5 81t-20.5 202l31 190h139l-33 -208q-13 -82 6 -117t70 -35q50 0 81 35.5t44 116.5l21 133q3 20 3 40.5t-1.5 37.5t-7.5 37.5
t-11 35t-15.5 35t-17.5 33t-21 33.5t-21.5 32l-22.5 33q-44 62 -68 106.5t-40 117t-3 149.5l21 125q45 280 278 280q236 0 191 -280z" />
    <glyph glyph-name="scedilla" unicode="&#x15f;" 
d="M614 766h-133l25 162q19 114 -64 114q-90 0 -108 -118l-17 -107q-9 -55 18.5 -108t80.5 -115q34 -39 55 -67t43.5 -69t30 -85.5t0.5 -93.5l-13 -74q-17 -101 -78.5 -162t-150.5 -72l-16 -61q78 0 120 -37.5t33 -99.5q-11 -65 -72.5 -108.5t-144.5 -43.5q-41 0 -106 14
l12 72q25 -10 64 -10q49 0 87 25t44 59q6 38 -28.5 58t-98.5 20l34 112q-85 11 -126.5 72.5t-24.5 163.5l20 135h136l-25 -162q-19 -114 70 -114q95 0 114 114l15 103q5 29 -2.5 60t-29.5 66.5t-38.5 58.5t-48.5 62q-61 72 -91 139.5t-18 149.5l15 82q17 113 86 174.5
t170 61.5q102 0 152 -62t32 -174z" />
    <glyph glyph-name="Scaron" unicode="&#x160;" horiz-adv-x="591" 
d="M637 1796h86l-131 -280h-115l-43 280h86l23 -209h6zM688 991h-141l35 209q12 83 -4.5 116.5t-63.5 33.5q-49 0 -79.5 -34.5t-41.5 -115.5l-20 -133q-12 -76 12 -143.5t76 -141.5q18 -26 29 -41.5t28 -42t27 -46t23 -47t19 -52.5t11.5 -54.5t5 -60.5t-5.5 -63l-20 -121
q-23 -144 -97 -214.5t-190 -70.5t-167.5 70t-27.5 215l31 190h139l-33 -208q-13 -82 6 -117t70 -35q50 0 81 35.5t44 116.5l21 133q3 20 3 40.5t-1.5 37.5t-7.5 37.5t-11 35t-15.5 35t-17.5 33t-21 33.5t-21.5 32l-22.5 33q-44 62 -68 106.5t-40 117t-3 149.5l21 125
q45 280 278 280q236 0 191 -280z" />
    <glyph glyph-name="scaron" unicode="&#x161;" 
d="M561 1468h86l-131 -280h-115l-43 280h86l23 -208h6zM614 766h-133l25 162q19 114 -64 114q-90 0 -108 -118l-17 -107q-9 -55 18.5 -108t80.5 -115q34 -39 55 -67t43.5 -69t30 -85.5t0.5 -93.5l-13 -74q-18 -112 -90 -174t-174 -62t-154 62.5t-34 175.5l20 135h136
l-25 -162q-19 -114 70 -114q95 0 114 114l15 103q5 29 -2.5 60t-29.5 66.5t-38.5 58.5t-48.5 62q-61 72 -91 139.5t-18 149.5l15 82q17 113 86 174.5t170 61.5q102 0 152 -62t32 -174z" />
    <glyph glyph-name="uni0162" unicode="&#x162;" horiz-adv-x="546" 
d="M739 1434l-16 -115h-170l-209 -1319h-33l-20 -74q78 0 120 -37.5t33 -99.5q-11 -65 -72.5 -108t-144.5 -43q-41 0 -106 14l12 72q27 -11 64 -11q49 0 87 25t44 59q6 38 -28.5 58t-98.5 20l39 125h-37l209 1319h-168l18 115h477z" />
    <glyph glyph-name="uni0163" unicode="&#x163;" horiz-adv-x="333" 
d="M287 1270h135l-27 -164h97l-19 -115h-96l-123 -776q-10 -67 5.5 -83.5t74.5 -16.5l-17 -115q-56 0 -79 2l-17 -59q78 0 120.5 -38t33.5 -100q-11 -65 -72.5 -108t-144.5 -43q-42 0 -107 14l12 72q25 -10 64 -10q49 0 87 25t44 59q6 37 -28 57t-99 20l39 125
q-42 17 -54 59.5t1 127.5l125 788h-62l19 115h61z" />
    <glyph glyph-name="Tcaron" unicode="&#x164;" horiz-adv-x="546" 
d="M612 1796h86l-131 -280h-114l-43 280h86l22 -209h6zM739 1434l-16 -115h-170l-209 -1319h-141l209 1319h-168l18 115h477z" />
    <glyph glyph-name="tcaron" unicode="&#x165;" horiz-adv-x="333" 
d="M459 1174l84 362h100l-123 -362h-61zM287 1270h135l-27 -164h97l-19 -115h-96l-123 -776q-10 -67 5.5 -83.5t74.5 -16.5l-17 -115q-48 0 -80 2.5t-58.5 11t-40 22t-21.5 37t-7.5 54.5t7.5 76l125 788h-62l19 115h61z" />
    <glyph glyph-name="Tbar" unicode="&#x166;" horiz-adv-x="546" 
d="M739 1434l-16 -115h-170l-98 -623h92l-17 -98h-92l-94 -598h-141l96 598h-90l14 98h90l99 623h-168l18 115h477z" />
    <glyph glyph-name="tbar" unicode="&#x167;" horiz-adv-x="333" 
d="M287 1270h135l-27 -164h97l-19 -115h-96l-55 -346h98l-17 -98h-96l-53 -332q-10 -67 5.5 -83.5t74.5 -16.5l-17 -115q-48 0 -80 2.5t-58.5 11t-40 22t-21.5 37t-7.5 54.5t7.5 76l55 344h-59l14 98h59l56 346h-62l19 115h61z" />
    <glyph glyph-name="Utilde" unicode="&#x168;" horiz-adv-x="612" 
d="M768 1790l-10 -70q-35 -204 -129 -204q-58 0 -84 96l-4 14q-22 66 -49 66q-44 0 -58 -107l-10 -63h-57l10 63q35 211 129 211q27 0 46 -21.5t34 -66.5l2 -14q23 -74 57 -74q42 0 57 100l11 70h55zM784 1434l-186 -1180q-23 -144 -98.5 -214.5t-196.5 -70.5
q-122 0 -176 71.5t-31 213.5l187 1180h141l-191 -1198q-12 -79 7.5 -115.5t76.5 -36.5q112 0 138 152l188 1198h141z" />
    <glyph glyph-name="utilde" unicode="&#x169;" horiz-adv-x="563" 
d="M494 1462l-11 -69q-35 -205 -129 -205q-58 0 -84 96l-4 14q-22 66 -49 66q-43 0 -57 -107l-10 -63h-58l10 63q35 211 129 211q27 0 46 -21.5t34 -66.5l2 -14q23 -74 58 -74q42 0 57 101l10 69h56zM229 1106h136l-138 -870q-23 -152 56 -152q48 0 84.5 48.5t50.5 141.5
l131 832h135l-176 -1106h-111l6 121h-6q-34 -73 -82.5 -112.5t-105.5 -39.5q-75 0 -105.5 73t-9.5 212z" />
    <glyph glyph-name="Umacron" unicode="&#x16a;" horiz-adv-x="612" 
d="M760 1706l-17 -100h-368l16 100h369zM784 1434l-186 -1180q-23 -144 -98.5 -214.5t-196.5 -70.5q-122 0 -176 71.5t-31 213.5l187 1180h141l-191 -1198q-12 -79 7.5 -115.5t76.5 -36.5q112 0 138 152l188 1198h141z" />
    <glyph glyph-name="umacron" unicode="&#x16b;" horiz-adv-x="563" 
d="M485 1378l-16 -100h-369l17 100h368zM229 1106h136l-138 -870q-23 -152 56 -152q48 0 84.5 48.5t50.5 141.5l131 832h135l-176 -1106h-111l6 121h-6q-34 -73 -82.5 -112.5t-105.5 -39.5q-75 0 -105.5 73t-9.5 212z" />
    <glyph glyph-name="Ubreve" unicode="&#x16c;" horiz-adv-x="612" 
d="M403 1796h89q-30 -180 71 -180t127 180h88q-23 -139 -78 -209.5t-153 -70.5t-131.5 71t-12.5 209zM784 1434l-186 -1180q-23 -144 -98.5 -214.5t-196.5 -70.5q-122 0 -176 71.5t-31 213.5l187 1180h141l-191 -1198q-12 -79 7.5 -115.5t76.5 -36.5q112 0 138 152l188 1198
h141z" />
    <glyph glyph-name="ubreve" unicode="&#x16d;" horiz-adv-x="563" 
d="M129 1468h88q-30 -180 72 -180q101 0 127 180h88q-23 -138 -78.5 -209t-153.5 -71t-131 70.5t-12 209.5zM229 1106h136l-138 -870q-23 -152 56 -152q48 0 84.5 48.5t50.5 141.5l131 832h135l-176 -1106h-111l6 121h-6q-34 -73 -82.5 -112.5t-105.5 -39.5q-75 0 -105.5 73
t-9.5 212z" />
    <glyph glyph-name="Uring" unicode="&#x16e;" horiz-adv-x="612" 
d="M436 1630q2 71 44.5 117.5t111.5 46.5q54 0 84.5 -30t30.5 -87q-2 -69 -45.5 -114t-114.5 -45q-53 0 -82 28.5t-29 83.5zM500 1638q0 -63 57 -63q36 0 61 29t25 69q0 31 -15.5 47.5t-43.5 16.5q-38 0 -62 -28.5t-22 -70.5zM784 1434l-186 -1180q-23 -144 -98.5 -214.5
t-196.5 -70.5q-122 0 -176 71.5t-31 213.5l187 1180h141l-191 -1198q-12 -79 7.5 -115.5t76.5 -36.5q112 0 138 152l188 1198h141z" />
    <glyph glyph-name="uring" unicode="&#x16f;" horiz-adv-x="563" 
d="M162 1303q2 71 44 117t111 46q54 0 84.5 -29.5t30.5 -86.5q-2 -69 -45.5 -114.5t-114.5 -45.5q-53 0 -81.5 29t-28.5 84zM225 1311q0 -64 58 -64q36 0 61 29.5t25 69.5q0 30 -16 46.5t-44 16.5q-38 0 -62 -28t-22 -70zM229 1106h136l-138 -870q-23 -152 56 -152
q48 0 84.5 48.5t50.5 141.5l131 832h135l-176 -1106h-111l6 121h-6q-34 -73 -82.5 -112.5t-105.5 -39.5q-75 0 -105.5 73t-9.5 212z" />
    <glyph glyph-name="Uhungarumlaut" unicode="&#x170;" horiz-adv-x="612" 
d="M487 1516h-79l110 280h96zM662 1516h-80l110 280h96zM784 1434l-186 -1180q-23 -144 -98.5 -214.5t-196.5 -70.5q-122 0 -176 71.5t-31 213.5l187 1180h141l-191 -1198q-12 -79 7.5 -115.5t76.5 -36.5q112 0 138 152l188 1198h141z" />
    <glyph glyph-name="uhungarumlaut" unicode="&#x171;" horiz-adv-x="563" 
d="M213 1188h-80l111 280h96zM387 1188h-80l111 280h96zM229 1106h136l-138 -870q-23 -152 56 -152q48 0 84.5 48.5t50.5 141.5l131 832h135l-176 -1106h-111l6 121h-6q-34 -73 -82.5 -112.5t-105.5 -39.5q-75 0 -105.5 73t-9.5 212z" />
    <glyph glyph-name="Uogonek" unicode="&#x172;" horiz-adv-x="612" 
d="M784 1434l-186 -1180q-39 -240 -227 -279q-40 -21 -65 -55t-25 -74q-1 -38 23 -60t63 -22q28 0 84 17l-15 -88q-68 -21 -121 -21q-74 0 -114.5 33.5t-40.5 89.5q0 110 131 174q-116 3 -167 74.5t-28 210.5l187 1180h141l-191 -1198q-12 -79 7.5 -115.5t76.5 -36.5
q112 0 138 152l188 1198h141z" />
    <glyph glyph-name="uogonek" unicode="&#x173;" horiz-adv-x="563" 
d="M229 1106h136l-138 -870q-23 -152 56 -152q48 0 84.5 48.5t50.5 141.5l131 832h135l-176 -1106q-74 -4 -127 -45t-62 -96q-6 -42 18 -68.5t69 -26.5q27 0 83 17l-14 -88q-67 -21 -121 -21q-82 0 -122 40t-29 104q9 63 61 112t137 72h-4l6 121h-6q-34 -73 -82.5 -112.5
t-105.5 -39.5q-75 0 -105.5 73t-9.5 212z" />
    <glyph glyph-name="Wcircumflex" unicode="&#x174;" horiz-adv-x="890" 
d="M627 1516h-86l131 280h114l43 -280h-86l-22 208h-6zM1092 1434l-371 -1434h-178l80 1053l16 147h-6l-31 -147l-254 -1053h-180l86 1434h141l-92 -1092l-18 -152h8l29 152l268 1092h166l-78 -1092l-16 -152h8l26 152l254 1092h142z" />
    <glyph glyph-name="wcircumflex" unicode="&#x175;" horiz-adv-x="858" 
d="M559 1188h-86l131 280h115l43 -280h-86l-23 209h-6zM1010 1106l-312 -1106h-178l60 872l12 138h-6l-31 -138l-217 -872h-180l41 1106h141l-51 -791l-15 -125h9l26 125l211 791h166l-35 -791l-12 -125h6l25 125l198 791h142z" />
    <glyph glyph-name="Ycircumflex" unicode="&#x176;" horiz-adv-x="555" 
d="M461 1516h-86l131 280h115l43 -280h-86l-23 208h-6zM756 1434l-328 -934l-80 -500h-141l80 500l-33 934h141l-10 -621l-8 -164h8l45 164l184 621h142z" />
    <glyph glyph-name="ycircumflex" unicode="&#x177;" horiz-adv-x="536" 
d="M399 1188h-86l131 280h115l43 -280h-86l-22 209h-7zM328 -80q-15 -49 -26.5 -79t-29.5 -59t-39 -44t-54 -27t-75.5 -16t-103.5 -4l18 116q51 0 76 4.5t44 27t27 53t21 100.5l13 1114h141l-31 -772l-12 -127h8l29 127l213 772h141l-338 -1106z" />
    <glyph glyph-name="Ydieresis" unicode="&#x178;" horiz-adv-x="555" 
d="M442 1581l25 150h164l-25 -150h-164zM756 1434l-328 -934l-80 -500h-141l80 500l-33 934h141l-10 -621l-8 -164h8l45 164l184 621h142z" />
    <glyph glyph-name="Zacute" unicode="&#x179;" horiz-adv-x="487" 
d="M524 1516h-92l117 280h108zM668 1434l-19 -115l-456 -1198l2 -6h280l-18 -115h-426l18 115l457 1198l-4 6h-246l18 115h394z" />
    <glyph glyph-name="zacute" unicode="&#x17a;" horiz-adv-x="466" 
d="M467 1188h-92l117 280h108zM594 1106l-14 -90l-387 -895l4 -6h256l-17 -115h-405l14 90l385 897l-2 4h-223l18 115h371z" />
    <glyph glyph-name="Zdotaccent" unicode="&#x17b;" horiz-adv-x="487" 
d="M422 1581l22 150h140l-23 -150h-139zM668 1434l-19 -115l-456 -1198l2 -6h280l-18 -115h-426l18 115l457 1198l-4 6h-246l18 115h394z" />
    <glyph glyph-name="zdotaccent" unicode="&#x17c;" horiz-adv-x="466" 
d="M365 1253l22 150h139l-22 -150h-139zM594 1106l-14 -90l-387 -895l4 -6h256l-17 -115h-405l14 90l385 897l-2 4h-223l18 115h371z" />
    <glyph glyph-name="Zcaron" unicode="&#x17d;" horiz-adv-x="487" 
d="M580 1796h86l-131 -280h-115l-43 280h86l22 -209h7zM668 1434l-19 -115l-456 -1198l2 -6h280l-18 -115h-426l18 115l457 1198l-4 6h-246l18 115h394z" />
    <glyph glyph-name="zcaron" unicode="&#x17e;" horiz-adv-x="466" 
d="M522 1468h86l-131 -280h-115l-43 280h87l22 -208h6zM594 1106l-14 -90l-387 -895l4 -6h256l-17 -115h-405l14 90l385 897l-2 4h-223l18 115h371z" />
    <glyph glyph-name="longs" unicode="&#x17f;" horiz-adv-x="1105" 
d="M68 0l227 1434h971l-228 -1434h-970zM442 1331l238 -530l405 530h-643zM719 717l244 -547l174 1094zM371 1264l-174 -1094l419 547zM653 633l-405 -531h643z" />
    <glyph glyph-name="florin" unicode="&#x192;" horiz-adv-x="319" 
d="M-59 -430l18 115q59 0 80.5 16.5t32.5 83.5l190 1206h-61l18 115h62l34 227q11 67 27.5 106t49 61t74.5 29t114 7l-19 -115q-59 0 -80 -16.5t-32 -83.5l-33 -215h80l-19 -115h-80l-194 -1218q-8 -54 -20.5 -89t-31 -58.5t-49 -35t-67 -16t-94.5 -4.5z" />
    <glyph glyph-name="uni0237" unicode="&#x237;" horiz-adv-x="229" 
d="M348 1106l-192 -1217q-12 -70 -24.5 -106t-42 -59.5t-71.5 -30t-120 -6.5l18 116q67 0 81.5 14t25.5 87l190 1202h135z" />
    <glyph glyph-name="circumflex" unicode="&#x2c6;" horiz-adv-x="423" 
d="M338 1153h-86l131 281h115l43 -281h-86l-23 209h-6z" />
    <glyph glyph-name="caron" unicode="&#x2c7;" horiz-adv-x="423" 
d="M498 1434h86l-131 -281h-115l-43 281h86l22 -209h7z" />
    <glyph glyph-name="breve" unicode="&#x2d8;" horiz-adv-x="507" 
d="M295 1434h88q-30 -181 72 -181q101 0 127 181h88q-23 -139 -78.5 -210t-153.5 -71t-131 71t-12 210z" />
    <glyph glyph-name="dotaccent" unicode="&#x2d9;" horiz-adv-x="274" 
d="M260 1219l23 149h139l-23 -149h-139z" />
    <glyph glyph-name="ring" unicode="&#x2da;" horiz-adv-x="401" 
d="M270 1268q2 71 44.5 117.5t111.5 46.5q54 0 84.5 -30t30.5 -87q-2 -69 -45.5 -114.5t-114.5 -45.5q-53 0 -82 29t-29 84zM334 1276q0 -64 57 -64q36 0 61 29.5t25 69.5q0 63 -59 63q-38 0 -62 -28t-22 -70z" />
    <glyph glyph-name="ogonek" unicode="&#x2db;" horiz-adv-x="428" 
d="M344 -4l-2 -16q-73 -4 -126 -45.5t-62 -96.5q-6 -42 17.5 -68t68.5 -26q31 0 84 16l-15 -88q-64 -20 -121 -20q-82 0 -122 39.5t-29 103.5q12 81 95.5 139t211.5 62z" />
    <glyph glyph-name="tilde" unicode="&#x2dc;" horiz-adv-x="493" 
d="M653 1427l-10 -69q-35 -205 -129 -205q-58 0 -84 96l-4 15q-12 36 -23 50.5t-26 14.5q-44 0 -58 -106l-10 -64h-57l10 64q35 211 129 211q27 0 46 -21.5t34 -66.5l2 -15q23 -74 57 -74q43 0 58 101l10 69h55z" />
    <glyph glyph-name="hungarumlaut" unicode="&#x2dd;" horiz-adv-x="471" 
d="M332 1153h-80l110 281h97zM506 1153h-80l111 281h96z" />
    <glyph glyph-name="uni03BC" unicode="&#x3bc;" horiz-adv-x="1105" 
d="M68 0l227 1434h971l-228 -1434h-970zM442 1331l238 -530l405 530h-643zM719 717l244 -547l174 1094zM371 1264l-174 -1094l419 547zM653 633l-405 -531h643z" />
    <glyph glyph-name="endash" unicode="&#x2013;" horiz-adv-x="995" 
d="M1047 752l-19 -115h-860l18 115h861z" />
    <glyph glyph-name="emdash" unicode="&#x2014;" horiz-adv-x="1486" 
d="M1538 752l-18 -115h-1352l18 115h1352z" />
    <glyph glyph-name="quoteleft" unicode="&#x2018;" horiz-adv-x="303" 
d="M233 1040l35 226q26 168 195 168l-12 -76q-42 0 -63.5 -23.5t-29.5 -72.5l-6 -43h76l-29 -179h-166z" />
    <glyph glyph-name="quoteright" unicode="&#x2019;" horiz-adv-x="303" 
d="M461 1434l-35 -226q-26 -168 -195 -168l13 78q42 0 63 22.5t29 71.5l6 43h-76l29 179h166z" />
    <glyph glyph-name="quotesinglbase" unicode="&#x201a;" horiz-adv-x="290" 
d="M254 172l-33 -217q-26 -162 -186 -162l10 74q40 0 61 22.5t29 69.5l6 41h-73l26 172h160z" />
    <glyph glyph-name="quotedblleft" unicode="&#x201c;" horiz-adv-x="522" 
d="M291 623h-2q-5 -5 -8 -5v-6h-7v4v9q9 0 9 -2h-2h8l2 2v-2zM512 623h-2q-5 -5 -8 -5v-6h-6v4v9q8 0 8 -2h-2h8l2 2v-2z" />
    <glyph glyph-name="quotedblright" unicode="&#x201d;" horiz-adv-x="522" 
d="M618 1812h3q5 5 8 5v6h6v-13q-8 0 -6 2h-8l-3 -2v2zM397 1812h2q5 5 9 5v6h6v-13q-8 0 -6 2h-9l-2 -2v2z" />
    <glyph glyph-name="quotedblbase" unicode="&#x201e;" horiz-adv-x="563" 
d="M254 172l-33 -217q-26 -162 -186 -162l10 74q40 0 61 22.5t29 69.5l6 41h-73l26 172h160zM463 172l-33 -217q-26 -162 -186 -162l10 74q40 0 61 22.5t29 69.5l6 41h-74l27 172h160z" />
    <glyph glyph-name="dagger" unicode="&#x2020;" horiz-adv-x="536" 
d="M426 1434h139l-51 -328h131l-18 -115h-131l-156 -991h-141l155 991h-129l19 115h129z" />
    <glyph glyph-name="daggerdbl" unicode="&#x2021;" horiz-adv-x="536" 
d="M426 1434h139l-51 -328h131l-18 -115h-131l-86 -549h131l-19 -114h-131l-51 -328h-141l51 328h-131l18 114h131l86 549h-129l19 115h129z" />
    <glyph glyph-name="bullet" unicode="&#x2022;" horiz-adv-x="423" 
d="M186 729q0 72 46.5 119t121.5 47q59 0 90 -30t31 -87q2 -72 -45.5 -120t-124.5 -48q-57 0 -88 30.5t-31 88.5z" />
    <glyph glyph-name="ellipsis" unicode="&#x2026;" horiz-adv-x="901" 
d="M70 0l26 178h168l-28 -178h-166zM369 0l26 178h168l-28 -178h-166zM668 0l26 178h168l-28 -178h-166z" />
    <glyph glyph-name="perthousand" unicode="&#x2030;" horiz-adv-x="1669" 
d="M678 1184l-45 -287q-47 -283 -256 -283q-103 0 -146.5 71.5t-21.5 211.5l47 287q22 140 87 210t169 70q105 0 147 -70.5t19 -209.5zM238 0l841 1434h88l-841 -1434h-88zM561 1200q12 80 -3 115t-64 35t-77 -36t-40 -114l-51 -319q-12 -80 4 -116t65 -36q47 0 75 36.5
t40 115.5zM1186 541l-45 -287q-47 -285 -256 -285q-103 0 -146.5 71.5t-21.5 213.5l45 287q46 280 258 280q209 0 166 -280zM1688 541l-46 -287q-46 -285 -256 -285t-167 285l47 287q22 140 87 210t169 70q212 0 166 -280zM1069 557q12 79 -4.5 114.5t-63.5 35.5
q-49 0 -76.5 -36t-39.5 -114l-51 -319q-12 -80 4 -116t63 -36q49 0 77 36t40 116zM1571 557q12 80 -3.5 115t-64.5 35t-77 -36t-40 -114l-51 -319q-12 -80 4.5 -116t65.5 -36q47 0 75 36.5t40 115.5z" />
    <glyph glyph-name="guilsinglleft" unicode="&#x2039;" horiz-adv-x="561" 
d="M553 379l-33 -123l-375 240l15 92l450 239l-6 -122l-305 -162v-6z" />
    <glyph glyph-name="guilsinglright" unicode="&#x203a;" horiz-adv-x="561" 
d="M213 705l33 122l375 -237l-15 -94l-450 -240l6 123l305 162v6z" />
    <glyph glyph-name="fraction" unicode="&#x2044;" horiz-adv-x="589" 
d="M164 0h-96l585 1434h97z" />
    <glyph glyph-name="uni2074" unicode="&#x2074;" horiz-adv-x="432" 
d="M561 1434l-92 -582h31l-13 -76h-28l-23 -131h-88l21 131h-179l11 62l245 596h115zM295 852h86l37 235l51 218h-6l-31 -103z" />
    <glyph glyph-name="Euro" unicode="&#x20ac;" horiz-adv-x="647" 
d="M616 856l-34 -90h-203l-17 -98h173l-35 -90h-152l-53 -342q-12 -79 4.5 -115.5t65.5 -36.5q101 0 124 152l31 192h139l-26 -174q-23 -142 -95.5 -213.5t-187.5 -71.5q-114 0 -164.5 71.5t-29.5 213.5l51 324h-62l17 90h61l15 98h-62l14 90h62l51 328q23 140 95.5 210
t187.5 70q116 0 166.5 -70t27.5 -210l-28 -176h-142l31 192q12 77 -4.5 113.5t-65.5 36.5q-101 0 -125 -150l-53 -344h223z" />
    <glyph glyph-name="trademark" unicode="&#x2122;" horiz-adv-x="608" 
d="M469 1434l-8 -52h-55l-62 -378h-59l59 378h-57l8 52h174zM768 1434l-68 -430h-55l53 315l11 43l-4 2l-101 -360h-78l11 315v45l-5 -2l-4 -43l-47 -315h-55l70 430h94l-8 -295l-9 -72h2l15 72l82 295h96z" />
    <glyph glyph-name="minus" unicode="&#x2212;" horiz-adv-x="710" 
d="M762 752l-19 -115h-575l18 115h576z" />
    <glyph glyph-name="fi" unicode="&#xfb01;" horiz-adv-x="555" 
d="M84 0l158 991h-62l19 115h61l35 227q9 54 22 89t31 58.5t49 35t67.5 16t94.5 4.5l-18 -115q-60 0 -81.5 -16.5t-31.5 -83.5l-35 -215h82l-18 -115h-82l-156 -991h-135zM551 1174l33 208h135l-33 -208h-135zM365 0l176 1106h133l-174 -1106h-135z" />
    <glyph glyph-name="fl" unicode="&#xfb02;" horiz-adv-x="567" 
d="M84 0l158 991h-62l19 115h61l35 227q9 54 22 89t31 58.5t49 35t67.5 16t94.5 4.5l-18 -115q-60 0 -81.5 -16.5t-31.5 -83.5l-35 -215h82l-18 -115h-82l-156 -991h-135zM379 0l244 1536h135l-244 -1536h-135z" />
    <glyph glyph-name="ethbar" horiz-adv-x="428" 
d="M477 743l-16 -98h-291l14 98h293z" />
    <glyph glyph-name="crossbar" horiz-adv-x="485" 
d="M510 805l20 -90l-333 -133l-23 92z" />
    <glyph glyph-name="ethbar.case" horiz-adv-x="428" 
d="M477 743l-16 -98h-322l15 98h323z" />
    <glyph glyph-name="crossbar.case" horiz-adv-x="413" 
d="M436 791l23 -93l-258 -100l-23 90z" />
    <glyph glyph-name="commaccent" horiz-adv-x="262" 
d="M6 -383l84 363h100l-122 -363h-62z" />
    <glyph glyph-name="commaccent2" horiz-adv-x="245" 
d="M209 129l-27 -164q-18 -121 -139 -121l8 56q30 0 46 16.5t22 52.5l4 31h-55l20 129h121z" />
    <glyph glyph-name="commaccent3" horiz-adv-x="245" 
d="M23 -170l28 172q18 131 154 131l-10 -61q-63 0 -72 -74l-6 -29h61l-22 -139h-133z" />
    <glyph glyph-name="dotaccent2" horiz-adv-x="274" 
d="M260 1219l25 149h139l-25 -149h-139z" />
    <glyph glyph-name="tbarnew" horiz-adv-x="425" 
d="M477 743l-16 -98h-291l14 98h293z" />
    <glyph glyph-name="ogonek2" horiz-adv-x="1024" 
d="M602 -14l2 -15q-55 -18 -91 -56.5t-36 -88.5q-1 -38 23 -60t63 -22q31 0 84 16l-14 -88q-64 -20 -121 -20q-74 0 -115 33.5t-41 89.5q0 59 39.5 105.5t92 70.5t114.5 35z" />
    </font>
</defs>
</svg>
