<?xml version="1.0" standalone="no"?>
<!DOCTYPE svg PUBLIC "-//W3C//DTD SVG 1.1//EN" "http://www.w3.org/Graphics/SVG/1.1/DTD/svg11.dtd" >
<svg xmlns="http://www.w3.org/2000/svg" xmlns:xlink="http://www.w3.org/1999/xlink" version="1.1">
<metadata>
Created by FontForge 20201107 at Wed Feb 26 04:57:42 2020
 By 
Copyright (c) 2020 by Alexander Slobzheninov. All rights reserved.
</metadata>
<defs>
<font id="RightGrotesk-NarrowLight" horiz-adv-x="0" >
  <font-face 
    font-family="Right Grotesk Narrow Light"
    font-weight="200"
    font-stretch="condensed"
    units-per-em="2048"
    panose-1="0 0 3 6 0 0 0 0 0 0"
    ascent="1638"
    descent="-410"
    x-height="1050"
    cap-height="1400"
    bbox="-430 -370 1614 1750"
    underline-thickness="79"
    underline-position="-199"
    unicode-range="U+0020-2BA7"
  />
<missing-glyph horiz-adv-x="875" 
d="M718 1400v-1750h-555v1750h555zM583 1283h-289v-58h114v-65h-116v-57h291v57h-116v65h116v58zM467 1057h-175v-182h291v60h-116v122zM408 998v-63h-58v63h58zM583 828h-291v-58h116v-65h-116v-57h175v122h116v58zM583 723h-58v-116h-233v-59h291v175zM583 509h-175v-98
h59v41h58v-83h-175v140h-58v-197h291v197zM583 207h-291v-198h291v198zM525 149v-82h-175v82h175zM583 -32h-291v-57h123l-123 -83v-57h291v57h-179l123 83h56v57z" />
    <glyph glyph-name=".notdef" horiz-adv-x="875" 
d="M718 1400v-1750h-555v1750h555zM583 1283h-289v-58h114v-65h-116v-57h291v57h-116v65h116v58zM467 1057h-175v-182h291v60h-116v122zM408 998v-63h-58v63h58zM583 828h-291v-58h116v-65h-116v-57h175v122h116v58zM583 723h-58v-116h-233v-59h291v175zM583 509h-175v-98
h59v41h58v-83h-175v140h-58v-197h291v197zM583 207h-291v-198h291v198zM525 149v-82h-175v82h175zM583 -32h-291v-57h123l-123 -83v-57h291v57h-179l123 83h56v57z" />
    <glyph glyph-name=".null" 
 />
    <glyph glyph-name="nonmarkingreturn" horiz-adv-x="682" 
 />
    <glyph glyph-name="space" unicode=" " horiz-adv-x="264" 
 />
    <glyph glyph-name="exclam" unicode="!" horiz-adv-x="318" 
d="M94 1400h130l-20 -1085h-90zM75 163h168v-163h-168v163z" />
    <glyph glyph-name="quotedbl" unicode="&#x22;" horiz-adv-x="449" 
d="M91 926l-29 474h127l-30 -474h-68zM290 926l-30 474h128l-30 -474h-68z" />
    <glyph glyph-name="numbersign" unicode="#" horiz-adv-x="859" 
d="M831 853h-179l-33 -306h167v-91h-178l-50 -456h-112l50 456h-188l-50 -456h-112l50 456h-168v91h179l33 306h-167v92h178l50 455h112l-50 -455h188l50 455h112l-50 -455h168v-92zM507 547l33 306h-188l-33 -306h188z" />
    <glyph glyph-name="dollar" unicode="$" horiz-adv-x="744" 
d="M688 286q0 -132 -68 -210t-192 -90v-175h-108v178q-264 39 -264 419v57l119 36v-66q0 -198 51 -279t161 -81q86 0 134.5 51t48.5 143q0 87 -42 168t-135 184l-117 131q-101 107 -146 195.5t-45 198.5q1 117 60.5 186t168.5 81v186h108v-187q237 -36 237 -376v-57
l-116 -34v64q0 172 -44 244.5t-138 72.5q-76 0 -119 -43.5t-43 -120.5q0 -88 37 -161.5t132 -172.5l116 -129q100 -108 152 -205.5t52 -207.5z" />
    <glyph glyph-name="percent" unicode="%" horiz-adv-x="1165" 
d="M292 707q-106 0 -165.5 64t-59.5 188v205q0 124 59.5 188t165.5 64t165 -64t59 -188v-205q0 -124 -59 -188t-165 -64zM257 0l532 1400h118l-531 -1400h-119zM292 792q49 0 81.5 43t32.5 124v205q0 82 -32.5 125.5t-81.5 43.5q-50 0 -82 -43.5t-32 -125.5v-205
q0 -81 32 -124t82 -43zM873 -15q-106 0 -165 64t-59 188v205q0 124 59 188t165 64t165 -64t59 -188v-205q0 -124 -59 -188t-165 -64zM873 69q50 0 82 43.5t32 124.5v205q0 82 -32 125.5t-82 43.5t-82 -43.5t-32 -125.5v-205q0 -81 32 -124.5t82 -43.5z" />
    <glyph glyph-name="ampersand" unicode="&#x26;" horiz-adv-x="832" 
d="M333 -16q-127 0 -196.5 75.5t-69.5 219.5q0 242 197 447q-77 150 -106.5 240.5t-29.5 176.5q0 273 270 273q132 0 199.5 -66.5t67.5 -196.5q0 -106 -58 -198.5t-211 -235.5l190 -380q49 188 45 418l109 -46q-11 -272 -95 -478l119 -233h-126l-59 119q-87 -135 -246 -135z
M348 807q118 107 162.5 179t44.5 163q0 174 -155 174q-158 0 -158 -183q0 -75 23.5 -147.5t82.5 -185.5zM349 79q117 0 179 130l-215 422q-131 -146 -131 -337q0 -104 42 -159.5t125 -55.5z" />
    <glyph glyph-name="quotesingle" unicode="'" horiz-adv-x="251" 
d="M91 926l-29 474h127l-30 -474h-68z" />
    <glyph glyph-name="parenleft" unicode="(" horiz-adv-x="398" 
d="M380 1450q-91 -150 -140 -363.5t-49 -461.5t49 -461.5t140 -363.5h-117q-91 150 -140 363.5t-49 461.5t49 461.5t140 363.5h117z" />
    <glyph glyph-name="parenright" unicode=")" horiz-adv-x="398" 
d="M18 1450h117q91 -150 140 -363.5t49 -461.5t-49 -461.5t-140 -363.5h-117q91 150 140 363.5t49 461.5t-49 461.5t-140 363.5z" />
    <glyph glyph-name="asterisk" unicode="*" horiz-adv-x="618" 
d="M184 857l-83 60l156 183l-234 55l32 98l223 -93l-20 240h103l-20 -240l222 93l32 -98l-235 -55l157 -183l-83 -60l-125 205z" />
    <glyph glyph-name="plus" unicode="+" horiz-adv-x="667" 
d="M286 423v243h-233v95h233v242h96v-242h232v-95h-232v-243h-96z" />
    <glyph glyph-name="comma" unicode="," horiz-adv-x="291" 
d="M62 163h168v-139q0 -119 -40 -175t-141 -85l-16 61q66 23 90.5 60.5t23.5 114.5h-85v163z" />
    <glyph glyph-name="hyphen" unicode="-" horiz-adv-x="480" 
d="M53 594h375v-98h-375v98z" />
    <glyph glyph-name="period" unicode="." horiz-adv-x="291" 
d="M62 163h168v-163h-168v163z" />
    <glyph glyph-name="slash" unicode="/" horiz-adv-x="415" 
d="M0 -200l298 1650h117l-299 -1650h-116z" />
    <glyph glyph-name="zero" unicode="0" horiz-adv-x="786" 
d="M393 -16q-156 0 -237.5 114t-81.5 332v540q0 218 81.5 332t237.5 114q157 0 238 -114t81 -332v-540q0 -218 -81 -332t-238 -114zM393 79q195 0 195 347v548q0 348 -195 348t-195 -348v-548q0 -347 195 -347z" />
    <glyph glyph-name="one" unicode="1" horiz-adv-x="467" 
d="M248 0v1101h-216v82q48 2 74 3t55 6t42.5 9.5t29 17.5t21 25.5t12 38t9 50t5.5 67.5h89v-1400h-121z" />
    <glyph glyph-name="two" unicode="2" horiz-adv-x="691" 
d="M52 0v69q447 622 447 1053q0 105 -34.5 153.5t-107.5 48.5q-58 0 -93 -29t-53 -109t-15 -220v-73l-120 33v68q-3 223 68 322.5t213 99.5q262 0 262 -294q0 -224 -102 -473t-312 -543l5 -9q40 2 112 2h316v-99h-586z" />
    <glyph glyph-name="three" unicode="3" horiz-adv-x="739" 
d="M383 -16q-156 0 -236 102t-80 302v77l123 34v-82q0 -174 47.5 -257.5t145.5 -83.5q163 0 163 220v196q0 94 -42 140t-131 50l-96 3v88l91 2q82 1 120.5 44.5t38.5 133.5v171q0 201 -152 201q-89 0 -132.5 -77t-43.5 -237v-74l-120 33v69q0 186 76 281.5t222 95.5
q132 0 201 -73.5t69 -213.5v-166q0 -184 -156 -222v-19q179 -37 179 -242v-186q0 -151 -73.5 -230.5t-213.5 -79.5z" />
    <glyph glyph-name="four" unicode="4" horiz-adv-x="725" 
d="M444 0v317h-405v74l349 1009h178v-988h122v-95h-122v-317h-122zM161 412h283l3 559q0 141 7 304l-17 1q-33 -142 -77 -278z" />
    <glyph glyph-name="five" unicode="5" horiz-adv-x="725" 
d="M367 -16q-307 0 -307 320v56l123 34v-61q0 -138 46.5 -197.5t137.5 -59.5q88 0 130.5 59.5t42.5 187.5v247q0 121 -42 178.5t-128 57.5q-74 0 -119 -47.5t-71 -164.5l-101 11l37 795h514v-99h-400l-25 -482q68 78 194 78q129 0 197 -79t68 -234v-264q0 -336 -297 -336z
" />
    <glyph glyph-name="six" unicode="6" horiz-adv-x="740" 
d="M366 1416q140 0 218.5 -86t78.5 -270v-57l-122 -35v61q0 156 -45.5 225t-130.5 69q-96 0 -138 -77t-42 -261v-221q71 80 206 80q128 0 195.5 -79t67.5 -234v-222q0 -164 -73 -244.5t-222 -80.5t-221.5 90.5t-72.5 274.5v613q0 241 71 347.5t230 106.5zM359 754
q-88 0 -130.5 -48.5t-42.5 -148.5v-252q0 -117 42.5 -173t130.5 -56q90 0 131 56t41 180v218q0 116 -42.5 170t-129.5 54z" />
    <glyph glyph-name="seven" unicode="7" horiz-adv-x="614" 
d="M241 0q1 468 51 762.5t161 538.5h-417v99h542v-81q-114 -237 -164.5 -535.5t-50.5 -783.5h-122z" />
    <glyph glyph-name="eight" unicode="8" horiz-adv-x="761" 
d="M380 -16q-154 0 -232.5 71.5t-78.5 212.5v211q0 202 179 244v19q-156 45 -156 222v185q0 267 288 267q289 0 289 -267v-185q0 -177 -156 -222v-19q179 -42 179 -244v-211q0 -284 -312 -284zM380 775q169 0 169 177v196q0 91 -41.5 134.5t-127.5 43.5q-85 0 -126.5 -43.5
t-41.5 -134.5v-196q0 -177 168 -177zM380 76q95 0 141 47t46 146v224q0 98 -46 145.5t-141 47.5q-186 0 -186 -193v-224q0 -99 46 -146t140 -47z" />
    <glyph glyph-name="nine" unicode="9" horiz-adv-x="749" 
d="M373 -16q-140 0 -218.5 86t-78.5 270v57l123 35v-61q0 -156 45 -225t130 -69q96 0 138.5 77t42.5 261v221q-72 -80 -206 -80q-128 0 -195.5 79t-67.5 234v222q0 164 73 244.5t222 80.5t221.5 -90.5t72.5 -274.5v-613q0 -241 -71 -347.5t-231 -106.5zM381 646
q173 0 173 198v251q0 117 -43 173t-131 56q-90 0 -130.5 -56t-40.5 -180v-218q0 -117 42 -170.5t130 -53.5z" />
    <glyph glyph-name="colon" unicode=":" horiz-adv-x="291" 
d="M62 1050h168v-163h-168v163zM62 163h168v-163h-168v163z" />
    <glyph glyph-name="semicolon" unicode=";" horiz-adv-x="291" 
d="M62 1050h168v-163h-168v163zM62 163h168v-139q0 -119 -40 -175t-141 -85l-16 61q66 23 90.5 60.5t23.5 114.5h-85v163z" />
    <glyph glyph-name="less" unicode="&#x3c;" horiz-adv-x="632" 
d="M580 487l-527 147v133l527 146v-102l-251 -65q-69 -17 -179 -35v-20q99 -16 179 -36l251 -65v-103z" />
    <glyph glyph-name="equal" unicode="=" horiz-adv-x="631" 
d="M53 785v99h526v-99h-526zM53 518v99h526v-99h-526z" />
    <glyph glyph-name="greater" unicode="&#x3e;" horiz-adv-x="633" 
d="M53 487v103l250 65q85 21 180 36v20q-106 17 -180 35l-250 65v102l527 -146v-133z" />
    <glyph glyph-name="question" unicode="?" horiz-adv-x="583" 
d="M228 315q-22 49 -27 97t6.5 99.5t26.5 92t43 99.5l62 130q88 189 88 329q0 85 -30 124t-95 39q-76 0 -106.5 -65.5t-30.5 -216.5v-67l-123 30v60q0 178 64.5 264t196.5 86q238 0 238 -257q0 -165 -112 -380l-71 -139q-40 -77 -54.5 -126t-3.5 -96.5t56 -89.5l-4 -13h-124
zM228 163h168v-163h-168v163z" />
    <glyph glyph-name="at" unicode="@" horiz-adv-x="1262" 
d="M658 -263q-276 0 -430.5 163t-154.5 459v334q0 294 148.5 452.5t415.5 158.5q261 0 406.5 -158.5t145.5 -452.5v-321q0 -188 -65.5 -288t-187.5 -99q-87 0 -123.5 55.5t-19.5 154.5l-19 4q-25 -105 -83.5 -159.5t-144.5 -54.5q-87 0 -134.5 56t-47.5 157v46
q0 71 17.5 127t52.5 96t75.5 67.5t96.5 52.5l138 62v180q0 146 -113 146q-72 0 -102 -52t-29 -179v-83l-120 29v77q-2 154 60 226.5t192 72.5q234 0 234 -231v-640q0 -118 76 -118q64 0 98.5 74t34.5 220v321q0 248 -115.5 381.5t-322.5 133.5q-213 0 -331 -133t-118 -381
v-334q0 -249 125.5 -386t346.5 -137q190 0 352 78l28 -97q-165 -80 -382 -80zM583 82q71 0 116.5 65.5t45.5 176.5v220l-94 -40q-78 -35 -120.5 -90t-42.5 -153v-44q0 -64 24.5 -99.5t70.5 -35.5z" />
    <glyph glyph-name="A" unicode="A" horiz-adv-x="740" 
d="M22 0l277 1400h141l277 -1400h-126l-63 318h-321l-63 -318h-122zM224 413h286l-76 411q-36 200 -58 392h-18q-21 -188 -57 -392z" />
    <glyph glyph-name="B" unicode="B" horiz-adv-x="749" 
d="M98 0v1400h282q281 0 281 -282v-134q0 -99 -47 -158t-135 -73v-20q103 -14 157 -85t54 -194v-143q0 -154 -76 -232.5t-224 -78.5h-292zM220 786h143q92 0 134.5 45.5t42.5 143.5v138q0 97 -42.5 143t-134.5 46h-143v-516zM220 99h152q97 0 144.5 53t47.5 163v149
q0 117 -47.5 172.5t-144.5 55.5h-152v-593z" />
    <glyph glyph-name="C" unicode="C" horiz-adv-x="803" 
d="M410 -16q-165 0 -250.5 114.5t-85.5 335.5v531q0 221 85 336t249 115q315 0 315 -425v-69l-120 -34v74q0 197 -48 280t-146 83q-106 0 -158 -88t-52 -268v-537q0 -180 52.5 -267.5t159.5 -87.5q100 0 150 84t50 284v83l123 -34v-78q0 -432 -324 -432z" />
    <glyph glyph-name="D" unicode="D" horiz-adv-x="790" 
d="M98 0v1400h249q186 0 277.5 -113.5t91.5 -343.5v-488q0 -229 -91.5 -342t-277.5 -113h-249zM220 99h125q130 0 188.5 83.5t58.5 268.5v496q0 186 -58.5 270.5t-188.5 84.5h-125v-1203z" />
    <glyph glyph-name="E" unicode="E" horiz-adv-x="645" 
d="M220 100h374v-100h-496v1400h481v-100h-359v-499h324v-96h-324v-605z" />
    <glyph glyph-name="F" unicode="F" horiz-adv-x="615" 
d="M98 0v1400h469v-100h-347v-516h312v-98h-312v-686h-122z" />
    <glyph glyph-name="G" unicode="G" horiz-adv-x="829" 
d="M364 -15q-143 0 -216.5 114t-73.5 335v535q0 219 86.5 333t253.5 114q146 0 228 -94t82 -296v-68l-121 -34v73q0 179 -47 253t-142 74q-109 0 -162 -87t-53 -265v-535q0 -183 46 -271t142 -88q101 0 162 150.5t75 430.5h-244v97h356v-756h-112q-3 98 42 327l-20 4
q-42 -182 -109.5 -264t-172.5 -82z" />
    <glyph glyph-name="H" unicode="H" horiz-adv-x="813" 
d="M593 1400h122v-1400h-122v704h-373v-704h-122v1400h122v-597h373v597z" />
    <glyph glyph-name="I" unicode="I" horiz-adv-x="318" 
d="M98 1400h122v-1400h-122v1400z" />
    <glyph glyph-name="J" unicode="J" horiz-adv-x="660" 
d="M307 -16q-268 0 -268 348v40l124 27v-45q0 -153 34.5 -215.5t110.5 -62.5q135 0 135 181v1143h122v-1153q0 -129 -65.5 -196t-192.5 -67z" />
    <glyph glyph-name="K" unicode="K" horiz-adv-x="721" 
d="M98 0v1400h122v-336q0 -156 -21 -313l18 -7l352 656h129l-285 -518l276 -882h-130l-227 753l-112 -195v-558h-122z" />
    <glyph glyph-name="L" unicode="L" horiz-adv-x="592" 
d="M98 0v1400h122v-1300h342v-100h-464z" />
    <glyph glyph-name="M" unicode="M" horiz-adv-x="1050" 
d="M98 0v1400h177l186 -839q30 -151 56 -361h14q23 192 56 361l185 839h180v-1400h-121v788q0 196 17 417l-20 1l-251 -1206h-111l-249 1207l-21 -1q13 -220 13 -418v-788h-111z" />
    <glyph glyph-name="N" unicode="N" horiz-adv-x="827" 
d="M98 0v1400h164l291 -947q32 -120 58 -267l21 2q-18 188 -18 365l-2 847h117v-1400h-163l-285 943q-43 166 -63 274l-21 -1q16 -173 16 -336l1 -880h-116z" />
    <glyph glyph-name="O" unicode="O" horiz-adv-x="838" 
d="M419 -16q-170 0 -257.5 114.5t-87.5 335.5v531q0 222 87.5 336.5t257.5 114.5q169 0 256.5 -114.5t87.5 -336.5v-531q0 -221 -87.5 -335.5t-256.5 -114.5zM419 79q111 0 165.5 86.5t54.5 264.5v539q0 180 -54.5 266.5t-165.5 86.5t-165.5 -86.5t-54.5 -266.5v-539
q0 -178 54.5 -264.5t165.5 -86.5z" />
    <glyph glyph-name="P" unicode="P" horiz-adv-x="717" 
d="M362 1400q308 0 308 -328v-200q0 -160 -78 -242.5t-230 -82.5h-142v-547h-122v1400h264zM348 644q102 0 150.5 54t48.5 169v210q0 117 -48 171t-151 54h-128v-658h128z" />
    <glyph glyph-name="Q" unicode="Q" horiz-adv-x="838" 
d="M763 434q0 -208 -78 -322t-228 -126q-10 -77 20 -110.5t113 -38.5l72 -4l-35 -125q-120 21 -188 93.5t-74 185.5q-143 18 -217 131.5t-74 315.5v531q0 222 87.5 336.5t257.5 114.5q169 0 256.5 -114.5t87.5 -336.5v-531zM199 430q0 -178 54.5 -264.5t165.5 -86.5
t165.5 86.5t54.5 264.5v539q0 180 -54.5 266.5t-165.5 86.5t-165.5 -86.5t-54.5 -266.5v-539z" />
    <glyph glyph-name="R" unicode="R" horiz-adv-x="752" 
d="M98 0v1400h264q310 0 310 -302v-97q0 -118 -57 -186t-167 -81v-14q71 -18 107 -68.5t57 -174.5l29 -170q22 -129 43.5 -194t51.5 -92l-3 -21h-146q-20 45 -35 111t-34 196l-25 168q-18 123 -54 165t-118 42h-101v-682h-122zM220 779h127q102 0 151.5 50t49.5 154v114
q0 106 -49 155.5t-152 49.5h-127v-523z" />
    <glyph glyph-name="S" unicode="S" horiz-adv-x="744" 
d="M385 -16q-329 0 -329 424v57l119 36v-66q0 -198 51 -279t161 -81q86 0 134.5 51t48.5 143q0 87 -42 168t-135 184l-117 131q-101 107 -146 195.5t-45 198.5q1 129 73 199.5t204 70.5q297 0 297 -380v-57l-116 -34v64q0 172 -44 244.5t-138 72.5q-76 0 -119 -43.5
t-43 -120.5q0 -88 37 -161.5t132 -172.5l116 -129q100 -108 152 -205.5t52 -207.5q0 -144 -79.5 -223t-223.5 -79z" />
    <glyph glyph-name="T" unicode="T" horiz-adv-x="659" 
d="M269 0v1300h-251v100h623v-100h-250v-1300h-122z" />
    <glyph glyph-name="U" unicode="U" horiz-adv-x="801" 
d="M584 1400h122v-1104q0 -159 -75 -235.5t-230 -76.5t-230.5 76.5t-75.5 235.5v1104h122v-1096q0 -117 45 -171.5t139 -54.5t138.5 54.5t44.5 171.5v1096z" />
    <glyph glyph-name="V" unicode="V" horiz-adv-x="727" 
d="M296 0l-274 1400h127l153 -816q30 -172 56 -394h18q23 210 54 395l152 815h123l-272 -1400h-137z" />
    <glyph glyph-name="W" unicode="W" horiz-adv-x="1116" 
d="M247 0l-224 1400h123l124 -826q27 -178 42 -387h21q15 225 37 387l118 826h142l118 -826q24 -165 37 -386h21q16 193 43 386l124 826h120l-223 -1400h-148l-104 778q-28 202 -49 401h-21q-15 -156 -48 -401l-106 -778h-147z" />
    <glyph glyph-name="X" unicode="X" horiz-adv-x="701" 
d="M16 0l249 734l-224 666h129l140 -440q17 -56 30 -122h16q18 82 32 122l151 440h121l-235 -661l260 -739h-134l-159 500q-17 51 -39 137h-16q-16 -75 -36 -137l-161 -500h-124z" />
    <glyph glyph-name="Y" unicode="Y" horiz-adv-x="698" 
d="M678 1400l-268 -832v-568h-122v568l-268 832h131l130 -426q36 -132 63 -270h15q23 120 64 270l131 426h124z" />
    <glyph glyph-name="Z" unicode="Z" horiz-adv-x="605" 
d="M21 0l-3 7l358 1170q28 82 46 117l-6 9q-47 -2 -130 -2h-250v99h531l2 -7l-348 -1161q-26 -75 -50 -125l6 -9q38 1 112 1h297v-99h-565z" />
    <glyph glyph-name="bracketleft" unicode="[" horiz-adv-x="385" 
d="M365 1351h-150v-1452h150v-99h-267v1650h267v-99z" />
    <glyph glyph-name="backslash" unicode="\" horiz-adv-x="415" 
d="M415 -200h-116l-299 1650h117z" />
    <glyph glyph-name="bracketright" unicode="]" horiz-adv-x="386" 
d="M21 1351v99h267v-1650h-267v99h150v1452h-150z" />
    <glyph glyph-name="asciicircum" unicode="^" horiz-adv-x="800" 
d="M98 957l254 443h96l254 -443h-123l-108 184q-41 84 -63 151h-16q-20 -61 -63 -151l-108 -184h-123z" />
    <glyph glyph-name="underscore" unicode="_" horiz-adv-x="380" 
d="M0 -72h380v-94h-380v94z" />
    <glyph glyph-name="grave" unicode="`" horiz-adv-x="238" 
d="M121 1400l117 -259h-96l-142 259h121z" />
    <glyph glyph-name="a" unicode="a" horiz-adv-x="679" 
d="M247 -16q-87 0 -135.5 57t-48.5 157v39q0 72 18 128t53 96.5t75.5 68t97.5 53.5l139 63v179q0 154 -116 154q-76 0 -106.5 -57t-29.5 -200v-61l-115 30v56q-1 166 61 242.5t191 76.5q232 0 232 -234v-657q0 -53 11 -70t46 -19l32 -2l-23 -97q-11 -3 -33 -3
q-86 0 -108.5 51t7.5 163l-19 5q-27 -107 -86 -163t-143 -56zM281 79q72 0 118.5 67t46.5 181v219l-95 -41q-81 -35 -125 -91.5t-44 -156.5v-40q0 -66 25.5 -102t73.5 -36z" />
    <glyph glyph-name="b" unicode="b" horiz-adv-x="703" 
d="M410 -15q-86 0 -139.5 51t-86.5 157l-19 -6q39 -139 36 -187h-111v1400h117v-290q0 -107 -41 -247l19 -6q58 208 226 208q108 0 166 -88t58 -252v-404q0 -162 -58.5 -249t-166.5 -87zM374 75q142 0 142 259v382q0 260 -142 260q-80 0 -123.5 -82t-43.5 -233v-272
q0 -150 43.5 -232t123.5 -82z" />
    <glyph glyph-name="c" unicode="c" horiz-adv-x="668" 
d="M340 -16q-133 0 -202.5 91t-69.5 265v378q0 171 69.5 259.5t205.5 88.5q120 0 188 -80.5t68 -249.5v-51l-116 -27v55q0 142 -35.5 203.5t-104.5 61.5q-156 0 -156 -256v-384q0 -134 38.5 -199.5t117.5 -65.5q70 0 107 55t37 183v67l118 -27v-53q0 -163 -71 -239t-194 -75
z" />
    <glyph glyph-name="d" unicode="d" horiz-adv-x="703" 
d="M293 -15q-108 0 -166.5 87t-58.5 249v404q0 164 58 252t166 88q168 0 226 -208l19 6q-41 140 -41 247v290h117v-1400h-111q-3 48 36 187l-19 6q-33 -106 -86.5 -157t-139.5 -51zM329 75q80 0 123.5 82t43.5 232v272q0 151 -43.5 233t-123.5 82q-142 0 -142 -260v-382
q0 -259 142 -259z" />
    <glyph glyph-name="e" unicode="e" horiz-adv-x="680" 
d="M497 370l115 -27v-50q0 -158 -73.5 -234t-197.5 -75q-134 0 -203.5 89.5t-69.5 260.5v384q0 171 70.5 259.5t207.5 88.5q127 0 193 -79.5t66 -231.5q0 -12 -3 -243h-417v-181q0 -130 39 -194t120 -64q153 0 153 244v53zM347 978q-162 0 -162 -257v-113h303v150
q0 220 -141 220z" />
    <glyph glyph-name="f" unicode="f" horiz-adv-x="467" 
d="M143 0v954h-119v96h119v62q0 125 69.5 197t211.5 107l24 -124l-86 -4q-65 -4 -84.5 -26t-19.5 -90v-122h185v-96h-183v-954h-117z" />
    <glyph glyph-name="g" unicode="g" horiz-adv-x="624" 
d="M375 208q35 -9 64.5 -21t62 -35.5t54.5 -54.5t36.5 -79t14.5 -108q0 -276 -297 -276q-293 0 -293 262q0 101 31.5 161t98.5 89v17q-103 48 -103 143q0 97 101 125v18q-77 82 -77 279q0 176 60.5 257t185.5 81q48 0 87 -12q-33 216 175 253l27 -124l-57 -9
q-109 -18 -96 -144q105 -72 105 -302q0 -177 -59.5 -258.5t-182.5 -81.5q-58 0 -103 18q-80 -12 -80 -68q0 -39 31.5 -60.5t111.5 -43.5zM313 981q-68 0 -97.5 -57.5t-29.5 -195.5q0 -139 29.5 -196.5t97.5 -57.5q67 0 96 57.5t29 196.5q0 137 -29 195t-96 58zM313 -272
q190 0 190 178q0 95 -45 140.5t-130 65.5l-94 22q-66 -28 -92 -79t-26 -142q0 -185 197 -185z" />
    <glyph glyph-name="h" unicode="h" horiz-adv-x="693" 
d="M90 0v1400h117v-331q0 -101 -37 -224l18 -7q40 120 99 173.5t141 53.5q87 0 132 -50t45 -146v-869h-117v849q0 59 -26 90.5t-74 31.5q-78 0 -129.5 -98.5t-51.5 -250.5v-622h-117z" />
    <glyph glyph-name="i" unicode="i" horiz-adv-x="298" 
d="M73 1198v163h152v-163h-152zM90 0v1050h117v-1050h-117z" />
    <glyph glyph-name="j" unicode="j" horiz-adv-x="302" 
d="M77 1198v163h152v-163h-152zM-74 -366l-31 128l81 8q66 7 92.5 32.5t26.5 91.5v1156h117v-1008q0 -177 -70.5 -275t-215.5 -133z" />
    <glyph glyph-name="k" unicode="k" horiz-adv-x="613" 
d="M90 0v1400h117v-442q0 -181 -22 -318l12 -6l273 416h124l-222 -334l214 -716h-123l-173 616l-83 -118v-498h-117z" />
    <glyph glyph-name="l" unicode="l" horiz-adv-x="298" 
d="M90 1400h117v-1400h-117v1400z" />
    <glyph glyph-name="m" unicode="m" horiz-adv-x="1028" 
d="M90 0v1050h122q1 -55 -42 -201l18 -6q41 120 92.5 171t127.5 51q84 0 117 -56t10 -162l18 -6q36 119 90.5 171.5t133.5 52.5q163 0 163 -191v-874h-117v856q0 114 -90 114q-72 0 -115.5 -98.5t-43.5 -248.5v-623h-117v854q0 117 -86 117q-72 0 -118 -99.5t-46 -252.5
v-619h-117z" />
    <glyph glyph-name="n" unicode="n" horiz-adv-x="693" 
d="M90 0v1050h122q0 -60 -42 -205l18 -7q40 120 99 173.5t141 53.5q87 0 132 -50.5t45 -145.5v-869h-117v850q0 122 -99 122q-79 0 -130.5 -99t-51.5 -251v-622h-117z" />
    <glyph glyph-name="o" unicode="o" horiz-adv-x="681" 
d="M340 -16q-133 0 -203 90t-70 261v380q0 171 70 261t203 90t203.5 -90t70.5 -261v-380q0 -171 -70.5 -261t-203.5 -90zM340 73q154 0 154 260v384q0 261 -154 261q-153 0 -153 -261v-384q0 -260 153 -260z" />
    <glyph glyph-name="p" unicode="p" horiz-adv-x="703" 
d="M410 1065q108 0 166.5 -87t58.5 -249v-404q0 -164 -58 -252t-166 -88q-168 0 -226 208l-19 -6q41 -140 41 -247v-290h-117v1400h111q3 -48 -36 -187l19 -6q33 106 86.5 157t139.5 51zM374 975q-80 0 -123.5 -82t-43.5 -232v-272q0 -151 43.5 -233t123.5 -82
q142 0 142 260v382q0 259 -142 259z" />
    <glyph glyph-name="q" unicode="q" horiz-adv-x="703" 
d="M293 1065q86 0 139.5 -51t86.5 -157l19 6q-39 139 -36 187h111v-1400h-117v290q0 107 41 247l-19 6q-58 -208 -226 -208q-108 0 -166 88t-58 252v404q0 162 58.5 249t166.5 87zM329 975q-142 0 -142 -259v-382q0 -260 142 -260q80 0 123.5 82t43.5 233v272
q0 150 -43.5 232t-123.5 82z" />
    <glyph glyph-name="r" unicode="r" horiz-adv-x="496" 
d="M90 0v1050h123q1 -61 -42 -207l19 -6q42 126 97.5 177.5t156.5 57.5l27 -111l-60 -8q-108 -12 -156 -93t-48 -254v-606h-117z" />
    <glyph glyph-name="s" unicode="s" horiz-adv-x="606" 
d="M316 -16q-128 0 -197.5 76.5t-69.5 235.5v35l110 38v-44q0 -133 39 -192.5t118 -59.5q62 0 97 36.5t35 103.5q0 70 -33.5 129.5t-106.5 127.5l-95 87q-75 71 -111 137t-36 146q0 111 57.5 168.5t168.5 57.5q243 0 243 -272v-36l-111 -34v44q0 114 -32 162t-99 48
q-58 0 -89.5 -31t-31.5 -89t29 -111t98 -117l94 -87q81 -74 123 -146.5t42 -166.5q0 -118 -63 -182t-179 -64z" />
    <glyph glyph-name="t" unicode="t" horiz-adv-x="502" 
d="M325 -15q-92 0 -137 48.5t-45 153.5v767h-119v96h119v258l117 47v-305h211v-96h-211v-756q0 -60 22.5 -85t70.5 -25q57 0 118 30l-8 -98q-53 -35 -138 -35z" />
    <glyph glyph-name="u" unicode="u" horiz-adv-x="693" 
d="M603 1050v-1050h-122q2 66 43 205l-19 7q-40 -120 -99 -173.5t-141 -53.5q-87 0 -132 50.5t-45 145.5v869h117v-850q0 -59 25.5 -90.5t74.5 -31.5q79 0 130 99t51 251v622h117z" />
    <glyph glyph-name="v" unicode="v" horiz-adv-x="608" 
d="M242 0l-225 1050h121l100 -489q41 -211 58 -373h18q18 165 59 373l101 489h116l-223 -1050h-125z" />
    <glyph glyph-name="w" unicode="w" horiz-adv-x="913" 
d="M194 0l-174 1050h119l84 -576q22 -158 32 -286h16q13 145 35 287l89 575h125l90 -575q23 -146 34 -287h17q10 146 31 286l85 576h116l-174 -1050h-132l-86 569q-25 151 -36 293h-16q-12 -141 -36 -293l-88 -569h-131z" />
    <glyph glyph-name="x" unicode="x" horiz-adv-x="604" 
d="M15 0l214 544l-196 506h125l107 -300q15 -47 30 -111h14q8 36 31 110l113 301h119l-202 -503l219 -547h-129l-123 336q-21 65 -30 115h-15q-11 -54 -32 -115l-122 -336h-123z" />
    <glyph glyph-name="y" unicode="y" horiz-adv-x="604" 
d="M47 -366l-31 125l94 11q68 8 93 35.5t30 97.5l7 92l-223 1055h121l107 -616q36 -182 55 -344h15q17 146 54 344l104 616h114l-200 -996q-39 -203 -116 -296t-224 -124z" />
    <glyph glyph-name="z" unicode="z" horiz-adv-x="558" 
d="M33 0l-4 11l317 872q12 34 26 63l-5 9q-20 -1 -62 -1h-252v96h467l4 -11l-306 -868q-13 -31 -31 -66l5 -10q18 1 50 1h291v-96h-500z" />
    <glyph glyph-name="braceleft" unicode="{" horiz-adv-x="420" 
d="M399 1351h-49q-90 0 -90 -95v-426q0 -153 -116 -195v-20q116 -42 116 -195v-426q0 -95 90 -95h49v-99h-78q-178 0 -178 183v432q0 132 -113 156v108q113 24 113 156v432q0 183 176 183h80v-99z" />
    <glyph glyph-name="bar" unicode="|" horiz-adv-x="310" 
d="M98 -200v1650h115v-1650h-115z" />
    <glyph glyph-name="braceright" unicode="}" horiz-adv-x="420" 
d="M21 1351v99h80q176 0 176 -183v-432q0 -132 113 -156v-108q-113 -24 -113 -156v-432q0 -183 -178 -183h-78v99h50q89 0 89 95v426q0 153 116 195v20q-116 42 -116 195v426q0 95 -89 95h-50z" />
    <glyph glyph-name="asciitilde" unicode="~" horiz-adv-x="632" 
d="M447 599q-34 0 -73 18t-68 39.5t-61.5 39.5t-53.5 18q-58 0 -63 -118h-75q5 211 135 211q33 0 71.5 -18t67.5 -39.5t61.5 -39.5t53.5 -18q59 0 62 110h75q-5 -203 -132 -203z" />
    <glyph glyph-name="exclamdown" unicode="&#xa1;" horiz-adv-x="318" 
d="M243 887h-168v163h168v-163zM224 -350h-131l21 1085h90z" />
    <glyph glyph-name="cent" unicode="&#xa2;" horiz-adv-x="668" 
d="M487 378l118 -27v-53q0 -144 -56 -220t-155 -90v-177h-103v176q-110 17 -166.5 106.5t-56.5 246.5v378q0 312 223 344v186h103v-186q205 -33 205 -326v-51l-116 -27v55q0 142 -35.5 203.5t-104.5 61.5q-156 0 -156 -256v-384q0 -134 38.5 -199.5t117.5 -65.5q70 0 107 55
t37 183v67z" />
    <glyph glyph-name="sterling" unicode="&#xa3;" horiz-adv-x="764" 
d="M33 0v68q69 63 94 152.5t25 253.5v137h-115v96h115v412q0 146 70 221.5t204 75.5q141 0 210.5 -82t69.5 -262v-72l-118 -34v77q0 156 -37.5 219.5t-125.5 63.5q-154 0 -154 -203v-416h329v-96h-329v-133q0 -147 -19 -226t-73 -142l5 -10q46 2 143 2h397v-102h-691z" />
    <glyph glyph-name="currency" unicode="&#xa4;" horiz-adv-x="880" 
d="M100 288l-72 73l149 149q-62 83 -62 193q0 108 60 190l-147 146l72 73l148 -147q81 57 186 57q110 0 193 -62l152 152l73 -73l-153 -153q54 -79 54 -183q0 -108 -57 -187l156 -155l-73 -73l-155 156q-81 -59 -190 -59q-106 0 -183 54zM434 485q95 0 157 61.5t62 156.5
t-62 156.5t-157 61.5q-94 0 -156 -61.5t-62 -156.5t61.5 -156.5t156.5 -61.5z" />
    <glyph glyph-name="yen" unicode="&#xa5;" horiz-adv-x="698" 
d="M678 1400l-257 -799h168v-90h-179v-83h179v-90h-179v-338h-122v338h-178v90h178v83h-178v90h167l-257 799h131l130 -426q36 -132 63 -270h15q23 120 64 270l131 426h124z" />
    <glyph glyph-name="brokenbar" unicode="&#xa6;" horiz-adv-x="310" 
d="M98 705v745h115v-745h-115zM213 545v-745h-115v745h115z" />
    <glyph glyph-name="section" unicode="&#xa7;" horiz-adv-x="661" 
d="M342 -16q-145 0 -215.5 73t-70.5 222v38l114 27v-45q0 -120 41 -174t133 -54q70 0 108 32t38 88q0 63 -34 109.5t-113 99.5l-101 69q-83 56 -121 108t-38 130q0 167 180 210v8q-94 77 -132 137.5t-38 142.5q0 101 62.5 156t180.5 55q129 0 191.5 -65.5t62.5 -200.5v-38
l-108 -26v45q0 104 -35.5 151.5t-111.5 47.5q-63 0 -98 -30.5t-35 -84.5q0 -68 30.5 -115t104.5 -93l99 -62q82 -51 125 -108.5t43 -136.5q0 -81 -45 -133.5t-129 -70.5v-13q94 -77 134.5 -140.5t40.5 -145.5q0 -100 -68 -156.5t-195 -56.5zM342 540q72 12 112.5 51.5
t40.5 99.5q0 57 -33 96.5t-119 81.5q-73 -11 -113 -51.5t-40 -103.5q0 -51 34 -91t118 -83z" />
    <glyph glyph-name="dieresis" unicode="&#xa8;" horiz-adv-x="363" 
d="M0 1198v163h129v-163h-129zM234 1198v163h129v-163h-129z" />
    <glyph glyph-name="copyright" unicode="&#xa9;" horiz-adv-x="1277" 
d="M638 -252q-264 0 -414 156t-150 431v383q0 275 150 432t414 157t414 -157t150 -432v-383q0 -275 -150 -431t-414 -156zM638 -159q211 0 332 132t121 362v383q0 231 -121 363t-332 132t-331.5 -132t-120.5 -363v-383q0 -230 120.5 -362t331.5 -132zM642 -14
q-133 0 -202.5 91t-69.5 265v378q0 171 69.5 259.5t205.5 88.5q120 0 188 -80.5t68 -249.5v-51l-116 -27v55q0 142 -35.5 203.5t-104.5 61.5q-156 0 -156 -256v-384q0 -134 38.5 -199.5t117.5 -65.5q70 0 107 55t37 183v67l118 -27v-53q0 -163 -71 -239t-194 -75z" />
    <glyph glyph-name="guillemotleft" unicode="&#xab;" horiz-adv-x="684" 
d="M270 100l-203 425l204 425h109l-195 -425l195 -425h-110zM507 100l-203 425l203 425h110l-196 -425l196 -425h-110z" />
    <glyph glyph-name="logicalnot" unicode="&#xac;" horiz-adv-x="631" 
d="M473 492v257h-420v99h526v-356h-106z" />
    <glyph glyph-name="registered" unicode="&#xae;" horiz-adv-x="852" 
d="M426 562q-160 0 -256 93.5t-96 249.5v166q0 156 96 249.5t256 93.5q161 0 256.5 -93t95.5 -250v-166q0 -156 -96 -249.5t-256 -93.5zM426 637q125 0 196.5 71.5t71.5 196.5v166q0 125 -71.5 196.5t-196.5 71.5t-196.5 -71.5t-71.5 -196.5v-166q0 -125 71.5 -196.5
t196.5 -71.5zM286 712v558h154q67 0 103.5 -31t36.5 -89v-39q0 -46 -27.5 -72.5t-76.5 -31.5v-10q30 -8 45 -27.5t24 -67.5l11 -68q14 -89 40 -110l-4 -12h-92q-11 25 -27 122l-10 63q-7 47 -19 60t-47 13h-27v-258h-84zM370 1042h46q81 0 81 64v40q0 55 -73 55h-54v-159z
" />
    <glyph glyph-name="macron" unicode="&#xaf;" horiz-adv-x="390" 
d="M0 1184v90h390v-90h-390z" />
    <glyph glyph-name="degree" unicode="&#xb0;" horiz-adv-x="607" 
d="M303 845q-107 0 -171.5 66t-64.5 175v88q0 109 64.5 175.5t171.5 66.5t171.5 -66t64.5 -176v-88q0 -110 -64.5 -175.5t-171.5 -65.5zM303 938q61 0 98 40.5t37 106.5v90q0 66 -37 106.5t-98 40.5q-60 0 -97 -40.5t-38 -106.5v-90q0 -66 37.5 -106.5t97.5 -40.5z" />
    <glyph glyph-name="plusminus" unicode="&#xb1;" horiz-adv-x="667" 
d="M286 582v178h-233v94h233v177h96v-177h232v-94h-232v-178h-96zM53 423v95h561v-95h-561z" />
    <glyph glyph-name="acute" unicode="&#xb4;" horiz-adv-x="238" 
d="M117 1400h121l-142 -259h-96z" />
    <glyph glyph-name="paragraph" unicode="&#xb6;" horiz-adv-x="1103" 
d="M484 -350v936q-188 0 -299 110.5t-111 297.5q0 188 117 297t330 109h507v-102h-139v-1648h-118v1648h-170v-1648h-117z" />
    <glyph glyph-name="periodcentered" unicode="&#xb7;" horiz-adv-x="291" 
d="M62 616h168v-162h-168v162z" />
    <glyph glyph-name="cedilla" unicode="&#xb8;" horiz-adv-x="273" 
d="M121 -370q-68 0 -121 33l14 76q48 -30 100 -30q34 0 53.5 19t19.5 52q0 43 -35.5 65t-105.5 30l19 135h88l-14 -91q134 -30 134 -146q0 -67 -40.5 -105t-111.5 -38z" />
    <glyph glyph-name="guillemotright" unicode="&#xbb;" horiz-adv-x="684" 
d="M177 100h-110l196 425l-196 425h110l203 -425zM414 100h-110l195 425l-195 425h109l204 -425z" />
    <glyph glyph-name="onequarter" unicode="&#xbc;" horiz-adv-x="1328" 
d="M39 557v89h196v527h-184v76q53 1 79.5 2.5t54 8t37 14t20 26.5t13.5 40t6 60h83v-754h157v-89h-462zM355 0l578 1400h111l-579 -1400h-110zM1100 0v157h-282v74l230 612h162v-599h79v-87h-79v-157h-110zM921 244h179l3 296q0 87 5 192l-13 1q-32 -124 -50 -179z" />
    <glyph glyph-name="onehalf" unicode="&#xbd;" horiz-adv-x="1376" 
d="M39 557v89h196v527h-184v76q53 1 79.5 2.5t54 8t37 14t20 26.5t13.5 40t6 60h83v-754h157v-89h-462zM355 0l578 1400h111l-579 -1400h-110zM890 0v63q161 186 234.5 328.5t72.5 264.5q0 60 -21.5 87t-67.5 27q-54 0 -76.5 -46t-22.5 -157v-36l-108 23v32q0 140 50.5 204
t158.5 64q197 0 197 -194q1 -129 -63 -257t-211 -309l3 -7q28 2 80 2h204v-89h-430z" />
    <glyph glyph-name="threequarters" unicode="&#xbe;" horiz-adv-x="1306" 
d="M276 545q-223 0 -223 259v38l108 24v-43q0 -107 29.5 -151.5t86.5 -44.5q52 0 76.5 31.5t24.5 103.5v70q0 64 -25.5 92.5t-77.5 30.5l-66 3v78l64 2q48 2 71.5 28t23.5 83v59q0 63 -24 91.5t-74 28.5q-54 0 -80 -43.5t-26 -137.5v-34l-106 23v29q0 123 54.5 184.5
t158.5 61.5q204 0 204 -198v-54q0 -68 -27 -104t-83 -49v-15q63 -11 93.5 -51t30.5 -114v-69q0 -212 -213 -212zM333 0l578 1400h111l-579 -1400h-110zM1078 0v157h-282v74l230 612h162v-599h79v-87h-79v-157h-110zM899 244h179l3 296q0 87 5 192l-13 1q-32 -124 -50 -179z
" />
    <glyph glyph-name="questiondown" unicode="&#xbf;" horiz-adv-x="587" 
d="M359 887h-168v163h168v-163zM358 735q22 -49 27 -97.5t-6 -99t-26.5 -92t-43.5 -99.5l-61 -130q-88 -189 -88 -329q0 -86 29.5 -124.5t95.5 -38.5q76 0 106.5 65.5t30.5 216.5v67l123 -30v-60q0 -178 -64.5 -264t-196.5 -86q-238 0 -238 257q0 165 112 380l71 139
q39 77 53.5 126t4 96.5t-55.5 89.5l4 13h123z" />
    <glyph glyph-name="Agrave" unicode="&#xc0;" horiz-adv-x="740" 
d="M418 1491h-103l-123 189h127zM22 0l277 1400h141l277 -1400h-126l-63 318h-321l-63 -318h-122zM224 413h286l-76 411q-36 200 -58 392h-18q-21 -188 -57 -392z" />
    <glyph glyph-name="Aacute" unicode="&#xc1;" horiz-adv-x="740" 
d="M323 1491l98 189h128l-123 -189h-103zM22 0l277 1400h141l277 -1400h-126l-63 318h-321l-63 -318h-122zM224 413h286l-76 411q-36 200 -58 392h-18q-21 -188 -57 -392z" />
    <glyph glyph-name="Acircumflex" unicode="&#xc2;" horiz-adv-x="740" 
d="M178 1491l133 189h118l132 -189h-101l-90 108l-91 -108h-101zM22 0l277 1400h141l277 -1400h-126l-63 318h-321l-63 -318h-122zM224 413h286l-76 411q-36 200 -58 392h-18q-21 -188 -57 -392z" />
    <glyph glyph-name="Atilde" unicode="&#xc3;" horiz-adv-x="740" 
d="M464 1495q-33 0 -70 22.5t-67.5 44.5t-47.5 22q-22 0 -32 -19.5t-11 -64.5h-70q3 167 111 167q32 0 68.5 -22.5t67.5 -44.5t48 -22q22 0 31.5 19.5t10.5 64.5h70q-4 -167 -109 -167zM22 0l277 1400h141l277 -1400h-126l-63 318h-321l-63 -318h-122zM224 413h286l-76 411
q-36 200 -58 392h-18q-21 -188 -57 -392z" />
    <glyph glyph-name="Adieresis" unicode="&#xc4;" horiz-adv-x="740" 
d="M189 1508v163h129v-163h-129zM423 1508v163h129v-163h-129zM22 0l277 1400h141l277 -1400h-126l-63 318h-321l-63 -318h-122zM224 413h286l-76 411q-36 200 -58 392h-18q-21 -188 -57 -392z" />
    <glyph glyph-name="Aring" unicode="&#xc5;" horiz-adv-x="740" 
d="M370 1467q-73 0 -117 38.5t-44 102.5t44 102.5t117 38.5t117.5 -38.5t44.5 -102.5t-44.5 -102.5t-117.5 -38.5zM370 1540q37 0 58.5 18.5t21.5 49.5t-21.5 49.5t-58.5 18.5t-58.5 -18.5t-21.5 -49.5t21.5 -49.5t58.5 -18.5zM22 0l277 1400h141l277 -1400h-126l-63 318
h-321l-63 -318h-122zM224 413h286l-76 411q-36 200 -58 392h-18q-21 -188 -57 -392z" />
    <glyph glyph-name="AE" unicode="&#xc6;" horiz-adv-x="1041" 
d="M22 0l391 1400h562v-100h-357v-499h321v-96h-321v-605h372v-100h-494v317h-260l-91 -317h-123zM262 414h234v885h-16q-17 -107 -52 -255z" />
    <glyph glyph-name="Ccedilla" unicode="&#xc7;" horiz-adv-x="803" 
d="M611 528l123 -34v-78q0 -405 -285 -430l-10 -67q134 -30 134 -146q0 -67 -40.5 -105t-111.5 -38q-68 0 -121 33l14 76q48 -30 100 -30q34 0 53.5 19t19.5 52q0 43 -35.5 65t-105.5 30l16 112q-142 16 -215 129.5t-73 317.5v531q0 221 85 336t249 115q315 0 315 -425v-69
l-120 -34v74q0 197 -48 280t-146 83q-106 0 -158 -88t-52 -268v-537q0 -180 52.5 -267.5t159.5 -87.5q100 0 150 84t50 284v83z" />
    <glyph glyph-name="Egrave" unicode="&#xc8;" horiz-adv-x="645" 
d="M393 1491h-103l-123 189h127zM220 100h374v-100h-496v1400h481v-100h-359v-499h324v-96h-324v-605z" />
    <glyph glyph-name="Eacute" unicode="&#xc9;" horiz-adv-x="645" 
d="M298 1491l98 189h128l-123 -189h-103zM220 100h374v-100h-496v1400h481v-100h-359v-499h324v-96h-324v-605z" />
    <glyph glyph-name="Ecircumflex" unicode="&#xca;" horiz-adv-x="645" 
d="M154 1491l133 189h118l132 -189h-101l-90 108l-91 -108h-101zM220 100h374v-100h-496v1400h481v-100h-359v-499h324v-96h-324v-605z" />
    <glyph glyph-name="Edieresis" unicode="&#xcb;" horiz-adv-x="645" 
d="M164 1508v163h129v-163h-129zM398 1508v163h129v-163h-129zM220 100h374v-100h-496v1400h481v-100h-359v-499h324v-96h-324v-605z" />
    <glyph glyph-name="Igrave" unicode="&#xcc;" horiz-adv-x="318" 
d="M206 1491h-103l-123 189h127zM98 1400h122v-1400h-122v1400z" />
    <glyph glyph-name="Iacute" unicode="&#xcd;" horiz-adv-x="318" 
d="M112 1491l98 189h128l-123 -189h-103zM98 1400h122v-1400h-122v1400z" />
    <glyph glyph-name="Icircumflex" unicode="&#xce;" horiz-adv-x="318" 
d="M18 1491l87 189h107l87 -189h-84l-56 112l-57 -112h-84zM98 1400h122v-1400h-122v1400z" />
    <glyph glyph-name="Idieresis" unicode="&#xcf;" horiz-adv-x="318" 
d="M21 1507v170h111v-170h-111zM186 1507v170h110v-170h-110zM98 1400h122v-1400h-122v1400z" />
    <glyph glyph-name="Eth" unicode="&#xd0;" horiz-adv-x="803" 
d="M360 1400q186 0 277.5 -113.5t91.5 -343.5v-488q0 -229 -91.5 -342t-277.5 -113h-249v716h-85v98h85v586h249zM605 451v496q0 186 -58.5 270.5t-188.5 84.5h-125v-488h210v-98h-210v-617h125q130 0 188.5 83.5t58.5 268.5z" />
    <glyph glyph-name="Ntilde" unicode="&#xd1;" horiz-adv-x="827" 
d="M508 1495q-33 0 -70 22.5t-67.5 44.5t-47.5 22q-22 0 -32 -19.5t-11 -64.5h-70q3 167 111 167q32 0 68.5 -22.5t67.5 -44.5t48 -22q22 0 31.5 19.5t10.5 64.5h70q-4 -167 -109 -167zM98 0v1400h164l291 -947q32 -120 58 -267l21 2q-18 188 -18 365l-2 847h117v-1400h-163
l-285 943q-43 166 -63 274l-21 -1q16 -173 16 -336l1 -880h-116z" />
    <glyph glyph-name="Ograve" unicode="&#xd2;" horiz-adv-x="838" 
d="M467 1491h-103l-123 189h127zM419 -16q-170 0 -257.5 114.5t-87.5 335.5v531q0 222 87.5 336.5t257.5 114.5q169 0 256.5 -114.5t87.5 -336.5v-531q0 -221 -87.5 -335.5t-256.5 -114.5zM419 79q111 0 165.5 86.5t54.5 264.5v539q0 180 -54.5 266.5t-165.5 86.5
t-165.5 -86.5t-54.5 -266.5v-539q0 -178 54.5 -264.5t165.5 -86.5z" />
    <glyph glyph-name="Oacute" unicode="&#xd3;" horiz-adv-x="838" 
d="M372 1491l98 189h128l-123 -189h-103zM419 -16q-170 0 -257.5 114.5t-87.5 335.5v531q0 222 87.5 336.5t257.5 114.5q169 0 256.5 -114.5t87.5 -336.5v-531q0 -221 -87.5 -335.5t-256.5 -114.5zM419 79q111 0 165.5 86.5t54.5 264.5v539q0 180 -54.5 266.5t-165.5 86.5
t-165.5 -86.5t-54.5 -266.5v-539q0 -178 54.5 -264.5t165.5 -86.5z" />
    <glyph glyph-name="Ocircumflex" unicode="&#xd4;" horiz-adv-x="838" 
d="M227 1491l133 189h118l132 -189h-101l-90 108l-91 -108h-101zM419 -16q-170 0 -257.5 114.5t-87.5 335.5v531q0 222 87.5 336.5t257.5 114.5q169 0 256.5 -114.5t87.5 -336.5v-531q0 -221 -87.5 -335.5t-256.5 -114.5zM419 79q111 0 165.5 86.5t54.5 264.5v539
q0 180 -54.5 266.5t-165.5 86.5t-165.5 -86.5t-54.5 -266.5v-539q0 -178 54.5 -264.5t165.5 -86.5z" />
    <glyph glyph-name="Otilde" unicode="&#xd5;" horiz-adv-x="838" 
d="M513 1495q-33 0 -70 22.5t-67.5 44.5t-47.5 22q-22 0 -32 -19.5t-11 -64.5h-70q3 167 111 167q32 0 68.5 -22.5t67.5 -44.5t48 -22q22 0 31.5 19.5t10.5 64.5h70q-4 -167 -109 -167zM419 -16q-170 0 -257.5 114.5t-87.5 335.5v531q0 222 87.5 336.5t257.5 114.5
q169 0 256.5 -114.5t87.5 -336.5v-531q0 -221 -87.5 -335.5t-256.5 -114.5zM419 79q111 0 165.5 86.5t54.5 264.5v539q0 180 -54.5 266.5t-165.5 86.5t-165.5 -86.5t-54.5 -266.5v-539q0 -178 54.5 -264.5t165.5 -86.5z" />
    <glyph glyph-name="Odieresis" unicode="&#xd6;" horiz-adv-x="838" 
d="M238 1508v163h129v-163h-129zM472 1508v163h129v-163h-129zM419 -16q-170 0 -257.5 114.5t-87.5 335.5v531q0 222 87.5 336.5t257.5 114.5q169 0 256.5 -114.5t87.5 -336.5v-531q0 -221 -87.5 -335.5t-256.5 -114.5zM419 79q111 0 165.5 86.5t54.5 264.5v539
q0 180 -54.5 266.5t-165.5 86.5t-165.5 -86.5t-54.5 -266.5v-539q0 -178 54.5 -264.5t165.5 -86.5z" />
    <glyph glyph-name="multiply" unicode="&#xd7;" horiz-adv-x="662" 
d="M133 438l-66 67l198 196l-197 195l66 67l197 -197l197 197l66 -66l-197 -196l196 -197l-65 -66l-197 197z" />
    <glyph glyph-name="Oslash" unicode="&#xd8;" horiz-adv-x="840" 
d="M675 1305q91 -115 91 -340v-531q0 -220 -88 -335t-258 -115q-110 0 -185 48l-46 -132h-91l67 195q-91 115 -91 339v531q0 221 88.5 336t257.5 115q110 0 185 -48l46 132h91zM199 431q0 -111 20 -182l349 1012q-54 63 -149 63q-220 0 -220 -357v-536zM641 431v536
q0 107 -20 184l-349 -1012q54 -63 148 -63q221 0 221 355z" />
    <glyph glyph-name="Ugrave" unicode="&#xd9;" horiz-adv-x="801" 
d="M448 1491h-103l-123 189h127zM584 1400h122v-1104q0 -159 -75 -235.5t-230 -76.5t-230.5 76.5t-75.5 235.5v1104h122v-1096q0 -117 45 -171.5t139 -54.5t138.5 54.5t44.5 171.5v1096z" />
    <glyph glyph-name="Uacute" unicode="&#xda;" horiz-adv-x="801" 
d="M354 1491l98 189h128l-123 -189h-103zM584 1400h122v-1104q0 -159 -75 -235.5t-230 -76.5t-230.5 76.5t-75.5 235.5v1104h122v-1096q0 -117 45 -171.5t139 -54.5t138.5 54.5t44.5 171.5v1096z" />
    <glyph glyph-name="Ucircumflex" unicode="&#xdb;" horiz-adv-x="801" 
d="M209 1491l133 189h118l132 -189h-101l-90 108l-91 -108h-101zM584 1400h122v-1104q0 -159 -75 -235.5t-230 -76.5t-230.5 76.5t-75.5 235.5v1104h122v-1096q0 -117 45 -171.5t139 -54.5t138.5 54.5t44.5 171.5v1096z" />
    <glyph glyph-name="Udieresis" unicode="&#xdc;" horiz-adv-x="801" 
d="M219 1508v163h129v-163h-129zM453 1508v163h129v-163h-129zM584 1400h122v-1104q0 -159 -75 -235.5t-230 -76.5t-230.5 76.5t-75.5 235.5v1104h122v-1096q0 -117 45 -171.5t139 -54.5t138.5 54.5t44.5 171.5v1096z" />
    <glyph glyph-name="Yacute" unicode="&#xdd;" horiz-adv-x="698" 
d="M303 1491l98 189h128l-123 -189h-103zM678 1400l-268 -832v-568h-122v568l-268 832h131l130 -426q36 -132 63 -270h15q23 120 64 270l131 426h124z" />
    <glyph glyph-name="Thorn" unicode="&#xde;" horiz-adv-x="717" 
d="M98 0v1400h121v-257h143q308 0 308 -327v-201q0 -160 -78.5 -242.5t-229.5 -82.5h-142v-290h-122zM220 388h125q103 0 152.5 54.5t49.5 170.5v205q0 117 -49.5 172.5t-152.5 55.5h-125v-658z" />
    <glyph glyph-name="germandbls" unicode="&#xdf;" horiz-adv-x="688" 
d="M439 -10q-65 0 -110 29.5t-63 84.5l61 75q24 -100 105 -100q47 0 72 35t25 100q0 104 -88 251l-50 84q-79 133 -79 231q0 55 20.5 101t50 79t58.5 64t49.5 70.5t20.5 84.5q0 71 -37.5 109.5t-111.5 38.5q-78 0 -116.5 -47t-38.5 -145v-1135h-117v1131q0 139 70 212
t202 73q123 0 186 -63.5t63 -182.5q0 -52 -19.5 -96.5t-47.5 -75.5t-56.5 -60.5t-48 -65.5t-19.5 -76q0 -82 71 -198l51 -83q97 -161 97 -295q0 -113 -51.5 -171.5t-148.5 -58.5z" />
    <glyph glyph-name="agrave" unicode="&#xe0;" horiz-adv-x="679" 
d="M254 1400l117 -259h-96l-142 259h121zM247 -16q-87 0 -135.5 57t-48.5 157v39q0 72 18 128t53 96.5t75.5 68t97.5 53.5l139 63v179q0 154 -116 154q-76 0 -106.5 -57t-29.5 -200v-61l-115 30v56q-1 166 61 242.5t191 76.5q232 0 232 -234v-657q0 -53 11 -70t46 -19l32 -2
l-23 -97q-11 -3 -33 -3q-86 0 -108.5 51t7.5 163l-19 5q-27 -107 -86 -163t-143 -56zM281 79q72 0 118.5 67t46.5 181v219l-95 -41q-81 -35 -125 -91.5t-44 -156.5v-40q0 -66 25.5 -102t73.5 -36z" />
    <glyph glyph-name="aacute" unicode="&#xe1;" horiz-adv-x="679" 
d="M398 1400h121l-142 -259h-96zM247 -16q-87 0 -135.5 57t-48.5 157v39q0 72 18 128t53 96.5t75.5 68t97.5 53.5l139 63v179q0 154 -116 154q-76 0 -106.5 -57t-29.5 -200v-61l-115 30v56q-1 166 61 242.5t191 76.5q232 0 232 -234v-657q0 -53 11 -70t46 -19l32 -2l-23 -97
q-11 -3 -33 -3q-86 0 -108.5 51t7.5 163l-19 5q-27 -107 -86 -163t-143 -56zM281 79q72 0 118.5 67t46.5 181v219l-95 -41q-81 -35 -125 -91.5t-44 -156.5v-40q0 -66 25.5 -102t73.5 -36z" />
    <glyph glyph-name="acircumflex" unicode="&#xe2;" horiz-adv-x="679" 
d="M138 1141l132 259h111l132 -259h-92l-95 161l-95 -161h-93zM247 -16q-87 0 -135.5 57t-48.5 157v39q0 72 18 128t53 96.5t75.5 68t97.5 53.5l139 63v179q0 154 -116 154q-76 0 -106.5 -57t-29.5 -200v-61l-115 30v56q-1 166 61 242.5t191 76.5q232 0 232 -234v-657
q0 -53 11 -70t46 -19l32 -2l-23 -97q-11 -3 -33 -3q-86 0 -108.5 51t7.5 163l-19 5q-27 -107 -86 -163t-143 -56zM281 79q72 0 118.5 67t46.5 181v219l-95 -41q-81 -35 -125 -91.5t-44 -156.5v-40q0 -66 25.5 -102t73.5 -36z" />
    <glyph glyph-name="atilde" unicode="&#xe3;" horiz-adv-x="679" 
d="M422 1169q-33 0 -70.5 22.5t-68 44.5t-47.5 22q-22 0 -32 -19t-12 -65h-70q2 87 28.5 128.5t81.5 41.5q32 0 69 -22.5t68 -45t48 -22.5q22 0 31.5 19.5t10.5 65.5h70q-3 -170 -107 -170zM247 -16q-87 0 -135.5 57t-48.5 157v39q0 72 18 128t53 96.5t75.5 68t97.5 53.5
l139 63v179q0 154 -116 154q-76 0 -106.5 -57t-29.5 -200v-61l-115 30v56q-1 166 61 242.5t191 76.5q232 0 232 -234v-657q0 -53 11 -70t46 -19l32 -2l-23 -97q-11 -3 -33 -3q-86 0 -108.5 51t7.5 163l-19 5q-27 -107 -86 -163t-143 -56zM281 79q72 0 118.5 67t46.5 181v219
l-95 -41q-81 -35 -125 -91.5t-44 -156.5v-40q0 -66 25.5 -102t73.5 -36z" />
    <glyph glyph-name="adieresis" unicode="&#xe4;" horiz-adv-x="679" 
d="M144 1198v163h129v-163h-129zM378 1198v163h129v-163h-129zM247 -16q-87 0 -135.5 57t-48.5 157v39q0 72 18 128t53 96.5t75.5 68t97.5 53.5l139 63v179q0 154 -116 154q-76 0 -106.5 -57t-29.5 -200v-61l-115 30v56q-1 166 61 242.5t191 76.5q232 0 232 -234v-657
q0 -53 11 -70t46 -19l32 -2l-23 -97q-11 -3 -33 -3q-86 0 -108.5 51t7.5 163l-19 5q-27 -107 -86 -163t-143 -56zM281 79q72 0 118.5 67t46.5 181v219l-95 -41q-81 -35 -125 -91.5t-44 -156.5v-40q0 -66 25.5 -102t73.5 -36z" />
    <glyph glyph-name="aring" unicode="&#xe5;" horiz-adv-x="679" 
d="M325 1130q-71 0 -117 45t-46 115t46 114.5t117 44.5q72 0 118 -44.5t46 -114.5t-46 -115t-118 -45zM325 1207q37 0 60 23t23 60q0 36 -23 59t-60 23q-36 0 -59 -23t-23 -59q0 -37 23 -60t59 -23zM247 -16q-87 0 -135.5 57t-48.5 157v39q0 72 18 128t53 96.5t75.5 68
t97.5 53.5l139 63v179q0 154 -116 154q-76 0 -106.5 -57t-29.5 -200v-61l-115 30v56q-1 166 61 242.5t191 76.5q232 0 232 -234v-657q0 -53 11 -70t46 -19l32 -2l-23 -97q-11 -3 -33 -3q-86 0 -108.5 51t7.5 163l-19 5q-27 -107 -86 -163t-143 -56zM281 79q72 0 118.5 67
t46.5 181v219l-95 -41q-81 -35 -125 -91.5t-44 -156.5v-40q0 -66 25.5 -102t73.5 -36z" />
    <glyph glyph-name="ae" unicode="&#xe6;" horiz-adv-x="1035" 
d="M852 317v53l112 -27v-50q0 -155 -70.5 -232.5t-186.5 -76.5q-99 0 -154 54.5t-62 154.5h-18q-51 -209 -226 -209q-87 0 -135.5 57t-48.5 157v40q0 71 18 127t53 96.5t75.5 68t97.5 53.5l139 63v179q0 78 -28.5 116t-90.5 38q-74 0 -106.5 -57.5t-32.5 -199.5v-61l-114 30
v56q0 167 62.5 243t189.5 76q143 0 191 -114q62 114 204 114q117 0 180.5 -79.5t63.5 -231.5q0 -125 -3 -240h-399v-184q0 -258 144 -258q145 0 145 244zM715 978q-78 0 -115 -60t-37 -191v-119h286v150q0 220 -134 220zM447 327v220l-96 -42q-52 -23 -86.5 -50.5t-58 -78
t-23.5 -119.5v-40q0 -66 25 -102t73 -36q72 0 119 67t47 181z" />
    <glyph glyph-name="ccedilla" unicode="&#xe7;" horiz-adv-x="668" 
d="M487 378l118 -27v-53q0 -288 -225 -312l-10 -67q134 -30 134 -146q0 -67 -40.5 -105t-111.5 -38q-68 0 -121 33l14 76q48 -30 100 -30q34 0 53.5 19t19.5 52q0 43 -35.5 65t-105.5 30l16 112q-111 16 -168 105.5t-57 247.5v378q0 171 69.5 259.5t205.5 88.5
q120 0 188 -80.5t68 -249.5v-51l-116 -27v55q0 142 -35.5 203.5t-104.5 61.5q-156 0 -156 -256v-384q0 -134 38.5 -199.5t117.5 -65.5q70 0 107 55t37 183v67z" />
    <glyph glyph-name="egrave" unicode="&#xe8;" horiz-adv-x="680" 
d="M390 1141h-96l-142 259h121zM497 370l115 -27v-50q0 -158 -73.5 -234t-197.5 -75q-134 0 -203.5 89.5t-69.5 260.5v384q0 171 70.5 259.5t207.5 88.5q127 0 193 -79.5t66 -231.5q0 -12 -3 -243h-417v-181q0 -130 39 -194t120 -64q153 0 153 244v53zM347 978
q-162 0 -162 -257v-113h303v150q0 220 -141 220z" />
    <glyph glyph-name="eacute" unicode="&#xe9;" horiz-adv-x="680" 
d="M538 1400l-142 -259h-96l117 259h121zM497 370l115 -27v-50q0 -158 -73.5 -234t-197.5 -75q-134 0 -203.5 89.5t-69.5 260.5v384q0 171 70.5 259.5t207.5 88.5q127 0 193 -79.5t66 -231.5q0 -12 -3 -243h-417v-181q0 -130 39 -194t120 -64q153 0 153 244v53zM347 978
q-162 0 -162 -257v-113h303v150q0 220 -141 220z" />
    <glyph glyph-name="ecircumflex" unicode="&#xea;" horiz-adv-x="680" 
d="M345 1302l-95 -161h-93l132 259h111l132 -259h-92zM497 370l115 -27v-50q0 -158 -73.5 -234t-197.5 -75q-134 0 -203.5 89.5t-69.5 260.5v384q0 171 70.5 259.5t207.5 88.5q127 0 193 -79.5t66 -231.5q0 -12 -3 -243h-417v-181q0 -130 39 -194t120 -64q153 0 153 244v53z
M347 978q-162 0 -162 -257v-113h303v150q0 220 -141 220z" />
    <glyph glyph-name="edieresis" unicode="&#xeb;" horiz-adv-x="680" 
d="M292 1361v-163h-129v163h129zM526 1361v-163h-129v163h129zM497 370l115 -27v-50q0 -158 -73.5 -234t-197.5 -75q-134 0 -203.5 89.5t-69.5 260.5v384q0 171 70.5 259.5t207.5 88.5q127 0 193 -79.5t66 -231.5q0 -12 -3 -243h-417v-181q0 -130 39 -194t120 -64
q153 0 153 244v53zM347 978q-162 0 -162 -257v-113h303v150q0 220 -141 220z" />
    <glyph glyph-name="igrave" unicode="&#xec;" horiz-adv-x="298" 
d="M136 1400l59 -259h-95l-82 259h118zM90 0v1050h117v-1050h-117z" />
    <glyph glyph-name="iacute" unicode="&#xed;" horiz-adv-x="298" 
d="M161 1400h119l-82 -259h-95zM90 0v1050h117v-1050h-117z" />
    <glyph glyph-name="icircumflex" unicode="&#xee;" horiz-adv-x="298" 
d="M8 1140l87 260h107l87 -260h-84l-56 159l-57 -159h-84zM90 0v1050h117v-1050h-117z" />
    <glyph glyph-name="idieresis" unicode="&#xef;" horiz-adv-x="298" 
d="M11 1193v171h111v-171h-111zM176 1193v171h110v-171h-110zM90 0v1050h117v-1050h-117z" />
    <glyph glyph-name="eth" unicode="&#xf0;" horiz-adv-x="680" 
d="M496 1224q116 -213 116 -507v-370q0 -179 -70 -271t-207 -92q-132 0 -200 89t-68 261v387q0 168 58.5 255t169.5 87q82 0 128.5 -40.5t74.5 -118.5l18 7q-35 149 -124 287l-183 -45l-20 85l149 37q-37 49 -89 102l112 38q51 -59 87 -113l115 29l21 -85zM495 333v328
q0 315 -166 315q-142 0 -142 -260v-383q0 -132 36 -195.5t112 -63.5q82 0 121 63.5t39 195.5z" />
    <glyph glyph-name="ntilde" unicode="&#xf1;" horiz-adv-x="693" 
d="M445 1169q-33 0 -70.5 22.5t-68 44.5t-47.5 22q-22 0 -32 -19t-12 -65h-70q2 87 28.5 128.5t81.5 41.5q32 0 69 -22.5t68 -45t48 -22.5q22 0 31.5 19.5t10.5 65.5h70q-3 -170 -107 -170zM90 0v1050h122q0 -60 -42 -205l18 -7q40 120 99 173.5t141 53.5q87 0 132 -50.5
t45 -145.5v-869h-117v850q0 122 -99 122q-79 0 -130.5 -99t-51.5 -251v-622h-117z" />
    <glyph glyph-name="ograve" unicode="&#xf2;" horiz-adv-x="681" 
d="M269 1400l117 -259h-96l-142 259h121zM340 -16q-133 0 -203 90t-70 261v380q0 171 70 261t203 90t203.5 -90t70.5 -261v-380q0 -171 -70.5 -261t-203.5 -90zM340 73q154 0 154 260v384q0 261 -154 261q-153 0 -153 -261v-384q0 -260 153 -260z" />
    <glyph glyph-name="oacute" unicode="&#xf3;" horiz-adv-x="681" 
d="M413 1400h121l-142 -259h-96zM340 -16q-133 0 -203 90t-70 261v380q0 171 70 261t203 90t203.5 -90t70.5 -261v-380q0 -171 -70.5 -261t-203.5 -90zM340 73q154 0 154 260v384q0 261 -154 261q-153 0 -153 -261v-384q0 -260 153 -260z" />
    <glyph glyph-name="ocircumflex" unicode="&#xf4;" horiz-adv-x="681" 
d="M153 1141l132 259h111l132 -259h-92l-95 161l-95 -161h-93zM340 -16q-133 0 -203 90t-70 261v380q0 171 70 261t203 90t203.5 -90t70.5 -261v-380q0 -171 -70.5 -261t-203.5 -90zM340 73q154 0 154 260v384q0 261 -154 261q-153 0 -153 -261v-384q0 -260 153 -260z" />
    <glyph glyph-name="otilde" unicode="&#xf5;" horiz-adv-x="681" 
d="M437 1169q-33 0 -70.5 22.5t-68 44.5t-47.5 22q-22 0 -32 -19t-12 -65h-70q2 87 28.5 128.5t81.5 41.5q32 0 69 -22.5t68 -45t48 -22.5q22 0 31.5 19.5t10.5 65.5h70q-3 -170 -107 -170zM340 -16q-133 0 -203 90t-70 261v380q0 171 70 261t203 90t203.5 -90t70.5 -261
v-380q0 -171 -70.5 -261t-203.5 -90zM340 73q154 0 154 260v384q0 261 -154 261q-153 0 -153 -261v-384q0 -260 153 -260z" />
    <glyph glyph-name="odieresis" unicode="&#xf6;" horiz-adv-x="681" 
d="M159 1198v163h129v-163h-129zM393 1198v163h129v-163h-129zM340 -16q-133 0 -203 90t-70 261v380q0 171 70 261t203 90t203.5 -90t70.5 -261v-380q0 -171 -70.5 -261t-203.5 -90zM340 73q154 0 154 260v384q0 261 -154 261q-153 0 -153 -261v-384q0 -260 153 -260z" />
    <glyph glyph-name="divide" unicode="&#xf7;" horiz-adv-x="696" 
d="M272 877v140h143v-140h-143zM53 667v94h590v-94h-590zM272 410v141h143v-141h-143z" />
    <glyph glyph-name="oslash" unicode="&#xf8;" horiz-adv-x="653" 
d="M510 998q90 -88 90 -283v-380q0 -171 -70 -261t-204 -90q-61 0 -112 20l-34 -114h-84l48 160q-91 89 -91 285v380q0 171 70 261t203 90q64 0 114 -21l34 114h84zM171 333q0 -85 16 -139l225 756q-34 28 -85 28q-156 0 -156 -261v-384zM482 333v384q0 81 -15 137
l-225 -754q35 -27 85 -27q155 0 155 260z" />
    <glyph glyph-name="ugrave" unicode="&#xf9;" horiz-adv-x="693" 
d="M274 1400l117 -259h-96l-142 259h121zM603 1050v-1050h-122q2 66 43 205l-19 7q-40 -120 -99 -173.5t-141 -53.5q-87 0 -132 50.5t-45 145.5v869h117v-850q0 -59 25.5 -90.5t74.5 -31.5q79 0 130 99t51 251v622h117z" />
    <glyph glyph-name="uacute" unicode="&#xfa;" horiz-adv-x="693" 
d="M418 1400h121l-142 -259h-96zM603 1050v-1050h-122q2 66 43 205l-19 7q-40 -120 -99 -173.5t-141 -53.5q-87 0 -132 50.5t-45 145.5v869h117v-850q0 -59 25.5 -90.5t74.5 -31.5q79 0 130 99t51 251v622h117z" />
    <glyph glyph-name="ucircumflex" unicode="&#xfb;" horiz-adv-x="693" 
d="M158 1141l132 259h111l132 -259h-92l-95 161l-95 -161h-93zM603 1050v-1050h-122q2 66 43 205l-19 7q-40 -120 -99 -173.5t-141 -53.5q-87 0 -132 50.5t-45 145.5v869h117v-850q0 -59 25.5 -90.5t74.5 -31.5q79 0 130 99t51 251v622h117z" />
    <glyph glyph-name="udieresis" unicode="&#xfc;" horiz-adv-x="693" 
d="M164 1198v163h129v-163h-129zM398 1198v163h129v-163h-129zM603 1050v-1050h-122q2 66 43 205l-19 7q-40 -120 -99 -173.5t-141 -53.5q-87 0 -132 50.5t-45 145.5v869h117v-850q0 -59 25.5 -90.5t74.5 -31.5q79 0 130 99t51 251v622h117z" />
    <glyph glyph-name="yacute" unicode="&#xfd;" horiz-adv-x="604" 
d="M378 1400h121l-142 -259h-96zM47 -366l-31 125l94 11q68 8 93 35.5t30 97.5l7 92l-223 1055h121l107 -616q36 -182 55 -344h15q17 146 54 344l104 616h114l-200 -996q-39 -203 -116 -296t-224 -124z" />
    <glyph glyph-name="thorn" unicode="&#xfe;" horiz-adv-x="703" 
d="M90 -350v1748h117v-290q0 -105 -41 -245l19 -6q56 208 226 208q108 0 166 -88t58 -252v-404q0 -162 -58 -249t-166 -87q-87 0 -141 51.5t-85 156.5l-19 -6q41 -140 41 -247v-290h-117zM374 75q142 0 142 259v382q0 260 -142 260q-80 0 -123.5 -82t-43.5 -233v-272
q0 -150 43.5 -232t123.5 -82z" />
    <glyph glyph-name="ydieresis" unicode="&#xff;" horiz-adv-x="604" 
d="M124 1198v163h129v-163h-129zM358 1198v163h129v-163h-129zM47 -366l-31 125l94 11q68 8 93 35.5t30 97.5l7 92l-223 1055h121l107 -616q36 -182 55 -344h15q17 146 54 344l104 616h114l-200 -996q-39 -203 -116 -296t-224 -124z" />
    <glyph glyph-name="Amacron" unicode="&#x100;" horiz-adv-x="740" 
d="M175 1478v90h390v-90h-390zM22 0l277 1400h141l277 -1400h-126l-63 318h-321l-63 -318h-122zM224 413h286l-76 411q-36 200 -58 392h-18q-21 -188 -57 -392z" />
    <glyph glyph-name="amacron" unicode="&#x101;" horiz-adv-x="679" 
d="M130 1184v90h390v-90h-390zM247 -16q-87 0 -135.5 57t-48.5 157v39q0 72 18 128t53 96.5t75.5 68t97.5 53.5l139 63v179q0 154 -116 154q-76 0 -106.5 -57t-29.5 -200v-61l-115 30v56q-1 166 61 242.5t191 76.5q232 0 232 -234v-657q0 -53 11 -70t46 -19l32 -2l-23 -97
q-11 -3 -33 -3q-86 0 -108.5 51t7.5 163l-19 5q-27 -107 -86 -163t-143 -56zM281 79q72 0 118.5 67t46.5 181v219l-95 -41q-81 -35 -125 -91.5t-44 -156.5v-40q0 -66 25.5 -102t73.5 -36z" />
    <glyph glyph-name="Abreve" unicode="&#x102;" horiz-adv-x="740" 
d="M459 1680h87q-1 -93 -46 -141.5t-129 -48.5t-129.5 48.5t-46.5 141.5h87q3 -108 89 -108q85 0 88 108zM22 0l277 1400h141l277 -1400h-126l-63 318h-321l-63 -318h-122zM224 413h286l-76 411q-36 200 -58 392h-18q-21 -188 -57 -392z" />
    <glyph glyph-name="abreve" unicode="&#x103;" horiz-adv-x="679" 
d="M409 1401h87q-2 -134 -42 -194.5t-128 -60.5t-128.5 60t-42.5 195h87q2 -92 21 -131t63 -39t62.5 39.5t20.5 130.5zM247 -16q-87 0 -135.5 57t-48.5 157v39q0 72 18 128t53 96.5t75.5 68t97.5 53.5l139 63v179q0 154 -116 154q-76 0 -106.5 -57t-29.5 -200v-61l-115 30
v56q-1 166 61 242.5t191 76.5q232 0 232 -234v-657q0 -53 11 -70t46 -19l32 -2l-23 -97q-11 -3 -33 -3q-86 0 -108.5 51t7.5 163l-19 5q-27 -107 -86 -163t-143 -56zM281 79q72 0 118.5 67t46.5 181v219l-95 -41q-81 -35 -125 -91.5t-44 -156.5v-40q0 -66 25.5 -102
t73.5 -36z" />
    <glyph glyph-name="Aogonek" unicode="&#x104;" horiz-adv-x="740" 
d="M610 -120q0 -47 56 -47q20 0 46 7l-18 -85q-30 -10 -60 -10q-56 0 -85.5 26.5t-29.5 77.5q0 92 102 151h-30l-63 318h-321l-63 -318h-122l277 1400h141l277 -1400q-107 -51 -107 -120zM224 413h286l-76 411q-36 200 -58 392h-18q-21 -188 -57 -392z" />
    <glyph glyph-name="aogonek" unicode="&#x105;" horiz-adv-x="679" 
d="M576 -15q-76 -49 -76 -104q0 -48 57 -48q20 0 46 7l-18 -85q-32 -10 -60 -10q-56 0 -86 26.5t-30 76.5q0 90 102 157q-55 41 -16 193l-19 5q-27 -107 -86 -163t-143 -56q-87 0 -135.5 57t-48.5 157v39q0 72 18 128t53 96.5t75.5 68t97.5 53.5l139 63v179q0 154 -116 154
q-76 0 -106.5 -57t-29.5 -200v-61l-115 30v56q-1 166 61 242.5t191 76.5q232 0 232 -234v-657q0 -53 11 -70t46 -19l32 -2l-23 -97q-11 -3 -33 -3q-13 0 -20 1zM446 327v219l-95 -41q-81 -35 -125 -91.5t-44 -156.5v-40q0 -66 25.5 -102t73.5 -36q72 0 118.5 67t46.5 181z
" />
    <glyph glyph-name="Cacute" unicode="&#x106;" horiz-adv-x="803" 
d="M364 1491l98 189h128l-123 -189h-103zM410 -16q-165 0 -250.5 114.5t-85.5 335.5v531q0 221 85 336t249 115q315 0 315 -425v-69l-120 -34v74q0 197 -48 280t-146 83q-106 0 -158 -88t-52 -268v-537q0 -180 52.5 -267.5t159.5 -87.5q100 0 150 84t50 284v83l123 -34v-78
q0 -432 -324 -432z" />
    <glyph glyph-name="cacute" unicode="&#x107;" horiz-adv-x="668" 
d="M415 1400h121l-142 -259h-96zM340 -16q-133 0 -202.5 91t-69.5 265v378q0 171 69.5 259.5t205.5 88.5q120 0 188 -80.5t68 -249.5v-51l-116 -27v55q0 142 -35.5 203.5t-104.5 61.5q-156 0 -156 -256v-384q0 -134 38.5 -199.5t117.5 -65.5q70 0 107 55t37 183v67l118 -27
v-53q0 -163 -71 -239t-194 -75z" />
    <glyph glyph-name="Cdotaccent" unicode="&#x10a;" horiz-adv-x="803" 
d="M335 1508v163h152v-163h-152zM410 -16q-165 0 -250.5 114.5t-85.5 335.5v531q0 221 85 336t249 115q315 0 315 -425v-69l-120 -34v74q0 197 -48 280t-146 83q-106 0 -158 -88t-52 -268v-537q0 -180 52.5 -267.5t159.5 -87.5q100 0 150 84t50 284v83l123 -34v-78
q0 -432 -324 -432z" />
    <glyph glyph-name="cdotaccent" unicode="&#x10b;" horiz-adv-x="668" 
d="M267 1198v163h152v-163h-152zM340 -16q-133 0 -202.5 91t-69.5 265v378q0 171 69.5 259.5t205.5 88.5q120 0 188 -80.5t68 -249.5v-51l-116 -27v55q0 142 -35.5 203.5t-104.5 61.5q-156 0 -156 -256v-384q0 -134 38.5 -199.5t117.5 -65.5q70 0 107 55t37 183v67l118 -27
v-53q0 -163 -71 -239t-194 -75z" />
    <glyph glyph-name="Ccaron" unicode="&#x10c;" horiz-adv-x="803" 
d="M219 1680h101l91 -108l90 108h101l-132 -189h-118zM410 -16q-165 0 -250.5 114.5t-85.5 335.5v531q0 221 85 336t249 115q315 0 315 -425v-69l-120 -34v74q0 197 -48 280t-146 83q-106 0 -158 -88t-52 -268v-537q0 -180 52.5 -267.5t159.5 -87.5q100 0 150 84t50 284v83
l123 -34v-78q0 -432 -324 -432z" />
    <glyph glyph-name="ccaron" unicode="&#x10d;" horiz-adv-x="668" 
d="M155 1400h93l95 -161l95 161h92l-132 -259h-111zM340 -16q-133 0 -202.5 91t-69.5 265v378q0 171 69.5 259.5t205.5 88.5q120 0 188 -80.5t68 -249.5v-51l-116 -27v55q0 142 -35.5 203.5t-104.5 61.5q-156 0 -156 -256v-384q0 -134 38.5 -199.5t117.5 -65.5q70 0 107 55
t37 183v67l118 -27v-53q0 -163 -71 -239t-194 -75z" />
    <glyph glyph-name="Dcaron" unicode="&#x10e;" horiz-adv-x="790" 
d="M177 1680h101l91 -108l90 108h101l-132 -189h-118zM98 0v1400h249q186 0 277.5 -113.5t91.5 -343.5v-488q0 -229 -91.5 -342t-277.5 -113h-249zM220 99h125q130 0 188.5 83.5t58.5 268.5v496q0 186 -58.5 270.5t-188.5 84.5h-125v-1203z" />
    <glyph glyph-name="dcaron" unicode="&#x10f;" horiz-adv-x="703" 
d="M293 -15q-108 0 -166.5 87t-58.5 249v404q0 164 58 252t166 88q168 0 226 -208l19 6q-41 140 -41 247v290h117v-1400h-111q-3 48 36 187l-19 6q-33 -106 -86.5 -157t-139.5 -51zM673 1400h137v-103q0 -81 -28.5 -117t-99.5 -43l-10 54q39 3 54.5 22t15.5 64h-69v123z
M329 75q80 0 123.5 82t43.5 232v272q0 151 -43.5 233t-123.5 82q-142 0 -142 -260v-382q0 -259 142 -259z" />
    <glyph glyph-name="Dcroat" unicode="&#x110;" horiz-adv-x="803" 
d="M360 1400q186 0 277.5 -113.5t91.5 -343.5v-488q0 -229 -91.5 -342t-277.5 -113h-249v716h-85v98h85v586h249zM605 451v496q0 186 -58.5 270.5t-188.5 84.5h-125v-488h210v-98h-210v-617h125q130 0 188.5 83.5t58.5 268.5z" />
    <glyph glyph-name="dcroat" unicode="&#x111;" horiz-adv-x="690" 
d="M691 1265v-92h-78v-1173h-111q-3 48 36 187l-19 6q-33 -106 -86.5 -157t-139.5 -51q-108 0 -166.5 87t-58.5 249v404q0 164 58 252t166 88q168 0 226 -208l19 6q-41 140 -41 247v63h-245v92h245v135h117v-135h78zM496 389v272q0 151 -43.5 233t-123.5 82
q-142 0 -142 -260v-382q0 -259 142 -259q80 0 123.5 82t43.5 232z" />
    <glyph glyph-name="Emacron" unicode="&#x112;" horiz-adv-x="645" 
d="M150 1478v90h390v-90h-390zM220 100h374v-100h-496v1400h481v-100h-359v-499h324v-96h-324v-605z" />
    <glyph glyph-name="emacron" unicode="&#x113;" horiz-adv-x="680" 
d="M539 1274v-90h-390v90h390zM497 370l115 -27v-50q0 -158 -73.5 -234t-197.5 -75q-134 0 -203.5 89.5t-69.5 260.5v384q0 171 70.5 259.5t207.5 88.5q127 0 193 -79.5t66 -231.5q0 -12 -3 -243h-417v-181q0 -130 39 -194t120 -64q153 0 153 244v53zM347 978
q-162 0 -162 -257v-113h303v150q0 220 -141 220z" />
    <glyph glyph-name="Edotaccent" unicode="&#x116;" horiz-adv-x="645" 
d="M270 1508v163h152v-163h-152zM220 100h374v-100h-496v1400h481v-100h-359v-499h324v-96h-324v-605z" />
    <glyph glyph-name="edotaccent" unicode="&#x117;" horiz-adv-x="680" 
d="M420 1361v-163h-152v163h152zM497 370l115 -27v-50q0 -158 -73.5 -234t-197.5 -75q-134 0 -203.5 89.5t-69.5 260.5v384q0 171 70.5 259.5t207.5 88.5q127 0 193 -79.5t66 -231.5q0 -12 -3 -243h-417v-181q0 -130 39 -194t120 -64q153 0 153 244v53zM347 978
q-162 0 -162 -257v-113h303v150q0 220 -141 220z" />
    <glyph glyph-name="Eogonek" unicode="&#x118;" horiz-adv-x="645" 
d="M594 0q-107 -51 -107 -120q0 -47 56 -47q20 0 46 7l-18 -85q-30 -10 -60 -10q-56 0 -85.5 26.5t-29.5 77.5q0 92 102 151h-400v1400h481v-100h-359v-499h324v-96h-324v-605h374v-100z" />
    <glyph glyph-name="eogonek" unicode="&#x119;" horiz-adv-x="680" 
d="M497 370l115 -27v-50q0 -250 -185 -299q-93 -49 -93 -113q0 -48 57 -48q20 0 46 7l-18 -85q-32 -10 -60 -10q-56 0 -86 26.5t-30 76.5q0 75 74 137q-122 7 -185.5 96t-63.5 253v384q0 171 70.5 259.5t207.5 88.5q127 0 193 -79.5t66 -231.5q0 -12 -3 -243h-417v-181
q0 -130 39 -194t120 -64q153 0 153 244v53zM347 978q-162 0 -162 -257v-113h303v150q0 220 -141 220z" />
    <glyph glyph-name="Ecaron" unicode="&#x11a;" horiz-adv-x="645" 
d="M154 1680h101l91 -108l90 108h101l-132 -189h-118zM220 100h374v-100h-496v1400h481v-100h-359v-499h324v-96h-324v-605z" />
    <glyph glyph-name="ecaron" unicode="&#x11b;" horiz-adv-x="680" 
d="M400 1141h-111l-132 259h93l95 -161l95 161h92zM497 370l115 -27v-50q0 -158 -73.5 -234t-197.5 -75q-134 0 -203.5 89.5t-69.5 260.5v384q0 171 70.5 259.5t207.5 88.5q127 0 193 -79.5t66 -231.5q0 -12 -3 -243h-417v-181q0 -130 39 -194t120 -64q153 0 153 244v53z
M347 978q-162 0 -162 -257v-113h303v150q0 220 -141 220z" />
    <glyph glyph-name="Gbreve" unicode="&#x11e;" horiz-adv-x="829" 
d="M500 1680h87q-1 -93 -46 -141.5t-129 -48.5t-129.5 48.5t-46.5 141.5h87q3 -108 89 -108q85 0 88 108zM364 -15q-143 0 -216.5 114t-73.5 335v535q0 219 86.5 333t253.5 114q146 0 228 -94t82 -296v-68l-121 -34v73q0 179 -47 253t-142 74q-109 0 -162 -87t-53 -265v-535
q0 -183 46 -271t142 -88q101 0 162 150.5t75 430.5h-244v97h356v-756h-112q-3 98 42 327l-20 4q-42 -182 -109.5 -264t-172.5 -82z" />
    <glyph glyph-name="gbreve" unicode="&#x11f;" horiz-adv-x="624" 
d="M252 1129q-75 0 -108.5 52.5t-34.5 177.5h75q1 -81 16.5 -113.5t51.5 -32.5t52 32.5t17 113.5h75q-2 -126 -35 -178t-109 -52zM375 208q35 -9 64.5 -21t62 -35.5t54.5 -54.5t36.5 -79t14.5 -108q0 -276 -297 -276q-293 0 -293 262q0 101 31.5 161t98.5 89v17
q-103 48 -103 143q0 97 101 125v18q-77 82 -77 279q0 176 60.5 257t185.5 81q48 0 87 -12q-33 216 175 253l27 -124l-57 -9q-109 -18 -96 -144q105 -72 105 -302q0 -177 -59.5 -258.5t-182.5 -81.5q-58 0 -103 18q-80 -12 -80 -68q0 -39 31.5 -60.5t111.5 -43.5zM313 981
q-68 0 -97.5 -57.5t-29.5 -195.5q0 -139 29.5 -196.5t97.5 -57.5q67 0 96 57.5t29 196.5q0 137 -29 195t-96 58zM313 -272q190 0 190 178q0 95 -45 140.5t-130 65.5l-94 22q-66 -28 -92 -79t-26 -142q0 -185 197 -185z" />
    <glyph glyph-name="Gdotaccent" unicode="&#x120;" horiz-adv-x="829" 
d="M335 1508v163h152v-163h-152zM364 -15q-143 0 -216.5 114t-73.5 335v535q0 219 86.5 333t253.5 114q146 0 228 -94t82 -296v-68l-121 -34v73q0 179 -47 253t-142 74q-109 0 -162 -87t-53 -265v-535q0 -183 46 -271t142 -88q101 0 162 150.5t75 430.5h-244v97h356v-756
h-112q-3 98 42 327l-20 4q-42 -182 -109.5 -264t-172.5 -82z" />
    <glyph glyph-name="gdotaccent" unicode="&#x121;" horiz-adv-x="624" 
d="M348 1359v-162h-144v162h144zM375 208q35 -9 64.5 -21t62 -35.5t54.5 -54.5t36.5 -79t14.5 -108q0 -276 -297 -276q-293 0 -293 262q0 101 31.5 161t98.5 89v17q-103 48 -103 143q0 97 101 125v18q-77 82 -77 279q0 176 60.5 257t185.5 81q48 0 87 -12q-33 216 175 253
l27 -124l-57 -9q-109 -18 -96 -144q105 -72 105 -302q0 -177 -59.5 -258.5t-182.5 -81.5q-58 0 -103 18q-80 -12 -80 -68q0 -39 31.5 -60.5t111.5 -43.5zM313 981q-68 0 -97.5 -57.5t-29.5 -195.5q0 -139 29.5 -196.5t97.5 -57.5q67 0 96 57.5t29 196.5q0 137 -29 195
t-96 58zM313 -272q190 0 190 178q0 95 -45 140.5t-130 65.5l-94 22q-66 -28 -92 -79t-26 -142q0 -185 197 -185z" />
    <glyph glyph-name="uni0122" unicode="&#x122;" horiz-adv-x="829" 
d="M364 -15q-143 0 -216.5 114t-73.5 335v535q0 219 86.5 333t253.5 114q146 0 228 -94t82 -296v-68l-121 -34v73q0 179 -47 253t-142 74q-109 0 -162 -87t-53 -265v-535q0 -183 46 -271t142 -88q101 0 162 150.5t75 430.5h-244v97h356v-756h-112q-3 98 42 327l-20 4
q-42 -182 -109.5 -264t-172.5 -82zM340 -80h143v-103q0 -82 -29.5 -118.5t-104.5 -43.5l-10 54q41 3 57 22.5t16 65.5h-72v123z" />
    <glyph glyph-name="uni0123" unicode="&#x123;" horiz-adv-x="624" 
d="M339 1262v-124h-137v103q0 81 28.5 117t99.5 43l10 -54q-40 -3 -55 -21.5t-15 -63.5h69zM375 208q35 -9 64.5 -21t62 -35.5t54.5 -54.5t36.5 -79t14.5 -108q0 -276 -297 -276q-293 0 -293 262q0 101 31.5 161t98.5 89v17q-103 48 -103 143q0 97 101 125v18
q-77 82 -77 279q0 176 60.5 257t185.5 81q48 0 87 -12q-33 216 175 253l27 -124l-57 -9q-109 -18 -96 -144q105 -72 105 -302q0 -177 -59.5 -258.5t-182.5 -81.5q-58 0 -103 18q-80 -12 -80 -68q0 -39 31.5 -60.5t111.5 -43.5zM313 981q-68 0 -97.5 -57.5t-29.5 -195.5
q0 -139 29.5 -196.5t97.5 -57.5q67 0 96 57.5t29 196.5q0 137 -29 195t-96 58zM313 -272q190 0 190 178q0 95 -45 140.5t-130 65.5l-94 22q-66 -28 -92 -79t-26 -142q0 -185 197 -185z" />
    <glyph glyph-name="Hbar" unicode="&#x126;" horiz-adv-x="813" 
d="M786 1058v-98h-71v-960h-122v603h-373v-603h-122v960h-72v98h72v342h122v-342h373v342h122v-342h71zM593 702v258h-373v-258h373z" />
    <glyph glyph-name="hbar" unicode="&#x127;" horiz-adv-x="706" 
d="M441 1065q87 0 132 -50t45 -146v-869h-117v849q0 59 -26 90.5t-74 31.5q-78 0 -129.5 -98.5t-51.5 -250.5v-622h-117v1177h-104v92h104v131h117v-131h219v-92h-219v-108q0 -101 -37 -224l18 -7q40 120 99 173.5t141 53.5z" />
    <glyph glyph-name="Itilde" unicode="&#x128;" horiz-adv-x="318" 
d="M221 1513q-28 0 -64.5 27t-47.5 27q-27 0 -22 -51h-60q-10 137 74 137q26 0 63 -27t48 -27q26 0 22 51h60q10 -137 -73 -137zM98 1400h122v-1400h-122v1400z" />
    <glyph glyph-name="itilde" unicode="&#x129;" horiz-adv-x="298" 
d="M211 1163q-28 0 -64.5 27t-47.5 27q-27 0 -22 -51h-60q-10 137 74 137q26 0 63 -27t48 -27q27 0 22 51h60q10 -137 -73 -137zM90 0v1050h117v-1050h-117z" />
    <glyph glyph-name="Imacron" unicode="&#x12a;" horiz-adv-x="318" 
d="M32 1536v88h252v-88h-252zM98 1400h122v-1400h-122v1400z" />
    <glyph glyph-name="imacron" unicode="&#x12b;" horiz-adv-x="298" 
d="M22 1186v88h252v-88h-252zM90 0v1050h117v-1050h-117z" />
    <glyph glyph-name="Iogonek" unicode="&#x12e;" horiz-adv-x="318" 
d="M220 0q-107 -51 -107 -120q0 -47 56 -47q20 0 46 7l-18 -85q-30 -10 -60 -10q-56 0 -85.5 26.5t-29.5 77.5q0 92 102 151h-26v1400h122v-1400z" />
    <glyph glyph-name="iogonek" unicode="&#x12f;" horiz-adv-x="298" 
d="M73 1361h152v-163h-152v163zM90 0v1050h117v-1050q-107 -51 -107 -120q0 -47 56 -47q20 0 46 7l-18 -85q-30 -10 -60 -10q-56 0 -85.5 26.5t-29.5 77.5q0 92 102 151h-21z" />
    <glyph glyph-name="Idotaccent" unicode="&#x130;" horiz-adv-x="318" 
d="M83 1508v163h152v-163h-152zM98 1400h122v-1400h-122v1400z" />
    <glyph glyph-name="dotlessi" unicode="&#x131;" horiz-adv-x="298" 
d="M90 0v1050h117v-1050h-117z" />
    <glyph glyph-name="IJ" unicode="&#x132;" horiz-adv-x="978" 
d="M98 1400h122v-1400h-122v1400zM625 -16q-268 0 -268 348v40l124 27v-45q0 -153 34.5 -215.5t110.5 -62.5q135 0 135 181v1143h122v-1153q0 -129 -65.5 -196t-192.5 -67z" />
    <glyph glyph-name="ij" unicode="&#x133;" horiz-adv-x="600" 
d="M73 1198v163h152v-163h-152zM375 1198v163h152v-163h-152zM90 0v1050h117v-1050h-117zM224 -366l-31 128l81 8q66 7 92.5 32.5t26.5 91.5v1156h117v-1008q0 -177 -70.5 -275t-215.5 -133z" />
    <glyph glyph-name="uni0136" unicode="&#x136;" horiz-adv-x="721" 
d="M98 0v1400h122v-336q0 -156 -21 -313l18 -7l352 656h129l-285 -518l276 -882h-130l-227 753l-112 -195v-558h-122zM314 -80h143v-103q0 -82 -29.5 -118.5t-104.5 -43.5l-10 54q41 3 57 22.5t16 65.5h-72v123z" />
    <glyph glyph-name="uni0137" unicode="&#x137;" horiz-adv-x="613" 
d="M90 0v1400h117v-442q0 -181 -22 -318l12 -6l273 416h124l-222 -334l214 -716h-123l-173 616l-83 -118v-498h-117zM264 -80h143v-103q0 -82 -29.5 -118.5t-104.5 -43.5l-10 54q41 3 57 22.5t16 65.5h-72v123z" />
    <glyph glyph-name="Lacute" unicode="&#x139;" horiz-adv-x="592" 
d="M112 1491l98 189h128l-123 -189h-103zM98 0v1400h122v-1300h342v-100h-464z" />
    <glyph glyph-name="lacute" unicode="&#x13a;" horiz-adv-x="298" 
d="M102 1491l98 189h128l-123 -189h-103zM90 1400h117v-1400h-117v1400z" />
    <glyph glyph-name="uni013B" unicode="&#x13b;" horiz-adv-x="592" 
d="M98 0v1400h122v-1300h342v-100h-464zM259 -80h143v-103q0 -82 -29.5 -118.5t-104.5 -43.5l-10 54q41 3 57 22.5t16 65.5h-72v123z" />
    <glyph glyph-name="uni013C" unicode="&#x13c;" horiz-adv-x="298" 
d="M90 1400h117v-1400h-117v1400zM77 -80h143v-103q0 -82 -29.5 -118.5t-104.5 -43.5l-10 54q41 3 57 22.5t16 65.5h-72v123z" />
    <glyph glyph-name="Lcaron" unicode="&#x13d;" horiz-adv-x="592" 
d="M98 0v1400h122v-1300h342v-100h-464zM297 1400h138v-108q0 -82 -29 -119.5t-100 -44.5l-10 55q39 3 54.5 23t15.5 65h-69v129z" />
    <glyph glyph-name="lcaron" unicode="&#x13e;" horiz-adv-x="298" 
d="M90 1400h117v-1400h-117v1400zM280 1400h137v-103q0 -81 -28.5 -117t-99.5 -43l-10 54q39 3 54.5 22t15.5 64h-69v123z" />
    <glyph glyph-name="Ldot" unicode="&#x13f;" horiz-adv-x="650" 
d="M98 0v1400h122v-1300h342v-100h-464zM394 820h168v-163h-168v163z" />
    <glyph glyph-name="ldot" unicode="&#x140;" horiz-adv-x="563" 
d="M90 1400h117v-1400h-117v1400zM333 777h168v-163h-168v163z" />
    <glyph glyph-name="Lslash" unicode="&#x141;" horiz-adv-x="605" 
d="M233 100h342v-100h-464v660l-103 -32v99l103 32v641h122v-602l182 57v-99l-182 -57v-599z" />
    <glyph glyph-name="lslash" unicode="&#x142;" horiz-adv-x="442" 
d="M409 959v-110l-129 -69v-780h-117v717l-130 -70v110l130 70v573h117v-510z" />
    <glyph glyph-name="Nacute" unicode="&#x143;" horiz-adv-x="827" 
d="M366 1491l98 189h128l-123 -189h-103zM98 0v1400h164l291 -947q32 -120 58 -267l21 2q-18 188 -18 365l-2 847h117v-1400h-163l-285 943q-43 166 -63 274l-21 -1q16 -173 16 -336l1 -880h-116z" />
    <glyph glyph-name="nacute" unicode="&#x144;" horiz-adv-x="693" 
d="M421 1400h121l-142 -259h-96zM90 0v1050h122q0 -60 -42 -205l18 -7q40 120 99 173.5t141 53.5q87 0 132 -50.5t45 -145.5v-869h-117v850q0 122 -99 122q-79 0 -130.5 -99t-51.5 -251v-622h-117z" />
    <glyph glyph-name="uni0145" unicode="&#x145;" horiz-adv-x="827" 
d="M98 0v1400h164l291 -947q32 -120 58 -267l21 2q-18 188 -18 365l-2 847h117v-1400h-163l-285 943q-43 166 -63 274l-21 -1q16 -173 16 -336l1 -880h-116zM342 -80h143v-103q0 -82 -29.5 -118.5t-104.5 -43.5l-10 54q41 3 57 22.5t16 65.5h-72v123z" />
    <glyph glyph-name="uni0146" unicode="&#x146;" horiz-adv-x="693" 
d="M90 0v1050h122q0 -60 -42 -205l18 -7q40 120 99 173.5t141 53.5q87 0 132 -50.5t45 -145.5v-869h-117v850q0 122 -99 122q-79 0 -130.5 -99t-51.5 -251v-622h-117zM276 -80h143v-103q0 -82 -29.5 -118.5t-104.5 -43.5l-10 54q41 3 57 22.5t16 65.5h-72v123z" />
    <glyph glyph-name="Ncaron" unicode="&#x147;" horiz-adv-x="827" 
d="M222 1680h101l91 -108l90 108h101l-132 -189h-118zM98 0v1400h164l291 -947q32 -120 58 -267l21 2q-18 188 -18 365l-2 847h117v-1400h-163l-285 943q-43 166 -63 274l-21 -1q16 -173 16 -336l1 -880h-116z" />
    <glyph glyph-name="ncaron" unicode="&#x148;" horiz-adv-x="693" 
d="M161 1400h93l95 -161l95 161h92l-132 -259h-111zM90 0v1050h122q0 -60 -42 -205l18 -7q40 120 99 173.5t141 53.5q87 0 132 -50.5t45 -145.5v-869h-117v850q0 122 -99 122q-79 0 -130.5 -99t-51.5 -251v-622h-117z" />
    <glyph glyph-name="Eng" unicode="&#x14a;" horiz-adv-x="827" 
d="M394 -366l-30 127l83 5q56 4 85.5 12t49 34.5t25.5 68t6 119.5l-325 933q-39 131 -70 284l-21 -1q16 -173 16 -336l1 -880h-116v1400h160l291 -825q30 -97 64 -271l21 2q-20 183 -20 362l-2 732h117v-1400q0 -142 -78 -231t-257 -135z" />
    <glyph glyph-name="eng" unicode="&#x14b;" horiz-adv-x="693" 
d="M428 1065q87 0 132 -50.5t45 -145.5v-869q0 -142 -77.5 -231t-254.5 -135l-31 127l80 5q38 2 61.5 6.5t44 14.5t31 25t18 42t9.5 61.5t2 86.5v848q0 122 -99 122q-79 0 -130.5 -99t-51.5 -251v-622h-117v1050h122q0 -60 -42 -205l18 -7q40 120 99 173.5t141 53.5z" />
    <glyph glyph-name="Omacron" unicode="&#x14c;" horiz-adv-x="838" 
d="M224 1534v90h390v-90h-390zM419 -16q-170 0 -257.5 114.5t-87.5 335.5v531q0 222 87.5 336.5t257.5 114.5q169 0 256.5 -114.5t87.5 -336.5v-531q0 -221 -87.5 -335.5t-256.5 -114.5zM419 79q111 0 165.5 86.5t54.5 264.5v539q0 180 -54.5 266.5t-165.5 86.5
t-165.5 -86.5t-54.5 -266.5v-539q0 -178 54.5 -264.5t165.5 -86.5z" />
    <glyph glyph-name="omacron" unicode="&#x14d;" horiz-adv-x="681" 
d="M145 1184v90h390v-90h-390zM340 -16q-133 0 -203 90t-70 261v380q0 171 70 261t203 90t203.5 -90t70.5 -261v-380q0 -171 -70.5 -261t-203.5 -90zM340 73q154 0 154 260v384q0 261 -154 261q-153 0 -153 -261v-384q0 -260 153 -260z" />
    <glyph glyph-name="Ohungarumlaut" unicode="&#x150;" horiz-adv-x="838" 
d="M266 1491l98 189h128l-123 -189h-103zM460 1491l98 189h127l-123 -189h-102zM419 -16q-170 0 -257.5 114.5t-87.5 335.5v531q0 222 87.5 336.5t257.5 114.5q169 0 256.5 -114.5t87.5 -336.5v-531q0 -221 -87.5 -335.5t-256.5 -114.5zM419 79q111 0 165.5 86.5t54.5 264.5
v539q0 180 -54.5 266.5t-165.5 86.5t-165.5 -86.5t-54.5 -266.5v-539q0 -178 54.5 -264.5t165.5 -86.5z" />
    <glyph glyph-name="ohungarumlaut" unicode="&#x151;" horiz-adv-x="681" 
d="M309 1400h121l-142 -259h-96zM501 1400h121l-141 -259h-96zM340 -16q-133 0 -203 90t-70 261v380q0 171 70 261t203 90t203.5 -90t70.5 -261v-380q0 -171 -70.5 -261t-203.5 -90zM340 73q154 0 154 260v384q0 261 -154 261q-153 0 -153 -261v-384q0 -260 153 -260z" />
    <glyph glyph-name="OE" unicode="&#x152;" horiz-adv-x="1183" 
d="M400 -16q-158 0 -242 115.5t-84 334.5v531q0 219 84 335t242 116q170 0 243 -147v131h474v-100h-356v-499h321v-96h-321v-605h371v-100h-489v130q-74 -146 -243 -146zM419 79q111 0 165.5 86.5t54.5 264.5v538q0 180 -54.5 267t-166.5 87q-111 0 -165 -87t-54 -267v-538
q0 -178 54 -264.5t166 -86.5z" />
    <glyph glyph-name="oe" unicode="&#x153;" horiz-adv-x="1092" 
d="M908 371l115 -28v-50q0 -158 -72 -234t-191 -75q-150 0 -214 135q-64 -135 -216 -135q-127 0 -194.5 90t-67.5 261v380q0 170 68.5 260.5t196.5 90.5q144 0 214 -132q70 132 221 132q120 0 184.5 -79.5t64.5 -232.5q0 -86 -4 -242h-408v-180q0 -132 38 -195.5t119 -63.5
q146 0 146 244v54zM762 978q-157 0 -157 -258v-112h295v150q0 220 -138 220zM486 333v384q0 260 -149 260q-150 0 -150 -260v-384q0 -259 150 -259q77 0 113 63.5t36 195.5z" />
    <glyph glyph-name="Racute" unicode="&#x154;" horiz-adv-x="752" 
d="M304 1491l98 189h128l-123 -189h-103zM98 0v1400h264q310 0 310 -302v-97q0 -118 -57 -186t-167 -81v-14q71 -18 107 -68.5t57 -174.5l29 -170q22 -129 43.5 -194t51.5 -92l-3 -21h-146q-20 45 -35 111t-34 196l-25 168q-18 123 -54 165t-118 42h-101v-682h-122zM220 779
h127q102 0 151.5 50t49.5 154v114q0 106 -49 155.5t-152 49.5h-127v-523z" />
    <glyph glyph-name="racute" unicode="&#x155;" horiz-adv-x="496" 
d="M336 1400h121l-142 -259h-96zM90 0v1050h123q1 -61 -42 -207l19 -6q42 126 97.5 177.5t156.5 57.5l27 -111l-60 -8q-108 -12 -156 -93t-48 -254v-606h-117z" />
    <glyph glyph-name="uni0156" unicode="&#x156;" horiz-adv-x="752" 
d="M98 0v1400h264q310 0 310 -302v-97q0 -118 -57 -186t-167 -81v-14q71 -18 107 -68.5t57 -174.5l29 -170q22 -129 43.5 -194t51.5 -92l-3 -21h-146q-20 45 -35 111t-34 196l-25 168q-18 123 -54 165t-118 42h-101v-682h-122zM220 779h127q102 0 151.5 50t49.5 154v114
q0 106 -49 155.5t-152 49.5h-127v-523zM336 -80h143v-103q0 -82 -29.5 -118.5t-104.5 -43.5l-10 54q41 3 57 22.5t16 65.5h-72v123z" />
    <glyph glyph-name="uni0157" unicode="&#x157;" horiz-adv-x="496" 
d="M90 0v1050h123q1 -61 -42 -207l19 -6q42 126 97.5 177.5t156.5 57.5l27 -111l-60 -8q-108 -12 -156 -93t-48 -254v-606h-117zM77 -80h143v-103q0 -82 -29.5 -118.5t-104.5 -43.5l-10 54q41 3 57 22.5t16 65.5h-72v123z" />
    <glyph glyph-name="Rcaron" unicode="&#x158;" horiz-adv-x="752" 
d="M159 1680h101l91 -108l90 108h101l-132 -189h-118zM98 0v1400h264q310 0 310 -302v-97q0 -118 -57 -186t-167 -81v-14q71 -18 107 -68.5t57 -174.5l29 -170q22 -129 43.5 -194t51.5 -92l-3 -21h-146q-20 45 -35 111t-34 196l-25 168q-18 123 -54 165t-118 42h-101v-682
h-122zM220 779h127q102 0 151.5 50t49.5 154v114q0 106 -49 155.5t-152 49.5h-127v-523z" />
    <glyph glyph-name="rcaron" unicode="&#x159;" horiz-adv-x="496" 
d="M76 1400h93l95 -161l95 161h92l-132 -259h-111zM90 0v1050h123q1 -61 -42 -207l19 -6q42 126 97.5 177.5t156.5 57.5l27 -111l-60 -8q-108 -12 -156 -93t-48 -254v-606h-117z" />
    <glyph glyph-name="Sacute" unicode="&#x15a;" horiz-adv-x="744" 
d="M446 1750h121l-142 -259h-96zM385 -16q-329 0 -329 424v57l119 36v-66q0 -198 51 -279t161 -81q86 0 134.5 51t48.5 143q0 87 -42 168t-135 184l-117 131q-101 107 -146 195.5t-45 198.5q1 129 73 199.5t204 70.5q297 0 297 -380v-57l-116 -34v64q0 172 -44 244.5
t-138 72.5q-76 0 -119 -43.5t-43 -120.5q0 -88 37 -161.5t132 -172.5l116 -129q100 -108 152 -205.5t52 -207.5q0 -144 -79.5 -223t-223.5 -79z" />
    <glyph glyph-name="sacute" unicode="&#x15b;" horiz-adv-x="606" 
d="M371 1400h121l-142 -259h-96zM316 -16q-128 0 -197.5 76.5t-69.5 235.5v35l110 38v-44q0 -133 39 -192.5t118 -59.5q62 0 97 36.5t35 103.5q0 70 -33.5 129.5t-106.5 127.5l-95 87q-75 71 -111 137t-36 146q0 111 57.5 168.5t168.5 57.5q243 0 243 -272v-36l-111 -34v44
q0 114 -32 162t-99 48q-58 0 -89.5 -31t-31.5 -89t29 -111t98 -117l94 -87q81 -74 123 -146.5t42 -166.5q0 -118 -63 -182t-179 -64z" />
    <glyph glyph-name="Scedilla" unicode="&#x15e;" horiz-adv-x="744" 
d="M688 286q0 -136 -72 -214.5t-203 -86.5l-10 -66q134 -30 134 -146q0 -67 -40.5 -105t-111.5 -38q-68 0 -121 33l14 76q48 -30 100 -30q34 0 53.5 19t19.5 52q0 43 -35.5 65t-105.5 30l16 113q-270 36 -270 420v57l119 36v-66q0 -198 51 -279t161 -81q86 0 134.5 51
t48.5 143q0 87 -42 168t-135 184l-117 131q-101 107 -146 195.5t-45 198.5q1 129 73 199.5t204 70.5q297 0 297 -380v-57l-116 -34v64q0 172 -44 244.5t-138 72.5q-76 0 -119 -43.5t-43 -120.5q0 -88 37 -161.5t132 -172.5l116 -129q100 -108 152 -205.5t52 -207.5z" />
    <glyph glyph-name="scedilla" unicode="&#x15f;" horiz-adv-x="606" 
d="M558 230q0 -112 -56.5 -175t-161.5 -70l-10 -66q134 -30 134 -146q0 -67 -40.5 -105t-111.5 -38q-68 0 -121 33l14 76q48 -30 100 -30q34 0 53.5 19t19.5 52q0 43 -35.5 65t-105.5 30l16 114q-204 35 -204 307v35l110 38v-44q0 -133 39 -192.5t118 -59.5q62 0 97 36.5
t35 103.5q0 70 -33.5 129.5t-106.5 127.5l-95 87q-75 71 -111 137t-36 146q0 111 57.5 168.5t168.5 57.5q243 0 243 -272v-36l-111 -34v44q0 114 -32 162t-99 48q-58 0 -89.5 -31t-31.5 -89t29 -111t98 -117l94 -87q81 -74 123 -146.5t42 -166.5z" />
    <glyph glyph-name="Scaron" unicode="&#x160;" horiz-adv-x="744" 
d="M182 1680h101l91 -108l90 108h101l-132 -189h-118zM385 -16q-329 0 -329 424v57l119 36v-66q0 -198 51 -279t161 -81q86 0 134.5 51t48.5 143q0 87 -42 168t-135 184l-117 131q-101 107 -146 195.5t-45 198.5q1 129 73 199.5t204 70.5q297 0 297 -380v-57l-116 -34v64
q0 172 -44 244.5t-138 72.5q-76 0 -119 -43.5t-43 -120.5q0 -88 37 -161.5t132 -172.5l116 -129q100 -108 152 -205.5t52 -207.5q0 -144 -79.5 -223t-223.5 -79z" />
    <glyph glyph-name="scaron" unicode="&#x161;" horiz-adv-x="606" 
d="M111 1400h93l95 -161l95 161h92l-132 -259h-111zM316 -16q-128 0 -197.5 76.5t-69.5 235.5v35l110 38v-44q0 -133 39 -192.5t118 -59.5q62 0 97 36.5t35 103.5q0 70 -33.5 129.5t-106.5 127.5l-95 87q-75 71 -111 137t-36 146q0 111 57.5 168.5t168.5 57.5
q243 0 243 -272v-36l-111 -34v44q0 114 -32 162t-99 48q-58 0 -89.5 -31t-31.5 -89t29 -111t98 -117l94 -87q81 -74 123 -146.5t42 -166.5q0 -118 -63 -182t-179 -64z" />
    <glyph glyph-name="uni0162" unicode="&#x162;" horiz-adv-x="659" 
d="M391 0h-22l-12 -81q134 -30 134 -146q0 -67 -40.5 -105t-111.5 -38q-68 0 -121 33l14 76q48 -30 100 -30q34 0 53.5 19t19.5 52q0 43 -35.5 65t-105.5 30l18 125h-13v1300h-251v100h623v-100h-250v-1300z" />
    <glyph glyph-name="uni0163" unicode="&#x163;" horiz-adv-x="502" 
d="M471 954h-211v-756q0 -60 22.5 -85t70.5 -25q57 0 118 30l-8 -98q-45 -31 -121 -34l-10 -67q134 -30 134 -146q0 -67 -40.5 -105t-111.5 -38q-68 0 -121 33l14 76q48 -30 100 -30q34 0 53.5 19t19.5 52q0 43 -35.5 65t-105.5 30l17 118q-113 33 -113 194v767h-119v96h119
v258l117 47v-305h211v-96z" />
    <glyph glyph-name="Tcaron" unicode="&#x164;" horiz-adv-x="659" 
d="M138 1680h101l91 -108l90 108h101l-132 -189h-118zM269 0v1300h-251v100h623v-100h-250v-1300h-122z" />
    <glyph glyph-name="tcaron" unicode="&#x165;" horiz-adv-x="502" 
d="M317 1400h137v-103q0 -81 -28.5 -117t-99.5 -43l-10 54q39 3 54.5 22t15.5 64h-69v123zM325 -15q-92 0 -137 48.5t-45 153.5v767h-119v96h119v258l117 47v-305h211v-96h-211v-756q0 -60 22.5 -85t70.5 -25q57 0 118 30l-8 -98q-53 -35 -138 -35z" />
    <glyph glyph-name="Tbar" unicode="&#x166;" horiz-adv-x="659" 
d="M641 1300h-250v-493h153v-97h-153v-710h-122v710h-154v97h154v493h-251v100h623v-100z" />
    <glyph glyph-name="tbar" unicode="&#x167;" horiz-adv-x="502" 
d="M471 954h-211v-288h210v-93h-210v-375q0 -60 22.5 -85t70.5 -25q57 0 118 30l-8 -98q-53 -35 -138 -35q-92 0 -137 48.5t-45 153.5v386h-119v93h119v288h-119v96h119v258l117 47v-305h211v-96z" />
    <glyph glyph-name="Utilde" unicode="&#x168;" horiz-adv-x="801" 
d="M495 1495q-33 0 -70 22.5t-67.5 44.5t-47.5 22q-22 0 -32 -19.5t-11 -64.5h-70q3 167 111 167q32 0 68.5 -22.5t67.5 -44.5t48 -22q22 0 31.5 19.5t10.5 64.5h70q-4 -167 -109 -167zM584 1400h122v-1104q0 -159 -75 -235.5t-230 -76.5t-230.5 76.5t-75.5 235.5v1104h122
v-1096q0 -117 45 -171.5t139 -54.5t138.5 54.5t44.5 171.5v1096z" />
    <glyph glyph-name="utilde" unicode="&#x169;" horiz-adv-x="693" 
d="M442 1169q-33 0 -70.5 22.5t-68 44.5t-47.5 22q-22 0 -32 -19t-12 -65h-70q2 87 28.5 128.5t81.5 41.5q32 0 69 -22.5t68 -45t48 -22.5q22 0 31.5 19.5t10.5 65.5h70q-3 -170 -107 -170zM603 1050v-1050h-122q2 66 43 205l-19 7q-40 -120 -99 -173.5t-141 -53.5
q-87 0 -132 50.5t-45 145.5v869h117v-850q0 -59 25.5 -90.5t74.5 -31.5q79 0 130 99t51 251v622h117z" />
    <glyph glyph-name="Umacron" unicode="&#x16a;" horiz-adv-x="801" 
d="M206 1534v90h390v-90h-390zM584 1400h122v-1104q0 -159 -75 -235.5t-230 -76.5t-230.5 76.5t-75.5 235.5v1104h122v-1096q0 -117 45 -171.5t139 -54.5t138.5 54.5t44.5 171.5v1096z" />
    <glyph glyph-name="umacron" unicode="&#x16b;" horiz-adv-x="693" 
d="M150 1184v90h390v-90h-390zM603 1050v-1050h-122q2 66 43 205l-19 7q-40 -120 -99 -173.5t-141 -53.5q-87 0 -132 50.5t-45 145.5v869h117v-850q0 -59 25.5 -90.5t74.5 -31.5q79 0 130 99t51 251v622h117z" />
    <glyph glyph-name="Ubreve" unicode="&#x16c;" horiz-adv-x="801" 
d="M489 1680h87q-1 -93 -46 -141.5t-129 -48.5t-129.5 48.5t-46.5 141.5h87q3 -108 89 -108q85 0 88 108zM584 1400h122v-1104q0 -159 -75 -235.5t-230 -76.5t-230.5 76.5t-75.5 235.5v1104h122v-1096q0 -117 45 -171.5t139 -54.5t138.5 54.5t44.5 171.5v1096z" />
    <glyph glyph-name="ubreve" unicode="&#x16d;" horiz-adv-x="693" 
d="M429 1401h87q-2 -134 -42 -194.5t-128 -60.5t-128.5 60t-42.5 195h87q2 -92 21 -131t63 -39t62.5 39.5t20.5 130.5zM603 1050v-1050h-122q2 66 43 205l-19 7q-40 -120 -99 -173.5t-141 -53.5q-87 0 -132 50.5t-45 145.5v869h117v-850q0 -59 25.5 -90.5t74.5 -31.5
q79 0 130 99t51 251v622h117z" />
    <glyph glyph-name="Uring" unicode="&#x16e;" horiz-adv-x="801" 
d="M401 1467q-73 0 -117 38.5t-44 102.5t44 102.5t117 38.5t117.5 -38.5t44.5 -102.5t-44.5 -102.5t-117.5 -38.5zM401 1540q37 0 58.5 18.5t21.5 49.5t-21.5 49.5t-58.5 18.5t-58.5 -18.5t-21.5 -49.5t21.5 -49.5t58.5 -18.5zM584 1400h122v-1104q0 -159 -75 -235.5
t-230 -76.5t-230.5 76.5t-75.5 235.5v1104h122v-1096q0 -117 45 -171.5t139 -54.5t138.5 54.5t44.5 171.5v1096z" />
    <glyph glyph-name="uring" unicode="&#x16f;" horiz-adv-x="693" 
d="M345 1130q-71 0 -117 45t-46 115t46 114.5t117 44.5q72 0 118 -44.5t46 -114.5t-46 -115t-118 -45zM345 1207q37 0 60 23t23 60q0 36 -23 59t-60 23q-36 0 -59 -23t-23 -59q0 -37 23 -60t59 -23zM603 1050v-1050h-122q2 66 43 205l-19 7q-40 -120 -99 -173.5t-141 -53.5
q-87 0 -132 50.5t-45 145.5v869h117v-850q0 -59 25.5 -90.5t74.5 -31.5q79 0 130 99t51 251v622h117z" />
    <glyph glyph-name="Uhungarumlaut" unicode="&#x170;" horiz-adv-x="801" 
d="M248 1491l98 189h128l-123 -189h-103zM442 1491l98 189h127l-123 -189h-102zM584 1400h122v-1104q0 -159 -75 -235.5t-230 -76.5t-230.5 76.5t-75.5 235.5v1104h122v-1096q0 -117 45 -171.5t139 -54.5t138.5 54.5t44.5 171.5v1096z" />
    <glyph glyph-name="uhungarumlaut" unicode="&#x171;" horiz-adv-x="693" 
d="M314 1400h121l-142 -259h-96zM506 1400h121l-141 -259h-96zM603 1050v-1050h-122q2 66 43 205l-19 7q-40 -120 -99 -173.5t-141 -53.5q-87 0 -132 50.5t-45 145.5v869h117v-850q0 -59 25.5 -90.5t74.5 -31.5q79 0 130 99t51 251v622h117z" />
    <glyph glyph-name="Uogonek" unicode="&#x172;" horiz-adv-x="801" 
d="M584 1400h122v-1104q0 -248 -187 -298q-100 -53 -100 -117q0 -48 57 -48q20 0 46 7l-18 -85q-32 -10 -60 -10q-56 0 -86 26.5t-30 76.5q0 75 74 136h-1q-155 0 -230.5 76.5t-75.5 235.5v1104h122v-1096q0 -117 45 -171.5t139 -54.5t138.5 54.5t44.5 171.5v1096z" />
    <glyph glyph-name="uogonek" unicode="&#x173;" horiz-adv-x="693" 
d="M603 0q-107 -51 -107 -120q0 -47 56 -47q20 0 46 7l-18 -85q-30 -10 -60 -10q-56 0 -85.5 26.5t-29.5 77.5q0 92 102 151h-26q2 66 43 205l-19 7q-40 -120 -99 -173.5t-141 -53.5q-87 0 -132 50.5t-45 145.5v869h117v-850q0 -59 25.5 -90.5t74.5 -31.5q79 0 130 99
t51 251v622h117v-1050z" />
    <glyph glyph-name="Wcircumflex" unicode="&#x174;" horiz-adv-x="1116" 
d="M366 1491l133 189h118l132 -189h-101l-90 108l-91 -108h-101zM247 0l-224 1400h123l124 -826q27 -178 42 -387h21q15 225 37 387l118 826h142l118 -826q24 -165 37 -386h21q16 193 43 386l124 826h120l-223 -1400h-148l-104 778q-28 202 -49 401h-21q-15 -156 -48 -401
l-106 -778h-147z" />
    <glyph glyph-name="wcircumflex" unicode="&#x175;" horiz-adv-x="913" 
d="M269 1141l132 259h111l132 -259h-92l-95 161l-95 -161h-93zM194 0l-174 1050h119l84 -576q22 -158 32 -286h16q13 145 35 287l89 575h125l90 -575q23 -146 34 -287h17q10 146 31 286l85 576h116l-174 -1050h-132l-86 569q-25 151 -36 293h-16q-12 -141 -36 -293l-88 -569
h-131z" />
    <glyph glyph-name="Ycircumflex" unicode="&#x176;" horiz-adv-x="698" 
d="M158 1491l133 189h118l132 -189h-101l-90 108l-91 -108h-101zM678 1400l-268 -832v-568h-122v568l-268 832h131l130 -426q36 -132 63 -270h15q23 120 64 270l131 426h124z" />
    <glyph glyph-name="ycircumflex" unicode="&#x177;" horiz-adv-x="604" 
d="M118 1141l132 259h111l132 -259h-92l-95 161l-95 -161h-93zM47 -366l-31 125l94 11q68 8 93 35.5t30 97.5l7 92l-223 1055h121l107 -616q36 -182 55 -344h15q17 146 54 344l104 616h114l-200 -996q-39 -203 -116 -296t-224 -124z" />
    <glyph glyph-name="Ydieresis" unicode="&#x178;" horiz-adv-x="698" 
d="M169 1508v163h129v-163h-129zM403 1508v163h129v-163h-129zM678 1400l-268 -832v-568h-122v568l-268 832h131l130 -426q36 -132 63 -270h15q23 120 64 270l131 426h124z" />
    <glyph glyph-name="Zacute" unicode="&#x179;" horiz-adv-x="605" 
d="M256 1491l98 189h128l-123 -189h-103zM21 0l-3 7l358 1170q28 82 46 117l-6 9q-47 -2 -130 -2h-250v99h531l2 -7l-348 -1161q-26 -75 -50 -125l6 -9q38 1 112 1h297v-99h-565z" />
    <glyph glyph-name="zacute" unicode="&#x17a;" horiz-adv-x="558" 
d="M354 1400h121l-142 -259h-96zM33 0l-4 11l317 872q12 34 26 63l-5 9q-20 -1 -62 -1h-252v96h467l4 -11l-306 -868q-13 -31 -31 -66l5 -10q18 1 50 1h291v-96h-500z" />
    <glyph glyph-name="Zdotaccent" unicode="&#x17b;" horiz-adv-x="605" 
d="M227 1508v163h152v-163h-152zM21 0l-3 7l358 1170q28 82 46 117l-6 9q-47 -2 -130 -2h-250v99h531l2 -7l-348 -1161q-26 -75 -50 -125l6 -9q38 1 112 1h297v-99h-565z" />
    <glyph glyph-name="zdotaccent" unicode="&#x17c;" horiz-adv-x="558" 
d="M205 1198v163h152v-163h-152zM33 0l-4 11l317 872q12 34 26 63l-5 9q-20 -1 -62 -1h-252v96h467l4 -11l-306 -868q-13 -31 -31 -66l5 -10q18 1 50 1h291v-96h-500z" />
    <glyph glyph-name="Zcaron" unicode="&#x17d;" horiz-adv-x="605" 
d="M111 1680h101l91 -108l90 108h101l-132 -189h-118zM21 0l-3 7l358 1170q28 82 46 117l-6 9q-47 -2 -130 -2h-250v99h531l2 -7l-348 -1161q-26 -75 -50 -125l6 -9q38 1 112 1h297v-99h-565z" />
    <glyph glyph-name="zcaron" unicode="&#x17e;" horiz-adv-x="558" 
d="M94 1400h93l95 -161l95 161h92l-132 -259h-111zM33 0l-4 11l317 872q12 34 26 63l-5 9q-20 -1 -62 -1h-252v96h467l4 -11l-306 -868q-13 -31 -31 -66l5 -10q18 1 50 1h291v-96h-500z" />
    <glyph glyph-name="Gcaron" unicode="&#x1e6;" horiz-adv-x="829" 
d="M219 1680h101l91 -108l90 108h101l-132 -189h-118zM364 -15q-143 0 -216.5 114t-73.5 335v535q0 219 86.5 333t253.5 114q146 0 228 -94t82 -296v-68l-121 -34v73q0 179 -47 253t-142 74q-109 0 -162 -87t-53 -265v-535q0 -183 46 -271t142 -88q101 0 162 150.5t75 430.5
h-244v97h356v-756h-112q-3 98 42 327l-20 4q-42 -182 -109.5 -264t-172.5 -82z" />
    <glyph glyph-name="gcaron" unicode="&#x1e7;" horiz-adv-x="624" 
d="M328 1131h-102l-116 228h81l86 -145l86 145h81zM375 208q35 -9 64.5 -21t62 -35.5t54.5 -54.5t36.5 -79t14.5 -108q0 -276 -297 -276q-293 0 -293 262q0 101 31.5 161t98.5 89v17q-103 48 -103 143q0 97 101 125v18q-77 82 -77 279q0 176 60.5 257t185.5 81q48 0 87 -12
q-33 216 175 253l27 -124l-57 -9q-109 -18 -96 -144q105 -72 105 -302q0 -177 -59.5 -258.5t-182.5 -81.5q-58 0 -103 18q-80 -12 -80 -68q0 -39 31.5 -60.5t111.5 -43.5zM313 981q-68 0 -97.5 -57.5t-29.5 -195.5q0 -139 29.5 -196.5t97.5 -57.5q67 0 96 57.5t29 196.5
q0 137 -29 195t-96 58zM313 -272q190 0 190 178q0 95 -45 140.5t-130 65.5l-94 22q-66 -28 -92 -79t-26 -142q0 -185 197 -185z" />
    <glyph glyph-name="uni01EA" unicode="&#x1ea;" horiz-adv-x="838" 
d="M419 1416q169 0 256.5 -114.5t87.5 -336.5v-531q0 -366 -233 -435q-102 -53 -102 -118q0 -48 57 -48q20 0 46 7l-18 -85q-32 -10 -60 -10q-56 0 -86 26.5t-30 76.5q0 75 74 136q-166 3 -251.5 117.5t-85.5 332.5v531q0 222 87.5 336.5t257.5 114.5zM639 430v539
q0 180 -54.5 266.5t-165.5 86.5t-165.5 -86.5t-54.5 -266.5v-539q0 -178 54.5 -264.5t165.5 -86.5t165.5 86.5t54.5 264.5z" />
    <glyph glyph-name="uni01EB" unicode="&#x1eb;" horiz-adv-x="681" 
d="M340 1066q133 0 203.5 -90t70.5 -261v-380q0 -276 -176 -336q-102 -53 -102 -118q0 -48 57 -48q20 0 46 7l-18 -85q-32 -10 -60 -10q-56 0 -86 26.5t-30 76.5q0 75 74 137q-122 7 -187 96.5t-65 253.5v380q0 171 70 261t203 90zM494 333v384q0 261 -154 261
q-153 0 -153 -261v-384q0 -260 153 -260q154 0 154 260z" />
    <glyph glyph-name="AEacute" unicode="&#x1fc;" horiz-adv-x="1041" 
d="M472 1491l98 189h128l-123 -189h-103zM22 0l391 1400h562v-100h-357v-499h321v-96h-321v-605h372v-100h-494v317h-260l-91 -317h-123zM262 414h234v885h-16q-17 -107 -52 -255z" />
    <glyph glyph-name="aeacute" unicode="&#x1fd;" horiz-adv-x="1035" 
d="M712 1400l-142 -259h-96l117 259h121zM852 317v53l112 -27v-50q0 -155 -70.5 -232.5t-186.5 -76.5q-99 0 -154 54.5t-62 154.5h-18q-51 -209 -226 -209q-87 0 -135.5 57t-48.5 157v40q0 71 18 127t53 96.5t75.5 68t97.5 53.5l139 63v179q0 78 -28.5 116t-90.5 38
q-74 0 -106.5 -57.5t-32.5 -199.5v-61l-114 30v56q0 167 62.5 243t189.5 76q143 0 191 -114q62 114 204 114q117 0 180.5 -79.5t63.5 -231.5q0 -125 -3 -240h-399v-184q0 -258 144 -258q145 0 145 244zM715 978q-78 0 -115 -60t-37 -191v-119h286v150q0 220 -134 220z
M447 327v220l-96 -42q-52 -23 -86.5 -50.5t-58 -78t-23.5 -119.5v-40q0 -66 25 -102t73 -36q72 0 119 67t47 181z" />
    <glyph glyph-name="Oslashacute" unicode="&#x1fe;" horiz-adv-x="840" 
d="M590 1680l-123 -189h-103l98 189h128zM675 1305q91 -115 91 -340v-531q0 -220 -88 -335t-258 -115q-110 0 -185 48l-46 -132h-91l67 195q-91 115 -91 339v531q0 221 88.5 336t257.5 115q110 0 185 -48l46 132h91zM199 431q0 -111 20 -182l349 1012q-54 63 -149 63
q-220 0 -220 -357v-536zM641 431v536q0 107 -20 184l-349 -1012q54 -63 148 -63q221 0 221 355z" />
    <glyph glyph-name="oslashacute" unicode="&#x1ff;" horiz-adv-x="653" 
d="M513 1400l-142 -259h-96l117 259h121zM510 998q90 -88 90 -283v-380q0 -171 -70 -261t-204 -90q-61 0 -112 20l-34 -114h-84l48 160q-91 89 -91 285v380q0 171 70 261t203 90q64 0 114 -21l34 114h84zM171 333q0 -85 16 -139l225 756q-34 28 -85 28q-156 0 -156 -261
v-384zM482 333v384q0 81 -15 137l-225 -754q35 -27 85 -27q155 0 155 260z" />
    <glyph glyph-name="uni0218" unicode="&#x218;" horiz-adv-x="744" 
d="M385 -16q-329 0 -329 424v57l119 36v-66q0 -198 51 -279t161 -81q86 0 134.5 51t48.5 143q0 87 -42 168t-135 184l-117 131q-101 107 -146 195.5t-45 198.5q1 129 73 199.5t204 70.5q297 0 297 -380v-57l-116 -34v64q0 172 -44 244.5t-138 72.5q-76 0 -119 -43.5
t-43 -120.5q0 -88 37 -161.5t132 -172.5l116 -129q100 -108 152 -205.5t52 -207.5q0 -144 -79.5 -223t-223.5 -79zM304 -80h143v-103q0 -82 -29.5 -118.5t-104.5 -43.5l-10 54q41 3 57 22.5t16 65.5h-72v123z" />
    <glyph glyph-name="uni0219" unicode="&#x219;" horiz-adv-x="606" 
d="M316 -16q-128 0 -197.5 76.5t-69.5 235.5v35l110 38v-44q0 -133 39 -192.5t118 -59.5q62 0 97 36.5t35 103.5q0 70 -33.5 129.5t-106.5 127.5l-95 87q-75 71 -111 137t-36 146q0 111 57.5 168.5t168.5 57.5q243 0 243 -272v-36l-111 -34v44q0 114 -32 162t-99 48
q-58 0 -89.5 -31t-31.5 -89t29 -111t98 -117l94 -87q81 -74 123 -146.5t42 -166.5q0 -118 -63 -182t-179 -64zM231 -80h143v-103q0 -82 -29.5 -118.5t-104.5 -43.5l-10 54q41 3 57 22.5t16 65.5h-72v123z" />
    <glyph glyph-name="uni021A" unicode="&#x21a;" horiz-adv-x="659" 
d="M269 0v1300h-251v100h623v-100h-250v-1300h-122zM259 -80h143v-103q0 -82 -29.5 -118.5t-104.5 -43.5l-10 54q41 3 57 22.5t16 65.5h-72v123z" />
    <glyph glyph-name="uni021B" unicode="&#x21b;" horiz-adv-x="502" 
d="M325 -15q-92 0 -137 48.5t-45 153.5v767h-119v96h119v258l117 47v-305h211v-96h-211v-756q0 -60 22.5 -85t70.5 -25q57 0 118 30l-8 -98q-53 -35 -138 -35zM234 -80h143v-103q0 -82 -29.5 -118.5t-104.5 -43.5l-10 54q41 3 57 22.5t16 65.5h-72v123z" />
    <glyph glyph-name="uni0237" unicode="&#x237;" horiz-adv-x="298" 
d="M-79 -366l-30 128l80 8q67 7 93 32.5t26 91.5v1156h117v-1008q0 -177 -70 -275t-216 -133z" />
    <glyph glyph-name="circumflex" unicode="&#x2c6;" horiz-adv-x="375" 
d="M0 1141l132 259h111l132 -259h-92l-95 161l-95 -161h-93z" />
    <glyph glyph-name="caron" unicode="&#x2c7;" horiz-adv-x="375" 
d="M0 1400h93l95 -161l95 161h92l-132 -259h-111z" />
    <glyph glyph-name="breve" unicode="&#x2d8;" horiz-adv-x="341" 
d="M254 1400h87q-2 -134 -42 -194.5t-128 -60.5t-128.5 60t-42.5 195h87q2 -92 21 -131t63 -39t62.5 39.5t20.5 130.5z" />
    <glyph glyph-name="dotaccent" unicode="&#x2d9;" horiz-adv-x="152" 
d="M0 1198v163h152v-163h-152z" />
    <glyph glyph-name="ring" unicode="&#x2da;" horiz-adv-x="327" 
d="M163 1130q-71 0 -117 45t-46 115t46 114.5t117 44.5q72 0 118 -44.5t46 -114.5t-46 -115t-118 -45zM163 1207q37 0 60 23t23 60q0 36 -23 59t-60 23q-36 0 -59 -23t-23 -59q0 -37 23 -60t59 -23z" />
    <glyph glyph-name="ogonek" unicode="&#x2db;" horiz-adv-x="192" 
d="M115 13l82 -12q-106 -53 -106 -120q0 -48 57 -48q20 0 46 7l-18 -85q-32 -10 -60 -10q-56 0 -86 26.5t-30 76.5q0 96 115 165z" />
    <glyph glyph-name="tilde" unicode="&#x2dc;" horiz-adv-x="403" 
d="M298 1169q-33 0 -70.5 22.5t-68 44.5t-47.5 22q-22 0 -32 -19t-12 -65h-70q2 87 28.5 128.5t81.5 41.5q32 0 69 -22.5t68 -45t48 -22.5q22 0 31.5 19.5t10.5 65.5h70q-3 -170 -107 -170z" />
    <glyph glyph-name="hungarumlaut" unicode="&#x2dd;" horiz-adv-x="430" 
d="M117 1400h121l-142 -259h-96zM309 1400h121l-141 -259h-96z" />
    <glyph glyph-name="gravecomb" unicode="&#x300;" 
d="M-117 1400l117 -259h-96l-142 259h121z" />
    <glyph glyph-name="acutecomb" unicode="&#x301;" 
d="M-121 1400h121l-142 -259h-96z" />
    <glyph glyph-name="uni0302" unicode="&#x302;" 
d="M-375 1141l132 259h111l132 -259h-92l-95 161l-95 -161h-93z" />
    <glyph glyph-name="tildecomb" unicode="&#x303;" 
d="M-105 1169q-33 0 -70.5 22.5t-68 44.5t-47.5 22q-22 0 -32 -19t-12 -65h-70q2 87 28.5 128.5t81.5 41.5q32 0 69 -22.5t68 -45t48 -22.5q22 0 31.5 19.5t10.5 65.5h70q-3 -170 -107 -170z" />
    <glyph glyph-name="uni0304" unicode="&#x304;" 
d="M-390 1184v90h390v-90h-390z" />
    <glyph glyph-name="uni0306" unicode="&#x306;" 
d="M-87 1400h87q-2 -134 -42 -194.5t-128 -60.5t-128.5 60t-42.5 195h87q2 -92 21 -131t63 -39t62.5 39.5t20.5 130.5z" />
    <glyph glyph-name="uni0307" unicode="&#x307;" 
d="M-152 1198v163h152v-163h-152z" />
    <glyph glyph-name="uni0308" unicode="&#x308;" 
d="M-363 1198v163h129v-163h-129zM-129 1198v163h129v-163h-129z" />
    <glyph glyph-name="uni030A" unicode="&#x30a;" 
d="M-164 1130q-71 0 -117 45t-46 115t46 114.5t117 44.5q72 0 118 -44.5t46 -114.5t-46 -115t-118 -45zM-164 1207q37 0 60 23t23 60q0 36 -23 59t-60 23q-36 0 -59 -23t-23 -59q0 -37 23 -60t59 -23z" />
    <glyph glyph-name="uni030B" unicode="&#x30b;" 
d="M-313 1400h121l-142 -259h-96zM-121 1400h121l-141 -259h-96z" />
    <glyph glyph-name="uni030C" unicode="&#x30c;" 
d="M-375 1400h93l95 -161l95 161h92l-132 -259h-111z" />
    <glyph glyph-name="uni0326" unicode="&#x326;" 
d="M-143 -80h143v-103q0 -82 -29.5 -118.5t-104.5 -43.5l-10 54q41 3 57 22.5t16 65.5h-72v123z" />
    <glyph glyph-name="uni0327" unicode="&#x327;" 
d="M-152 -370q-68 0 -121 33l14 76q48 -30 100 -30q34 0 53.5 19t19.5 52q0 43 -35.5 65t-105.5 30l19 135h88l-14 -91q134 -30 134 -146q0 -67 -40.5 -105t-111.5 -38z" />
    <glyph glyph-name="uni0328" unicode="&#x328;" 
d="M-89 4l89 -4q-107 -51 -107 -120q0 -47 56 -47q20 0 46 7l-18 -85q-30 -10 -60 -10q-56 0 -85.5 26.5t-29.5 77.5q0 95 109 155z" />
    <glyph glyph-name="Wgrave" unicode="&#x1e80;" horiz-adv-x="1116" 
d="M606 1491h-103l-123 189h127zM247 0l-224 1400h123l124 -826q27 -178 42 -387h21q15 225 37 387l118 826h142l118 -826q24 -165 37 -386h21q16 193 43 386l124 826h120l-223 -1400h-148l-104 778q-28 202 -49 401h-21q-15 -156 -48 -401l-106 -778h-147z" />
    <glyph glyph-name="wgrave" unicode="&#x1e81;" horiz-adv-x="913" 
d="M385 1400l117 -259h-96l-142 259h121zM194 0l-174 1050h119l84 -576q22 -158 32 -286h16q13 145 35 287l89 575h125l90 -575q23 -146 34 -287h17q10 146 31 286l85 576h116l-174 -1050h-132l-86 569q-25 151 -36 293h-16q-12 -141 -36 -293l-88 -569h-131z" />
    <glyph glyph-name="Wacute" unicode="&#x1e82;" horiz-adv-x="1116" 
d="M511 1491l98 189h128l-123 -189h-103zM247 0l-224 1400h123l124 -826q27 -178 42 -387h21q15 225 37 387l118 826h142l118 -826q24 -165 37 -386h21q16 193 43 386l124 826h120l-223 -1400h-148l-104 778q-28 202 -49 401h-21q-15 -156 -48 -401l-106 -778h-147z" />
    <glyph glyph-name="wacute" unicode="&#x1e83;" horiz-adv-x="913" 
d="M529 1400h121l-142 -259h-96zM194 0l-174 1050h119l84 -576q22 -158 32 -286h16q13 145 35 287l89 575h125l90 -575q23 -146 34 -287h17q10 146 31 286l85 576h116l-174 -1050h-132l-86 569q-25 151 -36 293h-16q-12 -141 -36 -293l-88 -569h-131z" />
    <glyph glyph-name="Wdieresis" unicode="&#x1e84;" horiz-adv-x="1116" 
d="M377 1508v163h129v-163h-129zM611 1508v163h129v-163h-129zM247 0l-224 1400h123l124 -826q27 -178 42 -387h21q15 225 37 387l118 826h142l118 -826q24 -165 37 -386h21q16 193 43 386l124 826h120l-223 -1400h-148l-104 778q-28 202 -49 401h-21q-15 -156 -48 -401
l-106 -778h-147z" />
    <glyph glyph-name="wdieresis" unicode="&#x1e85;" horiz-adv-x="913" 
d="M275 1198v163h129v-163h-129zM509 1198v163h129v-163h-129zM194 0l-174 1050h119l84 -576q22 -158 32 -286h16q13 145 35 287l89 575h125l90 -575q23 -146 34 -287h17q10 146 31 286l85 576h116l-174 -1050h-132l-86 569q-25 151 -36 293h-16q-12 -141 -36 -293l-88 -569
h-131z" />
    <glyph glyph-name="uni1E9E" unicode="&#x1e9e;" horiz-adv-x="739" 
d="M473 -10q-73 0 -123 31t-71 88l61 75q29 -104 124 -104q54 0 82.5 33t28.5 96q0 104 -86 243l-52 82q-89 140 -89 237q0 55 21 103t51 83t60.5 68t51.5 72.5t21 81.5q0 70 -40.5 108.5t-119.5 38.5q-92 0 -136.5 -47t-44.5 -144v-1135h-122v1131q0 138 78 211.5t226 73.5
q130 0 198.5 -62t68.5 -173q0 -50 -20.5 -95t-50.5 -79t-59.5 -67t-50 -72t-20.5 -80q0 -81 80 -203l52 -82q97 -153 97 -288q0 -111 -56 -168t-160 -57z" />
    <glyph glyph-name="uni1EBC" unicode="&#x1ebc;" horiz-adv-x="645" 
d="M440 1495q-33 0 -70 22.5t-67.5 44.5t-47.5 22q-22 0 -32 -19.5t-11 -64.5h-70q3 167 111 167q32 0 68.5 -22.5t67.5 -44.5t48 -22q22 0 31.5 19.5t10.5 64.5h70q-4 -167 -109 -167zM220 100h374v-100h-496v1400h481v-100h-359v-499h324v-96h-324v-605z" />
    <glyph glyph-name="uni1EBD" unicode="&#x1ebd;" horiz-adv-x="680" 
d="M255 1258q-22 0 -32 -19t-12 -65h-70q2 87 28.5 128.5t81.5 41.5q32 0 69 -22.5t68 -45t48 -22.5q22 0 31.5 19.5t10.5 65.5h70q-3 -170 -107 -170q-33 0 -70.5 22.5t-68 44.5t-47.5 22zM497 370l115 -27v-50q0 -158 -73.5 -234t-197.5 -75q-134 0 -203.5 89.5
t-69.5 260.5v384q0 171 70.5 259.5t207.5 88.5q127 0 193 -79.5t66 -231.5q0 -12 -3 -243h-417v-181q0 -130 39 -194t120 -64q153 0 153 244v53zM347 978q-162 0 -162 -257v-113h303v150q0 220 -141 220z" />
    <glyph glyph-name="Ygrave" unicode="&#x1ef2;" horiz-adv-x="698" 
d="M398 1491h-103l-123 189h127zM678 1400l-268 -832v-568h-122v568l-268 832h131l130 -426q36 -132 63 -270h15q23 120 64 270l131 426h124z" />
    <glyph glyph-name="ygrave" unicode="&#x1ef3;" horiz-adv-x="604" 
d="M234 1400l117 -259h-96l-142 259h121zM47 -366l-31 125l94 11q68 8 93 35.5t30 97.5l7 92l-223 1055h121l107 -616q36 -182 55 -344h15q17 146 54 344l104 616h114l-200 -996q-39 -203 -116 -296t-224 -124z" />
    <glyph glyph-name="uni1EF8" unicode="&#x1ef8;" horiz-adv-x="698" 
d="M444 1495q-33 0 -70 22.5t-67.5 44.5t-47.5 22q-22 0 -32 -19.5t-11 -64.5h-70q3 167 111 167q32 0 68.5 -22.5t67.5 -44.5t48 -22q22 0 31.5 19.5t10.5 64.5h70q-4 -167 -109 -167zM678 1400l-268 -832v-568h-122v568l-268 832h131l130 -426q36 -132 63 -270h15
q23 120 64 270l131 426h124z" />
    <glyph glyph-name="uni1EF9" unicode="&#x1ef9;" horiz-adv-x="604" 
d="M402 1169q-33 0 -70.5 22.5t-68 44.5t-47.5 22q-22 0 -32 -19t-12 -65h-70q2 87 28.5 128.5t81.5 41.5q32 0 69 -22.5t68 -45t48 -22.5q22 0 31.5 19.5t10.5 65.5h70q-3 -170 -107 -170zM47 -366l-31 125l94 11q68 8 93 35.5t30 97.5l7 92l-223 1055h121l107 -616
q36 -182 55 -344h15q17 146 54 344l104 616h114l-200 -996q-39 -203 -116 -296t-224 -124z" />
    <glyph glyph-name="uni2002" unicode="&#x2002;" horiz-adv-x="1024" 
 />
    <glyph glyph-name="uni2003" unicode="&#x2003;" horiz-adv-x="2048" 
 />
    <glyph glyph-name="uni2004" unicode="&#x2004;" horiz-adv-x="683" 
 />
    <glyph glyph-name="uni2005" unicode="&#x2005;" horiz-adv-x="512" 
 />
    <glyph glyph-name="uni2006" unicode="&#x2006;" horiz-adv-x="341" 
 />
    <glyph glyph-name="uni2007" unicode="&#x2007;" horiz-adv-x="797" 
 />
    <glyph glyph-name="uni2008" unicode="&#x2008;" horiz-adv-x="291" 
 />
    <glyph glyph-name="uni2009" unicode="&#x2009;" horiz-adv-x="410" 
 />
    <glyph glyph-name="uni200A" unicode="&#x200a;" horiz-adv-x="293" 
 />
    <glyph glyph-name="endash" unicode="&#x2013;" horiz-adv-x="764" 
d="M53 592h658v-94h-658v94z" />
    <glyph glyph-name="emdash" unicode="&#x2014;" horiz-adv-x="1076" 
d="M53 592h970v-94h-970v94z" />
    <glyph glyph-name="quoteleft" unicode="&#x2018;" horiz-adv-x="293" 
d="M230 1017h-168v139q0 119 39.5 175t140.5 85l16 -61q-66 -23 -90.5 -60.5t-23.5 -114.5h86v-163z" />
    <glyph glyph-name="quoteright" unicode="&#x2019;" horiz-adv-x="293" 
d="M63 1400h168v-138q0 -120 -39.5 -176t-140.5 -85l-16 61q66 23 90.5 60.5t23.5 114.5h-86v163z" />
    <glyph glyph-name="quotesinglbase" unicode="&#x201a;" horiz-adv-x="291" 
d="M62 163h168v-139q0 -119 -40 -175t-141 -85l-16 61q66 23 90.5 60.5t23.5 114.5h-85v163z" />
    <glyph glyph-name="quotedblleft" unicode="&#x201c;" horiz-adv-x="521" 
d="M230 1017h-168v139q0 119 39.5 175t140.5 85l16 -61q-66 -23 -90.5 -60.5t-23.5 -114.5h86v-163zM460 1017h-168v139q0 119 40 175t141 85l15 -61q-66 -22 -90.5 -60t-23.5 -115h86v-163z" />
    <glyph glyph-name="quotedblright" unicode="&#x201d;" horiz-adv-x="523" 
d="M63 1400h168v-138q0 -120 -39.5 -176t-140.5 -85l-16 61q66 23 90.5 60.5t23.5 114.5h-86v163zM294 1400h168v-138q0 -119 -40 -175.5t-141 -85.5l-16 61q66 23 91 60.5t24 114.5h-86v163z" />
    <glyph glyph-name="quotedblbase" unicode="&#x201e;" horiz-adv-x="521" 
d="M62 163h168v-139q0 -119 -40 -175t-141 -85l-16 61q66 23 90.5 60.5t23.5 114.5h-85v163zM292 163h168v-139q0 -119 -40 -175t-141 -85l-16 61q66 23 91 60.5t24 114.5h-86v163z" />
    <glyph glyph-name="dagger" unicode="&#x2020;" horiz-adv-x="863" 
d="M413 -350q-27 551 -30 1299l-285 -16v123l285 -17l-13 361h123l-13 -361l286 17v-123l-286 16q-3 -742 -29 -1299h-38z" />
    <glyph glyph-name="daggerdbl" unicode="&#x2021;" horiz-adv-x="863" 
d="M370 -350l13 361l-285 -17v123l289 -16l11 424l-11 424l-289 -16v123l285 -17l-13 361h123l-13 -361l286 17v-123l-290 16l-11 -424l11 -424l290 16v-123l-286 17l13 -361h-123z" />
    <glyph glyph-name="bullet" unicode="&#x2022;" horiz-adv-x="560" 
d="M185 438v192h191v-192h-191z" />
    <glyph glyph-name="ellipsis" unicode="&#x2026;" horiz-adv-x="819" 
d="M62 163h162v-163h-162v163zM328 163h163v-163h-163v163zM595 163h163v-163h-163v163z" />
    <glyph glyph-name="perthousand" unicode="&#x2030;" horiz-adv-x="1682" 
d="M292 707q-106 0 -165.5 64t-59.5 188v205q0 124 59.5 188t165.5 64t165 -64t59 -188v-205q0 -124 -59 -188t-165 -64zM257 0l532 1400h118l-531 -1400h-119zM292 792q49 0 81.5 43t32.5 124v205q0 82 -32.5 125.5t-81.5 43.5q-50 0 -82 -43.5t-32 -125.5v-205
q0 -81 32 -124t82 -43zM873 -15q-106 0 -165 64t-59 188v205q0 124 59 188t165 64t165 -64t59 -188v-205q0 -124 -59 -188t-165 -64zM1390 -15q-106 0 -165 64t-59 188v205q0 124 59 188t165 64t165 -64t59 -188v-205q0 -124 -59 -188t-165 -64zM873 69q50 0 82 43.5
t32 124.5v205q0 82 -32 125.5t-82 43.5t-82 -43.5t-32 -125.5v-205q0 -81 32 -124.5t82 -43.5zM1390 69q50 0 82 43.5t32 124.5v205q0 82 -32 125.5t-82 43.5t-82 -43.5t-32 -125.5v-205q0 -81 32 -124.5t82 -43.5z" />
    <glyph glyph-name="guilsinglleft" unicode="&#x2039;" horiz-adv-x="447" 
d="M270 100l-203 425l204 425h109l-195 -425l195 -425h-110z" />
    <glyph glyph-name="guilsinglright" unicode="&#x203a;" horiz-adv-x="448" 
d="M177 100h-110l196 425l-196 425h110l203 -425z" />
    <glyph glyph-name="fraction" unicode="&#x2044;" horiz-adv-x="269" 
d="M-210 0l578 1400h111l-579 -1400h-110z" />
    <glyph glyph-name="Euro" unicode="&#x20ac;" horiz-adv-x="828" 
d="M637 515l122 -32v-74q0 -216 -86 -320.5t-237 -104.5q-335 0 -335 464v135h-85v88h85v77h-85v89h85v115q0 230 84 347t249 117q150 0 232 -103.5t82 -316.5v-65l-119 -33v71q0 189 -48.5 272.5t-145.5 83.5q-107 0 -159 -90t-52 -279v-119h302l-21 -89h-281v-77h264
l-21 -88h-243v-139q0 -188 52.5 -277.5t160.5 -89.5q99 0 149.5 84t50.5 275v79z" />
    <glyph glyph-name="trademark" unicode="&#x2122;" horiz-adv-x="1123" 
d="M160 560v753h-142v87h387v-87h-142v-753h-103zM459 560v840h156l99 -527q15 -89 22 -181h12q8 90 22 179l100 529h156v-840h-102l4 486q2 113 7 200l-17 2l-121 -688h-111l-122 689l-16 -2q5 -88 7 -201l4 -486h-100z" />
    <glyph glyph-name="uni2153" unicode="&#x2153;" horiz-adv-x="1376" 
d="M39 557v89h196v527h-184v76q53 1 79.5 2.5t54 8t37 14t20 26.5t13.5 40t6 60h83v-754h157v-89h-462zM355 0l578 1400h111l-579 -1400h-110zM1110 -12q-223 0 -223 259v38l108 24v-43q0 -107 29.5 -151.5t86.5 -44.5q52 0 76.5 31.5t24.5 103.5v70q0 64 -25.5 92.5
t-77.5 30.5l-66 3v78l64 2q48 2 71.5 28t23.5 83v59q0 63 -24 91.5t-74 28.5q-54 0 -80 -43.5t-26 -137.5v-34l-106 23v29q0 123 54.5 184.5t158.5 61.5q204 0 204 -198v-54q0 -68 -27 -104t-83 -49v-15q63 -11 93.5 -51t30.5 -114v-69q0 -212 -213 -212z" />
    <glyph glyph-name="uni2154" unicode="&#x2154;" horiz-adv-x="1364" 
d="M56 557v63q161 186 234.5 328.5t72.5 264.5q0 60 -21.5 87t-67.5 27q-54 0 -76.5 -46t-22.5 -157v-36l-108 23v32q0 140 50.5 204t158.5 64q197 0 197 -194q1 -129 -63 -257t-211 -309l3 -7q28 2 80 2h204v-89h-430zM343 0l578 1400h111l-579 -1400h-110zM1098 -12
q-223 0 -223 259v38l108 24v-43q0 -107 29.5 -151.5t86.5 -44.5q52 0 76.5 31.5t24.5 103.5v70q0 64 -25.5 92.5t-77.5 30.5l-66 3v78l64 2q48 2 71.5 28t23.5 83v59q0 63 -24 91.5t-74 28.5q-54 0 -80 -43.5t-26 -137.5v-34l-106 23v29q0 123 54.5 184.5t158.5 61.5
q204 0 204 -198v-54q0 -68 -27 -104t-83 -49v-15q63 -11 93.5 -51t30.5 -114v-69q0 -212 -213 -212z" />
    <glyph glyph-name="oneeighth" unicode="&#x215b;" horiz-adv-x="1376" 
d="M39 557v89h196v527h-184v76q53 1 79.5 2.5t54 8t37 14t20 26.5t13.5 40t6 60h83v-754h157v-89h-462zM355 0l578 1400h111l-579 -1400h-110zM1105 -10q-112 0 -169 48.5t-57 141.5v97q0 133 120 157v14q-107 23 -107 145v78q0 89 54 135.5t159 46.5t159 -47t54 -135v-78
q0 -121 -107 -145v-14q120 -24 120 -157v-97q0 -93 -57 -141.5t-169 -48.5zM1105 478q105 0 105 105v85q0 103 -105 103t-105 -103v-85q0 -105 105 -105zM1105 72q115 0 115 110v105q0 111 -115 111t-115 -111v-105q0 -110 115 -110z" />
    <glyph glyph-name="threeeighths" unicode="&#x215c;" horiz-adv-x="1354" 
d="M276 545q-223 0 -223 259v38l108 24v-43q0 -107 29.5 -151.5t86.5 -44.5q52 0 76.5 31.5t24.5 103.5v70q0 64 -25.5 92.5t-77.5 30.5l-66 3v78l64 2q48 2 71.5 28t23.5 83v59q0 63 -24 91.5t-74 28.5q-54 0 -80 -43.5t-26 -137.5v-34l-106 23v29q0 123 54.5 184.5
t158.5 61.5q204 0 204 -198v-54q0 -68 -27 -104t-83 -49v-15q63 -11 93.5 -51t30.5 -114v-69q0 -212 -213 -212zM333 0l578 1400h111l-579 -1400h-110zM1083 -10q-112 0 -169 48.5t-57 141.5v97q0 133 120 157v14q-107 23 -107 145v78q0 89 54 135.5t159 46.5t159 -47
t54 -135v-78q0 -121 -107 -145v-14q120 -24 120 -157v-97q0 -93 -57 -141.5t-169 -48.5zM1083 478q105 0 105 105v85q0 103 -105 103t-105 -103v-85q0 -105 105 -105zM1083 72q115 0 115 110v105q0 111 -115 111t-115 -111v-105q0 -110 115 -110z" />
    <glyph glyph-name="fiveeighths" unicode="&#x215d;" horiz-adv-x="1354" 
d="M273 545q-111 0 -167 50.5t-56 165.5v28l108 24v-33q0 -84 28 -118.5t85 -34.5q55 0 80 34.5t25 112.5v118q0 72 -24.5 104.5t-76.5 32.5q-46 0 -73.5 -24t-42.5 -81l-98 6l26 470h386v-89h-285l-15 -241q53 42 126 42q189 0 189 -216v-119q0 -118 -53.5 -175t-161.5 -57
zM333 0l578 1400h111l-579 -1400h-110zM1083 -10q-112 0 -169 48.5t-57 141.5v97q0 133 120 157v14q-107 23 -107 145v78q0 89 54 135.5t159 46.5t159 -47t54 -135v-78q0 -121 -107 -145v-14q120 -24 120 -157v-97q0 -93 -57 -141.5t-169 -48.5zM1083 478q105 0 105 105v85
q0 103 -105 103t-105 -103v-85q0 -105 105 -105zM1083 72q115 0 115 110v105q0 111 -115 111t-115 -111v-105q0 -110 115 -110z" />
    <glyph glyph-name="seveneighths" unicode="&#x215e;" horiz-adv-x="1312" 
d="M203 557q4 266 45 438.5t125 314.5h-324v90h438v-73q-91 -147 -132 -320.5t-42 -449.5h-110zM291 0l578 1400h111l-579 -1400h-110zM1041 -10q-112 0 -169 48.5t-57 141.5v97q0 133 120 157v14q-107 23 -107 145v78q0 89 54 135.5t159 46.5t159 -47t54 -135v-78
q0 -121 -107 -145v-14q120 -24 120 -157v-97q0 -93 -57 -141.5t-169 -48.5zM1041 478q105 0 105 105v85q0 103 -105 103t-105 -103v-85q0 -105 105 -105zM1041 72q115 0 115 110v105q0 111 -115 111t-115 -111v-105q0 -110 115 -110z" />
    <glyph glyph-name="arrowleft" unicode="&#x2190;" horiz-adv-x="888" 
d="M829 478h-432q-89 0 -160 9l-3 -14q83 -33 148 -74l171 -107v-120l-488 333v47l488 332v-120l-171 -106q-66 -40 -148 -74l3 -14q71 9 160 9h432v-101z" />
    <glyph glyph-name="arrowup" unicode="&#x2191;" horiz-adv-x="834" 
d="M366 148v433q0 80 10 159l-14 4q-30 -76 -74 -148l-108 -171h-119l332 488h47l333 -488h-120l-107 171q-35 57 -74 148l-13 -4q9 -82 9 -159v-433h-102z" />
    <glyph glyph-name="arrowright" unicode="&#x2192;" horiz-adv-x="888" 
d="M59 478v101h432q89 0 160 -9l3 14q-82 34 -148 74l-170 106v120l487 -332v-47l-487 -333v120l170 107q65 41 148 74l-3 14q-71 -9 -160 -9h-432z" />
    <glyph glyph-name="arrowdown" unicode="&#x2193;" horiz-adv-x="834" 
d="M366 913h102v-433q0 -76 -9 -159l13 -3q39 91 74 148l107 170h120l-333 -488h-47l-332 488h119l108 -170q44 -72 74 -148l14 3q-10 79 -10 159v433z" />
    <glyph glyph-name="arrowboth" unicode="&#x2194;" horiz-adv-x="1350" 
d="M65 552l488 332v-119l-171 -108q-65 -39 -148 -74l3 -13q83 9 160 9h556q89 0 160 -9l3 13q-85 36 -148 75l-171 107v119l488 -332v-47l-488 -333v121l171 106q69 42 148 74l-3 14q-79 -10 -160 -10h-556q-81 0 -160 10l-3 -14q82 -34 148 -74l171 -106v-121l-488 333v47
z" />
    <glyph glyph-name="arrowupdn" unicode="&#x2195;" horiz-adv-x="834" 
d="M393 -85l-332 488h119l108 -171q44 -72 74 -148l14 3q-10 79 -10 160v556q0 81 10 160l-14 3q-30 -76 -74 -148l-108 -171h-119l332 488h47l333 -488h-120l-107 171q-35 57 -74 148l-13 -3q9 -83 9 -160v-556q0 -89 -9 -160l13 -3q37 85 75 148l106 171h120l-333 -488
h-47z" />
    <glyph glyph-name="uni2196" unicode="&#x2196;" horiz-adv-x="757" 
d="M604 256l-306 306q-62 62 -106 119l-12 -7q36 -87 52 -157l45 -197l-84 -85l-110 581l33 33l580 -110l-85 -85l-196 46q-67 15 -157 52l-7 -12q57 -44 119 -106l306 -306z" />
    <glyph glyph-name="uni2197" unicode="&#x2197;" horiz-adv-x="757" 
d="M153 256l-72 72l306 306q62 62 119 106l-7 12q-90 -37 -157 -52l-196 -46l-85 85l580 110l33 -33l-110 -581l-84 85l45 197q16 70 52 157l-12 7q-44 -57 -106 -119z" />
    <glyph glyph-name="uni2198" unicode="&#x2198;" horiz-adv-x="757" 
d="M153 830l306 -306q58 -58 106 -120l12 8q-35 83 -52 157l-45 197l84 84l110 -580l-33 -33l-580 110l85 85l196 -46q76 -19 157 -52l7 12q-57 44 -119 106l-306 306z" />
    <glyph glyph-name="uni2199" unicode="&#x2199;" horiz-adv-x="757" 
d="M604 830l72 -72l-306 -306q-62 -62 -119 -106l7 -12q81 33 157 52l196 46l85 -85l-580 -110l-33 33l110 580l84 -84l-45 -197q-17 -74 -52 -157l12 -8q48 62 106 120z" />
    <glyph glyph-name="minus" unicode="&#x2212;" horiz-adv-x="611" 
d="M53 663v99h506v-99h-506z" />
    <glyph glyph-name="infinity" unicode="&#x221e;" horiz-adv-x="1156" 
d="M844 1049q119 0 182 -74t63 -215v-120q0 -140 -62.5 -214.5t-178.5 -74.5q-54 0 -97.5 16.5t-75 48.5t-53 67.5t-41.5 84.5q-42 -102 -104 -159.5t-165 -57.5q-119 0 -182 74t-63 215v120q0 140 62.5 214.5t179.5 74.5q103 0 163.5 -57t102.5 -160q42 102 104 159.5
t165 57.5zM980 645v110q0 92 -37 141t-107 49q-30 0 -54.5 -8.5t-44.5 -28.5t-34.5 -39t-29.5 -53t-24 -58t-23 -66q19 -55 35 -90t40.5 -71t58 -53.5t76.5 -17.5q70 0 107 47.5t37 137.5zM320 455q35 0 64.5 14.5t49 35t39 58t30.5 66.5t27 78q-19 55 -35 90t-40.5 71.5
t-58 54t-76.5 17.5q-70 0 -106.5 -47.5t-36.5 -137.5v-110q0 -92 36.5 -141t106.5 -49z" />
    <glyph glyph-name="approxequal" unicode="&#x2248;" horiz-adv-x="632" 
d="M447 726q-43 0 -93 29t-93.5 57.5t-69.5 28.5q-58 0 -63 -119h-75q5 212 135 212q41 0 91 -29t93.5 -57.5t69.5 -28.5q59 0 62 110h75q-5 -203 -132 -203zM447 472q-43 0 -93 29t-93.5 57.5t-69.5 28.5q-58 0 -63 -118h-75q5 211 135 211q41 0 91 -29t93.5 -57.5
t69.5 -28.5q59 0 62 110h75q-5 -203 -132 -203z" />
    <glyph glyph-name="notequal" unicode="&#x2260;" horiz-adv-x="631" 
d="M579 785h-182l-61 -168h243v-99h-280l-75 -207h-100l75 207h-146v99h183l61 168h-244v99h280l75 206h100l-75 -206h146v-99z" />
    <glyph glyph-name="lessequal" unicode="&#x2264;" horiz-adv-x="632" 
d="M580 550l-527 147v132l527 147v-103l-251 -64q-69 -17 -179 -35v-20q101 -18 179 -36l251 -65v-103zM53 422v95h527v-95h-527z" />
    <glyph glyph-name="greaterequal" unicode="&#x2265;" horiz-adv-x="633" 
d="M53 550v103l250 65q85 20 180 36v20q-106 17 -180 35l-250 64v103l527 -147v-132zM580 422h-527v95h527v-95z" />
    <glyph glyph-name="uni2460" unicode="&#x2460;" horiz-adv-x="1600" 
d="M800 -20q-195 0 -361 96t-262.5 261.5t-96.5 362.5q0 147 57 280.5t153.5 229.5t230 153t279.5 57q196 0 361.5 -96t262 -262t96.5 -362q0 -197 -96.5 -362.5t-262 -261.5t-361.5 -96zM800 60q131 0 249 50.5t204 136t136.5 204t50.5 249.5q0 175 -85.5 322t-233 232.5
t-321.5 85.5t-321 -85.5t-233 -232.5t-86 -322t86 -322.5t233 -232.5t321 -85zM569 284v89h196v527h-184v76q53 1 79.5 2.5t54 8t37 14t20 26.5t13.5 40t6 60h83v-754h157v-89h-462z" />
    <glyph glyph-name="uni2461" unicode="&#x2461;" horiz-adv-x="1600" 
d="M800 -20q-195 0 -361 96t-262.5 261.5t-96.5 362.5q0 147 57 280.5t153.5 229.5t230 153t279.5 57q196 0 361.5 -96t262 -262t96.5 -362q0 -197 -96.5 -362.5t-262 -261.5t-361.5 -96zM800 60q131 0 249 50.5t204 136t136.5 204t50.5 249.5q0 175 -85.5 322t-233 232.5
t-321.5 85.5t-321 -85.5t-233 -232.5t-86 -322t86 -322.5t233 -232.5t321 -85zM585 275v63q161 186 234.5 328.5t72.5 264.5q0 60 -21.5 87t-67.5 27q-54 0 -76.5 -46t-22.5 -157v-36l-108 23v32q0 140 50.5 204t158.5 64q197 0 197 -194q1 -129 -63 -257t-211 -309l3 -7
q28 2 80 2h204v-89h-430z" />
    <glyph glyph-name="uni2462" unicode="&#x2462;" horiz-adv-x="1600" 
d="M800 -20q-195 0 -361 96t-262.5 261.5t-96.5 362.5q0 147 57 280.5t153.5 229.5t230 153t279.5 57q196 0 361.5 -96t262 -262t96.5 -362q0 -197 -96.5 -362.5t-262 -261.5t-361.5 -96zM800 60q131 0 249 50.5t204 136t136.5 204t50.5 249.5q0 175 -85.5 322t-233 232.5
t-321.5 85.5t-321 -85.5t-233 -232.5t-86 -322t86 -322.5t233 -232.5t321 -85zM805 267q-223 0 -223 259v38l108 24v-43q0 -107 29.5 -151.5t86.5 -44.5q52 0 76.5 31.5t24.5 103.5v70q0 64 -25.5 92.5t-77.5 30.5l-66 3v78l64 2q48 2 71.5 28t23.5 83v59q0 63 -24 91.5
t-74 28.5q-54 0 -80 -43.5t-26 -137.5v-34l-106 23v29q0 123 54.5 184.5t158.5 61.5q204 0 204 -198v-54q0 -68 -27 -104t-83 -49v-15q63 -11 93.5 -51t30.5 -114v-69q0 -212 -213 -212z" />
    <glyph glyph-name="uni2463" unicode="&#x2463;" horiz-adv-x="1600" 
d="M800 -20q-195 0 -361 96t-262.5 261.5t-96.5 362.5q0 147 57 280.5t153.5 229.5t230 153t279.5 57q196 0 361.5 -96t262 -262t96.5 -362q0 -197 -96.5 -362.5t-262 -261.5t-361.5 -96zM800 60q131 0 249 50.5t204 136t136.5 204t50.5 249.5q0 175 -85.5 322t-233 232.5
t-321.5 85.5t-321 -85.5t-233 -232.5t-86 -322t86 -322.5t233 -232.5t321 -85zM814 278v157h-282v74l230 612h162v-599h79v-87h-79v-157h-110zM635 522h179l3 296q0 87 5 192l-13 1q-32 -124 -50 -179z" />
    <glyph glyph-name="uni2464" unicode="&#x2464;" horiz-adv-x="1600" 
d="M800 -20q-195 0 -361 96t-262.5 261.5t-96.5 362.5q0 147 57 280.5t153.5 229.5t230 153t279.5 57q196 0 361.5 -96t262 -262t96.5 -362q0 -197 -96.5 -362.5t-262 -261.5t-361.5 -96zM800 60q131 0 249 50.5t204 136t136.5 204t50.5 249.5q0 175 -85.5 322t-233 232.5
t-321.5 85.5t-321 -85.5t-233 -232.5t-86 -322t86 -322.5t233 -232.5t321 -85zM803 267q-111 0 -167 50.5t-56 165.5v28l108 24v-33q0 -84 28 -118.5t85 -34.5q55 0 80 34.5t25 112.5v118q0 72 -24.5 104.5t-76.5 32.5q-46 0 -73.5 -24t-42.5 -81l-98 6l26 470h386v-89h-285
l-15 -241q53 42 126 42q189 0 189 -216v-119q0 -118 -53.5 -175t-161.5 -57z" />
    <glyph glyph-name="uni2465" unicode="&#x2465;" horiz-adv-x="1600" 
d="M800 -20q-195 0 -361 96t-262.5 261.5t-96.5 362.5q0 147 57 280.5t153.5 229.5t230 153t279.5 57q196 0 361.5 -96t262 -262t96.5 -362q0 -197 -96.5 -362.5t-262 -261.5t-361.5 -96zM800 60q131 0 249 50.5t204 136t136.5 204t50.5 249.5q0 175 -85.5 322t-233 232.5
t-321.5 85.5t-321 -85.5t-233 -232.5t-86 -322t86 -322.5t233 -232.5t321 -85zM799 1132q105 0 161.5 -55.5t56.5 -169.5v-27l-109 -24v32q0 86 -28 124.5t-83 38.5q-108 0 -108 -184v-125q53 55 143 55q87 0 134.5 -52t47.5 -147v-122q0 -98 -56 -153t-158 -55
q-107 0 -162 63.5t-56 184.5v331q0 285 217 285zM798 716q-106 0 -106 -115v-124q0 -60 28.5 -93t80.5 -33t79.5 31t27.5 89v124q0 121 -110 121z" />
    <glyph glyph-name="uni2466" unicode="&#x2466;" horiz-adv-x="1600" 
d="M800 -20q-195 0 -361 96t-262.5 261.5t-96.5 362.5q0 147 57 280.5t153.5 229.5t230 153t279.5 57q196 0 361.5 -96t262 -262t96.5 -362q0 -197 -96.5 -362.5t-262 -261.5t-361.5 -96zM800 60q131 0 249 50.5t204 136t136.5 204t50.5 249.5q0 175 -85.5 322t-233 232.5
t-321.5 85.5t-321 -85.5t-233 -232.5t-86 -322t86 -322.5t233 -232.5t321 -85zM733 278q4 266 45 438.5t125 314.5h-324v90h438v-73q-91 -147 -132 -320.5t-42 -449.5h-110z" />
    <glyph glyph-name="uni2467" unicode="&#x2467;" horiz-adv-x="1600" 
d="M800 -20q-195 0 -361 96t-262.5 261.5t-96.5 362.5q0 147 57 280.5t153.5 229.5t230 153t279.5 57q196 0 361.5 -96t262 -262t96.5 -362q0 -197 -96.5 -362.5t-262 -261.5t-361.5 -96zM800 60q131 0 249 50.5t204 136t136.5 204t50.5 249.5q0 175 -85.5 322t-233 232.5
t-321.5 85.5t-321 -85.5t-233 -232.5t-86 -322t86 -322.5t233 -232.5t321 -85zM800 269q-112 0 -169 48.5t-57 141.5v97q0 133 120 157v14q-107 23 -107 145v78q0 89 54 135.5t159 46.5t159 -47t54 -135v-78q0 -121 -107 -145v-14q120 -24 120 -157v-97q0 -93 -57 -141.5
t-169 -48.5zM800 757q105 0 105 105v85q0 103 -105 103t-105 -103v-85q0 -105 105 -105zM800 351q115 0 115 110v105q0 111 -115 111t-115 -111v-105q0 -110 115 -110z" />
    <glyph glyph-name="uni2468" unicode="&#x2468;" horiz-adv-x="1600" 
d="M800 -20q-195 0 -361 96t-262.5 261.5t-96.5 362.5q0 147 57 280.5t153.5 229.5t230 153t279.5 57q196 0 361.5 -96t262 -262t96.5 -362q0 -197 -96.5 -362.5t-262 -261.5t-361.5 -96zM800 60q131 0 249 50.5t204 136t136.5 204t50.5 249.5q0 175 -85.5 322t-233 232.5
t-321.5 85.5t-321 -85.5t-233 -232.5t-86 -322t86 -322.5t233 -232.5t321 -85zM801 268q-218 0 -218 226v27l109 23v-32q0 -162 111 -162q109 0 109 184v124q-53 -55 -144 -55q-87 0 -134.5 52.5t-47.5 147.5v121q0 99 56 154t158 55q108 0 163 -63.5t56 -185.5v-330
q0 -286 -218 -286zM802 685q106 0 106 114v125q0 59 -28 92t-80 33t-79.5 -31t-27.5 -89v-124q0 -120 109 -120z" />
    <glyph glyph-name="uni24EA" unicode="&#x24ea;" horiz-adv-x="1600" 
d="M800 -20q-195 0 -361 96t-262.5 261.5t-96.5 362.5q0 147 57 280.5t153.5 229.5t230 153t279.5 57q196 0 361.5 -96t262 -262t96.5 -362q0 -197 -96.5 -362.5t-262 -261.5t-361.5 -96zM800 60q131 0 249 50.5t204 136t136.5 204t50.5 249.5q0 175 -85.5 322t-233 232.5
t-321.5 85.5t-321 -85.5t-233 -232.5t-86 -322t86 -322.5t233 -232.5t321 -85zM800 269q-111 0 -165.5 68t-54.5 209v308q0 278 220 278t220 -278v-308q0 -141 -54.5 -209t-165.5 -68zM801 353q59 0 83.5 45.5t24.5 139.5v324q0 94 -24.5 140.5t-83.5 46.5q-60 0 -85 -46
t-25 -141v-324q0 -94 25 -139.5t85 -45.5z" />
    <glyph glyph-name="uni24FF" unicode="&#x24ff;" horiz-adv-x="1600" 
d="M800 -20q196 0 361.5 96t262 261.5t96.5 362.5q0 196 -96.5 362t-262 262t-361.5 96q-146 0 -279.5 -57t-230 -153t-153.5 -229.5t-57 -280.5q0 -197 96.5 -362.5t262.5 -261.5t361 -96zM800 269q-111 0 -165.5 68t-54.5 209v308q0 278 220 278t220 -278v-308
q0 -141 -54.5 -209t-165.5 -68zM801 353q59 0 83.5 45.5t24.5 139.5v324q0 94 -24.5 140.5t-83.5 46.5q-60 0 -85 -46t-25 -141v-324q0 -94 25 -139.5t85 -45.5z" />
    <glyph glyph-name="filledbox" unicode="&#x25a0;" horiz-adv-x="1231" 
d="M90 0v1050h1050v-1050h-1050z" />
    <glyph glyph-name="uni25A1" unicode="&#x25a1;" horiz-adv-x="1231" 
d="M90 0v1050h1050v-1050h-1050zM170 80h890v890h-890v-890z" />
    <glyph glyph-name="lozenge" unicode="&#x25ca;" horiz-adv-x="831" 
d="M365 0l-267 700l263 700h109l263 -700l-268 -700h-100zM407 148h17q32 140 72 269l116 283l-116 283q-40 129 -72 269h-17q-40 -166 -73 -269l-116 -283l116 -283q33 -103 73 -269z" />
    <glyph glyph-name="circle" unicode="&#x25cb;" horiz-adv-x="1248" 
d="M624 -20q-111 0 -211.5 43t-173.5 116t-116 174t-43 212t43 212t116 174t173.5 116t211.5 43t211.5 -43t173.5 -116t116 -174t43 -212t-43 -212t-116 -174t-173.5 -116t-211.5 -43zM624 60q193 0 328.5 136t135.5 329t-135.5 329t-328.5 136t-328.5 -136t-135.5 -329
t135.5 -329t328.5 -136z" />
    <glyph glyph-name="uni25CF" unicode="&#x25cf;" horiz-adv-x="1248" 
d="M624 -20q-111 0 -211.5 43t-173.5 116t-116 174t-43 212t43 212t116 174t173.5 116t211.5 43t211.5 -43t173.5 -116t116 -174t43 -212t-43 -212t-116 -174t-173.5 -116t-211.5 -43z" />
    <glyph glyph-name="uni2776" unicode="&#x2776;" horiz-adv-x="1600" 
d="M800 -20q196 0 361.5 96t262 261.5t96.5 362.5q0 196 -96.5 362t-262 262t-361.5 96q-146 0 -279.5 -57t-230 -153t-153.5 -229.5t-57 -280.5q0 -197 96.5 -362.5t262.5 -261.5t361 -96zM569 284v89h196v527h-184v76q53 1 79.5 2.5t54 8t37 14t20 26.5t13.5 40t6 60h83
v-754h157v-89h-462z" />
    <glyph glyph-name="uni2777" unicode="&#x2777;" horiz-adv-x="1600" 
d="M800 -20q196 0 361.5 96t262 261.5t96.5 362.5q0 196 -96.5 362t-262 262t-361.5 96q-146 0 -279.5 -57t-230 -153t-153.5 -229.5t-57 -280.5q0 -197 96.5 -362.5t262.5 -261.5t361 -96zM584 279v64q161 186 235 328t73 265q-1 60 -22 87t-67 27q-54 0 -76.5 -46.5
t-22.5 -156.5v-37l-108 24v31q0 140 50.5 204t158.5 64q196 0 197 -193q1 -129 -63 -258t-212 -308l4 -7q28 2 80 2h203v-90h-430z" />
    <glyph glyph-name="uni2778" unicode="&#x2778;" horiz-adv-x="1600" 
d="M800 -20q196 0 361.5 96t262 261.5t96.5 362.5q0 196 -96.5 362t-262 262t-361.5 96q-146 0 -279.5 -57t-230 -153t-153.5 -229.5t-57 -280.5q0 -197 96.5 -362.5t262.5 -261.5t361 -96zM805 267q-222 0 -222 260v38l107 24v-43q0 -107 29.5 -151.5t86.5 -44.5
q53 0 77.5 31t24.5 103v70q0 64 -26 93t-78 31l-65 2v78l63 2q49 2 72.5 28t23.5 84v58q0 121 -99 121q-54 0 -79.5 -43.5t-25.5 -138.5v-34l-107 23v29q0 123 54.5 184.5t158.5 61.5q205 0 205 -198v-54q0 -67 -27.5 -103.5t-83.5 -49.5v-14q125 -24 125 -165v-70
q0 -212 -214 -212z" />
    <glyph glyph-name="uni2779" unicode="&#x2779;" horiz-adv-x="1600" 
d="M800 -20q196 0 361.5 96t262 261.5t96.5 362.5q0 196 -96.5 362t-262 262t-361.5 96q-146 0 -279.5 -57t-230 -153t-153.5 -229.5t-57 -280.5q0 -197 96.5 -362.5t262.5 -261.5t361 -96zM815 278v158h-283v73l230 613h162v-599h79v-87h-79v-158h-109zM636 523h179l2 296
q0 64 6 192h-14q-26 -107 -50 -178z" />
    <glyph glyph-name="uni277A" unicode="&#x277a;" horiz-adv-x="1600" 
d="M800 -20q196 0 361.5 96t262 261.5t96.5 362.5q0 196 -96.5 362t-262 262t-361.5 96q-146 0 -279.5 -57t-230 -153t-153.5 -229.5t-57 -280.5q0 -197 96.5 -362.5t262.5 -261.5t361 -96zM803 266q-111 0 -167 51t-56 166v27l108 24v-33q0 -84 28 -118t85 -34q55 0 80 34
t25 112v118q0 73 -24.5 105t-76.5 32q-46 0 -73.5 -24t-42.5 -81l-98 7l26 469h385v-89h-284l-15 -240q52 41 126 41q189 0 189 -215v-119q0 -233 -215 -233z" />
    <glyph glyph-name="uni277B" unicode="&#x277b;" horiz-adv-x="1600" 
d="M800 -20q196 0 361.5 96t262 261.5t96.5 362.5q0 196 -96.5 362t-262 262t-361.5 96q-146 0 -279.5 -57t-230 -153t-153.5 -229.5t-57 -280.5q0 -197 96.5 -362.5t262.5 -261.5t361 -96zM799 1132q105 0 161.5 -55.5t56.5 -169.5v-27l-109 -24v32q0 163 -111 163
q-108 0 -108 -184v-125q52 55 143 55q87 0 134.5 -52.5t47.5 -147.5v-121q0 -98 -56 -153t-158 -55q-216 0 -218 248v331q0 285 217 285zM798 715q-106 0 -106 -114v-124q0 -60 28.5 -93t80.5 -33q51 0 78.5 31t27.5 89v124q0 120 -109 120z" />
    <glyph glyph-name="uni277C" unicode="&#x277c;" horiz-adv-x="1600" 
d="M800 -20q196 0 361.5 96t262 261.5t96.5 362.5q0 196 -96.5 362t-262 262t-361.5 96q-146 0 -279.5 -57t-230 -153t-153.5 -229.5t-57 -280.5q0 -197 96.5 -362.5t262.5 -261.5t361 -96zM732 278q4 267 45 439t125 315h-323v90h437v-74q-91 -148 -131.5 -321t-41.5 -449
h-111z" />
    <glyph glyph-name="uni277D" unicode="&#x277d;" horiz-adv-x="1600" 
d="M800 -20q196 0 361.5 96t262 261.5t96.5 362.5q0 196 -96.5 362t-262 262t-361.5 96q-146 0 -279.5 -57t-230 -153t-153.5 -229.5t-57 -280.5q0 -197 96.5 -362.5t262.5 -261.5t361 -96zM800 268q-112 0 -169 48.5t-57 142.5v97q0 134 120 156v14q-107 25 -107 145v78
q0 89 54 136t159 47t158.5 -47t53.5 -136v-78q0 -121 -106 -145v-14q120 -22 120 -156v-97q0 -191 -226 -191zM800 757q105 0 105 104v85q0 104 -105 104t-105 -104v-85q0 -104 105 -104zM800 351q115 0 115 110v105q0 110 -115 110t-115 -110v-105q0 -110 115 -110z" />
    <glyph glyph-name="uni277E" unicode="&#x277e;" horiz-adv-x="1600" 
d="M800 -20q196 0 361.5 96t262 261.5t96.5 362.5q0 196 -96.5 362t-262 262t-361.5 96q-146 0 -279.5 -57t-230 -153t-153.5 -229.5t-57 -280.5q0 -197 96.5 -362.5t262.5 -261.5t361 -96zM801 268q-105 0 -161.5 55.5t-56.5 169.5v27l109 24v-32q0 -86 28 -124.5t83 -38.5
q108 0 108 184v125q-52 -55 -143 -55q-87 0 -134.5 52t-47.5 147v122q0 98 56 153t158 55q216 0 218 -248v-331q0 -285 -217 -285zM802 684q106 0 106 115v124q0 60 -28.5 93t-80.5 33q-51 0 -78.5 -31t-27.5 -89v-124q0 -121 109 -121z" />
    <glyph glyph-name="uni2B1B" unicode="&#x2b1b;" horiz-adv-x="1581" 
d="M90 0v1400h1400v-1400h-1400z" />
    <glyph glyph-name="uni2B1C" unicode="&#x2b1c;" horiz-adv-x="1581" 
d="M90 0v1400h1400v-1400h-1400zM170 80h1240v1240h-1240v-1240z" />
    <glyph glyph-name="uni2B24" unicode="&#x2b24;" horiz-adv-x="1600" 
d="M800 -20q196 0 361.5 96t262 261.5t96.5 362.5q0 196 -96.5 362t-262 262t-361.5 96q-146 0 -279.5 -57t-230 -153t-153.5 -229.5t-57 -280.5q0 -197 96.5 -362.5t262.5 -261.5t361 -96z" />
    <glyph glyph-name="uni2BA0" unicode="&#x2ba0;" horiz-adv-x="891" 
d="M553 172l-488 333v47l488 332v-120l-171 -106q-66 -40 -148 -74l3 -14q71 9 160 9h333v299h102v-400h-435q-89 0 -160 9l-3 -14q83 -33 148 -74l171 -107v-120z" />
    <glyph glyph-name="uni2BA1" unicode="&#x2ba1;" horiz-adv-x="891" 
d="M339 172v120l171 107q63 40 147 74l-3 14q-71 -9 -159 -9h-436v400h102v-299h334q88 0 159 -9l3 14q-83 35 -147 74l-171 106v120l488 -332v-47z" />
    <glyph glyph-name="uni2BA2" unicode="&#x2ba2;" horiz-adv-x="897" 
d="M553 889v-120l-171 -107q-65 -41 -148 -74l3 -14q71 9 160 9h435v-399h-102v298h-333q-89 0 -160 9l-3 -14q82 -34 148 -74l171 -106v-120l-488 332v47z" />
    <glyph glyph-name="uni2BA3" unicode="&#x2ba3;" horiz-adv-x="897" 
d="M344 889l488 -333v-47l-488 -332v120l171 106q66 40 148 74l-3 14q-71 -9 -160 -9h-333v-298h-102v399h435q89 0 160 -9l3 14q-83 33 -148 74l-171 107v120z" />
    <glyph glyph-name="uni2BA4" unicode="&#x2ba4;" horiz-adv-x="834" 
d="M61 418l333 488h46l333 -488h-120l-106 171q-40 67 -75 148l-13 -4q9 -71 9 -159v-334h298v-102h-400v436q0 80 10 159l-14 4q-30 -76 -74 -148l-108 -171h-119z" />
    <glyph glyph-name="uni2BA5" unicode="&#x2ba5;" horiz-adv-x="834" 
d="M773 418h-119l-108 171q-44 72 -74 148l-14 -4q10 -79 10 -159v-436h-400v102h298v334q0 88 9 159l-13 4q-35 -81 -75 -148l-106 -171h-120l333 488h46z" />
    <glyph glyph-name="uni2BA6" unicode="&#x2ba6;" horiz-adv-x="834" 
d="M61 645h119l108 -171q41 -67 74 -147l14 3q-10 79 -10 159v436h400v-102h-298v-334q0 -88 -9 -159l13 -3q38 86 75 147l106 171h120l-333 -488h-46z" />
    <glyph glyph-name="uni2BA7" unicode="&#x2ba7;" horiz-adv-x="834" 
d="M773 645l-333 -488h-46l-333 488h120l106 -171q37 -61 75 -147l13 3q-9 71 -9 159v334h-298v102h400v-436q0 -80 -10 -159l14 -3q33 80 74 147l108 171h119z" />
    <glyph glyph-name="IJacute" horiz-adv-x="978" 
d="M114 1491l98 189h128l-123 -189h-103zM775 1491l98 189h128l-123 -189h-103zM98 1400h122v-1400h-122v1400zM625 -16q-268 0 -268 348v40l124 27v-45q0 -153 34.5 -215.5t110.5 -62.5q135 0 135 181v1143h122v-1153q0 -129 -65.5 -196t-192.5 -67z" />
    <glyph glyph-name="a.ss01" horiz-adv-x="703" 
d="M293 -15q-108 0 -167 87t-59 249v408q0 162 59 249t167 87q86 0 139.5 -51t86.5 -157l19 6q-39 133 -37 187h111v-1050h-111q-2 54 37 187l-19 6q-33 -106 -86.5 -157t-139.5 -51zM329 75q80 0 123 81.5t43 232.5v272q0 151 -43 232.5t-123 81.5q-142 0 -142 -259v-382
q0 -259 142 -259z" />
    <glyph glyph-name="aacute.ss01" horiz-adv-x="703" 
d="M407 1400h121l-142 -259h-96zM293 -15q-108 0 -167 87t-59 249v408q0 162 59 249t167 87q86 0 139.5 -51t86.5 -157l19 6q-39 133 -37 187h111v-1050h-111q-2 54 37 187l-19 6q-33 -106 -86.5 -157t-139.5 -51zM329 75q80 0 123 81.5t43 232.5v272q0 151 -43 232.5
t-123 81.5q-142 0 -142 -259v-382q0 -259 142 -259z" />
    <glyph glyph-name="abreve.ss01" horiz-adv-x="703" 
d="M418 1401h87q-2 -134 -42 -194.5t-128 -60.5t-128.5 60t-42.5 195h87q2 -92 21 -131t63 -39t62.5 39.5t20.5 130.5zM293 -15q-108 0 -167 87t-59 249v408q0 162 59 249t167 87q86 0 139.5 -51t86.5 -157l19 6q-39 133 -37 187h111v-1050h-111q-2 54 37 187l-19 6
q-33 -106 -86.5 -157t-139.5 -51zM329 75q80 0 123 81.5t43 232.5v272q0 151 -43 232.5t-123 81.5q-142 0 -142 -259v-382q0 -259 142 -259z" />
    <glyph glyph-name="acircumflex.ss01" horiz-adv-x="703" 
d="M147 1141l132 259h111l132 -259h-92l-95 161l-95 -161h-93zM293 -15q-108 0 -167 87t-59 249v408q0 162 59 249t167 87q86 0 139.5 -51t86.5 -157l19 6q-39 133 -37 187h111v-1050h-111q-2 54 37 187l-19 6q-33 -106 -86.5 -157t-139.5 -51zM329 75q80 0 123 81.5
t43 232.5v272q0 151 -43 232.5t-123 81.5q-142 0 -142 -259v-382q0 -259 142 -259z" />
    <glyph glyph-name="adieresis.ss01" horiz-adv-x="703" 
d="M153 1198v163h129v-163h-129zM387 1198v163h129v-163h-129zM293 -15q-108 0 -167 87t-59 249v408q0 162 59 249t167 87q86 0 139.5 -51t86.5 -157l19 6q-39 133 -37 187h111v-1050h-111q-2 54 37 187l-19 6q-33 -106 -86.5 -157t-139.5 -51zM329 75q80 0 123 81.5
t43 232.5v272q0 151 -43 232.5t-123 81.5q-142 0 -142 -259v-382q0 -259 142 -259z" />
    <glyph glyph-name="agrave.ss01" horiz-adv-x="703" 
d="M263 1400l117 -259h-96l-142 259h121zM293 -15q-108 0 -167 87t-59 249v408q0 162 59 249t167 87q86 0 139.5 -51t86.5 -157l19 6q-39 133 -37 187h111v-1050h-111q-2 54 37 187l-19 6q-33 -106 -86.5 -157t-139.5 -51zM329 75q80 0 123 81.5t43 232.5v272
q0 151 -43 232.5t-123 81.5q-142 0 -142 -259v-382q0 -259 142 -259z" />
    <glyph glyph-name="amacron.ss01" horiz-adv-x="703" 
d="M139 1184v90h390v-90h-390zM293 -15q-108 0 -167 87t-59 249v408q0 162 59 249t167 87q86 0 139.5 -51t86.5 -157l19 6q-39 133 -37 187h111v-1050h-111q-2 54 37 187l-19 6q-33 -106 -86.5 -157t-139.5 -51zM329 75q80 0 123 81.5t43 232.5v272q0 151 -43 232.5
t-123 81.5q-142 0 -142 -259v-382q0 -259 142 -259z" />
    <glyph glyph-name="aogonek.ss01" horiz-adv-x="703" 
d="M612 0q-107 -51 -107 -120q0 -47 56 -47q20 0 46 7l-18 -85q-30 -10 -60 -10q-56 0 -85.5 26.5t-29.5 77.5q0 92 102 151h-15q-2 54 37 187l-19 6q-33 -106 -86.5 -157t-139.5 -51q-108 0 -167 87t-59 249v408q0 162 59 249t167 87q86 0 139.5 -51t86.5 -157l19 6
q-39 133 -37 187h111v-1050zM495 389v272q0 151 -43 232.5t-123 81.5q-142 0 -142 -259v-382q0 -259 142 -259q80 0 123 81.5t43 232.5z" />
    <glyph glyph-name="aring.ss01" horiz-adv-x="703" 
d="M334 1130q-71 0 -117 45t-46 115t46 114.5t117 44.5q72 0 118 -44.5t46 -114.5t-46 -115t-118 -45zM334 1207q37 0 60 23t23 60q0 36 -23 59t-60 23q-36 0 -59 -23t-23 -59q0 -37 23 -60t59 -23zM293 -15q-108 0 -167 87t-59 249v408q0 162 59 249t167 87q86 0 139.5 -51
t86.5 -157l19 6q-39 133 -37 187h111v-1050h-111q-2 54 37 187l-19 6q-33 -106 -86.5 -157t-139.5 -51zM329 75q80 0 123 81.5t43 232.5v272q0 151 -43 232.5t-123 81.5q-142 0 -142 -259v-382q0 -259 142 -259z" />
    <glyph glyph-name="atilde.ss01" horiz-adv-x="703" 
d="M431 1169q-33 0 -70.5 22.5t-68 44.5t-47.5 22q-22 0 -32 -19t-12 -65h-70q2 87 28.5 128.5t81.5 41.5q32 0 69 -22.5t68 -45t48 -22.5q22 0 31.5 19.5t10.5 65.5h70q-3 -170 -107 -170zM293 -15q-108 0 -167 87t-59 249v408q0 162 59 249t167 87q86 0 139.5 -51
t86.5 -157l19 6q-39 133 -37 187h111v-1050h-111q-2 54 37 187l-19 6q-33 -106 -86.5 -157t-139.5 -51zM329 75q80 0 123 81.5t43 232.5v272q0 151 -43 232.5t-123 81.5q-142 0 -142 -259v-382q0 -259 142 -259z" />
    <glyph glyph-name="i.loclTRK" horiz-adv-x="298" 
d="M73 1198v163h152v-163h-152zM90 0v1050h117v-1050h-117z" />
    <glyph glyph-name="ijacute" horiz-adv-x="595" 
d="M160 1400h119l-82 -259h-95zM458 1400h119l-82 -259h-95zM90 0v1050h117v-1050h-117zM219 -366l-30 128l80 8q67 7 93 32.5t26 91.5v1156h117v-1008q0 -177 -70 -275t-216 -133z" />
    <glyph glyph-name="f_f" horiz-adv-x="842" 
d="M143 0v954h-119v96h119v53q0 116 67 186.5t197 106.5l24 -124l-68 -4q-65 -4 -85 -26t-20 -89v-104h260v63q0 125 69.5 197t211.5 107l24 -124l-84 -4q-66 -4 -85.5 -26t-19.5 -90v-122h184v-96h-183v-954h-117v954h-258v-954h-117z" />
    <glyph glyph-name="f_t" horiz-adv-x="866" 
d="M690 -15q-92 0 -137 48.5t-45 153.5v767h-248v-954h-117v954h-119v96h119v62q0 123 66.5 196t194.5 108l24 -123l-66 -5q-65 -5 -84.5 -27t-19.5 -89v-123h250v179l117 48v-226h211v-96h-211v-756q0 -60 22 -85t70 -25q57 0 118 30l-8 -98q-52 -35 -137 -35z" />
    <glyph glyph-name="t_t" horiz-adv-x="911" 
d="M321 -15q-91 0 -134.5 50t-43.5 152v767h-119v96h119v237l117 47v-284h292v258l117 47v-305h211v-96h-211v-756q0 -60 22.5 -85t70.5 -25q56 0 118 30l-8 -98q-52 -35 -138 -35q-92 0 -137 48.5t-45 153.5v767h-292v-756q0 -110 88 -110q55 0 100 24l-8 -99
q-46 -28 -119 -28z" />
    <glyph glyph-name="f.calt" horiz-adv-x="431" 
d="M143 0v954h-119v96h119v62q0 125 69.5 197t211.5 107l24 -124l-86 -4q-65 -4 -84.5 -26t-19.5 -90v-122h135v-96h-133v-954h-117z" />
    <glyph glyph-name="t.calt" horiz-adv-x="454" 
d="M326 -15q-93 0 -138 48.5t-45 153.5v767h-119v96h119v258l117 47v-305h156v-96h-156v-756q0 -60 22.5 -85t70.5 -25q56 0 119 30l-8 -98q-53 -35 -138 -35z" />
    <glyph glyph-name="tbar.calt" horiz-adv-x="454" 
d="M353 88q56 0 119 30l-8 -98q-53 -35 -138 -35q-93 0 -138 48.5t-45 153.5v386h-119v93h119v288h-119v96h119v258l117 47v-305h156v-96h-156v-288h186v-93h-186v-375q0 -60 22.5 -85t70.5 -25z" />
    <glyph glyph-name="tcaron.calt" horiz-adv-x="454" 
d="M317 1400h137v-103q0 -81 -28.5 -117t-99.5 -43l-10 54q39 3 54.5 22t15.5 64h-69v123zM326 -15q-93 0 -138 48.5t-45 153.5v767h-119v96h119v258l117 47v-305h156v-96h-156v-756q0 -60 22.5 -85t70.5 -25q56 0 119 30l-8 -98q-53 -35 -138 -35z" />
    <glyph glyph-name="uni0163.calt" horiz-adv-x="454" 
d="M333 -81q134 -30 134 -146q0 -67 -40.5 -105t-111.5 -38q-68 0 -121 33l14 76q48 -30 100 -30q34 0 53.5 19t19.5 52q0 43 -35.5 65t-105.5 30l17 118q-114 31 -114 194v767h-119v96h119v258l117 47v-305h156v-96h-156v-756q0 -60 22.5 -85t70.5 -25q56 0 119 30l-8 -98
q-45 -31 -121 -34z" />
    <glyph glyph-name="uni021B.calt" horiz-adv-x="454" 
d="M326 -15q-93 0 -138 48.5t-45 153.5v767h-119v96h119v258l117 47v-305h156v-96h-156v-756q0 -60 22.5 -85t70.5 -25q56 0 119 30l-8 -98q-53 -35 -138 -35zM234 -80h143v-103q0 -82 -29.5 -118.5t-104.5 -43.5l-10 54q41 3 57 22.5t16 65.5h-72v123z" />
    <glyph glyph-name="zero.slashed" horiz-adv-x="786" 
d="M393 1416q157 0 238 -114t81 -332v-540q0 -218 -81 -332t-238 -114q-156 0 -237.5 114t-81.5 332v540q0 218 81.5 332t237.5 114zM393 1322q-195 0 -195 -348v-345l390 254v91q0 348 -195 348zM393 79q195 0 195 347v348l-390 -254v-94q0 -347 195 -347z" />
    <glyph glyph-name="zero.tf.slashed" horiz-adv-x="797" 
d="M398 1417q173 0 255.5 -119t82.5 -370v-457q0 -250 -82.5 -369t-255.5 -119q-172 0 -254.5 119.5t-82.5 368.5v457q0 250 82.5 369.5t254.5 119.5zM399 1327q-114 0 -165 -93t-51 -302v-304l431 267v37q0 209 -51 302t-164 93zM399 74q113 0 164 92.5t51 301.5v319
l-431 -267v-52q0 -209 51 -301.5t165 -92.5z" />
    <glyph glyph-name="zero.tf" horiz-adv-x="797" 
d="M398 -17q-172 0 -254.5 119.5t-82.5 368.5v457q0 250 82.5 369.5t254.5 119.5q173 0 255.5 -119t82.5 -370v-457q0 -250 -82.5 -369t-255.5 -119zM399 74q113 0 164 92.5t51 301.5v464q0 209 -51 302t-164 93q-114 0 -165 -93t-51 -302v-464q0 -209 51 -301.5t165 -92.5z
" />
    <glyph glyph-name="one.tf" horiz-adv-x="797" 
d="M58 0v95h305v980h-289v76q64 2 98 3t73 6.5t56 10t37 20t26.5 29t14.5 44t10.5 58.5t5.5 78h86v-1305h267v-95h-690z" />
    <glyph glyph-name="two.tf" horiz-adv-x="797" 
d="M73 0v69q258 311 383 562.5t125 472.5q0 116 -42 170t-130 54q-103 0 -147.5 -84.5t-44.5 -293.5v-54l-120 34v51q0 230 76.5 333t235.5 103q290 0 290 -311q0 -228 -114.5 -470t-352.5 -531l5 -11q41 3 119 3h367v-97h-650z" />
    <glyph glyph-name="three.tf" horiz-adv-x="797" 
d="M415 -17q-352 0 -352 423v58l121 36v-61q0 -199 56.5 -282t174.5 -83q101 0 149.5 58.5t48.5 183.5v150q0 114 -50.5 165t-147.5 54l-122 3v84l118 3q91 2 136 49.5t45 150.5v129q0 116 -45.5 170t-141.5 54q-106 0 -157 -80.5t-51 -273.5v-55l-119 35v52q0 215 84 313
t244 98q305 0 305 -309v-124q0 -196 -174 -243v-19q198 -42 198 -267v-142q0 -330 -320 -330z" />
    <glyph glyph-name="four.tf" horiz-adv-x="797" 
d="M504 0v322h-457v73l403 1005h172v-984h131v-94h-131v-322h-118zM168 416h336l2 569q0 132 7 293l-18 1q-41 -153 -83 -265z" />
    <glyph glyph-name="five.tf" horiz-adv-x="797" 
d="M403 -17q-161 0 -251 83t-90 252v43l120 35v-45q0 -278 221 -278q107 0 158.5 66t51.5 207v203q0 135 -51 198.5t-156 63.5q-87 0 -141 -47.5t-85 -162.5l-98 11l39 788h576v-98h-464l-26 -492q74 90 226 90q148 0 225 -85t77 -253v-218q0 -361 -332 -361z" />
    <glyph glyph-name="six.tf" horiz-adv-x="797" 
d="M397 1417q159 0 246 -94.5t87 -275.5v-42l-121 -36v45q0 312 -213 312q-109 0 -160.5 -87t-51.5 -268v-224q73 100 239 100q145 0 221 -84.5t76 -250.5v-185q0 -168 -82.5 -256t-240.5 -88q-167 0 -248.5 96.5t-81.5 294.5v571q0 240 80.5 356t249.5 116zM391 758
q-206 0 -206 -243v-189q0 -129 52 -191t159 -62q103 0 153 63t50 194v181q0 128 -51 187.5t-157 59.5z" />
    <glyph glyph-name="seven.tf" horiz-adv-x="797" 
d="M312 0q1 450 74.5 761t218.5 540h-542v99h671v-78q-152 -224 -226 -538t-74 -784h-122z" />
    <glyph glyph-name="eight.tf" horiz-adv-x="797" 
d="M398 -17q-171 0 -259 76.5t-88 225.5v178q0 107 50.5 173.5t148.5 87.5v19q-174 47 -174 236v155q0 139 82 211t240 72t240 -72t82 -211v-155q0 -189 -174 -236v-19q199 -43 199 -261v-178q0 -149 -88 -225.5t-259 -76.5zM398 775q103 0 153.5 48t50.5 146v166
q0 99 -50 146.5t-154 47.5q-103 0 -153.5 -47.5t-50.5 -146.5v-166q0 -194 204 -194zM398 72q114 0 169.5 52t55.5 160v191q0 108 -55.5 160.5t-169.5 52.5q-113 0 -168.5 -52.5t-55.5 -160.5v-191q0 -108 55.5 -160t168.5 -52z" />
    <glyph glyph-name="nine.tf" horiz-adv-x="797" 
d="M400 -17q-159 0 -246 94.5t-87 275.5v42l121 36v-45q0 -312 213 -312q109 0 160.5 87t51.5 268v224q-73 -100 -239 -100q-145 0 -221 84t-76 251v185q0 168 82.5 256t240.5 88q167 0 248.5 -96.5t81.5 -294.5v-571q0 -240 -80.5 -356t-249.5 -116zM406 642q206 0 206 243
v189q0 129 -52 191t-159 62q-103 0 -153 -63t-50 -194v-181q0 -128 51 -187.5t157 -59.5z" />
    <glyph glyph-name="zero.dnom" horiz-adv-x="542" 
d="M271 -10q-111 0 -165.5 68t-54.5 209v308q0 278 220 278t220 -278v-308q0 -141 -54.5 -209t-165.5 -68zM272 74q59 0 83.5 45.5t24.5 139.5v324q0 94 -24.5 140.5t-83.5 46.5q-60 0 -85 -46t-25 -141v-324q0 -94 25 -139.5t85 -45.5z" />
    <glyph glyph-name="one.dnom" horiz-adv-x="542" 
d="M39 0v89h196v527h-184v76q53 1 79.5 2.5t54 8t37 14t20 26.5t13.5 40t6 60h83v-754h157v-89h-462z" />
    <glyph glyph-name="two.dnom" horiz-adv-x="543" 
d="M56 0v63q161 186 234.5 328.5t72.5 264.5q0 60 -21.5 87t-67.5 27q-54 0 -76.5 -46t-22.5 -157v-36l-108 23v32q0 140 50.5 204t158.5 64q197 0 197 -194q1 -129 -63 -257t-211 -309l3 -7q28 2 80 2h204v-89h-430z" />
    <glyph glyph-name="three.dnom" horiz-adv-x="543" 
d="M276 -12q-223 0 -223 259v38l108 24v-43q0 -107 29.5 -151.5t86.5 -44.5q52 0 76.5 31.5t24.5 103.5v70q0 64 -25.5 92.5t-77.5 30.5l-66 3v78l64 2q48 2 71.5 28t23.5 83v59q0 63 -24 91.5t-74 28.5q-54 0 -80 -43.5t-26 -137.5v-34l-106 23v29q0 123 54.5 184.5
t158.5 61.5q204 0 204 -198v-54q0 -68 -27 -104t-83 -49v-15q63 -11 93.5 -51t30.5 -114v-69q0 -212 -213 -212z" />
    <glyph glyph-name="four.dnom" horiz-adv-x="542" 
d="M314 0v157h-282v74l230 612h162v-599h79v-87h-79v-157h-110zM135 244h179l3 296q0 87 5 192l-13 1q-32 -124 -50 -179z" />
    <glyph glyph-name="five.dnom" horiz-adv-x="543" 
d="M273 -12q-111 0 -167 50.5t-56 165.5v28l108 24v-33q0 -84 28 -118.5t85 -34.5q55 0 80 34.5t25 112.5v118q0 72 -24.5 104.5t-76.5 32.5q-46 0 -73.5 -24t-42.5 -81l-98 6l26 470h386v-89h-285l-15 -241q53 42 126 42q189 0 189 -216v-119q0 -118 -53.5 -175t-161.5 -57
z" />
    <glyph glyph-name="six.dnom" horiz-adv-x="543" 
d="M271 855q218 0 218 -226v-27l-109 -23v32q0 162 -111 162q-109 0 -109 -184v-124q53 55 144 55q87 0 134.5 -52.5t47.5 -147.5v-121q0 -99 -56 -154t-158 -55q-108 0 -163 63.5t-56 185.5v330q0 286 218 286zM270 438q-106 0 -106 -114v-125q0 -59 28 -92t80 -33t79.5 31
t27.5 89v124q0 120 -109 120z" />
    <glyph glyph-name="seven.dnom" horiz-adv-x="542" 
d="M203 0q4 266 45 438.5t125 314.5h-324v90h438v-73q-91 -147 -132 -320.5t-42 -449.5h-110z" />
    <glyph glyph-name="eight.dnom" horiz-adv-x="542" 
d="M271 -10q-112 0 -169 48.5t-57 141.5v97q0 133 120 157v14q-107 23 -107 145v78q0 89 54 135.5t159 46.5t159 -47t54 -135v-78q0 -121 -107 -145v-14q120 -24 120 -157v-97q0 -93 -57 -141.5t-169 -48.5zM271 478q105 0 105 105v85q0 103 -105 103t-105 -103v-85
q0 -105 105 -105zM271 72q115 0 115 110v105q0 111 -115 111t-115 -111v-105q0 -110 115 -110z" />
    <glyph glyph-name="nine.dnom" horiz-adv-x="543" 
d="M272 -11q-218 0 -218 226v27l109 23v-32q0 -162 111 -162q109 0 109 184v124q-53 -55 -144 -55q-87 0 -134.5 52.5t-47.5 147.5v121q0 99 56 154t158 55q108 0 163 -63.5t56 -185.5v-330q0 -286 -218 -286zM273 406q106 0 106 114v125q0 59 -28 92t-80 33t-79.5 -31
t-27.5 -89v-124q0 -120 109 -120z" />
    <glyph glyph-name="zero.numr" horiz-adv-x="542" 
d="M271 547q-111 0 -165.5 68t-54.5 209v308q0 278 220 278t220 -278v-308q0 -141 -54.5 -209t-165.5 -68zM272 631q59 0 83.5 45.5t24.5 139.5v324q0 94 -24.5 140.5t-83.5 46.5q-60 0 -85 -46t-25 -141v-324q0 -94 25 -139.5t85 -45.5z" />
    <glyph glyph-name="one.numr" horiz-adv-x="542" 
d="M39 557v89h196v527h-184v76q53 1 79.5 2.5t54 8t37 14t20 26.5t13.5 40t6 60h83v-754h157v-89h-462z" />
    <glyph glyph-name="two.numr" horiz-adv-x="543" 
d="M56 557v63q161 186 234.5 328.5t72.5 264.5q0 60 -21.5 87t-67.5 27q-54 0 -76.5 -46t-22.5 -157v-36l-108 23v32q0 140 50.5 204t158.5 64q197 0 197 -194q1 -129 -63 -257t-211 -309l3 -7q28 2 80 2h204v-89h-430z" />
    <glyph glyph-name="three.numr" horiz-adv-x="543" 
d="M276 545q-223 0 -223 259v38l108 24v-43q0 -107 29.5 -151.5t86.5 -44.5q52 0 76.5 31.5t24.5 103.5v70q0 64 -25.5 92.5t-77.5 30.5l-66 3v78l64 2q48 2 71.5 28t23.5 83v59q0 63 -24 91.5t-74 28.5q-54 0 -80 -43.5t-26 -137.5v-34l-106 23v29q0 123 54.5 184.5
t158.5 61.5q204 0 204 -198v-54q0 -68 -27 -104t-83 -49v-15q63 -11 93.5 -51t30.5 -114v-69q0 -212 -213 -212z" />
    <glyph glyph-name="four.numr" horiz-adv-x="542" 
d="M314 557v157h-282v74l230 612h162v-599h79v-87h-79v-157h-110zM135 801h179l3 296q0 87 5 192l-13 1q-32 -124 -50 -179z" />
    <glyph glyph-name="five.numr" horiz-adv-x="543" 
d="M273 545q-111 0 -167 50.5t-56 165.5v28l108 24v-33q0 -84 28 -118.5t85 -34.5q55 0 80 34.5t25 112.5v118q0 72 -24.5 104.5t-76.5 32.5q-46 0 -73.5 -24t-42.5 -81l-98 6l26 470h386v-89h-285l-15 -241q53 42 126 42q189 0 189 -216v-119q0 -118 -53.5 -175t-161.5 -57
z" />
    <glyph glyph-name="six.numr" horiz-adv-x="543" 
d="M271 1412q218 0 218 -226v-27l-109 -23v32q0 162 -111 162q-109 0 -109 -184v-124q53 55 144 55q87 0 134.5 -52.5t47.5 -147.5v-121q0 -99 -56 -154t-158 -55q-108 0 -163 63.5t-56 185.5v330q0 286 218 286zM270 995q-106 0 -106 -114v-125q0 -59 28 -92t80 -33
t79.5 31t27.5 89v124q0 120 -109 120z" />
    <glyph glyph-name="seven.numr" horiz-adv-x="542" 
d="M203 557q4 266 45 438.5t125 314.5h-324v90h438v-73q-91 -147 -132 -320.5t-42 -449.5h-110z" />
    <glyph glyph-name="eight.numr" horiz-adv-x="542" 
d="M271 547q-112 0 -169 48.5t-57 141.5v97q0 133 120 157v14q-107 23 -107 145v78q0 89 54 135.5t159 46.5t159 -47t54 -135v-78q0 -121 -107 -145v-14q120 -24 120 -157v-97q0 -93 -57 -141.5t-169 -48.5zM271 1035q105 0 105 105v85q0 103 -105 103t-105 -103v-85
q0 -105 105 -105zM271 629q115 0 115 110v105q0 111 -115 111t-115 -111v-105q0 -110 115 -110z" />
    <glyph glyph-name="nine.numr" horiz-adv-x="543" 
d="M272 546q-218 0 -218 226v27l109 23v-32q0 -162 111 -162q109 0 109 184v124q-53 -55 -144 -55q-87 0 -134.5 52.5t-47.5 147.5v121q0 99 56 154t158 55q108 0 163 -63.5t56 -185.5v-330q0 -286 -218 -286zM273 963q106 0 106 114v125q0 59 -28 92t-80 33t-79.5 -31
t-27.5 -89v-124q0 -120 109 -120z" />
    <glyph glyph-name="colon.case" horiz-adv-x="291" 
d="M62 1225h168v-163h-168v163zM62 338h168v-163h-168v163z" />
    <glyph glyph-name="semicolon.case" horiz-adv-x="292" 
d="M63 1225h168v-163h-168v163zM63 338h168v-139q0 -119 -40 -175t-141 -85l-16 61q66 23 91 60.5t24 114.5h-86v163z" />
    <glyph glyph-name="bullet.case" horiz-adv-x="560" 
d="M185 604v192h191v-192h-191z" />
    <glyph glyph-name="parenleft.case" horiz-adv-x="398" 
d="M380 1450q-189 -313 -189 -746q0 -441 189 -754h-117q-189 313 -189 754q0 433 189 746h117z" />
    <glyph glyph-name="parenright.case" horiz-adv-x="398" 
d="M18 1450h117q189 -313 189 -746q0 -441 -189 -754h-117q189 313 189 754q0 433 -189 746z" />
    <glyph glyph-name="braceleft.case" horiz-adv-x="416" 
d="M395 1351h-50q-89 0 -89 -95v-351q0 -153 -116 -195v-20q116 -42 116 -195v-351q0 -95 89 -95h50v-99h-79q-177 0 -177 183v357q0 132 -113 156v108q113 24 113 156v357q0 183 176 183h80v-99z" />
    <glyph glyph-name="braceright.case" horiz-adv-x="417" 
d="M21 1351v99h80q177 0 177 -183v-357q0 -132 113 -156v-108q-113 -24 -113 -156v-357q0 -183 -178 -183h-79v99h50q90 0 90 95v351q0 153 115 195v20q-115 42 -115 195v351q0 95 -90 95h-50z" />
    <glyph glyph-name="bracketleft.case" horiz-adv-x="386" 
d="M365 1351h-150v-1302h150v-99h-267v1500h267v-99z" />
    <glyph glyph-name="bracketright.case" horiz-adv-x="386" 
d="M21 1351v99h267v-1500h-267v99h150v1302h-150z" />
    <glyph glyph-name="hyphen.case" horiz-adv-x="454" 
d="M53 749h375v-98h-375v98z" />
    <glyph glyph-name="endash.case" horiz-adv-x="764" 
d="M53 747h658v-94h-658v94z" />
    <glyph glyph-name="emdash.case" horiz-adv-x="1076" 
d="M53 747h970v-94h-970v94z" />
    <glyph glyph-name="guillemotleft.case" horiz-adv-x="684" 
d="M270 275l-203 425l204 425h109l-195 -425l195 -425h-110zM507 275l-203 425l203 425h110l-196 -425l196 -425h-110z" />
    <glyph glyph-name="guillemotright.case" horiz-adv-x="684" 
d="M177 275h-110l196 425l-196 425h110l203 -425zM414 275h-110l195 425l-195 425h109l204 -425z" />
    <glyph glyph-name="guilsinglleft.case" horiz-adv-x="447" 
d="M270 275l-203 425l204 425h109l-195 -425l195 -425h-110z" />
    <glyph glyph-name="guilsinglright.case" horiz-adv-x="448" 
d="M177 275h-110l196 425l-196 425h110l203 -425z" />
    <glyph glyph-name="exclamdown.case" horiz-adv-x="318" 
d="M243 1237h-168v163h168v-163zM224 0h-131l21 1085h90z" />
    <glyph glyph-name="questiondown.case" horiz-adv-x="587" 
d="M359 1237h-168v163h168v-163zM358 1085q22 -49 27 -97.5t-6 -99t-26.5 -92t-43.5 -99.5l-61 -130q-88 -189 -88 -329q0 -86 29.5 -124.5t95.5 -38.5q76 0 106.5 65.5t30.5 216.5v67l123 -30v-60q0 -178 -64.5 -264t-196.5 -86q-238 0 -238 257q0 165 112 380l71 139
q39 77 53.5 126t4 96.5t-55.5 89.5l4 13h123z" />
    <glyph glyph-name="period.tf" horiz-adv-x="398" 
d="M115 163h168v-163h-168v163z" />
    <glyph glyph-name="comma.tf" horiz-adv-x="398" 
d="M115 163h168v-139q0 -119 -40 -175t-141 -85l-16 61q66 23 91 60.5t24 114.5h-86v163z" />
    <glyph glyph-name="colon.case.tf" horiz-adv-x="398" 
d="M115 1225h168v-163h-168v163zM115 338h168v-163h-168v163z" />
    <glyph glyph-name="semicolon.case.tf" horiz-adv-x="398" 
d="M110 1225h168v-162h-168v162zM110 338h168v-138q0 -120 -39.5 -176t-140.5 -85l-16 62q66 22 90.5 59.5t23.5 114.5h-86v163z" />
    <glyph glyph-name="at.case" horiz-adv-x="1274" 
d="M658 -85q-276 0 -430.5 162.5t-154.5 458.5v335q0 294 148.5 452.5t415.5 158.5q261 0 406.5 -158.5t145.5 -453.5v-320q0 -188 -65.5 -288t-187.5 -100q-87 0 -123.5 56t-19.5 155l-19 4q-25 -105 -83.5 -160t-144.5 -55q-87 0 -134.5 56t-47.5 158v46q0 71 18 127
t52.5 96t75 67.5t96.5 52.5l138 62v179q0 147 -113 147q-72 0 -102 -52t-29 -179v-84l-120 30v77q-2 154 60 226.5t192 72.5q234 0 234 -231v-640q0 -118 76 -118q64 0 98.5 74t34.5 220v321q0 248 -115.5 381t-322.5 133q-213 0 -331 -132.5t-118 -380.5v-335
q0 -249 125.5 -386t346.5 -137q187 0 352 79l28 -97q-162 -80 -382 -80zM583 260q71 0 116.5 65t45.5 177v220l-94 -41q-78 -34 -120.5 -89t-42.5 -153v-44q0 -65 24.5 -100t70.5 -35z" />
    <glyph glyph-name="copyright.case" horiz-adv-x="1277" 
d="M638 -80q-264 0 -414 156.5t-150 431.5v383q0 275 150 432t414 157t414 -157t150 -432v-383q0 -275 -150 -431.5t-414 -156.5zM638 14q211 0 332 132t121 362v383q0 231 -121 363t-332 132t-331.5 -132t-120.5 -363v-383q0 -230 120.5 -362t331.5 -132zM642 159
q-133 0 -202.5 91t-69.5 265v378q0 171 69.5 259.5t205.5 88.5q120 0 188 -80.5t68 -250.5v-50l-116 -27v54q0 143 -35.5 204t-104.5 61q-156 0 -156 -256v-383q0 -134 38.5 -199.5t117.5 -65.5q70 0 107 55t37 183v67l118 -27v-54q0 -162 -71 -238t-194 -75z" />
    <glyph glyph-name="whiteLargeCircle" horiz-adv-x="1600" 
d="M800 -20q-195 0 -361 96t-262.5 261.5t-96.5 362.5q0 147 57 280.5t153.5 229.5t230 153t279.5 57q196 0 361.5 -96t262 -262t96.5 -362q0 -197 -96.5 -362.5t-262 -261.5t-361.5 -96zM800 60q131 0 249 50.5t204 136t136.5 204t50.5 249.5q0 175 -85.5 322t-233 232.5
t-321.5 85.5t-321 -85.5t-233 -232.5t-86 -322t86 -322.5t233 -232.5t321 -85z" />
    <glyph glyph-name="arrowup.ss04" horiz-adv-x="691" 
d="M295 141v342h-224l-10 20l275 430h20l274 -430l-10 -20h-223v-342h-102z" />
    <glyph glyph-name="uni2197.ss04" horiz-adv-x="751" 
d="M62 321l242 242l-159 158l7 21l499 110l14 -14l-110 -498l-21 -7l-158 158l-242 -242z" />
    <glyph glyph-name="arrowright.ss04" horiz-adv-x="913" 
d="M61 580h342v224l20 10l429 -275v-20l-429 -274l-20 10v223h-342v102z" />
    <glyph glyph-name="uni2198.ss04" horiz-adv-x="752" 
d="M134 852l241 -242l159 159l21 -7l110 -499l-15 -14l-497 110l-7 21l158 158l-242 242z" />
    <glyph glyph-name="arrowdown.ss04" horiz-adv-x="691" 
d="M396 930v-342h224l10 -20l-275 -430h-20l-274 430l10 20h223v342h102z" />
    <glyph glyph-name="uni2199.ss04" horiz-adv-x="752" 
d="M618 852l72 -72l-242 -242l158 -158l-7 -21l-497 -110l-15 14l110 499l21 7l159 -159z" />
    <glyph glyph-name="arrowleft.ss04" horiz-adv-x="914" 
d="M852 580v-102h-341v-223l-20 -10l-430 274v20l430 275l20 -10v-224h341z" />
    <glyph glyph-name="uni2196.ss04" horiz-adv-x="752" 
d="M689 321l-72 -72l-241 242l-158 -158l-21 7l-110 498l14 14l498 -110l7 -21l-158 -158z" />
    <glyph glyph-name="arrowboth.ss04" horiz-adv-x="1342" 
d="M1282 519l-430 -274l-20 10v223h-321v-223l-20 -10l-430 274v20l430 275l20 -10v-224h321v224l20 10l430 -275v-20z" />
    <glyph glyph-name="arrowupdn.ss04" horiz-adv-x="691" 
d="M336 -85l-275 429l10 20h224v322h-224l-10 20l275 429h20l274 -429l-10 -20h-223v-322h223l10 -20l-274 -429h-20z" />
    <glyph glyph-name="uni2BA0.ss04" horiz-adv-x="911" 
d="M491 244l-430 275v20l430 274l20 -10v-223h237v298h102v-400h-339v-224z" />
    <glyph glyph-name="uni2BA1.ss04" horiz-adv-x="911" 
d="M420 244l-20 10v224h-339v400h102v-298h237v223l20 10l430 -274v-20z" />
    <glyph glyph-name="uni2BA6.ss04" horiz-adv-x="756" 
d="M61 569l10 20h224v340h400v-102h-298v-238h223l10 -20l-274 -429h-20z" />
    <glyph glyph-name="uni2BA4.ss04" horiz-adv-x="756" 
d="M61 523l275 429h20l274 -429l-10 -20h-223v-238h298v-102h-400v340h-224z" />
    <glyph glyph-name="uni2BA7.ss04" horiz-adv-x="756" 
d="M695 569l-275 -429h-20l-274 429l10 20h223v238h-298v102h400v-340h224z" />
    <glyph glyph-name="uni2BA5.ss04" horiz-adv-x="756" 
d="M695 523l-10 -20h-224v-340h-400v102h298v238h-223l-10 20l274 429h20z" />
    <glyph glyph-name="uni2BA2.ss04" horiz-adv-x="911" 
d="M491 814l20 -10v-224h339v-400h-102v298h-237v-223l-20 -10l-430 274v20z" />
    <glyph glyph-name="uni2BA3.ss04" horiz-adv-x="911" 
d="M420 814l430 -275v-20l-430 -274l-20 10v223h-237v-298h-102v400h339v224z" />
    <glyph glyph-name="uni0328.ae" 
d="M-84 13l82 -12q-106 -53 -106 -120q0 -48 57 -48q20 0 46 7l-18 -85q-32 -10 -60 -10q-56 0 -86 26.5t-30 76.5q0 96 115 165z" />
    <glyph glyph-name="uni030C.L.case" 
d="M-138 1400h138v-108q0 -82 -29 -119.5t-100 -44.5l-10 55q39 3 54.5 23t15.5 65h-69v129z" />
    <glyph glyph-name="uni0308.case" 
d="M-363 1508v163h129v-163h-129zM-129 1508v163h129v-163h-129z" />
    <glyph glyph-name="uni0307.case" 
d="M-152 1508v163h152v-163h-152z" />
    <glyph glyph-name="gravecomb.case" 
d="M0 1491h-103l-123 189h128z" />
    <glyph glyph-name="acutecomb.case" 
d="M-226 1491l98 189h128l-123 -189h-103z" />
    <glyph glyph-name="uni030B.case" 
d="M-419 1491l98 189h128l-123 -189h-103zM-225 1491l98 189h127l-123 -189h-102z" />
    <glyph glyph-name="uni0302.case" 
d="M-383 1491l133 189h118l132 -189h-101l-90 108l-91 -108h-101z" />
    <glyph glyph-name="uni030C.case" 
d="M-383 1680h101l91 -108l90 108h101l-132 -189h-118z" />
    <glyph glyph-name="uni0306.case" 
d="M-87 1680h87q-1 -93 -46 -141.5t-129 -48.5t-129.5 48.5t-46.5 141.5h87q3 -108 89 -108q85 0 88 108z" />
    <glyph glyph-name="uni030A.case" 
d="M-162 1467q-73 0 -117 38.5t-44 102.5t44 102.5t117 38.5q74 0 118.5 -38.5t44.5 -102.5t-44.5 -102.5t-118.5 -38.5zM-162 1540q37 0 58.5 18.5t21.5 49.5t-21.5 49.5t-58.5 18.5t-58.5 -18.5t-21.5 -49.5t21.5 -49.5t58.5 -18.5z" />
    <glyph glyph-name="tildecomb.case" 
d="M-109 1495q-33 0 -70 22.5t-67.5 44.5t-47.5 22q-22 0 -32 -19.5t-11 -64.5h-70q3 167 111 167q32 0 68.5 -22.5t67.5 -44.5t48 -22q22 0 31.5 19.5t10.5 64.5h70q-4 -167 -109 -167z" />
    <glyph glyph-name="uni0304.case" 
d="M-390 1478v90h390v-90h-390z" />
    <glyph glyph-name="uni0326.case" 
d="M-137 1400h137v-103q0 -81 -28.5 -117t-99.5 -43l-10 54q39 3 54.5 22t15.5 64h-69v123z" />
    <glyph glyph-name="uni0302.narrow.case" 
d="M-289 1491l87 189h107l87 -189h-84l-56 112l-57 -112h-84z" />
    <glyph glyph-name="uni0308.narrow" 
d="M-275 1193v171h111v-171h-111zM-110 1193v171h110v-171h-110z" />
    <glyph glyph-name="gravecomb.narrow" 
d="M-59 1400l59 -259h-95l-82 259h118z" />
    <glyph glyph-name="acutecomb.narrow" 
d="M-119 1400h119l-82 -259h-95z" />
    <glyph glyph-name="uni0302.narrow" 
d="M-281 1140l87 260h107l87 -260h-84l-56 159l-57 -159h-84z" />
    <glyph glyph-name="uni030C.narrow" 
d="M0 1400l-87 -260h-107l-87 260h84l56 -159l57 159h84z" />
    <glyph glyph-name="tildecomb.narrow" 
d="M-74 1163q-28 0 -64.5 27t-47.5 27q-26 0 -22 -51h-60q-10 137 74 137q26 0 63 -27t48 -27q27 0 22 51h60q10 -137 -73 -137z" />
    <glyph glyph-name="uni0304.narrow" 
d="M-252 1186v88h252v-88h-252z" />
    </font>
</defs>
</svg>
