<?xml version="1.0" standalone="no"?>
<!DOCTYPE svg PUBLIC "-//W3C//DTD SVG 1.1//EN" "http://www.w3.org/Graphics/SVG/1.1/DTD/svg11.dtd" >
<svg xmlns="http://www.w3.org/2000/svg" xmlns:xlink="http://www.w3.org/1999/xlink" version="1.1">
<metadata>
Created by FontForge 20201107 at Wed Feb 26 04:59:02 2020
 By 
Copyright (c) 2020 by Alexander Slobzheninov. All rights reserved.
</metadata>
<defs>
<font id="RightGrotesk-SpatialBlack" horiz-adv-x="0" >
  <font-face 
    font-family="Right Grotesk Spatial Black"
    font-weight="900"
    font-stretch="expanded"
    units-per-em="2048"
    panose-1="0 0 10 5 0 0 0 0 0 0"
    ascent="1638"
    descent="-410"
    x-height="1050"
    cap-height="1400"
    bbox="-1199 -490 3681 1831"
    underline-thickness="170"
    underline-position="-200"
    unicode-range="U+0020-2BA7"
  />
<missing-glyph horiz-adv-x="875" 
d="M718 1400v-1750h-555v1750h555zM583 1283h-289v-58h114v-65h-116v-57h291v57h-116v65h116v58zM467 1057h-175v-182h291v60h-116v122zM408 998v-63h-58v63h58zM583 828h-291v-58h116v-65h-116v-57h175v122h116v58zM583 723h-58v-116h-233v-59h291v175zM583 509h-175v-98
h59v41h58v-83h-175v140h-58v-197h291v197zM583 207h-291v-198h291v198zM525 149v-82h-175v82h175zM583 -32h-291v-57h123l-123 -83v-57h291v57h-179l123 83h56v57z" />
    <glyph glyph-name=".notdef" horiz-adv-x="875" 
d="M718 1400v-1750h-555v1750h555zM583 1283h-289v-58h114v-65h-116v-57h291v57h-116v65h116v58zM467 1057h-175v-182h291v60h-116v122zM408 998v-63h-58v63h58zM583 828h-291v-58h116v-65h-116v-57h175v122h116v58zM583 723h-58v-116h-233v-59h291v175zM583 509h-175v-98
h59v41h58v-83h-175v140h-58v-197h291v197zM583 207h-291v-198h291v198zM525 149v-82h-175v82h175zM583 -32h-291v-57h123l-123 -83v-57h291v57h-179l123 83h56v57z" />
    <glyph glyph-name=".null" 
 />
    <glyph glyph-name="nonmarkingreturn" horiz-adv-x="682" 
 />
    <glyph glyph-name="space" unicode=" " horiz-adv-x="350" 
 />
    <glyph glyph-name="exclam" unicode="!" horiz-adv-x="675" 
d="M60 1400h555l-43 -901h-469zM62 439h551v-439h-551v439z" />
    <glyph glyph-name="quotedbl" unicode="&#x22;" horiz-adv-x="960" 
d="M100 738l-40 662h390l-40 -662h-310zM550 738l-40 662h390l-40 -662h-310z" />
    <glyph glyph-name="numbersign" unicode="#" horiz-adv-x="1717" 
d="M1687 795h-251l-51 -190h195v-315h-281l-79 -290h-438l79 290h-228l-79 -290h-438l79 290h-165v315h251l51 190h-195v315h281l79 290h438l-79 -290h228l79 290h438l-79 -290h165v-315zM947 605l51 190h-228l-51 -190h228z" />
    <glyph glyph-name="dollar" unicode="$" horiz-adv-x="1734" 
d="M1679 460q0 -188 -145 -309t-407 -162v-229h-520v225q-264 37 -410.5 153t-141.5 297l619 37q3 -80 59.5 -116.5t165.5 -36.5q85 0 125.5 17.5t40.5 56.5q0 28 -22.5 44.5t-81.5 31.5t-187 37l-246 42q-97 17 -176 48.5t-144 81.5t-101.5 126.5t-36.5 172.5
q0 182 140.5 292t396.5 145v236h520v-241q250 -42 383.5 -159t125.5 -282l-557 -43q-7 76 -62 115.5t-173 39.5q-89 0 -135 -20.5t-46 -55.5q0 -24 13.5 -37t70 -28.5t177.5 -35.5l246 -40q61 -10 106 -19t101 -25.5t96.5 -36.5t81.5 -50.5t66.5 -68t41.5 -89.5t16 -114z
" />
    <glyph glyph-name="percent" unicode="%" horiz-adv-x="2601" 
d="M592 660q-274 0 -408 92t-134 279v28q0 187 134 279t408 92t408 -92t134 -279v-28q0 -187 -134 -279t-408 -92zM565 0l987 1400h484l-987 -1400h-484zM592 920q101 0 101 117v16q0 118 -101 118t-101 -118v-16q0 -117 101 -117zM2009 -30q-274 0 -408 92t-134 279v28
q0 187 134 279t408 92t408 -92t134 -279v-28q0 -187 -134 -279t-408 -92zM2009 230q101 0 101 117v16q0 118 -101 118t-101 -118v-16q0 -117 101 -117z" />
    <glyph glyph-name="ampersand" unicode="&#x26;" horiz-adv-x="1747" 
d="M679 -30q-303 0 -466 98.5t-163 281.5q0 237 317 388q-214 149 -214 330q0 183 175.5 272.5t533.5 89.5q381 0 559 -86t178 -268q0 -136 -120.5 -221t-455.5 -202l123 -122q52 54 72 116l479 -43q-44 -208 -254 -371l224 -233h-511l-62 59q-202 -89 -415 -89zM817 918
q118 38 157 62t39 60q0 70 -131 70q-137 0 -137 -80q0 -19 14.5 -41t57.5 -71zM695 320q55 0 106 23l-161 166q-89 -34 -89 -103q0 -86 144 -86z" />
    <glyph glyph-name="quotesingle" unicode="'" horiz-adv-x="510" 
d="M100 738l-40 662h390l-40 -662h-310z" />
    <glyph glyph-name="parenleft" unicode="(" horiz-adv-x="845" 
d="M845 1450q-135 -161 -207.5 -374.5t-72.5 -450.5t72.5 -450.5t207.5 -374.5h-510q-135 161 -207.5 374.5t-72.5 450.5t72.5 450.5t207.5 374.5h510z" />
    <glyph glyph-name="parenright" unicode=")" horiz-adv-x="845" 
d="M0 1450h510q135 -161 207.5 -374.5t72.5 -450.5t-72.5 -450.5t-207.5 -374.5h-510q135 161 207.5 374.5t72.5 450.5t-72.5 450.5t-207.5 374.5z" />
    <glyph glyph-name="asterisk" unicode="*" horiz-adv-x="1060" 
d="M408 413l-323 235l161 179l-236 51l124 380l222 -98l-25 240h400l-25 -240l220 98l124 -380l-236 -51l161 -179l-323 -235l-122 208z" />
    <glyph glyph-name="plus" unicode="+" horiz-adv-x="1191" 
d="M411 196v345h-351v360h351v346h370v-346h350v-360h-350v-345h-370z" />
    <glyph glyph-name="comma" unicode="," horiz-adv-x="671" 
d="M60 439h551v-359q0 -85 -26.5 -155t-73 -118t-111.5 -81.5t-139.5 -49.5t-159.5 -18l-41 184q113 11 162 44t49 114h-211v439z" />
    <glyph glyph-name="hyphen" unicode="-" horiz-adv-x="885" 
d="M60 716h765v-370h-765v370z" />
    <glyph glyph-name="period" unicode="." horiz-adv-x="671" 
d="M60 439h551v-439h-551v439z" />
    <glyph glyph-name="slash" unicode="/" horiz-adv-x="1080" 
d="M0 -200l550 1650h530l-550 -1650h-530z" />
    <glyph glyph-name="zero" unicode="0" horiz-adv-x="1802" 
d="M901 -30q-428 0 -637 180t-209 547v4q0 369 209 549t637 180t637 -180t209 -549v-4q0 -367 -209 -547t-637 -180zM901 361q206 0 206 327v25q0 328 -206 328t-206 -328v-25q0 -327 206 -327z" />
    <glyph glyph-name="one" unicode="1" horiz-adv-x="1102" 
d="M412 0v784h-382v356q115 1 182 4t125.5 15t85.5 25.5t50.5 47t33 68.5t20.5 100h500v-1400h-615z" />
    <glyph glyph-name="two" unicode="2" horiz-adv-x="1666" 
d="M40 0v375q476 168 706 308t230 270q0 107 -118 107q-84 0 -120.5 -66.5t-27.5 -219.5l-640 35q-17 312 186.5 466.5t624.5 154.5q735 0 735 -432q0 -229 -196 -372.5t-585 -209.5l2 -20q91 4 187 4h588v-400h-1572z" />
    <glyph glyph-name="three" unicode="3" horiz-adv-x="1705" 
d="M847 -30q-417 -1 -615 120.5t-192 382.5l640 52q2 -111 47.5 -160.5t139.5 -49.5q153 0 153 120v4q0 127 -173 135l-107 5v262l107 5q159 7 159 115v4q0 56 -38 88t-111 32q-89 0 -130.5 -46.5t-40.5 -152.5l-627 43q4 259 197.5 380t590.5 121q393 0 582.5 -104
t189.5 -324v-4q0 -95 -56.5 -159t-174.5 -106v-18q138 -41 205 -122.5t67 -211.5v-4q0 -407 -813 -407z" />
    <glyph glyph-name="four" unicode="4" horiz-adv-x="1606" 
d="M814 0v226h-794v320l632 854h782v-814h162v-360h-162v-226h-620zM538 586h276v174q0 119 17 250l-20 3q-48 -91 -100 -168z" />
    <glyph glyph-name="five" unicode="5" horiz-adv-x="1751" 
d="M897 -30q-819 0 -852 426l638 30q11 -126 194 -126q199 0 199 147v4q0 153 -198 153q-166 0 -189 -97l-630 20l40 873h1565v-370h-983l-5 -199q187 73 396 73q644 0 644 -456v-4q0 -240 -202.5 -357t-616.5 -117z" />
    <glyph glyph-name="six" unicode="6" horiz-adv-x="1771" 
d="M895 1430q379 0 578 -117t228 -357l-640 -20q-14 82 -60.5 118t-130.5 36q-113 0 -168.5 -71t-55.5 -216v-2q234 76 439 76q319 0 475 -102t156 -311v-2q0 -251 -200 -371.5t-625 -120.5q-423 0 -629.5 175t-206.5 534v2q0 379 207.5 564t632.5 185zM910 596
q-205 0 -205 -141v-1q0 -70 53 -107t152 -37q206 0 206 144v1q0 141 -206 141z" />
    <glyph glyph-name="seven" unicode="7" horiz-adv-x="1496" 
d="M388 0q44 324 147 555t291 425h-786v420h1416v-320q-188 -205 -293 -459t-155 -621h-620z" />
    <glyph glyph-name="eight" unicode="8" horiz-adv-x="1726" 
d="M863 -30q-818 0 -818 428v4q0 129 66.5 204.5t205.5 108.5v18q-118 30 -174.5 103.5t-56.5 201.5v4q0 388 777 388t777 -388v-4q0 -128 -56.5 -201.5t-174.5 -103.5v-18q139 -33 205.5 -108.5t66.5 -204.5v-4q0 -428 -818 -428zM863 846q179 0 179 122v4q0 122 -179 122
t-179 -122v-4q0 -122 179 -122zM863 306q193 0 193 132v4q0 128 -193 128t-193 -128v-4q0 -132 193 -132z" />
    <glyph glyph-name="nine" unicode="9" horiz-adv-x="1771" 
d="M876 -30q-379 0 -578 117t-228 357l640 20q14 -82 60.5 -118t130.5 -36q113 0 168.5 71t55.5 216v2q-234 -76 -439 -76q-319 0 -475 102t-156 311v2q0 251 200 371.5t625 120.5q423 0 629.5 -175t206.5 -534v-2q0 -379 -207.5 -564t-632.5 -185zM861 804q205 0 205 141v1
q0 70 -53 107t-152 37q-206 0 -206 -144v-1q0 -141 206 -141z" />
    <glyph glyph-name="colon" unicode=":" horiz-adv-x="671" 
d="M60 1050h551v-439h-551v439zM60 439h551v-439h-551v439z" />
    <glyph glyph-name="semicolon" unicode=";" horiz-adv-x="671" 
d="M60 1050h551v-439h-551v439zM60 439h551v-359q0 -85 -26.5 -155t-73 -118t-111.5 -81.5t-139.5 -49.5t-159.5 -18l-41 184q113 11 162 44t49 114h-211v439z" />
    <glyph glyph-name="less" unicode="&#x3c;" horiz-adv-x="1191" 
d="M1131 240l-1071 200v520l1071 200v-370l-328 -38q-166 -19 -465 -42v-20q299 -23 465 -42l328 -38v-370z" />
    <glyph glyph-name="equal" unicode="=" horiz-adv-x="1191" 
d="M60 761v380h1071v-380h-1071zM60 261v380h1071v-380h-1071z" />
    <glyph glyph-name="greater" unicode="&#x3e;" horiz-adv-x="1191" 
d="M60 240v370l328 38q166 19 465 42v20q-299 23 -465 42l-328 38v370l1071 -200v-520z" />
    <glyph glyph-name="question" unicode="?" horiz-adv-x="1481" 
d="M487 499q-99 206 121 316l139 69q105 53 137.5 80t32.5 57q0 39 -38 60t-108 21q-114 0 -167 -54t-37 -154l-532 15q-34 252 154.5 386.5t583.5 134.5q330 0 504 -104t174 -309q0 -59 -17 -104t-53.5 -79.5t-78.5 -58.5t-106 -51l-152 -67q-74 -31 -109 -56.5t-38 -46.5
t5 -45l-5 -10h-410zM430 439h551v-439h-551v439z" />
    <glyph glyph-name="at" unicode="@" horiz-adv-x="2749" 
d="M1439 -490q-668 0 -1026 256t-358 733v2q0 482 346 740.5t989 258.5q629 0 966.5 -256t337.5 -733v-2q0 -270 -147.5 -404.5t-405.5 -134.5q-260 0 -398.5 66.5t-163.5 203.5h-20q-54 -135 -178.5 -202.5t-338.5 -67.5q-184 0 -292 81.5t-108 218.5v2q0 164 126.5 245
t386.5 117l326 45v27q0 43 -26.5 65.5t-76.5 22.5q-56 0 -82 -26t-22 -83h-620q-15 189 169.5 292t565.5 103q374 0 540.5 -93.5t166.5 -304.5v-338q0 -75 70 -75q118 0 118 240v2q0 332 -231.5 510.5t-662.5 178.5q-446 0 -685.5 -181t-239.5 -518v-2q0 -332 252 -510.5
t722 -178.5q467 0 796 99l42 -292q-368 -107 -838 -107zM1301 307q65 0 122.5 50t57.5 108v8l-92 -14q-158 -24 -158 -97v-2q0 -53 70 -53z" />
    <glyph glyph-name="A" unicode="A" horiz-adv-x="1728" 
d="M5 0l492 1400h733l493 -1400h-640l-39 142h-393l-39 -142h-607zM733 463h232l-51 219q-34 142 -55 288h-20q-19 -132 -56 -291z" />
    <glyph glyph-name="B" unicode="B" horiz-adv-x="1726" 
d="M75 0v1400h1122q232 0 345 -87t113 -266v-5q0 -251 -231 -306v-20q272 -62 272 -326v-4q0 -195 -115.5 -290.5t-352.5 -95.5h-1153zM695 877h231q113 0 113 87v4q0 87 -113 87h-231v-178zM695 345h241q117 0 117 100v4q0 94 -117 94h-241v-198z" />
    <glyph glyph-name="C" unicode="C" horiz-adv-x="1879" 
d="M951 -30q-453 0 -674.5 179.5t-221.5 548.5v4q0 368 221.5 548t674.5 180q421 0 638 -148.5t240 -452.5l-639 -59q-7 137 -66.5 204t-172.5 67q-130 0 -193 -81t-63 -247v-25q0 -166 63 -246.5t193 -80.5q214 0 236 268l640 -66q-28 -301 -244.5 -447t-631.5 -146z" />
    <glyph glyph-name="D" unicode="D" horiz-adv-x="1845" 
d="M75 0v1400h866q429 0 639 -172.5t210 -525.5v-4q0 -353 -210 -525.5t-639 -172.5h-866zM695 370h195q260 0 260 318v25q0 160 -64.5 238.5t-195.5 78.5h-195v-660z" />
    <glyph glyph-name="E" unicode="E" horiz-adv-x="1471" 
d="M695 360h756v-360h-1376v1400h1356v-360h-736v-175h695v-330h-695v-175z" />
    <glyph glyph-name="F" unicode="F" horiz-adv-x="1405" 
d="M75 0v1400h1315v-370h-695v-175h613v-340h-613v-515h-620z" />
    <glyph glyph-name="G" unicode="G" horiz-adv-x="1902" 
d="M732 -31q-342 0 -509.5 181.5t-167.5 552.5v4q0 366 221.5 544.5t674.5 178.5q404 0 617.5 -122t245.5 -371l-639 -75q-41 188 -224 188q-130 0 -193 -81t-63 -248v-25q0 -170 63 -253t193 -83q187 0 226 175h-279v280h934v-815h-506q-13 106 62 306l-27 11
q-173 -348 -629 -348z" />
    <glyph glyph-name="H" unicode="H" horiz-adv-x="1820" 
d="M1125 1400h620v-1400h-620v530h-430v-530h-620v1400h620v-470h430v470z" />
    <glyph glyph-name="I" unicode="I" horiz-adv-x="770" 
d="M75 1400h620v-1400h-620v1400z" />
    <glyph glyph-name="J" unicode="J" horiz-adv-x="1637" 
d="M809 -30q-414 0 -600.5 143.5t-178.5 470.5l619 76q3 -166 39.5 -238t120.5 -72q66 0 102 37t36 107v906h620v-938q0 -253 -186.5 -372.5t-571.5 -119.5z" />
    <glyph glyph-name="K" unicode="K" horiz-adv-x="1723" 
d="M75 0v1400h620v-173q0 -168 -43 -351l19 -10l393 534h635l-438 -536l457 -864h-652l-218 519l-153 -187v-332h-620z" />
    <glyph glyph-name="L" unicode="L" horiz-adv-x="1437" 
d="M75 0v1400h620v-990h697v-410h-1317z" />
    <glyph glyph-name="M" unicode="M" horiz-adv-x="2317" 
d="M75 0v1400h752l172 -409q94 -223 153 -427h21q57 197 153 427l169 409h747v-1400h-600v393q0 134 12 276l-20 4l-244 -673h-463l-243 673l-21 -4q12 -157 12 -276v-393h-600z" />
    <glyph glyph-name="N" unicode="N" horiz-adv-x="1813" 
d="M75 0v1400h635l286 -437q71 -111 138 -244l21 7q-17 149 -17 274v400h600v-1400h-637l-274 421q-82 126 -148 274l-20 -7q16 -161 16 -279v-409h-600z" />
    <glyph glyph-name="O" unicode="O" horiz-adv-x="1900" 
d="M950 -30q-452 0 -673.5 178.5t-221.5 544.5v4q0 370 221.5 551.5t673.5 181.5t673.5 -181.5t221.5 -551.5v-4q0 -366 -221.5 -544.5t-673.5 -178.5zM950 360q129 0 192 80t63 243v25q0 168 -63 250t-192 82t-192 -82t-63 -250v-25q0 -163 63 -243t192 -80z" />
    <glyph glyph-name="P" unicode="P" horiz-adv-x="1653" 
d="M1011 1400q315 0 463.5 -127.5t148.5 -391.5v-4q0 -264 -148.5 -391.5t-463.5 -127.5h-316v-358h-620v1400h936zM838 708q160 0 160 167v4q0 171 -160 171h-143v-342h143z" />
    <glyph glyph-name="Q" unicode="Q" horiz-adv-x="1900" 
d="M950 1430q452 0 673.5 -181.5t221.5 -551.5v-4q0 -324 -173.5 -501t-525.5 -213q-1 -34 22.5 -48.5t81.5 -16.5l333 -9l-55 -315q-429 3 -620 98t-141 290q-359 34 -535.5 211t-176.5 504v4q0 370 221.5 551.5t673.5 181.5zM1205 683v25q0 168 -63 250t-192 82t-192 -82
t-63 -250v-25q0 -163 63 -243t192 -80t192 80t63 243z" />
    <glyph glyph-name="R" unicode="R" horiz-adv-x="1736" 
d="M75 0v1400h975q314 0 467.5 -108t153.5 -329v-4q0 -159 -71 -242.5t-222 -111.5v-21q94 -21 142 -62.5t73 -138.5l35 -136q27 -105 46 -147.5t52 -68.5l-4 -31h-658q-18 31 -30.5 72t-28.5 128l-22 120q-16 92 -47.5 124.5t-110.5 32.5h-130v-477h-620zM695 797h200
q80 0 114.5 24.5t34.5 97.5v4q0 76 -34.5 101.5t-114.5 25.5h-200v-253z" />
    <glyph glyph-name="S" unicode="S" horiz-adv-x="1734" 
d="M854 -31q-245 0 -425.5 53.5t-279 159.5t-94.5 253l619 37q3 -80 59.5 -116.5t165.5 -36.5q85 0 125.5 17.5t40.5 56.5q0 28 -22.5 44.5t-81.5 31.5t-187 37l-246 42q-97 17 -176 48.5t-144 81.5t-101.5 126.5t-36.5 172.5q0 149 97.5 252t272.5 152t418 49
q372 0 580 -127.5t198 -334.5l-557 -43q-7 76 -62 115.5t-173 39.5q-89 0 -135 -20.5t-46 -55.5q0 -24 13.5 -37t70 -28.5t177.5 -35.5l246 -40q61 -10 106 -19t101 -25.5t96.5 -36.5t81.5 -50.5t66.5 -68t41.5 -89.5t16 -114q0 -155 -101.5 -266.5t-286.5 -168t-437 -56.5z
" />
    <glyph glyph-name="T" unicode="T" horiz-adv-x="1486" 
d="M433 0v980h-418v420h1456v-420h-418v-980h-620z" />
    <glyph glyph-name="U" unicode="U" horiz-adv-x="1776" 
d="M1086 1400h620v-897q0 -281 -198 -407.5t-615 -126.5q-422 0 -622.5 126.5t-200.5 407.5v897h620v-845q0 -107 49.5 -156t153.5 -49q99 0 146 48.5t47 156.5v845z" />
    <glyph glyph-name="V" unicode="V" horiz-adv-x="1708" 
d="M488 0l-483 1400h650l135 -534q49 -194 70 -381h20q22 180 72 381l133 534h618l-471 -1400h-744z" />
    <glyph glyph-name="W" unicode="W" horiz-adv-x="2539" 
d="M334 0l-324 1400h624l108 -594q38 -207 47 -364h21q29 186 72 364l141 594h510l157 -594q46 -175 66 -364h23q16 162 48 364l95 594h607l-311 -1400h-790l-74 336q-52 236 -73 438h-21q-21 -209 -71 -438l-74 -336h-781z" />
    <glyph glyph-name="X" unicode="X" horiz-adv-x="1845" 
d="M5 0l524 687l-504 713h671l142 -191q53 -72 90 -142h16q37 70 90 142l143 191h663l-530 -655l530 -745h-677l-162 236q-40 57 -81 144h-17q-34 -72 -82 -144l-159 -236h-657z" />
    <glyph glyph-name="Y" unicode="Y" horiz-adv-x="1732" 
d="M1727 1400l-551 -960v-440h-620v440l-551 960h644l107 -224q71 -150 112 -298h21q44 157 109 299l102 223h627z" />
    <glyph glyph-name="Z" unicode="Z" horiz-adv-x="1431" 
d="M24 0l-4 12l434 828q51 97 101 173l-10 20q-85 -3 -147 -3h-355v370h1345l4 -13l-396 -829q-40 -84 -92 -172l10 -20q60 4 159 4h338v-370h-1387z" />
    <glyph glyph-name="bracketleft" unicode="[" horiz-adv-x="865" 
d="M855 1110h-270v-970h270v-340h-780v1650h780v-340z" />
    <glyph glyph-name="backslash" unicode="\" horiz-adv-x="1080" 
d="M1080 -200h-530l-550 1650h530z" />
    <glyph glyph-name="bracketright" unicode="]" horiz-adv-x="865" 
d="M10 1110v340h780v-1650h-780v340h270v970h-270z" />
    <glyph glyph-name="asciicircum" unicode="^" horiz-adv-x="1473" 
d="M75 678l427 722h469l427 -722h-491l-58 111q-54 104 -97 220h-31q-47 -128 -96 -220l-58 -111h-492z" />
    <glyph glyph-name="underscore" unicode="_" horiz-adv-x="957" 
d="M0 -32h957v-315h-957v315z" />
    <glyph glyph-name="grave" unicode="`" horiz-adv-x="633" 
d="M510 1400l123 -272h-380l-253 272h510z" />
    <glyph glyph-name="a" unicode="a" horiz-adv-x="1631" 
d="M435 -30q-196 0 -303 79.5t-107 220.5v2q0 84 38 146.5t112.5 104t168.5 67.5t224 44l326 45v27q0 43 -26.5 65.5t-76.5 22.5q-56 0 -82 -26t-22 -83h-620q-15 189 169.5 292t565.5 103q374 0 540.5 -93.5t166.5 -304.5v-338q0 -35 13.5 -50t46.5 -15h42l-41 -289
q-117 -20 -228 -20q-92 0 -158 13t-105 35t-59.5 57t-26 72.5t-1.5 88.5l-20 4q-108 -270 -537 -270zM714 307q65 0 122.5 50t57.5 108v8l-92 -14q-158 -24 -158 -97v-2q0 -53 70 -53z" />
    <glyph glyph-name="b" unicode="b" horiz-adv-x="1668" 
d="M1102 -20q-318 0 -463 259l-19 -9q55 -155 55 -230h-615v1400h615v-259q0 -154 -55 -310l19 -10q147 259 463 259q261 0 388.5 -136.5t127.5 -416.5v-4q0 -275 -127.5 -409t-388.5 -134zM843 309q160 0 160 207v28q0 209 -160 209q-168 0 -168 -209v-28q0 -207 168 -207z
" />
    <glyph glyph-name="c" unicode="c" horiz-adv-x="1662" 
d="M839 -31q-399 0 -594 133.5t-195 405.5v46q0 266 195 396t594 130q385 0 573.5 -118.5t200.5 -362.5l-616 -39q-7 95 -43 138.5t-115 43.5q-164 0 -164 -197v-28q0 -208 164 -208q159 0 159 183l617 -35q-10 -247 -202 -367.5t-574 -120.5z" />
    <glyph glyph-name="d" unicode="d" horiz-adv-x="1668" 
d="M566 -20q-261 0 -388.5 134t-127.5 409v4q0 280 127.5 416.5t388.5 136.5q316 0 463 -259l19 10q-55 156 -55 310v259h615v-1400h-615q0 75 55 230l-19 9q-145 -259 -463 -259zM825 309q168 0 168 207v28q0 209 -168 209q-160 0 -160 -209v-28q0 -207 160 -207z" />
    <glyph glyph-name="e" unicode="e" horiz-adv-x="1683" 
d="M1633 556q0 -77 -10 -140h-935q18 -148 161 -148q126 0 145 104l627 -29q-25 -189 -216 -281t-556 -92q-404 0 -601.5 131t-197.5 400v46q0 269 197.5 401t601.5 132q397 0 590.5 -129.5t193.5 -394.5zM1004 652v4q0 127 -155 127q-132 0 -157 -131h312z" />
    <glyph glyph-name="f" unicode="f" horiz-adv-x="990" 
d="M140 0v710h-110v340h110v11q0 95 35 160.5t122.5 114t243.5 71.5t390 23l25 -306l-109 -8q-80 -6 -101.5 -17t-21.5 -44v-5h236v-340h-205v-710h-615z" />
    <glyph glyph-name="g" unicode="g" horiz-adv-x="1607" 
d="M1019 288q58 -3 106.5 -7t111.5 -14.5t112 -25.5t99.5 -40.5t83.5 -58.5t54 -81t21 -106q0 -126 -79.5 -197.5t-257.5 -104t-492 -32.5q-129 0 -224 2.5t-180 8.5t-143 16.5t-104.5 25.5t-73 37.5t-40 51t-13.5 66.5q0 75 57.5 115.5t190.5 53.5v27q-228 57 -228 200
q0 85 65.5 128t221.5 55v26q-237 86 -237 291q0 179 183 267t557 88q119 0 220 -9q-61 162 58.5 258.5t407.5 100.5l33 -318l-167 -6q-112 -4 -146 -16t-32 -41q363 -71 363 -324q0 -180 -182 -268t-555 -88q-147 0 -271 14q-39 -6 -39 -31q0 -26 53 -35.5t233 -17.5z
M810 814q-77 0 -111.5 -21t-34.5 -68q0 -48 34.5 -69t111.5 -21q76 0 109.5 21t33.5 69q0 47 -33.5 68t-109.5 21zM817 -101q125 0 195.5 1.5t104.5 7t41.5 11t7.5 17.5q0 11 -12.5 17.5t-49.5 11.5t-98.5 8.5t-165.5 6.5l-272 8q-54 2 -80 4q-40 -15 -40 -43q0 -36 62 -43
t307 -7z" />
    <glyph glyph-name="h" unicode="h" horiz-adv-x="1652" 
d="M60 0v1400h615v-309q0 -125 -66 -270l19 -11q96 133 224 196.5t311 63.5q212 0 323 -88t111 -264v-718h-615v539q0 72 -31.5 106.5t-97.5 34.5q-86 0 -132 -70t-46 -200v-410h-615z" />
    <glyph glyph-name="i" unicode="i" horiz-adv-x="735" 
d="M60 1110v290h615v-290h-615zM60 0v1050h615v-1050h-615z" />
    <glyph glyph-name="j" unicode="j" horiz-adv-x="735" 
d="M60 1110v290h615v-290h-615zM-116 -375l-29 330l96 8q69 6 89 28t20 82v977h615v-948q0 -103 -17.5 -178t-55.5 -132t-99.5 -91t-149.5 -55t-204.5 -24t-264.5 3z" />
    <glyph glyph-name="k" unicode="k" horiz-adv-x="1578" 
d="M60 0v1400h615v-277q0 -130 -11 -217.5t-42 -195.5l20 -10l289 350h629l-320 -379l338 -671h-625l-157 378l-121 -139v-239h-615z" />
    <glyph glyph-name="l" unicode="l" horiz-adv-x="735" 
d="M60 1400h615v-1400h-615v1400z" />
    <glyph glyph-name="m" unicode="m" horiz-adv-x="2493" 
d="M60 0v1050h605q6 -83 -56 -229l19 -11q106 139 225.5 199.5t290.5 60.5q331 0 361 -272l21 -4q113 147 234 211.5t290 64.5q388 0 388 -352v-718h-615v533q0 67 -26 97t-85 30q-75 0 -115.5 -62t-40.5 -177v-421h-615v533q0 67 -24.5 97t-79.5 30q-78 0 -120 -62
t-42 -177v-421h-615z" />
    <glyph glyph-name="n" unicode="n" horiz-adv-x="1652" 
d="M60 0v1050h605q3 -54 -9 -103t-47 -126l19 -12q96 133 224 197t311 64q212 0 323 -88t111 -264v-718h-615v539q0 72 -31.5 106.5t-97.5 34.5q-86 0 -132 -70t-46 -200v-410h-615z" />
    <glyph glyph-name="o" unicode="o" horiz-adv-x="1678" 
d="M839 -31q-399 0 -594 132t-195 403v41q0 271 195 403t594 132t594 -132t195 -403v-41q0 -271 -195 -403t-594 -132zM839 309q164 0 164 204v23q0 104 -40.5 154t-123.5 50t-123.5 -50t-40.5 -154v-23q0 -204 164 -204z" />
    <glyph glyph-name="p" unicode="p" horiz-adv-x="1668" 
d="M1102 1070q261 0 388.5 -134t127.5 -409v-4q0 -280 -127.5 -416.5t-388.5 -136.5q-316 0 -463 259l-19 -10q55 -156 55 -310v-259h-615v1400h615q0 -75 -55 -230l19 -9q145 259 463 259zM843 741q-168 0 -168 -207v-28q0 -209 168 -209q160 0 160 209v28q0 207 -160 207z
" />
    <glyph glyph-name="q" unicode="q" horiz-adv-x="1668" 
d="M566 1070q318 0 463 -259l19 9q-55 155 -55 230h615v-1400h-615v259q0 154 55 310l-19 10q-147 -259 -463 -259q-261 0 -388.5 136.5t-127.5 416.5v4q0 275 127.5 409t388.5 134zM825 741q-160 0 -160 -207v-28q0 -209 160 -209q168 0 168 209v28q0 207 -168 207z" />
    <glyph glyph-name="r" unicode="r" horiz-adv-x="1137" 
d="M60 0v1050h605q5 -93 -56 -227l19 -13q129 151 221.5 207.5t241.5 73.5l36 -467l-213 -12q-143 -8 -191 -73.5t-48 -250.5v-288h-615z" />
    <glyph glyph-name="s" unicode="s" horiz-adv-x="1546" 
d="M771 -20q-277 0 -438 38t-229 116.5t-64 210.5l596 -6q-5 -58 28 -86t105 -28q133 0 133 58q0 32 -56.5 49t-209.5 41l-185 28q-50 8 -81 13.5t-78 18t-76.5 26.5t-63.5 37t-53.5 51.5t-33 69.5t-13.5 91q0 182 167 277t531 95q387 0 557 -81.5t164 -251.5l-579 -2
q5 51 -30 73t-116 22q-103 0 -103 -52q0 -25 48 -39.5t188 -32.5l186 -24q51 -7 84.5 -12t84 -17.5t84.5 -27.5t72.5 -40.5t61.5 -57.5t38.5 -78.5t15.5 -102.5q0 -129 -71 -210.5t-234 -123.5t-430 -42z" />
    <glyph glyph-name="t" unicode="t" horiz-adv-x="1011" 
d="M583 -29q-224 0 -333.5 85.5t-109.5 260.5v393h-110v340h110v190l615 120v-310h226v-340h-226v-257q0 -57 25.5 -80t88.5 -23q65 0 122 15l-24 -342q-155 -52 -384 -52z" />
    <glyph glyph-name="u" unicode="u" horiz-adv-x="1652" 
d="M1592 1050v-1050h-605q-3 54 9 103t47 126l-19 12q-96 -133 -224 -197t-311 -64q-212 0 -323 88t-111 264v718h615v-539q0 -72 31.5 -106.5t97.5 -34.5q86 0 132 70t46 200v410h615z" />
    <glyph glyph-name="v" unicode="v" horiz-adv-x="1628" 
d="M389 0l-389 1050h625l126 -407q38 -119 65 -263h20q27 140 64 263l121 407h607l-387 -1050h-852z" />
    <glyph glyph-name="w" unicode="w" horiz-adv-x="2130" 
d="M283 0l-283 1050h562l86 -455q19 -102 29 -215h20q11 124 29 218l82 452h530l94 -450q21 -106 31 -220h21q7 103 26 215l74 455h546l-281 -1050h-688l-48 306q-26 165 -40 326h-20q-10 -152 -37 -326l-45 -306h-688z" />
    <glyph glyph-name="x" unicode="x" horiz-adv-x="1556" 
d="M0 0l395 519l-375 531h655l56 -104q23 -42 46 -97h16q23 54 45 94l62 107h636l-381 -493l401 -557h-665l-66 114q-20 34 -46 91h-16q-16 -36 -47 -89l-71 -116h-645z" />
    <glyph glyph-name="y" unicode="y" horiz-adv-x="1628" 
d="M115 -380l-32 342l137 7q175 9 214 52l20 22l-454 1007h623l118 -399q42 -142 75 -312h20q29 157 73 312l112 399h607l-236 -614q-50 -131 -95.5 -228t-100.5 -179.5t-108.5 -138.5t-129 -101.5t-152.5 -73t-188 -47.5t-226.5 -30.5t-276.5 -17.5z" />
    <glyph glyph-name="z" unicode="z" horiz-adv-x="1320" 
d="M29 0l-9 22l339 539q45 70 93 133l-10 20q-67 -4 -140 -4h-251v340h1232l9 -22l-332 -524q-55 -85 -105 -149l10 -20q76 5 178 5h257v-340h-1271z" />
    <glyph glyph-name="braceleft" unicode="{" horiz-adv-x="970" 
d="M960 1110h-160q-130 0 -130 -120v-155q0 -155 -140 -200v-20q140 -45 140 -200v-155q0 -120 130 -120h160v-340h-395q-205 0 -305 88t-100 267v160q0 130 -130 160v300q130 30 130 160v160q0 179 100 267t305 88h395v-340z" />
    <glyph glyph-name="bar" unicode="|" horiz-adv-x="650" 
d="M75 -200v1650h500v-1650h-500z" />
    <glyph glyph-name="braceright" unicode="}" horiz-adv-x="970" 
d="M10 1110v340h395q205 0 305 -88t100 -267v-160q0 -130 130 -160v-300q-130 -30 -130 -160v-160q0 -179 -100 -267t-305 -88h-395v340h160q130 0 130 120v155q0 155 140 200v20q-140 45 -140 200v155q0 120 -130 120h-160z" />
    <glyph glyph-name="asciitilde" unicode="~" horiz-adv-x="1293" 
d="M923 456q-76 0 -170 25t-172 50.5t-116 25.5q-86 0 -95 -96h-310q2 244 82.5 363.5t241.5 119.5q79 0 170 -25t165.5 -50.5t114.5 -25.5q80 0 89 96h310q-4 -244 -81 -363.5t-229 -119.5z" />
    <glyph glyph-name="exclamdown" unicode="&#xa1;" horiz-adv-x="675" 
d="M613 611h-551v439h551v-439zM615 -350h-555l43 901h469z" />
    <glyph glyph-name="cent" unicode="&#xa2;" horiz-adv-x="1662" 
d="M1615 457q-16 -398 -516 -471v-226h-520v226q-267 39 -398 168.5t-131 353.5v46q0 219 131 345.5t398 163.5v227h520v-226q252 -36 378 -151t136 -314l-616 -39q-7 95 -43 138.5t-115 43.5q-164 0 -164 -197v-28q0 -208 164 -208q159 0 159 183z" />
    <glyph glyph-name="sterling" unicode="&#xa3;" horiz-adv-x="1705" 
d="M20 0v300q83 32 116.5 73t33.5 113v34h-143v340h143v116q0 230 182 342t555 112q387 0 574.5 -111.5t183.5 -340.5l-607 -38q-1 130 -140 130q-138 0 -138 -128v-82h819v-340h-819v-14q0 -60 -39 -125l7 -15q69 4 145 4h792v-370h-1665z" />
    <glyph glyph-name="currency" unicode="&#xa4;" horiz-adv-x="1280" 
d="M251 80l-231 231l189 189q-40 92 -40 200t40 200l-189 189l231 231l189 -189q92 40 200 40t200 -40l189 189l231 -231l-189 -189q40 -92 40 -200t-40 -200l189 -189l-231 -231l-189 189q-92 -40 -200 -40t-200 40zM640 579q52 0 86.5 34.5t34.5 86.5t-34.5 86.5
t-86.5 34.5t-86.5 -34.5t-34.5 -86.5t34.5 -86.5t86.5 -34.5z" />
    <glyph glyph-name="yen" unicode="&#xa5;" horiz-adv-x="1732" 
d="M1727 1400l-434 -756h211v-230h-328v-70h328v-230h-328v-114h-620v114h-327v230h327v70h-327v230h210l-434 756h644l107 -224q71 -150 112 -298h21q44 157 109 299l102 223h627z" />
    <glyph glyph-name="brokenbar" unicode="&#xa6;" horiz-adv-x="650" 
d="M75 705v745h500v-745h-500zM575 545v-745h-500v745h500z" />
    <glyph glyph-name="section" unicode="&#xa7;" horiz-adv-x="1736" 
d="M886 -30q-425 0 -630.5 97.5t-200.5 297.5l596 -5q-4 -61 55.5 -88t195.5 -27q94 0 134.5 10.5t40.5 35.5q0 28 -60.5 46t-229.5 36l-232 25q-57 6 -100.5 12t-97 17.5t-92.5 25t-78.5 34.5t-64 47.5t-40 63t-15.5 80.5q0 131 154 193v20q-144 68 -144 207q0 168 195 250
t593 82q401 0 594 -89.5t187 -273.5l-579 -2q3 50 -45.5 72.5t-160.5 22.5q-102 0 -147.5 -10t-45.5 -32q0 -29 58.5 -41t264.5 -33l249 -25q80 -8 141.5 -19.5t120 -33t96.5 -51t60.5 -75t22.5 -104.5q0 -133 -132 -186v-20q132 -76 132 -214q0 -175 -196.5 -260.5
t-598.5 -85.5zM1034 652q33 14 33 39q0 20 -15 33t-60.5 24.5t-111 20.5t-183.5 21q-29 -12 -29 -38q0 -42 72 -61t294 -39z" />
    <glyph glyph-name="dieresis" unicode="&#xa8;" horiz-adv-x="1150" 
d="M0 1120v280h535v-280h-535zM615 1120v280h535v-280h-535z" />
    <glyph glyph-name="copyright" unicode="&#xa9;" horiz-adv-x="2750" 
d="M1375 -451q-637 0 -978.5 252.5t-341.5 722.5v1q0 470 341.5 722.5t978.5 252.5t978.5 -252.5t341.5 -722.5v-1q0 -470 -341.5 -722.5t-978.5 -252.5zM1375 -151q439 0 674.5 175t235.5 500v1q0 325 -235.5 500t-674.5 175t-674.5 -175t-235.5 -500v-1q0 -325 235.5 -500
t674.5 -175zM1381 -31q-399 0 -594 133.5t-195 405.5v46q0 266 195 396t594 130q385 0 573.5 -118.5t200.5 -362.5l-616 -39q-7 95 -43 138.5t-115 43.5q-164 0 -164 -197v-28q0 -208 164 -208q159 0 159 183l617 -35q-10 -247 -202 -367.5t-574 -120.5z" />
    <glyph glyph-name="guillemotleft" unicode="&#xab;" horiz-adv-x="1645" 
d="M398 100l-348 425l351 425h524l-336 -425l336 -425h-527zM1068 100l-348 425l351 425h524l-336 -425l336 -425h-527z" />
    <glyph glyph-name="logicalnot" unicode="&#xac;" horiz-adv-x="1191" 
d="M721 330v300h-661v380h1071v-680h-410z" />
    <glyph glyph-name="registered" unicode="&#xae;" horiz-adv-x="1620" 
d="M810 240q-364 0 -559.5 151.5t-195.5 432.5v2q0 281 195.5 432.5t559.5 151.5t559.5 -151.5t195.5 -432.5v-2q0 -281 -195.5 -432.5t-559.5 -151.5zM810 465q235 0 350 88.5t115 270.5v2q0 182 -115 270.5t-350 88.5t-350 -88.5t-115 -270.5v-2q0 -182 115 -270.5
t350 -88.5zM480 566v532h484q188 0 188 -151v-1q0 -55 -30 -83.5t-98 -35.5v-14q46 -9 62.5 -27.5t29.5 -65.5l16 -58q18 -64 27 -78l-8 -18h-235q-14 19 -26 72l-9 41q-7 33 -18 43t-47 10h-88v-166h-248zM728 870h132q46 0 46 36v1q0 35 -46 35h-132v-72z" />
    <glyph glyph-name="macron" unicode="&#xaf;" horiz-adv-x="915" 
d="M0 1125v275h915v-275h-915z" />
    <glyph glyph-name="degree" unicode="&#xb0;" horiz-adv-x="1170" 
d="M585 554q-245 0 -390 117t-145 315v2q0 198 145 315t390 117t390 -117t145 -315v-2q0 -198 -145 -315t-390 -117zM585 857q82 0 126 33.5t44 95.5v2q0 62 -44 95.5t-126 33.5t-126 -33.5t-44 -95.5v-2q0 -62 44 -95.5t126 -33.5z" />
    <glyph glyph-name="plusminus" unicode="&#xb1;" horiz-adv-x="1251" 
d="M441 496v265h-381v360h381v266h370v-266h380v-360h-380v-265h-370zM60 56v360h1131v-360h-1131z" />
    <glyph glyph-name="acute" unicode="&#xb4;" horiz-adv-x="633" 
d="M123 1400h510l-253 -272h-380z" />
    <glyph glyph-name="paragraph" unicode="&#xb6;" horiz-adv-x="2086" 
d="M586 -350v750q-256 0 -393.5 130t-137.5 371q0 244 145.5 371.5t435.5 127.5h1395v-420h-250v-1330h-465v1330h-265v-1330h-465z" />
    <glyph glyph-name="periodcentered" unicode="&#xb7;" horiz-adv-x="671" 
d="M60 760h551v-439h-551v439z" />
    <glyph glyph-name="cedilla" unicode="&#xb8;" horiz-adv-x="558" 
d="M254 -380q-128 0 -254 49l30 172q89 -36 170 -36q54 0 54 26t-50 35.5t-166 11.5l23 132h251l-18 -77q134 -5 199 -38t65 -106q0 -169 -304 -169z" />
    <glyph glyph-name="guillemotright" unicode="&#xbb;" horiz-adv-x="1645" 
d="M577 100h-527l336 425l-336 425h524l351 -425zM1247 100h-527l336 425l-336 425h524l351 -425z" />
    <glyph glyph-name="onequarter" unicode="&#xbc;" horiz-adv-x="2518" 
d="M729 0l750 1400h420l-750 -1400h-420zM57 589v251h270v192h-251v217q72 1 115.5 3.5t80 9.5t54 15.5t31.5 27.5t19 38.5t10 55.5h303v-559h203v-251h-835zM2047 0v124h-450v196l320 490h483v-465h90v-221h-90v-124h-353zM1911 345h136v98q0 58 6 136l-20 3
q-24 -55 -44 -92z" />
    <glyph glyph-name="onehalf" unicode="&#xbd;" horiz-adv-x="2598" 
d="M729 0l750 1400h420l-750 -1400h-420zM57 589v251h270v192h-251v217q72 1 115.5 3.5t80 9.5t54 15.5t31.5 27.5t19 38.5t10 55.5h303v-559h203v-251h-835zM1677 0v230q520 178 520 307q0 56 -63 56q-89 0 -84 -126l-368 18q-10 174 104 259t350 85q434 0 434 -250
q0 -133 -107 -214t-308 -106l1 -12q68 4 118 4h280v-251h-877z" />
    <glyph glyph-name="threequarters" unicode="&#xbe;" horiz-adv-x="2488" 
d="M481 569q-473 -2 -461 293l372 27q-1 -100 88 -100q74 0 74 54v1q0 62 -84 66l-52 3v168l52 4q77 6 77 55v5q0 52 -71 52q-87 0 -83 -97l-362 23q-1 147 117.5 220.5t344.5 73.5q215 0 313 -57.5t98 -178.5v-6q0 -117 -138 -164v-11q163 -44 163 -195v-3
q0 -118 -109.5 -175t-338.5 -58zM699 0l750 1400h420l-750 -1400h-420zM2017 0v124h-450v196l320 490h483v-465h90v-221h-90v-124h-353zM1881 345h136v98q0 58 6 136l-20 3q-24 -55 -44 -92z" />
    <glyph glyph-name="questiondown" unicode="&#xbf;" horiz-adv-x="1481" 
d="M1051 611h-551v439h551v-439zM994 551q99 -206 -121 -316l-139 -69q-105 -53 -137.5 -80t-32.5 -57q0 -39 38 -60t108 -21q114 0 167 54t37 154l532 -15q34 -252 -154.5 -386.5t-583.5 -134.5q-330 0 -504 104t-174 309q0 59 17 104t53.5 79.5t78.5 58.5t106 51l152 67
q74 31 109 56.5t38 46.5t-5 45l5 10h410z" />
    <glyph glyph-name="Agrave" unicode="&#xc0;" horiz-adv-x="1728" 
d="M1072 1478h-410l-193 242h510zM5 0l492 1400h733l493 -1400h-640l-39 142h-393l-39 -142h-607zM733 463h232l-51 219q-34 142 -55 288h-20q-19 -132 -56 -291z" />
    <glyph glyph-name="Aacute" unicode="&#xc1;" horiz-adv-x="1728" 
d="M656 1478l93 242h510l-193 -242h-410zM5 0l492 1400h733l493 -1400h-640l-39 142h-393l-39 -142h-607zM733 463h232l-51 219q-34 142 -55 288h-20q-19 -132 -56 -291z" />
    <glyph glyph-name="Acircumflex" unicode="&#xc2;" horiz-adv-x="1728" 
d="M363 1478l207 242h580l207 -242h-390l-102 80l-102 -80h-400zM5 0l492 1400h733l493 -1400h-640l-39 142h-393l-39 -142h-607zM733 463h232l-51 219q-34 142 -55 288h-20q-19 -132 -56 -291z" />
    <glyph glyph-name="Atilde" unicode="&#xc3;" horiz-adv-x="1728" 
d="M1070 1469q-85 0 -169 19.5t-145 39.5t-90 20t-46 -16t-23 -53h-280q0 154 87 231t243 77q69 0 138.5 -12.5t115 -27t90 -27t69.5 -12.5q30 0 47 15.5t23 53.5h280q0 -155 -88.5 -231.5t-251.5 -76.5zM5 0l492 1400h733l493 -1400h-640l-39 142h-393l-39 -142h-607z
M733 463h232l-51 219q-34 142 -55 288h-20q-19 -132 -56 -291z" />
    <glyph glyph-name="Adieresis" unicode="&#xc4;" horiz-adv-x="1728" 
d="M289 1480v280h535v-280h-535zM904 1480v280h535v-280h-535zM5 0l492 1400h733l493 -1400h-640l-39 142h-393l-39 -142h-607zM733 463h232l-51 219q-34 142 -55 288h-20q-19 -132 -56 -291z" />
    <glyph glyph-name="Aring" unicode="&#xc5;" horiz-adv-x="1728" 
d="M864 1450q-155 0 -237.5 49.5t-82.5 141.5t83 141t237 49t237 -49t83 -141t-82.5 -141.5t-237.5 -49.5zM864 1592q69 0 69 49q0 48 -69 48t-69 -48q0 -49 69 -49zM5 0l492 1400h733l493 -1400h-640l-39 142h-393l-39 -142h-607zM733 463h232l-51 219q-34 142 -55 288h-20
q-19 -132 -56 -291z" />
    <glyph glyph-name="AE" unicode="&#xc6;" horiz-adv-x="2350" 
d="M5 0l672 1400h1633v-360h-636v-175h595v-330h-595v-175h656v-360h-1276v142h-381l-61 -142h-607zM803 452h251v588h-23q-29 -96 -76 -216z" />
    <glyph glyph-name="Ccedilla" unicode="&#xc7;" horiz-adv-x="1879" 
d="M951 361q214 0 236 268l640 -66q-26 -280 -215.5 -425.5t-549.5 -164.5l-9 -40q134 -5 199 -38t65 -106q0 -169 -304 -169q-128 0 -254 49l30 172q89 -36 170 -36q54 0 54 26t-50 35.5t-166 11.5l17 96q-383 26 -571 205t-188 519v4q0 368 221.5 548t674.5 180
q421 0 638 -148.5t240 -452.5l-639 -59q-7 137 -66.5 204t-172.5 67q-130 0 -193 -81t-63 -247v-25q0 -166 63 -246.5t193 -80.5z" />
    <glyph glyph-name="Egrave" unicode="&#xc8;" horiz-adv-x="1471" 
d="M969 1478h-410l-193 242h510zM695 360h756v-360h-1376v1400h1356v-360h-736v-175h695v-330h-695v-175z" />
    <glyph glyph-name="Eacute" unicode="&#xc9;" horiz-adv-x="1471" 
d="M553 1478l93 242h510l-193 -242h-410zM695 360h756v-360h-1376v1400h1356v-360h-736v-175h695v-330h-695v-175z" />
    <glyph glyph-name="Ecircumflex" unicode="&#xca;" horiz-adv-x="1471" 
d="M260 1478l207 242h580l207 -242h-390l-102 80l-102 -80h-400zM695 360h756v-360h-1376v1400h1356v-360h-736v-175h695v-330h-695v-175z" />
    <glyph glyph-name="Edieresis" unicode="&#xcb;" horiz-adv-x="1471" 
d="M186 1480v280h535v-280h-535zM801 1480v280h535v-280h-535zM695 360h756v-360h-1376v1400h1356v-360h-736v-175h695v-330h-695v-175z" />
    <glyph glyph-name="Igrave" unicode="&#xcc;" horiz-adv-x="770" 
d="M593 1478h-410l-193 242h510zM75 1400h620v-1400h-620v1400z" />
    <glyph glyph-name="Iacute" unicode="&#xcd;" horiz-adv-x="770" 
d="M177 1478l93 242h510l-193 -242h-410zM75 1400h620v-1400h-620v1400z" />
    <glyph glyph-name="Icircumflex" unicode="&#xce;" horiz-adv-x="770" 
d="M14 1478l147 241h450l147 -241h-290l-82 83l-82 -83h-290zM75 1400h620v-1400h-620v1400z" />
    <glyph glyph-name="Idieresis" unicode="&#xcf;" horiz-adv-x="770" 
d="M30 1475v290h325v-290h-325zM415 1475v290h325v-290h-325zM75 1400h620v-1400h-620v1400z" />
    <glyph glyph-name="Eth" unicode="&#xd0;" horiz-adv-x="1845" 
d="M941 1400q429 0 639 -172.5t210 -525.5v-4q0 -353 -210 -525.5t-639 -172.5h-866v550h-80v320h80v530h866zM1150 688v25q0 160 -64.5 238.5t-195.5 78.5h-195v-160h221v-320h-221v-180h195q260 0 260 318z" />
    <glyph glyph-name="Ntilde" unicode="&#xd1;" horiz-adv-x="1813" 
d="M1113 1469q-85 0 -169 19.5t-145 39.5t-90 20t-46 -16t-23 -53h-280q0 154 87 231t243 77q69 0 138.5 -12.5t115 -27t90 -27t69.5 -12.5q30 0 47 15.5t23 53.5h280q0 -155 -88.5 -231.5t-251.5 -76.5zM75 0v1400h635l286 -437q71 -111 138 -244l21 7q-17 149 -17 274v400
h600v-1400h-637l-274 421q-82 126 -148 274l-20 -7q16 -161 16 -279v-409h-600z" />
    <glyph glyph-name="Ograve" unicode="&#xd2;" horiz-adv-x="1900" 
d="M1158 1478h-410l-193 242h510zM950 -30q-452 0 -673.5 178.5t-221.5 544.5v4q0 370 221.5 551.5t673.5 181.5t673.5 -181.5t221.5 -551.5v-4q0 -366 -221.5 -544.5t-673.5 -178.5zM950 360q129 0 192 80t63 243v25q0 168 -63 250t-192 82t-192 -82t-63 -250v-25
q0 -163 63 -243t192 -80z" />
    <glyph glyph-name="Oacute" unicode="&#xd3;" horiz-adv-x="1900" 
d="M742 1478l93 242h510l-193 -242h-410zM950 -30q-452 0 -673.5 178.5t-221.5 544.5v4q0 370 221.5 551.5t673.5 181.5t673.5 -181.5t221.5 -551.5v-4q0 -366 -221.5 -544.5t-673.5 -178.5zM950 360q129 0 192 80t63 243v25q0 168 -63 250t-192 82t-192 -82t-63 -250v-25
q0 -163 63 -243t192 -80z" />
    <glyph glyph-name="Ocircumflex" unicode="&#xd4;" horiz-adv-x="1900" 
d="M449 1478l207 242h580l207 -242h-390l-102 80l-102 -80h-400zM950 -30q-452 0 -673.5 178.5t-221.5 544.5v4q0 370 221.5 551.5t673.5 181.5t673.5 -181.5t221.5 -551.5v-4q0 -366 -221.5 -544.5t-673.5 -178.5zM950 360q129 0 192 80t63 243v25q0 168 -63 250t-192 82
t-192 -82t-63 -250v-25q0 -163 63 -243t192 -80z" />
    <glyph glyph-name="Otilde" unicode="&#xd5;" horiz-adv-x="1900" 
d="M1156 1469q-85 0 -169 19.5t-145 39.5t-90 20t-46 -16t-23 -53h-280q0 154 87 231t243 77q69 0 138.5 -12.5t115 -27t90 -27t69.5 -12.5q30 0 47 15.5t23 53.5h280q0 -155 -88.5 -231.5t-251.5 -76.5zM950 -30q-452 0 -673.5 178.5t-221.5 544.5v4q0 370 221.5 551.5
t673.5 181.5t673.5 -181.5t221.5 -551.5v-4q0 -366 -221.5 -544.5t-673.5 -178.5zM950 360q129 0 192 80t63 243v25q0 168 -63 250t-192 82t-192 -82t-63 -250v-25q0 -163 63 -243t192 -80z" />
    <glyph glyph-name="Odieresis" unicode="&#xd6;" horiz-adv-x="1900" 
d="M375 1480v280h535v-280h-535zM990 1480v280h535v-280h-535zM950 -30q-452 0 -673.5 178.5t-221.5 544.5v4q0 370 221.5 551.5t673.5 181.5t673.5 -181.5t221.5 -551.5v-4q0 -366 -221.5 -544.5t-673.5 -178.5zM950 360q129 0 192 80t63 243v25q0 168 -63 250t-192 82
t-192 -82t-63 -250v-25q0 -163 63 -243t192 -80z" />
    <glyph glyph-name="multiply" unicode="&#xd7;" horiz-adv-x="1175" 
d="M304 162l-254 255l283 283l-269 270l254 254l270 -269l283 283l254 -255l-283 -283l269 -270l-254 -254l-269 270z" />
    <glyph glyph-name="Oslash" unicode="&#xd8;" horiz-adv-x="1920" 
d="M1644 1229q221 -189 221 -532v-4q0 -349 -234 -536t-671 -187q-219 0 -392 49l-106 -119h-427l239 269q-219 188 -219 524v4q0 353 234.5 543t670.5 190q219 0 392 -50l106 120h427zM675 683q0 -31 3 -60l370 416q-42 11 -88 11q-137 0 -211 -88.5t-74 -253.5v-25z
M1245 683v25q0 40 -4 68l-369 -415q42 -11 88 -11q137 0 211 86.5t74 246.5z" />
    <glyph glyph-name="Ugrave" unicode="&#xd9;" horiz-adv-x="1776" 
d="M1096 1478h-410l-193 242h510zM1086 1400h620v-897q0 -281 -198 -407.5t-615 -126.5q-422 0 -622.5 126.5t-200.5 407.5v897h620v-845q0 -107 49.5 -156t153.5 -49q99 0 146 48.5t47 156.5v845z" />
    <glyph glyph-name="Uacute" unicode="&#xda;" horiz-adv-x="1776" 
d="M680 1478l93 242h510l-193 -242h-410zM1086 1400h620v-897q0 -281 -198 -407.5t-615 -126.5q-422 0 -622.5 126.5t-200.5 407.5v897h620v-845q0 -107 49.5 -156t153.5 -49q99 0 146 48.5t47 156.5v845z" />
    <glyph glyph-name="Ucircumflex" unicode="&#xdb;" horiz-adv-x="1776" 
d="M387 1478l207 242h580l207 -242h-390l-102 80l-102 -80h-400zM1086 1400h620v-897q0 -281 -198 -407.5t-615 -126.5q-422 0 -622.5 126.5t-200.5 407.5v897h620v-845q0 -107 49.5 -156t153.5 -49q99 0 146 48.5t47 156.5v845z" />
    <glyph glyph-name="Udieresis" unicode="&#xdc;" horiz-adv-x="1776" 
d="M313 1480v280h535v-280h-535zM928 1480v280h535v-280h-535zM1086 1400h620v-897q0 -281 -198 -407.5t-615 -126.5q-422 0 -622.5 126.5t-200.5 407.5v897h620v-845q0 -107 49.5 -156t153.5 -49q99 0 146 48.5t47 156.5v845z" />
    <glyph glyph-name="Yacute" unicode="&#xdd;" horiz-adv-x="1732" 
d="M658 1478l93 242h510l-193 -242h-410zM1727 1400l-551 -960v-440h-620v440l-551 960h644l107 -224q71 -150 112 -298h21q44 157 109 299l102 223h627z" />
    <glyph glyph-name="Thorn" unicode="&#xde;" horiz-adv-x="1653" 
d="M75 0v1400h620v-170h316q315 0 463.5 -127.5t148.5 -391.5v-4q0 -264 -148.5 -391.5t-463.5 -127.5h-316v-188h-620zM695 538h143q160 0 160 167v4q0 171 -160 171h-143v-342z" />
    <glyph glyph-name="germandbls" unicode="&#xdf;" horiz-adv-x="1621" 
d="M1016 -14q-105 0 -245 27l18 341q40 -9 79 -9q74 0 74 56q0 40 -52 119l-41 62q-64 97 -64 176q0 39 20 78.5t44 66t44 58.5t20 58q0 80 -107 80q-131 0 -131 -138v-961h-615v940q0 248 181 369t551 121q372 0 554 -75.5t182 -230.5q0 -53 -24 -106t-52.5 -88.5
t-52.5 -79.5t-24 -82q0 -64 67 -149l55 -70q84 -107 84 -213q0 -177 -148.5 -263.5t-416.5 -86.5z" />
    <glyph glyph-name="agrave" unicode="&#xe0;" horiz-adv-x="1631" 
d="M897 1400l123 -272h-380l-253 272h510zM435 -30q-196 0 -303 79.5t-107 220.5v2q0 84 38 146.5t112.5 104t168.5 67.5t224 44l326 45v27q0 43 -26.5 65.5t-76.5 22.5q-56 0 -82 -26t-22 -83h-620q-15 189 169.5 292t565.5 103q374 0 540.5 -93.5t166.5 -304.5v-338
q0 -35 13.5 -50t46.5 -15h42l-41 -289q-117 -20 -228 -20q-92 0 -158 13t-105 35t-59.5 57t-26 72.5t-1.5 88.5l-20 4q-108 -270 -537 -270zM714 307q65 0 122.5 50t57.5 108v8l-92 -14q-158 -24 -158 -97v-2q0 -53 70 -53z" />
    <glyph glyph-name="aacute" unicode="&#xe1;" horiz-adv-x="1631" 
d="M727 1400h510l-253 -272h-380zM435 -30q-196 0 -303 79.5t-107 220.5v2q0 84 38 146.5t112.5 104t168.5 67.5t224 44l326 45v27q0 43 -26.5 65.5t-76.5 22.5q-56 0 -82 -26t-22 -83h-620q-15 189 169.5 292t565.5 103q374 0 540.5 -93.5t166.5 -304.5v-338
q0 -35 13.5 -50t46.5 -15h42l-41 -289q-117 -20 -228 -20q-92 0 -158 13t-105 35t-59.5 57t-26 72.5t-1.5 88.5l-20 4q-108 -270 -537 -270zM714 307q65 0 122.5 50t57.5 108v8l-92 -14q-158 -24 -158 -97v-2q0 -53 70 -53z" />
    <glyph glyph-name="acircumflex" unicode="&#xe2;" horiz-adv-x="1631" 
d="M331 1128l217 272h530l217 -272h-380l-102 80l-102 -80h-380zM435 -30q-196 0 -303 79.5t-107 220.5v2q0 84 38 146.5t112.5 104t168.5 67.5t224 44l326 45v27q0 43 -26.5 65.5t-76.5 22.5q-56 0 -82 -26t-22 -83h-620q-15 189 169.5 292t565.5 103q374 0 540.5 -93.5
t166.5 -304.5v-338q0 -35 13.5 -50t46.5 -15h42l-41 -289q-117 -20 -228 -20q-92 0 -158 13t-105 35t-59.5 57t-26 72.5t-1.5 88.5l-20 4q-108 -270 -537 -270zM714 307q65 0 122.5 50t57.5 108v8l-92 -14q-158 -24 -158 -97v-2q0 -53 70 -53z" />
    <glyph glyph-name="atilde" unicode="&#xe3;" horiz-adv-x="1631" 
d="M1028 1142q-76 0 -158 20t-144 39.5t-92 19.5q-29 0 -46 -16t-23 -53h-300q0 160 85 254t235 94q79 0 162.5 -20t147 -39.5t93.5 -19.5t47 15.5t23 53.5h300q0 -161 -86.5 -254.5t-243.5 -93.5zM435 -30q-196 0 -303 79.5t-107 220.5v2q0 84 38 146.5t112.5 104
t168.5 67.5t224 44l326 45v27q0 43 -26.5 65.5t-76.5 22.5q-56 0 -82 -26t-22 -83h-620q-15 189 169.5 292t565.5 103q374 0 540.5 -93.5t166.5 -304.5v-338q0 -35 13.5 -50t46.5 -15h42l-41 -289q-117 -20 -228 -20q-92 0 -158 13t-105 35t-59.5 57t-26 72.5t-1.5 88.5
l-20 4q-108 -270 -537 -270zM714 307q65 0 122.5 50t57.5 108v8l-92 -14q-158 -24 -158 -97v-2q0 -53 70 -53z" />
    <glyph glyph-name="adieresis" unicode="&#xe4;" horiz-adv-x="1631" 
d="M237 1120v280h535v-280h-535zM852 1120v280h535v-280h-535zM435 -30q-196 0 -303 79.5t-107 220.5v2q0 84 38 146.5t112.5 104t168.5 67.5t224 44l326 45v27q0 43 -26.5 65.5t-76.5 22.5q-56 0 -82 -26t-22 -83h-620q-15 189 169.5 292t565.5 103q374 0 540.5 -93.5
t166.5 -304.5v-338q0 -35 13.5 -50t46.5 -15h42l-41 -289q-117 -20 -228 -20q-92 0 -158 13t-105 35t-59.5 57t-26 72.5t-1.5 88.5l-20 4q-108 -270 -537 -270zM714 307q65 0 122.5 50t57.5 108v8l-92 -14q-158 -24 -158 -97v-2q0 -53 70 -53z" />
    <glyph glyph-name="aring" unicode="&#xe5;" horiz-adv-x="1631" 
d="M812 1120q-135 0 -215 69t-80 186t80 186t215 69t215 -69t80 -186t-80 -186t-215 -69zM812 1310q28 0 46.5 18t18.5 47t-18.5 47t-46.5 18t-46.5 -18t-18.5 -47t18.5 -47t46.5 -18zM435 -30q-196 0 -303 79.5t-107 220.5v2q0 84 38 146.5t112.5 104t168.5 67.5t224 44
l326 45v27q0 43 -26.5 65.5t-76.5 22.5q-56 0 -82 -26t-22 -83h-620q-15 189 169.5 292t565.5 103q374 0 540.5 -93.5t166.5 -304.5v-338q0 -35 13.5 -50t46.5 -15h42l-41 -289q-117 -20 -228 -20q-92 0 -158 13t-105 35t-59.5 57t-26 72.5t-1.5 88.5l-20 4
q-108 -270 -537 -270zM714 307q65 0 122.5 50t57.5 108v8l-92 -14q-158 -24 -158 -97v-2q0 -53 70 -53z" />
    <glyph glyph-name="ae" unicode="&#xe6;" horiz-adv-x="2487" 
d="M2437 556q0 -77 -10 -140h-915q18 -148 161 -148q50 0 82.5 26.5t42.5 77.5l627 -29q-50 -373 -752 -373q-563 0 -659 280h-22q-137 -280 -557 -280q-196 0 -303 79.5t-107 220.5v2q0 84 38 146.5t112.5 104t168.5 67.5t224 44l326 45v27q0 43 -26.5 65.5t-76.5 22.5
q-56 0 -82 -26t-22 -83h-620q-15 188 157.5 291.5t517.5 103.5q153 0 284 -37.5t208 -97.5q78 60 208.5 97.5t290.5 37.5q342 0 523 -131.5t181 -392.5zM1808 652v4q0 127 -135 127q-132 0 -157 -131h292zM894 465v8l-92 -14q-158 -24 -158 -97v-2q0 -53 70 -53
q65 0 122.5 50t57.5 108z" />
    <glyph glyph-name="ccedilla" unicode="&#xe7;" horiz-adv-x="1662" 
d="M1615 457q-10 -228 -174.5 -348.5t-490.5 -136.5l-9 -39q134 -5 199 -38t65 -106q0 -169 -304 -169q-128 0 -254 49l30 172q89 -36 170 -36q54 0 54 26t-50 35.5t-166 11.5l17 95q-329 22 -490.5 154.5t-161.5 380.5v46q0 266 195 396t594 130q385 0 573.5 -118.5
t200.5 -362.5l-616 -39q-7 95 -43 138.5t-115 43.5q-164 0 -164 -197v-28q0 -208 164 -208q159 0 159 183z" />
    <glyph glyph-name="egrave" unicode="&#xe8;" horiz-adv-x="1683" 
d="M1057 1128h-380l-253 272h510zM1633 556q0 -77 -10 -140h-935q18 -148 161 -148q126 0 145 104l627 -29q-25 -189 -216 -281t-556 -92q-404 0 -601.5 131t-197.5 400v46q0 269 197.5 401t601.5 132q397 0 590.5 -129.5t193.5 -394.5zM1004 652v4q0 127 -155 127
q-132 0 -157 -131h312z" />
    <glyph glyph-name="eacute" unicode="&#xe9;" horiz-adv-x="1683" 
d="M1274 1400l-253 -272h-380l123 272h510zM1633 556q0 -77 -10 -140h-935q18 -148 161 -148q126 0 145 104l627 -29q-25 -189 -216 -281t-556 -92q-404 0 -601.5 131t-197.5 400v46q0 269 197.5 401t601.5 132q397 0 590.5 -129.5t193.5 -394.5zM1004 652v4q0 127 -155 127
q-132 0 -157 -131h312z" />
    <glyph glyph-name="ecircumflex" unicode="&#xea;" horiz-adv-x="1683" 
d="M850 1208l-102 -80h-380l217 272h530l217 -272h-380zM1633 556q0 -77 -10 -140h-935q18 -148 161 -148q126 0 145 104l627 -29q-25 -189 -216 -281t-556 -92q-404 0 -601.5 131t-197.5 400v46q0 269 197.5 401t601.5 132q397 0 590.5 -129.5t193.5 -394.5zM1004 652v4
q0 127 -155 127q-132 0 -157 -131h312z" />
    <glyph glyph-name="edieresis" unicode="&#xeb;" horiz-adv-x="1683" 
d="M809 1400v-280h-535v280h535zM1424 1400v-280h-535v280h535zM1633 556q0 -77 -10 -140h-935q18 -148 161 -148q126 0 145 104l627 -29q-25 -189 -216 -281t-556 -92q-404 0 -601.5 131t-197.5 400v46q0 269 197.5 401t601.5 132q397 0 590.5 -129.5t193.5 -394.5z
M1004 652v4q0 127 -155 127q-132 0 -157 -131h312z" />
    <glyph glyph-name="igrave" unicode="&#xec;" horiz-adv-x="735" 
d="M513 1400l73 -272h-440l-143 272h510zM60 0v1050h615v-1050h-615z" />
    <glyph glyph-name="iacute" unicode="&#xed;" horiz-adv-x="735" 
d="M223 1400h510l-143 -272h-440zM60 0v1050h615v-1050h-615z" />
    <glyph glyph-name="icircumflex" unicode="&#xee;" horiz-adv-x="735" 
d="M-4 1108l147 292h450l147 -292h-290l-82 100l-82 -100h-290zM60 0v1050h615v-1050h-615z" />
    <glyph glyph-name="idieresis" unicode="&#xef;" horiz-adv-x="735" 
d="M13 1110v290h325v-290h-325zM398 1110v290h325v-290h-325zM60 0v1050h615v-1050h-615z" />
    <glyph glyph-name="eth" unicode="&#xf0;" horiz-adv-x="1658" 
d="M1459 1135q149 -226 149 -465v-3q0 -331 -203 -509t-580 -178q-372 0 -573.5 137.5t-201.5 385.5v4q0 258 127.5 384t388.5 126q144 0 264 -51t199 -145l19 10q-34 136 -97 250l-335 -35l-35 246l196 21q-42 42 -84 77l488 40q45 -35 78 -67l301 32l35 -246zM993 516v28
q0 209 -168 209q-160 0 -160 -209v-28q0 -207 160 -207q168 0 168 207z" />
    <glyph glyph-name="ntilde" unicode="&#xf1;" horiz-adv-x="1652" 
d="M1069 1142q-76 0 -158 20t-144 39.5t-92 19.5q-29 0 -46 -16t-23 -53h-300q0 160 85 254t235 94q79 0 162.5 -20t147 -39.5t93.5 -19.5t47 15.5t23 53.5h300q0 -161 -86.5 -254.5t-243.5 -93.5zM60 0v1050h605q3 -54 -9 -103t-47 -126l19 -12q96 133 224 197t311 64
q212 0 323 -88t111 -264v-718h-615v539q0 72 -31.5 106.5t-97.5 34.5q-86 0 -132 -70t-46 -200v-410h-615z" />
    <glyph glyph-name="ograve" unicode="&#xf2;" horiz-adv-x="1678" 
d="M924 1400l123 -272h-380l-253 272h510zM839 -31q-399 0 -594 132t-195 403v41q0 271 195 403t594 132t594 -132t195 -403v-41q0 -271 -195 -403t-594 -132zM839 309q164 0 164 204v23q0 104 -40.5 154t-123.5 50t-123.5 -50t-40.5 -154v-23q0 -204 164 -204z" />
    <glyph glyph-name="oacute" unicode="&#xf3;" horiz-adv-x="1678" 
d="M754 1400h510l-253 -272h-380zM839 -31q-399 0 -594 132t-195 403v41q0 271 195 403t594 132t594 -132t195 -403v-41q0 -271 -195 -403t-594 -132zM839 309q164 0 164 204v23q0 104 -40.5 154t-123.5 50t-123.5 -50t-40.5 -154v-23q0 -204 164 -204z" />
    <glyph glyph-name="ocircumflex" unicode="&#xf4;" horiz-adv-x="1678" 
d="M358 1128l217 272h530l217 -272h-380l-102 80l-102 -80h-380zM839 -31q-399 0 -594 132t-195 403v41q0 271 195 403t594 132t594 -132t195 -403v-41q0 -271 -195 -403t-594 -132zM839 309q164 0 164 204v23q0 104 -40.5 154t-123.5 50t-123.5 -50t-40.5 -154v-23
q0 -204 164 -204z" />
    <glyph glyph-name="otilde" unicode="&#xf5;" horiz-adv-x="1678" 
d="M1055 1142q-76 0 -158 20t-144 39.5t-92 19.5q-29 0 -46 -16t-23 -53h-300q0 160 85 254t235 94q79 0 162.5 -20t147 -39.5t93.5 -19.5t47 15.5t23 53.5h300q0 -161 -86.5 -254.5t-243.5 -93.5zM839 -31q-399 0 -594 132t-195 403v41q0 271 195 403t594 132t594 -132
t195 -403v-41q0 -271 -195 -403t-594 -132zM839 309q164 0 164 204v23q0 104 -40.5 154t-123.5 50t-123.5 -50t-40.5 -154v-23q0 -204 164 -204z" />
    <glyph glyph-name="odieresis" unicode="&#xf6;" horiz-adv-x="1678" 
d="M264 1120v280h535v-280h-535zM879 1120v280h535v-280h-535zM839 -31q-399 0 -594 132t-195 403v41q0 271 195 403t594 132t594 -132t195 -403v-41q0 -271 -195 -403t-594 -132zM839 309q164 0 164 204v23q0 104 -40.5 154t-123.5 50t-123.5 -50t-40.5 -154v-23
q0 -204 164 -204z" />
    <glyph glyph-name="divide" unicode="&#xf7;" horiz-adv-x="1190" 
d="M410 941v330h370v-330h-370zM60 531v340h1070v-340h-1070zM410 131v330h370v-330h-370z" />
    <glyph glyph-name="oslash" unicode="&#xf8;" horiz-adv-x="1698" 
d="M1449 955q239 -139 239 -410v-41q0 -258 -217.5 -396.5t-621.5 -138.5q-151 0 -269 19l-80 -89h-427l176 195q-239 139 -239 410v41q0 258 217.5 396.5t621.5 138.5q151 0 269 -19l80 89h427zM535 513q0 -45 14 -84l307 341h-7q-151 0 -232.5 -60.5t-81.5 -173.5v-23z
M1163 513v23q0 45 -14 84l-307 -341h7q151 0 232.5 60.5t81.5 173.5z" />
    <glyph glyph-name="ugrave" unicode="&#xf9;" horiz-adv-x="1652" 
d="M909 1400l123 -272h-380l-253 272h510zM1592 1050v-1050h-605q-3 54 9 103t47 126l-19 12q-96 -133 -224 -197t-311 -64q-212 0 -323 88t-111 264v718h615v-539q0 -72 31.5 -106.5t97.5 -34.5q86 0 132 70t46 200v410h615z" />
    <glyph glyph-name="uacute" unicode="&#xfa;" horiz-adv-x="1652" 
d="M739 1400h510l-253 -272h-380zM1592 1050v-1050h-605q-3 54 9 103t47 126l-19 12q-96 -133 -224 -197t-311 -64q-212 0 -323 88t-111 264v718h615v-539q0 -72 31.5 -106.5t97.5 -34.5q86 0 132 70t46 200v410h615z" />
    <glyph glyph-name="ucircumflex" unicode="&#xfb;" horiz-adv-x="1652" 
d="M343 1128l217 272h530l217 -272h-380l-102 80l-102 -80h-380zM1592 1050v-1050h-605q-3 54 9 103t47 126l-19 12q-96 -133 -224 -197t-311 -64q-212 0 -323 88t-111 264v718h615v-539q0 -72 31.5 -106.5t97.5 -34.5q86 0 132 70t46 200v410h615z" />
    <glyph glyph-name="udieresis" unicode="&#xfc;" horiz-adv-x="1652" 
d="M249 1120v280h535v-280h-535zM864 1120v280h535v-280h-535zM1592 1050v-1050h-605q-3 54 9 103t47 126l-19 12q-96 -133 -224 -197t-311 -64q-212 0 -323 88t-111 264v718h615v-539q0 -72 31.5 -106.5t97.5 -34.5q86 0 132 70t46 200v410h615z" />
    <glyph glyph-name="yacute" unicode="&#xfd;" horiz-adv-x="1628" 
d="M736 1400h510l-253 -272h-380zM115 -380l-32 342l137 7q175 9 214 52l20 22l-454 1007h623l118 -399q42 -142 75 -312h20q29 157 73 312l112 399h607l-236 -614q-50 -131 -95.5 -228t-100.5 -179.5t-108.5 -138.5t-129 -101.5t-152.5 -73t-188 -47.5t-226.5 -30.5
t-276.5 -17.5z" />
    <glyph glyph-name="thorn" unicode="&#xfe;" horiz-adv-x="1668" 
d="M60 -350v1750h615v-259q0 -154 -55 -310l19 -10q147 259 463 259q261 0 388.5 -136.5t127.5 -416.5v-4q0 -275 -127.5 -409t-388.5 -134q-318 0 -463 259l-19 -9q55 -157 55 -310v-270h-615zM843 309q160 0 160 207v28q0 209 -160 209q-168 0 -168 -209v-28
q0 -207 168 -207z" />
    <glyph glyph-name="ydieresis" unicode="&#xff;" horiz-adv-x="1628" 
d="M246 1120v280h535v-280h-535zM861 1120v280h535v-280h-535zM115 -380l-32 342l137 7q175 9 214 52l20 22l-454 1007h623l118 -399q42 -142 75 -312h20q29 157 73 312l112 399h607l-236 -614q-50 -131 -95.5 -228t-100.5 -179.5t-108.5 -138.5t-129 -101.5t-152.5 -73
t-188 -47.5t-226.5 -30.5t-276.5 -17.5z" />
    <glyph glyph-name="Amacron" unicode="&#x100;" horiz-adv-x="1728" 
d="M406 1479v275h915v-275h-915zM5 0l492 1400h733l493 -1400h-640l-39 142h-393l-39 -142h-607zM733 463h232l-51 219q-34 142 -55 288h-20q-19 -132 -56 -291z" />
    <glyph glyph-name="amacron" unicode="&#x101;" horiz-adv-x="1631" 
d="M354 1125v275h915v-275h-915zM435 -30q-196 0 -303 79.5t-107 220.5v2q0 84 38 146.5t112.5 104t168.5 67.5t224 44l326 45v27q0 43 -26.5 65.5t-76.5 22.5q-56 0 -82 -26t-22 -83h-620q-15 189 169.5 292t565.5 103q374 0 540.5 -93.5t166.5 -304.5v-338q0 -35 13.5 -50
t46.5 -15h42l-41 -289q-117 -20 -228 -20q-92 0 -158 13t-105 35t-59.5 57t-26 72.5t-1.5 88.5l-20 4q-108 -270 -537 -270zM714 307q65 0 122.5 50t57.5 108v8l-92 -14q-158 -24 -158 -97v-2q0 -53 70 -53z" />
    <glyph glyph-name="Abreve" unicode="&#x102;" horiz-adv-x="1728" 
d="M996 1720h350q-4 -132 -120.5 -189.5t-361.5 -57.5t-361.5 57.5t-120.5 189.5h350q4 -65 132 -65t132 65zM5 0l492 1400h733l493 -1400h-640l-39 142h-393l-39 -142h-607zM733 463h232l-51 219q-34 142 -55 288h-20q-19 -132 -56 -291z" />
    <glyph glyph-name="abreve" unicode="&#x103;" horiz-adv-x="1631" 
d="M934 1400h350q-4 -139 -120 -208t-352 -69t-352 69t-120 208h350q2 -35 30 -50t92 -15t92 15t30 50zM435 -30q-196 0 -303 79.5t-107 220.5v2q0 84 38 146.5t112.5 104t168.5 67.5t224 44l326 45v27q0 43 -26.5 65.5t-76.5 22.5q-56 0 -82 -26t-22 -83h-620
q-15 189 169.5 292t565.5 103q374 0 540.5 -93.5t166.5 -304.5v-338q0 -35 13.5 -50t46.5 -15h42l-41 -289q-117 -20 -228 -20q-92 0 -158 13t-105 35t-59.5 57t-26 72.5t-1.5 88.5l-20 4q-108 -270 -537 -270zM714 307q65 0 122.5 50t57.5 108v8l-92 -14q-158 -24 -158 -97
v-2q0 -53 70 -53z" />
    <glyph glyph-name="Aogonek" unicode="&#x104;" horiz-adv-x="1728" 
d="M1530 -90q0 -32 67 -32q39 0 98 11l-38 -234q-107 -35 -254 -35q-276 0 -276 180q0 68 43 120t123 80h-210l-39 142h-393l-39 -142h-607l492 1400h733l493 -1400q-193 -39 -193 -90zM733 463h232l-51 219q-34 142 -55 288h-20q-19 -132 -56 -291z" />
    <glyph glyph-name="aogonek" unicode="&#x105;" horiz-adv-x="1631" 
d="M1466 -24q-58 -35 -58 -64q0 -34 65 -34q40 0 80 11l-38 -234q-91 -35 -234 -35q-276 0 -276 180q0 120 133 194q-92 28 -122.5 87.5t-23.5 154.5l-20 4q-108 -270 -537 -270q-196 0 -303 79.5t-107 220.5v2q0 84 38 146.5t112.5 104t168.5 67.5t224 44l326 45v27
q0 43 -26.5 65.5t-76.5 22.5q-56 0 -82 -26t-22 -83h-620q-15 189 169.5 292t565.5 103q374 0 540.5 -93.5t166.5 -304.5v-338q0 -35 13.5 -50t46.5 -15h42l-41 -289q-54 -10 -104 -14zM894 465v8l-92 -14q-158 -24 -158 -97v-2q0 -53 70 -53q65 0 122.5 50t57.5 108z" />
    <glyph glyph-name="Cacute" unicode="&#x106;" horiz-adv-x="1879" 
d="M743 1478l93 242h510l-193 -242h-410zM951 -30q-453 0 -674.5 179.5t-221.5 548.5v4q0 368 221.5 548t674.5 180q421 0 638 -148.5t240 -452.5l-639 -59q-7 137 -66.5 204t-172.5 67q-130 0 -193 -81t-63 -247v-25q0 -166 63 -246.5t193 -80.5q214 0 236 268l640 -66
q-28 -301 -244.5 -447t-631.5 -146z" />
    <glyph glyph-name="cacute" unicode="&#x107;" horiz-adv-x="1662" 
d="M754 1400h510l-253 -272h-380zM839 -31q-399 0 -594 133.5t-195 405.5v46q0 266 195 396t594 130q385 0 573.5 -118.5t200.5 -362.5l-616 -39q-7 95 -43 138.5t-115 43.5q-164 0 -164 -197v-28q0 -208 164 -208q159 0 159 183l617 -35q-10 -247 -202 -367.5t-574 -120.5z
" />
    <glyph glyph-name="Cdotaccent" unicode="&#x10a;" horiz-adv-x="1879" 
d="M713 1480v280h475v-280h-475zM951 -30q-453 0 -674.5 179.5t-221.5 548.5v4q0 368 221.5 548t674.5 180q421 0 638 -148.5t240 -452.5l-639 -59q-7 137 -66.5 204t-172.5 67q-130 0 -193 -81t-63 -247v-25q0 -166 63 -246.5t193 -80.5q214 0 236 268l640 -66
q-28 -301 -244.5 -447t-631.5 -146z" />
    <glyph glyph-name="cdotaccent" unicode="&#x10b;" horiz-adv-x="1662" 
d="M581 1110v290h515v-290h-515zM839 -31q-399 0 -594 133.5t-195 405.5v46q0 266 195 396t594 130q385 0 573.5 -118.5t200.5 -362.5l-616 -39q-7 95 -43 138.5t-115 43.5q-164 0 -164 -197v-28q0 -208 164 -208q159 0 159 183l617 -35q-10 -247 -202 -367.5t-574 -120.5z
" />
    <glyph glyph-name="Ccaron" unicode="&#x10c;" horiz-adv-x="1879" 
d="M454 1720h400l102 -80l102 80h390l-207 -242h-580zM951 -30q-453 0 -674.5 179.5t-221.5 548.5v4q0 368 221.5 548t674.5 180q421 0 638 -148.5t240 -452.5l-639 -59q-7 137 -66.5 204t-172.5 67q-130 0 -193 -81t-63 -247v-25q0 -166 63 -246.5t193 -80.5q214 0 236 268
l640 -66q-28 -301 -244.5 -447t-631.5 -146z" />
    <glyph glyph-name="ccaron" unicode="&#x10d;" horiz-adv-x="1662" 
d="M357 1400h380l102 -80l102 80h380l-217 -272h-530zM839 -31q-399 0 -594 133.5t-195 405.5v46q0 266 195 396t594 130q385 0 573.5 -118.5t200.5 -362.5l-616 -39q-7 95 -43 138.5t-115 43.5q-164 0 -164 -197v-28q0 -208 164 -208q159 0 159 183l617 -35
q-10 -247 -202 -367.5t-574 -120.5z" />
    <glyph glyph-name="Dcaron" unicode="&#x10e;" horiz-adv-x="1845" 
d="M383 1720h400l102 -80l102 80h390l-207 -242h-580zM75 0v1400h866q429 0 639 -172.5t210 -525.5v-4q0 -353 -210 -525.5t-639 -172.5h-866zM695 370h195q260 0 260 318v25q0 160 -64.5 238.5t-195.5 78.5h-195v-660z" />
    <glyph glyph-name="dcaron" unicode="&#x10f;" horiz-adv-x="1668" 
d="M566 -20q-261 0 -388.5 134t-127.5 409v4q0 280 127.5 416.5t388.5 136.5q316 0 463 -259l19 10q-55 156 -55 310v259h615v-1400h-615q0 75 55 230l-19 9q-145 -259 -463 -259zM1658 1400h359v-88q0 -69 -14.5 -110t-55 -67t-105 -35.5t-171.5 -9.5l-13 86q49 4 65 13
t16 32h-81v179zM825 309q168 0 168 207v28q0 209 -168 209q-160 0 -160 -209v-28q0 -207 160 -207z" />
    <glyph glyph-name="Dcroat" unicode="&#x110;" horiz-adv-x="1845" 
d="M941 1400q429 0 639 -172.5t210 -525.5v-4q0 -353 -210 -525.5t-639 -172.5h-866v550h-80v320h80v530h866zM1150 688v25q0 160 -64.5 238.5t-195.5 78.5h-195v-160h221v-320h-221v-180h195q260 0 260 318z" />
    <glyph glyph-name="dcroat" unicode="&#x111;" horiz-adv-x="1668" 
d="M1698 1310v-250h-90v-1060h-615q0 75 55 230l-19 9q-145 -259 -463 -259q-261 0 -388.5 134t-127.5 409v4q0 280 127.5 416.5t388.5 136.5q316 0 463 -259l19 10q-43 120 -52 229h-189v250h186v90h615v-90h90zM993 516v28q0 209 -168 209q-160 0 -160 -209v-28
q0 -207 160 -207q168 0 168 207z" />
    <glyph glyph-name="Emacron" unicode="&#x112;" horiz-adv-x="1471" 
d="M303 1479v275h915v-275h-915zM695 360h756v-360h-1376v1400h1356v-360h-736v-175h695v-330h-695v-175z" />
    <glyph glyph-name="emacron" unicode="&#x113;" horiz-adv-x="1683" 
d="M1306 1400v-275h-915v275h915zM1633 556q0 -77 -10 -140h-935q18 -148 161 -148q126 0 145 104l627 -29q-25 -189 -216 -281t-556 -92q-404 0 -601.5 131t-197.5 400v46q0 269 197.5 401t601.5 132q397 0 590.5 -129.5t193.5 -394.5zM1004 652v4q0 127 -155 127
q-132 0 -157 -131h312z" />
    <glyph glyph-name="Edotaccent" unicode="&#x116;" horiz-adv-x="1471" 
d="M523 1480v280h475v-280h-475zM695 360h756v-360h-1376v1400h1356v-360h-736v-175h695v-330h-695v-175z" />
    <glyph glyph-name="edotaccent" unicode="&#x117;" horiz-adv-x="1683" 
d="M1106 1420v-290h-515v290h515zM1633 556q0 -77 -10 -140h-935q18 -148 161 -148q126 0 145 104l627 -29q-25 -189 -216 -281t-556 -92q-404 0 -601.5 131t-197.5 400v46q0 269 197.5 401t601.5 132q397 0 590.5 -129.5t193.5 -394.5zM1004 652v4q0 127 -155 127
q-132 0 -157 -131h312z" />
    <glyph glyph-name="Eogonek" unicode="&#x118;" horiz-adv-x="1471" 
d="M1451 0q-193 -39 -193 -90q0 -32 67 -32q39 0 98 11l-38 -234q-107 -35 -254 -35q-276 0 -276 180q0 68 43 120t123 80h-946v1400h1356v-360h-736v-175h695v-330h-695v-175h756v-360z" />
    <glyph glyph-name="eogonek" unicode="&#x119;" horiz-adv-x="1683" 
d="M1633 556q0 -77 -10 -140h-935q18 -148 161 -148q126 0 145 104l627 -29q-34 -259 -385 -338q-63 -31 -88.5 -52t-25.5 -41q0 -34 65 -34q40 0 80 11l-38 -234q-91 -35 -234 -35q-276 0 -276 180q0 100 96 170q-387 5 -576 136.5t-189 394.5v46q0 269 197.5 401
t601.5 132q397 0 590.5 -129.5t193.5 -394.5zM1004 652v4q0 127 -155 127q-132 0 -157 -131h312z" />
    <glyph glyph-name="Ecaron" unicode="&#x11a;" horiz-adv-x="1471" 
d="M264 1720h400l102 -80l102 80h390l-207 -242h-580zM695 360h756v-360h-1376v1400h1356v-360h-736v-175h695v-330h-695v-175z" />
    <glyph glyph-name="ecaron" unicode="&#x11b;" horiz-adv-x="1683" 
d="M1114 1128h-530l-217 272h380l102 -80l102 80h380zM1633 556q0 -77 -10 -140h-935q18 -148 161 -148q126 0 145 104l627 -29q-25 -189 -216 -281t-556 -92q-404 0 -601.5 131t-197.5 400v46q0 269 197.5 401t601.5 132q397 0 590.5 -129.5t193.5 -394.5zM1004 652v4
q0 127 -155 127q-132 0 -157 -131h312z" />
    <glyph glyph-name="Gbreve" unicode="&#x11e;" horiz-adv-x="1902" 
d="M1083 1720h350q-4 -132 -120.5 -189.5t-361.5 -57.5t-361.5 57.5t-120.5 189.5h350q4 -65 132 -65t132 65zM732 -31q-342 0 -509.5 181.5t-167.5 552.5v4q0 366 221.5 544.5t674.5 178.5q404 0 617.5 -122t245.5 -371l-639 -75q-41 188 -224 188q-130 0 -193 -81
t-63 -248v-25q0 -170 63 -253t193 -83q187 0 226 175h-279v280h934v-815h-506q-13 106 62 306l-27 11q-173 -348 -629 -348z" />
    <glyph glyph-name="gbreve" unicode="&#x11f;" horiz-adv-x="1607" 
d="M1019 288q58 -3 106.5 -7t111.5 -14.5t112 -25.5t99.5 -40.5t83.5 -58.5t54 -81t21 -106q0 -126 -79.5 -197.5t-257.5 -104t-492 -32.5q-129 0 -224 2.5t-180 8.5t-143 16.5t-104.5 25.5t-73 37.5t-40 51t-13.5 66.5q0 75 57.5 115.5t190.5 53.5v27q-228 57 -228 200
q0 85 65.5 128t221.5 55v26q-237 86 -237 291q0 179 183 267t557 88q119 0 220 -9q-61 162 58.5 258.5t407.5 100.5l33 -318l-167 -6q-112 -4 -146 -16t-32 -41q363 -71 363 -324q0 -180 -182 -268t-555 -88q-147 0 -271 14q-39 -6 -39 -31q0 -26 53 -35.5t233 -17.5z
M600 1123q-188 0 -293 70.5t-109 206.5h320q4 -65 82 -65t82 65h320q-4 -136 -109 -206.5t-293 -70.5zM810 814q-77 0 -111.5 -21t-34.5 -68q0 -48 34.5 -69t111.5 -21q76 0 109.5 21t33.5 69q0 47 -33.5 68t-109.5 21zM817 -101q125 0 195.5 1.5t104.5 7t41.5 11t7.5 17.5
q0 11 -12.5 17.5t-49.5 11.5t-98.5 8.5t-165.5 6.5l-272 8q-54 2 -80 4q-40 -15 -40 -43q0 -36 62 -43t307 -7z" />
    <glyph glyph-name="Gdotaccent" unicode="&#x120;" horiz-adv-x="1902" 
d="M713 1480v280h475v-280h-475zM732 -31q-342 0 -509.5 181.5t-167.5 552.5v4q0 366 221.5 544.5t674.5 178.5q404 0 617.5 -122t245.5 -371l-639 -75q-41 188 -224 188q-130 0 -193 -81t-63 -248v-25q0 -170 63 -253t193 -83q187 0 226 175h-279v280h934v-815h-506
q-13 106 62 306l-27 11q-173 -348 -629 -348z" />
    <glyph glyph-name="gdotaccent" unicode="&#x121;" horiz-adv-x="1607" 
d="M1019 288q58 -3 106.5 -7t111.5 -14.5t112 -25.5t99.5 -40.5t83.5 -58.5t54 -81t21 -106q0 -126 -79.5 -197.5t-257.5 -104t-492 -32.5q-129 0 -224 2.5t-180 8.5t-143 16.5t-104.5 25.5t-73 37.5t-40 51t-13.5 66.5q0 75 57.5 115.5t190.5 53.5v27q-228 57 -228 200
q0 85 65.5 128t221.5 55v26q-237 86 -237 291q0 179 183 267t557 88q119 0 220 -9q-61 162 58.5 258.5t407.5 100.5l33 -318l-167 -6q-112 -4 -146 -16t-32 -41q363 -71 363 -324q0 -180 -182 -268t-555 -88q-147 0 -271 14q-39 -6 -39 -31q0 -26 53 -35.5t233 -17.5z
M957 1400v-270h-465v270h465zM810 814q-77 0 -111.5 -21t-34.5 -68q0 -48 34.5 -69t111.5 -21q76 0 109.5 21t33.5 69q0 47 -33.5 68t-109.5 21zM817 -101q125 0 195.5 1.5t104.5 7t41.5 11t7.5 17.5q0 11 -12.5 17.5t-49.5 11.5t-98.5 8.5t-165.5 6.5l-272 8q-54 2 -80 4
q-40 -15 -40 -43q0 -36 62 -43t307 -7z" />
    <glyph glyph-name="uni0122" unicode="&#x122;" horiz-adv-x="1902" 
d="M732 -31q-342 0 -509.5 181.5t-167.5 552.5v4q0 366 221.5 544.5t674.5 178.5q404 0 617.5 -122t245.5 -371l-639 -75q-41 188 -224 188q-130 0 -193 -81t-63 -248v-25q0 -170 63 -253t193 -83q187 0 226 175h-279v280h934v-815h-506q-13 106 62 306l-27 11
q-173 -348 -629 -348zM719 -90h463v-88q0 -59 -10 -95t-35.5 -65t-77.5 -43t-129.5 -21.5t-197.5 -7.5l-13 96q100 4 125.5 12.5t25.5 32.5h-151v179z" />
    <glyph glyph-name="uni0123" unicode="&#x123;" horiz-adv-x="1607" 
d="M920 1309v-169h-359v88q0 69 14.5 110t55 67t105 35.5t171.5 9.5l13 -96q-49 -4 -65 -13t-16 -32h81zM1019 288q58 -3 106.5 -7t111.5 -14.5t112 -25.5t99.5 -40.5t83.5 -58.5t54 -81t21 -106q0 -126 -79.5 -197.5t-257.5 -104t-492 -32.5q-129 0 -224 2.5t-180 8.5
t-143 16.5t-104.5 25.5t-73 37.5t-40 51t-13.5 66.5q0 75 57.5 115.5t190.5 53.5v27q-228 57 -228 200q0 85 65.5 128t221.5 55v26q-237 86 -237 291q0 179 183 267t557 88q119 0 220 -9q-61 162 58.5 258.5t407.5 100.5l33 -318l-167 -6q-112 -4 -146 -16t-32 -41
q363 -71 363 -324q0 -180 -182 -268t-555 -88q-147 0 -271 14q-39 -6 -39 -31q0 -26 53 -35.5t233 -17.5zM810 814q-77 0 -111.5 -21t-34.5 -68q0 -48 34.5 -69t111.5 -21q76 0 109.5 21t33.5 69q0 47 -33.5 68t-109.5 21zM817 -101q125 0 195.5 1.5t104.5 7t41.5 11
t7.5 17.5q0 11 -12.5 17.5t-49.5 11.5t-98.5 8.5t-165.5 6.5l-272 8q-54 2 -80 4q-40 -15 -40 -43q0 -36 62 -43t307 -7z" />
    <glyph glyph-name="Hbar" unicode="&#x126;" horiz-adv-x="1820" 
d="M1825 1198v-330h-80v-868h-620v325h-430v-325h-620v868h-80v330h80v202h620v-202h430v202h620v-202h80zM1125 705v163h-430v-163h430z" />
    <glyph glyph-name="hbar" unicode="&#x127;" horiz-adv-x="1652" 
d="M1163 1070q212 0 323 -88t111 -264v-718h-615v539q0 72 -31.5 106.5t-97.5 34.5q-86 0 -132 -70t-46 -200v-410h-615v1060h-90v250h90v90h615v-90h186v-250h-187q-6 -110 -65 -239l19 -11q96 133 224 196.5t311 63.5z" />
    <glyph glyph-name="Itilde" unicode="&#x128;" horiz-adv-x="770" 
d="M496 1452q-46 0 -88.5 17t-75.5 34.5t-55 17.5q-19 0 -28.5 -13t-13.5 -46h-181q0 184 50 266t163 82q48 0 91.5 -17t76.5 -34.5t56 -17.5q19 0 29 13t14 46h181q0 -185 -51.5 -266.5t-167.5 -81.5zM75 1400h620v-1400h-620v1400z" />
    <glyph glyph-name="itilde" unicode="&#x129;" horiz-adv-x="735" 
d="M479 1102q-46 0 -88.5 17t-75.5 34.5t-55 17.5q-19 0 -28.5 -13t-13.5 -46h-181q0 184 50 266t163 82q48 0 91.5 -17t76.5 -34.5t56 -17.5q19 0 29 13t14 46h181q0 -185 -51.5 -266.5t-167.5 -81.5zM60 0v1050h615v-1050h-615z" />
    <glyph glyph-name="Imacron" unicode="&#x12a;" horiz-adv-x="770" 
d="M57 1505v245h655v-245h-655zM75 1400h620v-1400h-620v1400z" />
    <glyph glyph-name="imacron" unicode="&#x12b;" horiz-adv-x="735" 
d="M40 1155v245h655v-245h-655zM60 0v1050h615v-1050h-615z" />
    <glyph glyph-name="Iogonek" unicode="&#x12e;" horiz-adv-x="770" 
d="M695 0q-193 -39 -193 -90q0 -32 67 -32q39 0 98 11l-38 -234q-107 -35 -254 -35q-276 0 -276 180q0 68 43 120t123 80h-190v1400h620v-1400z" />
    <glyph glyph-name="iogonek" unicode="&#x12f;" horiz-adv-x="735" 
d="M60 1400h615v-290h-615v290zM60 0v1050h615v-1050q-193 -39 -193 -90q0 -32 67 -32q39 0 98 11l-38 -234q-107 -35 -254 -35q-276 0 -276 180q0 68 43 120t123 80h-185z" />
    <glyph glyph-name="Idotaccent" unicode="&#x130;" horiz-adv-x="770" 
d="M147 1480v280h475v-280h-475zM75 1400h620v-1400h-620v1400z" />
    <glyph glyph-name="dotlessi" unicode="&#x131;" horiz-adv-x="735" 
d="M60 0v1050h615v-1050h-615z" />
    <glyph glyph-name="IJ" unicode="&#x132;" horiz-adv-x="2407" 
d="M75 1400h620v-1400h-620v1400zM1579 -30q-414 0 -600.5 143.5t-178.5 470.5l619 76q3 -166 39.5 -238t120.5 -72q66 0 102 37t36 107v906h620v-938q0 -253 -186.5 -372.5t-571.5 -119.5z" />
    <glyph glyph-name="ij" unicode="&#x133;" horiz-adv-x="1470" 
d="M60 1110v290h615v-290h-615zM795 1110v290h615v-290h-615zM60 0v1050h615v-1050h-615zM619 -375l-29 330l96 8q69 6 89 28t20 82v977h615v-948q0 -103 -17.5 -178t-55.5 -132t-99.5 -91t-149.5 -55t-204.5 -24t-264.5 3z" />
    <glyph glyph-name="uni0136" unicode="&#x136;" horiz-adv-x="1723" 
d="M75 0v1400h620v-173q0 -168 -43 -351l19 -10l393 534h635l-438 -536l457 -864h-652l-218 519l-153 -187v-332h-620zM652 -90h463v-88q0 -59 -10 -95t-35.5 -65t-77.5 -43t-129.5 -21.5t-197.5 -7.5l-13 96q100 4 125.5 12.5t25.5 32.5h-151v179z" />
    <glyph glyph-name="uni0137" unicode="&#x137;" horiz-adv-x="1578" 
d="M60 0v1400h615v-277q0 -130 -11 -217.5t-42 -195.5l20 -10l289 350h629l-320 -379l338 -671h-625l-157 378l-121 -139v-239h-615zM584 -90h463v-88q0 -59 -10 -95t-35.5 -65t-77.5 -43t-129.5 -21.5t-197.5 -7.5l-13 96q100 4 125.5 12.5t25.5 32.5h-151v179z" />
    <glyph glyph-name="Lacute" unicode="&#x139;" horiz-adv-x="1437" 
d="M177 1478l93 242h510l-193 -242h-410zM75 0v1400h620v-990h697v-410h-1317z" />
    <glyph glyph-name="lacute" unicode="&#x13a;" horiz-adv-x="735" 
d="M160 1478l93 242h510l-193 -242h-410zM60 1400h615v-1400h-615v1400z" />
    <glyph glyph-name="uni013B" unicode="&#x13b;" horiz-adv-x="1437" 
d="M75 0v1400h620v-990h697v-410h-1317zM502 -90h463v-88q0 -59 -10 -95t-35.5 -65t-77.5 -43t-129.5 -21.5t-197.5 -7.5l-13 96q100 4 125.5 12.5t25.5 32.5h-151v179z" />
    <glyph glyph-name="uni013C" unicode="&#x13c;" horiz-adv-x="735" 
d="M60 1400h615v-1400h-615v1400zM136 -90h463v-88q0 -59 -10 -95t-35.5 -65t-77.5 -43t-129.5 -21.5t-197.5 -7.5l-13 96q100 4 125.5 12.5t25.5 32.5h-151v179z" />
    <glyph glyph-name="Lcaron" unicode="&#x13d;" horiz-adv-x="1437" 
d="M75 0v1400h620v-990h697v-410h-1317zM745 1400h399v-195q0 -173 -89 -242.5t-297 -71.5l-13 173q53 5 77 22t24 51h-101v263z" />
    <glyph glyph-name="lcaron" unicode="&#x13e;" horiz-adv-x="735" 
d="M60 1400h615v-1400h-615v1400zM725 1400h359v-88q0 -69 -14.5 -110t-55 -67t-105 -35.5t-171.5 -9.5l-13 86q49 4 65 13t16 32h-81v179z" />
    <glyph glyph-name="Ldot" unicode="&#x13f;" horiz-adv-x="1452" 
d="M75 0v1400h620v-990h697v-410h-1317zM836 1050h551v-439h-551v439z" />
    <glyph glyph-name="ldot" unicode="&#x140;" horiz-adv-x="1406" 
d="M60 1400h615v-1400h-615v1400zM795 920h551v-439h-551v439z" />
    <glyph glyph-name="Lslash" unicode="&#x141;" horiz-adv-x="1437" 
d="M695 410h697v-410h-1317v563l-90 -16v283l90 16v554h620v-448l277 48v-283l-277 -48v-259z" />
    <glyph glyph-name="lslash" unicode="&#x142;" horiz-adv-x="961" 
d="M941 1060v-380l-153 -50v-630h-615v427l-153 -50v380l153 50v593h615v-390z" />
    <glyph glyph-name="Nacute" unicode="&#x143;" horiz-adv-x="1813" 
d="M699 1478l93 242h510l-193 -242h-410zM75 0v1400h635l286 -437q71 -111 138 -244l21 7q-17 149 -17 274v400h600v-1400h-637l-274 421q-82 126 -148 274l-20 -7q16 -161 16 -279v-409h-600z" />
    <glyph glyph-name="nacute" unicode="&#x144;" horiz-adv-x="1652" 
d="M768 1400h510l-253 -272h-380zM60 0v1050h605q3 -54 -9 -103t-47 -126l19 -12q96 133 224 197t311 64q212 0 323 -88t111 -264v-718h-615v539q0 72 -31.5 106.5t-97.5 34.5q-86 0 -132 -70t-46 -200v-410h-615z" />
    <glyph glyph-name="uni0145" unicode="&#x145;" horiz-adv-x="1813" 
d="M75 0v1400h635l286 -437q71 -111 138 -244l21 7q-17 149 -17 274v400h600v-1400h-637l-274 421q-82 126 -148 274l-20 -7q16 -161 16 -279v-409h-600zM675 -90h463v-88q0 -59 -10 -95t-35.5 -65t-77.5 -43t-129.5 -21.5t-197.5 -7.5l-13 96q100 4 125.5 12.5t25.5 32.5
h-151v179z" />
    <glyph glyph-name="uni0146" unicode="&#x146;" horiz-adv-x="1652" 
d="M60 0v1050h605q3 -54 -9 -103t-47 -126l19 -12q96 133 224 197t311 64q212 0 323 -88t111 -264v-718h-615v539q0 72 -31.5 106.5t-97.5 34.5q-86 0 -132 -70t-46 -200v-410h-615zM597 -90h463v-88q0 -59 -10 -95t-35.5 -65t-77.5 -43t-129.5 -21.5t-197.5 -7.5l-13 96
q100 4 125.5 12.5t25.5 32.5h-151v179z" />
    <glyph glyph-name="Ncaron" unicode="&#x147;" horiz-adv-x="1813" 
d="M410 1720h400l102 -80l102 80h390l-207 -242h-580zM75 0v1400h635l286 -437q71 -111 138 -244l21 7q-17 149 -17 274v400h600v-1400h-637l-274 421q-82 126 -148 274l-20 -7q16 -161 16 -279v-409h-600z" />
    <glyph glyph-name="ncaron" unicode="&#x148;" horiz-adv-x="1652" 
d="M371 1400h380l102 -80l102 80h380l-217 -272h-530zM60 0v1050h605q3 -54 -9 -103t-47 -126l19 -12q96 133 224 197t311 64q212 0 323 -88t111 -264v-718h-615v539q0 72 -31.5 106.5t-97.5 34.5q-86 0 -132 -70t-46 -200v-410h-615z" />
    <glyph glyph-name="Eng" unicode="&#x14a;" horiz-adv-x="1813" 
d="M916 -375l-29 330l96 6q89 5 109 52l-265 408q-82 126 -148 274l-20 -7q16 -161 16 -279v-409h-600v1400h635l286 -437q71 -111 138 -244l21 7q-17 149 -17 274v400h600v-1370q0 -102 -25 -172.5t-83.5 -122t-153 -76.5t-234 -35t-326.5 1z" />
    <glyph glyph-name="eng" unicode="&#x14b;" horiz-adv-x="1653" 
d="M1597 0q7 -154 -68 -239.5t-250.5 -118t-482.5 -17.5l-29 330l96 6q74 4 96.5 31.5t22.5 90.5v456q0 72 -31.5 106.5t-97.5 34.5q-86 0 -132 -70t-46 -200v-410h-615v1050h605q3 -54 -9 -103t-47 -126l19 -12q96 133 224 197t311 64q212 0 323 -88t111 -264v-718z" />
    <glyph glyph-name="Omacron" unicode="&#x14c;" horiz-adv-x="1900" 
d="M492 1475v275h915v-275h-915zM950 -30q-452 0 -673.5 178.5t-221.5 544.5v4q0 370 221.5 551.5t673.5 181.5t673.5 -181.5t221.5 -551.5v-4q0 -366 -221.5 -544.5t-673.5 -178.5zM950 360q129 0 192 80t63 243v25q0 168 -63 250t-192 82t-192 -82t-63 -250v-25
q0 -163 63 -243t192 -80z" />
    <glyph glyph-name="omacron" unicode="&#x14d;" horiz-adv-x="1678" 
d="M381 1125v275h915v-275h-915zM839 -31q-399 0 -594 132t-195 403v41q0 271 195 403t594 132t594 -132t195 -403v-41q0 -271 -195 -403t-594 -132zM839 309q164 0 164 204v23q0 104 -40.5 154t-123.5 50t-123.5 -50t-40.5 -154v-23q0 -204 164 -204z" />
    <glyph glyph-name="Ohungarumlaut" unicode="&#x150;" horiz-adv-x="1900" 
d="M444 1478l93 242h510l-193 -242h-410zM1009 1478l93 242h510l-193 -242h-410zM950 -30q-452 0 -673.5 178.5t-221.5 544.5v4q0 370 221.5 551.5t673.5 181.5t673.5 -181.5t221.5 -551.5v-4q0 -366 -221.5 -544.5t-673.5 -178.5zM950 360q129 0 192 80t63 243v25
q0 168 -63 250t-192 82t-192 -82t-63 -250v-25q0 -163 63 -243t192 -80z" />
    <glyph glyph-name="ohungarumlaut" unicode="&#x151;" horiz-adv-x="1678" 
d="M494 1400h510l-253 -272h-380zM1060 1400h510l-253 -272h-380zM839 -31q-399 0 -594 132t-195 403v41q0 271 195 403t594 132t594 -132t195 -403v-41q0 -271 -195 -403t-594 -132zM839 309q164 0 164 204v23q0 104 -40.5 154t-123.5 50t-123.5 -50t-40.5 -154v-23
q0 -204 164 -204z" />
    <glyph glyph-name="OE" unicode="&#x152;" horiz-adv-x="2501" 
d="M770 -30q-345 0 -530 187t-185 536v4q0 353 185 543t530 190q336 0 495 -144v114h1196v-360h-636v-175h595v-330h-595v-175h656v-360h-1216v113q-159 -143 -495 -143zM950 360q129 0 192 80t63 243v25q0 168 -63 250t-192 82t-192 -82t-63 -250v-25q0 -163 63 -243
t192 -80z" />
    <glyph glyph-name="oe" unicode="&#x153;" horiz-adv-x="2626" 
d="M2576 556q0 -77 -10 -140h-935q18 -148 161 -148q126 0 145 104l627 -29q-50 -373 -722 -373q-318 0 -526 150q-213 -151 -527 -151q-739 0 -739 535v41q0 535 739 535q313 0 526 -151q212 151 527 151q362 0 548 -130.5t186 -393.5zM1947 652v4q0 127 -155 127
q-132 0 -157 -131h312zM1003 513v23q0 104 -40.5 154t-123.5 50t-123.5 -50t-40.5 -154v-23q0 -204 164 -204t164 204z" />
    <glyph glyph-name="Racute" unicode="&#x154;" horiz-adv-x="1736" 
d="M648 1478l93 242h510l-193 -242h-410zM75 0v1400h975q314 0 467.5 -108t153.5 -329v-4q0 -159 -71 -242.5t-222 -111.5v-21q94 -21 142 -62.5t73 -138.5l35 -136q27 -105 46 -147.5t52 -68.5l-4 -31h-658q-18 31 -30.5 72t-28.5 128l-22 120q-16 92 -47.5 124.5
t-110.5 32.5h-130v-477h-620zM695 797h200q80 0 114.5 24.5t34.5 97.5v4q0 76 -34.5 101.5t-114.5 25.5h-200v-253z" />
    <glyph glyph-name="racute" unicode="&#x155;" horiz-adv-x="1137" 
d="M509 1400h510l-253 -272h-380zM60 0v1050h605q5 -93 -56 -227l19 -13q129 151 221.5 207.5t241.5 73.5l36 -467l-213 -12q-143 -8 -191 -73.5t-48 -250.5v-288h-615z" />
    <glyph glyph-name="uni0156" unicode="&#x156;" horiz-adv-x="1736" 
d="M75 0v1400h975q314 0 467.5 -108t153.5 -329v-4q0 -159 -71 -242.5t-222 -111.5v-21q94 -21 142 -62.5t73 -138.5l35 -136q27 -105 46 -147.5t52 -68.5l-4 -31h-658q-18 31 -30.5 72t-28.5 128l-22 120q-16 92 -47.5 124.5t-110.5 32.5h-130v-477h-620zM695 797h200
q80 0 114.5 24.5t34.5 97.5v4q0 76 -34.5 101.5t-114.5 25.5h-200v-253zM654 -90h463v-88q0 -59 -10 -95t-35.5 -65t-77.5 -43t-129.5 -21.5t-197.5 -7.5l-13 96q100 4 125.5 12.5t25.5 32.5h-151v179z" />
    <glyph glyph-name="uni0157" unicode="&#x157;" horiz-adv-x="1137" 
d="M60 0v1050h605q5 -93 -56 -227l19 -13q129 151 221.5 207.5t241.5 73.5l36 -467l-213 -12q-143 -8 -191 -73.5t-48 -250.5v-288h-615zM136 -90h463v-88q0 -59 -10 -95t-35.5 -65t-77.5 -43t-129.5 -21.5t-197.5 -7.5l-13 96q100 4 125.5 12.5t25.5 32.5h-151v179z" />
    <glyph glyph-name="Rcaron" unicode="&#x158;" horiz-adv-x="1736" 
d="M359 1720h400l102 -80l102 80h390l-207 -242h-580zM75 0v1400h975q314 0 467.5 -108t153.5 -329v-4q0 -159 -71 -242.5t-222 -111.5v-21q94 -21 142 -62.5t73 -138.5l35 -136q27 -105 46 -147.5t52 -68.5l-4 -31h-658q-18 31 -30.5 72t-28.5 128l-22 120
q-16 92 -47.5 124.5t-110.5 32.5h-130v-477h-620zM695 797h200q80 0 114.5 24.5t34.5 97.5v4q0 76 -34.5 101.5t-114.5 25.5h-200v-253z" />
    <glyph glyph-name="rcaron" unicode="&#x159;" horiz-adv-x="1137" 
d="M112 1400h380l102 -80l102 80h380l-217 -272h-530zM60 0v1050h605q5 -93 -56 -227l19 -13q129 151 221.5 207.5t241.5 73.5l36 -467l-213 -12q-143 -8 -191 -73.5t-48 -250.5v-288h-615z" />
    <glyph glyph-name="Sacute" unicode="&#x15a;" horiz-adv-x="1734" 
d="M782 1750h510l-253 -272h-380zM854 -31q-245 0 -425.5 53.5t-279 159.5t-94.5 253l619 37q3 -80 59.5 -116.5t165.5 -36.5q85 0 125.5 17.5t40.5 56.5q0 28 -22.5 44.5t-81.5 31.5t-187 37l-246 42q-97 17 -176 48.5t-144 81.5t-101.5 126.5t-36.5 172.5q0 149 97.5 252
t272.5 152t418 49q372 0 580 -127.5t198 -334.5l-557 -43q-7 76 -62 115.5t-173 39.5q-89 0 -135 -20.5t-46 -55.5q0 -24 13.5 -37t70 -28.5t177.5 -35.5l246 -40q61 -10 106 -19t101 -25.5t96.5 -36.5t81.5 -50.5t66.5 -68t41.5 -89.5t16 -114q0 -155 -101.5 -266.5
t-286.5 -168t-437 -56.5z" />
    <glyph glyph-name="sacute" unicode="&#x15b;" horiz-adv-x="1546" 
d="M688 1400h510l-253 -272h-380zM771 -20q-277 0 -438 38t-229 116.5t-64 210.5l596 -6q-5 -58 28 -86t105 -28q133 0 133 58q0 32 -56.5 49t-209.5 41l-185 28q-50 8 -81 13.5t-78 18t-76.5 26.5t-63.5 37t-53.5 51.5t-33 69.5t-13.5 91q0 182 167 277t531 95
q387 0 557 -81.5t164 -251.5l-579 -2q5 51 -30 73t-116 22q-103 0 -103 -52q0 -25 48 -39.5t188 -32.5l186 -24q51 -7 84.5 -12t84 -17.5t84.5 -27.5t72.5 -40.5t61.5 -57.5t38.5 -78.5t15.5 -102.5q0 -129 -71 -210.5t-234 -123.5t-430 -42z" />
    <glyph glyph-name="Scedilla" unicode="&#x15e;" horiz-adv-x="1734" 
d="M1679 460q0 -213 -186.5 -339.5t-514.5 -147.5l-9 -40q134 -5 199 -38t65 -106q0 -169 -304 -169q-128 0 -254 49l30 172q89 -36 170 -36q54 0 54 26t-50 35.5t-166 11.5l17 95q-318 20 -499 140t-176 322l619 37q3 -80 59.5 -116.5t165.5 -36.5q85 0 125.5 17.5
t40.5 56.5q0 28 -22.5 44.5t-81.5 31.5t-187 37l-246 42q-97 17 -176 48.5t-144 81.5t-101.5 126.5t-36.5 172.5q0 149 97.5 252t272.5 152t418 49q372 0 580 -127.5t198 -334.5l-557 -43q-7 76 -62 115.5t-173 39.5q-89 0 -135 -20.5t-46 -55.5q0 -24 13.5 -37t70 -28.5
t177.5 -35.5l246 -40q61 -10 106 -19t101 -25.5t96.5 -36.5t81.5 -50.5t66.5 -68t41.5 -89.5t16 -114z" />
    <glyph glyph-name="scedilla" unicode="&#x15f;" horiz-adv-x="1546" 
d="M1506 356q0 -180 -144 -271t-476 -103l-11 -49q134 -5 199 -38t65 -106q0 -169 -304 -169q-128 0 -254 49l30 172q89 -36 170 -36q54 0 54 26t-50 35.5t-166 11.5l18 104q-332 13 -467 97.5t-130 265.5l596 -6q-5 -58 28 -86t105 -28q133 0 133 58q0 32 -56.5 49
t-209.5 41l-185 28q-50 8 -81 13.5t-78 18t-76.5 26.5t-63.5 37t-53.5 51.5t-33 69.5t-13.5 91q0 182 167 277t531 95q387 0 557 -81.5t164 -251.5l-579 -2q5 51 -30 73t-116 22q-103 0 -103 -52q0 -25 48 -39.5t188 -32.5l186 -24q51 -7 84.5 -12t84 -17.5t84.5 -27.5
t72.5 -40.5t61.5 -57.5t38.5 -78.5t15.5 -102.5z" />
    <glyph glyph-name="Scaron" unicode="&#x160;" horiz-adv-x="1734" 
d="M370 1720h400l102 -80l102 80h390l-207 -242h-580zM854 -31q-245 0 -425.5 53.5t-279 159.5t-94.5 253l619 37q3 -80 59.5 -116.5t165.5 -36.5q85 0 125.5 17.5t40.5 56.5q0 28 -22.5 44.5t-81.5 31.5t-187 37l-246 42q-97 17 -176 48.5t-144 81.5t-101.5 126.5
t-36.5 172.5q0 149 97.5 252t272.5 152t418 49q372 0 580 -127.5t198 -334.5l-557 -43q-7 76 -62 115.5t-173 39.5q-89 0 -135 -20.5t-46 -55.5q0 -24 13.5 -37t70 -28.5t177.5 -35.5l246 -40q61 -10 106 -19t101 -25.5t96.5 -36.5t81.5 -50.5t66.5 -68t41.5 -89.5t16 -114
q0 -155 -101.5 -266.5t-286.5 -168t-437 -56.5z" />
    <glyph glyph-name="scaron" unicode="&#x161;" horiz-adv-x="1546" 
d="M291 1400h380l102 -80l102 80h380l-217 -272h-530zM771 -20q-277 0 -438 38t-229 116.5t-64 210.5l596 -6q-5 -58 28 -86t105 -28q133 0 133 58q0 32 -56.5 49t-209.5 41l-185 28q-50 8 -81 13.5t-78 18t-76.5 26.5t-63.5 37t-53.5 51.5t-33 69.5t-13.5 91q0 182 167 277
t531 95q387 0 557 -81.5t164 -251.5l-579 -2q5 51 -30 73t-116 22q-103 0 -103 -52q0 -25 48 -39.5t188 -32.5l186 -24q51 -7 84.5 -12t84 -17.5t84.5 -27.5t72.5 -40.5t61.5 -57.5t38.5 -78.5t15.5 -102.5q0 -129 -71 -210.5t-234 -123.5t-430 -42z" />
    <glyph glyph-name="uni0162" unicode="&#x162;" horiz-adv-x="1486" 
d="M1053 0h-192l-16 -67q134 -5 199 -38t65 -106q0 -169 -304 -169q-128 0 -254 49l30 172q89 -36 170 -36q54 0 54 26t-50 35.5t-166 11.5l21 122h-177v980h-418v420h1456v-420h-418v-980z" />
    <glyph glyph-name="uni0163" unicode="&#x163;" horiz-adv-x="1011" 
d="M967 23q-113 -39 -272 -48l-10 -42q134 -5 199 -38t65 -106q0 -169 -304 -169q-128 0 -254 49l30 172q89 -36 170 -36q54 0 54 26t-50 35.5t-166 11.5l18 102q-307 47 -307 337v393h-110v340h110v190l615 120v-310h226v-340h-226v-257q0 -57 25.5 -80t88.5 -23
q65 0 122 15z" />
    <glyph glyph-name="Tcaron" unicode="&#x164;" horiz-adv-x="1486" 
d="M246 1720h400l102 -80l102 80h390l-207 -242h-580zM433 0v980h-418v420h1456v-420h-418v-980h-620z" />
    <glyph glyph-name="tcaron" unicode="&#x165;" horiz-adv-x="1011" 
d="M805 1400h359v-88q0 -69 -14.5 -110t-55 -67t-105 -35.5t-171.5 -9.5l-13 86q49 4 65 13t16 32h-81v179zM583 -29q-224 0 -333.5 85.5t-109.5 260.5v393h-110v340h110v190l615 120v-310h226v-340h-226v-257q0 -57 25.5 -80t88.5 -23q65 0 122 15l-24 -342
q-155 -52 -384 -52z" />
    <glyph glyph-name="Tbar" unicode="&#x166;" horiz-adv-x="1486" 
d="M1471 980h-418v-246h176v-320h-176v-414h-620v414h-185v320h185v246h-418v420h1456v-420z" />
    <glyph glyph-name="tbar" unicode="&#x167;" horiz-adv-x="1011" 
d="M869 350q65 0 122 15l-24 -342q-155 -52 -384 -52q-224 0 -333.5 85.5t-109.5 260.5v103h-110v230h110v60h-110v340h110v190l615 120v-310h226v-340h-226v-60h226v-230h-224q7 -38 33 -54t79 -16z" />
    <glyph glyph-name="Utilde" unicode="&#x168;" horiz-adv-x="1776" 
d="M1094 1469q-85 0 -169 19.5t-145 39.5t-90 20t-46 -16t-23 -53h-280q0 154 87 231t243 77q69 0 138.5 -12.5t115 -27t90 -27t69.5 -12.5q30 0 47 15.5t23 53.5h280q0 -155 -88.5 -231.5t-251.5 -76.5zM1086 1400h620v-897q0 -281 -198 -407.5t-615 -126.5
q-422 0 -622.5 126.5t-200.5 407.5v897h620v-845q0 -107 49.5 -156t153.5 -49q99 0 146 48.5t47 156.5v845z" />
    <glyph glyph-name="utilde" unicode="&#x169;" horiz-adv-x="1652" 
d="M1040 1142q-76 0 -158 20t-144 39.5t-92 19.5q-29 0 -46 -16t-23 -53h-300q0 160 85 254t235 94q79 0 162.5 -20t147 -39.5t93.5 -19.5t47 15.5t23 53.5h300q0 -161 -86.5 -254.5t-243.5 -93.5zM1592 1050v-1050h-605q-3 54 9 103t47 126l-19 12q-96 -133 -224 -197
t-311 -64q-212 0 -323 88t-111 264v718h615v-539q0 -72 31.5 -106.5t97.5 -34.5q86 0 132 70t46 200v410h615z" />
    <glyph glyph-name="Umacron" unicode="&#x16a;" horiz-adv-x="1776" 
d="M430 1475v275h915v-275h-915zM1086 1400h620v-897q0 -281 -198 -407.5t-615 -126.5q-422 0 -622.5 126.5t-200.5 407.5v897h620v-845q0 -107 49.5 -156t153.5 -49q99 0 146 48.5t47 156.5v845z" />
    <glyph glyph-name="umacron" unicode="&#x16b;" horiz-adv-x="1652" 
d="M366 1125v275h915v-275h-915zM1592 1050v-1050h-605q-3 54 9 103t47 126l-19 12q-96 -133 -224 -197t-311 -64q-212 0 -323 88t-111 264v718h615v-539q0 -72 31.5 -106.5t97.5 -34.5q86 0 132 70t46 200v410h615z" />
    <glyph glyph-name="Ubreve" unicode="&#x16c;" horiz-adv-x="1776" 
d="M1020 1720h350q-4 -132 -120.5 -189.5t-361.5 -57.5t-361.5 57.5t-120.5 189.5h350q4 -65 132 -65t132 65zM1086 1400h620v-897q0 -281 -198 -407.5t-615 -126.5q-422 0 -622.5 126.5t-200.5 407.5v897h620v-845q0 -107 49.5 -156t153.5 -49q99 0 146 48.5t47 156.5v845z
" />
    <glyph glyph-name="ubreve" unicode="&#x16d;" horiz-adv-x="1652" 
d="M946 1400h350q-4 -139 -120 -208t-352 -69t-352 69t-120 208h350q2 -35 30 -50t92 -15t92 15t30 50zM1592 1050v-1050h-605q-3 54 9 103t47 126l-19 12q-96 -133 -224 -197t-311 -64q-212 0 -323 88t-111 264v718h615v-539q0 -72 31.5 -106.5t97.5 -34.5q86 0 132 70
t46 200v410h615z" />
    <glyph glyph-name="Uring" unicode="&#x16e;" horiz-adv-x="1776" 
d="M888 1450q-155 0 -237.5 49.5t-82.5 141.5t83 141t237 49t237 -49t83 -141t-82.5 -141.5t-237.5 -49.5zM888 1592q69 0 69 49q0 48 -69 48t-69 -48q0 -49 69 -49zM1086 1400h620v-897q0 -281 -198 -407.5t-615 -126.5q-422 0 -622.5 126.5t-200.5 407.5v897h620v-845
q0 -107 49.5 -156t153.5 -49q99 0 146 48.5t47 156.5v845z" />
    <glyph glyph-name="uring" unicode="&#x16f;" horiz-adv-x="1652" 
d="M824 1120q-135 0 -215 69t-80 186t80 186t215 69t215 -69t80 -186t-80 -186t-215 -69zM824 1310q28 0 46.5 18t18.5 47t-18.5 47t-46.5 18t-46.5 -18t-18.5 -47t18.5 -47t46.5 -18zM1592 1050v-1050h-605q-3 54 9 103t47 126l-19 12q-96 -133 -224 -197t-311 -64
q-212 0 -323 88t-111 264v718h615v-539q0 -72 31.5 -106.5t97.5 -34.5q86 0 132 70t46 200v410h615z" />
    <glyph glyph-name="Uhungarumlaut" unicode="&#x170;" horiz-adv-x="1776" 
d="M382 1478l93 242h510l-193 -242h-410zM947 1478l93 242h510l-193 -242h-410zM1086 1400h620v-897q0 -281 -198 -407.5t-615 -126.5q-422 0 -622.5 126.5t-200.5 407.5v897h620v-845q0 -107 49.5 -156t153.5 -49q99 0 146 48.5t47 156.5v845z" />
    <glyph glyph-name="uhungarumlaut" unicode="&#x171;" horiz-adv-x="1652" 
d="M479 1400h510l-253 -272h-380zM1045 1400h510l-253 -272h-380zM1592 1050v-1050h-605q-3 54 9 103t47 126l-19 12q-96 -133 -224 -197t-311 -64q-212 0 -323 88t-111 264v718h615v-539q0 -72 31.5 -106.5t97.5 -34.5q86 0 132 70t46 200v410h615z" />
    <glyph glyph-name="Uogonek" unicode="&#x172;" horiz-adv-x="1776" 
d="M1086 1400h620v-897q0 -204 -104 -325.5t-317 -171.5q-63 -30 -89 -51.5t-26 -42.5q0 -34 65 -34q40 0 80 11l-38 -234q-91 -35 -234 -35q-276 0 -276 180q0 101 94 169q-405 5 -598 131.5t-193 402.5v897h620v-845q0 -107 49.5 -156t153.5 -49q99 0 146 48.5t47 156.5
v845z" />
    <glyph glyph-name="uogonek" unicode="&#x173;" horiz-adv-x="1652" 
d="M1592 0q-193 -39 -193 -90q0 -32 67 -32q39 0 98 11l-38 -234q-107 -35 -254 -35q-276 0 -276 180q0 68 43 120t123 80h-175q-3 54 9 103t47 126l-19 12q-96 -133 -224 -197t-311 -64q-212 0 -323 88t-111 264v718h615v-539q0 -72 31.5 -106.5t97.5 -34.5q86 0 132 70
t46 200v410h615v-1050z" />
    <glyph glyph-name="Wcircumflex" unicode="&#x174;" horiz-adv-x="2539" 
d="M769 1478l207 242h580l207 -242h-390l-102 80l-102 -80h-400zM334 0l-324 1400h624l108 -594q38 -207 47 -364h21q29 186 72 364l141 594h510l157 -594q46 -175 66 -364h23q16 162 48 364l95 594h607l-311 -1400h-790l-74 336q-52 236 -73 438h-21q-21 -209 -71 -438
l-74 -336h-781z" />
    <glyph glyph-name="wcircumflex" unicode="&#x175;" horiz-adv-x="2130" 
d="M584 1128l217 272h530l217 -272h-380l-102 80l-102 -80h-380zM283 0l-283 1050h562l86 -455q19 -102 29 -215h20q11 124 29 218l82 452h530l94 -450q21 -106 31 -220h21q7 103 26 215l74 455h546l-281 -1050h-688l-48 306q-26 165 -40 326h-20q-10 -152 -37 -326
l-45 -306h-688z" />
    <glyph glyph-name="Ycircumflex" unicode="&#x176;" horiz-adv-x="1732" 
d="M365 1478l207 242h580l207 -242h-390l-102 80l-102 -80h-400zM1727 1400l-551 -960v-440h-620v440l-551 960h644l107 -224q71 -150 112 -298h21q44 157 109 299l102 223h627z" />
    <glyph glyph-name="ycircumflex" unicode="&#x177;" horiz-adv-x="1628" 
d="M340 1128l217 272h530l217 -272h-380l-102 80l-102 -80h-380zM115 -380l-32 342l137 7q175 9 214 52l20 22l-454 1007h623l118 -399q42 -142 75 -312h20q29 157 73 312l112 399h607l-236 -614q-50 -131 -95.5 -228t-100.5 -179.5t-108.5 -138.5t-129 -101.5t-152.5 -73
t-188 -47.5t-226.5 -30.5t-276.5 -17.5z" />
    <glyph glyph-name="Ydieresis" unicode="&#x178;" horiz-adv-x="1732" 
d="M291 1480v280h535v-280h-535zM906 1480v280h535v-280h-535zM1727 1400l-551 -960v-440h-620v440l-551 960h644l107 -224q71 -150 112 -298h21q44 157 109 299l102 223h627z" />
    <glyph glyph-name="Zacute" unicode="&#x179;" horiz-adv-x="1431" 
d="M508 1478l93 242h510l-193 -242h-410zM24 0l-4 12l434 828q51 97 101 173l-10 20q-85 -3 -147 -3h-355v370h1345l4 -13l-396 -829q-40 -84 -92 -172l10 -20q60 4 159 4h338v-370h-1387z" />
    <glyph glyph-name="zacute" unicode="&#x17a;" horiz-adv-x="1320" 
d="M575 1400h510l-253 -272h-380zM29 0l-9 22l339 539q45 70 93 133l-10 20q-67 -4 -140 -4h-251v340h1232l9 -22l-332 -524q-55 -85 -105 -149l10 -20q76 5 178 5h257v-340h-1271z" />
    <glyph glyph-name="Zdotaccent" unicode="&#x17b;" horiz-adv-x="1431" 
d="M478 1480v280h475v-280h-475zM24 0l-4 12l434 828q51 97 101 173l-10 20q-85 -3 -147 -3h-355v370h1345l4 -13l-396 -829q-40 -84 -92 -172l10 -20q60 4 159 4h338v-370h-1387z" />
    <glyph glyph-name="zdotaccent" unicode="&#x17c;" horiz-adv-x="1320" 
d="M402 1110v290h515v-290h-515zM29 0l-9 22l339 539q45 70 93 133l-10 20q-67 -4 -140 -4h-251v340h1232l9 -22l-332 -524q-55 -85 -105 -149l10 -20q76 5 178 5h257v-340h-1271z" />
    <glyph glyph-name="Zcaron" unicode="&#x17d;" horiz-adv-x="1431" 
d="M219 1720h400l102 -80l102 80h390l-207 -242h-580zM24 0l-4 12l434 828q51 97 101 173l-10 20q-85 -3 -147 -3h-355v370h1345l4 -13l-396 -829q-40 -84 -92 -172l10 -20q60 4 159 4h338v-370h-1387z" />
    <glyph glyph-name="zcaron" unicode="&#x17e;" horiz-adv-x="1320" 
d="M178 1400h380l102 -80l102 80h380l-217 -272h-530zM29 0l-9 22l339 539q45 70 93 133l-10 20q-67 -4 -140 -4h-251v340h1232l9 -22l-332 -524q-55 -85 -105 -149l10 -20q76 5 178 5h257v-340h-1271z" />
    <glyph glyph-name="Gcaron" unicode="&#x1e6;" horiz-adv-x="1902" 
d="M454 1720h400l102 -80l102 80h390l-207 -242h-580zM732 -31q-342 0 -509.5 181.5t-167.5 552.5v4q0 366 221.5 544.5t674.5 178.5q404 0 617.5 -122t245.5 -371l-639 -75q-41 188 -224 188q-130 0 -193 -81t-63 -248v-25q0 -170 63 -253t193 -83q187 0 226 175h-279v280
h934v-815h-506q-13 106 62 306l-27 11q-173 -348 -629 -348z" />
    <glyph glyph-name="gcaron" unicode="&#x1e7;" horiz-adv-x="1607" 
d="M1019 288q58 -3 106.5 -7t111.5 -14.5t112 -25.5t99.5 -40.5t83.5 -58.5t54 -81t21 -106q0 -126 -79.5 -197.5t-257.5 -104t-492 -32.5q-129 0 -224 2.5t-180 8.5t-143 16.5t-104.5 25.5t-73 37.5t-40 51t-13.5 66.5q0 75 57.5 115.5t190.5 53.5v27q-228 57 -228 200
q0 85 65.5 128t221.5 55v26q-237 86 -237 291q0 179 183 267t557 88q119 0 220 -9q-61 162 58.5 258.5t407.5 100.5l33 -318l-167 -6q-112 -4 -146 -16t-32 -41q363 -71 363 -324q0 -180 -182 -268t-555 -88q-147 0 -271 14q-39 -6 -39 -31q0 -26 53 -35.5t233 -17.5z
M845 1128h-530l-217 272h380l102 -80l102 80h380zM810 814q-77 0 -111.5 -21t-34.5 -68q0 -48 34.5 -69t111.5 -21q76 0 109.5 21t33.5 69q0 47 -33.5 68t-109.5 21zM817 -101q125 0 195.5 1.5t104.5 7t41.5 11t7.5 17.5q0 11 -12.5 17.5t-49.5 11.5t-98.5 8.5t-165.5 6.5
l-272 8q-54 2 -80 4q-40 -15 -40 -43q0 -36 62 -43t307 -7z" />
    <glyph glyph-name="uni01EA" unicode="&#x1ea;" horiz-adv-x="1900" 
d="M950 1430q452 0 673.5 -181.5t221.5 -551.5v-4q0 -289 -137.5 -460.5t-416.5 -230.5q-58 -29 -82 -49.5t-24 -40.5q0 -34 65 -34q40 0 80 11l-38 -234q-91 -35 -234 -35q-276 0 -276 180q0 102 97 171q-416 13 -620 192t-204 530v4q0 370 221.5 551.5t673.5 181.5z
M695 683q0 -163 63 -243t192 -80t192 80t63 243v25q0 168 -63 250t-192 82t-192 -82t-63 -250v-25z" />
    <glyph glyph-name="uni01EB" unicode="&#x1eb;" horiz-adv-x="1678" 
d="M839 1080q399 0 594 -132t195 -403v-41q0 -392 -415 -496q-66 -32 -92.5 -53.5t-26.5 -42.5q0 -34 65 -34q40 0 80 11l-38 -234q-91 -35 -234 -35q-276 0 -276 180q0 101 95 170q-372 8 -554 140t-182 394v41q0 271 195 403t594 132zM675 513q0 -204 164 -204t164 204v23
q0 104 -40.5 154t-123.5 50t-123.5 -50t-40.5 -154v-23z" />
    <glyph glyph-name="AEacute" unicode="&#x1fc;" horiz-adv-x="2350" 
d="M866 1478l93 242h510l-193 -242h-410zM5 0l672 1400h1633v-360h-636v-175h595v-330h-595v-175h656v-360h-1276v142h-381l-61 -142h-607zM803 452h251v588h-23q-29 -96 -76 -216z" />
    <glyph glyph-name="aeacute" unicode="&#x1fd;" horiz-adv-x="2487" 
d="M1659 1400l-253 -272h-380l123 272h510zM2437 556q0 -77 -10 -140h-915q18 -148 161 -148q50 0 82.5 26.5t42.5 77.5l627 -29q-50 -373 -752 -373q-563 0 -659 280h-22q-137 -280 -557 -280q-196 0 -303 79.5t-107 220.5v2q0 84 38 146.5t112.5 104t168.5 67.5t224 44
l326 45v27q0 43 -26.5 65.5t-76.5 22.5q-56 0 -82 -26t-22 -83h-620q-15 188 157.5 291.5t517.5 103.5q153 0 284 -37.5t208 -97.5q78 60 208.5 97.5t290.5 37.5q342 0 523 -131.5t181 -392.5zM1808 652v4q0 127 -135 127q-132 0 -157 -131h292zM894 465v8l-92 -14
q-158 -24 -158 -97v-2q0 -53 70 -53q65 0 122.5 50t57.5 108z" />
    <glyph glyph-name="Oslashacute" unicode="&#x1fe;" horiz-adv-x="1920" 
d="M1355 1720l-193 -242h-410l93 242h510zM1644 1229q221 -189 221 -532v-4q0 -349 -234 -536t-671 -187q-219 0 -392 49l-106 -119h-427l239 269q-219 188 -219 524v4q0 353 234.5 543t670.5 190q219 0 392 -50l106 120h427zM675 683q0 -31 3 -60l370 416q-42 11 -88 11
q-137 0 -211 -88.5t-74 -253.5v-25zM1245 683v25q0 40 -4 68l-369 -415q42 -11 88 -11q137 0 211 86.5t74 246.5z" />
    <glyph glyph-name="oslashacute" unicode="&#x1ff;" horiz-adv-x="1698" 
d="M1274 1400l-253 -272h-380l123 272h510zM1449 955q239 -139 239 -410v-41q0 -258 -217.5 -396.5t-621.5 -138.5q-151 0 -269 19l-80 -89h-427l176 195q-239 139 -239 410v41q0 258 217.5 396.5t621.5 138.5q151 0 269 -19l80 89h427zM535 513q0 -45 14 -84l307 341h-7
q-151 0 -232.5 -60.5t-81.5 -173.5v-23zM1163 513v23q0 45 -14 84l-307 -341h7q151 0 232.5 60.5t81.5 173.5z" />
    <glyph glyph-name="uni0218" unicode="&#x218;" horiz-adv-x="1734" 
d="M854 -31q-245 0 -425.5 53.5t-279 159.5t-94.5 253l619 37q3 -80 59.5 -116.5t165.5 -36.5q85 0 125.5 17.5t40.5 56.5q0 28 -22.5 44.5t-81.5 31.5t-187 37l-246 42q-97 17 -176 48.5t-144 81.5t-101.5 126.5t-36.5 172.5q0 149 97.5 252t272.5 152t418 49
q372 0 580 -127.5t198 -334.5l-557 -43q-7 76 -62 115.5t-173 39.5q-89 0 -135 -20.5t-46 -55.5q0 -24 13.5 -37t70 -28.5t177.5 -35.5l246 -40q61 -10 106 -19t101 -25.5t96.5 -36.5t81.5 -50.5t66.5 -68t41.5 -89.5t16 -114q0 -155 -101.5 -266.5t-286.5 -168t-437 -56.5z
M635 -90h463v-88q0 -59 -10 -95t-35.5 -65t-77.5 -43t-129.5 -21.5t-197.5 -7.5l-13 96q100 4 125.5 12.5t25.5 32.5h-151v179z" />
    <glyph glyph-name="uni0219" unicode="&#x219;" horiz-adv-x="1546" 
d="M771 -20q-277 0 -438 38t-229 116.5t-64 210.5l596 -6q-5 -58 28 -86t105 -28q133 0 133 58q0 32 -56.5 49t-209.5 41l-185 28q-50 8 -81 13.5t-78 18t-76.5 26.5t-63.5 37t-53.5 51.5t-33 69.5t-13.5 91q0 182 167 277t531 95q387 0 557 -81.5t164 -251.5l-579 -2
q5 51 -30 73t-116 22q-103 0 -103 -52q0 -25 48 -39.5t188 -32.5l186 -24q51 -7 84.5 -12t84 -17.5t84.5 -27.5t72.5 -40.5t61.5 -57.5t38.5 -78.5t15.5 -102.5q0 -129 -71 -210.5t-234 -123.5t-430 -42zM541 -90h463v-88q0 -59 -10 -95t-35.5 -65t-77.5 -43t-129.5 -21.5
t-197.5 -7.5l-13 96q100 4 125.5 12.5t25.5 32.5h-151v179z" />
    <glyph glyph-name="uni021A" unicode="&#x21a;" horiz-adv-x="1486" 
d="M433 0v980h-418v420h1456v-420h-418v-980h-620zM511 -90h463v-88q0 -59 -10 -95t-35.5 -65t-77.5 -43t-129.5 -21.5t-197.5 -7.5l-13 96q100 4 125.5 12.5t25.5 32.5h-151v179z" />
    <glyph glyph-name="uni021B" unicode="&#x21b;" horiz-adv-x="1011" 
d="M583 -29q-224 0 -333.5 85.5t-109.5 260.5v393h-110v340h110v190l615 120v-310h226v-340h-226v-257q0 -57 25.5 -80t88.5 -23q65 0 122 15l-24 -342q-155 -52 -384 -52zM351 -90h463v-88q0 -59 -10 -95t-35.5 -65t-77.5 -43t-129.5 -21.5t-197.5 -7.5l-13 96
q100 4 125.5 12.5t25.5 32.5h-151v179z" />
    <glyph glyph-name="uni0237" unicode="&#x237;" horiz-adv-x="735" 
d="M-116 -375l-29 330l96 8q69 6 89 28t20 82v977h615v-948q0 -103 -17.5 -178t-55.5 -132t-99.5 -91t-149.5 -55t-204.5 -24t-264.5 3z" />
    <glyph glyph-name="circumflex" unicode="&#x2c6;" horiz-adv-x="964" 
d="M0 1128l217 272h530l217 -272h-380l-102 80l-102 -80h-380z" />
    <glyph glyph-name="caron" unicode="&#x2c7;" horiz-adv-x="964" 
d="M0 1400h380l102 -80l102 80h380l-217 -272h-530z" />
    <glyph glyph-name="breve" unicode="&#x2d8;" horiz-adv-x="944" 
d="M594 1400h350q-4 -139 -120 -208t-352 -69t-352 69t-120 208h350q2 -35 30 -50t92 -15t92 15t30 50z" />
    <glyph glyph-name="dotaccent" unicode="&#x2d9;" horiz-adv-x="515" 
d="M0 1110v290h515v-290h-515z" />
    <glyph glyph-name="ring" unicode="&#x2da;" horiz-adv-x="590" 
d="M295 1120q-135 0 -215 69t-80 186t80 186t215 69t215 -69t80 -186t-80 -186t-215 -69zM295 1310q29 0 47 18t18 47t-18 47t-47 18t-47 -18t-18 -47t18 -47t47 -18z" />
    <glyph glyph-name="ogonek" unicode="&#x2db;" horiz-adv-x="508" 
d="M166 10h360q-68 -33 -95.5 -55t-27.5 -43q0 -34 65 -34q40 0 80 11l-38 -234q-91 -35 -234 -35q-276 0 -276 180q0 136 166 210z" />
    <glyph glyph-name="tilde" unicode="&#x2dc;" horiz-adv-x="1093" 
d="M763 1142q-76 0 -158 20t-144 39.5t-92 19.5q-29 0 -46 -16t-23 -53h-300q0 160 85 254t235 94q79 0 162.5 -20t147 -39.5t93.5 -19.5t47 15.5t23 53.5h300q0 -161 -86.5 -254.5t-243.5 -93.5z" />
    <glyph glyph-name="hungarumlaut" unicode="&#x2dd;" horiz-adv-x="1199" 
d="M123 1400h510l-253 -272h-380zM689 1400h510l-253 -272h-380z" />
    <glyph glyph-name="gravecomb" unicode="&#x300;" 
d="M-123 1400l123 -272h-380l-253 272h510z" />
    <glyph glyph-name="acutecomb" unicode="&#x301;" 
d="M-510 1400h510l-253 -272h-380z" />
    <glyph glyph-name="uni0302" unicode="&#x302;" 
d="M-964 1128l217 272h530l217 -272h-380l-102 80l-102 -80h-380z" />
    <glyph glyph-name="tildecomb" unicode="&#x303;" 
d="M-330 1142q-76 0 -158 20t-144 39.5t-92 19.5q-29 0 -46 -16t-23 -53h-300q0 160 85 254t235 94q79 0 162.5 -20t147 -39.5t93.5 -19.5t47 15.5t23 53.5h300q0 -161 -86.5 -254.5t-243.5 -93.5z" />
    <glyph glyph-name="uni0304" unicode="&#x304;" 
d="M-915 1125v275h915v-275h-915z" />
    <glyph glyph-name="uni0306" unicode="&#x306;" 
d="M-350 1400h350q-4 -139 -120 -208t-352 -69t-352 69t-120 208h350q2 -35 30 -50t92 -15t92 15t30 50z" />
    <glyph glyph-name="uni0307" unicode="&#x307;" 
d="M-515 1110v290h515v-290h-515z" />
    <glyph glyph-name="uni0308" unicode="&#x308;" 
d="M-1150 1120v280h535v-280h-535zM-535 1120v280h535v-280h-535z" />
    <glyph glyph-name="uni030A" unicode="&#x30a;" 
d="M-295 1120q-135 0 -215 69t-80 186t80 186t215 69t215 -69t80 -186t-80 -186t-215 -69zM-295 1310q29 0 47 18t18 47t-18 47t-47 18t-47 -18t-18 -47t18 -47t47 -18z" />
    <glyph glyph-name="uni030B" unicode="&#x30b;" 
d="M-1076 1400h510l-253 -272h-380zM-510 1400h510l-253 -272h-380z" />
    <glyph glyph-name="uni030C" unicode="&#x30c;" 
d="M-964 1400h380l102 -80l102 80h380l-217 -272h-530z" />
    <glyph glyph-name="uni0326" unicode="&#x326;" 
d="M-463 -90h463v-88q0 -59 -10 -95t-35.5 -65t-77.5 -43t-129.5 -21.5t-197.5 -7.5l-13 96q100 4 125.5 12.5t25.5 32.5h-151v179z" />
    <glyph glyph-name="uni0327" unicode="&#x327;" 
d="M-304 -380q-128 0 -254 49l30 172q89 -36 170 -36q54 0 54 26t-50 35.5t-166 11.5l23 132h251l-18 -77q134 -5 199 -38t65 -106q0 -169 -304 -169z" />
    <glyph glyph-name="uni0328" unicode="&#x328;" 
d="M-430 0h430q-193 -39 -193 -90q0 -32 67 -32q39 0 98 11l-38 -234q-107 -35 -254 -35q-276 0 -276 180q0 68 43 120t123 80z" />
    <glyph glyph-name="Wgrave" unicode="&#x1e80;" horiz-adv-x="2539" 
d="M1478 1478h-410l-193 242h510zM334 0l-324 1400h624l108 -594q38 -207 47 -364h21q29 186 72 364l141 594h510l157 -594q46 -175 66 -364h23q16 162 48 364l95 594h607l-311 -1400h-790l-74 336q-52 236 -73 438h-21q-21 -209 -71 -438l-74 -336h-781z" />
    <glyph glyph-name="wgrave" unicode="&#x1e81;" horiz-adv-x="2130" 
d="M1150 1400l123 -272h-380l-253 272h510zM283 0l-283 1050h562l86 -455q19 -102 29 -215h20q11 124 29 218l82 452h530l94 -450q21 -106 31 -220h21q7 103 26 215l74 455h546l-281 -1050h-688l-48 306q-26 165 -40 326h-20q-10 -152 -37 -326l-45 -306h-688z" />
    <glyph glyph-name="Wacute" unicode="&#x1e82;" horiz-adv-x="2539" 
d="M1062 1478l93 242h510l-193 -242h-410zM334 0l-324 1400h624l108 -594q38 -207 47 -364h21q29 186 72 364l141 594h510l157 -594q46 -175 66 -364h23q16 162 48 364l95 594h607l-311 -1400h-790l-74 336q-52 236 -73 438h-21q-21 -209 -71 -438l-74 -336h-781z" />
    <glyph glyph-name="wacute" unicode="&#x1e83;" horiz-adv-x="2130" 
d="M980 1400h510l-253 -272h-380zM283 0l-283 1050h562l86 -455q19 -102 29 -215h20q11 124 29 218l82 452h530l94 -450q21 -106 31 -220h21q7 103 26 215l74 455h546l-281 -1050h-688l-48 306q-26 165 -40 326h-20q-10 -152 -37 -326l-45 -306h-688z" />
    <glyph glyph-name="Wdieresis" unicode="&#x1e84;" horiz-adv-x="2539" 
d="M695 1480v280h535v-280h-535zM1310 1480v280h535v-280h-535zM334 0l-324 1400h624l108 -594q38 -207 47 -364h21q29 186 72 364l141 594h510l157 -594q46 -175 66 -364h23q16 162 48 364l95 594h607l-311 -1400h-790l-74 336q-52 236 -73 438h-21q-21 -209 -71 -438
l-74 -336h-781z" />
    <glyph glyph-name="wdieresis" unicode="&#x1e85;" horiz-adv-x="2130" 
d="M490 1120v280h535v-280h-535zM1105 1120v280h535v-280h-535zM283 0l-283 1050h562l86 -455q19 -102 29 -215h20q11 124 29 218l82 452h530l94 -450q21 -106 31 -220h21q7 103 26 215l74 455h546l-281 -1050h-688l-48 306q-26 165 -40 326h-20q-10 -152 -37 -326l-45 -306
h-688z" />
    <glyph glyph-name="uni1E9E" unicode="&#x1e9e;" horiz-adv-x="1730" 
d="M1051 -14q-134 0 -275 27l18 348q68 -16 119 -16q130 0 130 57q0 19 -10 38.5t-44 57.5l-49 56q-44 51 -67 94t-23 98q0 41 25.5 83t56 70t56 59t25.5 53q0 35 -38.5 56.5t-113.5 21.5q-181 0 -181 -138v-951h-620v940q0 248 194.5 369t592.5 121q392 0 591 -85t199 -239
q0 -47 -20 -91.5t-48.5 -77.5t-56.5 -61.5t-48 -54.5t-20 -46q0 -33 18.5 -65.5t65.5 -80.5l63 -64q99 -101 99 -219q0 -190 -155.5 -275t-483.5 -85z" />
    <glyph glyph-name="uni1EBC" unicode="&#x1ebc;" horiz-adv-x="1471" 
d="M967 1469q-85 0 -169 19.5t-145 39.5t-90 20t-46 -16t-23 -53h-280q0 154 87 231t243 77q69 0 138.5 -12.5t115 -27t90 -27t69.5 -12.5q30 0 47 15.5t23 53.5h280q0 -155 -88.5 -231.5t-251.5 -76.5zM695 360h756v-360h-1376v1400h1356v-360h-736v-175h695v-330h-695
v-175z" />
    <glyph glyph-name="uni1EBD" unicode="&#x1ebd;" horiz-adv-x="1683" 
d="M671 1221q-29 0 -46 -16t-23 -53h-300q0 160 85 254t235 94q79 0 162.5 -20t147 -39.5t93.5 -19.5t47 15.5t23 53.5h300q0 -161 -86.5 -254.5t-243.5 -93.5q-76 0 -158 20t-144 39.5t-92 19.5zM1633 556q0 -77 -10 -140h-935q18 -148 161 -148q126 0 145 104l627 -29
q-25 -189 -216 -281t-556 -92q-404 0 -601.5 131t-197.5 400v46q0 269 197.5 401t601.5 132q397 0 590.5 -129.5t193.5 -394.5zM1004 652v4q0 127 -155 127q-132 0 -157 -131h312z" />
    <glyph glyph-name="Ygrave" unicode="&#x1ef2;" horiz-adv-x="1732" 
d="M1074 1478h-410l-193 242h510zM1727 1400l-551 -960v-440h-620v440l-551 960h644l107 -224q71 -150 112 -298h21q44 157 109 299l102 223h627z" />
    <glyph glyph-name="ygrave" unicode="&#x1ef3;" horiz-adv-x="1628" 
d="M906 1400l123 -272h-380l-253 272h510zM115 -380l-32 342l137 7q175 9 214 52l20 22l-454 1007h623l118 -399q42 -142 75 -312h20q29 157 73 312l112 399h607l-236 -614q-50 -131 -95.5 -228t-100.5 -179.5t-108.5 -138.5t-129 -101.5t-152.5 -73t-188 -47.5
t-226.5 -30.5t-276.5 -17.5z" />
    <glyph glyph-name="uni1EF8" unicode="&#x1ef8;" horiz-adv-x="1732" 
d="M1072 1469q-85 0 -169 19.5t-145 39.5t-90 20t-46 -16t-23 -53h-280q0 154 87 231t243 77q69 0 138.5 -12.5t115 -27t90 -27t69.5 -12.5q30 0 47 15.5t23 53.5h280q0 -155 -88.5 -231.5t-251.5 -76.5zM1727 1400l-551 -960v-440h-620v440l-551 960h644l107 -224
q71 -150 112 -298h21q44 157 109 299l102 223h627z" />
    <glyph glyph-name="uni1EF9" unicode="&#x1ef9;" horiz-adv-x="1628" 
d="M1037 1142q-76 0 -158 20t-144 39.5t-92 19.5q-29 0 -46 -16t-23 -53h-300q0 160 85 254t235 94q79 0 162.5 -20t147 -39.5t93.5 -19.5t47 15.5t23 53.5h300q0 -161 -86.5 -254.5t-243.5 -93.5zM115 -380l-32 342l137 7q175 9 214 52l20 22l-454 1007h623l118 -399
q42 -142 75 -312h20q29 157 73 312l112 399h607l-236 -614q-50 -131 -95.5 -228t-100.5 -179.5t-108.5 -138.5t-129 -101.5t-152.5 -73t-188 -47.5t-226.5 -30.5t-276.5 -17.5z" />
    <glyph glyph-name="uni2002" unicode="&#x2002;" horiz-adv-x="1024" 
 />
    <glyph glyph-name="uni2003" unicode="&#x2003;" horiz-adv-x="2048" 
 />
    <glyph glyph-name="uni2004" unicode="&#x2004;" horiz-adv-x="683" 
 />
    <glyph glyph-name="uni2005" unicode="&#x2005;" horiz-adv-x="512" 
 />
    <glyph glyph-name="uni2006" unicode="&#x2006;" horiz-adv-x="341" 
 />
    <glyph glyph-name="uni2007" unicode="&#x2007;" horiz-adv-x="1500" 
 />
    <glyph glyph-name="uni2008" unicode="&#x2008;" horiz-adv-x="671" 
 />
    <glyph glyph-name="uni2009" unicode="&#x2009;" horiz-adv-x="410" 
 />
    <glyph glyph-name="uni200A" unicode="&#x200a;" horiz-adv-x="293" 
 />
    <glyph glyph-name="endash" unicode="&#x2013;" horiz-adv-x="1268" 
d="M60 686h1148v-315h-1148v315z" />
    <glyph glyph-name="emdash" unicode="&#x2014;" horiz-adv-x="1879" 
d="M60 686h1759v-315h-1759v315z" />
    <glyph glyph-name="quoteleft" unicode="&#x2018;" horiz-adv-x="671" 
d="M611 649h-551v359q0 85 26.5 155t73 118t111.5 81.5t139.5 49.5t159.5 18l41 -184q-113 -11 -162 -44t-49 -114h211v-439z" />
    <glyph glyph-name="quoteright" unicode="&#x2019;" horiz-adv-x="671" 
d="M60 1400h551v-359q0 -85 -26.5 -155t-73 -118t-111.5 -81.5t-139.5 -49.5t-159.5 -18l-41 184q113 11 162 44t49 114h-211v439z" />
    <glyph glyph-name="quotesinglbase" unicode="&#x201a;" horiz-adv-x="671" 
d="M60 439h551v-359q0 -85 -26.5 -155t-73 -118t-111.5 -81.5t-139.5 -49.5t-159.5 -18l-41 184q113 11 162 44t49 114h-211v439z" />
    <glyph glyph-name="quotedblleft" unicode="&#x201c;" horiz-adv-x="1292" 
d="M611 649h-551v359q0 85 26.5 155t73 118t111.5 81.5t139.5 49.5t159.5 18l41 -184q-113 -11 -162 -44t-49 -114h211v-439zM1232 649h-551v359q0 85 26.5 155t73 118t111.5 81.5t139.5 49.5t159.5 18l41 -184q-113 -11 -162 -44t-49 -114h211v-439z" />
    <glyph glyph-name="quotedblright" unicode="&#x201d;" horiz-adv-x="1292" 
d="M60 1400h551v-359q0 -85 -26.5 -155t-73 -118t-111.5 -81.5t-139.5 -49.5t-159.5 -18l-41 184q113 11 162 44t49 114h-211v439zM681 1400h551v-359q0 -85 -26.5 -155t-73 -118t-111.5 -81.5t-139.5 -49.5t-159.5 -18l-41 184q113 11 162 44t49 114h-211v439z" />
    <glyph glyph-name="quotedblbase" unicode="&#x201e;" horiz-adv-x="1292" 
d="M60 439h551v-359q0 -85 -26.5 -155t-73 -118t-111.5 -81.5t-139.5 -49.5t-159.5 -18l-41 184q113 11 162 44t49 114h-211v439zM681 439h551v-359q0 -85 -26.5 -155t-73 -118t-111.5 -81.5t-139.5 -49.5t-159.5 -18l-41 184q113 11 162 44t49 114h-211v439z" />
    <glyph glyph-name="dagger" unicode="&#x2020;" horiz-adv-x="1270" 
d="M606 -350q-138 410 -206 970l-325 -30v470l325 -30l-25 370h520l-25 -370l325 30v-470l-325 30q-65 -551 -205 -970h-59z" />
    <glyph glyph-name="daggerdbl" unicode="&#x2021;" horiz-adv-x="1270" 
d="M375 -350l25 370l-325 -30v410l355 -30l5 155l-5 155l-355 -30v410l325 -30l-25 370h520l-25 -370l325 30v-410l-355 30l-5 -155l5 -155l355 30v-410l-325 30l25 -370h-520z" />
    <glyph glyph-name="bullet" unicode="&#x2022;" horiz-adv-x="960" 
d="M180 262v560h600v-560h-600z" />
    <glyph glyph-name="ellipsis" unicode="&#x2026;" horiz-adv-x="1789" 
d="M60 439h511v-439h-511v439zM639 439h511v-439h-511v439zM1218 439h511v-439h-511v439z" />
    <glyph glyph-name="perthousand" unicode="&#x2030;" horiz-adv-x="3731" 
d="M592 660q-274 0 -408 92t-134 279v28q0 187 134 279t408 92t408 -92t134 -279v-28q0 -187 -134 -279t-408 -92zM565 0l987 1400h484l-987 -1400h-484zM592 920q101 0 101 117v16q0 118 -101 118t-101 -118v-16q0 -117 101 -117zM2009 -30q-274 0 -408 92t-134 279v28
q0 187 134 279t408 92t408 -92t134 -279v-28q0 -187 -134 -279t-408 -92zM3139 -30q-274 0 -408 92t-134 279v28q0 187 134 279t408 92t408 -92t134 -279v-28q0 -187 -134 -279t-408 -92zM2009 230q101 0 101 117v16q0 118 -101 118t-101 -118v-16q0 -117 101 -117z
M3139 230q101 0 101 117v16q0 118 -101 118t-101 -118v-16q0 -117 101 -117z" />
    <glyph glyph-name="guilsinglleft" unicode="&#x2039;" horiz-adv-x="975" 
d="M398 100l-348 425l351 425h524l-336 -425l336 -425h-527z" />
    <glyph glyph-name="guilsinglright" unicode="&#x203a;" horiz-adv-x="975" 
d="M577 100h-527l336 425l-336 425h524l351 -425z" />
    <glyph glyph-name="fraction" unicode="&#x2044;" horiz-adv-x="670" 
d="M-250 0l750 1400h420l-750 -1400h-420z" />
    <glyph glyph-name="Euro" unicode="&#x20ac;" horiz-adv-x="1953" 
d="M1025 361q115 0 180 62t76 206l620 -66q-28 -301 -244.5 -447t-631.5 -146q-370 0 -582 120t-276 365h-157v200h130q-1 14 -1 43v4q0 29 1 43h-130v200h157q64 245 276 365t582 120q421 0 638 -148.5t240 -452.5l-619 -59q-7 152 -73 216.5t-186 64.5q-159 0 -220 -106
h345l-45 -200h-345q-1 -10 -1 -32v-25q0 -22 1 -33h325l-45 -200h-229q63 -94 214 -94z" />
    <glyph glyph-name="trademark" unicode="&#x2122;" horiz-adv-x="2355" 
d="M256 560v538h-241v302h874v-302h-241v-538h-392zM960 560v840h495l80 -245q40 -121 77 -257h22q35 131 75 257l79 245h492v-840h-370v238q0 65 7 163l-22 3l-116 -404h-318l-116 404l-22 -3q7 -98 7 -163v-238h-370z" />
    <glyph glyph-name="uni2153" unicode="&#x2153;" horiz-adv-x="2598" 
d="M729 0l750 1400h420l-750 -1400h-420zM57 589v251h270v192h-251v217q72 1 115.5 3.5t80 9.5t54 15.5t31.5 27.5t19 38.5t10 55.5h303v-559h203v-251h-835zM2130 -20q-473 -2 -461 293l372 27q-1 -100 88 -100q74 0 74 54v1q0 62 -84 66l-52 3v168l52 4q77 6 77 55v5
q0 52 -71 52q-87 0 -83 -97l-362 23q-1 147 117.5 220.5t344.5 73.5q215 0 313 -57.5t98 -178.5v-6q0 -117 -138 -164v-11q163 -44 163 -195v-3q0 -118 -109.5 -175t-338.5 -58z" />
    <glyph glyph-name="uni2154" unicode="&#x2154;" horiz-adv-x="2588" 
d="M28 589v230q520 178 520 307q0 56 -63 56q-89 0 -84 -126l-368 18q-10 174 104 259t350 85q434 0 434 -250q0 -133 -107 -214t-308 -106l1 -12q68 4 118 4h280v-251h-877zM719 0l750 1400h420l-750 -1400h-420zM2120 -20q-473 -2 -461 293l372 27q-1 -100 88 -100
q74 0 74 54v1q0 62 -84 66l-52 3v168l52 4q77 6 77 55v5q0 52 -71 52q-87 0 -83 -97l-362 23q-1 147 117.5 220.5t344.5 73.5q215 0 313 -57.5t98 -178.5v-6q0 -117 -138 -164v-11q163 -44 163 -195v-3q0 -118 -109.5 -175t-338.5 -58z" />
    <glyph glyph-name="oneeighth" unicode="&#x215b;" horiz-adv-x="2598" 
d="M729 0l750 1400h420l-750 -1400h-420zM57 589v251h270v192h-251v217q72 1 115.5 3.5t80 9.5t54 15.5t31.5 27.5t19 38.5t10 55.5h303v-559h203v-251h-835zM2124 -23q-455 0 -455 255v5q0 127 162 172v10q-136 40 -136 165v6q0 235 429 235q428 0 428 -235v-6
q0 -125 -136 -165v-10q162 -45 162 -172v-5q0 -255 -454 -255zM2124 496q87 0 87 56v3q0 57 -87 57t-87 -57v-3q0 -56 87 -56zM2124 190q95 0 95 60v1q0 61 -95 61t-95 -61v-1q0 -60 95 -60z" />
    <glyph glyph-name="threeeighths" unicode="&#x215c;" horiz-adv-x="2568" 
d="M481 569q-473 -2 -461 293l372 27q-1 -100 88 -100q74 0 74 54v1q0 62 -84 66l-52 3v168l52 4q77 6 77 55v5q0 52 -71 52q-87 0 -83 -97l-362 23q-1 147 117.5 220.5t344.5 73.5q215 0 313 -57.5t98 -178.5v-6q0 -117 -138 -164v-11q163 -44 163 -195v-3
q0 -118 -109.5 -175t-338.5 -58zM699 0l750 1400h420l-750 -1400h-420zM2094 -23q-455 0 -455 255v5q0 127 162 172v10q-136 40 -136 165v6q0 235 429 235q428 0 428 -235v-6q0 -125 -136 -165v-10q162 -45 162 -172v-5q0 -255 -454 -255zM2094 496q87 0 87 56v3
q0 57 -87 57t-87 -57v-3q0 -56 87 -56zM2094 190q95 0 95 60v1q0 61 -95 61t-95 -61v-1q0 -60 95 -60z" />
    <glyph glyph-name="fiveeighths" unicode="&#x215d;" horiz-adv-x="2568" 
d="M699 0l750 1400h420l-750 -1400h-420zM486 569q-453 0 -462 246l372 17q9 -47 76 -47q80 0 80 61v3q0 65 -77 65q-67 0 -74 -43l-370 12l18 515h833v-237h-503v-87q96 33 198 33q176 0 262 -63.5t86 -194.5v-9q0 -137 -108.5 -204t-330.5 -67zM2094 -23q-455 0 -455 255
v5q0 127 162 172v10q-136 40 -136 165v6q0 235 429 235q428 0 428 -235v-6q0 -125 -136 -165v-10q162 -45 162 -172v-5q0 -255 -454 -255zM2094 496q87 0 87 56v3q0 57 -87 57t-87 -57v-3q0 -56 87 -56zM2094 190q95 0 95 60v1q0 61 -95 61t-95 -61v-1q0 -60 95 -60z" />
    <glyph glyph-name="seveneighths" unicode="&#x215e;" horiz-adv-x="2428" 
d="M264 589q23 195 86.5 324.5t194.5 228.5h-471v258h802v-201q-82 -70 -127.5 -143t-73 -179.5t-48.5 -287.5h-363zM559 0l750 1400h420l-750 -1400h-420zM1954 -23q-455 0 -455 255v5q0 127 162 172v10q-136 40 -136 165v6q0 235 429 235q428 0 428 -235v-6
q0 -125 -136 -165v-10q162 -45 162 -172v-5q0 -255 -454 -255zM1954 496q87 0 87 56v3q0 57 -87 57t-87 -57v-3q0 -56 87 -56zM1954 190q95 0 95 60v1q0 61 -95 61t-95 -61v-1q0 -60 95 -60z" />
    <glyph glyph-name="arrowleft" unicode="&#x2190;" horiz-adv-x="1300" 
d="M1280 305h-371q-133 0 -230 14l-8 -25q87 -41 158 -81l34 -19v-446l-833 739v69l833 737v-448l-34 -19q-55 -31 -158 -81l8 -25q104 15 230 15h371v-430z" />
    <glyph glyph-name="arrowup" unicode="&#x2191;" horiz-adv-x="1625" 
d="M597 -70v371q0 133 14 230l-25 8q-41 -87 -81 -158l-19 -34h-446l739 833h69l737 -833h-448l-19 34q-31 55 -81 158l-25 -8q15 -104 15 -230v-371h-430z" />
    <glyph glyph-name="arrowright" unicode="&#x2192;" horiz-adv-x="1300" 
d="M20 305v430h371q126 0 230 -15l8 25q-103 50 -158 81l-34 19v448l833 -737v-69l-833 -739v446l34 19q71 40 158 81l-8 25q-97 -14 -230 -14h-371z" />
    <glyph glyph-name="arrowdown" unicode="&#x2193;" horiz-adv-x="1625" 
d="M597 1180h430v-371q0 -126 -15 -230l25 -8q50 103 81 158l19 34h448l-737 -833h-69l-739 833h446l19 -34q40 -71 81 -158l25 8q-14 97 -14 230v371z" />
    <glyph glyph-name="arrowboth" unicode="&#x2194;" horiz-adv-x="2020" 
d="M30 556l833 737v-448l-34 -19q-55 -31 -158 -81l8 -25q104 15 230 15h202q133 0 230 -14l8 25q-87 41 -158 81l-34 19v446l833 -739v-69l-833 -737v448l34 19q55 31 158 81l-8 25q-104 -15 -230 -15h-202q-133 0 -230 14l-8 -25q87 -41 158 -81l34 -19v-446l-833 739v69z
" />
    <glyph glyph-name="arrowupdn" unicode="&#x2195;" horiz-adv-x="1626" 
d="M777 -450l-737 833h448l19 -34q31 -55 81 -158l25 8q-15 104 -15 230v202q0 133 14 230l-25 8q-41 -87 -81 -158l-19 -34h-446l739 833h69l737 -833h-448l-19 34q-31 55 -81 158l-25 -8q15 -104 15 -230v-202q0 -133 -14 -230l25 -8q41 87 81 158l19 34h446l-739 -833
h-69z" />
    <glyph glyph-name="uni2196" unicode="&#x2196;" horiz-adv-x="1239" 
d="M796 46l-263 262q-95 97 -152 173l-24 -13q35 -96 55 -169l10 -37l-315 -315l-67 1111l49 49l1110 -68l-316 -317l-38 11q-52 15 -169 54l-12 -23q86 -64 173 -152l263 -262z" />
    <glyph glyph-name="uni2197" unicode="&#x2197;" horiz-adv-x="1239" 
d="M443 46l-304 304l263 262q87 88 173 152l-12 23q-117 -39 -169 -54l-38 -11l-316 317l1110 68l49 -49l-67 -1111l-315 315l10 37q20 73 55 169l-24 13q-57 -76 -152 -173z" />
    <glyph glyph-name="uni2198" unicode="&#x2198;" horiz-adv-x="1239" 
d="M443 1117l263 -262q95 -97 152 -173l24 13q-35 96 -55 169l-10 37l315 315l67 -1111l-49 -49l-1110 68l316 317l38 -11q52 -15 169 -54l12 23q-86 64 -173 152l-263 262z" />
    <glyph glyph-name="uni2199" unicode="&#x2199;" horiz-adv-x="1239" 
d="M796 1117l304 -304l-263 -262q-87 -88 -173 -152l12 -23q117 39 169 54l38 11l316 -317l-1110 -68l-49 49l67 1111l315 -315l-10 -37q-20 -73 -55 -169l24 -13q57 76 152 173z" />
    <glyph glyph-name="minus" unicode="&#x2212;" horiz-adv-x="1171" 
d="M60 531v380h1051v-380h-1051z" />
    <glyph glyph-name="infinity" unicode="&#x221e;" horiz-adv-x="2070" 
d="M1528 1252q249 0 370.5 -136t121.5 -415v-2q0 -279 -121.5 -415t-370.5 -136q-170 0 -294.5 65t-222.5 177q-102 -113 -215.5 -177.5t-253.5 -64.5q-249 0 -370.5 136t-121.5 415v2q0 279 121.5 415t370.5 136q170 0 294.5 -65t222.5 -177q102 113 215.5 177.5
t253.5 64.5zM1620 699v2q0 156 -142 156q-53 0 -103 -36t-107 -104q56 -81 104.5 -122.5t105.5 -41.5q142 0 142 146zM592 543q53 0 103 36t107 104q-56 81 -104.5 122.5t-105.5 41.5q-142 0 -142 -146v-2q0 -156 142 -156z" />
    <glyph glyph-name="approxequal" unicode="&#x2248;" horiz-adv-x="1293" 
d="M923 726q-76 0 -170 25t-172 50.5t-116 25.5q-86 0 -95 -96h-310q2 244 82.5 363.5t241.5 119.5q79 0 170 -25t165.5 -50.5t114.5 -25.5q80 0 89 96h310q-4 -244 -81 -363.5t-229 -119.5zM923 186q-76 0 -170 25t-172 50.5t-116 25.5q-86 0 -95 -96h-310
q2 244 82.5 363.5t241.5 119.5q79 0 170 -25t165.5 -50.5t114.5 -25.5q80 0 89 96h310q-4 -244 -81 -363.5t-229 -119.5z" />
    <glyph glyph-name="notequal" unicode="&#x2260;" horiz-adv-x="1191" 
d="M1131 761h-336l-38 -120h374v-380h-494l-86 -271h-361l86 271h-216v380h336l38 120h-374v380h494l86 270h361l-86 -270h216v-380z" />
    <glyph glyph-name="lessequal" unicode="&#x2264;" horiz-adv-x="1191" 
d="M1131 435l-1071 200v520l1071 200v-370l-328 -38q-166 -19 -465 -42v-20q299 -23 465 -42l328 -38v-370zM60 56v360h1071v-360h-1071z" />
    <glyph glyph-name="greaterequal" unicode="&#x2265;" horiz-adv-x="1191" 
d="M60 435v370l328 38q166 19 465 42v20q-299 23 -465 42l-328 38v370l1071 -200v-520zM1131 56h-1071v360h1071v-360z" />
    <glyph glyph-name="uni2460" unicode="&#x2460;" horiz-adv-x="1600" 
d="M800 -20q-195 0 -361 96t-262.5 261.5t-96.5 362.5q0 147 57 280.5t153.5 229.5t230 153t279.5 57q196 0 361.5 -96t262 -262t96.5 -362q0 -197 -96.5 -362.5t-262 -261.5t-361.5 -96zM800 60q131 0 249 50.5t204 136t136.5 204t50.5 249.5q0 175 -85.5 322t-233 232.5
t-321.5 85.5t-321 -85.5t-233 -232.5t-86 -322t86 -322.5t233 -232.5t321 -85zM382 305v251h270v192h-251v217q72 1 115.5 3.5t80 9.5t54 15.5t31.5 27.5t19 38.5t10 55.5h303v-559h203v-251h-835z" />
    <glyph glyph-name="uni2461" unicode="&#x2461;" horiz-adv-x="1600" 
d="M800 -20q-195 0 -361 96t-262.5 261.5t-96.5 362.5q0 147 57 280.5t153.5 229.5t230 153t279.5 57q196 0 361.5 -96t262 -262t96.5 -362q0 -197 -96.5 -362.5t-262 -261.5t-361.5 -96zM800 60q131 0 249 50.5t204 136t136.5 204t50.5 249.5q0 175 -85.5 322t-233 232.5
t-321.5 85.5t-321 -85.5t-233 -232.5t-86 -322t86 -322.5t233 -232.5t321 -85zM353 306v230q520 178 520 307q0 56 -63 56q-89 0 -84 -126l-368 18q-10 174 104 259t350 85q434 0 434 -250q0 -133 -107 -214t-308 -106l1 -12q68 4 118 4h280v-251h-877z" />
    <glyph glyph-name="uni2462" unicode="&#x2462;" horiz-adv-x="1600" 
d="M800 -20q-195 0 -361 96t-262.5 261.5t-96.5 362.5q0 147 57 280.5t153.5 229.5t230 153t279.5 57q196 0 361.5 -96t262 -262t96.5 -362q0 -197 -96.5 -362.5t-262 -261.5t-361.5 -96zM800 60q131 0 249 50.5t204 136t136.5 204t50.5 249.5q0 175 -85.5 322t-233 232.5
t-321.5 85.5t-321 -85.5t-233 -232.5t-86 -322t86 -322.5t233 -232.5t321 -85zM806 276q-473 -2 -461 293l372 27q-1 -100 88 -100q74 0 74 54v1q0 62 -84 66l-52 3v168l52 4q77 6 77 55v5q0 52 -71 52q-87 0 -83 -97l-362 23q-1 147 117.5 220.5t344.5 73.5
q215 0 313 -57.5t98 -178.5v-6q0 -117 -138 -164v-11q163 -44 163 -195v-3q0 -118 -109.5 -175t-338.5 -58z" />
    <glyph glyph-name="uni2463" unicode="&#x2463;" horiz-adv-x="1600" 
d="M800 -20q-195 0 -361 96t-262.5 261.5t-96.5 362.5q0 147 57 280.5t153.5 229.5t230 153t279.5 57q196 0 361.5 -96t262 -262t96.5 -362q0 -197 -96.5 -362.5t-262 -261.5t-361.5 -96zM800 60q131 0 249 50.5t204 136t136.5 204t50.5 249.5q0 175 -85.5 322t-233 232.5
t-321.5 85.5t-321 -85.5t-233 -232.5t-86 -322t86 -322.5t233 -232.5t321 -85zM783 305v124h-450v196l320 490h483v-465h90v-221h-90v-124h-353zM647 650h136v98q0 58 6 136l-20 3q-24 -55 -44 -92z" />
    <glyph glyph-name="uni2464" unicode="&#x2464;" horiz-adv-x="1600" 
d="M800 -20q-195 0 -361 96t-262.5 261.5t-96.5 362.5q0 147 57 280.5t153.5 229.5t230 153t279.5 57q196 0 361.5 -96t262 -262t96.5 -362q0 -197 -96.5 -362.5t-262 -261.5t-361.5 -96zM800 60q131 0 249 50.5t204 136t136.5 204t50.5 249.5q0 175 -85.5 322t-233 232.5
t-321.5 85.5t-321 -85.5t-233 -232.5t-86 -322t86 -322.5t233 -232.5t321 -85zM811 285q-453 0 -462 246l372 17q9 -47 76 -47q80 0 80 61v3q0 65 -77 65q-67 0 -74 -43l-370 12l18 515h833v-237h-503v-87q96 33 198 33q176 0 262 -63.5t86 -194.5v-9q0 -137 -108.5 -204
t-330.5 -67z" />
    <glyph glyph-name="uni2465" unicode="&#x2465;" horiz-adv-x="1600" 
d="M800 -20q-195 0 -361 96t-262.5 261.5t-96.5 362.5q0 147 57 280.5t153.5 229.5t230 153t279.5 57q196 0 361.5 -96t262 -262t96.5 -362q0 -197 -96.5 -362.5t-262 -261.5t-361.5 -96zM800 60q131 0 249 50.5t204 136t136.5 204t50.5 249.5q0 175 -85.5 322t-233 232.5
t-321.5 85.5t-321 -85.5t-233 -232.5t-86 -322t86 -322.5t233 -232.5t321 -85zM807 1124q211 0 315 -66t120 -203l-357 -15q-15 62 -93 62q-112 0 -112 -152v-8q116 65 247 65q328 0 328 -240v-1q0 -290 -450 -290q-234 0 -346.5 102t-112.5 310v9q0 427 461 427zM813 618
q-100 0 -100 -62v-1q0 -59 99 -59q102 0 102 59v1q0 62 -101 62z" />
    <glyph glyph-name="uni2466" unicode="&#x2466;" horiz-adv-x="1600" 
d="M800 -20q-195 0 -361 96t-262.5 261.5t-96.5 362.5q0 147 57 280.5t153.5 229.5t230 153t279.5 57q196 0 361.5 -96t262 -262t96.5 -362q0 -197 -96.5 -362.5t-262 -261.5t-361.5 -96zM800 60q131 0 249 50.5t204 136t136.5 204t50.5 249.5q0 175 -85.5 322t-233 232.5
t-321.5 85.5t-321 -85.5t-233 -232.5t-86 -322t86 -322.5t233 -232.5t321 -85zM589 294q23 195 86.5 324.5t194.5 228.5h-471v258h802v-201q-82 -70 -127.5 -143t-73 -179.5t-48.5 -287.5h-363z" />
    <glyph glyph-name="uni2467" unicode="&#x2467;" horiz-adv-x="1600" 
d="M800 -20q-195 0 -361 96t-262.5 261.5t-96.5 362.5q0 147 57 280.5t153.5 229.5t230 153t279.5 57q196 0 361.5 -96t262 -262t96.5 -362q0 -197 -96.5 -362.5t-262 -261.5t-361.5 -96zM800 60q131 0 249 50.5t204 136t136.5 204t50.5 249.5q0 175 -85.5 322t-233 232.5
t-321.5 85.5t-321 -85.5t-233 -232.5t-86 -322t86 -322.5t233 -232.5t321 -85zM800 276q-455 0 -455 255v5q0 127 162 172v10q-136 40 -136 165v6q0 235 429 235q428 0 428 -235v-6q0 -125 -136 -165v-10q162 -45 162 -172v-5q0 -255 -454 -255zM800 795q87 0 87 56v3
q0 57 -87 57t-87 -57v-3q0 -56 87 -56zM800 489q95 0 95 60v1q0 61 -95 61t-95 -61v-1q0 -60 95 -60z" />
    <glyph glyph-name="uni2468" unicode="&#x2468;" horiz-adv-x="1600" 
d="M800 -20q-195 0 -361 96t-262.5 261.5t-96.5 362.5q0 147 57 280.5t153.5 229.5t230 153t279.5 57q196 0 361.5 -96t262 -262t96.5 -362q0 -197 -96.5 -362.5t-262 -261.5t-361.5 -96zM800 60q131 0 249 50.5t204 136t136.5 204t50.5 249.5q0 175 -85.5 322t-233 232.5
t-321.5 85.5t-321 -85.5t-233 -232.5t-86 -322t86 -322.5t233 -232.5t321 -85zM793 276q-211 0 -315 66t-120 203l357 15q15 -62 93 -62q112 0 112 152v8q-116 -65 -247 -65q-328 0 -328 240v1q0 290 450 290q234 0 346.5 -102t112.5 -310v-9q0 -427 -461 -427zM787 782
q100 0 100 62v1q0 59 -99 59q-102 0 -102 -59v-1q0 -62 101 -62z" />
    <glyph glyph-name="uni24EA" unicode="&#x24ea;" horiz-adv-x="1600" 
d="M800 -20q-195 0 -361 96t-262.5 261.5t-96.5 362.5q0 147 57 280.5t153.5 229.5t230 153t279.5 57q196 0 361.5 -96t262 -262t96.5 -362q0 -197 -96.5 -362.5t-262 -261.5t-361.5 -96zM800 60q131 0 249 50.5t204 136t136.5 204t50.5 249.5q0 175 -85.5 322t-233 232.5
t-321.5 85.5t-321 -85.5t-233 -232.5t-86 -322t86 -322.5t233 -232.5t321 -85zM800 276q-231 0 -343 104t-112 317v5q0 214 112 318t343 104q230 0 342 -104t112 -318v-5q0 -213 -112 -317t-342 -104zM800 521q88 0 88 150v58q0 150 -88 150q-89 0 -89 -150v-58
q0 -150 89 -150z" />
    <glyph glyph-name="uni24FF" unicode="&#x24ff;" horiz-adv-x="1600" 
d="M800 -20q196 0 361.5 96t262 261.5t96.5 362.5q0 196 -96.5 362t-262 262t-361.5 96q-146 0 -279.5 -57t-230 -153t-153.5 -229.5t-57 -280.5q0 -197 96.5 -362.5t262.5 -261.5t361 -96zM800 276q-231 0 -343 104t-112 317v5q0 214 112 318t343 104q230 0 342 -104
t112 -318v-5q0 -213 -112 -317t-342 -104zM800 521q88 0 88 150v58q0 150 -88 150q-89 0 -89 -150v-58q0 -150 89 -150z" />
    <glyph glyph-name="filledbox" unicode="&#x25a0;" horiz-adv-x="1170" 
d="M60 0v1050h1050v-1050h-1050z" />
    <glyph glyph-name="uni25A1" unicode="&#x25a1;" horiz-adv-x="1170" 
d="M60 0v1050h1050v-1050h-1050zM140 80h890v890h-890v-890z" />
    <glyph glyph-name="lozenge" unicode="&#x25ca;" horiz-adv-x="1473" 
d="M502 0l-427 700l427 700h469l427 -700l-427 -700h-469zM721 379h31q41 110 97 213l58 108l-58 108q-56 103 -97 213h-31q-46 -121 -96 -213l-58 -108l58 -108q50 -92 96 -213z" />
    <glyph glyph-name="circle" unicode="&#x25cb;" horiz-adv-x="1248" 
d="M624 -20q-111 0 -211.5 43t-173.5 116t-116 174t-43 212t43 212t116 174t173.5 116t211.5 43t211.5 -43t173.5 -116t116 -174t43 -212t-43 -212t-116 -174t-173.5 -116t-211.5 -43zM624 60q193 0 328.5 136t135.5 329t-135.5 329t-328.5 136t-328.5 -136t-135.5 -329
t135.5 -329t328.5 -136z" />
    <glyph glyph-name="uni25CF" unicode="&#x25cf;" horiz-adv-x="1248" 
d="M624 -20q-111 0 -211.5 43t-173.5 116t-116 174t-43 212t43 212t116 174t173.5 116t211.5 43t211.5 -43t173.5 -116t116 -174t43 -212t-43 -212t-116 -174t-173.5 -116t-211.5 -43z" />
    <glyph glyph-name="uni2776" unicode="&#x2776;" horiz-adv-x="1600" 
d="M800 -20q196 0 361.5 96t262 261.5t96.5 362.5q0 196 -96.5 362t-262 262t-361.5 96q-146 0 -279.5 -57t-230 -153t-153.5 -229.5t-57 -280.5q0 -197 96.5 -362.5t262.5 -261.5t361 -96zM382 305v251h270v192h-251v217q72 1 115.5 3.5t80 9.5t54 15.5t31.5 27.5t19 38.5
t10 55.5h303v-559h203v-251h-835z" />
    <glyph glyph-name="uni2777" unicode="&#x2777;" horiz-adv-x="1600" 
d="M800 -20q196 0 361.5 96t262 261.5t96.5 362.5q0 196 -96.5 362t-262 262t-361.5 96q-146 0 -279.5 -57t-230 -153t-153.5 -229.5t-57 -280.5q0 -197 96.5 -362.5t262.5 -261.5t361 -96zM353 306v230q520 178 520 307q0 56 -63 56q-89 0 -84 -126l-368 18
q-10 174 104 259t350 85q434 0 434 -250q0 -133 -107 -214t-308 -106l1 -12q68 4 118 4h280v-251h-877z" />
    <glyph glyph-name="uni2778" unicode="&#x2778;" horiz-adv-x="1600" 
d="M800 -20q196 0 361.5 96t262 261.5t96.5 362.5q0 196 -96.5 362t-262 262t-361.5 96q-146 0 -279.5 -57t-230 -153t-153.5 -229.5t-57 -280.5q0 -197 96.5 -362.5t262.5 -261.5t361 -96zM806 276q-473 -2 -461 293l372 27q-1 -100 88 -100q74 0 74 54v1q0 62 -84 66
l-52 3v168l52 4q77 6 77 55v5q0 52 -71 52q-87 0 -83 -97l-362 23q-1 147 117.5 220.5t344.5 73.5q215 0 313 -57.5t98 -178.5v-6q0 -117 -138 -164v-11q163 -44 163 -195v-3q0 -118 -109.5 -175t-338.5 -58z" />
    <glyph glyph-name="uni2779" unicode="&#x2779;" horiz-adv-x="1600" 
d="M800 -20q196 0 361.5 96t262 261.5t96.5 362.5q0 196 -96.5 362t-262 262t-361.5 96q-146 0 -279.5 -57t-230 -153t-153.5 -229.5t-57 -280.5q0 -197 96.5 -362.5t262.5 -261.5t361 -96zM783 305v124h-450v196l320 490h483v-465h90v-221h-90v-124h-353zM647 650h136v98
q0 58 6 136l-20 3q-24 -55 -44 -92z" />
    <glyph glyph-name="uni277A" unicode="&#x277a;" horiz-adv-x="1600" 
d="M800 -22q196 0 361.5 96t262 261.5t96.5 362.5q0 196 -96.5 362t-262 262t-361.5 96q-146 0 -279.5 -57t-230 -153t-153.5 -229.5t-57 -280.5q0 -197 96.5 -362.5t262.5 -261.5t361 -96zM811 283q-453 0 -462 246l372 17q9 -47 76 -47q80 0 80 61v3q0 65 -77 65
q-67 0 -74 -43l-370 12l18 515h833v-237h-503v-87q96 33 198 33q176 0 262 -63.5t86 -194.5v-9q0 -137 -108.5 -204t-330.5 -67z" />
    <glyph glyph-name="uni277B" unicode="&#x277b;" horiz-adv-x="1600" 
d="M800 -20q196 0 361.5 96t262 261.5t96.5 362.5q0 196 -96.5 362t-262 262t-361.5 96q-146 0 -279.5 -57t-230 -153t-153.5 -229.5t-57 -280.5q0 -197 96.5 -362.5t262.5 -261.5t361 -96zM807 1124q211 0 315 -66t120 -203l-357 -15q-15 62 -93 62q-112 0 -112 -152v-8
q116 65 247 65q328 0 328 -240v-1q0 -290 -450 -290q-234 0 -346.5 102t-112.5 310v9q0 427 461 427zM813 618q-100 0 -100 -62v-1q0 -59 99 -59q102 0 102 59v1q0 62 -101 62z" />
    <glyph glyph-name="uni277C" unicode="&#x277c;" horiz-adv-x="1600" 
d="M800 -20q196 0 361.5 96t262 261.5t96.5 362.5q0 196 -96.5 362t-262 262t-361.5 96q-146 0 -279.5 -57t-230 -153t-153.5 -229.5t-57 -280.5q0 -197 96.5 -362.5t262.5 -261.5t361 -96zM589 294q23 195 86.5 324.5t194.5 228.5h-471v258h802v-201q-82 -70 -127.5 -143
t-73 -179.5t-48.5 -287.5h-363z" />
    <glyph glyph-name="uni277D" unicode="&#x277d;" horiz-adv-x="1600" 
d="M800 -20q196 0 361.5 96t262 261.5t96.5 362.5q0 196 -96.5 362t-262 262t-361.5 96q-146 0 -279.5 -57t-230 -153t-153.5 -229.5t-57 -280.5q0 -197 96.5 -362.5t262.5 -261.5t361 -96zM800 276q-455 0 -455 255v5q0 127 162 172v10q-136 40 -136 165v6q0 235 429 235
q428 0 428 -235v-6q0 -125 -136 -165v-10q162 -45 162 -172v-5q0 -255 -454 -255zM800 795q87 0 87 56v3q0 57 -87 57t-87 -57v-3q0 -56 87 -56zM800 489q95 0 95 60v1q0 61 -95 61t-95 -61v-1q0 -60 95 -60z" />
    <glyph glyph-name="uni277E" unicode="&#x277e;" horiz-adv-x="1600" 
d="M800 -20q196 0 361.5 96t262 261.5t96.5 362.5q0 196 -96.5 362t-262 262t-361.5 96q-146 0 -279.5 -57t-230 -153t-153.5 -229.5t-57 -280.5q0 -197 96.5 -362.5t262.5 -261.5t361 -96zM793 276q-211 0 -315 66t-120 203l357 15q15 -62 93 -62q112 0 112 152v8
q-116 -65 -247 -65q-328 0 -328 240v1q0 290 450 290q234 0 346.5 -102t112.5 -310v-9q0 -427 -461 -427zM787 782q100 0 100 62v1q0 59 -99 59q-102 0 -102 -59v-1q0 -62 101 -62z" />
    <glyph glyph-name="uni2B1B" unicode="&#x2b1b;" horiz-adv-x="1520" 
d="M60 0v1400h1400v-1400h-1400z" />
    <glyph glyph-name="uni2B1C" unicode="&#x2b1c;" horiz-adv-x="1520" 
d="M60 0v1400h1400v-1400h-1400zM140 80h1240v1240h-1240v-1240z" />
    <glyph glyph-name="uni2B24" unicode="&#x2b24;" horiz-adv-x="1600" 
d="M800 -20q196 0 361.5 96t262 261.5t96.5 362.5q0 196 -96.5 362t-262 262t-361.5 96q-146 0 -279.5 -57t-230 -153t-153.5 -229.5t-57 -280.5q0 -197 96.5 -362.5t262.5 -261.5t361 -96z" />
    <glyph glyph-name="uni2BA0" unicode="&#x2ba0;" horiz-adv-x="1401" 
d="M863 -255l-833 739v69l833 737v-448l-34 -19q-55 -31 -158 -81l8 -25q104 15 230 15h42v538h430v-968h-472q-133 0 -230 14l-8 -25q87 -41 158 -81l34 -19v-446z" />
    <glyph glyph-name="uni2BA1" unicode="&#x2ba1;" horiz-adv-x="1401" 
d="M538 -255v446l34 19q71 40 158 81l-8 25q-97 -14 -230 -14h-472v968h430v-538h42q126 0 230 -15l8 25q-103 50 -158 81l-34 19v448l833 -737v-69z" />
    <glyph glyph-name="uni2BA2" unicode="&#x2ba2;" horiz-adv-x="1411" 
d="M863 1305v-446l-34 -19q-71 -40 -158 -81l8 -25q97 14 230 14h472v-968h-430v538h-42q-126 0 -230 15l-8 -25q103 -50 158 -81l34 -19v-448l-833 737v69z" />
    <glyph glyph-name="uni2BA3" unicode="&#x2ba3;" horiz-adv-x="1411" 
d="M548 1305l833 -739v-69l-833 -737v448l34 19q55 31 158 81l-8 25q-104 -15 -230 -15h-42v-538h-430v968h472q133 0 230 -14l8 25q-87 41 -158 81l-34 19v446z" />
    <glyph glyph-name="uni2BA4" unicode="&#x2ba4;" horiz-adv-x="1625" 
d="M40 397l739 833h69l737 -833h-448l-19 34q-31 55 -81 158l-25 -8q15 -104 15 -230v-42h538v-430h-968v472q0 133 14 230l-25 8q-41 -87 -81 -158l-19 -34h-446z" />
    <glyph glyph-name="uni2BA5" unicode="&#x2ba5;" horiz-adv-x="1625" 
d="M1585 397h-446l-19 34q-40 71 -81 158l-25 -8q14 -97 14 -230v-472h-968v430h538v42q0 126 15 230l-25 8q-50 -103 -81 -158l-19 -34h-448l737 833h69z" />
    <glyph glyph-name="uni2BA6" unicode="&#x2ba6;" horiz-adv-x="1625" 
d="M40 712h446l19 -34q40 -71 81 -158l25 8q-14 97 -14 230v472h968v-430h-538v-42q0 -126 -15 -230l25 -8q50 103 81 158l19 34h448l-737 -833h-69z" />
    <glyph glyph-name="uni2BA7" unicode="&#x2ba7;" horiz-adv-x="1625" 
d="M1585 712l-739 -833h-69l-737 833h448l19 -34q31 -55 81 -158l25 8q-15 104 -15 230v42h-538v430h968v-472q0 -133 -14 -230l25 -8q41 87 81 158l19 34h446z" />
    <glyph glyph-name="IJacute" horiz-adv-x="2407" 
d="M179 1478l93 242h510l-193 -242h-410zM1819 1478l93 242h510l-193 -242h-410zM75 1400h620v-1400h-620v1400zM1579 -30q-414 0 -600.5 143.5t-178.5 470.5l619 76q3 -166 39.5 -238t120.5 -72q66 0 102 37t36 107v906h620v-938q0 -253 -186.5 -372.5t-571.5 -119.5z" />
    <glyph glyph-name="a.ss01" horiz-adv-x="1668" 
d="M566 -20q-261 0 -388.5 134t-127.5 409v4q0 275 127.5 409t388.5 134q318 0 463 -259l19 9q-55 155 -55 230h615v-1050h-615q0 75 55 230l-19 9q-145 -259 -463 -259zM825 309q168 0 168 207v18q0 207 -168 207q-160 0 -160 -207v-18q0 -207 160 -207z" />
    <glyph glyph-name="aacute.ss01" horiz-adv-x="1668" 
d="M744 1400h510l-253 -272h-380zM566 -20q-261 0 -388.5 134t-127.5 409v4q0 275 127.5 409t388.5 134q318 0 463 -259l19 9q-55 155 -55 230h615v-1050h-615q0 75 55 230l-19 9q-145 -259 -463 -259zM825 309q168 0 168 207v18q0 207 -168 207q-160 0 -160 -207v-18
q0 -207 160 -207z" />
    <glyph glyph-name="abreve.ss01" horiz-adv-x="1668" 
d="M951 1400h350q-4 -139 -120 -208t-352 -69t-352 69t-120 208h350q2 -35 30 -50t92 -15t92 15t30 50zM566 -20q-261 0 -388.5 134t-127.5 409v4q0 275 127.5 409t388.5 134q318 0 463 -259l19 9q-55 155 -55 230h615v-1050h-615q0 75 55 230l-19 9q-145 -259 -463 -259z
M825 309q168 0 168 207v18q0 207 -168 207q-160 0 -160 -207v-18q0 -207 160 -207z" />
    <glyph glyph-name="acircumflex.ss01" horiz-adv-x="1668" 
d="M348 1128l217 272h530l217 -272h-380l-102 80l-102 -80h-380zM566 -20q-261 0 -388.5 134t-127.5 409v4q0 275 127.5 409t388.5 134q318 0 463 -259l19 9q-55 155 -55 230h615v-1050h-615q0 75 55 230l-19 9q-145 -259 -463 -259zM825 309q168 0 168 207v18
q0 207 -168 207q-160 0 -160 -207v-18q0 -207 160 -207z" />
    <glyph glyph-name="adieresis.ss01" horiz-adv-x="1668" 
d="M254 1120v280h535v-280h-535zM869 1120v280h535v-280h-535zM566 -20q-261 0 -388.5 134t-127.5 409v4q0 275 127.5 409t388.5 134q318 0 463 -259l19 9q-55 155 -55 230h615v-1050h-615q0 75 55 230l-19 9q-145 -259 -463 -259zM825 309q168 0 168 207v18q0 207 -168 207
q-160 0 -160 -207v-18q0 -207 160 -207z" />
    <glyph glyph-name="agrave.ss01" horiz-adv-x="1668" 
d="M914 1400l123 -272h-380l-253 272h510zM566 -20q-261 0 -388.5 134t-127.5 409v4q0 275 127.5 409t388.5 134q318 0 463 -259l19 9q-55 155 -55 230h615v-1050h-615q0 75 55 230l-19 9q-145 -259 -463 -259zM825 309q168 0 168 207v18q0 207 -168 207q-160 0 -160 -207
v-18q0 -207 160 -207z" />
    <glyph glyph-name="amacron.ss01" horiz-adv-x="1668" 
d="M371 1125v275h915v-275h-915zM566 -20q-261 0 -388.5 134t-127.5 409v4q0 275 127.5 409t388.5 134q318 0 463 -259l19 9q-55 155 -55 230h615v-1050h-615q0 75 55 230l-19 9q-145 -259 -463 -259zM825 309q168 0 168 207v18q0 207 -168 207q-160 0 -160 -207v-18
q0 -207 160 -207z" />
    <glyph glyph-name="aogonek.ss01" horiz-adv-x="1668" 
d="M1608 0q-193 -39 -193 -90q0 -32 67 -32q39 0 98 11l-38 -234q-107 -35 -254 -35q-276 0 -276 180q0 68 43 120t123 80h-185q0 75 55 230l-19 9q-145 -259 -463 -259q-261 0 -388.5 134t-127.5 409v4q0 275 127.5 409t388.5 134q318 0 463 -259l19 9q-55 155 -55 230h615
v-1050zM993 516v18q0 207 -168 207q-160 0 -160 -207v-18q0 -207 160 -207q168 0 168 207z" />
    <glyph glyph-name="aring.ss01" horiz-adv-x="1668" 
d="M829 1120q-135 0 -215 69t-80 186t80 186t215 69t215 -69t80 -186t-80 -186t-215 -69zM829 1310q29 0 47 18t18 47t-18 47t-47 18t-47 -18t-18 -47t18 -47t47 -18zM566 -20q-261 0 -388.5 134t-127.5 409v4q0 275 127.5 409t388.5 134q318 0 463 -259l19 9
q-55 155 -55 230h615v-1050h-615q0 75 55 230l-19 9q-145 -259 -463 -259zM825 309q168 0 168 207v18q0 207 -168 207q-160 0 -160 -207v-18q0 -207 160 -207z" />
    <glyph glyph-name="atilde.ss01" horiz-adv-x="1668" 
d="M1045 1142q-76 0 -158 20t-144 39.5t-92 19.5q-29 0 -46 -16t-23 -53h-300q0 160 85 254t235 94q79 0 162.5 -20t147 -39.5t93.5 -19.5t47 15.5t23 53.5h300q0 -161 -86.5 -254.5t-243.5 -93.5zM566 -20q-261 0 -388.5 134t-127.5 409v4q0 275 127.5 409t388.5 134
q318 0 463 -259l19 9q-55 155 -55 230h615v-1050h-615q0 75 55 230l-19 9q-145 -259 -463 -259zM825 309q168 0 168 207v18q0 207 -168 207q-160 0 -160 -207v-18q0 -207 160 -207z" />
    <glyph glyph-name="i.loclTRK" horiz-adv-x="735" 
d="M110 1110v290h515v-290h-515zM60 0v1050h615v-1050h-615z" />
    <glyph glyph-name="ijacute" horiz-adv-x="1470" 
d="M208 1400h510l-143 -272h-440zM958 1400h510l-143 -272h-440zM60 0v1050h615v-1050h-615zM619 -375l-29 330l96 8q69 6 89 28t20 82v977h615v-948q0 -103 -17.5 -178t-55.5 -132t-99.5 -91t-149.5 -55t-204.5 -24t-264.5 3z" />
    <glyph glyph-name="f_f" horiz-adv-x="1825" 
d="M140 0v710h-110v340h110v11q0 126 61.5 202t219 116.5t430.5 40.5l25 -291l-59 -5q-50 -4 -71.5 -21t-21.5 -48v-15h261v21q0 76 20.5 131.5t72.5 102.5t140 75.5t224 44t324 15.5l25 -306l-109 -4q-76 -3 -99.5 -17t-23.5 -48v-5h236v-340h-205v-710h-615v710h-220v-710
h-615z" />
    <glyph glyph-name="f_t" horiz-adv-x="1846" 
d="M1418 -29q-224 0 -333.5 85.5t-109.5 260.5v393h-220v-710h-615v710h-110v340h110v11q0 94 33.5 160t114 114.5t219.5 71.5t344 23l25 -296l-59 -5q-50 -4 -71.5 -21.5t-21.5 -52.5v-15h261v200l605 120v-310h226v-340h-226v-257q0 -57 25.5 -80t88.5 -23q65 0 122 15
l-24 -342q-155 -52 -384 -52z" />
    <glyph glyph-name="t_t" horiz-adv-x="1942" 
d="M583 -29q-224 0 -333.5 85.5t-109.5 260.5v393h-110v340h110v170l615 120v-290h316v190l615 120v-310h226v-340h-226v-257q0 -57 25.5 -80t88.5 -23q65 0 122 15l-24 -342q-155 -52 -384 -52q-224 0 -333.5 85.5t-109.5 260.5v393h-316v-257q0 -57 25.5 -80t88.5 -23
q49 0 102 13l-24 -342q-151 -50 -364 -50z" />
    <glyph glyph-name="f.calt" horiz-adv-x="940" 
d="M140 0v710h-110v340h110v11q0 95 35 160.5t122.5 114t243.5 71.5t390 23l25 -306l-109 -8q-80 -6 -101.5 -17t-21.5 -44v-5h176v-340h-145v-710h-615z" />
    <glyph glyph-name="t.calt" horiz-adv-x="961" 
d="M583 -29q-224 0 -333.5 85.5t-109.5 260.5v393h-110v340h110v190l615 120v-310h166v-340h-166v-257q0 -57 25.5 -80t88.5 -23q65 0 122 15l-24 -342q-155 -52 -384 -52z" />
    <glyph glyph-name="tbar.calt" horiz-adv-x="961" 
d="M869 350q65 0 122 15l-24 -342q-155 -52 -384 -52q-224 0 -333.5 85.5t-109.5 260.5v103h-110v230h110v60h-110v340h110v190l615 120v-310h166v-340h-166v-60h166v-230h-164q7 -38 33 -54t79 -16z" />
    <glyph glyph-name="tcaron.calt" horiz-adv-x="961" 
d="M805 1400h359v-88q0 -69 -14.5 -110t-55 -67t-105 -35.5t-171.5 -9.5l-13 86q49 4 65 13t16 32h-81v179zM583 -29q-224 0 -333.5 85.5t-109.5 260.5v393h-110v340h110v190l615 120v-310h166v-340h-166v-257q0 -57 25.5 -80t88.5 -23q65 0 122 15l-24 -342
q-155 -52 -384 -52z" />
    <glyph glyph-name="uni0163.calt" horiz-adv-x="961" 
d="M967 23q-113 -39 -272 -48l-10 -42q134 -5 199 -38t65 -106q0 -169 -304 -169q-128 0 -254 49l30 172q89 -36 170 -36q54 0 54 26t-50 35.5t-166 11.5l18 102q-307 47 -307 337v393h-110v340h110v190l615 120v-310h166v-340h-166v-257q0 -57 25.5 -80t88.5 -23
q65 0 122 15z" />
    <glyph glyph-name="uni021B.calt" horiz-adv-x="961" 
d="M583 -29q-224 0 -333.5 85.5t-109.5 260.5v393h-110v340h110v190l615 120v-310h166v-340h-166v-257q0 -57 25.5 -80t88.5 -23q65 0 122 15l-24 -342q-155 -52 -384 -52zM351 -90h463v-88q0 -59 -10 -95t-35.5 -65t-77.5 -43t-129.5 -21.5t-197.5 -7.5l-13 96
q100 4 125.5 12.5t25.5 32.5h-151v179z" />
    <glyph glyph-name="zero.slashed" horiz-adv-x="1802" 
d="M901 1430q428 0 637 -180t209 -549v-4q0 -367 -209 -547t-637 -180t-637 180t-209 547v4q0 369 209 549t637 180zM901 1041q-203 0 -206 -317l382 194q-47 123 -176 123zM901 361q202 0 206 315l-381 -194q48 -121 175 -121z" />
    <glyph glyph-name="zero.tf.slashed" horiz-adv-x="1500" 
d="M751 1430q361 0 537.5 -180t176.5 -549v-4q0 -367 -176.5 -547t-537.5 -180q-362 0 -539 179.5t-177 547.5v4q0 369 177 549t539 180zM751 1065q-92 0 -133 -74t-41 -240v-11l333 170q-16 81 -54.5 118t-104.5 37zM751 336q91 0 131.5 73.5t40.5 239.5v10l-333 -169
q16 -80 55.5 -117t105.5 -37z" />
    <glyph glyph-name="zero.tf" horiz-adv-x="1500" 
d="M751 -30q-362 0 -539 179.5t-177 547.5v4q0 369 177 549t539 180q361 0 537.5 -180t176.5 -549v-4q0 -367 -176.5 -547t-537.5 -180zM751 336q91 0 131.5 73.5t40.5 239.5v102q0 166 -40.5 240t-131.5 74q-92 0 -133 -74t-41 -240v-102q0 -166 41 -239.5t133 -73.5z" />
    <glyph glyph-name="one.tf" horiz-adv-x="1500" 
d="M100 0v376h444v442h-413v322q116 2 185.5 6t128.5 16t87.5 26.5t51.5 46.5t31.5 67.5t16.5 97.5h447v-1024h341v-376h-1320z" />
    <glyph glyph-name="two.tf" horiz-adv-x="1500" 
d="M71 0v340q409 172 608.5 323.5t199.5 295.5q0 117 -114 117q-80 0 -114 -68t-24 -214l-542 31q-20 302 159 453.5t543 151.5q321 0 481 -105.5t160 -321.5q0 -227 -164 -379t-492 -236l2 -18q99 6 190 6h455v-376h-1348z" />
    <glyph glyph-name="three.tf" horiz-adv-x="1500" 
d="M752 -30q-370 -1 -545.5 120.5t-169.5 382.5l549 43q0 -111 43 -163t131 -52q72 0 109.5 33.5t37.5 96.5v4q0 134 -163 142l-100 5v260l100 5q149 7 149 124v4q0 58 -36.5 91t-105.5 33q-85 0 -124.5 -48t-35.5 -154l-533 36q-1 257 168.5 377t523.5 120
q341 0 506.5 -98.5t165.5 -304.5v-4q0 -110 -57 -181t-175 -108v-18q138 -37 205.5 -120.5t67.5 -218.5v-4q0 -202 -176 -302t-535 -101z" />
    <glyph glyph-name="four.tf" horiz-adv-x="1500" 
d="M763 0v230h-714v292l534 878h718v-838h150v-332h-150v-230h-538zM519 562h244v225q0 109 13 229l-20 3q-36 -80 -86 -174z" />
    <glyph glyph-name="five.tf" horiz-adv-x="1500" 
d="M777 -30q-707 0 -722 420l548 30q14 -124 154 -124q82 0 120 37t38 114v4q0 80 -36.5 118t-116.5 38q-129 0 -154 -98l-539 20l32 871h1325v-358h-837l-5 -203q154 63 327 63q284 0 420 -112t136 -340v-4q0 -241 -169.5 -358.5t-520.5 -117.5z" />
    <glyph glyph-name="six.tf" horiz-adv-x="1500" 
d="M762 1430q330 0 503.5 -112t198.5 -342l-550 -28q-12 77 -54.5 111.5t-118.5 34.5q-102 0 -153 -72t-51 -224v-2q200 89 399 89q277 0 412 -105.5t135 -321.5v-2q0 -247 -177 -366.5t-548 -119.5q-374 0 -557 175t-183 534v2q0 379 184 564t560 185zM757 584
q-185 0 -185 -145v-1q0 -147 185 -147q186 0 186 147v1q0 145 -186 145z" />
    <glyph glyph-name="seven.tf" horiz-adv-x="1500" 
d="M437 0q32 355 135 595.5t314 417.5h-836v388h1400v-303q-228 -193 -335.5 -452t-139.5 -646h-538z" />
    <glyph glyph-name="eight.tf" horiz-adv-x="1500" 
d="M750 -30q-367 0 -546.5 107t-179.5 325v4q0 240 272 310v18q-231 65 -231 293v4q0 202 169.5 300.5t515.5 98.5t515.5 -98.5t169.5 -300.5v-4q0 -228 -231 -293v-18q272 -70 272 -310v-4q0 -218 -179.5 -325t-546.5 -107zM750 851q167 0 167 126v4q0 127 -167 127
t-167 -127v-4q0 -126 167 -126zM750 292q181 0 181 138v4q0 135 -181 135t-181 -135v-4q0 -138 181 -138z" />
    <glyph glyph-name="nine.tf" horiz-adv-x="1500" 
d="M738 -30q-330 0 -503.5 112t-198.5 342l550 28q12 -77 54.5 -111.5t118.5 -34.5q102 0 153 72t51 224v2q-200 -89 -399 -89q-277 0 -412 105.5t-135 321.5v2q0 247 177 366.5t548 119.5q374 0 557 -175t183 -534v-2q0 -379 -184 -564t-560 -185zM743 816q185 0 185 145v1
q0 147 -185 147q-186 0 -186 -147v-1q0 -145 186 -145z" />
    <glyph glyph-name="zero.dnom" horiz-adv-x="949" 
d="M475 -10q-231 0 -343 104t-112 317v5q0 214 112 318t343 104q230 0 342 -104t112 -318v-5q0 -213 -112 -317t-342 -104zM475 235q88 0 88 150v58q0 150 -88 150q-89 0 -89 -150v-58q0 -150 89 -150z" />
    <glyph glyph-name="one.dnom" horiz-adv-x="949" 
d="M57 0v251h270v192h-251v217q72 1 115.5 3.5t80 9.5t54 15.5t31.5 27.5t19 38.5t10 55.5h303v-559h203v-251h-835z" />
    <glyph glyph-name="two.dnom" horiz-adv-x="949" 
d="M28 0v230q520 178 520 307q0 56 -63 56q-89 0 -84 -126l-368 18q-10 174 104 259t350 85q434 0 434 -250q0 -133 -107 -214t-308 -106l1 -12q68 4 118 4h280v-251h-877z" />
    <glyph glyph-name="three.dnom" horiz-adv-x="949" 
d="M481 -20q-473 -2 -461 293l372 27q-1 -100 88 -100q74 0 74 54v1q0 62 -84 66l-52 3v168l52 4q77 6 77 55v5q0 52 -71 52q-87 0 -83 -97l-362 23q-1 147 117.5 220.5t344.5 73.5q215 0 313 -57.5t98 -178.5v-6q0 -117 -138 -164v-11q163 -44 163 -195v-3
q0 -118 -109.5 -175t-338.5 -58z" />
    <glyph glyph-name="four.dnom" horiz-adv-x="949" 
d="M478 0v124h-450v196l320 490h483v-465h90v-221h-90v-124h-353zM342 345h136v98q0 58 6 136l-20 3q-24 -55 -44 -92z" />
    <glyph glyph-name="five.dnom" horiz-adv-x="949" 
d="M486 -20q-453 0 -462 246l372 17q9 -47 76 -47q80 0 80 61v3q0 65 -77 65q-67 0 -74 -43l-370 12l18 515h833v-237h-503v-87q96 33 198 33q176 0 262 -63.5t86 -194.5v-9q0 -137 -108.5 -204t-330.5 -67z" />
    <glyph glyph-name="six.dnom" horiz-adv-x="949" 
d="M481 838q211 0 315 -66t120 -203l-357 -15q-15 62 -93 62q-112 0 -112 -152v-8q116 65 247 65q328 0 328 -240v-1q0 -290 -450 -290q-234 0 -346.5 102t-112.5 310v9q0 427 461 427zM487 332q-100 0 -100 -62v-1q0 -59 99 -59q102 0 102 59v1q0 62 -101 62z" />
    <glyph glyph-name="seven.dnom" horiz-adv-x="949" 
d="M264 0q23 195 86.5 324.5t194.5 228.5h-471v258h802v-201q-82 -70 -127.5 -143t-73 -179.5t-48.5 -287.5h-363z" />
    <glyph glyph-name="eight.dnom" horiz-adv-x="949" 
d="M475 -23q-455 0 -455 255v5q0 127 162 172v10q-136 40 -136 165v6q0 235 429 235q428 0 428 -235v-6q0 -125 -136 -165v-10q162 -45 162 -172v-5q0 -255 -454 -255zM475 496q87 0 87 56v3q0 57 -87 57t-87 -57v-3q0 -56 87 -56zM475 190q95 0 95 60v1q0 61 -95 61
t-95 -61v-1q0 -60 95 -60z" />
    <glyph glyph-name="nine.dnom" horiz-adv-x="949" 
d="M468 -20q-211 0 -315 66t-120 203l357 15q15 -62 93 -62q112 0 112 152v8q-116 -65 -247 -65q-328 0 -328 240v1q0 290 450 290q234 0 346.5 -102t112.5 -310v-9q0 -427 -461 -427zM462 486q100 0 100 62v1q0 59 -99 59q-102 0 -102 -59v-1q0 -62 101 -62z" />
    <glyph glyph-name="zero.numr" horiz-adv-x="949" 
d="M475 579q-231 0 -343 104t-112 317v5q0 214 112 318t343 104q230 0 342 -104t112 -318v-5q0 -213 -112 -317t-342 -104zM475 824q88 0 88 150v58q0 150 -88 150q-89 0 -89 -150v-58q0 -150 89 -150z" />
    <glyph glyph-name="one.numr" horiz-adv-x="949" 
d="M57 589v251h270v192h-251v217q72 1 115.5 3.5t80 9.5t54 15.5t31.5 27.5t19 38.5t10 55.5h303v-559h203v-251h-835z" />
    <glyph glyph-name="two.numr" horiz-adv-x="949" 
d="M28 589v230q520 178 520 307q0 56 -63 56q-89 0 -84 -126l-368 18q-10 174 104 259t350 85q434 0 434 -250q0 -133 -107 -214t-308 -106l1 -12q68 4 118 4h280v-251h-877z" />
    <glyph glyph-name="three.numr" horiz-adv-x="949" 
d="M481 569q-473 -2 -461 293l372 27q-1 -100 88 -100q74 0 74 54v1q0 62 -84 66l-52 3v168l52 4q77 6 77 55v5q0 52 -71 52q-87 0 -83 -97l-362 23q-1 147 117.5 220.5t344.5 73.5q215 0 313 -57.5t98 -178.5v-6q0 -117 -138 -164v-11q163 -44 163 -195v-3
q0 -118 -109.5 -175t-338.5 -58z" />
    <glyph glyph-name="four.numr" horiz-adv-x="949" 
d="M478 589v124h-450v196l320 490h483v-465h90v-221h-90v-124h-353zM342 934h136v98q0 58 6 136l-20 3q-24 -55 -44 -92z" />
    <glyph glyph-name="five.numr" horiz-adv-x="949" 
d="M486 569q-453 0 -462 246l372 17q9 -47 76 -47q80 0 80 61v3q0 65 -77 65q-67 0 -74 -43l-370 12l18 515h833v-237h-503v-87q96 33 198 33q176 0 262 -63.5t86 -194.5v-9q0 -137 -108.5 -204t-330.5 -67z" />
    <glyph glyph-name="six.numr" horiz-adv-x="949" 
d="M481 1427q211 0 315 -66t120 -203l-357 -15q-15 62 -93 62q-112 0 -112 -152v-8q116 65 247 65q328 0 328 -240v-1q0 -290 -450 -290q-234 0 -346.5 102t-112.5 310v9q0 427 461 427zM487 921q-100 0 -100 -62v-1q0 -59 99 -59q102 0 102 59v1q0 62 -101 62z" />
    <glyph glyph-name="seven.numr" horiz-adv-x="949" 
d="M264 589q23 195 86.5 324.5t194.5 228.5h-471v258h802v-201q-82 -70 -127.5 -143t-73 -179.5t-48.5 -287.5h-363z" />
    <glyph glyph-name="eight.numr" horiz-adv-x="949" 
d="M475 566q-455 0 -455 255v5q0 127 162 172v10q-136 40 -136 165v6q0 235 429 235q428 0 428 -235v-6q0 -125 -136 -165v-10q162 -45 162 -172v-5q0 -255 -454 -255zM475 1085q87 0 87 56v3q0 57 -87 57t-87 -57v-3q0 -56 87 -56zM475 779q95 0 95 60v1q0 61 -95 61
t-95 -61v-1q0 -60 95 -60z" />
    <glyph glyph-name="nine.numr" horiz-adv-x="949" 
d="M468 569q-211 0 -315 66t-120 203l357 15q15 -62 93 -62q112 0 112 152v8q-116 -65 -247 -65q-328 0 -328 240v1q0 290 450 290q234 0 346.5 -102t112.5 -310v-9q0 -427 -461 -427zM462 1075q100 0 100 62v1q0 59 -99 59q-102 0 -102 -59v-1q0 -62 101 -62z" />
    <glyph glyph-name="colon.case" horiz-adv-x="671" 
d="M60 1225h551v-439h-551v439zM60 614h551v-439h-551v439z" />
    <glyph glyph-name="semicolon.case" horiz-adv-x="671" 
d="M60 1225h551v-439h-551v439zM60 614h551v-359q0 -85 -26.5 -155t-73 -118t-111.5 -81.5t-139.5 -49.5t-159.5 -18l-41 184q113 11 162 44t49 114h-211v439z" />
    <glyph glyph-name="bullet.case" horiz-adv-x="960" 
d="M180 420v560h600v-560h-600z" />
    <glyph glyph-name="parenleft.case" horiz-adv-x="845" 
d="M845 1450q-280 -335 -280 -750t280 -750h-510q-280 335 -280 750t280 750h510z" />
    <glyph glyph-name="parenright.case" horiz-adv-x="845" 
d="M0 1450h510q280 -335 280 -750t-280 -750h-510q280 335 280 750t-280 750z" />
    <glyph glyph-name="braceleft.case" horiz-adv-x="970" 
d="M960 1110h-160q-130 0 -130 -120v-80q0 -155 -140 -200v-20q140 -45 140 -200v-80q0 -120 130 -120h160v-340h-395q-205 0 -305 88t-100 267v85q0 130 -130 160v300q130 30 130 160v85q0 179 100 267t305 88h395v-340z" />
    <glyph glyph-name="braceright.case" horiz-adv-x="970" 
d="M10 1110v340h395q205 0 305 -88t100 -267v-85q0 -130 130 -160v-300q-130 -30 -130 -160v-85q0 -179 -100 -267t-305 -88h-395v340h160q130 0 130 120v80q0 155 140 200v20q-140 45 -140 200v80q0 120 -130 120h-160z" />
    <glyph glyph-name="bracketleft.case" horiz-adv-x="865" 
d="M855 1110h-270v-820h270v-340h-780v1500h780v-340z" />
    <glyph glyph-name="bracketright.case" horiz-adv-x="865" 
d="M10 1110v340h780v-1500h-780v340h270v820h-270z" />
    <glyph glyph-name="hyphen.case" horiz-adv-x="885" 
d="M60 885h765v-370h-765v370z" />
    <glyph glyph-name="endash.case" horiz-adv-x="1268" 
d="M60 857h1148v-315h-1148v315z" />
    <glyph glyph-name="emdash.case" horiz-adv-x="1879" 
d="M60 857h1759v-315h-1759v315z" />
    <glyph glyph-name="guillemotleft.case" horiz-adv-x="1645" 
d="M398 275l-348 425l351 425h524l-336 -425l336 -425h-527zM1068 275l-348 425l351 425h524l-336 -425l336 -425h-527z" />
    <glyph glyph-name="guillemotright.case" horiz-adv-x="1645" 
d="M577 275h-527l336 425l-336 425h524l351 -425zM1247 275h-527l336 425l-336 425h524l351 -425z" />
    <glyph glyph-name="guilsinglleft.case" horiz-adv-x="975" 
d="M398 275l-348 425l351 425h524l-336 -425l336 -425h-527z" />
    <glyph glyph-name="guilsinglright.case" horiz-adv-x="975" 
d="M577 275h-527l336 425l-336 425h524l351 -425z" />
    <glyph glyph-name="exclamdown.case" horiz-adv-x="675" 
d="M613 961h-551v439h551v-439zM615 0h-555l43 901h469z" />
    <glyph glyph-name="questiondown.case" horiz-adv-x="1481" 
d="M1051 961h-551v439h551v-439zM994 901q99 -206 -121 -316l-139 -69q-105 -53 -137.5 -80t-32.5 -57q0 -39 38 -60t108 -21q114 0 167 54t37 154l532 -15q34 -252 -154.5 -386.5t-583.5 -134.5q-330 0 -504 104t-174 309q0 59 17 104t53.5 79.5t78.5 58.5t106 51l152 67
q74 31 109 56.5t38 46.5t-5 45l5 10h410z" />
    <glyph glyph-name="period.tf" horiz-adv-x="750" 
d="M100 439h551v-439h-551v439z" />
    <glyph glyph-name="comma.tf" horiz-adv-x="750" 
d="M100 439h551v-359q0 -85 -26.5 -155t-73 -118t-111.5 -81.5t-139.5 -49.5t-159.5 -18l-41 184q113 11 162 44t49 114h-211v439z" />
    <glyph glyph-name="colon.case.tf" horiz-adv-x="750" 
d="M100 1225h551v-439h-551v439zM100 614h551v-439h-551v439z" />
    <glyph glyph-name="semicolon.case.tf" horiz-adv-x="750" 
d="M100 1225h551v-439h-551v439zM100 614h551v-359q0 -85 -26.5 -155t-73 -118t-111.5 -81.5t-139.5 -49.5t-159.5 -18l-41 184q113 11 162 44t49 114h-211v439z" />
    <glyph glyph-name="at.case" horiz-adv-x="2749" 
d="M1439 -295q-668 0 -1026 256t-358 733v2q0 482 346 740.5t989 258.5q629 0 966.5 -256t337.5 -733v-2q0 -270 -147.5 -404.5t-405.5 -134.5q-260 0 -398.5 66.5t-163.5 203.5h-20q-54 -135 -178.5 -202.5t-338.5 -67.5q-184 0 -292 81.5t-108 218.5v2q0 164 126.5 245
t386.5 117l326 45v27q0 43 -26.5 65.5t-76.5 22.5q-56 0 -82 -26t-22 -83h-620q-15 189 169.5 292t565.5 103q374 0 540.5 -93.5t166.5 -304.5v-338q0 -75 70 -75q118 0 118 240v2q0 332 -231.5 510.5t-662.5 178.5q-446 0 -685.5 -181t-239.5 -518v-2q0 -332 252 -510.5
t722 -178.5q467 0 796 99l42 -292q-368 -107 -838 -107zM1301 502q65 0 122.5 50t57.5 108v8l-92 -14q-158 -24 -158 -97v-2q0 -53 70 -53z" />
    <glyph glyph-name="copyright.case" horiz-adv-x="2750" 
d="M1375 -275q-637 0 -978.5 252.5t-341.5 722.5v1q0 470 341.5 722.5t978.5 252.5t978.5 -252.5t341.5 -722.5v-1q0 -470 -341.5 -722.5t-978.5 -252.5zM1375 25q439 0 674.5 175t235.5 500v1q0 325 -235.5 500t-674.5 175t-674.5 -175t-235.5 -500v-1q0 -325 235.5 -500
t674.5 -175zM1381 145q-399 0 -594 133.5t-195 405.5v46q0 266 195 396t594 130q385 0 573.5 -118.5t200.5 -362.5l-616 -39q-7 95 -43 138.5t-115 43.5q-164 0 -164 -197v-28q0 -208 164 -208q159 0 159 183l617 -35q-10 -247 -202 -367.5t-574 -120.5z" />
    <glyph glyph-name="whiteLargeCircle" horiz-adv-x="1600" 
d="M800 -20q-195 0 -361 96t-262.5 261.5t-96.5 362.5q0 147 57 280.5t153.5 229.5t230 153t279.5 57q196 0 361.5 -96t262 -262t96.5 -362q0 -197 -96.5 -362.5t-262 -261.5t-361.5 -96zM800 60q131 0 249 50.5t204 136t136.5 204t50.5 249.5q0 175 -85.5 322t-233 232.5
t-321.5 85.5t-321 -85.5t-233 -232.5t-86 -322t86 -322.5t233 -232.5t321 -85z" />
    <glyph glyph-name="arrowup.ss04" horiz-adv-x="1446" 
d="M508 0v370h-458l-10 20l673 780h20l673 -780l-10 -20h-458v-370h-430z" />
    <glyph glyph-name="uni2197.ss04" horiz-adv-x="1199" 
d="M112 372l262 261l-324 324l7 21l1027 76l15 -14l-76 -1027l-21 -7l-324 323l-262 -261z" />
    <glyph glyph-name="arrowright.ss04" horiz-adv-x="1250" 
d="M40 730h370v458l20 10l780 -673v-20l-780 -673l-20 10v458h-370v430z" />
    <glyph glyph-name="uni2198.ss04" horiz-adv-x="1198" 
d="M416 1061l261 -262l324 324l21 -7l76 -1027l-14 -15l-1027 76l-7 21l323 324l-261 262z" />
    <glyph glyph-name="arrowdown.ss04" horiz-adv-x="1446" 
d="M938 1140v-370h458l10 -20l-673 -780h-20l-673 780l10 20h458v370h430z" />
    <glyph glyph-name="uni2199.ss04" horiz-adv-x="1198" 
d="M782 1061l304 -304l-261 -262l323 -324l-7 -21l-1027 -76l-14 15l76 1027l21 7l324 -324z" />
    <glyph glyph-name="arrowleft.ss04" horiz-adv-x="1250" 
d="M1210 730v-430h-370v-458l-20 -10l-780 673v20l780 673l20 -10v-458h370z" />
    <glyph glyph-name="uni2196.ss04" horiz-adv-x="1199" 
d="M1087 372l-304 -304l-262 261l-324 -323l-21 7l-76 1027l15 14l1027 -76l7 -21l-324 -324z" />
    <glyph glyph-name="arrowboth.ss04" horiz-adv-x="1940" 
d="M1900 505l-780 -673l-20 10v458h-260v-458l-20 -10l-780 673v20l780 673l20 -10v-458h260v458l20 10l780 -673v-20z" />
    <glyph glyph-name="arrowupdn.ss04" horiz-adv-x="1446" 
d="M713 -400l-673 780l10 20h458v260h-458l-10 20l673 780h20l673 -780l-10 -20h-458v-260h458l10 -20l-673 -780h-20z" />
    <glyph glyph-name="uni2BA0.ss04" horiz-adv-x="1431" 
d="M820 -158l-780 673v20l780 673l20 -10v-458h121v538h430v-968h-551v-458z" />
    <glyph glyph-name="uni2BA1.ss04" horiz-adv-x="1431" 
d="M611 -158l-20 10v458h-551v968h430v-538h121v458l20 10l780 -673v-20z" />
    <glyph glyph-name="uni2BA6.ss04" horiz-adv-x="1516" 
d="M40 669l10 20h458v551h968v-430h-538v-121h458l10 -20l-673 -780h-20z" />
    <glyph glyph-name="uni2BA4.ss04" horiz-adv-x="1516" 
d="M40 561l673 780h20l673 -780l-10 -20h-458v-121h538v-430h-968v551h-458z" />
    <glyph glyph-name="uni2BA7.ss04" horiz-adv-x="1516" 
d="M1476 669l-673 -780h-20l-673 780l10 20h458v121h-538v430h968v-551h458z" />
    <glyph glyph-name="uni2BA5.ss04" horiz-adv-x="1516" 
d="M1476 561l-10 -20h-458v-551h-968v430h538v121h-458l-10 20l673 780h20z" />
    <glyph glyph-name="uni2BA2.ss04" horiz-adv-x="1431" 
d="M820 1198l20 -10v-458h551v-968h-430v538h-121v-458l-20 -10l-780 673v20z" />
    <glyph glyph-name="uni2BA3.ss04" horiz-adv-x="1431" 
d="M611 1198l780 -673v-20l-780 -673l-20 10v458h-121v-538h-430v968h551v458z" />
    <glyph glyph-name="uni0328.ae" 
d="M-382 10h360q-68 -33 -95.5 -55t-27.5 -43q0 -34 65 -34q40 0 80 11l-38 -234q-91 -35 -234 -35q-276 0 -276 180q0 136 166 210z" />
    <glyph glyph-name="uni030C.L.case" 
d="M-399 1400h399v-195q0 -173 -89 -242.5t-297 -71.5l-13 173q53 5 77 22t24 51h-101v263z" />
    <glyph glyph-name="uni0308.case" 
d="M-1150 1480v280h535v-280h-535zM-535 1480v280h535v-280h-535z" />
    <glyph glyph-name="uni0307.case" 
d="M-475 1480v280h475v-280h-475z" />
    <glyph glyph-name="gravecomb.case" 
d="M0 1478h-410l-193 242h510z" />
    <glyph glyph-name="acutecomb.case" 
d="M-603 1478l93 242h510l-193 -242h-410z" />
    <glyph glyph-name="uni030B.case" 
d="M-1168 1478l93 242h510l-193 -242h-410zM-603 1478l93 242h510l-193 -242h-410z" />
    <glyph glyph-name="uni0302.case" 
d="M-994 1478l207 242h580l207 -242h-390l-102 80l-102 -80h-400z" />
    <glyph glyph-name="uni030C.case" 
d="M-994 1720h400l102 -80l102 80h390l-207 -242h-580z" />
    <glyph glyph-name="uni0306.case" 
d="M-350 1720h350q-4 -132 -120.5 -189.5t-361.5 -57.5t-361.5 57.5t-120.5 189.5h350q4 -65 132 -65t132 65z" />
    <glyph glyph-name="uni030A.case" 
d="M-320 1450q-155 0 -237.5 49.5t-82.5 141.5t83 141t237 49t237 -49t83 -141t-82.5 -141.5t-237.5 -49.5zM-320 1592q69 0 69 49q0 48 -69 48t-69 -48q0 -49 69 -49z" />
    <glyph glyph-name="tildecomb.case" 
d="M-340 1469q-85 0 -169 19.5t-145 39.5t-90 20t-46 -16t-23 -53h-280q0 154 87 231t243 77q69 0 138.5 -12.5t115 -27t90 -27t69.5 -12.5q30 0 47 15.5t23 53.5h280q0 -155 -88.5 -231.5t-251.5 -76.5z" />
    <glyph glyph-name="uni0304.case" 
d="M-915 1479v275h915v-275h-915z" />
    <glyph glyph-name="uni0326.case" 
d="M-359 1400h359v-88q0 -69 -14.5 -110t-55 -67t-105 -35.5t-171.5 -9.5l-13 86q49 4 65 13t16 32h-81v179z" />
    <glyph glyph-name="uni0302.narrow.case" 
d="M-744 1478l147 241h450l147 -241h-290l-82 83l-82 -83h-290z" />
    <glyph glyph-name="uni0308.narrow" 
d="M-710 1110v290h325v-290h-325zM-325 1110v290h325v-290h-325z" />
    <glyph glyph-name="gravecomb.narrow" 
d="M-73 1400l73 -272h-440l-143 272h510z" />
    <glyph glyph-name="acutecomb.narrow" 
d="M-510 1400h510l-143 -272h-440z" />
    <glyph glyph-name="uni0302.narrow" 
d="M-744 1108l147 292h450l147 -292h-290l-82 100l-82 -100h-290z" />
    <glyph glyph-name="uni030C.narrow" 
d="M0 1400l-147 -292h-450l-147 292h290l82 -100l82 100h290z" />
    <glyph glyph-name="tildecomb.narrow" 
d="M-219 1102q-46 0 -88.5 17t-75.5 34.5t-55 17.5q-19 0 -28.5 -13t-13.5 -46h-181q0 184 50 266t163 82q48 0 91.5 -17t76.5 -34.5t56 -17.5q19 0 29 13t14 46h181q0 -185 -51.5 -266.5t-167.5 -81.5z" />
    <glyph glyph-name="uni0304.narrow" 
d="M-655 1155v245h655v-245h-655z" />
    </font>
</defs>
</svg>
